G04 DesignSpark PCB Gerber Version 11.0 Build 5877*
G04 #@! TF.Part,Single*
G04 #@! TF.FilePolarity,Positive*
%FSLAX35Y35*%
%MOMM*%
G04 #@! TA.AperFunction,ViaDrill*
%ADD105C,0.31000*%
%ADD104C,0.41000*%
%ADD107C,0.51000*%
%ADD103C,0.71000*%
G04 #@! TA.AperFunction,ComponentDrill*
%ADD116C,0.76200*%
G04 #@! TA.AperFunction,ViaDrill*
%ADD106C,0.81000*%
G04 #@! TA.AperFunction,ComponentDrill*
%ADD115C,0.88900*%
%ADD111C,0.90000*%
%ADD110C,1.00000*%
%ADD112C,1.02000*%
%ADD109C,1.20000*%
%ADD108C,1.25000*%
%ADD113C,1.60000*%
%ADD114C,3.25000*%
G04 #@! TD.AperFunction*
X0Y0D02*
D02*
D103*
X615810Y3618630D03*
X1084310Y3244390D03*
Y3752390D03*
X1355810Y4718630D03*
X1383310Y731130D03*
Y3078630D03*
X1616350Y1623630D03*
X1778310Y4241130D03*
X1810810Y3671130D03*
X1841350Y1628630D03*
X2013310Y3351130D03*
X2553310Y4143630D03*
X2695810Y6448630D03*
X2698310Y945630D03*
X2713310Y1176350D03*
X2894010Y7908630D03*
X3155810Y1981130D03*
Y2376130D03*
X3160810Y3153630D03*
X3163310Y3533630D03*
X3203310Y1176350D03*
X3298310Y7733630D03*
X3488310Y7368630D03*
X3555810Y688630D03*
X3735010Y3441130D03*
X3736010Y4131130D03*
X3738310Y5918630D03*
X3885810Y2943630D03*
X3963310Y3441130D03*
X3965810Y3998630D03*
X4018310Y983630D03*
Y1956130D03*
X4295810Y5356130D03*
Y6318630D03*
X4348310Y2266130D03*
X4625810Y2066130D03*
X5155810Y2061130D03*
X5433310Y5283630D03*
X5640810Y1791130D03*
X5765810Y4471130D03*
X5800810Y2663630D03*
X5833310Y2868630D03*
X6123310Y7238630D03*
X6333310Y6023630D03*
D02*
D104*
X483310Y4093630D03*
Y4173630D03*
Y4253630D03*
Y4333630D03*
Y4413630D03*
X573310Y4093630D03*
Y4173630D03*
Y4253630D03*
Y4333630D03*
Y4413630D03*
D02*
D105*
X2683310Y7353630D03*
X2704420Y7529740D03*
X2758310Y7011130D03*
X2763310Y6784630D03*
X3093310Y6613630D03*
X3258310Y7333630D03*
X3323310Y7071130D03*
X3443310Y5591130D03*
X3548310Y5616130D03*
X3803310Y6301130D03*
X4250810Y7828630D03*
X4445810Y5791130D03*
X4453310Y2668630D03*
Y3188630D03*
X4520810Y2551130D03*
Y6383630D03*
X4590810Y2463630D03*
X4595810Y6208630D03*
X4660810Y2378630D03*
Y6296130D03*
X4760810Y7343630D03*
Y7728630D03*
X4853010Y2338630D03*
X4875810Y7068630D03*
X4913310Y6538630D03*
X4925810Y7576130D03*
X4943310Y6871130D03*
X4980810Y3391130D03*
X5043310Y3146130D03*
Y3218630D03*
X5048310Y6473630D03*
X5083310Y2783630D03*
X5085810Y2496130D03*
Y2698630D03*
Y2858630D03*
X5090810Y3018630D03*
X5093310Y2938630D03*
X5178310Y2823130D03*
X5238310Y2566130D03*
X5243310Y2986130D03*
X5305810Y3446130D03*
X5320810Y4371130D03*
X5330810Y2628130D03*
X5335810Y2496130D03*
X5338310Y2423630D03*
X5380810Y6913630D03*
X5388310Y5776130D03*
X5480810Y3408630D03*
X5490810Y2296130D03*
X5545810Y3883630D03*
X5608310Y3383630D03*
X5698310Y3216130D03*
X5705810Y2938630D03*
X5715810Y3028630D03*
X5725810Y7126130D03*
X5735810Y6908630D03*
X5755810Y5906130D03*
X5760810Y5788630D03*
X5778310Y3411130D03*
X5845810Y3518630D03*
X5895810Y5646130D03*
Y5913630D03*
X5898310Y2293630D03*
X5905810Y3216130D03*
X6080810Y4161130D03*
X6398310Y5643630D03*
D02*
D106*
X1088310Y351130D03*
X1183310Y5433630D03*
Y5608630D03*
X1358310Y5258630D03*
Y5433630D03*
Y5608630D03*
X1533310Y5433630D03*
Y5608630D03*
X1593310Y351130D03*
D02*
D107*
X2573310Y4748630D03*
Y4903630D03*
Y5043630D03*
Y5183630D03*
Y5323630D03*
X2703310Y4898630D03*
X2706350Y4748630D03*
Y5043630D03*
Y5183630D03*
Y5323630D03*
X2838310Y4748630D03*
Y4898630D03*
X2843310Y5043630D03*
X2973310Y4748630D03*
Y4898630D03*
Y5048630D03*
X3103310Y4748630D03*
Y4898630D03*
Y5048630D03*
X3223310Y4748630D03*
Y4898630D03*
Y5048630D03*
D02*
D108*
X638310Y1184630D03*
Y1692630D03*
Y2200630D03*
Y2708630D03*
D02*
D109*
X3615810Y8268630D03*
Y8522630D03*
X3869810Y8268630D03*
Y8522630D03*
X4123810Y8268630D03*
Y8522630D03*
X4377810Y8268630D03*
Y8522630D03*
X4631810Y8268630D03*
Y8522630D03*
X4885810Y8268630D03*
Y8522630D03*
X5139810Y8268630D03*
Y8522630D03*
X5393810Y8268630D03*
Y8522630D03*
D02*
D110*
X5986350Y881350D03*
Y1531350D03*
X6436350Y881350D03*
Y1531350D03*
D02*
D111*
X2031350Y6913850D03*
Y7167850D03*
Y7421850D03*
Y7675850D03*
X2285350Y6786850D03*
Y7040850D03*
Y7294850D03*
Y7548850D03*
D02*
D112*
X990350Y6567350D03*
Y6821350D03*
Y7641350D03*
Y7895350D03*
D02*
D113*
X1701350Y6446350D03*
Y8016350D03*
D02*
D114*
X318310Y318630D03*
Y8638630D03*
X1396350Y6659850D03*
Y7802850D03*
X6458310Y318630D03*
Y8638630D03*
D02*
D115*
X3215840Y4424390D03*
X4151640Y340310D03*
X4409810Y343630D03*
X4663810D03*
X4917810D03*
X5171810D03*
X5425810D03*
X5643310Y866130D03*
Y1120130D03*
D02*
D116*
X2316350Y336350D03*
Y590350D03*
X2916350Y336350D03*
Y590350D03*
X0Y0D02*
M02*
