G04 DesignSpark PCB Gerber Version 11.0 Build 5877*
G04 #@! TF.Part,Single*
G04 #@! TF.FileFunction,Soldermask,Top*
G04 #@! TF.FilePolarity,Negative*
%FSLAX35Y35*%
%MOMM*%
G04 #@! TA.AperFunction,SMDPad,CuDef*
%ADD76R,0.70240X2.00240*%
%ADD101R,1.15240X1.60240*%
%ADD103R,1.35240X1.67240*%
%ADD91R,1.35240X1.95240*%
%ADD23R,1.44780X1.67640*%
%ADD80R,1.45240X1.95240*%
%ADD29R,1.54940X1.67640*%
%ADD21R,1.67640X2.43240*%
%ADD77R,1.75240X3.30240*%
%ADD28R,1.90240X3.35240*%
%ADD87R,2.30240X2.35240*%
%ADD92R,2.30240X2.45240*%
%ADD70R,2.55240X3.25240*%
%ADD79R,3.50240X3.75240*%
G04 #@! TA.AperFunction,ComponentPad*
%ADD81R,1.55240X1.55240*%
G04 #@! TA.AperFunction,SMDPad,CuDef*
%ADD97R,1.65240X1.65240*%
G04 #@! TA.AperFunction,ComponentPad*
%ADD88R,1.67640X1.67640*%
%ADD25R,2.55240X2.55240*%
%ADD89C,1.36940*%
%ADD94C,1.46840*%
%ADD82C,1.55240*%
%ADD75C,1.65240*%
%ADD83C,1.68240*%
%ADD84C,1.77740*%
%ADD74C,1.95240*%
G04 #@! TA.AperFunction,SMDPad,CuDef*
%ADD95R,2.45240X0.35240*%
%ADD96R,1.95240X0.60240*%
%ADD19R,1.67740X0.80240*%
%ADD99R,1.55240X0.95240*%
%ADD102R,1.65240X0.95240*%
%ADD98R,1.65240X1.05240*%
%ADD27R,1.90240X1.10240*%
%ADD100R,1.70240X1.15240*%
%ADD85R,1.67240X1.35240*%
%ADD86R,1.95240X1.35240*%
%ADD72R,1.67640X1.44780*%
%ADD73R,1.95240X1.45240*%
%ADD20R,1.67640X1.54940*%
G04 #@! TA.AperFunction,ComponentPad*
%ADD90R,2.18440X1.67640*%
G04 #@! TA.AperFunction,SMDPad,CuDef*
%ADD78R,1.78240X1.68240*%
%ADD24R,2.40240X1.90240*%
%ADD71R,4.30240X2.30240*%
%ADD22R,6.89240X6.38240*%
G04 #@! TA.AperFunction,ComponentPad*
%ADD26C,2.55240*%
%AMT93*0 Rounded Rectangle Pad at angle 0*4,1,76,-1.53140,-2.57620,1.53140,-2.57620,1.62250,-2.57220,1.71290,-2.56030,1.80190,-2.54060,1.88880,-2.51320,1.97300,-2.47830,2.05380,-2.43620,2.13070,-2.38720,2.20300,-2.33170,2.27020,-2.27010,2.33180,-2.20290,2.38730,-2.13060,2.43630,-2.05370,2.47840,-1.97280,2.51330,-1.88860,2.54070,-1.80170,2.56040,-1.71270,2.57230,-1.62230,2.57620,-1.53140,2.57620,1.53140,2.57220,1.62250,2.56030,1.71290,2.54060,1.80190,2.51320,1.88880,2.47830,1.97300,2.43620,2.05380,2.38720,2.13070,2.33170,2.20300,2.27010,2.27020,2.20290,2.33180,2.13060,2.38730,2.05370,2.43630,1.97280,2.47840,1.88860,2.51330,1.80170,2.54070,1.71270,2.56040,1.62230,2.57230,1.53140,2.57620,-1.53140,2.57620,-1.62250,2.57220,-1.71290,2.56030,-1.80190,2.54060,-1.88880,2.51320,-1.97300,2.47830,-2.05380,2.43620,-2.13070,2.38720,-2.20300,2.33170,-2.27020,2.27010,-2.33180,2.20290,-2.38730,2.13060,-2.43630,2.05370,-2.47840,1.97280,-2.51330,1.88860,-2.54070,1.80170,-2.56040,1.71270,-2.57230,1.62230,-2.57620,1.53140,-2.57620,-1.53140,-2.57220,-1.62250,-2.56030,-1.71290,-2.54060,-1.80190,-2.51320,-1.88880,-2.47830,-1.97300,-2.43620,-2.05380,-2.38720,-2.13070,-2.33170,-2.20300,-2.27010,-2.27020,-2.20290,-2.33180,-2.13060,-2.38730,-2.05370,-2.43630,-1.97280,-2.47840,-1.88860,-2.51330,-1.80170,-2.54070,-1.71270,-2.56040,-1.62230,-2.57230,-1.53140,-2.57620,0*%
%ADD93T93*%
G04 #@! TD.AperFunction*
X0Y0D02*
D02*
D19*
X262110Y4055850D03*
Y4182850D03*
Y4309850D03*
Y4436850D03*
X804510Y4055850D03*
Y4182850D03*
Y4309850D03*
Y4436850D03*
D02*
D70*
X533310Y4246350D03*
D02*
D71*
X2305810Y2173630D03*
X2313310Y3341890D03*
X3155810Y2173630D03*
X3163310Y3341890D03*
D02*
D20*
X394010Y3776130D03*
X477050Y4661350D03*
X622610Y3776130D03*
X705650Y4661350D03*
X2864010Y6456630D03*
X2894010Y7734630D03*
X3092610Y6456630D03*
X3122610Y7734630D03*
X3735010Y3612630D03*
X3736010Y3827630D03*
X3963610Y3612630D03*
X3964010Y2256350D03*
X3964610Y3827630D03*
X4079010Y2946350D03*
X4192610Y2256350D03*
X4307610Y2946350D03*
X4774010Y1956130D03*
X4776510Y2163630D03*
X5002610Y1956130D03*
X5005110Y2163630D03*
X6081510Y5896130D03*
X6310110D03*
D02*
D21*
X1129310Y4716470D03*
X1587310D03*
D02*
D22*
X1358310Y5430970D03*
D02*
D23*
X418060Y3243630D03*
X420560Y3453630D03*
X608560Y3243630D03*
X611060Y3453630D03*
X1103060Y5941130D03*
X1293560D03*
X1588060Y6093630D03*
X1778560D03*
X2913060Y6783630D03*
Y7008630D03*
Y7234630D03*
Y7458630D03*
X3103560Y6783630D03*
Y7008630D03*
Y7234630D03*
Y7458630D03*
X3473060Y6306130D03*
X3480560Y6091130D03*
X3663560Y6306130D03*
X3671060Y6091130D03*
X4410560Y703630D03*
X4601060D03*
X5645560Y6158630D03*
X5836060D03*
X6090560Y3216130D03*
X6281060D03*
D02*
D24*
X2353340Y4144390D03*
Y4444390D03*
X2753340Y4144390D03*
Y4444390D03*
D02*
D25*
X638310Y2708630D03*
D02*
D26*
Y1184630D03*
Y1692630D03*
Y2200630D03*
X1701350Y6446350D03*
Y8016350D03*
D02*
D27*
X2381350Y946350D03*
Y1176350D03*
Y1406350D03*
D02*
D28*
X3011350Y1176350D03*
D02*
D29*
X1410810Y1181830D03*
Y1410430D03*
X1616350Y1184330D03*
Y1412930D03*
X1841350Y1222050D03*
Y1450650D03*
X1938310Y4016830D03*
Y4245430D03*
X2083310Y1219330D03*
Y1447930D03*
X5640810Y1389330D03*
Y1617930D03*
X5978310Y2663630D03*
Y2892230D03*
X6195810Y2664330D03*
Y2892930D03*
D02*
D72*
X1943310Y758380D03*
Y948880D03*
X3306350Y731100D03*
Y921600D03*
X4225810Y3580880D03*
Y3771380D03*
X4453310Y3580880D03*
Y3771380D03*
X4635810Y4058380D03*
Y4248880D03*
X4863310Y4050880D03*
Y4241380D03*
X5090810Y4048380D03*
Y4238880D03*
X5318310Y4045880D03*
Y4236380D03*
X5545810Y4043380D03*
Y4233880D03*
X6013310Y4473380D03*
Y4663880D03*
D02*
D73*
X4760810Y1728630D03*
X5020810D03*
X6070810Y6153630D03*
X6330810D03*
D02*
D74*
X3615810Y8268630D03*
Y8522630D03*
X3869810Y8268630D03*
Y8522630D03*
X4123810Y8268630D03*
Y8522630D03*
X4377810Y8268630D03*
Y8522630D03*
X4631810Y8268630D03*
Y8522630D03*
X4885810Y8268630D03*
Y8522630D03*
X5139810Y8268630D03*
Y8522630D03*
X5393810Y8268630D03*
Y8522630D03*
D02*
D75*
X5986350Y881350D03*
Y1531350D03*
X6436350Y881350D03*
Y1531350D03*
D02*
D76*
X4107840Y4651890D03*
Y5586890D03*
X4234840Y4651890D03*
Y5586890D03*
X4361840Y4651890D03*
Y5586890D03*
X4488840Y4651890D03*
Y5586890D03*
X4615840Y4651890D03*
Y5586890D03*
X4742840Y4651890D03*
Y5586890D03*
X4869840Y4651890D03*
Y5586890D03*
X4996840Y4651890D03*
Y5586890D03*
X5123840Y4651890D03*
Y5586890D03*
X5250840Y4651890D03*
Y5586890D03*
X5377840Y4651890D03*
Y5586890D03*
X5504840Y4651890D03*
Y5586890D03*
X5631840Y4651890D03*
Y5586890D03*
X5758840Y4651890D03*
Y5586890D03*
D02*
D77*
X4018310Y1223630D03*
Y1723630D03*
D02*
D78*
X3820810Y489390D03*
Y869390D03*
D02*
D79*
X2006350Y5296890D03*
X3036350D03*
D02*
D80*
X3843310Y4368630D03*
Y4628630D03*
D02*
D81*
X2031350Y7675850D03*
D02*
D82*
Y6913850D03*
Y7167850D03*
Y7421850D03*
X2285350Y6786850D03*
Y7040850D03*
Y7294850D03*
Y7548850D03*
D02*
D83*
X990350Y6567350D03*
Y6821350D03*
Y7641350D03*
Y7895350D03*
D02*
D84*
X1396350Y6659850D03*
Y7802850D03*
D02*
D85*
X3490810Y7548630D03*
Y7733630D03*
D02*
D86*
X3890810Y2501350D03*
Y2741350D03*
X4290810Y2501350D03*
Y2741350D03*
D02*
D87*
X1600310Y3076890D03*
Y3516890D03*
D02*
D88*
X3215840Y4424390D03*
X4151640Y340310D03*
X4409810Y343630D03*
X4663810D03*
X4917810D03*
X5171810D03*
X5425810D03*
X5643310Y866130D03*
Y1120130D03*
D02*
D89*
X1084310Y3244390D03*
Y3752390D03*
D02*
D90*
X2316350Y336350D03*
Y590350D03*
X2916350Y336350D03*
Y590350D03*
D02*
D91*
X3940810Y5918630D03*
Y6318630D03*
X4180810Y5918630D03*
Y6318630D03*
D02*
D92*
X1601310Y3811890D03*
Y4241890D03*
D02*
D93*
X318310Y318630D03*
Y8638630D03*
X6458310Y318630D03*
Y8638630D03*
D02*
D94*
X1088310Y351130D03*
X1593310D03*
D02*
D95*
X4853010Y2433130D03*
Y2498130D03*
Y2563130D03*
Y2628130D03*
Y2693130D03*
Y2758130D03*
Y2823130D03*
Y2888130D03*
Y2953130D03*
Y3018130D03*
Y3083130D03*
Y3148130D03*
Y3213130D03*
Y3278130D03*
X5528610Y2433130D03*
Y2498130D03*
Y2563130D03*
Y2628130D03*
Y2693130D03*
Y2758130D03*
Y2823130D03*
Y2888130D03*
Y2953130D03*
Y3018130D03*
Y3083130D03*
Y3148130D03*
Y3213130D03*
Y3278130D03*
D02*
D96*
X5550810Y6688630D03*
Y6798630D03*
Y6908630D03*
Y7018630D03*
Y7128630D03*
Y7238630D03*
Y7348630D03*
Y7458630D03*
D02*
D97*
X5563310Y6443630D03*
D02*
D98*
Y7578630D03*
D02*
D99*
X6388310Y6408630D03*
D02*
D100*
X6630810Y6453630D03*
D02*
D101*
X6473310Y7571130D03*
D02*
D102*
X6323310Y7603630D03*
D02*
D103*
X6073310Y5643630D03*
X6258310D03*
X0Y0D02*
M02*
