G04 DesignSpark PCB Gerber Version 11.0 Build 5877*
G04 #@! TF.Part,Single*
G04 #@! TF.FileFunction,Drillmap*
G04 #@! TF.FilePolarity,Positive*
%FSLAX35Y35*%
%MOMM*%
%ADD88C,0.12700*%
G04 #@! TA.AperFunction,ViaPad*
%ADD117C,2.54000*%
G04 #@! TD.AperFunction*
X0Y0D02*
D02*
D88*
X572310Y564690D02*
Y469440D01*
X651690D01*
X572310Y8884690D02*
Y8789440D01*
X651690D01*
X792870Y4292070D02*
X808750Y4284130D01*
X816690Y4268260D01*
X808750Y4252380D01*
X792870Y4244440D01*
X737310D01*
Y4339690D01*
X792870D01*
X808750Y4331760D01*
X816690Y4315880D01*
X808750Y4300010D01*
X792870Y4292070D01*
X737310D01*
X792870Y4372070D02*
X808750Y4364130D01*
X816690Y4348260D01*
X808750Y4332380D01*
X792870Y4324440D01*
X737310D01*
Y4419690D01*
X792870D01*
X808750Y4411760D01*
X816690Y4395880D01*
X808750Y4380010D01*
X792870Y4372070D01*
X737310D01*
X792870Y4452070D02*
X808750Y4444130D01*
X816690Y4428260D01*
X808750Y4412380D01*
X792870Y4404440D01*
X737310D01*
Y4499690D01*
X792870D01*
X808750Y4491760D01*
X816690Y4475880D01*
X808750Y4460010D01*
X792870Y4452070D01*
X737310D01*
X792870Y4532070D02*
X808750Y4524130D01*
X816690Y4508260D01*
X808750Y4492380D01*
X792870Y4484440D01*
X737310D01*
Y4579690D01*
X792870D01*
X808750Y4571760D01*
X816690Y4555880D01*
X808750Y4540010D01*
X792870Y4532070D01*
X737310D01*
X792870Y4612070D02*
X808750Y4604130D01*
X816690Y4588260D01*
X808750Y4572380D01*
X792870Y4564440D01*
X737310D01*
Y4659690D01*
X792870D01*
X808750Y4651760D01*
X816690Y4635880D01*
X808750Y4620010D01*
X792870Y4612070D01*
X737310D01*
X882870Y4292070D02*
X898750Y4284130D01*
X906690Y4268260D01*
X898750Y4252380D01*
X882870Y4244440D01*
X827310D01*
Y4339690D01*
X882870D01*
X898750Y4331760D01*
X906690Y4315880D01*
X898750Y4300010D01*
X882870Y4292070D01*
X827310D01*
X882870Y4372070D02*
X898750Y4364130D01*
X906690Y4348260D01*
X898750Y4332380D01*
X882870Y4324440D01*
X827310D01*
Y4419690D01*
X882870D01*
X898750Y4411760D01*
X906690Y4395880D01*
X898750Y4380010D01*
X882870Y4372070D01*
X827310D01*
X882870Y4452070D02*
X898750Y4444130D01*
X906690Y4428260D01*
X898750Y4412380D01*
X882870Y4404440D01*
X827310D01*
Y4499690D01*
X882870D01*
X898750Y4491760D01*
X906690Y4475880D01*
X898750Y4460010D01*
X882870Y4452070D01*
X827310D01*
X882870Y4532070D02*
X898750Y4524130D01*
X906690Y4508260D01*
X898750Y4492380D01*
X882870Y4484440D01*
X827310D01*
Y4579690D01*
X882870D01*
X898750Y4571760D01*
X906690Y4555880D01*
X898750Y4540010D01*
X882870Y4532070D01*
X827310D01*
X882870Y4612070D02*
X898750Y4604130D01*
X906690Y4588260D01*
X898750Y4572380D01*
X882870Y4564440D01*
X827310D01*
Y4659690D01*
X882870D01*
X898750Y4651760D01*
X906690Y4635880D01*
X898750Y4620010D01*
X882870Y4612070D01*
X827310D01*
X869810Y3769440D02*
X909500Y3864690D01*
X949190Y3769440D01*
X885690Y3809130D02*
X933310D01*
X892310Y1335440D02*
Y1430690D01*
X971690D01*
X955810Y1383070D02*
X892310D01*
Y1843440D02*
Y1938690D01*
X971690D01*
X955810Y1891070D02*
X892310D01*
Y2351440D02*
Y2446690D01*
X971690D01*
X955810Y2399070D02*
X892310D01*
Y2859440D02*
Y2954690D01*
X971690D01*
X955810Y2907070D02*
X892310D01*
X1244350Y6734040D02*
X1252290Y6726100D01*
X1268160Y6718160D01*
X1284040Y6726100D01*
X1291980Y6734040D01*
Y6813410D01*
X1307850D01*
X1291980D02*
X1260230D01*
X1244350Y6988040D02*
X1252290Y6980100D01*
X1268160Y6972160D01*
X1284040Y6980100D01*
X1291980Y6988040D01*
Y7067410D01*
X1307850D01*
X1291980D02*
X1260230D01*
X1244350Y7808040D02*
X1252290Y7800100D01*
X1268160Y7792160D01*
X1284040Y7800100D01*
X1291980Y7808040D01*
Y7887410D01*
X1307850D01*
X1291980D02*
X1260230D01*
X1244350Y8062040D02*
X1252290Y8054100D01*
X1268160Y8046160D01*
X1284040Y8054100D01*
X1291980Y8062040D01*
Y8141410D01*
X1307850D01*
X1291980D02*
X1260230D01*
X1338310Y3395200D02*
X1378000Y3490450D01*
X1417690Y3395200D01*
X1354190Y3434890D02*
X1401810D01*
X1338310Y3903200D02*
X1378000Y3998450D01*
X1417690Y3903200D01*
X1354190Y3942890D02*
X1401810D01*
X1342310Y501940D02*
Y597190D01*
X1389940D01*
X1405810Y589260D01*
X1413750Y581320D01*
X1421690Y565440D01*
Y533690D01*
X1413750Y517820D01*
X1405810Y509880D01*
X1389940Y501940D01*
X1342310D01*
X1437310Y5584440D02*
Y5679690D01*
X1484940D01*
X1500810Y5671760D01*
X1508750Y5663820D01*
X1516690Y5647940D01*
Y5616190D01*
X1508750Y5600320D01*
X1500810Y5592380D01*
X1484940Y5584440D01*
X1437310D01*
Y5759440D02*
Y5854690D01*
X1484940D01*
X1500810Y5846760D01*
X1508750Y5838820D01*
X1516690Y5822940D01*
Y5791190D01*
X1508750Y5775320D01*
X1500810Y5767380D01*
X1484940Y5759440D01*
X1437310D01*
X1609810Y4869440D02*
X1649500Y4964690D01*
X1689190Y4869440D01*
X1625690Y4909130D02*
X1673310D01*
X1612310Y5409440D02*
Y5504690D01*
X1659940D01*
X1675810Y5496760D01*
X1683750Y5488820D01*
X1691690Y5472940D01*
Y5441190D01*
X1683750Y5425320D01*
X1675810Y5417380D01*
X1659940Y5409440D01*
X1612310D01*
Y5584440D02*
Y5679690D01*
X1659940D01*
X1675810Y5671760D01*
X1683750Y5663820D01*
X1691690Y5647940D01*
Y5616190D01*
X1683750Y5600320D01*
X1675810Y5592380D01*
X1659940Y5584440D01*
X1612310D01*
Y5759440D02*
Y5854690D01*
X1659940D01*
X1675810Y5846760D01*
X1683750Y5838820D01*
X1691690Y5822940D01*
Y5791190D01*
X1683750Y5775320D01*
X1675810Y5767380D01*
X1659940Y5759440D01*
X1612310D01*
X1637310Y881940D02*
X1677000Y977190D01*
X1716690Y881940D01*
X1653190Y921630D02*
X1700810D01*
X1637310Y3229440D02*
X1677000Y3324690D01*
X1716690Y3229440D01*
X1653190Y3269130D02*
X1700810D01*
X1650350Y6905910D02*
Y6810660D01*
X1729730D01*
X1650350Y8048910D02*
Y7953660D01*
X1729730D01*
X1787310Y5584440D02*
Y5679690D01*
X1834940D01*
X1850810Y5671760D01*
X1858750Y5663820D01*
X1866690Y5647940D01*
Y5616190D01*
X1858750Y5600320D01*
X1850810Y5592380D01*
X1834940Y5584440D01*
X1787310D01*
Y5759440D02*
Y5854690D01*
X1834940D01*
X1850810Y5846760D01*
X1858750Y5838820D01*
X1866690Y5822940D01*
Y5791190D01*
X1858750Y5775320D01*
X1850810Y5767380D01*
X1834940Y5759440D01*
X1787310D01*
X1847310Y501940D02*
Y597190D01*
X1894940D01*
X1910810Y589260D01*
X1918750Y581320D01*
X1926690Y565440D01*
Y533690D01*
X1918750Y517820D01*
X1910810Y509880D01*
X1894940Y501940D01*
X1847310D01*
X1870350Y1774440D02*
X1910040Y1869690D01*
X1949730Y1774440D01*
X1886230Y1814130D02*
X1933850D01*
X1955350Y6597160D02*
Y6692410D01*
Y6644790D02*
X1979160D01*
X2034730Y6692410D01*
X1979160Y6644790D02*
X2034730Y6597160D01*
X1955350Y8167160D02*
Y8262410D01*
Y8214790D02*
X1979160D01*
X2034730Y8262410D01*
X1979160Y8214790D02*
X2034730Y8167160D01*
X2032310Y4391940D02*
X2072000Y4487190D01*
X2111690Y4391940D01*
X2048190Y4431630D02*
X2095810D01*
X2064810Y3821940D02*
X2104500Y3917190D01*
X2144190Y3821940D01*
X2080690Y3861630D02*
X2128310D01*
X2095350Y1779440D02*
X2135040Y1874690D01*
X2174730Y1779440D01*
X2111230Y1819130D02*
X2158850D01*
X2267310Y3501940D02*
X2307000Y3597190D01*
X2346690Y3501940D01*
X2283190Y3541630D02*
X2330810D01*
X2309160Y7064660D02*
X2340910D01*
X2325040D02*
Y7159910D01*
X2309160D02*
X2340910D01*
X2309160Y7318660D02*
X2340910D01*
X2325040D02*
Y7413910D01*
X2309160D02*
X2340910D01*
X2309160Y7572660D02*
X2340910D01*
X2325040D02*
Y7667910D01*
X2309160D02*
X2340910D01*
X2309160Y7826660D02*
X2340910D01*
X2325040D02*
Y7921910D01*
X2309160D02*
X2340910D01*
X2563160Y6937660D02*
X2594910D01*
X2579040D02*
Y7032910D01*
X2563160D02*
X2594910D01*
X2563160Y7191660D02*
X2594910D01*
X2579040D02*
Y7286910D01*
X2563160D02*
X2594910D01*
X2563160Y7445660D02*
X2594910D01*
X2579040D02*
Y7540910D01*
X2563160D02*
X2594910D01*
X2563160Y7699660D02*
X2594910D01*
X2579040D02*
Y7794910D01*
X2563160D02*
X2594910D01*
X2570350Y487160D02*
Y582410D01*
X2649730Y487160D01*
Y582410D01*
X2570350Y741160D02*
Y836410D01*
X2649730Y741160D01*
Y836410D01*
X2807310Y4294440D02*
X2847000Y4389690D01*
X2886690Y4294440D01*
X2823190Y4334130D02*
X2870810D01*
X2827310Y4899440D02*
Y4994690D01*
X2906690D01*
X2890810Y4947070D02*
X2827310D01*
Y4899440D02*
X2906690D01*
X2827310Y5054440D02*
Y5149690D01*
X2906690D01*
X2890810Y5102070D02*
X2827310D01*
Y5054440D02*
X2906690D01*
X2827310Y5194440D02*
Y5289690D01*
X2906690D01*
X2890810Y5242070D02*
X2827310D01*
Y5194440D02*
X2906690D01*
X2827310Y5334440D02*
Y5429690D01*
X2906690D01*
X2890810Y5382070D02*
X2827310D01*
Y5334440D02*
X2906690D01*
X2827310Y5474440D02*
Y5569690D01*
X2906690D01*
X2890810Y5522070D02*
X2827310D01*
Y5474440D02*
X2906690D01*
X3016690Y7520320D02*
X3008750Y7512380D01*
X2992870Y7504440D01*
X2969060D01*
X2953190Y7512380D01*
X2945250Y7520320D01*
X2937310Y7536190D01*
Y7567940D01*
X2945250Y7583820D01*
X2953190Y7591760D01*
X2969060Y7599690D01*
X2992870D01*
X3008750Y7591760D01*
X3016690Y7583820D01*
X2949810Y6599440D02*
X2989500Y6694690D01*
X3029190Y6599440D01*
X2965690Y6639130D02*
X3013310D01*
X2952310Y1096440D02*
X2992000Y1191690D01*
X3031690Y1096440D01*
X2968190Y1136130D02*
X3015810D01*
X2957310Y5049440D02*
Y5144690D01*
X3036690D01*
X3020810Y5097070D02*
X2957310D01*
Y5049440D02*
X3036690D01*
X3037800Y7696430D02*
X3029860Y7688490D01*
X3013980Y7680550D01*
X2990170D01*
X2974300Y7688490D01*
X2966360Y7696430D01*
X2958420Y7712300D01*
Y7744050D01*
X2966360Y7759930D01*
X2974300Y7767870D01*
X2990170Y7775800D01*
X3013980D01*
X3029860Y7767870D01*
X3037800Y7759930D01*
X2960350Y4899440D02*
Y4994690D01*
X3039730D01*
X3023850Y4947070D02*
X2960350D01*
Y4899440D02*
X3039730D01*
X2960350Y5194440D02*
Y5289690D01*
X3039730D01*
X3023850Y5242070D02*
X2960350D01*
Y5194440D02*
X3039730D01*
X2960350Y5334440D02*
Y5429690D01*
X3039730D01*
X3023850Y5382070D02*
X2960350D01*
Y5334440D02*
X3039730D01*
X2960350Y5474440D02*
Y5569690D01*
X3039730D01*
X3023850Y5522070D02*
X2960350D01*
Y5474440D02*
X3039730D01*
X2967310Y1327160D02*
X3007000Y1422410D01*
X3046690Y1327160D01*
X2983190Y1366850D02*
X3030810D01*
X3091690Y7177820D02*
X3083750Y7169880D01*
X3067870Y7161940D01*
X3044060D01*
X3028190Y7169880D01*
X3020250Y7177820D01*
X3012310Y7193690D01*
Y7225440D01*
X3020250Y7241320D01*
X3028190Y7249260D01*
X3044060Y7257190D01*
X3067870D01*
X3083750Y7249260D01*
X3091690Y7241320D01*
X3096690Y6951320D02*
X3088750Y6943380D01*
X3072870Y6935440D01*
X3049060D01*
X3033190Y6943380D01*
X3025250Y6951320D01*
X3017310Y6967190D01*
Y6998940D01*
X3025250Y7014820D01*
X3033190Y7022760D01*
X3049060Y7030690D01*
X3072870D01*
X3088750Y7022760D01*
X3096690Y7014820D01*
X3092310Y4899440D02*
Y4994690D01*
X3171690D01*
X3155810Y4947070D02*
X3092310D01*
Y4899440D02*
X3171690D01*
X3092310Y5049440D02*
Y5144690D01*
X3171690D01*
X3155810Y5097070D02*
X3092310D01*
Y5049440D02*
X3171690D01*
X3097310Y5194440D02*
Y5289690D01*
X3176690D01*
X3160810Y5242070D02*
X3097310D01*
Y5194440D02*
X3176690D01*
X3148010Y8059440D02*
X3187700Y8154690D01*
X3227390Y8059440D01*
X3163890Y8099130D02*
X3211510D01*
X3170350Y487160D02*
Y582410D01*
X3249730Y487160D01*
Y582410D01*
X3170350Y741160D02*
Y836410D01*
X3249730Y741160D01*
Y836410D01*
X3227310Y4899440D02*
Y4994690D01*
X3306690D01*
X3290810Y4947070D02*
X3227310D01*
Y4899440D02*
X3306690D01*
X3227310Y5049440D02*
Y5144690D01*
X3306690D01*
X3290810Y5097070D02*
X3227310D01*
Y5049440D02*
X3306690D01*
X3227310Y5199440D02*
Y5294690D01*
X3306690D01*
X3290810Y5247070D02*
X3227310D01*
Y5199440D02*
X3306690D01*
X3426690Y6780320D02*
X3418750Y6772380D01*
X3402870Y6764440D01*
X3379060D01*
X3363190Y6772380D01*
X3355250Y6780320D01*
X3347310Y6796190D01*
Y6827940D01*
X3355250Y6843820D01*
X3363190Y6851760D01*
X3379060Y6859690D01*
X3402870D01*
X3418750Y6851760D01*
X3426690Y6843820D01*
X3357310Y4899440D02*
Y4994690D01*
X3436690D01*
X3420810Y4947070D02*
X3357310D01*
Y4899440D02*
X3436690D01*
X3357310Y5049440D02*
Y5144690D01*
X3436690D01*
X3420810Y5097070D02*
X3357310D01*
Y5049440D02*
X3436690D01*
X3357310Y5199440D02*
Y5294690D01*
X3436690D01*
X3420810Y5247070D02*
X3357310D01*
Y5199440D02*
X3436690D01*
X3409810Y2131940D02*
X3449500Y2227190D01*
X3489190Y2131940D01*
X3425690Y2171630D02*
X3473310D01*
X3409810Y2526940D02*
X3449500Y2622190D01*
X3489190Y2526940D01*
X3425690Y2566630D02*
X3473310D01*
X3414810Y3304440D02*
X3454500Y3399690D01*
X3494190Y3304440D01*
X3430690Y3344130D02*
X3478310D01*
X3417310Y3684440D02*
X3457000Y3779690D01*
X3496690Y3684440D01*
X3433190Y3724130D02*
X3480810D01*
X3457310Y1327160D02*
X3497000Y1422410D01*
X3536690Y1327160D01*
X3473190Y1366850D02*
X3520810D01*
X3469840Y4575200D02*
Y4670450D01*
X3509530Y4622830D01*
X3549220Y4670450D01*
Y4575200D01*
X3477310Y4899440D02*
Y4994690D01*
X3556690D01*
X3540810Y4947070D02*
X3477310D01*
Y4899440D02*
X3556690D01*
X3477310Y5049440D02*
Y5144690D01*
X3556690D01*
X3540810Y5097070D02*
X3477310D01*
Y5049440D02*
X3556690D01*
X3477310Y5199440D02*
Y5294690D01*
X3556690D01*
X3540810Y5247070D02*
X3477310D01*
Y5199440D02*
X3556690D01*
X3591690Y7500320D02*
X3583750Y7492380D01*
X3567870Y7484440D01*
X3544060D01*
X3528190Y7492380D01*
X3520250Y7500320D01*
X3512310Y7516190D01*
Y7547940D01*
X3520250Y7563820D01*
X3528190Y7571760D01*
X3544060Y7579690D01*
X3567870D01*
X3583750Y7571760D01*
X3591690Y7563820D01*
X3552310Y7884440D02*
X3592000Y7979690D01*
X3631690Y7884440D01*
X3568190Y7924130D02*
X3615810D01*
X3656690Y7237820D02*
X3648750Y7229880D01*
X3632870Y7221940D01*
X3609060D01*
X3593190Y7229880D01*
X3585250Y7237820D01*
X3577310Y7253690D01*
Y7285440D01*
X3585250Y7301320D01*
X3593190Y7309260D01*
X3609060Y7317190D01*
X3632870D01*
X3648750Y7309260D01*
X3656690Y7301320D01*
X3776690Y5757820D02*
X3768750Y5749880D01*
X3752870Y5741940D01*
X3729060D01*
X3713190Y5749880D01*
X3705250Y5757820D01*
X3697310Y5773690D01*
Y5805440D01*
X3705250Y5821320D01*
X3713190Y5829260D01*
X3729060Y5837190D01*
X3752870D01*
X3768750Y5829260D01*
X3776690Y5821320D01*
X3742310Y7519440D02*
X3782000Y7614690D01*
X3821690Y7519440D01*
X3758190Y7559130D02*
X3805810D01*
X3881690Y5782820D02*
X3873750Y5774880D01*
X3857870Y5766940D01*
X3834060D01*
X3818190Y5774880D01*
X3810250Y5782820D01*
X3802310Y5798690D01*
Y5830440D01*
X3810250Y5846320D01*
X3818190Y5854260D01*
X3834060Y5862190D01*
X3857870D01*
X3873750Y5854260D01*
X3881690Y5846320D01*
X3809810Y839440D02*
X3849500Y934690D01*
X3889190Y839440D01*
X3825690Y879130D02*
X3873310D01*
X3925370Y8459130D02*
X3949190D01*
Y8451190D01*
X3941250Y8435320D01*
X3933310Y8427380D01*
X3917440Y8419440D01*
X3901560D01*
X3885690Y8427380D01*
X3877750Y8435320D01*
X3869810Y8451190D01*
Y8482940D01*
X3877750Y8498820D01*
X3885690Y8506760D01*
X3901560Y8514690D01*
X3917440D01*
X3933310Y8506760D01*
X3941250Y8498820D01*
X3949190Y8482940D01*
X3925370Y8713130D02*
X3949190D01*
Y8705190D01*
X3941250Y8689320D01*
X3933310Y8681380D01*
X3917440Y8673440D01*
X3901560D01*
X3885690Y8681380D01*
X3877750Y8689320D01*
X3869810Y8705190D01*
Y8736940D01*
X3877750Y8752820D01*
X3885690Y8760760D01*
X3901560Y8768690D01*
X3917440D01*
X3933310Y8760760D01*
X3941250Y8752820D01*
X3949190Y8736940D01*
X3989010Y3591940D02*
X4028700Y3687190D01*
X4068390Y3591940D01*
X4004890Y3631630D02*
X4052510D01*
X3990010Y4281940D02*
X4029700Y4377190D01*
X4069390Y4281940D01*
X4005890Y4321630D02*
X4053510D01*
X3992310Y6069440D02*
X4032000Y6164690D01*
X4071690Y6069440D01*
X4008190Y6109130D02*
X4055810D01*
X4136690Y6467820D02*
X4128750Y6459880D01*
X4112870Y6451940D01*
X4089060D01*
X4073190Y6459880D01*
X4065250Y6467820D01*
X4057310Y6483690D01*
Y6515440D01*
X4065250Y6531320D01*
X4073190Y6539260D01*
X4089060Y6547190D01*
X4112870D01*
X4128750Y6539260D01*
X4136690Y6531320D01*
X4179370Y8459130D02*
X4203190D01*
Y8451190D01*
X4195250Y8435320D01*
X4187310Y8427380D01*
X4171440Y8419440D01*
X4155560D01*
X4139690Y8427380D01*
X4131750Y8435320D01*
X4123810Y8451190D01*
Y8482940D01*
X4131750Y8498820D01*
X4139690Y8506760D01*
X4155560Y8514690D01*
X4171440D01*
X4187310Y8506760D01*
X4195250Y8498820D01*
X4203190Y8482940D01*
X4179370Y8713130D02*
X4203190D01*
Y8705190D01*
X4195250Y8689320D01*
X4187310Y8681380D01*
X4171440Y8673440D01*
X4155560D01*
X4139690Y8681380D01*
X4131750Y8689320D01*
X4123810Y8705190D01*
Y8736940D01*
X4131750Y8752820D01*
X4139690Y8760760D01*
X4155560Y8768690D01*
X4171440D01*
X4187310Y8760760D01*
X4195250Y8752820D01*
X4203190Y8736940D01*
X4139810Y3094440D02*
X4179500Y3189690D01*
X4219190Y3094440D01*
X4155690Y3134130D02*
X4203310D01*
X4217310Y3591940D02*
X4257000Y3687190D01*
X4296690Y3591940D01*
X4233190Y3631630D02*
X4280810D01*
X4219810Y4149440D02*
X4259500Y4244690D01*
X4299190Y4149440D01*
X4235690Y4189130D02*
X4283310D01*
X4272310Y1134440D02*
X4312000Y1229690D01*
X4351690Y1134440D01*
X4288190Y1174130D02*
X4335810D01*
X4272310Y2106940D02*
X4312000Y2202190D01*
X4351690Y2106940D01*
X4288190Y2146630D02*
X4335810D01*
X4433370Y8459130D02*
X4457190D01*
Y8451190D01*
X4449250Y8435320D01*
X4441310Y8427380D01*
X4425440Y8419440D01*
X4409560D01*
X4393690Y8427380D01*
X4385750Y8435320D01*
X4377810Y8451190D01*
Y8482940D01*
X4385750Y8498820D01*
X4393690Y8506760D01*
X4409560Y8514690D01*
X4425440D01*
X4441310Y8506760D01*
X4449250Y8498820D01*
X4457190Y8482940D01*
X4433370Y8713130D02*
X4457190D01*
Y8705190D01*
X4449250Y8689320D01*
X4441310Y8681380D01*
X4425440Y8673440D01*
X4409560D01*
X4393690Y8681380D01*
X4385750Y8689320D01*
X4377810Y8705190D01*
Y8736940D01*
X4385750Y8752820D01*
X4393690Y8760760D01*
X4409560Y8768690D01*
X4425440D01*
X4441310Y8760760D01*
X4449250Y8752820D01*
X4457190Y8736940D01*
X4405640Y491120D02*
Y586370D01*
X4445330Y538750D01*
X4485020Y586370D01*
Y491120D01*
X4584190Y7995320D02*
X4576250Y7987380D01*
X4560370Y7979440D01*
X4536560D01*
X4520690Y7987380D01*
X4512750Y7995320D01*
X4504810Y8011190D01*
Y8042940D01*
X4512750Y8058820D01*
X4520690Y8066760D01*
X4536560Y8074690D01*
X4560370D01*
X4576250Y8066760D01*
X4584190Y8058820D01*
X4549810Y5506940D02*
X4589500Y5602190D01*
X4629190Y5506940D01*
X4565690Y5546630D02*
X4613310D01*
X4549810Y6469440D02*
X4589500Y6564690D01*
X4629190Y6469440D01*
X4565690Y6509130D02*
X4613310D01*
X4602310Y2416940D02*
X4642000Y2512190D01*
X4681690Y2416940D01*
X4618190Y2456630D02*
X4665810D01*
X4687370Y8459130D02*
X4711190D01*
Y8451190D01*
X4703250Y8435320D01*
X4695310Y8427380D01*
X4679440Y8419440D01*
X4663560D01*
X4647690Y8427380D01*
X4639750Y8435320D01*
X4631810Y8451190D01*
Y8482940D01*
X4639750Y8498820D01*
X4647690Y8506760D01*
X4663560Y8514690D01*
X4679440D01*
X4695310Y8506760D01*
X4703250Y8498820D01*
X4711190Y8482940D01*
X4687370Y8713130D02*
X4711190D01*
Y8705190D01*
X4703250Y8689320D01*
X4695310Y8681380D01*
X4679440Y8673440D01*
X4663560D01*
X4647690Y8681380D01*
X4639750Y8689320D01*
X4631810Y8705190D01*
Y8736940D01*
X4639750Y8752820D01*
X4647690Y8760760D01*
X4663560Y8768690D01*
X4679440D01*
X4695310Y8760760D01*
X4703250Y8752820D01*
X4711190Y8736940D01*
X4663810Y494440D02*
Y589690D01*
X4703500Y542070D01*
X4743190Y589690D01*
Y494440D01*
X4779190Y5957820D02*
X4771250Y5949880D01*
X4755370Y5941940D01*
X4731560D01*
X4715690Y5949880D01*
X4707750Y5957820D01*
X4699810Y5973690D01*
Y6005440D01*
X4707750Y6021320D01*
X4715690Y6029260D01*
X4731560Y6037190D01*
X4755370D01*
X4771250Y6029260D01*
X4779190Y6021320D01*
X4786690Y2835320D02*
X4778750Y2827380D01*
X4762870Y2819440D01*
X4739060D01*
X4723190Y2827380D01*
X4715250Y2835320D01*
X4707310Y2851190D01*
Y2882940D01*
X4715250Y2898820D01*
X4723190Y2906760D01*
X4739060Y2914690D01*
X4762870D01*
X4778750Y2906760D01*
X4786690Y2898820D01*
Y3355320D02*
X4778750Y3347380D01*
X4762870Y3339440D01*
X4739060D01*
X4723190Y3347380D01*
X4715250Y3355320D01*
X4707310Y3371190D01*
Y3402940D01*
X4715250Y3418820D01*
X4723190Y3426760D01*
X4739060Y3434690D01*
X4762870D01*
X4778750Y3426760D01*
X4786690Y3418820D01*
X4854190Y2717820D02*
X4846250Y2709880D01*
X4830370Y2701940D01*
X4806560D01*
X4790690Y2709880D01*
X4782750Y2717820D01*
X4774810Y2733690D01*
Y2765440D01*
X4782750Y2781320D01*
X4790690Y2789260D01*
X4806560Y2797190D01*
X4830370D01*
X4846250Y2789260D01*
X4854190Y2781320D01*
Y6550320D02*
X4846250Y6542380D01*
X4830370Y6534440D01*
X4806560D01*
X4790690Y6542380D01*
X4782750Y6550320D01*
X4774810Y6566190D01*
Y6597940D01*
X4782750Y6613820D01*
X4790690Y6621760D01*
X4806560Y6629690D01*
X4830370D01*
X4846250Y6621760D01*
X4854190Y6613820D01*
X4924190Y2630320D02*
X4916250Y2622380D01*
X4900370Y2614440D01*
X4876560D01*
X4860690Y2622380D01*
X4852750Y2630320D01*
X4844810Y2646190D01*
Y2677940D01*
X4852750Y2693820D01*
X4860690Y2701760D01*
X4876560Y2709690D01*
X4900370D01*
X4916250Y2701760D01*
X4924190Y2693820D01*
X4929190Y6375320D02*
X4921250Y6367380D01*
X4905370Y6359440D01*
X4881560D01*
X4865690Y6367380D01*
X4857750Y6375320D01*
X4849810Y6391190D01*
Y6422940D01*
X4857750Y6438820D01*
X4865690Y6446760D01*
X4881560Y6454690D01*
X4905370D01*
X4921250Y6446760D01*
X4929190Y6438820D01*
X4879810Y2216940D02*
X4919500Y2312190D01*
X4959190Y2216940D01*
X4895690Y2256630D02*
X4943310D01*
X4941370Y8459130D02*
X4965190D01*
Y8451190D01*
X4957250Y8435320D01*
X4949310Y8427380D01*
X4933440Y8419440D01*
X4917560D01*
X4901690Y8427380D01*
X4893750Y8435320D01*
X4885810Y8451190D01*
Y8482940D01*
X4893750Y8498820D01*
X4901690Y8506760D01*
X4917560Y8514690D01*
X4933440D01*
X4949310Y8506760D01*
X4957250Y8498820D01*
X4965190Y8482940D01*
X4941370Y8713130D02*
X4965190D01*
Y8705190D01*
X4957250Y8689320D01*
X4949310Y8681380D01*
X4933440Y8673440D01*
X4917560D01*
X4901690Y8681380D01*
X4893750Y8689320D01*
X4885810Y8705190D01*
Y8736940D01*
X4893750Y8752820D01*
X4901690Y8760760D01*
X4917560Y8768690D01*
X4933440D01*
X4949310Y8760760D01*
X4957250Y8752820D01*
X4965190Y8736940D01*
X4994190Y2545320D02*
X4986250Y2537380D01*
X4970370Y2529440D01*
X4946560D01*
X4930690Y2537380D01*
X4922750Y2545320D01*
X4914810Y2561190D01*
Y2592940D01*
X4922750Y2608820D01*
X4930690Y2616760D01*
X4946560Y2624690D01*
X4970370D01*
X4986250Y2616760D01*
X4994190Y2608820D01*
Y6462820D02*
X4986250Y6454880D01*
X4970370Y6446940D01*
X4946560D01*
X4930690Y6454880D01*
X4922750Y6462820D01*
X4914810Y6478690D01*
Y6510440D01*
X4922750Y6526320D01*
X4930690Y6534260D01*
X4946560Y6542190D01*
X4970370D01*
X4986250Y6534260D01*
X4994190Y6526320D01*
X4917810Y494440D02*
Y589690D01*
X4957500Y542070D01*
X4997190Y589690D01*
Y494440D01*
X5094190Y7510320D02*
X5086250Y7502380D01*
X5070370Y7494440D01*
X5046560D01*
X5030690Y7502380D01*
X5022750Y7510320D01*
X5014810Y7526190D01*
Y7557940D01*
X5022750Y7573820D01*
X5030690Y7581760D01*
X5046560Y7589690D01*
X5070370D01*
X5086250Y7581760D01*
X5094190Y7573820D01*
Y7895320D02*
X5086250Y7887380D01*
X5070370Y7879440D01*
X5046560D01*
X5030690Y7887380D01*
X5022750Y7895320D01*
X5014810Y7911190D01*
Y7942940D01*
X5022750Y7958820D01*
X5030690Y7966760D01*
X5046560Y7974690D01*
X5070370D01*
X5086250Y7966760D01*
X5094190Y7958820D01*
X5186390Y2505320D02*
X5178450Y2497380D01*
X5162570Y2489440D01*
X5138760D01*
X5122890Y2497380D01*
X5114950Y2505320D01*
X5107010Y2521190D01*
Y2552940D01*
X5114950Y2568820D01*
X5122890Y2576760D01*
X5138760Y2584690D01*
X5162570D01*
X5178450Y2576760D01*
X5186390Y2568820D01*
X5209190Y7235320D02*
X5201250Y7227380D01*
X5185370Y7219440D01*
X5161560D01*
X5145690Y7227380D01*
X5137750Y7235320D01*
X5129810Y7251190D01*
Y7282940D01*
X5137750Y7298820D01*
X5145690Y7306760D01*
X5161560Y7314690D01*
X5185370D01*
X5201250Y7306760D01*
X5209190Y7298820D01*
X5195370Y8459130D02*
X5219190D01*
Y8451190D01*
X5211250Y8435320D01*
X5203310Y8427380D01*
X5187440Y8419440D01*
X5171560D01*
X5155690Y8427380D01*
X5147750Y8435320D01*
X5139810Y8451190D01*
Y8482940D01*
X5147750Y8498820D01*
X5155690Y8506760D01*
X5171560Y8514690D01*
X5187440D01*
X5203310Y8506760D01*
X5211250Y8498820D01*
X5219190Y8482940D01*
X5195370Y8713130D02*
X5219190D01*
Y8705190D01*
X5211250Y8689320D01*
X5203310Y8681380D01*
X5187440Y8673440D01*
X5171560D01*
X5155690Y8681380D01*
X5147750Y8689320D01*
X5139810Y8705190D01*
Y8736940D01*
X5147750Y8752820D01*
X5155690Y8760760D01*
X5171560Y8768690D01*
X5187440D01*
X5203310Y8760760D01*
X5211250Y8752820D01*
X5219190Y8736940D01*
X5246690Y6705320D02*
X5238750Y6697380D01*
X5222870Y6689440D01*
X5199060D01*
X5183190Y6697380D01*
X5175250Y6705320D01*
X5167310Y6721190D01*
Y6752940D01*
X5175250Y6768820D01*
X5183190Y6776760D01*
X5199060Y6784690D01*
X5222870D01*
X5238750Y6776760D01*
X5246690Y6768820D01*
X5171810Y494440D02*
Y589690D01*
X5211500Y542070D01*
X5251190Y589690D01*
Y494440D01*
X5259190Y7742820D02*
X5251250Y7734880D01*
X5235370Y7726940D01*
X5211560D01*
X5195690Y7734880D01*
X5187750Y7742820D01*
X5179810Y7758690D01*
Y7790440D01*
X5187750Y7806320D01*
X5195690Y7814260D01*
X5211560Y7822190D01*
X5235370D01*
X5251250Y7814260D01*
X5259190Y7806320D01*
X5276690Y7037820D02*
X5268750Y7029880D01*
X5252870Y7021940D01*
X5229060D01*
X5213190Y7029880D01*
X5205250Y7037820D01*
X5197310Y7053690D01*
Y7085440D01*
X5205250Y7101320D01*
X5213190Y7109260D01*
X5229060Y7117190D01*
X5252870D01*
X5268750Y7109260D01*
X5276690Y7101320D01*
X5314190Y3557820D02*
X5306250Y3549880D01*
X5290370Y3541940D01*
X5266560D01*
X5250690Y3549880D01*
X5242750Y3557820D01*
X5234810Y3573690D01*
Y3605440D01*
X5242750Y3621320D01*
X5250690Y3629260D01*
X5266560Y3637190D01*
X5290370D01*
X5306250Y3629260D01*
X5314190Y3621320D01*
X5376690Y3312820D02*
X5368750Y3304880D01*
X5352870Y3296940D01*
X5329060D01*
X5313190Y3304880D01*
X5305250Y3312820D01*
X5297310Y3328690D01*
Y3360440D01*
X5305250Y3376320D01*
X5313190Y3384260D01*
X5329060Y3392190D01*
X5352870D01*
X5368750Y3384260D01*
X5376690Y3376320D01*
Y3385320D02*
X5368750Y3377380D01*
X5352870Y3369440D01*
X5329060D01*
X5313190Y3377380D01*
X5305250Y3385320D01*
X5297310Y3401190D01*
Y3432940D01*
X5305250Y3448820D01*
X5313190Y3456760D01*
X5329060Y3464690D01*
X5352870D01*
X5368750Y3456760D01*
X5376690Y3448820D01*
X5381690Y6640320D02*
X5373750Y6632380D01*
X5357870Y6624440D01*
X5334060D01*
X5318190Y6632380D01*
X5310250Y6640320D01*
X5302310Y6656190D01*
Y6687940D01*
X5310250Y6703820D01*
X5318190Y6711760D01*
X5334060Y6719690D01*
X5357870D01*
X5373750Y6711760D01*
X5381690Y6703820D01*
X5416690Y2950320D02*
X5408750Y2942380D01*
X5392870Y2934440D01*
X5369060D01*
X5353190Y2942380D01*
X5345250Y2950320D01*
X5337310Y2966190D01*
Y2997940D01*
X5345250Y3013820D01*
X5353190Y3021760D01*
X5369060Y3029690D01*
X5392870D01*
X5408750Y3021760D01*
X5416690Y3013820D01*
X5419190Y2662820D02*
X5411250Y2654880D01*
X5395370Y2646940D01*
X5371560D01*
X5355690Y2654880D01*
X5347750Y2662820D01*
X5339810Y2678690D01*
Y2710440D01*
X5347750Y2726320D01*
X5355690Y2734260D01*
X5371560Y2742190D01*
X5395370D01*
X5411250Y2734260D01*
X5419190Y2726320D01*
Y2865320D02*
X5411250Y2857380D01*
X5395370Y2849440D01*
X5371560D01*
X5355690Y2857380D01*
X5347750Y2865320D01*
X5339810Y2881190D01*
Y2912940D01*
X5347750Y2928820D01*
X5355690Y2936760D01*
X5371560Y2944690D01*
X5395370D01*
X5411250Y2936760D01*
X5419190Y2928820D01*
Y3025320D02*
X5411250Y3017380D01*
X5395370Y3009440D01*
X5371560D01*
X5355690Y3017380D01*
X5347750Y3025320D01*
X5339810Y3041190D01*
Y3072940D01*
X5347750Y3088820D01*
X5355690Y3096760D01*
X5371560Y3104690D01*
X5395370D01*
X5411250Y3096760D01*
X5419190Y3088820D01*
X5424190Y3185320D02*
X5416250Y3177380D01*
X5400370Y3169440D01*
X5376560D01*
X5360690Y3177380D01*
X5352750Y3185320D01*
X5344810Y3201190D01*
Y3232940D01*
X5352750Y3248820D01*
X5360690Y3256760D01*
X5376560Y3264690D01*
X5400370D01*
X5416250Y3256760D01*
X5424190Y3248820D01*
X5426690Y3105320D02*
X5418750Y3097380D01*
X5402870Y3089440D01*
X5379060D01*
X5363190Y3097380D01*
X5355250Y3105320D01*
X5347310Y3121190D01*
Y3152940D01*
X5355250Y3168820D01*
X5363190Y3176760D01*
X5379060Y3184690D01*
X5402870D01*
X5418750Y3176760D01*
X5426690Y3168820D01*
X5449370Y8459130D02*
X5473190D01*
Y8451190D01*
X5465250Y8435320D01*
X5457310Y8427380D01*
X5441440Y8419440D01*
X5425560D01*
X5409690Y8427380D01*
X5401750Y8435320D01*
X5393810Y8451190D01*
Y8482940D01*
X5401750Y8498820D01*
X5409690Y8506760D01*
X5425560Y8514690D01*
X5441440D01*
X5457310Y8506760D01*
X5465250Y8498820D01*
X5473190Y8482940D01*
X5449370Y8713130D02*
X5473190D01*
Y8705190D01*
X5465250Y8689320D01*
X5457310Y8681380D01*
X5441440Y8673440D01*
X5425560D01*
X5409690Y8681380D01*
X5401750Y8689320D01*
X5393810Y8705190D01*
Y8736940D01*
X5401750Y8752820D01*
X5409690Y8760760D01*
X5425560Y8768690D01*
X5441440D01*
X5457310Y8760760D01*
X5465250Y8752820D01*
X5473190Y8736940D01*
X5409810Y2211940D02*
X5449500Y2307190D01*
X5489190Y2211940D01*
X5425690Y2251630D02*
X5473310D01*
X5425810Y494440D02*
Y589690D01*
X5465500Y542070D01*
X5505190Y589690D01*
Y494440D01*
X5511690Y2989820D02*
X5503750Y2981880D01*
X5487870Y2973940D01*
X5464060D01*
X5448190Y2981880D01*
X5440250Y2989820D01*
X5432310Y3005690D01*
Y3037440D01*
X5440250Y3053320D01*
X5448190Y3061260D01*
X5464060Y3069190D01*
X5487870D01*
X5503750Y3061260D01*
X5511690Y3053320D01*
X5571690Y2732820D02*
X5563750Y2724880D01*
X5547870Y2716940D01*
X5524060D01*
X5508190Y2724880D01*
X5500250Y2732820D01*
X5492310Y2748690D01*
Y2780440D01*
X5500250Y2796320D01*
X5508190Y2804260D01*
X5524060Y2812190D01*
X5547870D01*
X5563750Y2804260D01*
X5571690Y2796320D01*
X5576690Y3152820D02*
X5568750Y3144880D01*
X5552870Y3136940D01*
X5529060D01*
X5513190Y3144880D01*
X5505250Y3152820D01*
X5497310Y3168690D01*
Y3200440D01*
X5505250Y3216320D01*
X5513190Y3224260D01*
X5529060Y3232190D01*
X5552870D01*
X5568750Y3224260D01*
X5576690Y3216320D01*
X5639190Y3612820D02*
X5631250Y3604880D01*
X5615370Y3596940D01*
X5591560D01*
X5575690Y3604880D01*
X5567750Y3612820D01*
X5559810Y3628690D01*
Y3660440D01*
X5567750Y3676320D01*
X5575690Y3684260D01*
X5591560Y3692190D01*
X5615370D01*
X5631250Y3684260D01*
X5639190Y3676320D01*
X5654190Y4537820D02*
X5646250Y4529880D01*
X5630370Y4521940D01*
X5606560D01*
X5590690Y4529880D01*
X5582750Y4537820D01*
X5574810Y4553690D01*
Y4585440D01*
X5582750Y4601320D01*
X5590690Y4609260D01*
X5606560Y4617190D01*
X5630370D01*
X5646250Y4609260D01*
X5654190Y4601320D01*
X5664190Y2794820D02*
X5656250Y2786880D01*
X5640370Y2778940D01*
X5616560D01*
X5600690Y2786880D01*
X5592750Y2794820D01*
X5584810Y2810690D01*
Y2842440D01*
X5592750Y2858320D01*
X5600690Y2866260D01*
X5616560Y2874190D01*
X5640370D01*
X5656250Y2866260D01*
X5664190Y2858320D01*
X5669190Y2662820D02*
X5661250Y2654880D01*
X5645370Y2646940D01*
X5621560D01*
X5605690Y2654880D01*
X5597750Y2662820D01*
X5589810Y2678690D01*
Y2710440D01*
X5597750Y2726320D01*
X5605690Y2734260D01*
X5621560Y2742190D01*
X5645370D01*
X5661250Y2734260D01*
X5669190Y2726320D01*
X5671690Y2590320D02*
X5663750Y2582380D01*
X5647870Y2574440D01*
X5624060D01*
X5608190Y2582380D01*
X5600250Y2590320D01*
X5592310Y2606190D01*
Y2637940D01*
X5600250Y2653820D01*
X5608190Y2661760D01*
X5624060Y2669690D01*
X5647870D01*
X5663750Y2661760D01*
X5671690Y2653820D01*
X5714190Y7080320D02*
X5706250Y7072380D01*
X5690370Y7064440D01*
X5666560D01*
X5650690Y7072380D01*
X5642750Y7080320D01*
X5634810Y7096190D01*
Y7127940D01*
X5642750Y7143820D01*
X5650690Y7151760D01*
X5666560Y7159690D01*
X5690370D01*
X5706250Y7151760D01*
X5714190Y7143820D01*
X5721690Y5942820D02*
X5713750Y5934880D01*
X5697870Y5926940D01*
X5674060D01*
X5658190Y5934880D01*
X5650250Y5942820D01*
X5642310Y5958690D01*
Y5990440D01*
X5650250Y6006320D01*
X5658190Y6014260D01*
X5674060Y6022190D01*
X5697870D01*
X5713750Y6014260D01*
X5721690Y6006320D01*
X5703370Y8459130D02*
X5727190D01*
Y8451190D01*
X5719250Y8435320D01*
X5711310Y8427380D01*
X5695440Y8419440D01*
X5679560D01*
X5663690Y8427380D01*
X5655750Y8435320D01*
X5647810Y8451190D01*
Y8482940D01*
X5655750Y8498820D01*
X5663690Y8506760D01*
X5679560Y8514690D01*
X5695440D01*
X5711310Y8506760D01*
X5719250Y8498820D01*
X5727190Y8482940D01*
X5703370Y8713130D02*
X5727190D01*
Y8705190D01*
X5719250Y8689320D01*
X5711310Y8681380D01*
X5695440Y8673440D01*
X5679560D01*
X5663690Y8681380D01*
X5655750Y8689320D01*
X5647810Y8705190D01*
Y8736940D01*
X5655750Y8752820D01*
X5663690Y8760760D01*
X5679560Y8768690D01*
X5695440D01*
X5711310Y8760760D01*
X5719250Y8752820D01*
X5727190Y8736940D01*
X5679810Y494440D02*
Y589690D01*
X5719500Y542070D01*
X5759190Y589690D01*
Y494440D01*
X5687310Y5434440D02*
X5727000Y5529690D01*
X5766690Y5434440D01*
X5703190Y5474130D02*
X5750810D01*
X5814190Y3575320D02*
X5806250Y3567380D01*
X5790370Y3559440D01*
X5766560D01*
X5750690Y3567380D01*
X5742750Y3575320D01*
X5734810Y3591190D01*
Y3622940D01*
X5742750Y3638820D01*
X5750690Y3646760D01*
X5766560Y3654690D01*
X5790370D01*
X5806250Y3646760D01*
X5814190Y3638820D01*
X5824190Y2462820D02*
X5816250Y2454880D01*
X5800370Y2446940D01*
X5776560D01*
X5760690Y2454880D01*
X5752750Y2462820D01*
X5744810Y2478690D01*
Y2510440D01*
X5752750Y2526320D01*
X5760690Y2534260D01*
X5776560Y2542190D01*
X5800370D01*
X5816250Y2534260D01*
X5824190Y2526320D01*
X5879190Y4050320D02*
X5871250Y4042380D01*
X5855370Y4034440D01*
X5831560D01*
X5815690Y4042380D01*
X5807750Y4050320D01*
X5799810Y4066190D01*
Y4097940D01*
X5807750Y4113820D01*
X5815690Y4121760D01*
X5831560Y4129690D01*
X5855370D01*
X5871250Y4121760D01*
X5879190Y4113820D01*
X5941690Y3550320D02*
X5933750Y3542380D01*
X5917870Y3534440D01*
X5894060D01*
X5878190Y3542380D01*
X5870250Y3550320D01*
X5862310Y3566190D01*
Y3597940D01*
X5870250Y3613820D01*
X5878190Y3621760D01*
X5894060Y3629690D01*
X5917870D01*
X5933750Y3621760D01*
X5941690Y3613820D01*
X5894810Y1941940D02*
X5934500Y2037190D01*
X5974190Y1941940D01*
X5910690Y1981630D02*
X5958310D01*
X5897310Y1016940D02*
Y1112190D01*
X5937000Y1064570D01*
X5976690Y1112190D01*
Y1016940D01*
X5897310Y1270940D02*
Y1366190D01*
X5937000Y1318570D01*
X5976690Y1366190D01*
Y1270940D01*
X6031690Y3382820D02*
X6023750Y3374880D01*
X6007870Y3366940D01*
X5984060D01*
X5968190Y3374880D01*
X5960250Y3382820D01*
X5952310Y3398690D01*
Y3430440D01*
X5960250Y3446320D01*
X5968190Y3454260D01*
X5984060Y3462190D01*
X6007870D01*
X6023750Y3454260D01*
X6031690Y3446320D01*
X6039190Y3105320D02*
X6031250Y3097380D01*
X6015370Y3089440D01*
X5991560D01*
X5975690Y3097380D01*
X5967750Y3105320D01*
X5959810Y3121190D01*
Y3152940D01*
X5967750Y3168820D01*
X5975690Y3176760D01*
X5991560Y3184690D01*
X6015370D01*
X6031250Y3176760D01*
X6039190Y3168820D01*
X6049190Y3195320D02*
X6041250Y3187380D01*
X6025370Y3179440D01*
X6001560D01*
X5985690Y3187380D01*
X5977750Y3195320D01*
X5969810Y3211190D01*
Y3242940D01*
X5977750Y3258820D01*
X5985690Y3266760D01*
X6001560Y3274690D01*
X6025370D01*
X6041250Y3266760D01*
X6049190Y3258820D01*
X6059190Y7292820D02*
X6051250Y7284880D01*
X6035370Y7276940D01*
X6011560D01*
X5995690Y7284880D01*
X5987750Y7292820D01*
X5979810Y7308690D01*
Y7340440D01*
X5987750Y7356320D01*
X5995690Y7364260D01*
X6011560Y7372190D01*
X6035370D01*
X6051250Y7364260D01*
X6059190Y7356320D01*
X6069190Y7075320D02*
X6061250Y7067380D01*
X6045370Y7059440D01*
X6021560D01*
X6005690Y7067380D01*
X5997750Y7075320D01*
X5989810Y7091190D01*
Y7122940D01*
X5997750Y7138820D01*
X6005690Y7146760D01*
X6021560Y7154690D01*
X6045370D01*
X6061250Y7146760D01*
X6069190Y7138820D01*
X6089190Y6072820D02*
X6081250Y6064880D01*
X6065370Y6056940D01*
X6041560D01*
X6025690Y6064880D01*
X6017750Y6072820D01*
X6009810Y6088690D01*
Y6120440D01*
X6017750Y6136320D01*
X6025690Y6144260D01*
X6041560Y6152190D01*
X6065370D01*
X6081250Y6144260D01*
X6089190Y6136320D01*
X6094190Y5955320D02*
X6086250Y5947380D01*
X6070370Y5939440D01*
X6046560D01*
X6030690Y5947380D01*
X6022750Y5955320D01*
X6014810Y5971190D01*
Y6002940D01*
X6022750Y6018820D01*
X6030690Y6026760D01*
X6046560Y6034690D01*
X6070370D01*
X6086250Y6026760D01*
X6094190Y6018820D01*
X6019810Y4621940D02*
X6059500Y4717190D01*
X6099190Y4621940D01*
X6035690Y4661630D02*
X6083310D01*
X6111690Y3577820D02*
X6103750Y3569880D01*
X6087870Y3561940D01*
X6064060D01*
X6048190Y3569880D01*
X6040250Y3577820D01*
X6032310Y3593690D01*
Y3625440D01*
X6040250Y3641320D01*
X6048190Y3649260D01*
X6064060Y3657190D01*
X6087870D01*
X6103750Y3649260D01*
X6111690Y3641320D01*
X6054810Y2814440D02*
X6094500Y2909690D01*
X6134190Y2814440D01*
X6070690Y2854130D02*
X6118310D01*
X6087310Y3019440D02*
X6127000Y3114690D01*
X6166690Y3019440D01*
X6103190Y3059130D02*
X6150810D01*
X6179190Y3685320D02*
X6171250Y3677380D01*
X6155370Y3669440D01*
X6131560D01*
X6115690Y3677380D01*
X6107750Y3685320D01*
X6099810Y3701190D01*
Y3732940D01*
X6107750Y3748820D01*
X6115690Y3756760D01*
X6131560Y3764690D01*
X6155370D01*
X6171250Y3756760D01*
X6179190Y3748820D01*
X6229190Y5812820D02*
X6221250Y5804880D01*
X6205370Y5796940D01*
X6181560D01*
X6165690Y5804880D01*
X6157750Y5812820D01*
X6149810Y5828690D01*
Y5860440D01*
X6157750Y5876320D01*
X6165690Y5884260D01*
X6181560Y5892190D01*
X6205370D01*
X6221250Y5884260D01*
X6229190Y5876320D01*
Y6080320D02*
X6221250Y6072380D01*
X6205370Y6064440D01*
X6181560D01*
X6165690Y6072380D01*
X6157750Y6080320D01*
X6149810Y6096190D01*
Y6127940D01*
X6157750Y6143820D01*
X6165690Y6151760D01*
X6181560Y6159690D01*
X6205370D01*
X6221250Y6151760D01*
X6229190Y6143820D01*
X6231690Y2460320D02*
X6223750Y2452380D01*
X6207870Y2444440D01*
X6184060D01*
X6168190Y2452380D01*
X6160250Y2460320D01*
X6152310Y2476190D01*
Y2507940D01*
X6160250Y2523820D01*
X6168190Y2531760D01*
X6184060Y2539690D01*
X6207870D01*
X6223750Y2531760D01*
X6231690Y2523820D01*
X6239190Y3382820D02*
X6231250Y3374880D01*
X6215370Y3366940D01*
X6191560D01*
X6175690Y3374880D01*
X6167750Y3382820D01*
X6159810Y3398690D01*
Y3430440D01*
X6167750Y3446320D01*
X6175690Y3454260D01*
X6191560Y3462190D01*
X6215370D01*
X6231250Y3454260D01*
X6239190Y3446320D01*
X6240350Y1032160D02*
Y1127410D01*
Y1079790D02*
X6319730D01*
Y1032160D02*
Y1127410D01*
X6240350Y1682160D02*
Y1777410D01*
Y1729790D02*
X6319730D01*
Y1682160D02*
Y1777410D01*
X6414190Y4327820D02*
X6406250Y4319880D01*
X6390370Y4311940D01*
X6366560D01*
X6350690Y4319880D01*
X6342750Y4327820D01*
X6334810Y4343690D01*
Y4375440D01*
X6342750Y4391320D01*
X6350690Y4399260D01*
X6366560Y4407190D01*
X6390370D01*
X6406250Y4399260D01*
X6414190Y4391320D01*
X6377310Y7389440D02*
X6417000Y7484690D01*
X6456690Y7389440D01*
X6393190Y7429130D02*
X6440810D01*
X6587310Y6174440D02*
X6627000Y6269690D01*
X6666690Y6174440D01*
X6603190Y6214130D02*
X6650810D01*
X6731690Y5810320D02*
X6723750Y5802380D01*
X6707870Y5794440D01*
X6684060D01*
X6668190Y5802380D01*
X6660250Y5810320D01*
X6652310Y5826190D01*
Y5857940D01*
X6660250Y5873820D01*
X6668190Y5881760D01*
X6684060Y5889690D01*
X6707870D01*
X6723750Y5881760D01*
X6731690Y5873820D01*
X6690350Y1032160D02*
Y1127410D01*
Y1079790D02*
X6769730D01*
Y1032160D02*
Y1127410D01*
X6690350Y1682160D02*
Y1777410D01*
Y1729790D02*
X6769730D01*
Y1682160D02*
Y1777410D01*
X6712310Y564690D02*
Y469440D01*
X6791690D01*
X6712310Y8884690D02*
Y8789440D01*
X6791690D01*
D02*
D117*
X318310Y318630D03*
Y8638630D03*
X483310Y4093630D03*
Y4173630D03*
Y4253630D03*
Y4333630D03*
Y4413630D03*
X573310Y4093630D03*
Y4173630D03*
Y4253630D03*
Y4333630D03*
Y4413630D03*
X615810Y3618630D03*
X638310Y1184630D03*
Y1692630D03*
Y2200630D03*
Y2708630D03*
X990350Y6567350D03*
Y6821350D03*
Y7641350D03*
Y7895350D03*
X1084310Y3244390D03*
Y3752390D03*
X1088310Y351130D03*
X1183310Y5433630D03*
Y5608630D03*
X1355810Y4718630D03*
X1358310Y5258630D03*
Y5433630D03*
Y5608630D03*
X1383310Y731130D03*
Y3078630D03*
X1396350Y6659850D03*
Y7802850D03*
X1533310Y5433630D03*
Y5608630D03*
X1593310Y351130D03*
X1616350Y1623630D03*
X1701350Y6446350D03*
Y8016350D03*
X1778310Y4241130D03*
X1810810Y3671130D03*
X1841350Y1628630D03*
X2013310Y3351130D03*
X2031350Y6913850D03*
Y7167850D03*
Y7421850D03*
Y7675850D03*
X2285350Y6786850D03*
Y7040850D03*
Y7294850D03*
Y7548850D03*
X2316350Y336350D03*
Y590350D03*
X2553310Y4143630D03*
X2573310Y4748630D03*
Y4903630D03*
Y5043630D03*
Y5183630D03*
Y5323630D03*
X2683310Y7353630D03*
X2695810Y6448630D03*
X2698310Y945630D03*
X2703310Y4898630D03*
X2704420Y7529740D03*
X2706350Y4748630D03*
Y5043630D03*
Y5183630D03*
Y5323630D03*
X2713310Y1176350D03*
X2758310Y7011130D03*
X2763310Y6784630D03*
X2838310Y4748630D03*
Y4898630D03*
X2843310Y5043630D03*
X2894010Y7908630D03*
X2916350Y336350D03*
Y590350D03*
X2973310Y4748630D03*
Y4898630D03*
Y5048630D03*
X3093310Y6613630D03*
X3103310Y4748630D03*
Y4898630D03*
Y5048630D03*
X3155810Y1981130D03*
Y2376130D03*
X3160810Y3153630D03*
X3163310Y3533630D03*
X3203310Y1176350D03*
X3215840Y4424390D03*
X3223310Y4748630D03*
Y4898630D03*
Y5048630D03*
X3258310Y7333630D03*
X3298310Y7733630D03*
X3323310Y7071130D03*
X3443310Y5591130D03*
X3488310Y7368630D03*
X3548310Y5616130D03*
X3555810Y688630D03*
X3615810Y8268630D03*
Y8522630D03*
X3735010Y3441130D03*
X3736010Y4131130D03*
X3738310Y5918630D03*
X3803310Y6301130D03*
X3869810Y8268630D03*
Y8522630D03*
X3885810Y2943630D03*
X3963310Y3441130D03*
X3965810Y3998630D03*
X4018310Y983630D03*
Y1956130D03*
X4123810Y8268630D03*
Y8522630D03*
X4151640Y340310D03*
X4250810Y7828630D03*
X4295810Y5356130D03*
Y6318630D03*
X4348310Y2266130D03*
X4377810Y8268630D03*
Y8522630D03*
X4409810Y343630D03*
X4445810Y5791130D03*
X4453310Y2668630D03*
Y3188630D03*
X4520810Y2551130D03*
Y6383630D03*
X4590810Y2463630D03*
X4595810Y6208630D03*
X4625810Y2066130D03*
X4631810Y8268630D03*
Y8522630D03*
X4660810Y2378630D03*
Y6296130D03*
X4663810Y343630D03*
X4760810Y7343630D03*
Y7728630D03*
X4853010Y2338630D03*
X4875810Y7068630D03*
X4885810Y8268630D03*
Y8522630D03*
X4913310Y6538630D03*
X4917810Y343630D03*
X4925810Y7576130D03*
X4943310Y6871130D03*
X4980810Y3391130D03*
X5043310Y3146130D03*
Y3218630D03*
X5048310Y6473630D03*
X5083310Y2783630D03*
X5085810Y2496130D03*
Y2698630D03*
Y2858630D03*
X5090810Y3018630D03*
X5093310Y2938630D03*
X5139810Y8268630D03*
Y8522630D03*
X5155810Y2061130D03*
X5171810Y343630D03*
X5178310Y2823130D03*
X5238310Y2566130D03*
X5243310Y2986130D03*
X5305810Y3446130D03*
X5320810Y4371130D03*
X5330810Y2628130D03*
X5335810Y2496130D03*
X5338310Y2423630D03*
X5380810Y6913630D03*
X5388310Y5776130D03*
X5393810Y8268630D03*
Y8522630D03*
X5425810Y343630D03*
X5433310Y5283630D03*
X5480810Y3408630D03*
X5490810Y2296130D03*
X5545810Y3883630D03*
X5608310Y3383630D03*
X5640810Y1791130D03*
X5643310Y866130D03*
Y1120130D03*
X5698310Y3216130D03*
X5705810Y2938630D03*
X5715810Y3028630D03*
X5725810Y7126130D03*
X5735810Y6908630D03*
X5755810Y5906130D03*
X5760810Y5788630D03*
X5765810Y4471130D03*
X5778310Y3411130D03*
X5800810Y2663630D03*
X5833310Y2868630D03*
X5845810Y3518630D03*
X5895810Y5646130D03*
Y5913630D03*
X5898310Y2293630D03*
X5905810Y3216130D03*
X5986350Y881350D03*
Y1531350D03*
X6080810Y4161130D03*
X6123310Y7238630D03*
X6333310Y6023630D03*
X6398310Y5643630D03*
X6436350Y881350D03*
Y1531350D03*
X6458310Y318630D03*
Y8638630D03*
X0Y0D02*
M02*
