G04 DesignSpark PCB Gerber Version 11.0 Build 5877*
G04 #@! TF.Part,Single*
G04 #@! TF.FileFunction,Copper,L2,Inr*
G04 #@! TF.FilePolarity,Positive*
%FSLAX35Y35*%
%MOMM*%
G04 #@! TA.AperFunction,ViaPad*
%AMT22*0 Rounded Rectangle Pad at angle 0*4,1,32,-0.11000,-0.44500,0.11000,-0.44500,0.14340,-0.44120,0.17510,-0.43010,0.20350,-0.41220,0.22720,-0.38850,0.24510,-0.36010,0.25620,-0.32840,0.26000,-0.29500,0.26000,0.29500,0.25620,0.32840,0.24510,0.36010,0.22720,0.38850,0.20350,0.41220,0.17510,0.43010,0.14340,0.44120,0.11000,0.44500,-0.11000,0.44500,-0.14340,0.44120,-0.17510,0.43010,-0.20350,0.41220,-0.22720,0.38850,-0.24510,0.36010,-0.25620,0.32840,-0.26000,0.29500,-0.26000,-0.29500,-0.25620,-0.32840,-0.24510,-0.36010,-0.22720,-0.38850,-0.20350,-0.41220,-0.17510,-0.43010,-0.14340,-0.44120,-0.11000,-0.44500,0*%
%ADD22T22*%
%AMT18*0 Rounded Rectangle Pad at angle 0*4,1,44,-0.21000,-0.70000,0.21000,-0.70000,0.25690,-0.69630,0.30270,-0.68530,0.34620,-0.66730,0.38630,-0.64270,0.42210,-0.61210,0.45270,-0.57630,0.47730,-0.53620,0.49530,-0.49270,0.50630,-0.44690,0.51000,-0.40000,0.51000,0.40000,0.50630,0.44690,0.49530,0.49270,0.47730,0.53620,0.45270,0.57630,0.42210,0.61210,0.38630,0.64270,0.34620,0.66730,0.30270,0.68530,0.25690,0.69630,0.21000,0.70000,-0.21000,0.70000,-0.25690,0.69630,-0.30270,0.68530,-0.34620,0.66730,-0.38630,0.64270,-0.42210,0.61210,-0.45270,0.57630,-0.47730,0.53620,-0.49530,0.49270,-0.50630,0.44690,-0.51000,0.40000,-0.51000,-0.40000,-0.50630,-0.44690,-0.49530,-0.49270,-0.47730,-0.53620,-0.45270,-0.57630,-0.42210,-0.61210,-0.38630,-0.64270,-0.34620,-0.66730,-0.30270,-0.68530,-0.25690,-0.69630,-0.21000,-0.70000,0*%
%ADD18T18*%
%AMT23*0 Rounded Rectangle Pad at angle 45*4,1,32,0.23690,-0.39240,0.39240,-0.23690,0.41330,-0.21060,0.42790,-0.18030,0.43540,-0.14760,0.43540,-0.11400,0.42790,-0.08120,0.41330,-0.05090,0.39240,-0.02470,-0.02470,0.39240,-0.05100,0.41330,-0.08130,0.42790,-0.11400,0.43540,-0.14760,0.43540,-0.18040,0.42790,-0.21070,0.41330,-0.23690,0.39240,-0.39240,0.23690,-0.41330,0.21060,-0.42790,0.18030,-0.43540,0.14760,-0.43540,0.11400,-0.42790,0.08120,-0.41330,0.05090,-0.39240,0.02470,0.02470,-0.39240,0.05100,-0.41330,0.08130,-0.42790,0.11400,-0.43540,0.14760,-0.43540,0.18040,-0.42790,0.21070,-0.41330,0.23690,-0.39240,0*%
%ADD23T23*%
%AMT70*0 Rounded Rectangle Pad at angle 90*4,1,32,0.44500,-0.11000,0.44500,0.11000,0.44120,0.14340,0.43010,0.17510,0.41220,0.20350,0.38850,0.22720,0.36010,0.24510,0.32840,0.25620,0.29500,0.26000,-0.29500,0.26000,-0.32840,0.25620,-0.36010,0.24510,-0.38850,0.22720,-0.41220,0.20350,-0.43010,0.17510,-0.44120,0.14340,-0.44500,0.11000,-0.44500,-0.11000,-0.44120,-0.14340,-0.43010,-0.17510,-0.41220,-0.20350,-0.38850,-0.22720,-0.36010,-0.24510,-0.32840,-0.25620,-0.29500,-0.26000,0.29500,-0.26000,0.32840,-0.25620,0.36010,-0.24510,0.38850,-0.22720,0.41220,-0.20350,0.43010,-0.17510,0.44120,-0.14340,0.44500,-0.11000,0*%
%ADD70T70*%
%AMT17*0 Rounded Rectangle Pad at angle 90*4,1,44,0.70000,-0.21000,0.70000,0.21000,0.69630,0.25690,0.68530,0.30270,0.66730,0.34620,0.64270,0.38630,0.61210,0.42210,0.57630,0.45270,0.53620,0.47730,0.49270,0.49530,0.44690,0.50630,0.40000,0.51000,-0.40000,0.51000,-0.44690,0.50630,-0.49270,0.49530,-0.53620,0.47730,-0.57630,0.45270,-0.61210,0.42210,-0.64270,0.38630,-0.66730,0.34620,-0.68530,0.30270,-0.69630,0.25690,-0.70000,0.21000,-0.70000,-0.21000,-0.69630,-0.25690,-0.68530,-0.30270,-0.66730,-0.34620,-0.64270,-0.38630,-0.61210,-0.42210,-0.57630,-0.45270,-0.53620,-0.47730,-0.49270,-0.49530,-0.44690,-0.50630,-0.40000,-0.51000,0.40000,-0.51000,0.44690,-0.50630,0.49270,-0.49530,0.53620,-0.47730,0.57630,-0.45270,0.61210,-0.42210,0.64270,-0.38630,0.66730,-0.34620,0.68530,-0.30270,0.69630,-0.25690,0.70000,-0.21000,0*%
%ADD17T17*%
G04 #@! TA.AperFunction,ComponentPad*
%AMT100*0 Rounded Rectangle Pad at angle 0*4,1,76,-1.50000,-2.50000,1.50000,-2.50000,1.58720,-2.49620,1.67370,-2.48480,1.75890,-2.46590,1.84210,-2.43970,1.92270,-2.40630,2.00010,-2.36600,2.07370,-2.31910,2.14290,-2.26600,2.20720,-2.20710,2.26610,-2.14280,2.31920,-2.07360,2.36610,-2.00000,2.40640,-1.92260,2.43980,-1.84200,2.46600,-1.75880,2.48490,-1.67360,2.49630,-1.58710,2.50000,-1.50000,2.50000,1.50000,2.49620,1.58720,2.48480,1.67370,2.46590,1.75890,2.43970,1.84210,2.40630,1.92270,2.36600,2.00010,2.31910,2.07370,2.26600,2.14290,2.20710,2.20720,2.14280,2.26610,2.07360,2.31920,2.00000,2.36610,1.92260,2.40640,1.84200,2.43980,1.75880,2.46600,1.67360,2.48490,1.58710,2.49630,1.50000,2.50000,-1.50000,2.50000,-1.58720,2.49620,-1.67370,2.48480,-1.75890,2.46590,-1.84210,2.43970,-1.92270,2.40630,-2.00010,2.36600,-2.07370,2.31910,-2.14290,2.26600,-2.20720,2.20710,-2.26610,2.14280,-2.31920,2.07360,-2.36610,2.00000,-2.40640,1.92260,-2.43980,1.84200,-2.46600,1.75880,-2.48490,1.67360,-2.49630,1.58710,-2.50000,1.50000,-2.50000,-1.50000,-2.49620,-1.58720,-2.48480,-1.67370,-2.46590,-1.75890,-2.43970,-1.84210,-2.40630,-1.92270,-2.36600,-2.00010,-2.31910,-2.07370,-2.26600,-2.14290,-2.20710,-2.20720,-2.14280,-2.26610,-2.07360,-2.31920,-2.00000,-2.36610,-1.92260,-2.40640,-1.84200,-2.43980,-1.75880,-2.46600,-1.67360,-2.48490,-1.58710,-2.49630,-1.50000,-2.50000,0*%
%ADD100T100*%
%ADD97R,2.03200X1.52400*%
%ADD89R,1.40000X1.40000*%
%ADD95R,1.52400X1.52400*%
%ADD75R,2.40000X2.40000*%
G04 #@! TD.AperFunction*
%ADD111C,0.00001*%
G04 #@! TA.AperFunction,ViaPad*
%ADD19C,0.71000*%
%ADD21C,0.90000*%
G04 #@! TA.AperFunction,ComponentPad*
%ADD96C,1.21700*%
%ADD101C,1.31600*%
%ADD90C,1.40000*%
G04 #@! TA.AperFunction,ViaPad*
%ADD71C,1.42000*%
G04 #@! TA.AperFunction,ComponentPad*
%ADD83C,1.50000*%
%ADD91C,1.53000*%
%ADD82C,1.80000*%
%ADD76C,2.40000*%
G04 #@! TD.AperFunction*
X0Y0D02*
D02*
D17*
X1383310Y731130D03*
X1778310Y4241130D03*
X2695810Y6448630D03*
X2698310Y945630D03*
X3738310Y5918630D03*
X4295810Y5356130D03*
X5640810Y1791130D03*
X5765810Y4471130D03*
X6333310Y6023630D03*
D02*
D18*
X615810Y3618630D03*
X1355810Y4718630D03*
X1383310Y3078630D03*
X1616350Y1623630D03*
X1810810Y3671130D03*
X1841350Y1628630D03*
X2013310Y3351130D03*
X2553310Y4143630D03*
X2713310Y1176350D03*
X2894010Y7908630D03*
X3155810Y1981130D03*
Y2376130D03*
X3160810Y3153630D03*
X3163310Y3533630D03*
X3203310Y1176350D03*
X3298310Y7733630D03*
X3488310Y7368630D03*
X3555810Y688630D03*
X3735010Y3441130D03*
X3736010Y4131130D03*
X3885810Y2943630D03*
X3963310Y3441130D03*
X3965810Y3998630D03*
X4018310Y983630D03*
Y1956130D03*
X4295810Y6318630D03*
X4348310Y2266130D03*
X4625810Y2066130D03*
X5155810Y2061130D03*
X5433310Y5283630D03*
X5800810Y2663630D03*
X5833310Y2868630D03*
X6123310Y7238630D03*
D02*
D19*
X483310Y4093630D03*
Y4173630D03*
Y4253630D03*
Y4333630D03*
Y4413630D03*
X573310Y4093630D03*
Y4173630D03*
Y4253630D03*
Y4333630D03*
Y4413630D03*
D02*
D70*
X2758310Y7011130D03*
X2763310Y6784630D03*
X3803310Y6301130D03*
X5043310Y3146130D03*
Y3218630D03*
X5083310Y2783630D03*
X5085810Y2858630D03*
X5090810Y3018630D03*
X5093310Y2938630D03*
X5185810Y2696130D03*
X5190810Y2563130D03*
X5320810Y4371130D03*
X5343310Y2433630D03*
X5698310Y3216130D03*
X5705810Y2938630D03*
X5715810Y3028630D03*
X5725810Y7126130D03*
X5735810Y6908630D03*
D02*
D71*
X1183310Y5433630D03*
Y5608630D03*
X1358310Y5258630D03*
Y5433630D03*
Y5608630D03*
X1533310Y5433630D03*
Y5608630D03*
D02*
D21*
X2573310Y4748630D03*
Y4903630D03*
Y5043630D03*
Y5183630D03*
Y5323630D03*
X2703310Y4898630D03*
X2706350Y4748630D03*
Y5043630D03*
Y5183630D03*
Y5323630D03*
X2838310Y4748630D03*
Y4898630D03*
X2843310Y5043630D03*
X2973310Y4748630D03*
Y4898630D03*
Y5048630D03*
X3103310Y4748630D03*
Y4898630D03*
Y5048630D03*
X3223310Y4748630D03*
Y4898630D03*
Y5048630D03*
D02*
D22*
X3093310Y6613630D03*
X3258310Y7333630D03*
X3323310Y7071130D03*
X3443310Y5591130D03*
X3548310Y5616130D03*
X4250810Y7828630D03*
X4445810Y5791130D03*
X4520810Y2551130D03*
Y6383630D03*
X4590810Y2463630D03*
X4595810Y6208630D03*
X4660810Y2378630D03*
Y6296130D03*
X4760810Y7343630D03*
Y7728630D03*
X4853010Y2338630D03*
X4925810Y7576130D03*
X4980810Y3391130D03*
X5048310Y6473630D03*
X5178310Y2823130D03*
X5243310Y2986130D03*
X5305810Y3446130D03*
X5380810Y6913630D03*
X5388310Y5776130D03*
X5425810Y1936130D03*
X5480810Y3408630D03*
X5608310Y3383630D03*
X5683310Y4043380D03*
X5725810Y2501130D03*
X5760810Y5788630D03*
X5778310Y3411130D03*
X5845810Y3518630D03*
X5895810Y5646130D03*
Y5913630D03*
X5905810Y3216130D03*
X6398310Y5643630D03*
D02*
D23*
X2683310Y7353630D03*
X2704420Y7529740D03*
X3963310Y7861130D03*
X4875810Y7068630D03*
X4943310Y6871130D03*
X5755810Y5906130D03*
D02*
D75*
X638310Y2708630D03*
D02*
D76*
Y1184630D03*
Y1692630D03*
Y2200630D03*
X1701350Y6446350D03*
Y8016350D03*
D02*
D82*
X3615810Y8268630D03*
Y8522630D03*
X3869810Y8268630D03*
Y8522630D03*
X4123810Y8268630D03*
Y8522630D03*
X4377810Y8268630D03*
Y8522630D03*
X4631810Y8268630D03*
Y8522630D03*
X4885810Y8268630D03*
Y8522630D03*
X5139810Y8268630D03*
Y8522630D03*
X5393810Y8268630D03*
Y8522630D03*
D02*
D83*
X5986350Y881350D03*
Y1531350D03*
X6436350Y881350D03*
Y1531350D03*
D02*
D89*
X2031350Y7675850D03*
D02*
D90*
Y6913850D03*
Y7167850D03*
Y7421850D03*
X2285350Y6786850D03*
Y7040850D03*
Y7294850D03*
Y7548850D03*
D02*
D91*
X990350Y6567350D03*
Y6821350D03*
Y7641350D03*
Y7895350D03*
D02*
D95*
X3215840Y4424390D03*
X4151640Y340310D03*
X4409810Y343630D03*
X4663810D03*
X4917810D03*
X5171810D03*
X5425810D03*
X5643310Y866130D03*
Y1120130D03*
D02*
D96*
X1084310Y3244390D03*
Y3752390D03*
D02*
D97*
X2316350Y336350D03*
Y590350D03*
X2916350Y336350D03*
Y590350D03*
D02*
D100*
X318310Y318630D03*
Y8638630D03*
X6458310Y318630D03*
Y8638630D03*
D02*
D101*
X1088310Y351130D03*
X1593310D03*
D02*
D111*
X32700Y8786350D02*
Y156350D01*
G75*
G03*
X156350Y32700I123650J0D01*
G01*
X6606350D01*
G75*
G03*
X6730000Y156350I0J123650D01*
G01*
Y8786350D01*
G75*
G03*
X6728310Y8806710I-123660J-10D01*
G01*
Y8468630D01*
G75*
G02*
X6628310Y8368630I-100000J0D01*
G01*
X6288310D01*
G75*
G02*
X6188310Y8468630I0J100000D01*
G01*
Y8808630D01*
G75*
G02*
X6288310Y8908630I100000J0D01*
G01*
X6624690D01*
G75*
G03*
X6606350Y8910000I-18360J-122280D01*
G01*
X156350D01*
G75*
G03*
X120430Y8904660I30J-123660D01*
G01*
G75*
G02*
X148310Y8908630I27900J-96030D01*
G01*
X488310D01*
G75*
G02*
X588310Y8808630I0J-100000D01*
G01*
Y8468630D01*
G75*
G02*
X488310Y8368630I-100000J0D01*
G01*
X148310D01*
G75*
G02*
X48310Y8468630I0J100000D01*
G01*
Y8808630D01*
G75*
G02*
X108400Y8900320I100000J0D01*
G01*
G75*
G03*
X32700Y8786350I47970J-113990D01*
G01*
X6393310Y6094630D02*
G75*
G02*
X6423310Y6064630I0J-30000D01*
G01*
Y5982630D01*
G75*
G02*
X6393310Y5952630I-30000J0D01*
G01*
X6273310D01*
G75*
G02*
X6243310Y5982630I0J30000D01*
G01*
Y6064630D01*
G75*
G02*
X6273310Y6094630I30000J0D01*
G01*
X6393310D01*
X6444310Y5605870D02*
G75*
G02*
Y5605860I-40930J0D01*
G01*
G75*
G02*
X6423310Y5579750I-26730J0D01*
G01*
Y5608740D01*
G75*
G03*
X6424310Y5614110I-13920J5370D01*
G01*
G75*
G03*
Y5614130I-14690J10D01*
G01*
Y5618630D01*
X6444310D01*
Y5605870D01*
X6423310Y5707510D02*
G75*
G02*
X6444310Y5681400I-5730J-26110D01*
G01*
G75*
G02*
Y5681390I-40930J0D01*
G01*
Y5668630D01*
X6424310D01*
Y5673130D01*
G75*
G03*
Y5673150I-14690J10D01*
G01*
G75*
G03*
X6423310Y5678520I-14920J0D01*
G01*
Y5707510D01*
X6341350Y881350D02*
G75*
G02*
X6531350I95000J0D01*
G01*
G75*
G02*
X6341350I-95000J0D01*
G01*
Y1531350D02*
G75*
G02*
X6531350I95000J0D01*
G01*
G75*
G02*
X6341350I-95000J0D01*
G01*
X6372310Y5614110D02*
G75*
G03*
X6373310Y5608740I14920J0D01*
G01*
Y5579750D01*
G75*
G02*
X6352310Y5605860I5730J26110D01*
G01*
G75*
G02*
Y5605870I40930J10D01*
G01*
Y5618630D01*
X6372310D01*
Y5614130D01*
G75*
G03*
Y5614110I14690J-10D01*
G01*
X6352310Y5681400D02*
G75*
G02*
X6373310Y5707510I26730J0D01*
G01*
Y5678520D01*
G75*
G03*
X6372310Y5673150I13920J-5370D01*
G01*
G75*
G03*
Y5673130I14690J-10D01*
G01*
Y5668630D01*
X6352310D01*
Y5681390D01*
G75*
G02*
Y5681400I40930J10D01*
G01*
X893850Y6567350D02*
G75*
G02*
X1086850I96500J0D01*
G01*
G75*
G02*
X893850I-96500J0D01*
G01*
X1088310Y436930D02*
G75*
G02*
X1174110Y351130I0J-85800D01*
G01*
G75*
G02*
X1088310Y265330I-85800J0D01*
G01*
G75*
G02*
X1002510Y351130I0J85800D01*
G01*
G75*
G02*
X1088310Y436930I85800J0D01*
G01*
X1003460Y3244390D02*
G75*
G02*
X1165160I80850J0D01*
G01*
G75*
G02*
X1003460I-80850J0D01*
G01*
Y3752390D02*
G75*
G02*
X1165160I80850J0D01*
G01*
G75*
G02*
X1003460I-80850J0D01*
G01*
X893850Y6821350D02*
G75*
G02*
X1086850I96500J0D01*
G01*
G75*
G02*
X893850I-96500J0D01*
G01*
Y7641350D02*
G75*
G02*
X1086850I96500J0D01*
G01*
G75*
G02*
X893850I-96500J0D01*
G01*
Y7895350D02*
G75*
G02*
X1086850I96500J0D01*
G01*
G75*
G02*
X893850I-96500J0D01*
G01*
X1445810Y5633620D02*
G75*
G02*
X1624310Y5608630I87500J-24990D01*
G01*
G75*
G02*
X1558300Y5521130I-91000J0D01*
G01*
G75*
G02*
X1624310Y5433630I-24990J-87500D01*
G01*
G75*
G02*
X1445810Y5408640I-91000J0D01*
G01*
G75*
G02*
X1383300Y5346130I-87510J25000D01*
G01*
G75*
G02*
X1449310Y5258630I-24990J-87500D01*
G01*
G75*
G02*
X1267310I-91000J0D01*
G01*
G75*
G02*
X1333320Y5346130I91000J0D01*
G01*
G75*
G02*
X1270810Y5408640I25000J87510D01*
G01*
G75*
G02*
X1092310Y5433630I-87500J24990D01*
G01*
G75*
G02*
X1158320Y5521130I91000J0D01*
G01*
G75*
G02*
X1092310Y5608630I24990J87500D01*
G01*
G75*
G02*
X1270810Y5633620I91000J0D01*
G01*
G75*
G02*
X1445810I87500J-25000D01*
G01*
X1593310Y436930D02*
G75*
G02*
X1679110Y351130I0J-85800D01*
G01*
G75*
G02*
X1593310Y265330I-85800J0D01*
G01*
G75*
G02*
X1507510Y351130I0J85800D01*
G01*
G75*
G02*
X1593310Y436930I85800J0D01*
G01*
X1657350Y1713630D02*
G75*
G02*
X1687350Y1683630I0J-30000D01*
G01*
Y1563630D01*
G75*
G02*
X1657350Y1533630I-30000J0D01*
G01*
X1575350D01*
G75*
G02*
X1545350Y1563630I0J30000D01*
G01*
Y1683630D01*
G75*
G02*
X1575350Y1713630I30000J0D01*
G01*
X1657350D01*
X1396810Y4808630D02*
G75*
G02*
X1426810Y4778630I0J-30000D01*
G01*
Y4658630D01*
G75*
G02*
X1396810Y4628630I-30000J0D01*
G01*
X1314810D01*
G75*
G02*
X1284810Y4658630I0J30000D01*
G01*
Y4778630D01*
G75*
G02*
X1314810Y4808630I30000J0D01*
G01*
X1396810D01*
X1443310Y802130D02*
G75*
G02*
X1473310Y772130I0J-30000D01*
G01*
Y690130D01*
G75*
G02*
X1443310Y660130I-30000J0D01*
G01*
X1323310D01*
G75*
G02*
X1293310Y690130I0J30000D01*
G01*
Y772130D01*
G75*
G02*
X1323310Y802130I30000J0D01*
G01*
X1443310D01*
X1424310Y3168630D02*
G75*
G02*
X1454310Y3138630I0J-30000D01*
G01*
Y3018630D01*
G75*
G02*
X1424310Y2988630I-30000J0D01*
G01*
X1342310D01*
G75*
G02*
X1312310Y3018630I0J30000D01*
G01*
Y3138630D01*
G75*
G02*
X1342310Y3168630I30000J0D01*
G01*
X1424310D01*
X1295100Y6659850D02*
G75*
G02*
X1497600I101250J0D01*
G01*
G75*
G02*
X1295100I-101250J0D01*
G01*
Y7802850D02*
G75*
G02*
X1497600I101250J0D01*
G01*
G75*
G02*
X1295100I-101250J0D01*
G01*
X1561350Y6446350D02*
G75*
G02*
X1841350I140000J0D01*
G01*
G75*
G02*
X1561350I-140000J0D01*
G01*
X1838310Y4312130D02*
G75*
G02*
X1868310Y4282130I0J-30000D01*
G01*
Y4200130D01*
G75*
G02*
X1838310Y4170130I-30000J0D01*
G01*
X1718310D01*
G75*
G02*
X1688310Y4200130I0J30000D01*
G01*
Y4282130D01*
G75*
G02*
X1718310Y4312130I30000J0D01*
G01*
X1838310D01*
X1851810Y3761130D02*
G75*
G02*
X1881810Y3731130I0J-30000D01*
G01*
Y3611130D01*
G75*
G02*
X1851810Y3581130I-30000J0D01*
G01*
X1769810D01*
G75*
G02*
X1739810Y3611130I0J30000D01*
G01*
Y3731130D01*
G75*
G02*
X1769810Y3761130I30000J0D01*
G01*
X1851810D01*
X1882350Y1718630D02*
G75*
G02*
X1912350Y1688630I0J-30000D01*
G01*
Y1568630D01*
G75*
G02*
X1882350Y1538630I-30000J0D01*
G01*
X1800350D01*
G75*
G02*
X1770350Y1568630I0J30000D01*
G01*
Y1688630D01*
G75*
G02*
X1800350Y1718630I30000J0D01*
G01*
X1882350D01*
X1561350Y8016350D02*
G75*
G02*
X1841350I140000J0D01*
G01*
G75*
G02*
X1561350I-140000J0D01*
G01*
X1941350Y6913850D02*
G75*
G02*
X2121350I90000J0D01*
G01*
G75*
G02*
X1941350I-90000J0D01*
G01*
X2054310Y3441130D02*
G75*
G02*
X2084310Y3411130I0J-30000D01*
G01*
Y3291130D01*
G75*
G02*
X2054310Y3261130I-30000J0D01*
G01*
X1972310D01*
G75*
G02*
X1942310Y3291130I0J30000D01*
G01*
Y3411130D01*
G75*
G02*
X1972310Y3441130I30000J0D01*
G01*
X2054310D01*
X1941350Y7167850D02*
G75*
G02*
X2121350I90000J0D01*
G01*
G75*
G02*
X1941350I-90000J0D01*
G01*
Y7421850D02*
G75*
G02*
X2121350I90000J0D01*
G01*
G75*
G02*
X1941350I-90000J0D01*
G01*
Y7765850D02*
X2121350D01*
Y7585850D01*
X1941350D01*
Y7765850D01*
X2194750Y432550D02*
X2437950D01*
Y240150D01*
X2194750D01*
Y432550D01*
Y686550D02*
X2437950D01*
Y494150D01*
X2194750D01*
Y686550D01*
X2195350Y6786850D02*
G75*
G02*
X2375350I90000J0D01*
G01*
G75*
G02*
X2195350I-90000J0D01*
G01*
Y7040850D02*
G75*
G02*
X2375350I90000J0D01*
G01*
G75*
G02*
X2195350I-90000J0D01*
G01*
Y7294850D02*
G75*
G02*
X2375350I90000J0D01*
G01*
G75*
G02*
X2195350I-90000J0D01*
G01*
Y7548850D02*
G75*
G02*
X2375350I90000J0D01*
G01*
G75*
G02*
X2195350I-90000J0D01*
G01*
X2594310Y4233630D02*
G75*
G02*
X2624310Y4203630I0J-30000D01*
G01*
Y4083630D01*
G75*
G02*
X2594310Y4053630I-30000J0D01*
G01*
X2512310D01*
G75*
G02*
X2482310Y4083630I0J30000D01*
G01*
Y4203630D01*
G75*
G02*
X2512310Y4233630I30000J0D01*
G01*
X2594310D01*
X2758310Y1016630D02*
G75*
G02*
X2788310Y986630I0J-30000D01*
G01*
Y904630D01*
G75*
G02*
X2758310Y874630I-30000J0D01*
G01*
X2638310D01*
G75*
G02*
X2608310Y904630I0J30000D01*
G01*
Y986630D01*
G75*
G02*
X2638310Y1016630I30000J0D01*
G01*
X2758310D01*
X2508310Y4748630D02*
G75*
G02*
X2638310I65000J0D01*
G01*
G75*
G02*
X2508310I-65000J0D01*
G01*
Y4903630D02*
G75*
G02*
X2638310I65000J0D01*
G01*
G75*
G02*
X2508310I-65000J0D01*
G01*
X2638310Y4898630D02*
G75*
G02*
X2768310I65000J0D01*
G01*
G75*
G02*
X2638310I-65000J0D01*
G01*
X2641350Y4748630D02*
G75*
G02*
X2771350I65000J0D01*
G01*
G75*
G02*
X2641350I-65000J0D01*
G01*
X2662310Y1136350D02*
G75*
G03*
X2688310Y1106620I30000J0D01*
G01*
Y1086350D01*
X2684050D01*
G75*
G02*
X2642310Y1128090I0J41740D01*
G01*
Y1151350D01*
X2662310D01*
Y1136350D01*
X2684050Y1266350D02*
X2688310D01*
Y1246080D01*
G75*
G03*
X2662310Y1216350I4000J-29730D01*
G01*
Y1201350D01*
X2642310D01*
Y1224610D01*
G75*
G02*
X2684050Y1266350I41740J0D01*
G01*
X2764310Y1151350D02*
X2784310D01*
Y1128090D01*
G75*
G02*
X2742570Y1086350I-41740J0D01*
G01*
X2738310D01*
Y1106620D01*
G75*
G03*
X2764310Y1136350I-4000J29730D01*
G01*
Y1151350D01*
X2742570Y1266350D02*
G75*
G02*
X2784310Y1224610I0J-41740D01*
G01*
Y1201350D01*
X2764310D01*
Y1216350D01*
G75*
G03*
X2738310Y1246080I-30000J0D01*
G01*
Y1266350D01*
X2742570D01*
X2508310Y5043630D02*
G75*
G02*
X2638310I65000J0D01*
G01*
G75*
G02*
X2508310I-65000J0D01*
G01*
Y5183630D02*
G75*
G02*
X2638310I65000J0D01*
G01*
G75*
G02*
X2508310I-65000J0D01*
G01*
Y5323630D02*
G75*
G02*
X2638310I65000J0D01*
G01*
G75*
G02*
X2508310I-65000J0D01*
G01*
X2755810Y6519630D02*
G75*
G02*
X2785810Y6489630I0J-30000D01*
G01*
Y6407630D01*
G75*
G02*
X2755810Y6377630I-30000J0D01*
G01*
X2635810D01*
G75*
G02*
X2605810Y6407630I0J30000D01*
G01*
Y6489630D01*
G75*
G02*
X2635810Y6519630I30000J0D01*
G01*
X2755810D01*
X2773310Y4748630D02*
G75*
G02*
X2903310I65000J0D01*
G01*
G75*
G02*
X2773310I-65000J0D01*
G01*
X2794750Y432550D02*
X3037950D01*
Y240150D01*
X2794750D01*
Y432550D01*
Y686550D02*
X3037950D01*
Y494150D01*
X2794750D01*
Y686550D01*
X2773310Y4898630D02*
G75*
G02*
X2903310I65000J0D01*
G01*
G75*
G02*
X2773310I-65000J0D01*
G01*
X2778310Y5043630D02*
G75*
G02*
X2908310I65000J0D01*
G01*
G75*
G02*
X2778310I-65000J0D01*
G01*
X2908310Y4748630D02*
G75*
G02*
X3038310I65000J0D01*
G01*
G75*
G02*
X2908310I-65000J0D01*
G01*
X3163310Y4773630D02*
G75*
G02*
X3288310Y4748630I60000J-25000D01*
G01*
G75*
G02*
X3163310Y4723630I-65000J0D01*
G01*
G75*
G02*
X3038310Y4748630I-60000J25000D01*
G01*
G75*
G02*
X3163310Y4773630I65000J0D01*
G01*
X3196810Y2071130D02*
G75*
G02*
X3226810Y2041130I0J-30000D01*
G01*
Y1921130D01*
G75*
G02*
X3196810Y1891130I-30000J0D01*
G01*
X3114810D01*
G75*
G02*
X3084810Y1921130I0J30000D01*
G01*
Y2041130D01*
G75*
G02*
X3114810Y2071130I30000J0D01*
G01*
X3196810D01*
X3152310Y1136350D02*
G75*
G03*
X3178310Y1106620I30000J0D01*
G01*
Y1086350D01*
X3174050D01*
G75*
G02*
X3132310Y1128090I0J41740D01*
G01*
Y1151350D01*
X3152310D01*
Y1136350D01*
X3174050Y1266350D02*
X3178310D01*
Y1246080D01*
G75*
G03*
X3152310Y1216350I4000J-29730D01*
G01*
Y1201350D01*
X3132310D01*
Y1224610D01*
G75*
G02*
X3174050Y1266350I41740J0D01*
G01*
X3196810Y2466130D02*
G75*
G02*
X3226810Y2436130I0J-30000D01*
G01*
Y2316130D01*
G75*
G02*
X3196810Y2286130I-30000J0D01*
G01*
X3114810D01*
G75*
G02*
X3084810Y2316130I0J30000D01*
G01*
Y2436130D01*
G75*
G02*
X3114810Y2466130I30000J0D01*
G01*
X3196810D01*
X3201810Y3243630D02*
G75*
G02*
X3231810Y3213630I0J-30000D01*
G01*
Y3093630D01*
G75*
G02*
X3201810Y3063630I-30000J0D01*
G01*
X3119810D01*
G75*
G02*
X3089810Y3093630I0J30000D01*
G01*
Y3213630D01*
G75*
G02*
X3119810Y3243630I30000J0D01*
G01*
X3201810D01*
X3254310Y1151350D02*
X3274310D01*
Y1128090D01*
G75*
G02*
X3232570Y1086350I-41740J0D01*
G01*
X3228310D01*
Y1106620D01*
G75*
G03*
X3254310Y1136350I-4000J29730D01*
G01*
Y1151350D01*
X3232570Y1266350D02*
G75*
G02*
X3274310Y1224610I0J-41740D01*
G01*
Y1201350D01*
X3254310D01*
Y1216350D01*
G75*
G03*
X3228310Y1246080I-30000J0D01*
G01*
Y1266350D01*
X3232570D01*
X3204310Y3623630D02*
G75*
G02*
X3234310Y3593630I0J-30000D01*
G01*
Y3473630D01*
G75*
G02*
X3204310Y3443630I-30000J0D01*
G01*
X3122310D01*
G75*
G02*
X3092310Y3473630I0J30000D01*
G01*
Y3593630D01*
G75*
G02*
X3122310Y3623630I30000J0D01*
G01*
X3204310D01*
X3119640Y4520590D02*
X3312040D01*
Y4328190D01*
X3119640D01*
Y4520590D01*
X2908310Y4898630D02*
G75*
G02*
X3038310I65000J0D01*
G01*
G75*
G02*
X2908310I-65000J0D01*
G01*
X3163310Y4923630D02*
G75*
G02*
X3288310Y4898630I60000J-25000D01*
G01*
G75*
G02*
X3163310Y4873630I-65000J0D01*
G01*
G75*
G02*
X3038310Y4898630I-60000J25000D01*
G01*
G75*
G02*
X3163310Y4923630I65000J0D01*
G01*
X2641350Y5043630D02*
G75*
G02*
X2771350I65000J0D01*
G01*
G75*
G02*
X2641350I-65000J0D01*
G01*
Y5183630D02*
G75*
G02*
X2771350I65000J0D01*
G01*
G75*
G02*
X2641350I-65000J0D01*
G01*
Y5323630D02*
G75*
G02*
X2771350I65000J0D01*
G01*
G75*
G02*
X2641350I-65000J0D01*
G01*
X2750840Y7351160D02*
G75*
G02*
X2755230Y7340550I-10630J-10610D01*
G01*
G75*
G02*
X2750840Y7329940I-15020J0D01*
G01*
X2707000Y7286100D01*
G75*
G02*
X2685780I-10610J10630D01*
G01*
X2615780Y7356100D01*
G75*
G02*
X2611390Y7366710I10630J10610D01*
G01*
G75*
G02*
X2615780Y7377320I15020J0D01*
G01*
X2659620Y7421160D01*
G75*
G02*
X2680840I10610J-10630D01*
G01*
X2750840Y7351160D01*
X2807810Y7057130D02*
G75*
G02*
X2822810Y7042140I0J-14990D01*
G01*
G75*
G02*
Y7042130I-13020J0D01*
G01*
Y6980130D01*
G75*
G02*
Y6980120I-13020J0D01*
G01*
G75*
G02*
X2807810Y6965130I-15000J0D01*
G01*
X2708810D01*
G75*
G02*
X2693810Y6980120I0J14990D01*
G01*
G75*
G02*
Y6980130I13020J10D01*
G01*
Y7042130D01*
G75*
G02*
Y7042140I13020J10D01*
G01*
G75*
G02*
X2708810Y7057130I15000J0D01*
G01*
X2807810D01*
X2812810Y6830630D02*
G75*
G02*
X2827810Y6815640I0J-14990D01*
G01*
G75*
G02*
Y6815630I-13020J0D01*
G01*
Y6753630D01*
G75*
G02*
Y6753620I-13020J0D01*
G01*
G75*
G02*
X2812810Y6738630I-15000J0D01*
G01*
X2713810D01*
G75*
G02*
X2698810Y6753620I0J14990D01*
G01*
G75*
G02*
Y6753630I13020J10D01*
G01*
Y6815630D01*
G75*
G02*
Y6815640I13020J10D01*
G01*
G75*
G02*
X2713810Y6830630I15000J0D01*
G01*
X2812810D01*
X2771950Y7527270D02*
G75*
G02*
X2776340Y7516660I-10630J-10610D01*
G01*
G75*
G02*
X2771950Y7506050I-15020J0D01*
G01*
X2728110Y7462210D01*
G75*
G02*
X2706890I-10610J10630D01*
G01*
X2636890Y7532210D01*
G75*
G02*
X2632500Y7542820I10630J10610D01*
G01*
G75*
G02*
X2636890Y7553430I15020J0D01*
G01*
X2680730Y7597270D01*
G75*
G02*
X2701950I10610J-10630D01*
G01*
X2771950Y7527270D01*
X2935010Y7998630D02*
G75*
G02*
X2965010Y7968630I0J-30000D01*
G01*
Y7848630D01*
G75*
G02*
X2935010Y7818630I-30000J0D01*
G01*
X2853010D01*
G75*
G02*
X2823010Y7848630I0J30000D01*
G01*
Y7968630D01*
G75*
G02*
X2853010Y7998630I30000J0D01*
G01*
X2935010D01*
X2908310Y5048630D02*
G75*
G02*
X3038310I65000J0D01*
G01*
G75*
G02*
X2908310I-65000J0D01*
G01*
X3163310Y5073630D02*
G75*
G02*
X3288310Y5048630I60000J-25000D01*
G01*
G75*
G02*
X3163310Y5023630I-65000J0D01*
G01*
G75*
G02*
X3038310Y5048630I-60000J25000D01*
G01*
G75*
G02*
X3163310Y5073630I65000J0D01*
G01*
X3124310Y6678130D02*
G75*
G02*
X3139310Y6663140I0J-14990D01*
G01*
G75*
G02*
Y6663130I-13020J0D01*
G01*
Y6564130D01*
G75*
G02*
Y6564120I-13020J0D01*
G01*
G75*
G02*
X3124310Y6549130I-15000J0D01*
G01*
X3062310D01*
G75*
G02*
X3047310Y6564120I0J14990D01*
G01*
G75*
G02*
Y6564130I13020J10D01*
G01*
Y6663130D01*
G75*
G02*
Y6663140I13020J10D01*
G01*
G75*
G02*
X3062310Y6678130I15000J0D01*
G01*
X3124310D01*
X3289310Y7398130D02*
G75*
G02*
X3304310Y7383140I0J-14990D01*
G01*
G75*
G02*
Y7383130I-13020J0D01*
G01*
Y7284130D01*
G75*
G02*
Y7284120I-13020J0D01*
G01*
G75*
G02*
X3289310Y7269130I-15000J0D01*
G01*
X3227310D01*
G75*
G02*
X3212310Y7284120I0J14990D01*
G01*
G75*
G02*
Y7284130I13020J10D01*
G01*
Y7383130D01*
G75*
G02*
Y7383140I13020J10D01*
G01*
G75*
G02*
X3227310Y7398130I15000J0D01*
G01*
X3289310D01*
X3354310Y7135630D02*
G75*
G02*
X3369310Y7120640I0J-14990D01*
G01*
G75*
G02*
Y7120630I-13020J0D01*
G01*
Y7021630D01*
G75*
G02*
Y7021620I-13020J0D01*
G01*
G75*
G02*
X3354310Y7006630I-15000J0D01*
G01*
X3292310D01*
G75*
G02*
X3277310Y7021620I0J14990D01*
G01*
G75*
G02*
Y7021630I13020J10D01*
G01*
Y7120630D01*
G75*
G02*
Y7120640I13020J10D01*
G01*
G75*
G02*
X3292310Y7135630I15000J0D01*
G01*
X3354310D01*
X3339310Y7823630D02*
G75*
G02*
X3369310Y7793630I0J-30000D01*
G01*
Y7673630D01*
G75*
G02*
X3339310Y7643630I-30000J0D01*
G01*
X3257310D01*
G75*
G02*
X3227310Y7673630I0J30000D01*
G01*
Y7793630D01*
G75*
G02*
X3257310Y7823630I30000J0D01*
G01*
X3339310D01*
X3474310Y5655630D02*
G75*
G02*
X3489310Y5640640I0J-14990D01*
G01*
G75*
G02*
Y5640630I-13020J0D01*
G01*
Y5541630D01*
G75*
G02*
Y5541620I-13020J0D01*
G01*
G75*
G02*
X3474310Y5526630I-15000J0D01*
G01*
X3412310D01*
G75*
G02*
X3397310Y5541620I0J14990D01*
G01*
G75*
G02*
Y5541630I13020J10D01*
G01*
Y5640630D01*
G75*
G02*
Y5640640I13020J10D01*
G01*
G75*
G02*
X3412310Y5655630I15000J0D01*
G01*
X3474310D01*
X3596810Y778630D02*
G75*
G02*
X3626810Y748630I0J-30000D01*
G01*
Y628630D01*
G75*
G02*
X3596810Y598630I-30000J0D01*
G01*
X3514810D01*
G75*
G02*
X3484810Y628630I0J30000D01*
G01*
Y748630D01*
G75*
G02*
X3514810Y778630I30000J0D01*
G01*
X3596810D01*
X3437310Y7328630D02*
G75*
G03*
X3463310Y7298900I30000J0D01*
G01*
Y7278630D01*
X3459050D01*
G75*
G02*
X3417310Y7320370I0J41740D01*
G01*
Y7343630D01*
X3437310D01*
Y7328630D01*
X3459050Y7458630D02*
X3463310D01*
Y7438360D01*
G75*
G03*
X3437310Y7408630I4000J-29730D01*
G01*
Y7393630D01*
X3417310D01*
Y7416890D01*
G75*
G02*
X3459050Y7458630I41740J0D01*
G01*
X3579310Y5680630D02*
G75*
G02*
X3594310Y5665640I0J-14990D01*
G01*
G75*
G02*
Y5665630I-13020J0D01*
G01*
Y5566630D01*
G75*
G02*
Y5566620I-13020J0D01*
G01*
G75*
G02*
X3579310Y5551630I-15000J0D01*
G01*
X3517310D01*
G75*
G02*
X3502310Y5566620I0J14990D01*
G01*
G75*
G02*
Y5566630I13020J10D01*
G01*
Y5665630D01*
G75*
G02*
Y5665640I13020J10D01*
G01*
G75*
G02*
X3517310Y5680630I15000J0D01*
G01*
X3579310D01*
X3615810Y8378630D02*
G75*
G02*
X3725810Y8268630I0J-110000D01*
G01*
G75*
G02*
X3615810Y8158630I-110000J0D01*
G01*
G75*
G02*
X3505810Y8268630I0J110000D01*
G01*
G75*
G02*
X3615810Y8378630I110000J0D01*
G01*
X3798310Y5989630D02*
G75*
G02*
X3828310Y5959630I0J-30000D01*
G01*
Y5877630D01*
G75*
G02*
X3798310Y5847630I-30000J0D01*
G01*
X3678310D01*
G75*
G02*
X3648310Y5877630I0J30000D01*
G01*
Y5959630D01*
G75*
G02*
X3678310Y5989630I30000J0D01*
G01*
X3798310D01*
X3926810Y3033630D02*
G75*
G02*
X3956810Y3003630I0J-30000D01*
G01*
Y2883630D01*
G75*
G02*
X3926810Y2853630I-30000J0D01*
G01*
X3844810D01*
G75*
G02*
X3814810Y2883630I0J30000D01*
G01*
Y3003630D01*
G75*
G02*
X3844810Y3033630I30000J0D01*
G01*
X3926810D01*
X3967310Y943630D02*
G75*
G03*
X3993310Y913900I30000J0D01*
G01*
Y893630D01*
X3989050D01*
G75*
G02*
X3947310Y935370I0J41740D01*
G01*
Y958630D01*
X3967310D01*
Y943630D01*
X3989050Y1073630D02*
X3993310D01*
Y1053360D01*
G75*
G03*
X3967310Y1023630I4000J-29730D01*
G01*
Y1008630D01*
X3947310D01*
Y1031890D01*
G75*
G02*
X3989050Y1073630I41740J0D01*
G01*
X4059310Y2046130D02*
G75*
G02*
X4089310Y2016130I0J-30000D01*
G01*
Y1896130D01*
G75*
G02*
X4059310Y1866130I-30000J0D01*
G01*
X3977310D01*
G75*
G02*
X3947310Y1896130I0J30000D01*
G01*
Y2016130D01*
G75*
G02*
X3977310Y2046130I30000J0D01*
G01*
X4059310D01*
X4069310Y958630D02*
X4089310D01*
Y935370D01*
G75*
G02*
X4047570Y893630I-41740J0D01*
G01*
X4043310D01*
Y913900D01*
G75*
G03*
X4069310Y943630I-4000J29730D01*
G01*
Y958630D01*
X4055440Y436510D02*
X4247840D01*
Y244110D01*
X4055440D01*
Y436510D01*
X4047570Y1073630D02*
G75*
G02*
X4089310Y1031890I0J-41740D01*
G01*
Y1008630D01*
X4069310D01*
Y1023630D01*
G75*
G03*
X4043310Y1053360I-30000J0D01*
G01*
Y1073630D01*
X4047570D01*
X3776010Y3531130D02*
G75*
G02*
X3806010Y3501130I0J-30000D01*
G01*
Y3381130D01*
G75*
G02*
X3776010Y3351130I-30000J0D01*
G01*
X3694010D01*
G75*
G02*
X3664010Y3381130I0J30000D01*
G01*
Y3501130D01*
G75*
G02*
X3694010Y3531130I30000J0D01*
G01*
X3776010D01*
X3777010Y4221130D02*
G75*
G02*
X3807010Y4191130I0J-30000D01*
G01*
Y4071130D01*
G75*
G02*
X3777010Y4041130I-30000J0D01*
G01*
X3695010D01*
G75*
G02*
X3665010Y4071130I0J30000D01*
G01*
Y4191130D01*
G75*
G02*
X3695010Y4221130I30000J0D01*
G01*
X3777010D01*
X3539310Y7343630D02*
X3559310D01*
Y7320370D01*
G75*
G02*
X3517570Y7278630I-41740J0D01*
G01*
X3513310D01*
Y7298900D01*
G75*
G03*
X3539310Y7328630I-4000J29730D01*
G01*
Y7343630D01*
X3517570Y7458630D02*
G75*
G02*
X3559310Y7416890I0J-41740D01*
G01*
Y7393630D01*
X3539310D01*
Y7408630D01*
G75*
G03*
X3513310Y7438360I-30000J0D01*
G01*
Y7458630D01*
X3517570D01*
X3615810Y8632630D02*
G75*
G02*
X3725810Y8522630I0J-110000D01*
G01*
G75*
G02*
X3615810Y8412630I-110000J0D01*
G01*
G75*
G02*
X3505810Y8522630I0J110000D01*
G01*
G75*
G02*
X3615810Y8632630I110000J0D01*
G01*
X3852810Y6347130D02*
G75*
G02*
X3867810Y6332140I0J-14990D01*
G01*
G75*
G02*
Y6332130I-13020J0D01*
G01*
Y6270130D01*
G75*
G02*
Y6270120I-13020J0D01*
G01*
G75*
G02*
X3852810Y6255130I-15000J0D01*
G01*
X3753810D01*
G75*
G02*
X3738810Y6270120I0J14990D01*
G01*
G75*
G02*
Y6270130I13020J10D01*
G01*
Y6332130D01*
G75*
G02*
Y6332140I13020J10D01*
G01*
G75*
G02*
X3753810Y6347130I15000J0D01*
G01*
X3852810D01*
X3869810Y8378630D02*
G75*
G02*
X3979810Y8268630I0J-110000D01*
G01*
G75*
G02*
X3869810Y8158630I-110000J0D01*
G01*
G75*
G02*
X3759810Y8268630I0J110000D01*
G01*
G75*
G02*
X3869810Y8378630I110000J0D01*
G01*
X4030840Y7858660D02*
G75*
G02*
X4035230Y7848050I-10630J-10610D01*
G01*
G75*
G02*
X4030840Y7837440I-15020J0D01*
G01*
X3987000Y7793600D01*
G75*
G02*
X3965780I-10610J10630D01*
G01*
X3895780Y7863600D01*
G75*
G02*
X3891390Y7874210I10630J10610D01*
G01*
G75*
G02*
X3895780Y7884820I15020J0D01*
G01*
X3939620Y7928660D01*
G75*
G02*
X3960840I10610J-10630D01*
G01*
X4030840Y7858660D01*
X4014310Y3416130D02*
X4034310D01*
Y3392870D01*
G75*
G02*
X3992570Y3351130I-41740J0D01*
G01*
X3988310D01*
Y3371400D01*
G75*
G03*
X4014310Y3401130I-4000J29730D01*
G01*
Y3416130D01*
X3992570Y3531130D02*
G75*
G02*
X4034310Y3489390I0J-41740D01*
G01*
Y3466130D01*
X4014310D01*
Y3481130D01*
G75*
G03*
X3988310Y3510860I-30000J0D01*
G01*
Y3531130D01*
X3992570D01*
X4016810Y3973630D02*
X4036810D01*
Y3950370D01*
G75*
G02*
X3995070Y3908630I-41740J0D01*
G01*
X3990810D01*
Y3928900D01*
G75*
G03*
X4016810Y3958630I-4000J29730D01*
G01*
Y3973630D01*
X3995070Y4088630D02*
G75*
G02*
X4036810Y4046890I0J-41740D01*
G01*
Y4023630D01*
X4016810D01*
Y4038630D01*
G75*
G03*
X3990810Y4068360I-30000J0D01*
G01*
Y4088630D01*
X3995070D01*
X3912310Y3401130D02*
G75*
G03*
X3938310Y3371400I30000J0D01*
G01*
Y3351130D01*
X3934050D01*
G75*
G02*
X3892310Y3392870I0J41740D01*
G01*
Y3416130D01*
X3912310D01*
Y3401130D01*
X3934050Y3531130D02*
X3938310D01*
Y3510860D01*
G75*
G03*
X3912310Y3481130I4000J-29730D01*
G01*
Y3466130D01*
X3892310D01*
Y3489390D01*
G75*
G02*
X3934050Y3531130I41740J0D01*
G01*
X3914810Y3958630D02*
G75*
G03*
X3940810Y3928900I30000J0D01*
G01*
Y3908630D01*
X3936550D01*
G75*
G02*
X3894810Y3950370I0J41740D01*
G01*
Y3973630D01*
X3914810D01*
Y3958630D01*
X3936550Y4088630D02*
X3940810D01*
Y4068360D01*
G75*
G03*
X3914810Y4038630I4000J-29730D01*
G01*
Y4023630D01*
X3894810D01*
Y4046890D01*
G75*
G02*
X3936550Y4088630I41740J0D01*
G01*
X3869810Y8632630D02*
G75*
G02*
X3979810Y8522630I0J-110000D01*
G01*
G75*
G02*
X3869810Y8412630I-110000J0D01*
G01*
G75*
G02*
X3759810Y8522630I0J110000D01*
G01*
G75*
G02*
X3869810Y8632630I110000J0D01*
G01*
X4123810Y8378630D02*
G75*
G02*
X4233810Y8268630I0J-110000D01*
G01*
G75*
G02*
X4123810Y8158630I-110000J0D01*
G01*
G75*
G02*
X4013810Y8268630I0J110000D01*
G01*
G75*
G02*
X4123810Y8378630I110000J0D01*
G01*
X4281810Y7893130D02*
G75*
G02*
X4296810Y7878140I0J-14990D01*
G01*
G75*
G02*
Y7878130I-13020J0D01*
G01*
Y7779130D01*
G75*
G02*
Y7779120I-13020J0D01*
G01*
G75*
G02*
X4281810Y7764130I-15000J0D01*
G01*
X4219810D01*
G75*
G02*
X4204810Y7779120I0J14990D01*
G01*
G75*
G02*
Y7779130I13020J10D01*
G01*
Y7878130D01*
G75*
G02*
Y7878140I13020J10D01*
G01*
G75*
G02*
X4219810Y7893130I15000J0D01*
G01*
X4281810D01*
X4336810Y6408630D02*
G75*
G02*
X4366810Y6378630I0J-30000D01*
G01*
Y6258630D01*
G75*
G02*
X4336810Y6228630I-30000J0D01*
G01*
X4254810D01*
G75*
G02*
X4224810Y6258630I0J30000D01*
G01*
Y6378630D01*
G75*
G02*
X4254810Y6408630I30000J0D01*
G01*
X4336810D01*
X4389310Y2356130D02*
G75*
G02*
X4419310Y2326130I0J-30000D01*
G01*
Y2206130D01*
G75*
G02*
X4389310Y2176130I-30000J0D01*
G01*
X4307310D01*
G75*
G02*
X4277310Y2206130I0J30000D01*
G01*
Y2326130D01*
G75*
G02*
X4307310Y2356130I30000J0D01*
G01*
X4389310D01*
X4313610Y439830D02*
X4506010D01*
Y247430D01*
X4313610D01*
Y439830D01*
X4365540Y5331130D02*
X4385810D01*
Y5326870D01*
G75*
G02*
X4344070Y5285130I-41740J0D01*
G01*
X4320810D01*
Y5305130D01*
X4335810D01*
G75*
G03*
X4365540Y5331130I0J30000D01*
G01*
X4344070Y5427130D02*
G75*
G02*
X4385810Y5385390I0J-41740D01*
G01*
Y5381130D01*
X4365540D01*
G75*
G03*
X4335810Y5407130I-29730J-4000D01*
G01*
X4320810D01*
Y5427130D01*
X4344070D01*
X4255810Y5305130D02*
X4270810D01*
Y5285130D01*
X4247550D01*
G75*
G02*
X4205810Y5326870I0J41740D01*
G01*
Y5331130D01*
X4226080D01*
G75*
G03*
X4255810Y5305130I29730J4000D01*
G01*
X4247550Y5427130D02*
X4270810D01*
Y5407130D01*
X4255810D01*
G75*
G03*
X4226080Y5381130I0J-30000D01*
G01*
X4205810D01*
Y5385390D01*
G75*
G02*
X4247550Y5427130I41740J0D01*
G01*
X4123810Y8632630D02*
G75*
G02*
X4233810Y8522630I0J-110000D01*
G01*
G75*
G02*
X4123810Y8412630I-110000J0D01*
G01*
G75*
G02*
X4013810Y8522630I0J110000D01*
G01*
G75*
G02*
X4123810Y8632630I110000J0D01*
G01*
X4377810Y8378630D02*
G75*
G02*
X4487810Y8268630I0J-110000D01*
G01*
G75*
G02*
X4377810Y8158630I-110000J0D01*
G01*
G75*
G02*
X4267810Y8268630I0J110000D01*
G01*
G75*
G02*
X4377810Y8378630I110000J0D01*
G01*
X4476810Y5855630D02*
G75*
G02*
X4491810Y5840640I0J-14990D01*
G01*
G75*
G02*
Y5840630I-13020J0D01*
G01*
Y5741630D01*
G75*
G02*
Y5741620I-13020J0D01*
G01*
G75*
G02*
X4476810Y5726630I-15000J0D01*
G01*
X4414810D01*
G75*
G02*
X4399810Y5741620I0J14990D01*
G01*
G75*
G02*
Y5741630I13020J10D01*
G01*
Y5840630D01*
G75*
G02*
Y5840640I13020J10D01*
G01*
G75*
G02*
X4414810Y5855630I15000J0D01*
G01*
X4476810D01*
X4691810Y2443130D02*
G75*
G02*
X4706810Y2428140I0J-14990D01*
G01*
G75*
G02*
Y2428130I-13020J0D01*
G01*
Y2329130D01*
G75*
G02*
Y2329120I-13020J0D01*
G01*
G75*
G02*
X4691810Y2314130I-15000J0D01*
G01*
X4629810D01*
G75*
G02*
X4614810Y2329120I0J14990D01*
G01*
G75*
G02*
Y2329130I13020J10D01*
G01*
Y2399130D01*
X4559810D01*
G75*
G02*
X4544810Y2414120I0J14990D01*
G01*
G75*
G02*
Y2414130I13020J10D01*
G01*
Y2486630D01*
X4489810D01*
G75*
G02*
X4474810Y2501620I0J14990D01*
G01*
G75*
G02*
Y2501630I13020J10D01*
G01*
Y2600630D01*
G75*
G02*
Y2600640I13020J10D01*
G01*
G75*
G02*
X4489810Y2615630I15000J0D01*
G01*
X4551810D01*
G75*
G02*
X4566810Y2600640I0J-14990D01*
G01*
G75*
G02*
Y2600630I-13020J0D01*
G01*
Y2528130D01*
X4621810D01*
G75*
G02*
X4636810Y2513140I0J-14990D01*
G01*
G75*
G02*
Y2513130I-13020J0D01*
G01*
Y2443130D01*
X4691810D01*
X4676810Y2041130D02*
X4696810D01*
Y2017870D01*
G75*
G02*
X4655070Y1976130I-41740J0D01*
G01*
X4650810D01*
Y1996400D01*
G75*
G03*
X4676810Y2026130I-4000J29730D01*
G01*
Y2041130D01*
X4740010Y318630D02*
X4760010D01*
Y247430D01*
X4688810D01*
Y267430D01*
X4740010D01*
Y318630D01*
X4688810Y439830D02*
X4760010D01*
Y368630D01*
X4740010D01*
Y419830D01*
X4688810D01*
Y439830D01*
X4655070Y2156130D02*
G75*
G02*
X4696810Y2114390I0J-41740D01*
G01*
Y2091130D01*
X4676810D01*
Y2106130D01*
G75*
G03*
X4650810Y2135860I-30000J0D01*
G01*
Y2156130D01*
X4655070D01*
X4574810Y2026130D02*
G75*
G03*
X4600810Y1996400I30000J0D01*
G01*
Y1976130D01*
X4596550D01*
G75*
G02*
X4554810Y2017870I0J41740D01*
G01*
Y2041130D01*
X4574810D01*
Y2026130D01*
X4587610Y267430D02*
X4638810D01*
Y247430D01*
X4567610D01*
Y318630D01*
X4587610D01*
Y267430D01*
X4567610Y439830D02*
X4638810D01*
Y419830D01*
X4587610D01*
Y368630D01*
X4567610D01*
Y439830D01*
X4596550Y2156130D02*
X4600810D01*
Y2135860D01*
G75*
G03*
X4574810Y2106130I4000J-29730D01*
G01*
Y2091130D01*
X4554810D01*
Y2114390D01*
G75*
G02*
X4596550Y2156130I41740J0D01*
G01*
X4551810Y6448130D02*
G75*
G02*
X4566810Y6433140I0J-14990D01*
G01*
G75*
G02*
Y6433130I-13020J0D01*
G01*
Y6334130D01*
G75*
G02*
Y6334120I-13020J0D01*
G01*
G75*
G02*
X4551810Y6319130I-15000J0D01*
G01*
X4489810D01*
G75*
G02*
X4474810Y6334120I0J14990D01*
G01*
G75*
G02*
Y6334130I13020J10D01*
G01*
Y6433130D01*
G75*
G02*
Y6433140I13020J10D01*
G01*
G75*
G02*
X4489810Y6448130I15000J0D01*
G01*
X4551810D01*
X4691810Y6360630D02*
G75*
G02*
X4706810Y6345640I0J-14990D01*
G01*
G75*
G02*
Y6345630I-13020J0D01*
G01*
Y6246630D01*
G75*
G02*
Y6246620I-13020J0D01*
G01*
G75*
G02*
X4691810Y6231630I-15000J0D01*
G01*
X4641810D01*
Y6159130D01*
G75*
G02*
Y6159120I-13020J0D01*
G01*
G75*
G02*
X4626810Y6144130I-15000J0D01*
G01*
X4564810D01*
G75*
G02*
X4549810Y6159120I0J14990D01*
G01*
G75*
G02*
Y6159130I13020J10D01*
G01*
Y6258130D01*
G75*
G02*
Y6258140I13020J10D01*
G01*
G75*
G02*
X4564810Y6273130I15000J0D01*
G01*
X4614810D01*
Y6345630D01*
G75*
G02*
Y6345640I13020J10D01*
G01*
G75*
G02*
X4629810Y6360630I15000J0D01*
G01*
X4691810D01*
X4377810Y8632630D02*
G75*
G02*
X4487810Y8522630I0J-110000D01*
G01*
G75*
G02*
X4377810Y8412630I-110000J0D01*
G01*
G75*
G02*
X4267810Y8522630I0J110000D01*
G01*
G75*
G02*
X4377810Y8632630I110000J0D01*
G01*
X4631810Y8378630D02*
G75*
G02*
X4741810Y8268630I0J-110000D01*
G01*
G75*
G02*
X4631810Y8158630I-110000J0D01*
G01*
G75*
G02*
X4521810Y8268630I0J110000D01*
G01*
G75*
G02*
X4631810Y8378630I110000J0D01*
G01*
X4791810Y7408130D02*
G75*
G02*
X4806810Y7393140I0J-14990D01*
G01*
G75*
G02*
Y7393130I-13020J0D01*
G01*
Y7294130D01*
G75*
G02*
Y7294120I-13020J0D01*
G01*
G75*
G02*
X4791810Y7279130I-15000J0D01*
G01*
X4729810D01*
G75*
G02*
X4714810Y7294120I0J14990D01*
G01*
G75*
G02*
Y7294130I13020J10D01*
G01*
Y7393130D01*
G75*
G02*
Y7393140I13020J10D01*
G01*
G75*
G02*
X4729810Y7408130I15000J0D01*
G01*
X4791810D01*
X4943340Y7066160D02*
G75*
G02*
X4947730Y7055550I-10630J-10610D01*
G01*
G75*
G02*
X4943340Y7044940I-15020J0D01*
G01*
X4899500Y7001100D01*
G75*
G02*
X4878280I-10610J10630D01*
G01*
X4808280Y7071100D01*
G75*
G02*
X4803890Y7081710I10630J10610D01*
G01*
G75*
G02*
X4808280Y7092320I15020J0D01*
G01*
X4852120Y7136160D01*
G75*
G02*
X4873340I10610J-10630D01*
G01*
X4943340Y7066160D01*
X5010840Y6868660D02*
G75*
G02*
X5015230Y6858050I-10630J-10610D01*
G01*
G75*
G02*
X5010840Y6847440I-15020J0D01*
G01*
X4967000Y6803600D01*
G75*
G02*
X4945780I-10610J10630D01*
G01*
X4875780Y6873600D01*
G75*
G02*
X4871390Y6884210I10630J10610D01*
G01*
G75*
G02*
X4875780Y6894820I15020J0D01*
G01*
X4919620Y6938660D01*
G75*
G02*
X4940840I10610J-10630D01*
G01*
X5010840Y6868660D01*
X5079310Y6538130D02*
G75*
G02*
X5094310Y6523140I0J-14990D01*
G01*
G75*
G02*
Y6523130I-13020J0D01*
G01*
Y6424130D01*
G75*
G02*
Y6424120I-13020J0D01*
G01*
G75*
G02*
X5079310Y6409130I-15000J0D01*
G01*
X5017310D01*
G75*
G02*
X5002310Y6424120I0J14990D01*
G01*
G75*
G02*
Y6424130I13020J10D01*
G01*
Y6523130D01*
G75*
G02*
Y6523140I13020J10D01*
G01*
G75*
G02*
X5017310Y6538130I15000J0D01*
G01*
X5079310D01*
X5011810Y3455630D02*
G75*
G02*
X5026810Y3440640I0J-14990D01*
G01*
G75*
G02*
Y3440630I-13020J0D01*
G01*
Y3341630D01*
G75*
G02*
Y3341620I-13020J0D01*
G01*
G75*
G02*
X5011810Y3326630I-15000J0D01*
G01*
X4949810D01*
G75*
G02*
X4934810Y3341620I0J14990D01*
G01*
G75*
G02*
Y3341630I13020J10D01*
G01*
Y3440630D01*
G75*
G02*
Y3440640I13020J10D01*
G01*
G75*
G02*
X4949810Y3455630I15000J0D01*
G01*
X5011810D01*
X5092810Y3264630D02*
G75*
G02*
X5107810Y3249640I0J-14990D01*
G01*
G75*
G02*
Y3249630I-13020J0D01*
G01*
Y3187630D01*
G75*
G02*
Y3187620I-13020J0D01*
G01*
G75*
G02*
X5106860Y3182380I-15000J10D01*
G01*
G75*
G02*
X5107810Y3177140I-14050J-5250D01*
G01*
G75*
G02*
Y3177130I-13020J0D01*
G01*
Y3115130D01*
G75*
G02*
Y3115120I-13020J0D01*
G01*
G75*
G02*
X5092810Y3100130I-15000J0D01*
G01*
X4993810D01*
G75*
G02*
X4978810Y3115120I0J14990D01*
G01*
G75*
G02*
Y3115130I13020J10D01*
G01*
Y3177130D01*
G75*
G02*
Y3177140I13020J10D01*
G01*
G75*
G02*
X4979760Y3182380I15000J-10D01*
G01*
G75*
G02*
X4978810Y3187620I14050J5250D01*
G01*
G75*
G02*
Y3187630I13020J10D01*
G01*
Y3249630D01*
G75*
G02*
Y3249640I13020J10D01*
G01*
G75*
G02*
X4993810Y3264630I15000J0D01*
G01*
X5092810D01*
X5235310Y2742130D02*
G75*
G02*
X5250310Y2727140I0J-14990D01*
G01*
G75*
G02*
Y2727130I-13020J0D01*
G01*
Y2665130D01*
G75*
G02*
Y2665120I-13020J0D01*
G01*
G75*
G02*
X5235310Y2650130I-15000J0D01*
G01*
X5136310D01*
G75*
G02*
X5121310Y2665120I0J14990D01*
G01*
G75*
G02*
Y2665130I13020J10D01*
G01*
Y2727130D01*
G75*
G02*
Y2727140I13020J10D01*
G01*
G75*
G02*
X5125590Y2737630I14990J0D01*
G01*
X5033810D01*
G75*
G02*
X5018810Y2752620I0J14990D01*
G01*
G75*
G02*
Y2752630I13020J10D01*
G01*
Y2814630D01*
G75*
G02*
Y2814640I13020J10D01*
G01*
G75*
G02*
X5024610Y2826490I14990J10D01*
G01*
G75*
G02*
X5021930Y2833630I23420J12860D01*
G01*
X5050920D01*
G75*
G03*
X5056310Y2832630I5370J13920D01*
G01*
X5060810D01*
Y2829630D01*
X5110810D01*
Y2832630D01*
X5115310D01*
G75*
G03*
X5120700Y2833630I20J14920D01*
G01*
X5132310D01*
Y2872630D01*
G75*
G02*
Y2872640I13020J10D01*
G01*
G75*
G02*
X5137100Y2883630I14990J10D01*
G01*
X5120700D01*
G75*
G03*
X5115310Y2884630I-5370J-13920D01*
G01*
X5110810D01*
Y2892630D01*
X5060810D01*
Y2884630D01*
X5056310D01*
G75*
G03*
X5050920Y2883630I-20J-14920D01*
G01*
X5021930D01*
G75*
G02*
X5031570Y2898950I26110J-5740D01*
G01*
G75*
G02*
X5028810Y2907620I12230J8670D01*
G01*
G75*
G02*
Y2907630I13020J10D01*
G01*
Y2969630D01*
G75*
G02*
Y2969640I13020J10D01*
G01*
G75*
G02*
X5033800Y2980810I14990J0D01*
G01*
G75*
G02*
X5026930Y2993630I19240J18560D01*
G01*
X5055920D01*
G75*
G03*
X5061310Y2992630I5370J13920D01*
G01*
X5065810D01*
Y2984630D01*
X5115810D01*
Y2992630D01*
X5120310D01*
G75*
G03*
X5125700Y2993630I20J14920D01*
G01*
X5154690D01*
G75*
G02*
X5149690Y2982960I-26120J5730D01*
G01*
G75*
G02*
X5157810Y2969640I-6870J-13320D01*
G01*
G75*
G02*
Y2969630I-13020J0D01*
G01*
Y2907630D01*
G75*
G02*
Y2907620I-13020J0D01*
G01*
G75*
G02*
X5145700Y2892910I-14990J0D01*
G01*
G75*
G02*
X5148480Y2887630I-22130J-15020D01*
G01*
X5209310D01*
G75*
G02*
X5224310Y2872640I0J-14990D01*
G01*
G75*
G02*
Y2872630I-13020J0D01*
G01*
Y2773630D01*
G75*
G02*
Y2773620I-13020J0D01*
G01*
G75*
G02*
X5209310Y2758630I-15000J0D01*
G01*
X5147810D01*
Y2752630D01*
G75*
G02*
Y2752620I-13020J0D01*
G01*
G75*
G02*
X5143530Y2742130I-14990J0D01*
G01*
X5235310D01*
X5240310Y2609130D02*
G75*
G02*
X5255310Y2594140I0J-14990D01*
G01*
G75*
G02*
Y2594130I-13020J0D01*
G01*
Y2532130D01*
G75*
G02*
Y2532120I-13020J0D01*
G01*
G75*
G02*
X5240310Y2517130I-15000J0D01*
G01*
X5141310D01*
G75*
G02*
X5126310Y2532120I0J14990D01*
G01*
G75*
G02*
Y2532130I13020J10D01*
G01*
Y2594130D01*
G75*
G02*
Y2594140I13020J10D01*
G01*
G75*
G02*
X5141310Y2609130I15000J0D01*
G01*
X5240310D01*
X5075610Y439830D02*
X5268010D01*
Y247430D01*
X5075610D01*
Y439830D01*
X5196810Y2151130D02*
G75*
G02*
X5226810Y2121130I0J-30000D01*
G01*
Y2001130D01*
G75*
G02*
X5196810Y1971130I-30000J0D01*
G01*
X5114810D01*
G75*
G02*
X5084810Y2001130I0J30000D01*
G01*
Y2121130D01*
G75*
G02*
X5114810Y2151130I30000J0D01*
G01*
X5196810D01*
X5053050Y3064630D02*
X5065810D01*
Y3044630D01*
X5061310D01*
G75*
G03*
X5055920Y3043630I-20J-14920D01*
G01*
X5026930D01*
G75*
G02*
X5053050Y3064630I26110J-5740D01*
G01*
X4884010Y2403130D02*
G75*
G02*
X4899010Y2388140I0J-14990D01*
G01*
G75*
G02*
Y2388130I-13020J0D01*
G01*
Y2289130D01*
G75*
G02*
Y2289120I-13020J0D01*
G01*
G75*
G02*
X4884010Y2274130I-15000J0D01*
G01*
X4822010D01*
G75*
G02*
X4807010Y2289120I0J14990D01*
G01*
G75*
G02*
Y2289130I13020J10D01*
G01*
Y2388130D01*
G75*
G02*
Y2388140I13020J10D01*
G01*
G75*
G02*
X4822010Y2403130I15000J0D01*
G01*
X4884010D01*
X4821610Y439830D02*
X5014010D01*
Y247430D01*
X4821610D01*
Y439830D01*
X4791810Y7793130D02*
G75*
G02*
X4806810Y7778140I0J-14990D01*
G01*
G75*
G02*
Y7778130I-13020J0D01*
G01*
Y7679130D01*
G75*
G02*
Y7679120I-13020J0D01*
G01*
G75*
G02*
X4791810Y7664130I-15000J0D01*
G01*
X4729810D01*
G75*
G02*
X4714810Y7679120I0J14990D01*
G01*
G75*
G02*
Y7679130I13020J10D01*
G01*
Y7778130D01*
G75*
G02*
Y7778140I13020J10D01*
G01*
G75*
G02*
X4729810Y7793130I15000J0D01*
G01*
X4791810D01*
X4631810Y8632630D02*
G75*
G02*
X4741810Y8522630I0J-110000D01*
G01*
G75*
G02*
X4631810Y8412630I-110000J0D01*
G01*
G75*
G02*
X4521810Y8522630I0J110000D01*
G01*
G75*
G02*
X4631810Y8632630I110000J0D01*
G01*
X4885810Y8378630D02*
G75*
G02*
X4995810Y8268630I0J-110000D01*
G01*
G75*
G02*
X4885810Y8158630I-110000J0D01*
G01*
G75*
G02*
X4775810Y8268630I0J110000D01*
G01*
G75*
G02*
X4885810Y8378630I110000J0D01*
G01*
X4956810Y7640630D02*
G75*
G02*
X4971810Y7625640I0J-14990D01*
G01*
G75*
G02*
Y7625630I-13020J0D01*
G01*
Y7526630D01*
G75*
G02*
Y7526620I-13020J0D01*
G01*
G75*
G02*
X4956810Y7511630I-15000J0D01*
G01*
X4894810D01*
G75*
G02*
X4879810Y7526620I0J14990D01*
G01*
G75*
G02*
Y7526630I13020J10D01*
G01*
Y7625630D01*
G75*
G02*
Y7625640I13020J10D01*
G01*
G75*
G02*
X4894810Y7640630I15000J0D01*
G01*
X4956810D01*
X4885810Y8632630D02*
G75*
G02*
X4995810Y8522630I0J-110000D01*
G01*
G75*
G02*
X4885810Y8412630I-110000J0D01*
G01*
G75*
G02*
X4775810Y8522630I0J110000D01*
G01*
G75*
G02*
X4885810Y8632630I110000J0D01*
G01*
X5139810Y8378630D02*
G75*
G02*
X5249810Y8268630I0J-110000D01*
G01*
G75*
G02*
X5139810Y8158630I-110000J0D01*
G01*
G75*
G02*
X5029810Y8268630I0J110000D01*
G01*
G75*
G02*
X5139810Y8378630I110000J0D01*
G01*
X5274310Y3050630D02*
G75*
G02*
X5289310Y3035640I0J-14990D01*
G01*
G75*
G02*
Y3035630I-13020J0D01*
G01*
Y2936630D01*
G75*
G02*
Y2936620I-13020J0D01*
G01*
G75*
G02*
X5274310Y2921630I-15000J0D01*
G01*
X5212310D01*
G75*
G02*
X5197310Y2936620I0J14990D01*
G01*
G75*
G02*
Y2936630I13020J10D01*
G01*
Y3035630D01*
G75*
G02*
Y3035640I13020J10D01*
G01*
G75*
G02*
X5212310Y3050630I15000J0D01*
G01*
X5274310D01*
X5392810Y2479630D02*
G75*
G02*
X5407810Y2464640I0J-14990D01*
G01*
G75*
G02*
Y2464630I-13020J0D01*
G01*
Y2402630D01*
G75*
G02*
Y2402620I-13020J0D01*
G01*
G75*
G02*
X5392810Y2387630I-15000J0D01*
G01*
X5293810D01*
G75*
G02*
X5278810Y2402620I0J14990D01*
G01*
G75*
G02*
Y2402630I13020J10D01*
G01*
Y2464630D01*
G75*
G02*
Y2464640I13020J10D01*
G01*
G75*
G02*
X5293810Y2479630I15000J0D01*
G01*
X5392810D01*
X5329610Y439830D02*
X5522010D01*
Y247430D01*
X5329610D01*
Y439830D01*
X5456810Y2000630D02*
G75*
G02*
X5471810Y1985640I0J-14990D01*
G01*
G75*
G02*
Y1985630I-13020J0D01*
G01*
Y1886630D01*
G75*
G02*
Y1886620I-13020J0D01*
G01*
G75*
G02*
X5456810Y1871630I-15000J0D01*
G01*
X5394810D01*
G75*
G02*
X5379810Y1886620I0J14990D01*
G01*
G75*
G02*
Y1886630I13020J10D01*
G01*
Y1985630D01*
G75*
G02*
Y1985640I13020J10D01*
G01*
G75*
G02*
X5394810Y2000630I15000J0D01*
G01*
X5456810D01*
X5128570Y3064630D02*
G75*
G02*
X5154690Y3043630I10J-26740D01*
G01*
X5125700D01*
G75*
G03*
X5120310Y3044630I-5370J-13920D01*
G01*
X5115810D01*
Y3064630D01*
X5128570D01*
X5139810Y8632630D02*
G75*
G02*
X5249810Y8522630I0J-110000D01*
G01*
G75*
G02*
X5139810Y8412630I-110000J0D01*
G01*
G75*
G02*
X5029810Y8522630I0J110000D01*
G01*
G75*
G02*
X5139810Y8632630I110000J0D01*
G01*
X5370310Y4417130D02*
G75*
G02*
X5385310Y4402140I0J-14990D01*
G01*
G75*
G02*
Y4402130I-13020J0D01*
G01*
Y4340130D01*
G75*
G02*
Y4340120I-13020J0D01*
G01*
G75*
G02*
X5370310Y4325130I-15000J0D01*
G01*
X5271310D01*
G75*
G02*
X5256310Y4340120I0J14990D01*
G01*
G75*
G02*
Y4340130I13020J10D01*
G01*
Y4402130D01*
G75*
G02*
Y4402140I13020J10D01*
G01*
G75*
G02*
X5271310Y4417130I15000J0D01*
G01*
X5370310D01*
X5336810Y3510630D02*
G75*
G02*
X5351810Y3495640I0J-14990D01*
G01*
G75*
G02*
Y3495630I-13020J0D01*
G01*
Y3396630D01*
G75*
G02*
Y3396620I-13020J0D01*
G01*
G75*
G02*
X5336810Y3381630I-15000J0D01*
G01*
X5274810D01*
G75*
G02*
X5259810Y3396620I0J14990D01*
G01*
G75*
G02*
Y3396630I13020J10D01*
G01*
Y3495630D01*
G75*
G02*
Y3495640I13020J10D01*
G01*
G75*
G02*
X5274810Y3510630I15000J0D01*
G01*
X5336810D01*
X5393810Y8378630D02*
G75*
G02*
X5503810Y8268630I0J-110000D01*
G01*
G75*
G02*
X5393810Y8158630I-110000J0D01*
G01*
G75*
G02*
X5283810Y8268630I0J110000D01*
G01*
G75*
G02*
X5393810Y8378630I110000J0D01*
G01*
X5411810Y6978130D02*
G75*
G02*
X5426810Y6963140I0J-14990D01*
G01*
G75*
G02*
Y6963130I-13020J0D01*
G01*
Y6864130D01*
G75*
G02*
Y6864120I-13020J0D01*
G01*
G75*
G02*
X5411810Y6849130I-15000J0D01*
G01*
X5349810D01*
G75*
G02*
X5334810Y6864120I0J14990D01*
G01*
G75*
G02*
Y6864130I13020J10D01*
G01*
Y6963130D01*
G75*
G02*
Y6963140I13020J10D01*
G01*
G75*
G02*
X5349810Y6978130I15000J0D01*
G01*
X5411810D01*
X5434310Y5738370D02*
G75*
G02*
Y5738360I-40930J0D01*
G01*
G75*
G02*
X5413310Y5712250I-26730J0D01*
G01*
Y5741240D01*
G75*
G03*
X5414310Y5746610I-13920J5370D01*
G01*
G75*
G03*
Y5746630I-14690J10D01*
G01*
Y5751130D01*
X5434310D01*
Y5738370D01*
X5413310Y5840010D02*
G75*
G02*
X5434310Y5813900I-5730J-26110D01*
G01*
G75*
G02*
Y5813890I-40930J0D01*
G01*
Y5801130D01*
X5414310D01*
Y5805630D01*
G75*
G03*
Y5805650I-14690J10D01*
G01*
G75*
G03*
X5413310Y5811020I-14920J0D01*
G01*
Y5840010D01*
X5362310Y5746610D02*
G75*
G03*
X5363310Y5741240I14920J0D01*
G01*
Y5712250D01*
G75*
G02*
X5342310Y5738360I5730J26110D01*
G01*
G75*
G02*
Y5738370I40930J10D01*
G01*
Y5751130D01*
X5362310D01*
Y5746630D01*
G75*
G03*
Y5746610I14690J-10D01*
G01*
X5474310Y5373630D02*
G75*
G02*
X5504310Y5343630I0J-30000D01*
G01*
Y5223630D01*
G75*
G02*
X5474310Y5193630I-30000J0D01*
G01*
X5392310D01*
G75*
G02*
X5362310Y5223630I0J30000D01*
G01*
Y5343630D01*
G75*
G02*
X5392310Y5373630I30000J0D01*
G01*
X5474310D01*
X5511810Y3473130D02*
G75*
G02*
X5526810Y3458140I0J-14990D01*
G01*
G75*
G02*
Y3458130I-13020J0D01*
G01*
Y3359130D01*
G75*
G02*
Y3359120I-13020J0D01*
G01*
G75*
G02*
X5511810Y3344130I-15000J0D01*
G01*
X5449810D01*
G75*
G02*
X5434810Y3359120I0J14990D01*
G01*
G75*
G02*
Y3359130I13020J10D01*
G01*
Y3458130D01*
G75*
G02*
Y3458140I13020J10D01*
G01*
G75*
G02*
X5449810Y3473130I15000J0D01*
G01*
X5511810D01*
X5342310Y5813900D02*
G75*
G02*
X5363310Y5840010I26730J0D01*
G01*
Y5811020D01*
G75*
G03*
X5362310Y5805650I13920J-5370D01*
G01*
G75*
G03*
Y5805630I14690J-10D01*
G01*
Y5801130D01*
X5342310D01*
Y5813890D01*
G75*
G02*
Y5813900I40930J10D01*
G01*
X5393810Y8632630D02*
G75*
G02*
X5503810Y8522630I0J-110000D01*
G01*
G75*
G02*
X5393810Y8412630I-110000J0D01*
G01*
G75*
G02*
X5283810Y8522630I0J110000D01*
G01*
G75*
G02*
X5393810Y8632630I110000J0D01*
G01*
X5547110Y962330D02*
X5739510D01*
Y769930D01*
X5547110D01*
Y962330D01*
Y1216330D02*
X5739510D01*
Y1023930D01*
X5547110D01*
Y1216330D01*
X5700810Y1862130D02*
G75*
G02*
X5730810Y1832130I0J-30000D01*
G01*
Y1750130D01*
G75*
G02*
X5700810Y1720130I-30000J0D01*
G01*
X5580810D01*
G75*
G02*
X5550810Y1750130I0J30000D01*
G01*
Y1832130D01*
G75*
G02*
X5580810Y1862130I30000J0D01*
G01*
X5700810D01*
X5639310Y3448130D02*
G75*
G02*
X5654310Y3433140I0J-14990D01*
G01*
G75*
G02*
Y3433130I-13020J0D01*
G01*
Y3334130D01*
G75*
G02*
Y3334120I-13020J0D01*
G01*
G75*
G02*
X5639310Y3319130I-15000J0D01*
G01*
X5577310D01*
G75*
G02*
X5562310Y3334120I0J14990D01*
G01*
G75*
G02*
Y3334130I13020J10D01*
G01*
Y3433130D01*
G75*
G02*
Y3433140I13020J10D01*
G01*
G75*
G02*
X5577310Y3448130I15000J0D01*
G01*
X5639310D01*
X5747810Y3262130D02*
G75*
G02*
X5762810Y3247140I0J-14990D01*
G01*
G75*
G02*
Y3247130I-13020J0D01*
G01*
Y3185130D01*
G75*
G02*
Y3185120I-13020J0D01*
G01*
G75*
G02*
X5747810Y3170130I-15000J0D01*
G01*
X5648810D01*
G75*
G02*
X5633810Y3185120I0J14990D01*
G01*
G75*
G02*
Y3185130I13020J10D01*
G01*
Y3247130D01*
G75*
G02*
Y3247140I13020J10D01*
G01*
G75*
G02*
X5648810Y3262130I15000J0D01*
G01*
X5747810D01*
X5804050Y2958630D02*
X5808310D01*
Y2938360D01*
G75*
G03*
X5782310Y2908630I4000J-29730D01*
G01*
Y2893630D01*
X5762310D01*
Y2894360D01*
G75*
G02*
X5755310Y2892630I-6990J13260D01*
G01*
X5656310D01*
G75*
G02*
X5641310Y2907620I0J14990D01*
G01*
G75*
G02*
Y2907630I13020J10D01*
G01*
Y2969630D01*
G75*
G02*
Y2969640I13020J10D01*
G01*
G75*
G02*
X5656310Y2984630I15000J0D01*
G01*
X5658820D01*
G75*
G02*
X5651310Y2997620I7480J12990D01*
G01*
G75*
G02*
Y2997630I13020J10D01*
G01*
Y3059630D01*
G75*
G02*
Y3059640I13020J10D01*
G01*
G75*
G02*
X5666310Y3074630I15000J0D01*
G01*
X5765310D01*
G75*
G02*
X5780310Y3059640I0J-14990D01*
G01*
G75*
G02*
Y3059630I-13020J0D01*
G01*
Y2997630D01*
G75*
G02*
Y2997620I-13020J0D01*
G01*
G75*
G02*
X5765310Y2982630I-15000J0D01*
G01*
X5762800D01*
G75*
G02*
X5770310Y2969640I-7480J-12990D01*
G01*
G75*
G02*
Y2969630I-13020J0D01*
G01*
Y2941450D01*
G75*
G02*
X5804050Y2958630I33760J-24580D01*
G01*
X5782310Y2828630D02*
G75*
G03*
X5808310Y2798900I30000J0D01*
G01*
Y2778630D01*
X5804050D01*
G75*
G02*
X5762310Y2820370I0J41740D01*
G01*
Y2843630D01*
X5782310D01*
Y2828630D01*
X5756810Y2565630D02*
G75*
G02*
X5771810Y2550640I0J-14990D01*
G01*
G75*
G02*
Y2550630I-13020J0D01*
G01*
Y2451630D01*
G75*
G02*
Y2451620I-13020J0D01*
G01*
G75*
G02*
X5756810Y2436630I-15000J0D01*
G01*
X5694810D01*
G75*
G02*
X5679810Y2451620I0J14990D01*
G01*
G75*
G02*
Y2451630I13020J10D01*
G01*
Y2550630D01*
G75*
G02*
Y2550640I13020J10D01*
G01*
G75*
G02*
X5694810Y2565630I15000J0D01*
G01*
X5756810D01*
X5841810Y2753630D02*
G75*
G02*
X5871810Y2723630I0J-30000D01*
G01*
Y2603630D01*
G75*
G02*
X5841810Y2573630I-30000J0D01*
G01*
X5759810D01*
G75*
G02*
X5729810Y2603630I0J30000D01*
G01*
Y2723630D01*
G75*
G02*
X5759810Y2753630I30000J0D01*
G01*
X5841810D01*
X5657310Y4013860D02*
G75*
G03*
X5658310Y4008490I14920J0D01*
G01*
Y3979500D01*
G75*
G02*
X5637310Y4005610I5730J26110D01*
G01*
G75*
G02*
Y4005620I40930J10D01*
G01*
Y4018380D01*
X5657310D01*
Y4013880D01*
G75*
G03*
Y4013860I14690J-10D01*
G01*
X5637310Y4081150D02*
G75*
G02*
X5658310Y4107260I26730J0D01*
G01*
Y4078270D01*
G75*
G03*
X5657310Y4072900I13920J-5370D01*
G01*
G75*
G03*
Y4072880I14690J-10D01*
G01*
Y4068380D01*
X5637310D01*
Y4081140D01*
G75*
G02*
Y4081150I40930J10D01*
G01*
X5775310Y7172130D02*
G75*
G02*
X5790310Y7157140I0J-14990D01*
G01*
G75*
G02*
Y7157130I-13020J0D01*
G01*
Y7095130D01*
G75*
G02*
Y7095120I-13020J0D01*
G01*
G75*
G02*
X5775310Y7080130I-15000J0D01*
G01*
X5676310D01*
G75*
G02*
X5661310Y7095120I0J14990D01*
G01*
G75*
G02*
Y7095130I13020J10D01*
G01*
Y7157130D01*
G75*
G02*
Y7157140I13020J10D01*
G01*
G75*
G02*
X5676310Y7172130I15000J0D01*
G01*
X5775310D01*
X5785310Y6954630D02*
G75*
G02*
X5800310Y6939640I0J-14990D01*
G01*
G75*
G02*
Y6939630I-13020J0D01*
G01*
Y6877630D01*
G75*
G02*
Y6877620I-13020J0D01*
G01*
G75*
G02*
X5785310Y6862630I-15000J0D01*
G01*
X5686310D01*
G75*
G02*
X5671310Y6877620I0J14990D01*
G01*
G75*
G02*
Y6877630I13020J10D01*
G01*
Y6939630D01*
G75*
G02*
Y6939640I13020J10D01*
G01*
G75*
G02*
X5686310Y6954630I15000J0D01*
G01*
X5785310D01*
X5825810Y4542130D02*
G75*
G02*
X5855810Y4512130I0J-30000D01*
G01*
Y4430130D01*
G75*
G02*
X5825810Y4400130I-30000J0D01*
G01*
X5705810D01*
G75*
G02*
X5675810Y4430130I0J30000D01*
G01*
Y4512130D01*
G75*
G02*
X5705810Y4542130I30000J0D01*
G01*
X5825810D01*
X5729310Y4005620D02*
G75*
G02*
Y4005610I-40930J0D01*
G01*
G75*
G02*
X5708310Y3979500I-26730J0D01*
G01*
Y4008490D01*
G75*
G03*
X5709310Y4013860I-13920J5370D01*
G01*
G75*
G03*
Y4013880I-14690J10D01*
G01*
Y4018380D01*
X5729310D01*
Y4005620D01*
X5708310Y4107260D02*
G75*
G02*
X5729310Y4081150I-5730J-26110D01*
G01*
G75*
G02*
Y4081140I-40930J0D01*
G01*
Y4068380D01*
X5709310D01*
Y4072880D01*
G75*
G03*
Y4072900I-14690J10D01*
G01*
G75*
G03*
X5708310Y4078270I-14920J0D01*
G01*
Y4107260D01*
X5876810Y3583130D02*
G75*
G02*
X5891810Y3568140I0J-14990D01*
G01*
G75*
G02*
Y3568130I-13020J0D01*
G01*
Y3469130D01*
G75*
G02*
Y3469120I-13020J0D01*
G01*
G75*
G02*
X5876810Y3454130I-15000J0D01*
G01*
X5824310D01*
Y3361630D01*
G75*
G02*
Y3361620I-13020J0D01*
G01*
G75*
G02*
X5809310Y3346630I-15000J0D01*
G01*
X5747310D01*
G75*
G02*
X5732310Y3361620I0J14990D01*
G01*
G75*
G02*
Y3361630I13020J10D01*
G01*
Y3460630D01*
G75*
G02*
Y3460640I13020J10D01*
G01*
G75*
G02*
X5747310Y3475630I15000J0D01*
G01*
X5799810D01*
Y3568130D01*
G75*
G02*
Y3568140I13020J10D01*
G01*
G75*
G02*
X5814810Y3583130I15000J0D01*
G01*
X5876810D01*
X5884310Y2843630D02*
X5904310D01*
Y2820370D01*
G75*
G02*
X5862570Y2778630I-41740J0D01*
G01*
X5858310D01*
Y2798900D01*
G75*
G03*
X5884310Y2828630I-4000J29730D01*
G01*
Y2843630D01*
X5891350Y881350D02*
G75*
G02*
X6081350I95000J0D01*
G01*
G75*
G02*
X5891350I-95000J0D01*
G01*
Y1531350D02*
G75*
G02*
X6081350I95000J0D01*
G01*
G75*
G02*
X5891350I-95000J0D01*
G01*
X5862570Y2958630D02*
G75*
G02*
X5904310Y2916890I0J-41740D01*
G01*
Y2893630D01*
X5884310D01*
Y2908630D01*
G75*
G03*
X5858310Y2938360I-30000J0D01*
G01*
Y2958630D01*
X5862570D01*
X5936810Y3280630D02*
G75*
G02*
X5951810Y3265640I0J-14990D01*
G01*
G75*
G02*
Y3265630I-13020J0D01*
G01*
Y3166630D01*
G75*
G02*
Y3166620I-13020J0D01*
G01*
G75*
G02*
X5936810Y3151630I-15000J0D01*
G01*
X5874810D01*
G75*
G02*
X5859810Y3166620I0J14990D01*
G01*
G75*
G02*
Y3166630I13020J10D01*
G01*
Y3265630D01*
G75*
G02*
Y3265640I13020J10D01*
G01*
G75*
G02*
X5874810Y3280630I15000J0D01*
G01*
X5936810D01*
X5823340Y5903660D02*
G75*
G02*
X5827730Y5893050I-10630J-10610D01*
G01*
G75*
G02*
X5823340Y5882440I-15020J0D01*
G01*
X5791480Y5850580D01*
G75*
G02*
X5806810Y5826400I-11400J-24180D01*
G01*
G75*
G02*
Y5826390I-40930J0D01*
G01*
Y5813630D01*
X5786810D01*
Y5818130D01*
G75*
G03*
Y5818150I-14690J10D01*
G01*
G75*
G03*
X5785810Y5823520I-14920J0D01*
G01*
Y5844910D01*
X5779500Y5838600D01*
G75*
G02*
X5758280I-10610J10630D01*
G01*
X5688280Y5908600D01*
G75*
G02*
X5683890Y5919210I10630J10610D01*
G01*
G75*
G02*
X5688280Y5929820I15020J0D01*
G01*
X5732120Y5973660D01*
G75*
G02*
X5753340I10610J-10630D01*
G01*
X5823340Y5903660D01*
X5806810Y5750870D02*
G75*
G02*
Y5750860I-40930J0D01*
G01*
G75*
G02*
X5785810Y5724750I-26730J0D01*
G01*
Y5753740D01*
G75*
G03*
X5786810Y5759110I-13920J5370D01*
G01*
G75*
G03*
Y5759130I-14690J10D01*
G01*
Y5763630D01*
X5806810D01*
Y5750870D01*
X5734810Y5759110D02*
G75*
G03*
X5735810Y5753740I14920J0D01*
G01*
Y5724750D01*
G75*
G02*
X5714810Y5750860I5730J26110D01*
G01*
G75*
G02*
Y5750870I40930J10D01*
G01*
Y5763630D01*
X5734810D01*
Y5759130D01*
G75*
G03*
Y5759110I14690J-10D01*
G01*
X5714810Y5826400D02*
G75*
G02*
X5735810Y5852510I26730J0D01*
G01*
Y5823520D01*
G75*
G03*
X5734810Y5818150I13920J-5370D01*
G01*
G75*
G03*
Y5818130I14690J-10D01*
G01*
Y5813630D01*
X5714810D01*
Y5826390D01*
G75*
G02*
Y5826400I40930J10D01*
G01*
X5926810Y5710630D02*
G75*
G02*
X5941810Y5695640I0J-14990D01*
G01*
G75*
G02*
Y5695630I-13020J0D01*
G01*
Y5596630D01*
G75*
G02*
Y5596620I-13020J0D01*
G01*
G75*
G02*
X5926810Y5581630I-15000J0D01*
G01*
X5864810D01*
G75*
G02*
X5849810Y5596620I0J14990D01*
G01*
G75*
G02*
Y5596630I13020J10D01*
G01*
Y5695630D01*
G75*
G02*
Y5695640I13020J10D01*
G01*
G75*
G02*
X5864810Y5710630I15000J0D01*
G01*
X5926810D01*
Y5978130D02*
G75*
G02*
X5941810Y5963140I0J-14990D01*
G01*
G75*
G02*
Y5963130I-13020J0D01*
G01*
Y5864130D01*
G75*
G02*
Y5864120I-13020J0D01*
G01*
G75*
G02*
X5926810Y5849130I-15000J0D01*
G01*
X5864810D01*
G75*
G02*
X5849810Y5864120I0J14990D01*
G01*
G75*
G02*
Y5864130I13020J10D01*
G01*
Y5963130D01*
G75*
G02*
Y5963140I13020J10D01*
G01*
G75*
G02*
X5864810Y5978130I15000J0D01*
G01*
X5926810D01*
X6164310Y7328630D02*
G75*
G02*
X6194310Y7298630I0J-30000D01*
G01*
Y7178630D01*
G75*
G02*
X6164310Y7148630I-30000J0D01*
G01*
X6082310D01*
G75*
G02*
X6052310Y7178630I0J30000D01*
G01*
Y7298630D01*
G75*
G02*
X6082310Y7328630I30000J0D01*
G01*
X6164310D01*
X6628310Y588630D02*
G75*
G02*
X6728310Y488630I0J-100000D01*
G01*
Y148630D01*
G75*
G02*
X6628310Y48630I-100000J0D01*
G01*
X6288310D01*
G75*
G02*
X6188310Y148630I0J100000D01*
G01*
Y488630D01*
G75*
G02*
X6288310Y588630I100000J0D01*
G01*
X6628310D01*
X528310Y4446110D02*
G75*
G02*
X628810Y4413630I45000J-32480D01*
G01*
G75*
G02*
X611780Y4373630I-55500J0D01*
G01*
G75*
G02*
X628810Y4333630I-38470J-40000D01*
G01*
G75*
G02*
X611780Y4293630I-55500J0D01*
G01*
G75*
G02*
X628810Y4253630I-38470J-40000D01*
G01*
G75*
G02*
X611780Y4213630I-55500J0D01*
G01*
G75*
G02*
X628810Y4173630I-38470J-40000D01*
G01*
G75*
G02*
X611780Y4133630I-55500J0D01*
G01*
G75*
G02*
X628810Y4093630I-38470J-40000D01*
G01*
G75*
G02*
X528310Y4061150I-55500J0D01*
G01*
G75*
G02*
X427810Y4093630I-45000J32480D01*
G01*
G75*
G02*
X444840Y4133630I55500J0D01*
G01*
G75*
G02*
X427810Y4173630I38470J40000D01*
G01*
G75*
G02*
X444840Y4213630I55500J0D01*
G01*
G75*
G02*
X427810Y4253630I38470J40000D01*
G01*
G75*
G02*
X444840Y4293630I55500J0D01*
G01*
G75*
G02*
X427810Y4333630I38470J40000D01*
G01*
G75*
G02*
X444840Y4373630I55500J0D01*
G01*
G75*
G02*
X427810Y4413630I38470J40000D01*
G01*
G75*
G02*
X528310Y4446110I55500J0D01*
G01*
X656810Y3708630D02*
G75*
G02*
X686810Y3678630I0J-30000D01*
G01*
Y3558630D01*
G75*
G02*
X656810Y3528630I-30000J0D01*
G01*
X574810D01*
G75*
G02*
X544810Y3558630I0J30000D01*
G01*
Y3678630D01*
G75*
G02*
X574810Y3708630I30000J0D01*
G01*
X656810D01*
X498310Y1184630D02*
G75*
G02*
X778310I140000J0D01*
G01*
G75*
G02*
X498310I-140000J0D01*
G01*
Y1692630D02*
G75*
G02*
X778310I140000J0D01*
G01*
G75*
G02*
X498310I-140000J0D01*
G01*
Y2200630D02*
G75*
G02*
X778310I140000J0D01*
G01*
G75*
G02*
X498310I-140000J0D01*
G01*
Y2848630D02*
X778310D01*
Y2568630D01*
X498310D01*
Y2848630D01*
X488310Y588630D02*
G75*
G02*
X588310Y488630I0J-100000D01*
G01*
Y148630D01*
G75*
G02*
X488310Y48630I-100000J0D01*
G01*
X148310D01*
G75*
G02*
X48310Y148630I0J100000D01*
G01*
Y488630D01*
G75*
G02*
X148310Y588630I100000J0D01*
G01*
X488310D01*
X32700Y283030D02*
G36*
X32700Y283030D02*
Y156350D01*
G75*
G03*
X156350Y32700I123650J0D01*
G01*
X6606350D01*
G75*
G03*
X6730000Y156350I0J123650D01*
G01*
Y283030D01*
X6728310D01*
Y148630D01*
G75*
G02*
X6628310Y48630I-100000J0D01*
G01*
X6288310D01*
G75*
G02*
X6188310Y148630I0J100000D01*
G01*
Y283030D01*
X5522010D01*
Y247430D01*
X5329610D01*
Y283030D01*
X5268010D01*
Y247430D01*
X5075610D01*
Y283030D01*
X5014010D01*
Y247430D01*
X4821610D01*
Y283030D01*
X4760010D01*
Y247430D01*
X4688810D01*
Y267430D01*
X4740010D01*
Y283030D01*
X4587610D01*
Y267430D01*
X4638810D01*
Y247430D01*
X4567610D01*
Y283030D01*
X4506010D01*
Y247430D01*
X4313610D01*
Y283030D01*
X4247840D01*
Y244110D01*
X4055440D01*
Y283030D01*
X3037950D01*
Y240150D01*
X2794750D01*
Y283030D01*
X2437950D01*
Y240150D01*
X2194750D01*
Y283030D01*
X1645500D01*
G75*
G02*
X1593310Y265330I-52190J68100D01*
G01*
G75*
G02*
X1541120Y283030I0J85800D01*
G01*
X1140500D01*
G75*
G02*
X1088310Y265330I-52190J68100D01*
G01*
G75*
G02*
X1036120Y283030I0J85800D01*
G01*
X588310D01*
Y148630D01*
G75*
G02*
X488310Y48630I-100000J0D01*
G01*
X148310D01*
G75*
G02*
X48310Y148630I0J100000D01*
G01*
Y283030D01*
X32700D01*
G37*
Y351130D02*
G36*
X32700Y351130D02*
Y283030D01*
X48310D01*
Y351130D01*
X32700D01*
G37*
X588310D02*
G36*
X588310Y351130D02*
Y283030D01*
X1036120D01*
G75*
G02*
X1002510Y351130I52190J68100D01*
G01*
X588310D01*
G37*
X1174110D02*
G36*
X1174110Y351130D02*
G75*
G02*
X1140500Y283030I-85800J0D01*
G01*
X1541120D01*
G75*
G02*
X1507510Y351130I52190J68100D01*
G01*
X1174110D01*
G37*
X1679110D02*
G36*
X1679110Y351130D02*
G75*
G02*
X1645500Y283030I-85800J0D01*
G01*
X2194750D01*
Y351130D01*
X1679110D01*
G37*
X2437950D02*
G36*
X2437950Y351130D02*
Y283030D01*
X2794750D01*
Y351130D01*
X2437950D01*
G37*
X3037950D02*
G36*
X3037950Y351130D02*
Y283030D01*
X4055440D01*
Y351130D01*
X3037950D01*
G37*
X4247840D02*
G36*
X4247840Y351130D02*
Y283030D01*
X4313610D01*
Y351130D01*
X4247840D01*
G37*
X4506010D02*
G36*
X4506010Y351130D02*
Y283030D01*
X4567610D01*
Y318630D01*
X4587610D01*
Y283030D01*
X4740010D01*
Y318630D01*
X4760010D01*
Y283030D01*
X4821610D01*
Y351130D01*
X4506010D01*
G37*
X5014010D02*
G36*
X5014010Y351130D02*
Y283030D01*
X5075610D01*
Y351130D01*
X5014010D01*
G37*
X5268010D02*
G36*
X5268010Y351130D02*
Y283030D01*
X5329610D01*
Y351130D01*
X5268010D01*
G37*
X5522010D02*
G36*
X5522010Y351130D02*
Y283030D01*
X6188310D01*
Y351130D01*
X5522010D01*
G37*
X6728310D02*
G36*
X6728310Y351130D02*
Y283030D01*
X6730000D01*
Y351130D01*
X6728310D01*
G37*
X32700Y404230D02*
G36*
X32700Y404230D02*
Y351130D01*
X48310D01*
Y404230D01*
X32700D01*
G37*
X588310D02*
G36*
X588310Y404230D02*
Y351130D01*
X1002510D01*
G75*
G02*
X1020910Y404230I85800J10D01*
G01*
X588310D01*
G37*
X1174110Y351130D02*
G36*
X1174110Y351130D02*
X1507510D01*
G75*
G02*
X1525910Y404230I85800J10D01*
G01*
X1155710D01*
G75*
G02*
X1174110Y351130I-67400J-53090D01*
G01*
G37*
X1679110D02*
G36*
X1679110Y351130D02*
X2194750D01*
Y404230D01*
X1660710D01*
G75*
G02*
X1679110Y351130I-67400J-53090D01*
G01*
G37*
X2437950Y404230D02*
G36*
X2437950Y404230D02*
Y351130D01*
X2794750D01*
Y404230D01*
X2437950D01*
G37*
X3037950D02*
G36*
X3037950Y404230D02*
Y351130D01*
X4055440D01*
Y404230D01*
X3037950D01*
G37*
X4247840D02*
G36*
X4247840Y404230D02*
Y351130D01*
X4313610D01*
Y404230D01*
X4247840D01*
G37*
X4506010D02*
G36*
X4506010Y404230D02*
Y351130D01*
X4821610D01*
Y404230D01*
X4760010D01*
Y368630D01*
X4740010D01*
Y404230D01*
X4587610D01*
Y368630D01*
X4567610D01*
Y404230D01*
X4506010D01*
G37*
X5014010D02*
G36*
X5014010Y404230D02*
Y351130D01*
X5075610D01*
Y404230D01*
X5014010D01*
G37*
X5268010D02*
G36*
X5268010Y404230D02*
Y351130D01*
X5329610D01*
Y404230D01*
X5268010D01*
G37*
X5522010D02*
G36*
X5522010Y404230D02*
Y351130D01*
X6188310D01*
Y404230D01*
X5522010D01*
G37*
X6728310D02*
G36*
X6728310Y404230D02*
Y351130D01*
X6730000D01*
Y404230D01*
X6728310D01*
G37*
X32700Y590350D02*
G36*
X32700Y590350D02*
Y404230D01*
X48310D01*
Y488630D01*
G75*
G02*
X148310Y588630I100000J0D01*
G01*
X488310D01*
G75*
G02*
X588310Y488630I0J-100000D01*
G01*
Y404230D01*
X1020910D01*
G75*
G02*
X1088310Y436930I67400J-53100D01*
G01*
G75*
G02*
X1155710Y404230I0J-85800D01*
G01*
X1525910D01*
G75*
G02*
X1593310Y436930I67400J-53100D01*
G01*
G75*
G02*
X1660710Y404230I0J-85800D01*
G01*
X2194750D01*
Y432550D01*
X2437950D01*
Y404230D01*
X2794750D01*
Y432550D01*
X3037950D01*
Y404230D01*
X4055440D01*
Y436510D01*
X4247840D01*
Y404230D01*
X4313610D01*
Y439830D01*
X4506010D01*
Y404230D01*
X4567610D01*
Y439830D01*
X4638810D01*
Y419830D01*
X4587610D01*
Y404230D01*
X4740010D01*
Y419830D01*
X4688810D01*
Y439830D01*
X4760010D01*
Y404230D01*
X4821610D01*
Y439830D01*
X5014010D01*
Y404230D01*
X5075610D01*
Y439830D01*
X5268010D01*
Y404230D01*
X5329610D01*
Y439830D01*
X5522010D01*
Y404230D01*
X6188310D01*
Y488630D01*
G75*
G02*
X6288310Y588630I100000J0D01*
G01*
X6628310D01*
G75*
G02*
X6728310Y488630I0J-100000D01*
G01*
Y404230D01*
X6730000D01*
Y590350D01*
X3037950D01*
Y494150D01*
X2794750D01*
Y590350D01*
X2437950D01*
Y494150D01*
X2194750D01*
Y590350D01*
X32700D01*
G37*
Y731130D02*
G36*
X32700Y731130D02*
Y590350D01*
X2194750D01*
Y686550D01*
X2437950D01*
Y590350D01*
X2794750D01*
Y686550D01*
X3037950D01*
Y590350D01*
X6730000D01*
Y731130D01*
X3626810D01*
Y628630D01*
G75*
G02*
Y628620I-52090J0D01*
G01*
G75*
G02*
X3596810Y598630I-30000J0D01*
G01*
X3514810D01*
G75*
G02*
X3484810Y628620I0J29990D01*
G01*
G75*
G02*
Y628630I52090J10D01*
G01*
Y731130D01*
X1473310D01*
Y690130D01*
G75*
G02*
Y690120I-52090J0D01*
G01*
G75*
G02*
X1443310Y660130I-30000J0D01*
G01*
X1323310D01*
G75*
G02*
X1293310Y690120I0J29990D01*
G01*
G75*
G02*
Y690130I52090J10D01*
G01*
Y731130D01*
X32700D01*
G37*
Y881350D02*
G36*
X32700Y881350D02*
Y731130D01*
X1293310D01*
Y772130D01*
G75*
G02*
Y772140I52090J10D01*
G01*
G75*
G02*
X1323310Y802130I30000J0D01*
G01*
X1443310D01*
G75*
G02*
X1473310Y772140I0J-29990D01*
G01*
G75*
G02*
Y772130I-52090J0D01*
G01*
Y731130D01*
X3484810D01*
Y748630D01*
G75*
G02*
Y748640I52090J10D01*
G01*
G75*
G02*
X3514810Y778630I30000J0D01*
G01*
X3596810D01*
G75*
G02*
X3626810Y748640I0J-29990D01*
G01*
G75*
G02*
Y748630I-52090J0D01*
G01*
Y731130D01*
X6730000D01*
Y881350D01*
X6531350D01*
G75*
G02*
X6341350I-95000J0D01*
G01*
X6081350D01*
G75*
G02*
X5891350I-95000J0D01*
G01*
X5739510D01*
Y769930D01*
X5547110D01*
Y881350D01*
X2777240D01*
G75*
G02*
X2758310Y874630I-18920J23280D01*
G01*
X2638310D01*
G75*
G02*
X2619380Y881350I-10J30000D01*
G01*
X32700D01*
G37*
Y926130D02*
G36*
X32700Y926130D02*
Y881350D01*
X2619380D01*
G75*
G02*
X2608310Y904620I18920J23270D01*
G01*
G75*
G02*
Y904630I52090J10D01*
G01*
Y926130D01*
X32700D01*
G37*
X2788310D02*
G36*
X2788310Y926130D02*
Y904630D01*
G75*
G02*
Y904620I-52090J0D01*
G01*
G75*
G02*
X2777240Y881350I-29990J0D01*
G01*
X5547110D01*
Y926130D01*
X4088270D01*
G75*
G02*
X4047570Y893630I-40700J9240D01*
G01*
X4043310D01*
Y913900D01*
G75*
G03*
X4063680Y926130I-4000J29740D01*
G01*
X3972940D01*
G75*
G03*
X3993310Y913900I24370J17510D01*
G01*
Y893630D01*
X3989050D01*
G75*
G02*
X3948350Y926130I0J41740D01*
G01*
X2788310D01*
G37*
X5739510D02*
G36*
X5739510Y926130D02*
Y881350D01*
X5891350D01*
G75*
G02*
X5902570Y926130I95000J-10D01*
G01*
X5739510D01*
G37*
X6070130D02*
G36*
X6070130Y926130D02*
G75*
G02*
X6081350Y881350I-83780J-44790D01*
G01*
X6341350D01*
G75*
G02*
X6352570Y926130I95000J-10D01*
G01*
X6070130D01*
G37*
X6520130D02*
G36*
X6520130Y926130D02*
G75*
G02*
X6531350Y881350I-83780J-44790D01*
G01*
X6730000D01*
Y926130D01*
X6520130D01*
G37*
X32700Y1041130D02*
G36*
X32700Y1041130D02*
Y926130D01*
X2608310D01*
Y986630D01*
G75*
G02*
Y986640I52090J10D01*
G01*
G75*
G02*
X2638310Y1016630I30000J0D01*
G01*
X2758310D01*
G75*
G02*
X2788310Y986640I0J-29990D01*
G01*
G75*
G02*
Y986630I-52090J0D01*
G01*
Y926130D01*
X3948350D01*
G75*
G02*
X3947310Y935370I40710J9260D01*
G01*
Y958630D01*
X3967310D01*
Y943630D01*
G75*
G03*
X3972940Y926130I30000J0D01*
G01*
X4063680D01*
G75*
G03*
X4069310Y943630I-24370J17500D01*
G01*
Y958630D01*
X4089310D01*
Y935370D01*
G75*
G02*
X4088270Y926130I-41750J20D01*
G01*
X5547110D01*
Y962330D01*
X5739510D01*
Y926130D01*
X5902570D01*
G75*
G02*
X6070130I83780J-44780D01*
G01*
X6352570D01*
G75*
G02*
X6520130I83780J-44780D01*
G01*
X6730000D01*
Y1041130D01*
X5739510D01*
Y1023930D01*
X5547110D01*
Y1041130D01*
X4088270D01*
G75*
G02*
X4089310Y1031890I-40710J-9260D01*
G01*
Y1008630D01*
X4069310D01*
Y1023630D01*
G75*
G03*
X4063680Y1041130I-30000J0D01*
G01*
X3972940D01*
G75*
G03*
X3967310Y1023630I24370J-17500D01*
G01*
Y1008630D01*
X3947310D01*
Y1031890D01*
G75*
G02*
X3948350Y1041130I41750J-20D01*
G01*
X32700D01*
G37*
Y1118850D02*
G36*
X32700Y1118850D02*
Y1041130D01*
X3948350D01*
G75*
G02*
X3989050Y1073630I40700J-9240D01*
G01*
X3993310D01*
Y1053360D01*
G75*
G03*
X3972940Y1041130I4000J-29740D01*
G01*
X4063680D01*
G75*
G03*
X4043310Y1053360I-24370J-17510D01*
G01*
Y1073630D01*
X4047570D01*
G75*
G02*
X4088270Y1041130I0J-41740D01*
G01*
X5547110D01*
Y1118850D01*
X3273270D01*
G75*
G02*
X3232570Y1086350I-40700J9240D01*
G01*
X3228310D01*
Y1106620D01*
G75*
G03*
X3248680Y1118850I-4000J29740D01*
G01*
X3157940D01*
G75*
G03*
X3178310Y1106620I24370J17510D01*
G01*
Y1086350D01*
X3174050D01*
G75*
G02*
X3133350Y1118850I0J41740D01*
G01*
X2783270D01*
G75*
G02*
X2742570Y1086350I-40700J9240D01*
G01*
X2738310D01*
Y1106620D01*
G75*
G03*
X2758680Y1118850I-4000J29740D01*
G01*
X2667940D01*
G75*
G03*
X2688310Y1106620I24370J17510D01*
G01*
Y1086350D01*
X2684050D01*
G75*
G02*
X2643350Y1118850I0J41740D01*
G01*
X761890D01*
G75*
G02*
X514730I-123580J65780D01*
G01*
X32700D01*
G37*
X5739510D02*
G36*
X5739510Y1118850D02*
Y1041130D01*
X6730000D01*
Y1118850D01*
X5739510D01*
G37*
X32700Y1233850D02*
G36*
X32700Y1233850D02*
Y1118850D01*
X514730D01*
G75*
G02*
X498310Y1184630I123580J65790D01*
G01*
G75*
G02*
X507250Y1233850I140000J-10D01*
G01*
X32700D01*
G37*
X778310Y1184630D02*
G36*
X778310Y1184630D02*
G75*
G02*
X761890Y1118850I-140000J10D01*
G01*
X2643350D01*
G75*
G02*
X2642310Y1128090I40710J9260D01*
G01*
Y1151350D01*
X2662310D01*
Y1136350D01*
G75*
G03*
X2667940Y1118850I30000J0D01*
G01*
X2758680D01*
G75*
G03*
X2764310Y1136350I-24370J17500D01*
G01*
Y1151350D01*
X2784310D01*
Y1128090D01*
G75*
G02*
X2783270Y1118850I-41750J20D01*
G01*
X3133350D01*
G75*
G02*
X3132310Y1128090I40710J9260D01*
G01*
Y1151350D01*
X3152310D01*
Y1136350D01*
G75*
G03*
X3157940Y1118850I30000J0D01*
G01*
X3248680D01*
G75*
G03*
X3254310Y1136350I-24370J17500D01*
G01*
Y1151350D01*
X3274310D01*
Y1128090D01*
G75*
G02*
X3273270Y1118850I-41750J20D01*
G01*
X5547110D01*
Y1216330D01*
X5739510D01*
Y1118850D01*
X6730000D01*
Y1233850D01*
X3273270D01*
G75*
G02*
X3274310Y1224610I-40710J-9260D01*
G01*
Y1201350D01*
X3254310D01*
Y1216350D01*
G75*
G03*
X3248680Y1233850I-30000J0D01*
G01*
X3157940D01*
G75*
G03*
X3152310Y1216350I24370J-17500D01*
G01*
Y1201350D01*
X3132310D01*
Y1224610D01*
G75*
G02*
X3133350Y1233850I41750J-20D01*
G01*
X2783270D01*
G75*
G02*
X2784310Y1224610I-40710J-9260D01*
G01*
Y1201350D01*
X2764310D01*
Y1216350D01*
G75*
G03*
X2758680Y1233850I-30000J0D01*
G01*
X2667940D01*
G75*
G03*
X2662310Y1216350I24370J-17500D01*
G01*
Y1201350D01*
X2642310D01*
Y1224610D01*
G75*
G02*
X2643350Y1233850I41750J-20D01*
G01*
X769370D01*
G75*
G02*
X778310Y1184630I-131060J-49230D01*
G01*
G37*
X32700Y1531350D02*
G36*
X32700Y1531350D02*
Y1233850D01*
X507250D01*
G75*
G02*
X769370I131060J-49220D01*
G01*
X2643350D01*
G75*
G02*
X2684050Y1266350I40700J-9240D01*
G01*
X2688310D01*
Y1246080D01*
G75*
G03*
X2667940Y1233850I4000J-29740D01*
G01*
X2758680D01*
G75*
G03*
X2738310Y1246080I-24370J-17510D01*
G01*
Y1266350D01*
X2742570D01*
G75*
G02*
X2783270Y1233850I0J-41740D01*
G01*
X3133350D01*
G75*
G02*
X3174050Y1266350I40700J-9240D01*
G01*
X3178310D01*
Y1246080D01*
G75*
G03*
X3157940Y1233850I4000J-29740D01*
G01*
X3248680D01*
G75*
G03*
X3228310Y1246080I-24370J-17510D01*
G01*
Y1266350D01*
X3232570D01*
G75*
G02*
X3273270Y1233850I0J-41740D01*
G01*
X6730000D01*
Y1531350D01*
X6531350D01*
G75*
G02*
X6341350I-95000J0D01*
G01*
X6081350D01*
G75*
G02*
X5891350I-95000J0D01*
G01*
X32700D01*
G37*
Y1623630D02*
G36*
X32700Y1623630D02*
Y1531350D01*
X5891350D01*
G75*
G02*
X5963780Y1623630I95000J0D01*
G01*
X1912350D01*
Y1568630D01*
G75*
G02*
Y1568620I-52090J0D01*
G01*
G75*
G02*
X1882350Y1538630I-30000J0D01*
G01*
X1800350D01*
G75*
G02*
X1770350Y1568620I0J29990D01*
G01*
G75*
G02*
Y1568630I52090J10D01*
G01*
Y1623630D01*
X1687350D01*
Y1563630D01*
G75*
G02*
Y1563620I-52090J0D01*
G01*
G75*
G02*
X1657350Y1533630I-30000J0D01*
G01*
X1575350D01*
G75*
G02*
X1545350Y1563620I0J29990D01*
G01*
G75*
G02*
Y1563630I52090J10D01*
G01*
Y1623630D01*
X760130D01*
G75*
G02*
X516490I-121820J69000D01*
G01*
X32700D01*
G37*
X6008920D02*
G36*
X6008920Y1623630D02*
G75*
G02*
X6081350Y1531350I-22570J-92280D01*
G01*
X6341350D01*
G75*
G02*
X6413780Y1623630I95000J0D01*
G01*
X6008920D01*
G37*
X6458920D02*
G36*
X6458920Y1623630D02*
G75*
G02*
X6531350Y1531350I-22570J-92280D01*
G01*
X6730000D01*
Y1623630D01*
X6458920D01*
G37*
X32700Y1791130D02*
G36*
X32700Y1791130D02*
Y1623630D01*
X516490D01*
G75*
G02*
X498310Y1692630I121820J68990D01*
G01*
G75*
G02*
X538820Y1791130I140000J0D01*
G01*
X32700D01*
G37*
X778310Y1692630D02*
G36*
X778310Y1692630D02*
G75*
G02*
X760130Y1623630I-140000J-10D01*
G01*
X1545350D01*
Y1683630D01*
G75*
G02*
Y1683640I52090J10D01*
G01*
G75*
G02*
X1575350Y1713630I30000J0D01*
G01*
X1657350D01*
G75*
G02*
X1687350Y1683640I0J-29990D01*
G01*
G75*
G02*
Y1683630I-52090J0D01*
G01*
Y1623630D01*
X1770350D01*
Y1688630D01*
G75*
G02*
Y1688640I52090J10D01*
G01*
G75*
G02*
X1800350Y1718630I30000J0D01*
G01*
X1882350D01*
G75*
G02*
X1912350Y1688640I0J-29990D01*
G01*
G75*
G02*
Y1688630I-52090J0D01*
G01*
Y1623630D01*
X5963780D01*
G75*
G02*
X6008920I22570J-92280D01*
G01*
X6413780D01*
G75*
G02*
X6458920I22570J-92280D01*
G01*
X6730000D01*
Y1791130D01*
X5730810D01*
Y1750130D01*
G75*
G02*
Y1750120I-52090J0D01*
G01*
G75*
G02*
X5700810Y1720130I-30000J0D01*
G01*
X5580810D01*
G75*
G02*
X5550810Y1750120I0J29990D01*
G01*
G75*
G02*
Y1750130I52090J10D01*
G01*
Y1791130D01*
X737800D01*
G75*
G02*
X778310Y1692630I-99490J-98500D01*
G01*
G37*
X32700Y1981130D02*
G36*
X32700Y1981130D02*
Y1791130D01*
X538820D01*
G75*
G02*
X737800I99490J-98500D01*
G01*
X5550810D01*
Y1832130D01*
G75*
G02*
Y1832140I52090J10D01*
G01*
G75*
G02*
X5580810Y1862130I30000J0D01*
G01*
X5700810D01*
G75*
G02*
X5730810Y1832140I0J-29990D01*
G01*
G75*
G02*
Y1832130I-52090J0D01*
G01*
Y1791130D01*
X6730000D01*
Y1981130D01*
X5471810D01*
Y1886630D01*
Y1886620D01*
G75*
G02*
X5456810Y1871630I-15000J0D01*
G01*
X5394810D01*
G75*
G02*
X5379810Y1886620I0J14990D01*
G01*
Y1886630D01*
Y1981130D01*
X5219170D01*
G75*
G02*
X5196810Y1971130I-22360J19990D01*
G01*
X5114810D01*
G75*
G02*
X5092450Y1981130I0J29990D01*
G01*
X4674880D01*
G75*
G02*
X4655070Y1976130I-19810J36740D01*
G01*
X4650810D01*
Y1981130D01*
X4600810D01*
Y1976130D01*
X4596550D01*
G75*
G02*
X4576740Y1981130I0J41740D01*
G01*
X4089310D01*
Y1896130D01*
G75*
G02*
Y1896120I-52090J0D01*
G01*
G75*
G02*
X4059310Y1866130I-30000J0D01*
G01*
X3977310D01*
G75*
G02*
X3947310Y1896120I0J29990D01*
G01*
G75*
G02*
Y1896130I52090J10D01*
G01*
Y1981130D01*
X3226810D01*
Y1921130D01*
G75*
G02*
Y1921120I-52090J0D01*
G01*
G75*
G02*
X3196810Y1891130I-30000J0D01*
G01*
X3114810D01*
G75*
G02*
X3084810Y1921120I0J29990D01*
G01*
G75*
G02*
Y1921130I52090J10D01*
G01*
Y1981130D01*
X32700D01*
G37*
Y2123630D02*
G36*
X32700Y2123630D02*
Y1981130D01*
X3084810D01*
Y2041130D01*
G75*
G02*
Y2041140I52090J10D01*
G01*
G75*
G02*
X3114810Y2071130I30000J0D01*
G01*
X3196810D01*
G75*
G02*
X3226810Y2041140I0J-29990D01*
G01*
G75*
G02*
Y2041130I-52090J0D01*
G01*
Y1981130D01*
X3947310D01*
Y2016130D01*
G75*
G02*
Y2016140I52090J10D01*
G01*
G75*
G02*
X3977310Y2046130I30000J0D01*
G01*
X4059310D01*
G75*
G02*
X4089310Y2016140I0J-29990D01*
G01*
G75*
G02*
Y2016130I-52090J0D01*
G01*
Y1981130D01*
X4576740D01*
G75*
G02*
X4554810Y2017870I19810J36740D01*
G01*
Y2041130D01*
X4574810D01*
Y2026130D01*
G75*
G03*
X4600810Y1996400I30000J0D01*
G01*
Y1981130D01*
X4650810D01*
Y1996400D01*
G75*
G03*
X4676810Y2026130I-4000J29730D01*
G01*
Y2041130D01*
X4696810D01*
Y2017870D01*
G75*
G02*
X4674880Y1981130I-41740J0D01*
G01*
X5092450D01*
G75*
G02*
X5084810Y2001120I22350J20000D01*
G01*
G75*
G02*
Y2001130I52090J10D01*
G01*
Y2121130D01*
G75*
G02*
Y2121140I52090J10D01*
G01*
G75*
G02*
X5084910Y2123630I29950J40D01*
G01*
X4695770D01*
G75*
G02*
X4696810Y2114390I-40710J-9260D01*
G01*
Y2091130D01*
X4676810D01*
Y2106130D01*
G75*
G03*
X4671180Y2123630I-30000J0D01*
G01*
X4580440D01*
G75*
G03*
X4574810Y2106130I24370J-17500D01*
G01*
Y2091130D01*
X4554810D01*
Y2114390D01*
G75*
G02*
X4555850Y2123630I41750J-20D01*
G01*
X755230D01*
G75*
G02*
X521390I-116920J77000D01*
G01*
X32700D01*
G37*
X5226810Y2121130D02*
G36*
X5226810Y2121130D02*
Y2001130D01*
G75*
G02*
Y2001120I-52090J0D01*
G01*
G75*
G02*
X5219170Y1981130I-29990J10D01*
G01*
X5379810D01*
Y1985630D01*
Y1985640D01*
G75*
G02*
X5394810Y2000630I15000J0D01*
G01*
X5456810D01*
G75*
G02*
X5471810Y1985640I0J-14990D01*
G01*
Y1985630D01*
Y1981130D01*
X6730000D01*
Y2123630D01*
X5226710D01*
G75*
G02*
X5226810Y2121140I-29850J-2450D01*
G01*
G75*
G02*
Y2121130I-52090J0D01*
G01*
G37*
X32700Y2266130D02*
G36*
X32700Y2266130D02*
Y2123630D01*
X521390D01*
G75*
G02*
X498310Y2200630I116920J77010D01*
G01*
G75*
G02*
X514580Y2266130I140000J-10D01*
G01*
X32700D01*
G37*
X778310Y2200630D02*
G36*
X778310Y2200630D02*
G75*
G02*
X755230Y2123630I-140000J10D01*
G01*
X4555850D01*
G75*
G02*
X4596550Y2156130I40700J-9240D01*
G01*
X4600810D01*
Y2135860D01*
G75*
G03*
X4580440Y2123630I4000J-29740D01*
G01*
X4671180D01*
G75*
G03*
X4650810Y2135860I-24370J-17510D01*
G01*
Y2156130D01*
X4655070D01*
G75*
G02*
X4695770Y2123630I0J-41740D01*
G01*
X5084910D01*
G75*
G02*
X5114810Y2151130I29890J-2500D01*
G01*
X5196810D01*
G75*
G02*
X5226710Y2123630I10J-30000D01*
G01*
X6730000D01*
Y2266130D01*
X4419310D01*
Y2206130D01*
G75*
G02*
Y2206120I-52090J0D01*
G01*
G75*
G02*
X4389310Y2176130I-30000J0D01*
G01*
X4307310D01*
G75*
G02*
X4277310Y2206120I0J29990D01*
G01*
G75*
G02*
Y2206130I52090J10D01*
G01*
Y2266130D01*
X762040D01*
G75*
G02*
X778310Y2200630I-123730J-65510D01*
G01*
G37*
X32700Y2376130D02*
G36*
X32700Y2376130D02*
Y2266130D01*
X514580D01*
G75*
G02*
X762040I123730J-65500D01*
G01*
X4277310D01*
Y2326130D01*
G75*
G02*
Y2326140I52090J10D01*
G01*
G75*
G02*
X4307310Y2356130I30000J0D01*
G01*
X4389310D01*
G75*
G02*
X4419310Y2326140I0J-29990D01*
G01*
G75*
G02*
Y2326130I-52090J0D01*
G01*
Y2266130D01*
X6730000D01*
Y2376130D01*
X4899010D01*
Y2289130D01*
Y2289120D01*
G75*
G02*
X4884010Y2274130I-15000J0D01*
G01*
X4822010D01*
G75*
G02*
X4807010Y2289120I0J14990D01*
G01*
Y2289130D01*
Y2376130D01*
X4706810D01*
Y2329130D01*
Y2329120D01*
G75*
G02*
X4691810Y2314130I-15000J0D01*
G01*
X4629810D01*
G75*
G02*
X4614810Y2329120I0J14990D01*
G01*
Y2329130D01*
Y2376130D01*
X3226810D01*
Y2316130D01*
G75*
G02*
Y2316120I-52090J0D01*
G01*
G75*
G02*
X3196810Y2286130I-30000J0D01*
G01*
X3114810D01*
G75*
G02*
X3084810Y2316120I0J29990D01*
G01*
G75*
G02*
Y2316130I52090J10D01*
G01*
Y2376130D01*
X32700D01*
G37*
Y2433630D02*
G36*
X32700Y2433630D02*
Y2376130D01*
X3084810D01*
Y2433630D01*
X32700D01*
G37*
X3226810D02*
G36*
X3226810Y2433630D02*
Y2376130D01*
X4614810D01*
Y2399130D01*
X4559810D01*
G75*
G02*
X4544810Y2414120I0J14990D01*
G01*
Y2414130D01*
Y2433630D01*
X3226810D01*
G37*
X4706810Y2428130D02*
G36*
X4706810Y2428130D02*
Y2376130D01*
X4807010D01*
Y2388130D01*
Y2388140D01*
G75*
G02*
X4822010Y2403130I15000J0D01*
G01*
X4884010D01*
G75*
G02*
X4899010Y2388140I0J-14990D01*
G01*
Y2388130D01*
Y2376130D01*
X6730000D01*
Y2433630D01*
X5407810D01*
Y2402630D01*
Y2402620D01*
G75*
G02*
X5392810Y2387630I-15000J0D01*
G01*
X5293810D01*
G75*
G02*
X5278810Y2402620I0J14990D01*
G01*
Y2402630D01*
Y2433630D01*
X4705760D01*
G75*
G02*
X4706810Y2428140I-13960J-5510D01*
G01*
Y2428130D01*
G37*
X32700Y2563130D02*
G36*
X32700Y2563130D02*
Y2433630D01*
X3084810D01*
Y2436130D01*
G75*
G02*
Y2436140I52090J10D01*
G01*
G75*
G02*
X3114810Y2466130I30000J0D01*
G01*
X3196810D01*
G75*
G02*
X3226810Y2436140I0J-29990D01*
G01*
G75*
G02*
Y2436130I-52090J0D01*
G01*
Y2433630D01*
X4544810D01*
Y2486630D01*
X4489810D01*
G75*
G02*
X4474810Y2501620I0J14990D01*
G01*
Y2501630D01*
Y2563130D01*
X32700D01*
G37*
X4566810D02*
G36*
X4566810Y2563130D02*
Y2528130D01*
X4621810D01*
G75*
G02*
X4636810Y2513140I0J-14990D01*
G01*
Y2513130D01*
Y2443130D01*
X4691810D01*
G75*
G02*
X4705760Y2433630I-10J-15000D01*
G01*
X5278810D01*
Y2464630D01*
Y2464640D01*
G75*
G02*
X5293810Y2479630I15000J0D01*
G01*
X5392810D01*
G75*
G02*
X5407810Y2464640I0J-14990D01*
G01*
Y2464630D01*
Y2433630D01*
X6730000D01*
Y2563130D01*
X5765100D01*
G75*
G02*
X5771810Y2550640I-8290J-12500D01*
G01*
Y2550630D01*
Y2451630D01*
Y2451620D01*
G75*
G02*
X5756810Y2436630I-15000J0D01*
G01*
X5694810D01*
G75*
G02*
X5679810Y2451620I0J14990D01*
G01*
Y2451630D01*
Y2550630D01*
Y2550640D01*
G75*
G02*
X5686510Y2563130I14990J0D01*
G01*
X5255310D01*
Y2532130D01*
Y2532120D01*
G75*
G02*
X5240310Y2517130I-15000J0D01*
G01*
X5141310D01*
G75*
G02*
X5126310Y2532120I0J14990D01*
G01*
Y2532130D01*
Y2563130D01*
X4566810D01*
G37*
X32700Y2663630D02*
G36*
X32700Y2663630D02*
Y2563130D01*
X4474810D01*
Y2600630D01*
Y2600640D01*
G75*
G02*
X4489810Y2615630I15000J0D01*
G01*
X4551810D01*
G75*
G02*
X4566810Y2600640I0J-14990D01*
G01*
Y2600630D01*
Y2563130D01*
X5126310D01*
Y2594130D01*
Y2594140D01*
G75*
G02*
X5141310Y2609130I15000J0D01*
G01*
X5240310D01*
G75*
G02*
X5255310Y2594140I0J-14990D01*
G01*
Y2594130D01*
Y2563130D01*
X5686510D01*
G75*
G02*
X5694810Y2565630I8290J-12490D01*
G01*
X5756810D01*
G75*
G02*
X5765100Y2563130I0J-15010D01*
G01*
X6730000D01*
Y2663630D01*
X5871810D01*
Y2603630D01*
G75*
G02*
Y2603620I-52090J0D01*
G01*
G75*
G02*
X5841810Y2573630I-30000J0D01*
G01*
X5759810D01*
G75*
G02*
X5729810Y2603620I0J29990D01*
G01*
G75*
G02*
Y2603630I52090J10D01*
G01*
Y2663630D01*
X5250240D01*
G75*
G02*
X5235310Y2650130I-14920J1490D01*
G01*
X5136310D01*
G75*
G02*
X5121390Y2663630I10J15000D01*
G01*
X778310D01*
Y2568630D01*
X498310D01*
Y2663630D01*
X32700D01*
G37*
Y2811130D02*
G36*
X32700Y2811130D02*
Y2663630D01*
X498310D01*
Y2811130D01*
X32700D01*
G37*
X778310D02*
G36*
X778310Y2811130D02*
Y2663630D01*
X5121390D01*
G75*
G02*
X5121310Y2665120I14930J1550D01*
G01*
Y2665130D01*
Y2727130D01*
Y2727140D01*
G75*
G02*
X5125590Y2737630I15000J0D01*
G01*
X5033810D01*
G75*
G02*
X5018810Y2752620I0J14990D01*
G01*
Y2752630D01*
Y2811130D01*
X778310D01*
G37*
X5147810Y2752620D02*
G36*
X5147810Y2752620D02*
G75*
G02*
X5143530Y2742130I-15000J0D01*
G01*
X5235310D01*
G75*
G02*
X5250310Y2727140I0J-14990D01*
G01*
Y2727130D01*
Y2665130D01*
Y2665120D01*
G75*
G02*
X5250240Y2663630I-15000J-40D01*
G01*
X5729810D01*
Y2723630D01*
G75*
G02*
Y2723640I52090J10D01*
G01*
G75*
G02*
X5759810Y2753630I30000J0D01*
G01*
X5841810D01*
G75*
G02*
X5871810Y2723640I0J-29990D01*
G01*
G75*
G02*
Y2723630I-52090J0D01*
G01*
Y2663630D01*
X6730000D01*
Y2811130D01*
X5903270D01*
G75*
G02*
X5862570Y2778630I-40700J9240D01*
G01*
X5858310D01*
Y2798900D01*
G75*
G03*
X5878680Y2811130I-4000J29740D01*
G01*
X5787940D01*
G75*
G03*
X5808310Y2798900I24370J17510D01*
G01*
Y2778630D01*
X5804050D01*
G75*
G02*
X5763350Y2811130I0J41740D01*
G01*
X5224310D01*
Y2773630D01*
Y2773620D01*
G75*
G02*
X5209310Y2758630I-15000J0D01*
G01*
X5147810D01*
Y2752630D01*
Y2752620D01*
G37*
X32700Y2943630D02*
G36*
X32700Y2943630D02*
Y2811130D01*
X498310D01*
Y2848630D01*
X778310D01*
Y2811130D01*
X5018810D01*
Y2814630D01*
Y2814640D01*
G75*
G02*
X5024610Y2826490I15010J0D01*
G01*
G75*
G02*
X5021930Y2833630I22970J12690D01*
G01*
X5050920D01*
G75*
G03*
X5056310Y2832630I5370J13920D01*
G01*
X5060810D01*
Y2829630D01*
X5110810D01*
Y2832630D01*
X5115310D01*
G75*
G03*
X5120700Y2833630I20J14920D01*
G01*
X5132310D01*
Y2872630D01*
Y2872640D01*
G75*
G02*
X5137100Y2883630I15030J-10D01*
G01*
X5120700D01*
G75*
G03*
X5115310Y2884630I-5370J-13920D01*
G01*
X5110810D01*
Y2892630D01*
X5060810D01*
Y2884630D01*
X5056310D01*
G75*
G03*
X5050920Y2883630I-20J-14920D01*
G01*
X5021930D01*
G75*
G02*
X5031570Y2898950I26070J-5710D01*
G01*
G75*
G02*
X5028810Y2907620I12300J8690D01*
G01*
Y2907630D01*
Y2943630D01*
X3956810D01*
Y2883630D01*
G75*
G02*
Y2883620I-52090J0D01*
G01*
G75*
G02*
X3926810Y2853630I-30000J0D01*
G01*
X3844810D01*
G75*
G02*
X3814810Y2883620I0J29990D01*
G01*
G75*
G02*
Y2883630I52090J10D01*
G01*
Y2943630D01*
X32700D01*
G37*
X5145700Y2892910D02*
G36*
X5145700Y2892910D02*
G75*
G02*
X5148480Y2887630I-21700J-14800D01*
G01*
X5209310D01*
G75*
G02*
X5224310Y2872640I0J-14990D01*
G01*
Y2872630D01*
Y2811130D01*
X5763350D01*
G75*
G02*
X5762310Y2820370I40710J9260D01*
G01*
Y2843630D01*
X5782310D01*
Y2828630D01*
G75*
G03*
X5787940Y2811130I30000J0D01*
G01*
X5878680D01*
G75*
G03*
X5884310Y2828630I-24370J17500D01*
G01*
Y2843630D01*
X5904310D01*
Y2820370D01*
G75*
G02*
X5903270Y2811130I-41750J20D01*
G01*
X6730000D01*
Y2943630D01*
X5894620D01*
G75*
G02*
X5904310Y2916890I-32050J-26740D01*
G01*
Y2893630D01*
X5884310D01*
Y2908630D01*
G75*
G03*
X5858310Y2938360I-30000J0D01*
G01*
Y2943630D01*
X5808310D01*
Y2938360D01*
G75*
G03*
X5782310Y2908630I4000J-29730D01*
G01*
Y2893630D01*
X5762310D01*
Y2894360D01*
G75*
G02*
X5755310Y2892630I-7000J13290D01*
G01*
X5656310D01*
G75*
G02*
X5641310Y2907620I0J14990D01*
G01*
Y2907630D01*
Y2943630D01*
X5289310D01*
Y2936630D01*
Y2936620D01*
G75*
G02*
X5274310Y2921630I-15000J0D01*
G01*
X5212310D01*
G75*
G02*
X5197310Y2936620I0J14990D01*
G01*
Y2936630D01*
Y2943630D01*
X5157810D01*
Y2907630D01*
Y2907620D01*
G75*
G02*
X5145700Y2892910I-14990J0D01*
G01*
G37*
X5770310Y2943630D02*
G36*
X5770310Y2943630D02*
Y2941450D01*
G75*
G02*
X5772010Y2943630I33780J-24590D01*
G01*
X5770310D01*
G37*
X32700Y3054130D02*
G36*
X32700Y3054130D02*
Y2943630D01*
X3814810D01*
Y3003630D01*
G75*
G02*
Y3003640I52090J10D01*
G01*
G75*
G02*
X3844810Y3033630I30000J0D01*
G01*
X3926810D01*
G75*
G02*
X3956810Y3003640I0J-29990D01*
G01*
G75*
G02*
Y3003630I-52090J0D01*
G01*
Y2943630D01*
X5028810D01*
Y2969630D01*
Y2969640D01*
G75*
G02*
Y2969660I12590J10D01*
G01*
G75*
G02*
X5033800Y2980810I14950J0D01*
G01*
G75*
G02*
X5026930Y2993630I19270J18580D01*
G01*
X5055920D01*
G75*
G03*
X5061310Y2992630I5370J13920D01*
G01*
X5065810D01*
Y2984630D01*
X5115810D01*
Y2992630D01*
X5120310D01*
G75*
G03*
X5125700Y2993630I20J14920D01*
G01*
X5154690D01*
G75*
G02*
X5149690Y2982960I-26010J5680D01*
G01*
G75*
G02*
X5157810Y2969640I-6860J-13320D01*
G01*
Y2969630D01*
Y2943630D01*
X5197310D01*
Y3035630D01*
Y3035640D01*
G75*
G02*
X5212310Y3050630I15000J0D01*
G01*
X5274310D01*
G75*
G02*
X5289310Y3035640I0J-14990D01*
G01*
Y3035630D01*
Y2943630D01*
X5641310D01*
Y2969630D01*
Y2969640D01*
G75*
G02*
X5656310Y2984630I15000J0D01*
G01*
X5658820D01*
G75*
G02*
X5651310Y2997620I7480J12990D01*
G01*
Y2997630D01*
Y3054130D01*
X5149820D01*
G75*
G02*
X5154690Y3043630I-21240J-16230D01*
G01*
X5125700D01*
G75*
G03*
X5120310Y3044630I-5370J-13920D01*
G01*
X5115810D01*
Y3054130D01*
X5065810D01*
Y3044630D01*
X5061310D01*
G75*
G03*
X5055920Y3043630I-20J-14920D01*
G01*
X5026930D01*
G75*
G02*
X5031800Y3054130I26110J-5730D01*
G01*
X1454310D01*
Y3018630D01*
G75*
G02*
Y3018620I-52090J0D01*
G01*
G75*
G02*
X1424310Y2988630I-30000J0D01*
G01*
X1342310D01*
G75*
G02*
X1312310Y3018620I0J29990D01*
G01*
G75*
G02*
Y3018630I52090J10D01*
G01*
Y3054130D01*
X32700D01*
G37*
X5765310Y2982630D02*
G36*
X5765310Y2982630D02*
X5762800D01*
G75*
G02*
X5770310Y2969640I-7480J-12990D01*
G01*
Y2969630D01*
Y2943630D01*
X5772010D01*
G75*
G02*
X5804050Y2958630I32070J-26780D01*
G01*
X5808310D01*
Y2943630D01*
X5858310D01*
Y2958630D01*
X5862570D01*
G75*
G02*
X5894620Y2943630I0J-41740D01*
G01*
X6730000D01*
Y3054130D01*
X5780310D01*
Y2997630D01*
Y2997620D01*
G75*
G02*
X5765310Y2982630I-15000J0D01*
G01*
G37*
X32700Y3078630D02*
G36*
X32700Y3078630D02*
Y3054130D01*
X1312310D01*
Y3078630D01*
X32700D01*
G37*
X1454310D02*
G36*
X1454310Y3078630D02*
Y3054130D01*
X5031800D01*
G75*
G02*
X5053050Y3064630I21240J-16240D01*
G01*
X5065810D01*
Y3054130D01*
X5115810D01*
Y3064630D01*
X5128570D01*
G75*
G02*
X5149820Y3054130I10J-26740D01*
G01*
X5651310D01*
Y3059630D01*
Y3059640D01*
G75*
G02*
X5666310Y3074630I15000J0D01*
G01*
X5765310D01*
G75*
G02*
X5780310Y3059640I0J-14990D01*
G01*
Y3059630D01*
Y3054130D01*
X6730000D01*
Y3078630D01*
X3227790D01*
G75*
G02*
X3201810Y3063630I-25980J14990D01*
G01*
X3119810D01*
G75*
G02*
X3093830Y3078630I0J29990D01*
G01*
X1454310D01*
G37*
X32700Y3244390D02*
G36*
X32700Y3244390D02*
Y3078630D01*
X1312310D01*
Y3138630D01*
G75*
G02*
Y3138640I52090J10D01*
G01*
G75*
G02*
X1342310Y3168630I30000J0D01*
G01*
X1424310D01*
G75*
G02*
X1454310Y3138640I0J-29990D01*
G01*
G75*
G02*
Y3138630I-52090J0D01*
G01*
Y3078630D01*
X3093830D01*
G75*
G02*
X3089810Y3093620I25970J15000D01*
G01*
G75*
G02*
Y3093630I52090J10D01*
G01*
Y3213630D01*
G75*
G02*
Y3213640I52090J10D01*
G01*
G75*
G02*
X3119810Y3243630I30000J0D01*
G01*
X3201810D01*
G75*
G02*
X3231810Y3213640I0J-29990D01*
G01*
G75*
G02*
Y3213630I-52090J0D01*
G01*
Y3093630D01*
G75*
G02*
Y3093620I-52090J0D01*
G01*
G75*
G02*
X3227790Y3078630I-29990J10D01*
G01*
X6730000D01*
Y3244390D01*
X5951810D01*
Y3166630D01*
Y3166620D01*
G75*
G02*
X5936810Y3151630I-15000J0D01*
G01*
X5874810D01*
G75*
G02*
X5859810Y3166620I0J14990D01*
G01*
Y3166630D01*
Y3244390D01*
X5762810D01*
Y3185130D01*
Y3185120D01*
G75*
G02*
X5747810Y3170130I-15000J0D01*
G01*
X5648810D01*
G75*
G02*
X5633810Y3185120I0J14990D01*
G01*
Y3185130D01*
Y3244390D01*
X5107810D01*
Y3187630D01*
Y3187620D01*
G75*
G02*
X5106860Y3182380I-14990J10D01*
G01*
G75*
G02*
X5107810Y3177140I-14040J-5250D01*
G01*
Y3177130D01*
Y3115130D01*
Y3115120D01*
G75*
G02*
X5092810Y3100130I-15000J0D01*
G01*
X4993810D01*
G75*
G02*
X4978810Y3115120I0J14990D01*
G01*
Y3115130D01*
Y3177130D01*
Y3177140D01*
G75*
G02*
X4979760Y3182380I14990J-10D01*
G01*
G75*
G02*
X4978810Y3187620I14040J5250D01*
G01*
Y3187630D01*
Y3244390D01*
X1165160D01*
G75*
G02*
X1003460I-80850J0D01*
G01*
X32700D01*
G37*
Y3351130D02*
G36*
X32700Y3351130D02*
Y3244390D01*
X1003460D01*
G75*
G02*
X1165160I80850J0D01*
G01*
X4978810D01*
Y3249630D01*
Y3249640D01*
G75*
G02*
X4993810Y3264630I15000J0D01*
G01*
X5092810D01*
G75*
G02*
X5107810Y3249640I0J-14990D01*
G01*
Y3249630D01*
Y3244390D01*
X5633810D01*
Y3247130D01*
Y3247140D01*
G75*
G02*
X5648810Y3262130I15000J0D01*
G01*
X5747810D01*
G75*
G02*
X5762810Y3247140I0J-14990D01*
G01*
Y3247130D01*
Y3244390D01*
X5859810D01*
Y3265630D01*
Y3265640D01*
G75*
G02*
X5874810Y3280630I15000J0D01*
G01*
X5936810D01*
G75*
G02*
X5951810Y3265640I0J-14990D01*
G01*
Y3265630D01*
Y3244390D01*
X6730000D01*
Y3351130D01*
X5820030D01*
G75*
G02*
X5809310Y3346630I-10710J10490D01*
G01*
X5747310D01*
G75*
G02*
X5736600Y3351130I10J15010D01*
G01*
X5654310D01*
Y3334130D01*
Y3334120D01*
G75*
G02*
X5639310Y3319130I-15000J0D01*
G01*
X5577310D01*
G75*
G02*
X5562310Y3334120I0J14990D01*
G01*
Y3334130D01*
Y3351130D01*
X5524500D01*
G75*
G02*
X5511810Y3344130I-12680J7990D01*
G01*
X5449810D01*
G75*
G02*
X5437120Y3351130I0J15010D01*
G01*
X5026810D01*
Y3341630D01*
Y3341620D01*
G75*
G02*
X5011810Y3326630I-15000J0D01*
G01*
X4949810D01*
G75*
G02*
X4934810Y3341620I0J14990D01*
G01*
Y3341630D01*
Y3351130D01*
X3992570D01*
X3988310D01*
X3938310D01*
X3934050D01*
X3776020D01*
G75*
G02*
X3776010I0J24910D01*
G01*
X3694010D01*
G75*
G02*
X3694000I0J24910D01*
G01*
X2084310D01*
Y3291130D01*
G75*
G02*
Y3291120I-52090J0D01*
G01*
G75*
G02*
X2054310Y3261130I-30000J0D01*
G01*
X1972310D01*
G75*
G02*
X1942310Y3291120I0J29990D01*
G01*
G75*
G02*
Y3291130I52090J10D01*
G01*
Y3351130D01*
X32700D01*
G37*
Y3498630D02*
G36*
X32700Y3498630D02*
Y3351130D01*
X1942310D01*
Y3411130D01*
G75*
G02*
Y3411140I52090J10D01*
G01*
G75*
G02*
X1972310Y3441130I30000J0D01*
G01*
X2054310D01*
G75*
G02*
X2084310Y3411140I0J-29990D01*
G01*
G75*
G02*
Y3411130I-52090J0D01*
G01*
Y3351130D01*
X3694000D01*
G75*
G02*
X3664010Y3381120I0J29990D01*
G01*
G75*
G02*
Y3381130I52090J10D01*
G01*
Y3498630D01*
X3234310D01*
Y3473630D01*
G75*
G02*
Y3473620I-52090J0D01*
G01*
G75*
G02*
X3204310Y3443630I-30000J0D01*
G01*
X3122310D01*
G75*
G02*
X3092310Y3473620I0J29990D01*
G01*
G75*
G02*
Y3473630I52090J10D01*
G01*
Y3498630D01*
X32700D01*
G37*
X3806010D02*
G36*
X3806010Y3498630D02*
Y3381130D01*
G75*
G02*
Y3381120I-52090J0D01*
G01*
G75*
G02*
X3776020Y3351130I-29990J0D01*
G01*
X3934050D01*
G75*
G02*
X3892310Y3392870I0J41740D01*
G01*
Y3416130D01*
X3912310D01*
Y3401130D01*
G75*
G03*
X3938310Y3371400I30000J0D01*
G01*
Y3351130D01*
X3988310D01*
Y3371400D01*
G75*
G03*
X4014310Y3401130I-4000J29730D01*
G01*
Y3416130D01*
X4034310D01*
Y3392870D01*
G75*
G02*
X3992570Y3351130I-41740J0D01*
G01*
X4934810D01*
Y3440630D01*
Y3440640D01*
G75*
G02*
X4949810Y3455630I15000J0D01*
G01*
X5011810D01*
G75*
G02*
X5026810Y3440640I0J-14990D01*
G01*
Y3440630D01*
Y3351130D01*
X5437120D01*
G75*
G02*
X5434810Y3359120I12690J8000D01*
G01*
Y3359130D01*
Y3458130D01*
Y3458140D01*
G75*
G02*
X5449810Y3473130I15000J0D01*
G01*
X5511810D01*
G75*
G02*
X5526810Y3458140I0J-14990D01*
G01*
Y3458130D01*
Y3359130D01*
Y3359120D01*
G75*
G02*
X5524500Y3351130I-14990J10D01*
G01*
X5562310D01*
Y3433130D01*
Y3433140D01*
G75*
G02*
X5577310Y3448130I15000J0D01*
G01*
X5639310D01*
G75*
G02*
X5654310Y3433140I0J-14990D01*
G01*
Y3433130D01*
Y3351130D01*
X5736600D01*
G75*
G02*
X5732310Y3361620I10720J10500D01*
G01*
Y3361630D01*
Y3460630D01*
Y3460640D01*
G75*
G02*
X5747310Y3475630I15000J0D01*
G01*
X5799810D01*
Y3498630D01*
X5351510D01*
G75*
G02*
X5351810Y3495640I-14700J-2990D01*
G01*
Y3495630D01*
Y3396630D01*
Y3396620D01*
G75*
G02*
X5336810Y3381630I-15000J0D01*
G01*
X5274810D01*
G75*
G02*
X5259810Y3396620I0J14990D01*
G01*
Y3396630D01*
Y3495630D01*
Y3495640D01*
G75*
G02*
X5260110Y3498630I15000J10D01*
G01*
X4033270D01*
G75*
G02*
X4034310Y3489390I-40710J-9260D01*
G01*
Y3466130D01*
X4014310D01*
Y3481130D01*
G75*
G03*
X4008680Y3498630I-30000J0D01*
G01*
X3917940D01*
G75*
G03*
X3912310Y3481130I24370J-17500D01*
G01*
Y3466130D01*
X3892310D01*
Y3489390D01*
G75*
G02*
X3893350Y3498630I41750J-20D01*
G01*
X3806010D01*
G37*
X5824310Y3361630D02*
G36*
X5824310Y3361630D02*
Y3361620D01*
G75*
G02*
X5820030Y3351130I-14990J0D01*
G01*
X6730000D01*
Y3498630D01*
X5891810D01*
Y3469130D01*
Y3469120D01*
G75*
G02*
X5876810Y3454130I-15000J0D01*
G01*
X5824310D01*
Y3361630D01*
G37*
X32700Y3533630D02*
G36*
X32700Y3533630D02*
Y3498630D01*
X3092310D01*
Y3533630D01*
X673400D01*
G75*
G02*
X656810Y3528630I-16580J25000D01*
G01*
X574810D01*
G75*
G02*
X558220Y3533630I-10J30000D01*
G01*
X32700D01*
G37*
X3234310D02*
G36*
X3234310Y3533630D02*
Y3498630D01*
X3664010D01*
Y3501130D01*
G75*
G02*
Y3501140I52090J10D01*
G01*
G75*
G02*
X3694010Y3531130I30000J0D01*
G01*
X3776010D01*
G75*
G02*
X3806010Y3501140I0J-29990D01*
G01*
G75*
G02*
Y3501130I-52090J0D01*
G01*
Y3498630D01*
X3893350D01*
G75*
G02*
X3934050Y3531130I40700J-9240D01*
G01*
X3938310D01*
Y3510860D01*
G75*
G03*
X3917940Y3498630I4000J-29740D01*
G01*
X4008680D01*
G75*
G03*
X3988310Y3510860I-24370J-17510D01*
G01*
Y3531130D01*
X3992570D01*
G75*
G02*
X4033270Y3498630I0J-41740D01*
G01*
X5260110D01*
G75*
G02*
X5274810Y3510630I14690J-2990D01*
G01*
X5336810D01*
G75*
G02*
X5351510Y3498630I0J-15010D01*
G01*
X5799810D01*
Y3533630D01*
X3234310D01*
G37*
X5891810D02*
G36*
X5891810Y3533630D02*
Y3498630D01*
X6730000D01*
Y3533630D01*
X5891810D01*
G37*
X32700Y3752390D02*
G36*
X32700Y3752390D02*
Y3533630D01*
X558220D01*
G75*
G02*
X544810Y3558620I16580J24990D01*
G01*
G75*
G02*
Y3558630I52090J10D01*
G01*
Y3678630D01*
G75*
G02*
Y3678640I52090J10D01*
G01*
G75*
G02*
X574810Y3708630I30000J0D01*
G01*
X656810D01*
G75*
G02*
X686810Y3678640I0J-29990D01*
G01*
G75*
G02*
Y3678630I-52090J0D01*
G01*
Y3558630D01*
G75*
G02*
Y3558620I-52090J0D01*
G01*
G75*
G02*
X673400Y3533630I-29990J0D01*
G01*
X3092310D01*
Y3593630D01*
G75*
G02*
Y3593640I52090J10D01*
G01*
G75*
G02*
X3122310Y3623630I30000J0D01*
G01*
X3204310D01*
G75*
G02*
X3234310Y3593640I0J-29990D01*
G01*
G75*
G02*
Y3593630I-52090J0D01*
G01*
Y3533630D01*
X5799810D01*
Y3568130D01*
Y3568140D01*
G75*
G02*
X5814810Y3583130I15000J0D01*
G01*
X5876810D01*
G75*
G02*
X5891810Y3568140I0J-14990D01*
G01*
Y3568130D01*
Y3533630D01*
X6730000D01*
Y3752390D01*
X1872980D01*
G75*
G02*
X1881810Y3731140I-21160J-21250D01*
G01*
G75*
G02*
Y3731130I-52090J0D01*
G01*
Y3611130D01*
G75*
G02*
Y3611120I-52090J0D01*
G01*
G75*
G02*
X1851810Y3581130I-30000J0D01*
G01*
X1769810D01*
G75*
G02*
X1739810Y3611120I0J29990D01*
G01*
G75*
G02*
Y3611130I52090J10D01*
G01*
Y3731130D01*
G75*
G02*
Y3731140I52090J10D01*
G01*
G75*
G02*
X1748640Y3752390I29990J0D01*
G01*
X1165160D01*
G75*
G02*
X1003460I-80850J0D01*
G01*
X32700D01*
G37*
Y3941130D02*
G36*
X32700Y3941130D02*
Y3752390D01*
X1003460D01*
G75*
G02*
X1165160I80850J0D01*
G01*
X1748640D01*
G75*
G02*
X1769810Y3761130I21160J-21250D01*
G01*
X1851810D01*
G75*
G02*
X1872980Y3752390I10J-29990D01*
G01*
X6730000D01*
Y3941130D01*
X4035770D01*
G75*
G02*
X3995070Y3908630I-40700J9240D01*
G01*
X3990810D01*
Y3928900D01*
G75*
G03*
X4011180Y3941130I-4000J29740D01*
G01*
X3920440D01*
G75*
G03*
X3940810Y3928900I24370J17510D01*
G01*
Y3908630D01*
X3936550D01*
G75*
G02*
X3895850Y3941130I0J41740D01*
G01*
X32700D01*
G37*
Y3998940D02*
G36*
X32700Y3998940D02*
Y3941130D01*
X3895850D01*
G75*
G02*
X3894810Y3950370I40710J9260D01*
G01*
Y3973630D01*
X3914810D01*
Y3958630D01*
G75*
G03*
X3920440Y3941130I30000J0D01*
G01*
X4011180D01*
G75*
G03*
X4016810Y3958630I-24370J17500D01*
G01*
Y3973630D01*
X4036810D01*
Y3950370D01*
G75*
G02*
X4035770Y3941130I-41750J20D01*
G01*
X6730000D01*
Y3998940D01*
X5728460D01*
G75*
G02*
X5708310Y3979500I-25890J6670D01*
G01*
Y3998940D01*
X5658310D01*
Y3979500D01*
G75*
G02*
X5638160Y3998940I5740J26110D01*
G01*
X32700D01*
G37*
Y4056130D02*
G36*
X32700Y4056130D02*
Y3998940D01*
X5638160D01*
G75*
G02*
X5637310Y4005610I25890J6690D01*
G01*
Y4005620D01*
Y4018380D01*
X5657310D01*
Y4013880D01*
Y4013860D01*
G75*
G03*
Y4013840I14690J-10D01*
G01*
G75*
G03*
X5658310Y4008490I14810J0D01*
G01*
Y3998940D01*
X5708310D01*
Y4008490D01*
G75*
G03*
X5709310Y4013840I-13810J5350D01*
G01*
G75*
G03*
Y4013860I-14690J10D01*
G01*
Y4013880D01*
Y4018380D01*
X5729310D01*
Y4005620D01*
Y4005610D01*
G75*
G02*
X5728460Y3998940I-26740J20D01*
G01*
X6730000D01*
Y4056130D01*
X4035770D01*
G75*
G02*
X4036810Y4046890I-40710J-9260D01*
G01*
Y4023630D01*
X4016810D01*
Y4038630D01*
G75*
G03*
X4011180Y4056130I-30000J0D01*
G01*
X3920440D01*
G75*
G03*
X3914810Y4038630I24370J-17500D01*
G01*
Y4023630D01*
X3894810D01*
Y4046890D01*
G75*
G02*
X3895850Y4056130I41750J-20D01*
G01*
X3802990D01*
G75*
G02*
X3777010Y4041130I-25980J14990D01*
G01*
X3695010D01*
G75*
G02*
X3669030Y4056130I0J29990D01*
G01*
X2606300D01*
G75*
G02*
X2594310Y4053630I-11990J27480D01*
G01*
X2512310D01*
G75*
G02*
X2500320Y4056130I0J29980D01*
G01*
X614230D01*
G75*
G02*
X532400I-40910J37500D01*
G01*
X524220D01*
G75*
G02*
X442390I-40910J37500D01*
G01*
X32700D01*
G37*
Y4087820D02*
G36*
X32700Y4087820D02*
Y4056130D01*
X442390D01*
G75*
G02*
X428110Y4087820I40910J37500D01*
G01*
X32700D01*
G37*
X528310Y4061150D02*
G36*
X528310Y4061150D02*
G75*
G02*
X524220Y4056130I-45010J32490D01*
G01*
X532400D01*
G75*
G02*
X528310Y4061150I40920J37510D01*
G01*
G37*
X628510Y4087820D02*
G36*
X628510Y4087820D02*
G75*
G02*
X614230Y4056130I-55190J5810D01*
G01*
X2500320D01*
G75*
G02*
X2482310Y4083620I11980J27500D01*
G01*
G75*
G02*
Y4083630I52090J10D01*
G01*
Y4087820D01*
X628510D01*
G37*
X2624310D02*
G36*
X2624310Y4087820D02*
Y4083630D01*
G75*
G02*
Y4083620I-52090J0D01*
G01*
G75*
G02*
X2606300Y4056130I-29990J10D01*
G01*
X3669030D01*
G75*
G02*
X3665010Y4071120I25970J15000D01*
G01*
G75*
G02*
Y4071130I52090J10D01*
G01*
Y4087820D01*
X2624310D01*
G37*
X3807010D02*
G36*
X3807010Y4087820D02*
Y4071130D01*
G75*
G02*
Y4071120I-52090J0D01*
G01*
G75*
G02*
X3802990Y4056130I-29990J10D01*
G01*
X3895850D01*
G75*
G02*
X3928370Y4087820I40700J-9240D01*
G01*
X3807010D01*
G37*
X3940810Y4068360D02*
G36*
X3940810Y4068360D02*
G75*
G03*
X3920440Y4056130I4000J-29740D01*
G01*
X4011180D01*
G75*
G03*
X3990810Y4068360I-24370J-17510D01*
G01*
Y4087820D01*
X3940810D01*
Y4068360D01*
G37*
X4003250Y4087820D02*
G36*
X4003250Y4087820D02*
G75*
G02*
X4035770Y4056130I-8180J-40930D01*
G01*
X6730000D01*
Y4087820D01*
X5728460D01*
G75*
G02*
X5729310Y4081150I-25890J-6690D01*
G01*
Y4081140D01*
Y4068380D01*
X5709310D01*
Y4072880D01*
Y4072900D01*
G75*
G03*
Y4072920I-14690J10D01*
G01*
G75*
G03*
X5708310Y4078270I-14810J0D01*
G01*
Y4087820D01*
X5658310D01*
Y4078270D01*
G75*
G03*
X5657310Y4072920I13810J-5350D01*
G01*
G75*
G03*
Y4072900I14690J-10D01*
G01*
Y4072880D01*
Y4068380D01*
X5637310D01*
Y4081140D01*
Y4081150D01*
G75*
G02*
X5638160Y4087820I26740J-20D01*
G01*
X4003250D01*
G37*
X32700Y4143630D02*
G36*
X32700Y4143630D02*
Y4087820D01*
X428110D01*
G75*
G02*
X427810Y4093630I55220J5760D01*
G01*
G75*
G02*
X444840Y4133630I55540J-20D01*
G01*
G75*
G02*
X436620Y4143630I38500J40030D01*
G01*
X32700D01*
G37*
X620000D02*
G36*
X620000Y4143630D02*
G75*
G02*
X611780Y4133630I-46720J30030D01*
G01*
G75*
G02*
X628810Y4093630I-38510J-40020D01*
G01*
G75*
G02*
X628510Y4087820I-55520J-50D01*
G01*
X2482310D01*
Y4143630D01*
X620000D01*
G37*
X2624310D02*
G36*
X2624310Y4143630D02*
Y4087820D01*
X3665010D01*
Y4143630D01*
X2624310D01*
G37*
X3807010D02*
G36*
X3807010Y4143630D02*
Y4087820D01*
X3928370D01*
G75*
G02*
X3936550Y4088630I8180J-40910D01*
G01*
X3940810D01*
Y4087820D01*
X3990810D01*
Y4088630D01*
X3995070D01*
G75*
G02*
X4003250Y4087820I0J-41720D01*
G01*
X5638160D01*
G75*
G02*
X5658310Y4107260I25890J-6670D01*
G01*
Y4087820D01*
X5708310D01*
Y4107260D01*
G75*
G02*
X5728460Y4087820I-5740J-26110D01*
G01*
X6730000D01*
Y4143630D01*
X3807010D01*
G37*
X32700Y4241130D02*
G36*
X32700Y4241130D02*
Y4143630D01*
X436620D01*
G75*
G02*
X427810Y4173630I46720J30010D01*
G01*
G75*
G02*
X444840Y4213630I55540J-20D01*
G01*
G75*
G02*
X429240Y4241130I38500J40020D01*
G01*
X32700D01*
G37*
X627380D02*
G36*
X627380Y4241130D02*
G75*
G02*
X611780Y4213630I-54100J12520D01*
G01*
G75*
G02*
X628810Y4173630I-38510J-40020D01*
G01*
G75*
G02*
X620000Y4143630I-55530J10D01*
G01*
X2482310D01*
Y4203630D01*
G75*
G02*
Y4203640I52090J10D01*
G01*
G75*
G02*
X2512310Y4233630I30000J0D01*
G01*
X2594310D01*
G75*
G02*
X2624310Y4203640I0J-29990D01*
G01*
G75*
G02*
Y4203630I-52090J0D01*
G01*
Y4143630D01*
X3665010D01*
Y4191130D01*
G75*
G02*
Y4191140I52090J10D01*
G01*
G75*
G02*
X3695010Y4221130I30000J0D01*
G01*
X3777010D01*
G75*
G02*
X3807010Y4191140I0J-29990D01*
G01*
G75*
G02*
Y4191130I-52090J0D01*
G01*
Y4143630D01*
X6730000D01*
Y4241130D01*
X1868310D01*
Y4200130D01*
G75*
G02*
Y4200120I-52090J0D01*
G01*
G75*
G02*
X1838310Y4170130I-30000J0D01*
G01*
X1718310D01*
G75*
G02*
X1688310Y4200120I0J29990D01*
G01*
G75*
G02*
Y4200130I52090J10D01*
G01*
Y4241130D01*
X627380D01*
G37*
X32700Y4371130D02*
G36*
X32700Y4371130D02*
Y4241130D01*
X429240D01*
G75*
G02*
X427810Y4253630I54110J12520D01*
G01*
G75*
G02*
X444840Y4293630I55540J-20D01*
G01*
G75*
G02*
X427810Y4333630I38510J40020D01*
G01*
G75*
G02*
X442400Y4371130I55540J-20D01*
G01*
X32700D01*
G37*
X628810Y4253630D02*
G36*
X628810Y4253630D02*
G75*
G02*
X627380Y4241130I-55540J20D01*
G01*
X1688310D01*
Y4282130D01*
G75*
G02*
Y4282140I52090J10D01*
G01*
G75*
G02*
X1718310Y4312130I30000J0D01*
G01*
X1838310D01*
G75*
G02*
X1868310Y4282140I0J-29990D01*
G01*
G75*
G02*
Y4282130I-52090J0D01*
G01*
Y4241130D01*
X6730000D01*
Y4371130D01*
X5385310D01*
Y4340130D01*
Y4340120D01*
G75*
G02*
X5370310Y4325130I-15000J0D01*
G01*
X5271310D01*
G75*
G02*
X5256310Y4340120I0J14990D01*
G01*
Y4340130D01*
Y4371130D01*
X3312040D01*
Y4328190D01*
X3119640D01*
Y4371130D01*
X614220D01*
G75*
G02*
X628810Y4333630I-40950J-37520D01*
G01*
G75*
G02*
X611780Y4293630I-55540J20D01*
G01*
G75*
G02*
X628810Y4253630I-38510J-40020D01*
G01*
G37*
X32700Y4424390D02*
G36*
X32700Y4424390D02*
Y4371130D01*
X442400D01*
G75*
G02*
X444840Y4373630I40950J-37530D01*
G01*
G75*
G02*
X427810Y4413630I38510J40020D01*
G01*
G75*
G02*
X428860Y4424390I55510J10D01*
G01*
X32700D01*
G37*
X611780Y4373630D02*
G36*
X611780Y4373630D02*
G75*
G02*
X614220Y4371130I-38510J-40030D01*
G01*
X3119640D01*
Y4424390D01*
X627760D01*
G75*
G02*
X628810Y4413630I-54460J-10750D01*
G01*
G75*
G02*
X611780Y4373630I-55540J20D01*
G01*
G37*
X3312040Y4424390D02*
G36*
X3312040Y4424390D02*
Y4371130D01*
X5256310D01*
Y4402130D01*
Y4402140D01*
G75*
G02*
X5271310Y4417130I15000J0D01*
G01*
X5370310D01*
G75*
G02*
X5385310Y4402140I0J-14990D01*
G01*
Y4402130D01*
Y4371130D01*
X6730000D01*
Y4424390D01*
X5855260D01*
G75*
G02*
X5825810Y4400130I-29440J5740D01*
G01*
X5705810D01*
G75*
G02*
X5676360Y4424390I-10J30000D01*
G01*
X3312040D01*
G37*
X32700Y4718630D02*
G36*
X32700Y4718630D02*
Y4424390D01*
X428860D01*
G75*
G02*
X528310Y4446110I54450J-10760D01*
G01*
G75*
G02*
X627760Y4424390I45000J-32480D01*
G01*
X3119640D01*
Y4520590D01*
X3312040D01*
Y4424390D01*
X5676360D01*
G75*
G02*
X5675810Y4430120I29420J5720D01*
G01*
G75*
G02*
Y4430130I52090J10D01*
G01*
Y4512130D01*
G75*
G02*
Y4512140I52090J10D01*
G01*
G75*
G02*
X5705810Y4542130I30000J0D01*
G01*
X5825810D01*
G75*
G02*
X5855810Y4512140I0J-29990D01*
G01*
G75*
G02*
Y4512130I-52090J0D01*
G01*
Y4430130D01*
G75*
G02*
Y4430120I-52090J0D01*
G01*
G75*
G02*
X5855260Y4424390I-29970J-10D01*
G01*
X6730000D01*
Y4718630D01*
X3280970D01*
G75*
G02*
X3165650I-57660J29990D01*
G01*
X3160970D01*
G75*
G02*
X3045650I-57660J29990D01*
G01*
X3030970D01*
G75*
G02*
X2915650I-57660J30000D01*
G01*
X2895970D01*
G75*
G02*
X2780650I-57660J30000D01*
G01*
X2764010D01*
G75*
G02*
X2648690I-57660J30000D01*
G01*
X2630970D01*
G75*
G02*
X2515650I-57660J30000D01*
G01*
X1426810D01*
Y4658630D01*
G75*
G02*
Y4658620I-52090J0D01*
G01*
G75*
G02*
X1396810Y4628630I-30000J0D01*
G01*
X1314810D01*
G75*
G02*
X1284810Y4658620I0J29990D01*
G01*
G75*
G02*
Y4658630I52090J10D01*
G01*
Y4718630D01*
X32700D01*
G37*
Y4903630D02*
G36*
X32700Y4903630D02*
Y4718630D01*
X1284810D01*
Y4778630D01*
G75*
G02*
Y4778640I52090J10D01*
G01*
G75*
G02*
X1314810Y4808630I30000J0D01*
G01*
X1396810D01*
G75*
G02*
X1426810Y4778640I0J-29990D01*
G01*
G75*
G02*
Y4778630I-52090J0D01*
G01*
Y4718630D01*
X2515650D01*
G75*
G02*
X2508310Y4748630I57660J30010D01*
G01*
G75*
G02*
X2638310I65000J0D01*
G01*
G75*
G02*
X2630970Y4718630I-65000J10D01*
G01*
X2648690D01*
G75*
G02*
X2641350Y4748630I57660J30010D01*
G01*
G75*
G02*
X2771350I65000J0D01*
G01*
G75*
G02*
X2764010Y4718630I-65000J10D01*
G01*
X2780650D01*
G75*
G02*
X2773310Y4748630I57660J30010D01*
G01*
G75*
G02*
X2903310I65000J0D01*
G01*
G75*
G02*
X2895970Y4718630I-65000J10D01*
G01*
X2915650D01*
G75*
G02*
X2908310Y4748630I57660J30010D01*
G01*
G75*
G02*
X3038310I65000J0D01*
G01*
G75*
G02*
X3163310Y4773630I65000J0D01*
G01*
G75*
G02*
X3288310Y4748630I60000J-25000D01*
G01*
G75*
G02*
X3280970Y4718630I-65010J10D01*
G01*
X6730000D01*
Y4903630D01*
X3288120D01*
G75*
G02*
X3288310Y4898630I-64860J-4970D01*
G01*
G75*
G02*
X3163310Y4873630I-65000J0D01*
G01*
G75*
G02*
X3038310Y4898630I-60000J25000D01*
G01*
G75*
G02*
X2908310I-65000J0D01*
G01*
G75*
G02*
X2908500Y4903630I65010J30D01*
G01*
X2903120D01*
G75*
G02*
X2903310Y4898630I-64820J-4970D01*
G01*
G75*
G02*
X2773310I-65000J0D01*
G01*
G75*
G02*
X2773500Y4903630I65010J30D01*
G01*
X2768120D01*
G75*
G02*
X2768310Y4898630I-64820J-4970D01*
G01*
G75*
G02*
X2638310I-65000J0D01*
G01*
G75*
G02*
X2638500Y4903630I65010J30D01*
G01*
X2638310D01*
G75*
G02*
X2508310I-65000J0D01*
G01*
X32700D01*
G37*
X3038310Y4748630D02*
G36*
X3038310Y4748630D02*
G75*
G02*
X3030970Y4718630I-65010J10D01*
G01*
X3045650D01*
G75*
G02*
X3038310Y4748630I57670J30010D01*
G01*
G37*
X3038120Y4903630D02*
G36*
X3038120Y4903630D02*
G75*
G02*
X3038310Y4898630I-64860J-4970D01*
G01*
G75*
G02*
X3038500Y4903630I65050J30D01*
G01*
X3038120D01*
G37*
X3163310Y4723630D02*
G36*
X3163310Y4723630D02*
G75*
G02*
X3160970Y4718630I-60010J25040D01*
G01*
X3165650D01*
G75*
G02*
X3163310Y4723630I57670J30040D01*
G01*
G37*
X32700Y5043630D02*
G36*
X32700Y5043630D02*
Y4903630D01*
X2508310D01*
G75*
G02*
X2638310I65000J0D01*
G01*
X2638500D01*
G75*
G02*
X2768120I64810J-5000D01*
G01*
X2773500D01*
G75*
G02*
X2903120I64810J-5000D01*
G01*
X2908500D01*
G75*
G02*
X3038120I64810J-5000D01*
G01*
X3038500D01*
G75*
G02*
X3163310Y4923630I64810J-5000D01*
G01*
G75*
G02*
X3288120Y4903630I60000J-25000D01*
G01*
X6730000D01*
Y5043630D01*
X3288120D01*
G75*
G02*
X3163310Y5023630I-64810J5000D01*
G01*
G75*
G02*
X3038500Y5043630I-60000J25000D01*
G01*
X3038120D01*
G75*
G02*
X2908500I-64810J5000D01*
G01*
X2908310D01*
G75*
G02*
X2778310I-65000J0D01*
G01*
X2771350D01*
G75*
G02*
X2641350I-65000J0D01*
G01*
X2638310D01*
G75*
G02*
X2508310I-65000J0D01*
G01*
X32700D01*
G37*
Y5183630D02*
G36*
X32700Y5183630D02*
Y5043630D01*
X2508310D01*
G75*
G02*
X2638310I65000J0D01*
G01*
X2641350D01*
G75*
G02*
X2771350I65000J0D01*
G01*
X2778310D01*
G75*
G02*
X2908310I65000J0D01*
G01*
X2908500D01*
G75*
G02*
X2908310Y5048630I64820J4970D01*
G01*
G75*
G02*
X3038310I65000J0D01*
G01*
G75*
G02*
X3163310Y5073630I65000J0D01*
G01*
G75*
G02*
X3288310Y5048630I60000J-25000D01*
G01*
G75*
G02*
X3288120Y5043630I-65050J-30D01*
G01*
X6730000D01*
Y5183630D01*
X2771350D01*
G75*
G02*
X2641350I-65000J0D01*
G01*
X2638310D01*
G75*
G02*
X2508310I-65000J0D01*
G01*
X1409850D01*
G75*
G02*
X1306770I-51540J75010D01*
G01*
X32700D01*
G37*
X3038310Y5048630D02*
G36*
X3038310Y5048630D02*
G75*
G02*
X3038120Y5043630I-65050J-30D01*
G01*
X3038500D01*
G75*
G02*
X3038310Y5048630I64860J4970D01*
G01*
G37*
X32700Y5323630D02*
G36*
X32700Y5323630D02*
Y5183630D01*
X1306770D01*
G75*
G02*
X1267310Y5258630I51540J75000D01*
G01*
G75*
G02*
X1294620Y5323630I91000J0D01*
G01*
X32700D01*
G37*
X1449310Y5258630D02*
G36*
X1449310Y5258630D02*
G75*
G02*
X1409850Y5183630I-91000J0D01*
G01*
X2508310D01*
G75*
G02*
X2638310I65000J0D01*
G01*
X2641350D01*
G75*
G02*
X2771350I65000J0D01*
G01*
X6730000D01*
Y5323630D01*
X5504310D01*
Y5223630D01*
G75*
G02*
Y5223620I-52090J0D01*
G01*
G75*
G02*
X5474310Y5193630I-30000J0D01*
G01*
X5392310D01*
G75*
G02*
X5362310Y5223620I0J29990D01*
G01*
G75*
G02*
Y5223630I52090J10D01*
G01*
Y5323630D01*
X4385680D01*
G75*
G02*
X4344070Y5285130I-41610J3240D01*
G01*
X4320810D01*
Y5305130D01*
X4335810D01*
G75*
G03*
X4363520Y5323630I0J30000D01*
G01*
X4228100D01*
G75*
G03*
X4255810Y5305130I27710J11500D01*
G01*
X4270810D01*
Y5285130D01*
X4247550D01*
G75*
G02*
X4205940Y5323630I0J41740D01*
G01*
X2771350D01*
G75*
G02*
X2641350I-65000J0D01*
G01*
X2638310D01*
G75*
G02*
X2508310I-65000J0D01*
G01*
X1422000D01*
G75*
G02*
X1449310Y5258630I-63690J-65000D01*
G01*
G37*
X32700Y5404130D02*
G36*
X32700Y5404130D02*
Y5323630D01*
X1294620D01*
G75*
G02*
X1333320Y5346130I63680J-65000D01*
G01*
G75*
G02*
X1272230Y5404130I25000J87500D01*
G01*
X1269390D01*
G75*
G02*
X1097220I-86080J29500D01*
G01*
X32700D01*
G37*
X1383300Y5346130D02*
G36*
X1383300Y5346130D02*
G75*
G02*
X1422000Y5323630I-24980J-87500D01*
G01*
X2508310D01*
G75*
G02*
X2638310I65000J0D01*
G01*
X2641350D01*
G75*
G02*
X2771350I65000J0D01*
G01*
X4205940D01*
G75*
G02*
X4205810Y5326870I41630J3290D01*
G01*
Y5331130D01*
X4226080D01*
G75*
G03*
X4228100Y5323630I29730J3990D01*
G01*
X4363520D01*
G75*
G03*
X4365540Y5331130I-27710J11490D01*
G01*
X4385810D01*
Y5326870D01*
G75*
G02*
X4385680Y5323630I-41760J50D01*
G01*
X5362310D01*
Y5343630D01*
G75*
G02*
Y5343640I52090J10D01*
G01*
G75*
G02*
X5392310Y5373630I30000J0D01*
G01*
X5474310D01*
G75*
G02*
X5504310Y5343640I0J-29990D01*
G01*
G75*
G02*
Y5343630I-52090J0D01*
G01*
Y5323630D01*
X6730000D01*
Y5404130D01*
X4381370D01*
G75*
G02*
X4385810Y5385390I-37300J-18730D01*
G01*
Y5381130D01*
X4365540D01*
G75*
G03*
X4348880Y5404130I-29730J-4000D01*
G01*
X4242740D01*
G75*
G03*
X4226080Y5381130I13070J-27000D01*
G01*
X4205810D01*
Y5385390D01*
G75*
G02*
X4210250Y5404130I41740J10D01*
G01*
X1619400D01*
G75*
G02*
X1447230I-86080J29500D01*
G01*
X1444390D01*
G75*
G02*
X1383300Y5346130I-86090J29500D01*
G01*
G37*
X32700Y5599190D02*
G36*
X32700Y5599190D02*
Y5404130D01*
X1097220D01*
G75*
G02*
X1092310Y5433630I86090J29490D01*
G01*
G75*
G02*
X1158320Y5521130I91000J0D01*
G01*
G75*
G02*
X1092800Y5599190I24990J87500D01*
G01*
X32700D01*
G37*
X1270810Y5408640D02*
G36*
X1270810Y5408640D02*
G75*
G02*
X1269390Y5404130I-87520J25080D01*
G01*
X1272230D01*
G75*
G02*
X1270810Y5408640I86100J29590D01*
G01*
G37*
X1445810D02*
G36*
X1445810Y5408640D02*
G75*
G02*
X1444390Y5404130I-87520J25080D01*
G01*
X1447230D01*
G75*
G02*
X1445810Y5408640I86100J29590D01*
G01*
G37*
X1623820Y5599190D02*
G36*
X1623820Y5599190D02*
G75*
G02*
X1558300Y5521130I-90510J9440D01*
G01*
G75*
G02*
X1624310Y5433630I-24990J-87500D01*
G01*
G75*
G02*
X1619400Y5404130I-91000J-10D01*
G01*
X4210250D01*
G75*
G02*
X4247550Y5427130I37300J-18740D01*
G01*
X4270810D01*
Y5407130D01*
X4255810D01*
G75*
G03*
X4242740Y5404130I0J-29990D01*
G01*
X4348880D01*
G75*
G03*
X4335810Y5407130I-13070J-26990D01*
G01*
X4320810D01*
Y5427130D01*
X4344070D01*
G75*
G02*
X4381370Y5404130I0J-41740D01*
G01*
X6730000D01*
Y5599190D01*
X6443460D01*
G75*
G02*
X6423310Y5579750I-25890J6670D01*
G01*
Y5599190D01*
X6373310D01*
Y5579750D01*
G75*
G02*
X6353160Y5599190I5740J26110D01*
G01*
X5941810D01*
Y5596630D01*
Y5596620D01*
G75*
G02*
X5926810Y5581630I-15000J0D01*
G01*
X5864810D01*
G75*
G02*
X5849810Y5596620I0J14990D01*
G01*
Y5596630D01*
Y5599190D01*
X3594310D01*
Y5566630D01*
Y5566620D01*
G75*
G02*
X3579310Y5551630I-15000J0D01*
G01*
X3517310D01*
G75*
G02*
X3502310Y5566620I0J14990D01*
G01*
Y5566630D01*
Y5599190D01*
X3489310D01*
Y5541630D01*
Y5541620D01*
G75*
G02*
X3474310Y5526630I-15000J0D01*
G01*
X3412310D01*
G75*
G02*
X3397310Y5541620I0J14990D01*
G01*
Y5541630D01*
Y5599190D01*
X1623820D01*
G37*
X32700Y5688070D02*
G36*
X32700Y5688070D02*
Y5599190D01*
X1092800D01*
G75*
G02*
X1092310Y5608630I90530J9430D01*
G01*
G75*
G02*
X1138920Y5688070I91000J0D01*
G01*
X32700D01*
G37*
X1227700D02*
G36*
X1227700Y5688070D02*
G75*
G02*
X1270810Y5633620I-44390J-79440D01*
G01*
G75*
G02*
X1313940Y5688070I87500J-25000D01*
G01*
X1227700D01*
G37*
X1402680D02*
G36*
X1402680Y5688070D02*
G75*
G02*
X1445810Y5633620I-44370J-79450D01*
G01*
G75*
G02*
X1488920Y5688070I87500J-24990D01*
G01*
X1402680D01*
G37*
X1577700D02*
G36*
X1577700Y5688070D02*
G75*
G02*
X1624310Y5608630I-44390J-79440D01*
G01*
G75*
G02*
X1623820Y5599190I-91020J-10D01*
G01*
X3397310D01*
Y5640630D01*
Y5640640D01*
G75*
G02*
X3412310Y5655630I15000J0D01*
G01*
X3474310D01*
G75*
G02*
X3489310Y5640640I0J-14990D01*
G01*
Y5640630D01*
Y5599190D01*
X3502310D01*
Y5665630D01*
Y5665640D01*
G75*
G02*
X3517310Y5680630I15000J0D01*
G01*
X3579310D01*
G75*
G02*
X3594310Y5665640I0J-14990D01*
G01*
Y5665630D01*
Y5599190D01*
X5849810D01*
Y5688070D01*
X1577700D01*
G37*
X5941810D02*
G36*
X5941810Y5688070D02*
Y5599190D01*
X6353160D01*
G75*
G02*
X6352310Y5605860I25890J6690D01*
G01*
Y5605870D01*
Y5618630D01*
X6372310D01*
Y5614130D01*
Y5614110D01*
G75*
G03*
Y5614090I14690J-10D01*
G01*
G75*
G03*
X6373310Y5608740I14810J0D01*
G01*
Y5599190D01*
X6423310D01*
Y5608740D01*
G75*
G03*
X6424310Y5614090I-13810J5350D01*
G01*
G75*
G03*
Y5614110I-14690J10D01*
G01*
Y5614130D01*
Y5618630D01*
X6444310D01*
Y5605870D01*
Y5605860D01*
G75*
G02*
X6443460Y5599190I-26740J20D01*
G01*
X6730000D01*
Y5688070D01*
X6443460D01*
G75*
G02*
X6444310Y5681400I-25890J-6690D01*
G01*
Y5681390D01*
Y5668630D01*
X6424310D01*
Y5673130D01*
Y5673150D01*
G75*
G03*
Y5673170I-14690J10D01*
G01*
G75*
G03*
X6423310Y5678520I-14810J0D01*
G01*
Y5688070D01*
X6373310D01*
Y5678520D01*
G75*
G03*
X6372310Y5673170I13810J-5350D01*
G01*
G75*
G03*
Y5673150I14690J-10D01*
G01*
Y5673130D01*
Y5668630D01*
X6352310D01*
Y5681390D01*
Y5681400D01*
G75*
G02*
X6353160Y5688070I26740J-20D01*
G01*
X5941810D01*
G37*
X32700Y5731690D02*
G36*
X32700Y5731690D02*
Y5688070D01*
X1138920D01*
G75*
G02*
X1227700I44390J-79450D01*
G01*
X1313940D01*
G75*
G02*
X1402680I44370J-79450D01*
G01*
X1488920D01*
G75*
G02*
X1577700I44390J-79450D01*
G01*
X5849810D01*
Y5695630D01*
Y5695640D01*
G75*
G02*
X5864810Y5710630I15000J0D01*
G01*
X5926810D01*
G75*
G02*
X5941810Y5695640I0J-14990D01*
G01*
Y5695630D01*
Y5688070D01*
X6353160D01*
G75*
G02*
X6373310Y5707510I25890J-6670D01*
G01*
Y5688070D01*
X6423310D01*
Y5707510D01*
G75*
G02*
X6443460Y5688070I-5740J-26110D01*
G01*
X6730000D01*
Y5731690D01*
X5798710D01*
G75*
G02*
X5785810Y5724750I-18630J19180D01*
G01*
Y5731690D01*
X5735810D01*
Y5724750D01*
G75*
G02*
X5722910Y5731690I5730J26120D01*
G01*
X5433460D01*
G75*
G02*
X5413310Y5712250I-25890J6670D01*
G01*
Y5731690D01*
X5363310D01*
Y5712250D01*
G75*
G02*
X5343160Y5731690I5740J26110D01*
G01*
X4488050D01*
G75*
G02*
X4476810Y5726630I-11230J9930D01*
G01*
X4414810D01*
G75*
G02*
X4403580Y5731690I10J15000D01*
G01*
X32700D01*
G37*
Y5791130D02*
G36*
X32700Y5791130D02*
Y5731690D01*
X4403580D01*
G75*
G02*
X4399810Y5741620I11240J9950D01*
G01*
Y5741630D01*
Y5791130D01*
X32700D01*
G37*
X4491810Y5741630D02*
G36*
X4491810Y5741630D02*
Y5741620D01*
G75*
G02*
X4488050Y5731690I-14990J0D01*
G01*
X5343160D01*
G75*
G02*
X5342310Y5738360I25890J6690D01*
G01*
Y5738370D01*
Y5751130D01*
X5362310D01*
Y5746630D01*
Y5746610D01*
G75*
G03*
Y5746590I14690J-10D01*
G01*
G75*
G03*
X5363310Y5741240I14810J0D01*
G01*
Y5731690D01*
X5413310D01*
Y5741240D01*
G75*
G03*
X5414310Y5746590I-13810J5350D01*
G01*
G75*
G03*
Y5746610I-14690J10D01*
G01*
Y5746630D01*
Y5751130D01*
X5434310D01*
Y5738370D01*
Y5738360D01*
G75*
G02*
X5433460Y5731690I-26740J20D01*
G01*
X5722910D01*
G75*
G02*
X5714810Y5750860I18630J19170D01*
G01*
Y5750870D01*
Y5763630D01*
X5734810D01*
Y5759130D01*
Y5759110D01*
G75*
G03*
Y5759090I14690J-10D01*
G01*
G75*
G03*
X5735810Y5753740I14810J0D01*
G01*
Y5731690D01*
X5785810D01*
Y5753740D01*
G75*
G03*
X5786810Y5759090I-13810J5350D01*
G01*
G75*
G03*
Y5759110I-14690J10D01*
G01*
Y5759130D01*
Y5763630D01*
X5806810D01*
Y5750870D01*
Y5750860D01*
G75*
G02*
X5798710Y5731690I-26730J0D01*
G01*
X6730000D01*
Y5791130D01*
X4491810D01*
Y5741630D01*
G37*
X32700Y5820570D02*
G36*
X32700Y5820570D02*
Y5791130D01*
X4399810D01*
Y5820570D01*
X32700D01*
G37*
X4491810D02*
G36*
X4491810Y5820570D02*
Y5791130D01*
X6730000D01*
Y5820570D01*
X5806810D01*
Y5813630D01*
X5786810D01*
Y5818130D01*
Y5818150D01*
G75*
G03*
Y5818170I-14690J10D01*
G01*
G75*
G03*
X5786610Y5820570I-14810J-30D01*
G01*
X5735010D01*
G75*
G03*
X5734810Y5818170I14610J-2430D01*
G01*
G75*
G03*
Y5818150I14690J-10D01*
G01*
Y5818130D01*
Y5813630D01*
X5714810D01*
Y5820570D01*
X5433460D01*
G75*
G02*
X5434310Y5813900I-25890J-6690D01*
G01*
Y5813890D01*
Y5801130D01*
X5414310D01*
Y5805630D01*
Y5805650D01*
G75*
G03*
Y5805670I-14690J10D01*
G01*
G75*
G03*
X5413310Y5811020I-14810J0D01*
G01*
Y5820570D01*
X5363310D01*
Y5811020D01*
G75*
G03*
X5362310Y5805670I13810J-5350D01*
G01*
G75*
G03*
Y5805650I14690J-10D01*
G01*
Y5805630D01*
Y5801130D01*
X5342310D01*
Y5813890D01*
Y5813900D01*
G75*
G02*
X5343160Y5820570I26740J-20D01*
G01*
X4491810D01*
G37*
X32700Y5918630D02*
G36*
X32700Y5918630D02*
Y5820570D01*
X4399810D01*
Y5840630D01*
Y5840640D01*
G75*
G02*
X4414810Y5855630I15000J0D01*
G01*
X4476810D01*
G75*
G02*
X4491810Y5840640I0J-14990D01*
G01*
Y5840630D01*
Y5820570D01*
X5343160D01*
G75*
G02*
X5363310Y5840010I25890J-6670D01*
G01*
Y5820570D01*
X5413310D01*
Y5840010D01*
G75*
G02*
X5433460Y5820570I-5740J-26110D01*
G01*
X5714810D01*
Y5826390D01*
Y5826400D01*
G75*
G02*
X5735810Y5852510I26740J0D01*
G01*
Y5823520D01*
G75*
G03*
X5735010Y5820570I13810J-5330D01*
G01*
X5786610D01*
G75*
G03*
X5785810Y5823520I-14610J-2380D01*
G01*
Y5844910D01*
X5779500Y5838600D01*
G75*
G02*
X5758280I-10610J10630D01*
G01*
X5688280Y5908600D01*
G75*
G02*
X5683900Y5918630I10620J10610D01*
G01*
X3828310D01*
Y5877630D01*
G75*
G02*
Y5877620I-52090J0D01*
G01*
G75*
G02*
X3798310Y5847630I-30000J0D01*
G01*
X3678310D01*
G75*
G02*
X3648310Y5877620I0J29990D01*
G01*
G75*
G02*
Y5877630I52090J10D01*
G01*
Y5918630D01*
X32700D01*
G37*
X5806810Y5826390D02*
G36*
X5806810Y5826390D02*
Y5820570D01*
X6730000D01*
Y5918630D01*
X5941810D01*
Y5864130D01*
Y5864120D01*
G75*
G02*
X5926810Y5849130I-15000J0D01*
G01*
X5864810D01*
G75*
G02*
X5849810Y5864120I0J14990D01*
G01*
Y5864130D01*
Y5918630D01*
X5808370D01*
X5823340Y5903660D01*
G75*
G02*
X5827730Y5893050I-10620J-10610D01*
G01*
G75*
G02*
X5823340Y5882440I-15010J0D01*
G01*
X5791480Y5850580D01*
G75*
G02*
X5806810Y5826400I-11410J-24180D01*
G01*
Y5826390D01*
G37*
X32700Y6023630D02*
G36*
X32700Y6023630D02*
Y5918630D01*
X3648310D01*
Y5959630D01*
G75*
G02*
Y5959640I52090J10D01*
G01*
G75*
G02*
X3678310Y5989630I30000J0D01*
G01*
X3798310D01*
G75*
G02*
X3828310Y5959640I0J-29990D01*
G01*
G75*
G02*
Y5959630I-52090J0D01*
G01*
Y5918630D01*
X5683900D01*
G75*
G02*
X5683890Y5919210I15050J550D01*
G01*
G75*
G02*
X5688280Y5929820I15010J0D01*
G01*
X5732120Y5973660D01*
G75*
G02*
X5753340I10610J-10630D01*
G01*
X5808370Y5918630D01*
X5849810D01*
Y5963130D01*
Y5963140D01*
G75*
G02*
X5864810Y5978130I15000J0D01*
G01*
X5926810D01*
G75*
G02*
X5941810Y5963140I0J-14990D01*
G01*
Y5963130D01*
Y5918630D01*
X6730000D01*
Y6023630D01*
X6423310D01*
Y5982630D01*
G75*
G02*
Y5982620I-52090J0D01*
G01*
G75*
G02*
X6393310Y5952630I-30000J0D01*
G01*
X6273310D01*
G75*
G02*
X6243310Y5982620I0J29990D01*
G01*
G75*
G02*
Y5982630I52090J10D01*
G01*
Y6023630D01*
X32700D01*
G37*
Y6301130D02*
G36*
X32700Y6301130D02*
Y6023630D01*
X6243310D01*
Y6064630D01*
G75*
G02*
Y6064640I52090J10D01*
G01*
G75*
G02*
X6273310Y6094630I30000J0D01*
G01*
X6393310D01*
G75*
G02*
X6423310Y6064640I0J-29990D01*
G01*
G75*
G02*
Y6064630I-52090J0D01*
G01*
Y6023630D01*
X6730000D01*
Y6301130D01*
X4706810D01*
Y6246630D01*
Y6246620D01*
G75*
G02*
X4691810Y6231630I-15000J0D01*
G01*
X4641810D01*
Y6159130D01*
Y6159120D01*
G75*
G02*
X4626810Y6144130I-15000J0D01*
G01*
X4564810D01*
G75*
G02*
X4549810Y6159120I0J14990D01*
G01*
Y6159130D01*
Y6258130D01*
Y6258140D01*
G75*
G02*
X4564810Y6273130I15000J0D01*
G01*
X4614810D01*
Y6301130D01*
X4366810D01*
Y6258630D01*
G75*
G02*
Y6258620I-52090J0D01*
G01*
G75*
G02*
X4336810Y6228630I-30000J0D01*
G01*
X4254810D01*
G75*
G02*
X4224810Y6258620I0J29990D01*
G01*
G75*
G02*
Y6258630I52090J10D01*
G01*
Y6301130D01*
X3867810D01*
Y6270130D01*
Y6270120D01*
G75*
G02*
X3852810Y6255130I-15000J0D01*
G01*
X3753810D01*
G75*
G02*
X3738810Y6270120I0J14990D01*
G01*
Y6270130D01*
Y6301130D01*
X32700D01*
G37*
Y6383630D02*
G36*
X32700Y6383630D02*
Y6301130D01*
X3738810D01*
Y6332130D01*
Y6332140D01*
G75*
G02*
X3753810Y6347130I15000J0D01*
G01*
X3852810D01*
G75*
G02*
X3867810Y6332140I0J-14990D01*
G01*
Y6332130D01*
Y6301130D01*
X4224810D01*
Y6378630D01*
G75*
G02*
Y6378640I52090J10D01*
G01*
G75*
G02*
X4225230Y6383630I29970J-10D01*
G01*
X2773810D01*
G75*
G02*
X2755810Y6377630I-18000J23990D01*
G01*
X2635810D01*
G75*
G02*
X2617810Y6383630I0J29990D01*
G01*
X1826510D01*
G75*
G02*
X1576190I-125160J62720D01*
G01*
X32700D01*
G37*
X4366810Y6378630D02*
G36*
X4366810Y6378630D02*
Y6301130D01*
X4614810D01*
Y6345630D01*
Y6345640D01*
G75*
G02*
X4629810Y6360630I15000J0D01*
G01*
X4691810D01*
G75*
G02*
X4706810Y6345640I0J-14990D01*
G01*
Y6345630D01*
Y6301130D01*
X6730000D01*
Y6383630D01*
X4566810D01*
Y6334130D01*
Y6334120D01*
G75*
G02*
X4551810Y6319130I-15000J0D01*
G01*
X4489810D01*
G75*
G02*
X4474810Y6334120I0J14990D01*
G01*
Y6334130D01*
Y6383630D01*
X4366390D01*
G75*
G02*
X4366810Y6378640I-29550J-5000D01*
G01*
G75*
G02*
Y6378630I-52090J0D01*
G01*
G37*
X32700Y6448630D02*
G36*
X32700Y6448630D02*
Y6383630D01*
X1576190D01*
G75*
G02*
X1561350Y6446350I125160J62730D01*
G01*
G75*
G02*
X1561370Y6448630I140020J-90D01*
G01*
X32700D01*
G37*
X1841350Y6446350D02*
G36*
X1841350Y6446350D02*
G75*
G02*
X1826510Y6383630I-140000J10D01*
G01*
X2617810D01*
G75*
G02*
X2605810Y6407620I17990J24000D01*
G01*
G75*
G02*
Y6407630I52090J10D01*
G01*
Y6448630D01*
X1841330D01*
G75*
G02*
X1841350Y6446350I-140000J-2370D01*
G01*
G37*
X2785810Y6448630D02*
G36*
X2785810Y6448630D02*
Y6407630D01*
G75*
G02*
Y6407620I-52090J0D01*
G01*
G75*
G02*
X2773810Y6383630I-29990J10D01*
G01*
X4225230D01*
G75*
G02*
X4254810Y6408630I29570J-4990D01*
G01*
X4336810D01*
G75*
G02*
X4366390Y6383630I10J-29990D01*
G01*
X4474810D01*
Y6433130D01*
Y6433140D01*
G75*
G02*
X4489810Y6448130I15000J0D01*
G01*
X4551810D01*
G75*
G02*
X4566810Y6433140I0J-14990D01*
G01*
Y6433130D01*
Y6383630D01*
X6730000D01*
Y6448630D01*
X5094310D01*
Y6424130D01*
Y6424120D01*
G75*
G02*
X5079310Y6409130I-15000J0D01*
G01*
X5017310D01*
G75*
G02*
X5002310Y6424120I0J14990D01*
G01*
Y6424130D01*
Y6448630D01*
X2785810D01*
G37*
X32700Y6567350D02*
G36*
X32700Y6567350D02*
Y6448630D01*
X1561370D01*
G75*
G02*
X1630930Y6567350I139980J-2280D01*
G01*
X1437520D01*
G75*
G02*
X1355180I-41170J92490D01*
G01*
X1086850D01*
G75*
G02*
X893850I-96500J0D01*
G01*
X32700D01*
G37*
X1771770D02*
G36*
X1771770Y6567350D02*
G75*
G02*
X1841330Y6448630I-70420J-121000D01*
G01*
X2605810D01*
Y6489630D01*
G75*
G02*
Y6489640I52090J10D01*
G01*
G75*
G02*
X2635810Y6519630I30000J0D01*
G01*
X2755810D01*
G75*
G02*
X2785810Y6489640I0J-29990D01*
G01*
G75*
G02*
Y6489630I-52090J0D01*
G01*
Y6448630D01*
X5002310D01*
Y6523130D01*
Y6523140D01*
G75*
G02*
X5017310Y6538130I15000J0D01*
G01*
X5079310D01*
G75*
G02*
X5094310Y6523140I0J-14990D01*
G01*
Y6523130D01*
Y6448630D01*
X6730000D01*
Y6567350D01*
X3139310D01*
Y6564130D01*
Y6564120D01*
G75*
G02*
X3124310Y6549130I-15000J0D01*
G01*
X3062310D01*
G75*
G02*
X3047310Y6564120I0J14990D01*
G01*
Y6564130D01*
Y6567350D01*
X1771770D01*
G37*
X32700Y6821350D02*
G36*
X32700Y6821350D02*
Y6567350D01*
X893850D01*
G75*
G02*
X1086850I96500J0D01*
G01*
X1355180D01*
G75*
G02*
X1295100Y6659850I41170J92500D01*
G01*
G75*
G02*
X1497600I101250J0D01*
G01*
G75*
G02*
X1437520Y6567350I-101250J0D01*
G01*
X1630930D01*
G75*
G02*
X1771770I70420J-121000D01*
G01*
X3047310D01*
Y6663130D01*
Y6663140D01*
G75*
G02*
X3062310Y6678130I15000J0D01*
G01*
X3124310D01*
G75*
G02*
X3139310Y6663140I0J-14990D01*
G01*
Y6663130D01*
Y6567350D01*
X6730000D01*
Y6821350D01*
X4984750D01*
X4967000Y6803600D01*
G75*
G02*
X4945780I-10610J10630D01*
G01*
X4928030Y6821350D01*
X2826670D01*
G75*
G02*
X2827810Y6815640I-13870J-5740D01*
G01*
Y6815630D01*
Y6753630D01*
Y6753620D01*
G75*
G02*
X2812810Y6738630I-15000J0D01*
G01*
X2713810D01*
G75*
G02*
X2698810Y6753620I0J14990D01*
G01*
Y6753630D01*
Y6815630D01*
Y6815640D01*
G75*
G02*
X2699940Y6821350I14990J0D01*
G01*
X2368470D01*
G75*
G02*
X2375350Y6786850I-83120J-34510D01*
G01*
G75*
G02*
X2195350I-90000J0D01*
G01*
G75*
G02*
X2202230Y6821350I90000J-10D01*
G01*
X1086850D01*
G75*
G02*
X893850I-96500J0D01*
G01*
X32700D01*
G37*
Y6913850D02*
G36*
X32700Y6913850D02*
Y6821350D01*
X893850D01*
G75*
G02*
X962850Y6913850I96500J0D01*
G01*
X32700D01*
G37*
X1017850D02*
G36*
X1017850Y6913850D02*
G75*
G02*
X1086850Y6821350I-27500J-92500D01*
G01*
X2202230D01*
G75*
G02*
X2368470I83120J-34500D01*
G01*
X2699940D01*
G75*
G02*
X2713810Y6830630I13860J-5710D01*
G01*
X2812810D01*
G75*
G02*
X2826670Y6821350I-10J-15000D01*
G01*
X4928030D01*
X4875780Y6873600D01*
G75*
G02*
X4871390Y6884210I10620J10610D01*
G01*
G75*
G02*
X4875780Y6894820I15010J0D01*
G01*
X4894810Y6913850D01*
X2121350D01*
G75*
G02*
X1941350I-90000J0D01*
G01*
X1017850D01*
G37*
X5010840Y6847440D02*
G36*
X5010840Y6847440D02*
X4984750Y6821350D01*
X6730000D01*
Y6913850D01*
X5800310D01*
Y6877630D01*
Y6877620D01*
G75*
G02*
X5785310Y6862630I-15000J0D01*
G01*
X5686310D01*
G75*
G02*
X5671310Y6877620I0J14990D01*
G01*
Y6877630D01*
Y6913850D01*
X5426810D01*
Y6864130D01*
Y6864120D01*
G75*
G02*
X5411810Y6849130I-15000J0D01*
G01*
X5349810D01*
G75*
G02*
X5334810Y6864120I0J14990D01*
G01*
Y6864130D01*
Y6913850D01*
X4965650D01*
X5010840Y6868660D01*
G75*
G02*
X5015230Y6858050I-10620J-10610D01*
G01*
G75*
G02*
X5010840Y6847440I-15010J0D01*
G01*
G37*
X32700Y7040850D02*
G36*
X32700Y7040850D02*
Y6913850D01*
X962850D01*
G75*
G02*
X1017850I27500J-92520D01*
G01*
X1941350D01*
G75*
G02*
X2121350I90000J0D01*
G01*
X4894810D01*
X4919620Y6938660D01*
G75*
G02*
X4940840I10610J-10630D01*
G01*
X4965650Y6913850D01*
X5334810D01*
Y6963130D01*
Y6963140D01*
G75*
G02*
X5349810Y6978130I15000J0D01*
G01*
X5411810D01*
G75*
G02*
X5426810Y6963140I0J-14990D01*
G01*
Y6963130D01*
Y6913850D01*
X5671310D01*
Y6939630D01*
Y6939640D01*
G75*
G02*
X5686310Y6954630I15000J0D01*
G01*
X5785310D01*
G75*
G02*
X5800310Y6939640I0J-14990D01*
G01*
Y6939630D01*
Y6913850D01*
X6730000D01*
Y7040850D01*
X4939250D01*
X4899500Y7001100D01*
G75*
G02*
X4878280I-10610J10630D01*
G01*
X4838530Y7040850D01*
X3369310D01*
Y7021630D01*
Y7021620D01*
G75*
G02*
X3354310Y7006630I-15000J0D01*
G01*
X3292310D01*
G75*
G02*
X3277310Y7021620I0J14990D01*
G01*
Y7021630D01*
Y7040850D01*
X2822810D01*
Y6980130D01*
Y6980120D01*
G75*
G02*
X2807810Y6965130I-15000J0D01*
G01*
X2708810D01*
G75*
G02*
X2693810Y6980120I0J14990D01*
G01*
Y6980130D01*
Y7040850D01*
X2375350D01*
G75*
G02*
X2195350I-90000J0D01*
G01*
X32700D01*
G37*
Y7167850D02*
G36*
X32700Y7167850D02*
Y7040850D01*
X2195350D01*
G75*
G02*
X2375350I90000J0D01*
G01*
X2693810D01*
Y7042130D01*
Y7042140D01*
G75*
G02*
X2708810Y7057130I15000J0D01*
G01*
X2807810D01*
G75*
G02*
X2822810Y7042140I0J-14990D01*
G01*
Y7042130D01*
Y7040850D01*
X3277310D01*
Y7120630D01*
Y7120640D01*
G75*
G02*
X3292310Y7135630I15000J0D01*
G01*
X3354310D01*
G75*
G02*
X3369310Y7120640I0J-14990D01*
G01*
Y7120630D01*
Y7040850D01*
X4838530D01*
X4808280Y7071100D01*
G75*
G02*
X4803890Y7081710I10620J10610D01*
G01*
G75*
G02*
X4808280Y7092320I15010J0D01*
G01*
X4852120Y7136160D01*
G75*
G02*
X4873340I10610J-10630D01*
G01*
X4943340Y7066160D01*
G75*
G02*
X4947730Y7055550I-10620J-10610D01*
G01*
G75*
G02*
X4943340Y7044940I-15010J0D01*
G01*
X4939250Y7040850D01*
X6730000D01*
Y7167850D01*
X6192310D01*
G75*
G02*
X6164310Y7148630I-27990J10780D01*
G01*
X6082310D01*
G75*
G02*
X6054310Y7167850I-10J30000D01*
G01*
X5785800D01*
G75*
G02*
X5790310Y7157140I-10490J-10720D01*
G01*
Y7157130D01*
Y7095130D01*
Y7095120D01*
G75*
G02*
X5775310Y7080130I-15000J0D01*
G01*
X5676310D01*
G75*
G02*
X5661310Y7095120I0J14990D01*
G01*
Y7095130D01*
Y7157130D01*
Y7157140D01*
G75*
G02*
X5665810Y7167850I14990J0D01*
G01*
X2121350D01*
G75*
G02*
X1941350I-90000J0D01*
G01*
X32700D01*
G37*
Y7294850D02*
G36*
X32700Y7294850D02*
Y7167850D01*
X1941350D01*
G75*
G02*
X2121350I90000J0D01*
G01*
X5665810D01*
G75*
G02*
X5676310Y7172130I10490J-10710D01*
G01*
X5775310D01*
G75*
G02*
X5785800Y7167850I0J-15010D01*
G01*
X6054310D01*
G75*
G02*
X6052310Y7178620I27980J10770D01*
G01*
G75*
G02*
Y7178630I52090J10D01*
G01*
Y7294850D01*
X4806810D01*
Y7294130D01*
Y7294120D01*
G75*
G02*
X4791810Y7279130I-15000J0D01*
G01*
X4729810D01*
G75*
G02*
X4714810Y7294120I0J14990D01*
G01*
Y7294130D01*
Y7294850D01*
X3550600D01*
G75*
G02*
X3517570Y7278630I-33030J25520D01*
G01*
X3513310D01*
Y7294850D01*
X3463310D01*
Y7278630D01*
X3459050D01*
G75*
G02*
X3426020Y7294850I0J41740D01*
G01*
X3304310D01*
Y7284130D01*
Y7284120D01*
G75*
G02*
X3289310Y7269130I-15000J0D01*
G01*
X3227310D01*
G75*
G02*
X3212310Y7284120I0J14990D01*
G01*
Y7284130D01*
Y7294850D01*
X2715750D01*
X2707000Y7286100D01*
G75*
G02*
X2685780I-10610J10630D01*
G01*
X2677030Y7294850D01*
X2375350D01*
G75*
G02*
X2195350I-90000J0D01*
G01*
X32700D01*
G37*
X6194310D02*
G36*
X6194310Y7294850D02*
Y7178630D01*
G75*
G02*
Y7178620I-52090J0D01*
G01*
G75*
G02*
X6192310Y7167850I-29980J0D01*
G01*
X6730000D01*
Y7294850D01*
X6194310D01*
G37*
X32700Y7421850D02*
G36*
X32700Y7421850D02*
Y7294850D01*
X2195350D01*
G75*
G02*
X2375350I90000J0D01*
G01*
X2677030D01*
X2615780Y7356100D01*
G75*
G02*
X2611390Y7366710I10620J10610D01*
G01*
G75*
G02*
X2615780Y7377320I15010J0D01*
G01*
X2659620Y7421160D01*
G75*
G02*
X2660360Y7421850I10610J-10640D01*
G01*
X2121350D01*
G75*
G02*
X1941350I-90000J0D01*
G01*
X32700D01*
G37*
X2680100D02*
G36*
X2680100Y7421850D02*
G75*
G02*
X2680840Y7421160I-9870J-11330D01*
G01*
X2750840Y7351160D01*
G75*
G02*
X2755230Y7340550I-10620J-10610D01*
G01*
G75*
G02*
X2750840Y7329940I-15010J0D01*
G01*
X2715750Y7294850D01*
X3212310D01*
Y7383130D01*
Y7383140D01*
G75*
G02*
X3227310Y7398130I15000J0D01*
G01*
X3289310D01*
G75*
G02*
X3304310Y7383140I0J-14990D01*
G01*
Y7383130D01*
Y7294850D01*
X3426020D01*
G75*
G02*
X3417310Y7320370I33030J25520D01*
G01*
Y7343630D01*
X3437310D01*
Y7328630D01*
G75*
G03*
X3463310Y7298900I30000J0D01*
G01*
Y7294850D01*
X3513310D01*
Y7298900D01*
G75*
G03*
X3539310Y7328630I-4000J29730D01*
G01*
Y7343630D01*
X3559310D01*
Y7320370D01*
G75*
G02*
X3550600Y7294850I-41740J0D01*
G01*
X4714810D01*
Y7393130D01*
Y7393140D01*
G75*
G02*
X4729810Y7408130I15000J0D01*
G01*
X4791810D01*
G75*
G02*
X4806810Y7393140I0J-14990D01*
G01*
Y7393130D01*
Y7294850D01*
X6052310D01*
Y7298630D01*
G75*
G02*
Y7298640I52090J10D01*
G01*
G75*
G02*
X6082310Y7328630I30000J0D01*
G01*
X6164310D01*
G75*
G02*
X6194310Y7298640I0J-29990D01*
G01*
G75*
G02*
Y7298630I-52090J0D01*
G01*
Y7294850D01*
X6730000D01*
Y7421850D01*
X3559010D01*
G75*
G02*
X3559310Y7416890I-41450J-5000D01*
G01*
Y7393630D01*
X3539310D01*
Y7408630D01*
G75*
G03*
X3536240Y7421850I-30000J0D01*
G01*
X3440380D01*
G75*
G03*
X3437310Y7408630I26930J-13220D01*
G01*
Y7393630D01*
X3417310D01*
Y7416890D01*
G75*
G02*
X3417610Y7421850I41750J-40D01*
G01*
X2680100D01*
G37*
X32700Y7548850D02*
G36*
X32700Y7548850D02*
Y7421850D01*
X1941350D01*
G75*
G02*
X2121350I90000J0D01*
G01*
X2660360D01*
G75*
G02*
X2680100I9870J-11320D01*
G01*
X3417610D01*
G75*
G02*
X3459050Y7458630I41440J-4960D01*
G01*
X3463310D01*
Y7438360D01*
G75*
G03*
X3440380Y7421850I4000J-29730D01*
G01*
X3536240D01*
G75*
G03*
X3513310Y7438360I-26930J-13220D01*
G01*
Y7458630D01*
X3517570D01*
G75*
G02*
X3559010Y7421850I0J-41740D01*
G01*
X6730000D01*
Y7548850D01*
X4971810D01*
Y7526630D01*
Y7526620D01*
G75*
G02*
X4956810Y7511630I-15000J0D01*
G01*
X4894810D01*
G75*
G02*
X4879810Y7526620I0J14990D01*
G01*
Y7526630D01*
Y7548850D01*
X2750370D01*
X2771950Y7527270D01*
G75*
G02*
X2776340Y7516660I-10620J-10610D01*
G01*
G75*
G02*
X2771950Y7506050I-15010J0D01*
G01*
X2728110Y7462210D01*
G75*
G02*
X2706890I-10610J10630D01*
G01*
X2636890Y7532210D01*
G75*
G02*
X2632500Y7542820I10620J10610D01*
G01*
G75*
G02*
X2633760Y7548850I15010J10D01*
G01*
X2375350D01*
G75*
G02*
X2195350I-90000J0D01*
G01*
X1017850D01*
G75*
G02*
X962850I-27500J92520D01*
G01*
X32700D01*
G37*
Y7641350D02*
G36*
X32700Y7641350D02*
Y7548850D01*
X962850D01*
G75*
G02*
X893850Y7641350I27500J92500D01*
G01*
X32700D01*
G37*
X1086850D02*
G36*
X1086850Y7641350D02*
G75*
G02*
X1017850Y7548850I-96500J0D01*
G01*
X2195350D01*
G75*
G02*
X2375350I90000J0D01*
G01*
X2633760D01*
G75*
G02*
X2636890Y7553430I13750J-6040D01*
G01*
X2680730Y7597270D01*
G75*
G02*
X2701950I10610J-10630D01*
G01*
X2750370Y7548850D01*
X4879810D01*
Y7625630D01*
Y7625640D01*
G75*
G02*
X4894810Y7640630I15000J0D01*
G01*
X4956810D01*
G75*
G02*
X4971810Y7625640I0J-14990D01*
G01*
Y7625630D01*
Y7548850D01*
X6730000D01*
Y7641350D01*
X2121350D01*
Y7585850D01*
X1941350D01*
Y7641350D01*
X1086850D01*
G37*
X32700Y7733630D02*
G36*
X32700Y7733630D02*
Y7641350D01*
X893850D01*
G75*
G02*
X962120Y7733630I96500J0D01*
G01*
X32700D01*
G37*
X1018580D02*
G36*
X1018580Y7733630D02*
G75*
G02*
X1086850Y7641350I-28230J-92280D01*
G01*
X1941350D01*
Y7733630D01*
X1470240D01*
G75*
G02*
X1322460I-73890J69220D01*
G01*
X1018580D01*
G37*
X2121350D02*
G36*
X2121350Y7733630D02*
Y7641350D01*
X6730000D01*
Y7733630D01*
X4806810D01*
Y7679130D01*
Y7679120D01*
G75*
G02*
X4791810Y7664130I-15000J0D01*
G01*
X4729810D01*
G75*
G02*
X4714810Y7679120I0J14990D01*
G01*
Y7679130D01*
Y7733630D01*
X3369310D01*
Y7673630D01*
G75*
G02*
Y7673620I-52090J0D01*
G01*
G75*
G02*
X3339310Y7643630I-30000J0D01*
G01*
X3257310D01*
G75*
G02*
X3227310Y7673620I0J29990D01*
G01*
G75*
G02*
Y7673630I52090J10D01*
G01*
Y7733630D01*
X2121350D01*
G37*
X32700Y7828630D02*
G36*
X32700Y7828630D02*
Y7733630D01*
X962120D01*
G75*
G02*
X1018580I28230J-92300D01*
G01*
X1322460D01*
G75*
G02*
X1295100Y7802850I73890J69220D01*
G01*
G75*
G02*
X1298440Y7828630I101260J-10D01*
G01*
X1060070D01*
G75*
G02*
X920630I-69720J66720D01*
G01*
X32700D01*
G37*
X1497600Y7802850D02*
G36*
X1497600Y7802850D02*
G75*
G02*
X1470240Y7733630I-101250J0D01*
G01*
X1941350D01*
Y7765850D01*
X2121350D01*
Y7733630D01*
X3227310D01*
Y7793630D01*
G75*
G02*
Y7793640I52090J10D01*
G01*
G75*
G02*
X3257310Y7823630I30000J0D01*
G01*
X3339310D01*
G75*
G02*
X3369310Y7793640I0J-29990D01*
G01*
G75*
G02*
Y7793630I-52090J0D01*
G01*
Y7733630D01*
X4714810D01*
Y7778130D01*
Y7778140D01*
G75*
G02*
X4729810Y7793130I15000J0D01*
G01*
X4791810D01*
G75*
G02*
X4806810Y7778140I0J-14990D01*
G01*
Y7778130D01*
Y7733630D01*
X6730000D01*
Y7828630D01*
X4296810D01*
Y7779130D01*
Y7779120D01*
G75*
G02*
X4281810Y7764130I-15000J0D01*
G01*
X4219810D01*
G75*
G02*
X4204810Y7779120I0J14990D01*
G01*
Y7779130D01*
Y7828630D01*
X4022030D01*
X3987000Y7793600D01*
G75*
G02*
X3965780I-10610J10630D01*
G01*
X3930750Y7828630D01*
X2957370D01*
G75*
G02*
X2935010Y7818630I-22360J19990D01*
G01*
X2853010D01*
G75*
G02*
X2830650Y7828630I0J29990D01*
G01*
X1494260D01*
G75*
G02*
X1497600Y7802850I-97920J-25790D01*
G01*
G37*
X32700Y7895350D02*
G36*
X32700Y7895350D02*
Y7828630D01*
X920630D01*
G75*
G02*
X893850Y7895350I69720J66720D01*
G01*
X32700D01*
G37*
X1086850D02*
G36*
X1086850Y7895350D02*
G75*
G02*
X1060070Y7828630I-96500J0D01*
G01*
X1298440D01*
G75*
G02*
X1355180Y7895350I97920J-25780D01*
G01*
X1086850D01*
G37*
X1437520D02*
G36*
X1437520Y7895350D02*
G75*
G02*
X1494260Y7828630I-41180J-92500D01*
G01*
X2830650D01*
G75*
G02*
X2823010Y7848620I22350J20000D01*
G01*
G75*
G02*
Y7848630I52090J10D01*
G01*
Y7895350D01*
X1771770D01*
G75*
G02*
X1630930I-70420J121000D01*
G01*
X1437520D01*
G37*
X2965010D02*
G36*
X2965010Y7895350D02*
Y7848630D01*
G75*
G02*
Y7848620I-52090J0D01*
G01*
G75*
G02*
X2957370Y7828630I-29990J10D01*
G01*
X3930750D01*
X3895780Y7863600D01*
G75*
G02*
X3891390Y7874210I10620J10610D01*
G01*
G75*
G02*
X3895780Y7884820I15010J0D01*
G01*
X3906310Y7895350D01*
X2965010D01*
G37*
X4030840Y7837440D02*
G36*
X4030840Y7837440D02*
X4022030Y7828630D01*
X4204810D01*
Y7878130D01*
Y7878140D01*
G75*
G02*
X4219810Y7893130I15000J0D01*
G01*
X4281810D01*
G75*
G02*
X4296810Y7878140I0J-14990D01*
G01*
Y7878130D01*
Y7828630D01*
X6730000D01*
Y7895350D01*
X3994150D01*
X4030840Y7858660D01*
G75*
G02*
X4035230Y7848050I-10620J-10610D01*
G01*
G75*
G02*
X4030840Y7837440I-15010J0D01*
G01*
G37*
X32700Y8268630D02*
G36*
X32700Y8268630D02*
Y7895350D01*
X893850D01*
G75*
G02*
X1086850I96500J0D01*
G01*
X1355180D01*
G75*
G02*
X1437520I41170J-92490D01*
G01*
X1630930D01*
G75*
G02*
X1561350Y8016350I70420J121000D01*
G01*
G75*
G02*
X1841350I140000J0D01*
G01*
G75*
G02*
X1771770Y7895350I-140000J0D01*
G01*
X2823010D01*
Y7968630D01*
G75*
G02*
Y7968640I52090J10D01*
G01*
G75*
G02*
X2853010Y7998630I30000J0D01*
G01*
X2935010D01*
G75*
G02*
X2965010Y7968640I0J-29990D01*
G01*
G75*
G02*
Y7968630I-52090J0D01*
G01*
Y7895350D01*
X3906310D01*
X3939620Y7928660D01*
G75*
G02*
X3960840I10610J-10630D01*
G01*
X3994150Y7895350D01*
X6730000D01*
Y8268630D01*
X5503810D01*
G75*
G02*
X5393810Y8158630I-110000J0D01*
G01*
G75*
G02*
X5283810Y8268630I0J110000D01*
G01*
X5249810D01*
G75*
G02*
X5139810Y8158630I-110000J0D01*
G01*
G75*
G02*
X5029810Y8268630I0J110000D01*
G01*
X4995810D01*
G75*
G02*
X4885810Y8158630I-110000J0D01*
G01*
G75*
G02*
X4775810Y8268630I0J110000D01*
G01*
X4741810D01*
G75*
G02*
X4631810Y8158630I-110000J0D01*
G01*
G75*
G02*
X4521810Y8268630I0J110000D01*
G01*
X4487810D01*
G75*
G02*
X4377810Y8158630I-110000J0D01*
G01*
G75*
G02*
X4267810Y8268630I0J110000D01*
G01*
X4233810D01*
G75*
G02*
X4123810Y8158630I-110000J0D01*
G01*
G75*
G02*
X4013810Y8268630I0J110000D01*
G01*
X3979810D01*
G75*
G02*
X3869810Y8158630I-110000J0D01*
G01*
G75*
G02*
X3759810Y8268630I0J110000D01*
G01*
X3725810D01*
G75*
G02*
X3615810Y8158630I-110000J0D01*
G01*
G75*
G02*
X3505810Y8268630I0J110000D01*
G01*
X32700D01*
G37*
Y8522630D02*
G36*
X32700Y8522630D02*
Y8268630D01*
X3505810D01*
G75*
G02*
X3615810Y8378630I110000J0D01*
G01*
G75*
G02*
X3725810Y8268630I0J-110000D01*
G01*
X3759810D01*
G75*
G02*
X3869810Y8378630I110000J0D01*
G01*
G75*
G02*
X3979810Y8268630I0J-110000D01*
G01*
X4013810D01*
G75*
G02*
X4123810Y8378630I110000J0D01*
G01*
G75*
G02*
X4233810Y8268630I0J-110000D01*
G01*
X4267810D01*
G75*
G02*
X4377810Y8378630I110000J0D01*
G01*
G75*
G02*
X4487810Y8268630I0J-110000D01*
G01*
X4521810D01*
G75*
G02*
X4631810Y8378630I110000J0D01*
G01*
G75*
G02*
X4741810Y8268630I0J-110000D01*
G01*
X4775810D01*
G75*
G02*
X4885810Y8378630I110000J0D01*
G01*
G75*
G02*
X4995810Y8268630I0J-110000D01*
G01*
X5029810D01*
G75*
G02*
X5139810Y8378630I110000J0D01*
G01*
G75*
G02*
X5249810Y8268630I0J-110000D01*
G01*
X5283810D01*
G75*
G02*
X5393810Y8378630I110000J0D01*
G01*
G75*
G02*
X5503810Y8268630I0J-110000D01*
G01*
X6730000D01*
Y8522630D01*
X6728310D01*
Y8468630D01*
G75*
G02*
X6628310Y8368630I-100000J0D01*
G01*
X6288310D01*
G75*
G02*
X6188310Y8468630I0J100000D01*
G01*
Y8522630D01*
X5503810D01*
G75*
G02*
X5393810Y8412630I-110000J0D01*
G01*
G75*
G02*
X5283810Y8522630I0J110000D01*
G01*
X5249810D01*
G75*
G02*
X5139810Y8412630I-110000J0D01*
G01*
G75*
G02*
X5029810Y8522630I0J110000D01*
G01*
X4995810D01*
G75*
G02*
X4885810Y8412630I-110000J0D01*
G01*
G75*
G02*
X4775810Y8522630I0J110000D01*
G01*
X4741810D01*
G75*
G02*
X4631810Y8412630I-110000J0D01*
G01*
G75*
G02*
X4521810Y8522630I0J110000D01*
G01*
X4487810D01*
G75*
G02*
X4377810Y8412630I-110000J0D01*
G01*
G75*
G02*
X4267810Y8522630I0J110000D01*
G01*
X4233810D01*
G75*
G02*
X4123810Y8412630I-110000J0D01*
G01*
G75*
G02*
X4013810Y8522630I0J110000D01*
G01*
X3979810D01*
G75*
G02*
X3869810Y8412630I-110000J0D01*
G01*
G75*
G02*
X3759810Y8522630I0J110000D01*
G01*
X3725810D01*
G75*
G02*
X3615810Y8412630I-110000J0D01*
G01*
G75*
G02*
X3505810Y8522630I0J110000D01*
G01*
X588310D01*
Y8468630D01*
G75*
G02*
X488310Y8368630I-100000J0D01*
G01*
X148310D01*
G75*
G02*
X48310Y8468630I0J100000D01*
G01*
Y8522630D01*
X32700D01*
G37*
Y8786350D02*
G36*
X32700Y8786350D02*
Y8522630D01*
X48310D01*
Y8808630D01*
G75*
G02*
X108400Y8900320I100000J0D01*
G01*
G75*
G03*
X32700Y8786350I47950J-113970D01*
G01*
G37*
X120430Y8904660D02*
G36*
X120430Y8904660D02*
G75*
G02*
X148310Y8908630I27920J-96170D01*
G01*
X488310D01*
G75*
G02*
X588310Y8808630I0J-100000D01*
G01*
Y8522630D01*
X3505810D01*
G75*
G02*
X3615810Y8632630I110000J0D01*
G01*
G75*
G02*
X3725810Y8522630I0J-110000D01*
G01*
X3759810D01*
G75*
G02*
X3869810Y8632630I110000J0D01*
G01*
G75*
G02*
X3979810Y8522630I0J-110000D01*
G01*
X4013810D01*
G75*
G02*
X4123810Y8632630I110000J0D01*
G01*
G75*
G02*
X4233810Y8522630I0J-110000D01*
G01*
X4267810D01*
G75*
G02*
X4377810Y8632630I110000J0D01*
G01*
G75*
G02*
X4487810Y8522630I0J-110000D01*
G01*
X4521810D01*
G75*
G02*
X4631810Y8632630I110000J0D01*
G01*
G75*
G02*
X4741810Y8522630I0J-110000D01*
G01*
X4775810D01*
G75*
G02*
X4885810Y8632630I110000J0D01*
G01*
G75*
G02*
X4995810Y8522630I0J-110000D01*
G01*
X5029810D01*
G75*
G02*
X5139810Y8632630I110000J0D01*
G01*
G75*
G02*
X5249810Y8522630I0J-110000D01*
G01*
X5283810D01*
G75*
G02*
X5393810Y8632630I110000J0D01*
G01*
G75*
G02*
X5503810Y8522630I0J-110000D01*
G01*
X6188310D01*
Y8808630D01*
G75*
G02*
X6288310Y8908630I100000J0D01*
G01*
X6624690D01*
G75*
G03*
X6606530Y8910000I-18250J-120870D01*
G01*
X6606350D01*
X156350D01*
X156280D01*
G75*
G03*
X120430Y8904660I40J-123250D01*
G01*
G37*
X6728310Y8806710D02*
G36*
X6728310Y8806710D02*
Y8522630D01*
X6730000D01*
Y8786350D01*
Y8786480D01*
G75*
G03*
X6728310Y8806710I-122700J-70D01*
G01*
G37*
X528310Y4141150D02*
G75*
G02*
X521780Y4133630I-45030J32510D01*
G01*
G75*
G02*
X528310Y4126110I-38500J-40030D01*
G01*
G75*
G02*
X534840Y4133630I45030J-32510D01*
G01*
G75*
G02*
X528310Y4141150I38500J40030D01*
G01*
G36*
X528310Y4141150D02*
G75*
G02*
X521780Y4133630I-45030J32510D01*
G01*
G75*
G02*
X528310Y4126110I-38500J-40030D01*
G01*
G75*
G02*
X534840Y4133630I45030J-32510D01*
G01*
G75*
G02*
X528310Y4141150I38500J40030D01*
G01*
G37*
Y4221150D02*
G75*
G02*
X521780Y4213630I-45030J32510D01*
G01*
G75*
G02*
X528310Y4206110I-38500J-40030D01*
G01*
G75*
G02*
X534840Y4213630I45030J-32510D01*
G01*
G75*
G02*
X528310Y4221150I38500J40030D01*
G01*
G36*
X528310Y4221150D02*
G75*
G02*
X521780Y4213630I-45030J32510D01*
G01*
G75*
G02*
X528310Y4206110I-38500J-40030D01*
G01*
G75*
G02*
X534840Y4213630I45030J-32510D01*
G01*
G75*
G02*
X528310Y4221150I38500J40030D01*
G01*
G37*
Y4301150D02*
G75*
G02*
X521780Y4293630I-45030J32510D01*
G01*
G75*
G02*
X528310Y4286110I-38500J-40030D01*
G01*
G75*
G02*
X534840Y4293630I45030J-32510D01*
G01*
G75*
G02*
X528310Y4301150I38500J40030D01*
G01*
G36*
X528310Y4301150D02*
G75*
G02*
X521780Y4293630I-45030J32510D01*
G01*
G75*
G02*
X528310Y4286110I-38500J-40030D01*
G01*
G75*
G02*
X534840Y4293630I45030J-32510D01*
G01*
G75*
G02*
X528310Y4301150I38500J40030D01*
G01*
G37*
Y4381150D02*
G75*
G02*
X521780Y4373630I-45030J32510D01*
G01*
G75*
G02*
X528310Y4366110I-38500J-40030D01*
G01*
G75*
G02*
X534840Y4373630I45030J-32510D01*
G01*
G75*
G02*
X528310Y4381150I38500J40030D01*
G01*
G36*
X528310Y4381150D02*
G75*
G02*
X521780Y4373630I-45030J32510D01*
G01*
G75*
G02*
X528310Y4366110I-38500J-40030D01*
G01*
G75*
G02*
X534840Y4373630I45030J-32510D01*
G01*
G75*
G02*
X528310Y4381150I38500J40030D01*
G01*
G37*
X1270810Y5583640D02*
G75*
G02*
X1208300Y5521130I-87510J25000D01*
G01*
G75*
G02*
X1270810Y5458620I-25000J-87510D01*
G01*
G75*
G02*
X1333320Y5521130I87510J-25000D01*
G01*
G75*
G02*
X1270810Y5583640I25000J87510D01*
G01*
G36*
X1270810Y5583640D02*
G75*
G02*
X1208300Y5521130I-87510J25000D01*
G01*
G75*
G02*
X1270810Y5458620I-25000J-87510D01*
G01*
G75*
G02*
X1333320Y5521130I87510J-25000D01*
G01*
G75*
G02*
X1270810Y5583640I25000J87510D01*
G01*
G37*
X1445810D02*
G75*
G02*
X1383300Y5521130I-87510J25000D01*
G01*
G75*
G02*
X1445810Y5458620I-25000J-87510D01*
G01*
G75*
G02*
X1508320Y5521130I87510J-25000D01*
G01*
G75*
G02*
X1445810Y5583640I25000J87510D01*
G01*
G36*
X1445810Y5583640D02*
G75*
G02*
X1383300Y5521130I-87510J25000D01*
G01*
G75*
G02*
X1445810Y5458620I-25000J-87510D01*
G01*
G75*
G02*
X1508320Y5521130I87510J-25000D01*
G01*
G75*
G02*
X1445810Y5583640I25000J87510D01*
G01*
G37*
X0Y0D02*
M02*
