G04 DesignSpark PCB Gerber Version 11.0 Build 5877*
G04 #@! TF.Part,Single*
G04 #@! TF.FileFunction,Soldermask,Bot*
G04 #@! TF.FilePolarity,Negative*
%FSLAX35Y35*%
%MOMM*%
G04 #@! TA.AperFunction,ComponentPad*
%ADD94R,1.55240X1.55240*%
%ADD98R,1.67640X1.67640*%
%ADD90R,2.55240X2.55240*%
%ADD99C,1.36940*%
%ADD102C,1.46840*%
%ADD95C,1.55240*%
%ADD93C,1.65240*%
%ADD96C,1.68240*%
%ADD97C,1.77740*%
%ADD92C,1.95240*%
%ADD91C,2.55240*%
%AMT101*0 Rounded Rectangle Pad at angle 0*4,1,76,-1.53140,-2.57620,1.53140,-2.57620,1.62250,-2.57220,1.71290,-2.56030,1.80190,-2.54060,1.88880,-2.51320,1.97300,-2.47830,2.05380,-2.43620,2.13070,-2.38720,2.20300,-2.33170,2.27020,-2.27010,2.33180,-2.20290,2.38730,-2.13060,2.43630,-2.05370,2.47840,-1.97280,2.51330,-1.88860,2.54070,-1.80170,2.56040,-1.71270,2.57230,-1.62230,2.57620,-1.53140,2.57620,1.53140,2.57220,1.62250,2.56030,1.71290,2.54060,1.80190,2.51320,1.88880,2.47830,1.97300,2.43620,2.05380,2.38720,2.13070,2.33170,2.20300,2.27010,2.27020,2.20290,2.33180,2.13060,2.38730,2.05370,2.43630,1.97280,2.47840,1.88860,2.51330,1.80170,2.54070,1.71270,2.56040,1.62230,2.57230,1.53140,2.57620,-1.53140,2.57620,-1.62250,2.57220,-1.71290,2.56030,-1.80190,2.54060,-1.88880,2.51320,-1.97300,2.47830,-2.05380,2.43620,-2.13070,2.38720,-2.20300,2.33170,-2.27020,2.27010,-2.33180,2.20290,-2.38730,2.13060,-2.43630,2.05370,-2.47840,1.97280,-2.51330,1.88860,-2.54070,1.80170,-2.56040,1.71270,-2.57230,1.62230,-2.57620,1.53140,-2.57620,-1.53140,-2.57220,-1.62250,-2.56030,-1.71290,-2.54060,-1.80190,-2.51320,-1.88880,-2.47830,-1.97300,-2.43620,-2.05380,-2.38720,-2.13070,-2.33170,-2.20300,-2.27010,-2.27020,-2.20290,-2.33180,-2.13060,-2.38730,-2.05370,-2.43630,-1.97280,-2.47840,-1.88860,-2.51330,-1.80170,-2.54070,-1.71270,-2.56040,-1.62230,-2.57230,-1.53140,-2.57620,0*%
%ADD101T101*%
%ADD100R,2.18440X1.67640*%
G04 #@! TD.AperFunction*
X0Y0D02*
D02*
D90*
X638310Y2708630D03*
D02*
D91*
Y1184630D03*
Y1692630D03*
Y2200630D03*
X1701350Y6446350D03*
Y8016350D03*
D02*
D92*
X3615810Y8268630D03*
Y8522630D03*
X3869810Y8268630D03*
Y8522630D03*
X4123810Y8268630D03*
Y8522630D03*
X4377810Y8268630D03*
Y8522630D03*
X4631810Y8268630D03*
Y8522630D03*
X4885810Y8268630D03*
Y8522630D03*
X5139810Y8268630D03*
Y8522630D03*
X5393810Y8268630D03*
Y8522630D03*
D02*
D93*
X5986350Y881350D03*
Y1531350D03*
X6436350Y881350D03*
Y1531350D03*
D02*
D94*
X2031350Y7675850D03*
D02*
D95*
Y6913850D03*
Y7167850D03*
Y7421850D03*
X2285350Y6786850D03*
Y7040850D03*
Y7294850D03*
Y7548850D03*
D02*
D96*
X990350Y6567350D03*
Y6821350D03*
Y7641350D03*
Y7895350D03*
D02*
D97*
X1396350Y6659850D03*
Y7802850D03*
D02*
D98*
X3215840Y4424390D03*
X4151640Y340310D03*
X4409810Y343630D03*
X4663810D03*
X4917810D03*
X5171810D03*
X5425810D03*
X5643310Y866130D03*
Y1120130D03*
D02*
D99*
X1084310Y3244390D03*
Y3752390D03*
D02*
D100*
X2316350Y336350D03*
Y590350D03*
X2916350Y336350D03*
Y590350D03*
D02*
D101*
X318310Y318630D03*
Y8638630D03*
X6458310Y318630D03*
Y8638630D03*
D02*
D102*
X1088310Y351130D03*
X1593310D03*
X0Y0D02*
M02*
