G04 DesignSpark PCB Gerber Version 11.0 Build 5877*
G04 #@! TF.Part,Single*
G04 #@! TF.FileFunction,Paste,Top*
G04 #@! TF.FilePolarity,Positive*
%FSLAX35Y35*%
%MOMM*%
G04 #@! TA.AperFunction,SMDPad,CuDef*
%ADD117R,0.39760X1.69760*%
%ADD133R,0.84760X1.29760*%
%ADD135R,1.04760X1.36760*%
%ADD125R,1.04760X1.64760*%
%ADD110R,1.14300X1.37160*%
%ADD121R,1.14760X1.64760*%
%ADD114R,1.24460X1.37160*%
%ADD108R,1.37160X2.12760*%
%ADD118R,1.44760X2.99760*%
%ADD113R,1.59760X3.04760*%
%ADD124R,1.99760X2.04760*%
%ADD126R,1.99760X2.14760*%
%ADD105R,2.24760X2.94760*%
%ADD120R,3.19760X3.44760*%
%ADD129R,1.34760X1.34760*%
%ADD127R,2.14760X0.04760*%
%ADD128R,1.64760X0.29760*%
%ADD104R,1.37260X0.49760*%
%ADD131R,1.24760X0.64760*%
%ADD134R,1.34760X0.64760*%
%ADD130R,1.34760X0.74760*%
%ADD112R,1.59760X0.79760*%
%ADD132R,1.39760X0.84760*%
%ADD122R,1.36760X1.04760*%
%ADD123R,1.64760X1.04760*%
%ADD115R,1.37160X1.14300*%
%ADD116R,1.64760X1.14760*%
%ADD107R,1.37160X1.24460*%
%ADD119R,1.47760X1.37760*%
%ADD111R,2.09760X1.59760*%
%ADD106R,3.99760X1.99760*%
%ADD109R,6.58760X6.07760*%
G04 #@! TD.AperFunction*
X0Y0D02*
D02*
D104*
X262110Y4055850D03*
Y4182850D03*
Y4309850D03*
Y4436850D03*
X804510Y4055850D03*
Y4182850D03*
Y4309850D03*
Y4436850D03*
D02*
D105*
X533310Y4246350D03*
D02*
D106*
X2305810Y2173630D03*
X2313310Y3341890D03*
X3155810Y2173630D03*
X3163310Y3341890D03*
D02*
D107*
X394010Y3776130D03*
X477050Y4661350D03*
X622610Y3776130D03*
X705650Y4661350D03*
X2864010Y6456630D03*
X2894010Y7734630D03*
X3092610Y6456630D03*
X3122610Y7734630D03*
X3735010Y3612630D03*
X3736010Y3827630D03*
X3963610Y3612630D03*
X3964010Y2256350D03*
X3964610Y3827630D03*
X4079010Y2946350D03*
X4192610Y2256350D03*
X4307610Y2946350D03*
X4774010Y1956130D03*
X4776510Y2163630D03*
X5002610Y1956130D03*
X5005110Y2163630D03*
X6081510Y5896130D03*
X6310110D03*
D02*
D108*
X1129310Y4716470D03*
X1587310D03*
D02*
D109*
X1358310Y5430970D03*
D02*
D110*
X418060Y3243630D03*
X420560Y3453630D03*
X608560Y3243630D03*
X611060Y3453630D03*
X1103060Y5941130D03*
X1293560D03*
X1588060Y6093630D03*
X1778560D03*
X2913060Y6783630D03*
Y7008630D03*
Y7234630D03*
Y7458630D03*
X3103560Y6783630D03*
Y7008630D03*
Y7234630D03*
Y7458630D03*
X3473060Y6306130D03*
X3480560Y6091130D03*
X3663560Y6306130D03*
X3671060Y6091130D03*
X4410560Y703630D03*
X4601060D03*
X5645560Y6158630D03*
X5836060D03*
X6090560Y3216130D03*
X6281060D03*
D02*
D111*
X2353340Y4144390D03*
Y4444390D03*
X2753340Y4144390D03*
Y4444390D03*
D02*
D112*
X2381350Y946350D03*
Y1176350D03*
Y1406350D03*
D02*
D113*
X3011350Y1176350D03*
D02*
D114*
X1410810Y1181830D03*
Y1410430D03*
X1616350Y1184330D03*
Y1412930D03*
X1841350Y1222050D03*
Y1450650D03*
X1938310Y4016830D03*
Y4245430D03*
X2083310Y1219330D03*
Y1447930D03*
X5640810Y1389330D03*
Y1617930D03*
X5978310Y2663630D03*
Y2892230D03*
X6195810Y2664330D03*
Y2892930D03*
D02*
D115*
X1943310Y758380D03*
Y948880D03*
X3306350Y731100D03*
Y921600D03*
X4225810Y3580880D03*
Y3771380D03*
X4453310Y3580880D03*
Y3771380D03*
X4635810Y4058380D03*
Y4248880D03*
X4863310Y4050880D03*
Y4241380D03*
X5090810Y4048380D03*
Y4238880D03*
X5318310Y4045880D03*
Y4236380D03*
X5545810Y4043380D03*
Y4233880D03*
X6013310Y4473380D03*
Y4663880D03*
D02*
D116*
X4760810Y1728630D03*
X5020810D03*
X6070810Y6153630D03*
X6330810D03*
D02*
D117*
X4107840Y4651890D03*
Y5586890D03*
X4234840Y4651890D03*
Y5586890D03*
X4361840Y4651890D03*
Y5586890D03*
X4488840Y4651890D03*
Y5586890D03*
X4615840Y4651890D03*
Y5586890D03*
X4742840Y4651890D03*
Y5586890D03*
X4869840Y4651890D03*
Y5586890D03*
X4996840Y4651890D03*
Y5586890D03*
X5123840Y4651890D03*
Y5586890D03*
X5250840Y4651890D03*
Y5586890D03*
X5377840Y4651890D03*
Y5586890D03*
X5504840Y4651890D03*
Y5586890D03*
X5631840Y4651890D03*
Y5586890D03*
X5758840Y4651890D03*
Y5586890D03*
D02*
D118*
X4018310Y1223630D03*
Y1723630D03*
D02*
D119*
X3820810Y489390D03*
Y869390D03*
D02*
D120*
X2006350Y5296890D03*
X3036350D03*
D02*
D121*
X3843310Y4368630D03*
Y4628630D03*
D02*
D122*
X3490810Y7548630D03*
Y7733630D03*
D02*
D123*
X3890810Y2501350D03*
Y2741350D03*
X4290810Y2501350D03*
Y2741350D03*
D02*
D124*
X1600310Y3076890D03*
Y3516890D03*
D02*
D125*
X3940810Y5918630D03*
Y6318630D03*
X4180810Y5918630D03*
Y6318630D03*
D02*
D126*
X1601310Y3811890D03*
Y4241890D03*
D02*
D127*
X4853010Y2433130D03*
Y2498130D03*
Y2563130D03*
Y2628130D03*
Y2693130D03*
Y2758130D03*
Y2823130D03*
Y2888130D03*
Y2953130D03*
Y3018130D03*
Y3083130D03*
Y3148130D03*
Y3213130D03*
Y3278130D03*
X5528610Y2433130D03*
Y2498130D03*
Y2563130D03*
Y2628130D03*
Y2693130D03*
Y2758130D03*
Y2823130D03*
Y2888130D03*
Y2953130D03*
Y3018130D03*
Y3083130D03*
Y3148130D03*
Y3213130D03*
Y3278130D03*
D02*
D128*
X5550810Y6688630D03*
Y6798630D03*
Y6908630D03*
Y7018630D03*
Y7128630D03*
Y7238630D03*
Y7348630D03*
Y7458630D03*
D02*
D129*
X5563310Y6443630D03*
D02*
D130*
Y7578630D03*
D02*
D131*
X6388310Y6408630D03*
D02*
D132*
X6630810Y6453630D03*
D02*
D133*
X6473310Y7571130D03*
D02*
D134*
X6323310Y7603630D03*
D02*
D135*
X6073310Y5643630D03*
X6258310D03*
X0Y0D02*
M02*
