G04 DesignSpark PCB Gerber Version 11.0 Build 5877*
G04 #@! TF.Part,Single*
G04 #@! TF.FileFunction,Other,dsPIC33CH_Devboard - Documentation*
G04 #@! TF.FilePolarity,Positive*
%FSLAX35Y35*%
%MOMM*%
%ADD18C,0.05000*%
%ADD15C,0.10000*%
G04 #@! TD.AperFunction*
X0Y0D02*
D02*
D15*
X921310Y5842470D02*
X1795310D01*
Y4444670D01*
X921310D01*
Y5842470D01*
X2556350Y8236350D02*
Y6226350D01*
X221350D01*
Y8236350D01*
X2556350D01*
X3055810Y8840130D02*
X5953810D01*
Y7951130D01*
X3055810D01*
Y8840130D01*
X5811350Y706350D02*
Y1706350D01*
X6611350D01*
Y706350D01*
X5811350D01*
D02*
D18*
X13310Y3037630D02*
X1263310D01*
Y855630D01*
X13310D01*
Y3037630D01*
X160810Y4521350D02*
X905810D01*
Y3971350D01*
X160810D01*
Y4521350D01*
X1378310Y2941890D02*
Y3651890D01*
X1822310D01*
Y2941890D01*
X1378310D01*
X1378810Y3671890D02*
Y4381890D01*
X1823810D01*
Y3671890D01*
X1378810D01*
X1813850Y5961890D02*
X3228850D01*
Y4631890D01*
X1813850D01*
Y5961890D01*
X2048310Y2748630D02*
X3413310D01*
Y1598630D01*
X2048310D01*
Y2748630D01*
X2055810Y3916890D02*
X3420810D01*
Y2766890D01*
X2055810D01*
Y3916890D01*
X2268850Y1536350D02*
X3123850D01*
Y816350D01*
X2268850D01*
Y1536350D01*
X2528340Y4556890D02*
Y4031890D01*
X2178340D01*
Y4556890D01*
X2528340D01*
X2928340D02*
Y4031890D01*
X2578340D01*
Y4556890D01*
X2928340D01*
X3670810Y397890D02*
Y960890D01*
X3970810D01*
Y397890D01*
X3670810D01*
X3958310Y4743630D02*
Y4253630D01*
X3728310D01*
Y4743630D01*
X3958310D01*
X4013340Y4534390D02*
Y5704390D01*
X5853340D01*
Y4534390D01*
X4013340D01*
X4645810Y1843630D02*
X5135810D01*
Y1613630D01*
X4645810D01*
Y1843630D01*
X5955810Y6268630D02*
X6445810D01*
Y6038630D01*
X5955810D01*
Y6268630D01*
X0Y0D02*
M02*
