G04 DesignSpark PCB Gerber Version 11.0 Build 5877*
G04 #@! TF.Part,Single*
G04 #@! TF.FileFunction,Copper,L3,Inr*
G04 #@! TF.FilePolarity,Negative*
%FSLAX35Y35*%
%MOMM*%
G04 #@! TA.AperFunction,ViaPad*
%AMT146*0 Rounded Rectangle Pad at angle 0*4,1,44,-0.19260,-0.64500,0.19260,-0.64500,0.23440,-0.64170,0.27520,-0.63190,0.31400,-0.61580,0.34980,-0.59390,0.38170,-0.56660,0.40890,-0.53470,0.43080,-0.49890,0.44680,-0.46010,0.45660,-0.41930,0.46000,-0.37760,0.46000,0.37760,0.45670,0.41940,0.44690,0.46020,0.43080,0.49900,0.40890,0.53480,0.38160,0.56670,0.34970,0.59390,0.31390,0.61580,0.27510,0.63180,0.23430,0.64160,0.19260,0.64500,-0.19260,0.64500,-0.23440,0.64170,-0.27520,0.63190,-0.31400,0.61580,-0.34980,0.59390,-0.38170,0.56660,-0.40890,0.53470,-0.43080,0.49890,-0.44680,0.46010,-0.45660,0.41930,-0.46000,0.37760,-0.46000,-0.37760,-0.45670,-0.41940,-0.44690,-0.46020,-0.43080,-0.49900,-0.40890,-0.53480,-0.38160,-0.56670,-0.34970,-0.59390,-0.31390,-0.61580,-0.27510,-0.63180,-0.23430,-0.64160,-0.19260,-0.64500,0*%
%ADD146T146*%
%AMT15*0 Rounded Rectangle Pad at angle 0*4,1,52,-0.29260,-0.90000,0.29260,-0.90000,0.34710,-0.89640,0.40060,-0.88570,0.45230,-0.86820,0.50130,-0.84410,0.54670,-0.81380,0.58780,-0.77780,0.62380,-0.73670,0.65410,-0.69130,0.67820,-0.64230,0.69570,-0.59060,0.70630,-0.53710,0.71000,-0.48260,0.71000,0.48260,0.70640,0.53710,0.69570,0.59060,0.67820,0.64230,0.65410,0.69130,0.62380,0.73670,0.58780,0.77780,0.54670,0.81380,0.50130,0.84410,0.45230,0.86820,0.40060,0.88570,0.34710,0.89630,0.29260,0.90000,-0.29260,0.90000,-0.34710,0.89640,-0.40060,0.88570,-0.45230,0.86820,-0.50130,0.84410,-0.54670,0.81380,-0.58780,0.77780,-0.62380,0.73670,-0.65410,0.69130,-0.67820,0.64230,-0.69570,0.59060,-0.70630,0.53710,-0.71000,0.48260,-0.71000,-0.48260,-0.70640,-0.53710,-0.69570,-0.59060,-0.67820,-0.64230,-0.65410,-0.69130,-0.62380,-0.73670,-0.58780,-0.77780,-0.54670,-0.81380,-0.50130,-0.84410,-0.45230,-0.86820,-0.40060,-0.88570,-0.34710,-0.89630,-0.29260,-0.90000,0*%
%ADD15T15*%
%AMT11*0 Thermal pad*4,1,26,0.51000,0.25000,0.51000,0.40000,0.50620,0.44770,0.49480,0.49420,0.47620,0.53830,0.45080,0.57890,0.41930,0.61490,0.38250,0.64540,0.34130,0.66970,0.29680,0.68710,0.25000,0.69730,0.25000,0.90000,0.29260,0.90000,0.34710,0.89640,0.40060,0.88570,0.45230,0.86820,0.50130,0.84410,0.54670,0.81380,0.58780,0.77780,0.62380,0.73670,0.65410,0.69130,0.67820,0.64230,0.69570,0.59060,0.70630,0.53710,0.71000,0.48260,0.71000,0.25000,0.51000,0.25000,0*4,1,26,-0.25000,0.69730,-0.29680,0.68720,-0.34140,0.66970,-0.38260,0.64540,-0.41940,0.61480,-0.45090,0.57880,-0.47630,0.53820,-0.49490,0.49410,-0.50620,0.44760,-0.51000,0.40000,-0.51000,0.25000,-0.71000,0.25000,-0.71000,0.48260,-0.70640,0.53710,-0.69570,0.59060,-0.67820,0.64230,-0.65410,0.69130,-0.62380,0.73670,-0.58780,0.77780,-0.54670,0.81380,-0.50130,0.84410,-0.45230,0.86820,-0.40060,0.88570,-0.34710,0.89630,-0.29260,0.90000,-0.25000,0.90000,-0.25000,0.69730,0*4,1,26,-0.51000,-0.25000,-0.51000,-0.40000,-0.50620,-0.44770,-0.49480,-0.49420,-0.47620,-0.53830,-0.45080,-0.57890,-0.41930,-0.61490,-0.38250,-0.64540,-0.34130,-0.66970,-0.29680,-0.68710,-0.25000,-0.69730,-0.25000,-0.90000,-0.29260,-0.90000,-0.34710,-0.89640,-0.40060,-0.88570,-0.45230,-0.86820,-0.50130,-0.84410,-0.54670,-0.81380,-0.58780,-0.77780,-0.62380,-0.73670,-0.65410,-0.69130,-0.67820,-0.64230,-0.69570,-0.59060,-0.70630,-0.53710,-0.71000,-0.48260,-0.71000,-0.25000,-0.51000,-0.25000,0*4,1,26,0.25000,-0.69730,0.29680,-0.68720,0.34140,-0.66970,0.38260,-0.64540,0.41940,-0.61480,0.45090,-0.57880,0.47630,-0.53820,0.49490,-0.49410,0.50620,-0.44760,0.51000,-0.40000,0.51000,-0.25000,0.71000,-0.25000,0.71000,-0.48260,0.70640,-0.53710,0.69570,-0.59060,0.67820,-0.64230,0.65410,-0.69130,0.62380,-0.73670,0.58780,-0.77780,0.54670,-0.81380,0.50130,-0.84410,0.45230,-0.86820,0.40060,-0.88570,0.34710,-0.89630,0.29260,-0.90000,0.25000,-0.90000,0.25000,-0.69730,0*%
%ADD11T11*%
%AMT149*0 Rounded Rectangle Pad at angle 0*4,1,52,-0.29260,-0.90000,0.29260,-0.90000,0.34710,-0.89640,0.40060,-0.88570,0.45230,-0.86820,0.50130,-0.84410,0.54670,-0.81380,0.58780,-0.77780,0.62380,-0.73670,0.65410,-0.69130,0.67820,-0.64230,0.69570,-0.59060,0.70630,-0.53710,0.71000,-0.48260,0.71000,0.48260,0.70640,0.53710,0.69570,0.59060,0.67820,0.64230,0.65410,0.69130,0.62380,0.73670,0.58780,0.77780,0.54670,0.81380,0.50130,0.84410,0.45230,0.86820,0.40060,0.88570,0.34710,0.89630,0.29260,0.90000,-0.29260,0.90000,-0.34710,0.89640,-0.40060,0.88570,-0.45230,0.86820,-0.50130,0.84410,-0.54670,0.81380,-0.58780,0.77780,-0.62380,0.73670,-0.65410,0.69130,-0.67820,0.64230,-0.69570,0.59060,-0.70630,0.53710,-0.71000,0.48260,-0.71000,-0.48260,-0.70640,-0.53710,-0.69570,-0.59060,-0.67820,-0.64230,-0.65410,-0.69130,-0.62380,-0.73670,-0.58780,-0.77780,-0.54670,-0.81380,-0.50130,-0.84410,-0.45230,-0.86820,-0.40060,-0.88570,-0.34710,-0.89630,-0.29260,-0.90000,0*%
%ADD149T149*%
%AMT148*0 Rounded Rectangle Pad at angle 45*4,1,44,0.31990,-0.59230,0.59230,-0.31990,0.61960,-0.28800,0.64150,-0.25220,0.65760,-0.21340,0.66740,-0.17260,0.67070,-0.13080,0.66740,-0.08900,0.65760,-0.04820,0.64150,-0.00940,0.61960,0.02640,0.59230,0.05830,0.05830,0.59230,0.02640,0.61960,-0.00940,0.64150,-0.04820,0.65760,-0.08900,0.66740,-0.13080,0.67070,-0.17260,0.66740,-0.21340,0.65760,-0.25220,0.64150,-0.28800,0.61960,-0.31990,0.59230,-0.59230,0.31990,-0.61960,0.28800,-0.64150,0.25220,-0.65760,0.21340,-0.66740,0.17260,-0.67070,0.13080,-0.66740,0.08900,-0.65760,0.04820,-0.64150,0.00940,-0.61960,-0.02640,-0.59230,-0.05830,-0.05830,-0.59230,-0.02640,-0.61960,0.00940,-0.64150,0.04820,-0.65760,0.08900,-0.66740,0.13080,-0.67070,0.17260,-0.66740,0.21340,-0.65760,0.25220,-0.64150,0.28800,-0.61960,0.31990,-0.59230,0*%
%ADD148T148*%
%AMT16*0 Rounded Rectangle Pad at angle 90*4,1,44,0.64500,-0.19260,0.64500,0.19260,0.64170,0.23440,0.63190,0.27520,0.61580,0.31400,0.59390,0.34980,0.56660,0.38170,0.53470,0.40890,0.49890,0.43080,0.46010,0.44680,0.41930,0.45660,0.37760,0.46000,-0.37760,0.46000,-0.41940,0.45670,-0.46020,0.44690,-0.49900,0.43080,-0.53480,0.40890,-0.56670,0.38160,-0.59390,0.34970,-0.61580,0.31390,-0.63180,0.27510,-0.64160,0.23430,-0.64500,0.19260,-0.64500,-0.19260,-0.64170,-0.23440,-0.63190,-0.27520,-0.61580,-0.31400,-0.59390,-0.34980,-0.56660,-0.38170,-0.53470,-0.40890,-0.49890,-0.43080,-0.46010,-0.44680,-0.41930,-0.45660,-0.37760,-0.46000,0.37760,-0.46000,0.41940,-0.45670,0.46020,-0.44690,0.49900,-0.43080,0.53480,-0.40890,0.56670,-0.38160,0.59390,-0.34970,0.61580,-0.31390,0.63180,-0.27510,0.64160,-0.23430,0.64500,-0.19260,0*%
%ADD16T16*%
%AMT13*0 Thermal pad*4,1,14,-0.25000,0.26000,-0.29500,0.26000,-0.32240,0.25750,-0.34890,0.25000,-0.63880,0.25000,-0.62540,0.29320,-0.60490,0.33350,-0.57790,0.36980,-0.54520,0.40100,-0.50770,0.42630,-0.46650,0.44490,-0.42270,0.45630,-0.37760,0.46000,-0.25000,0.46000,-0.25000,0.26000,0*4,1,14,-0.34890,-0.25000,-0.32240,-0.25750,-0.29500,-0.26000,-0.25000,-0.26000,-0.25000,-0.46000,-0.37760,-0.46000,-0.42270,-0.45620,-0.46650,-0.44480,-0.50770,-0.42620,-0.54520,-0.40090,-0.57790,-0.36970,-0.60490,-0.33340,-0.62540,-0.29310,-0.63880,-0.25000,-0.34890,-0.25000,0*4,1,14,0.25000,-0.26000,0.29500,-0.26000,0.32240,-0.25750,0.34890,-0.25000,0.63880,-0.25000,0.62540,-0.29320,0.60490,-0.33350,0.57790,-0.36980,0.54520,-0.40100,0.50770,-0.42630,0.46650,-0.44490,0.42270,-0.45630,0.37760,-0.46000,0.25000,-0.46000,0.25000,-0.26000,0*4,1,14,0.34890,0.25000,0.32240,0.25750,0.29500,0.26000,0.25000,0.26000,0.25000,0.46000,0.37760,0.46000,0.42270,0.45620,0.46650,0.44480,0.50770,0.42620,0.54520,0.40090,0.57790,0.36970,0.60490,0.33340,0.62540,0.29310,0.63880,0.25000,0.34890,0.25000,0*%
%ADD13T13*%
%AMT14*0 Rounded Rectangle Pad at angle 90*4,1,52,0.90000,-0.29260,0.90000,0.29260,0.89640,0.34710,0.88570,0.40060,0.86820,0.45230,0.84410,0.50130,0.81380,0.54670,0.77780,0.58780,0.73670,0.62380,0.69130,0.65410,0.64230,0.67820,0.59060,0.69570,0.53710,0.70630,0.48260,0.71000,-0.48260,0.71000,-0.53710,0.70640,-0.59060,0.69570,-0.64230,0.67820,-0.69130,0.65410,-0.73670,0.62380,-0.77780,0.58780,-0.81380,0.54670,-0.84410,0.50130,-0.86820,0.45230,-0.88570,0.40060,-0.89630,0.34710,-0.90000,0.29260,-0.90000,-0.29260,-0.89640,-0.34710,-0.88570,-0.40060,-0.86820,-0.45230,-0.84410,-0.50130,-0.81380,-0.54670,-0.77780,-0.58780,-0.73670,-0.62380,-0.69130,-0.65410,-0.64230,-0.67820,-0.59060,-0.69570,-0.53710,-0.70630,-0.48260,-0.71000,0.48260,-0.71000,0.53710,-0.70640,0.59060,-0.69570,0.64230,-0.67820,0.69130,-0.65410,0.73670,-0.62380,0.77780,-0.58780,0.81380,-0.54670,0.84410,-0.50130,0.86820,-0.45230,0.88570,-0.40060,0.89630,-0.34710,0.90000,-0.29260,0*%
%ADD14T14*%
%AMT12*0 Thermal pad*4,1,26,-0.25000,0.51000,-0.40000,0.51000,-0.44770,0.50620,-0.49420,0.49480,-0.53830,0.47620,-0.57890,0.45080,-0.61490,0.41930,-0.64540,0.38250,-0.66970,0.34130,-0.68710,0.29680,-0.69730,0.25000,-0.90000,0.25000,-0.90000,0.29260,-0.89640,0.34710,-0.88570,0.40060,-0.86820,0.45230,-0.84410,0.50130,-0.81380,0.54670,-0.77780,0.58780,-0.73670,0.62380,-0.69130,0.65410,-0.64230,0.67820,-0.59060,0.69570,-0.53710,0.70630,-0.48260,0.71000,-0.25000,0.71000,-0.25000,0.51000,0*4,1,26,-0.69730,-0.25000,-0.68720,-0.29680,-0.66970,-0.34140,-0.64540,-0.38260,-0.61480,-0.41940,-0.57880,-0.45090,-0.53820,-0.47630,-0.49410,-0.49490,-0.44760,-0.50620,-0.40000,-0.51000,-0.25000,-0.51000,-0.25000,-0.71000,-0.48260,-0.71000,-0.53710,-0.70640,-0.59060,-0.69570,-0.64230,-0.67820,-0.69130,-0.65410,-0.73670,-0.62380,-0.77780,-0.58780,-0.81380,-0.54670,-0.84410,-0.50130,-0.86820,-0.45230,-0.88570,-0.40060,-0.89630,-0.34710,-0.90000,-0.29260,-0.90000,-0.25000,-0.69730,-0.25000,0*4,1,26,0.25000,-0.51000,0.40000,-0.51000,0.44770,-0.50620,0.49420,-0.49480,0.53830,-0.47620,0.57890,-0.45080,0.61490,-0.41930,0.64540,-0.38250,0.66970,-0.34130,0.68710,-0.29680,0.69730,-0.25000,0.90000,-0.25000,0.90000,-0.29260,0.89640,-0.34710,0.88570,-0.40060,0.86820,-0.45230,0.84410,-0.50130,0.81380,-0.54670,0.77780,-0.58780,0.73670,-0.62380,0.69130,-0.65410,0.64230,-0.67820,0.59060,-0.69570,0.53710,-0.70630,0.48260,-0.71000,0.25000,-0.71000,0.25000,-0.51000,0*4,1,26,0.69730,0.25000,0.68720,0.29680,0.66970,0.34140,0.64540,0.38260,0.61480,0.41940,0.57880,0.45090,0.53820,0.47630,0.49410,0.49490,0.44760,0.50620,0.40000,0.51000,0.25000,0.51000,0.25000,0.71000,0.48260,0.71000,0.53710,0.70640,0.59060,0.69570,0.64230,0.67820,0.69130,0.65410,0.73670,0.62380,0.77780,0.58780,0.81380,0.54670,0.84410,0.50130,0.86820,0.45230,0.88570,0.40060,0.89630,0.34710,0.90000,0.29260,0.90000,0.25000,0.69730,0.25000,0*%
%ADD12T12*%
%AMT10*0 Rounded Rectangle Pad at angle 90*4,1,52,0.90000,-0.29260,0.90000,0.29260,0.89640,0.34710,0.88570,0.40060,0.86820,0.45230,0.84410,0.50130,0.81380,0.54670,0.77780,0.58780,0.73670,0.62380,0.69130,0.65410,0.64230,0.67820,0.59060,0.69570,0.53710,0.70630,0.48260,0.71000,-0.48260,0.71000,-0.53710,0.70640,-0.59060,0.69570,-0.64230,0.67820,-0.69130,0.65410,-0.73670,0.62380,-0.77780,0.58780,-0.81380,0.54670,-0.84410,0.50130,-0.86820,0.45230,-0.88570,0.40060,-0.89630,0.34710,-0.90000,0.29260,-0.90000,-0.29260,-0.89640,-0.34710,-0.88570,-0.40060,-0.86820,-0.45230,-0.84410,-0.50130,-0.81380,-0.54670,-0.77780,-0.58780,-0.73670,-0.62380,-0.69130,-0.65410,-0.64230,-0.67820,-0.59060,-0.69570,-0.53710,-0.70630,-0.48260,-0.71000,0.48260,-0.71000,0.53710,-0.70640,0.59060,-0.69570,0.64230,-0.67820,0.69130,-0.65410,0.73670,-0.62380,0.77780,-0.58780,0.81380,-0.54670,0.84410,-0.50130,0.86820,-0.45230,0.88570,-0.40060,0.89630,-0.34710,0.90000,-0.29260,0*%
%ADD10T10*%
G04 #@! TA.AperFunction,ComponentPad*
%ADD168R,1.80000X1.80000*%
%ADD172R,1.92400X1.92400*%
%ADD164R,2.80000X2.80000*%
G04 #@! TA.AperFunction,ViaPad*
%ADD141C,1.30000*%
G04 #@! TA.AperFunction,ComponentPad*
%ADD174C,1.61700*%
%ADD177C,1.71600*%
%ADD169C,1.80000*%
G04 #@! TA.AperFunction,ViaPad*
%ADD140C,1.82000*%
G04 #@! TA.AperFunction,ComponentPad*
%ADD167C,1.90000*%
%ADD170C,1.93000*%
%ADD171C,2.02500*%
%ADD166C,2.20000*%
%ADD165C,2.80000*%
%AMT20*0 Thermal pad*4,1,43,2.50000,0.25000,2.50000,1.50000,2.49620,1.58720,2.48480,1.67370,2.46590,1.75890,2.43970,1.84210,2.40630,1.92270,2.36600,2.00010,2.31910,2.07370,2.26600,2.14290,2.20710,2.20720,2.14280,2.26610,2.07360,2.31920,2.00000,2.36610,1.92260,2.40640,1.84200,2.43980,1.75880,2.46600,1.67360,2.48490,1.58710,2.49630,1.50000,2.50000,0.25000,2.50000,0.25000,2.70000,1.58260,2.70000,1.67490,2.69620,1.76650,2.68480,1.85690,2.66590,1.94540,2.63960,2.03140,2.60600,2.11440,2.56550,2.19370,2.51820,2.26890,2.46460,2.33940,2.40490,2.40470,2.33960,2.46440,2.26910,2.51810,2.19400,2.56540,2.11470,2.60600,2.03170,2.63960,1.94570,2.66600,1.85720,2.68500,1.76680,2.69640,1.67520,2.70000,1.58260,2.70000,0.25000,2.50000,0.25000,0*4,1,43,-0.25000,2.50000,-1.50000,2.50000,-1.58720,2.49620,-1.67370,2.48480,-1.75890,2.46590,-1.84210,2.43970,-1.92270,2.40630,-2.00010,2.36600,-2.07370,2.31910,-2.14290,2.26600,-2.20720,2.20710,-2.26610,2.14280,-2.31920,2.07360,-2.36610,2.00000,-2.40640,1.92260,-2.43980,1.84200,-2.46600,1.75880,-2.48490,1.67360,-2.49630,1.58710,-2.50000,1.50000,-2.50000,0.25000,-2.70000,0.25000,-2.70000,1.58260,-2.69620,1.67490,-2.68480,1.76650,-2.66590,1.85690,-2.63960,1.94540,-2.60600,2.03140,-2.56550,2.11440,-2.51820,2.19370,-2.46460,2.26890,-2.40490,2.33940,-2.33960,2.40470,-2.26910,2.46440,-2.19400,2.51810,-2.11470,2.56540,-2.03170,2.60600,-1.94570,2.63960,-1.85720,2.66600,-1.76680,2.68500,-1.67520,2.69640,-1.58260,2.70000,-0.25000,2.70000,-0.25000,2.50000,0*4,1,43,-2.50000,-0.25000,-2.50000,-1.50000,-2.49620,-1.58720,-2.48480,-1.67370,-2.46590,-1.75890,-2.43970,-1.84210,-2.40630,-1.92270,-2.36600,-2.00010,-2.31910,-2.07370,-2.26600,-2.14290,-2.20710,-2.20720,-2.14280,-2.26610,-2.07360,-2.31920,-2.00000,-2.36610,-1.92260,-2.40640,-1.84200,-2.43980,-1.75880,-2.46600,-1.67360,-2.48490,-1.58710,-2.49630,-1.50000,-2.50000,-0.25000,-2.50000,-0.25000,-2.70000,-1.58260,-2.70000,-1.67490,-2.69620,-1.76650,-2.68480,-1.85690,-2.66590,-1.94540,-2.63960,-2.03140,-2.60600,-2.11440,-2.56550,-2.19370,-2.51820,-2.26890,-2.46460,-2.33940,-2.40490,-2.40470,-2.33960,-2.46440,-2.26910,-2.51810,-2.19400,-2.56540,-2.11470,-2.60600,-2.03170,-2.63960,-1.94570,-2.66600,-1.85720,-2.68500,-1.76680,-2.69640,-1.67520,-2.70000,-1.58260,-2.70000,-0.25000,-2.50000,-0.25000,0*4,1,43,0.25000,-2.50000,1.50000,-2.50000,1.58720,-2.49620,1.67370,-2.48480,1.75890,-2.46590,1.84210,-2.43970,1.92270,-2.40630,2.00010,-2.36600,2.07370,-2.31910,2.14290,-2.26600,2.20720,-2.20710,2.26610,-2.14280,2.31920,-2.07360,2.36610,-2.00000,2.40640,-1.92260,2.43980,-1.84200,2.46600,-1.75880,2.48490,-1.67360,2.49630,-1.58710,2.50000,-1.50000,2.50000,-0.25000,2.70000,-0.25000,2.70000,-1.58260,2.69620,-1.67490,2.68480,-1.76650,2.66590,-1.85690,2.63960,-1.94540,2.60600,-2.03140,2.56550,-2.11440,2.51820,-2.19370,2.46460,-2.26890,2.40490,-2.33940,2.33960,-2.40470,2.26910,-2.46440,2.19400,-2.51810,2.11470,-2.56540,2.03170,-2.60600,1.94570,-2.63960,1.85720,-2.66600,1.76680,-2.68500,1.67520,-2.69640,1.58260,-2.70000,0.25000,-2.70000,0.25000,-2.50000,0*%
%ADD20T20*%
%AMT173*0 Thermal pad*4,1,6,0.76200,0.25000,0.76200,0.76200,0.25000,0.76200,0.25000,0.96200,0.96200,0.96200,0.96200,0.25000,0.76200,0.25000,0*4,1,6,-0.25000,0.76200,-0.76200,0.76200,-0.76200,0.25000,-0.96200,0.25000,-0.96200,0.96200,-0.25000,0.96200,-0.25000,0.76200,0*4,1,6,-0.76200,-0.25000,-0.76200,-0.76200,-0.25000,-0.76200,-0.25000,-0.96200,-0.96200,-0.96200,-0.96200,-0.25000,-0.76200,-0.25000,0*4,1,6,0.25000,-0.76200,0.76200,-0.76200,0.76200,-0.25000,0.96200,-0.25000,0.96200,-0.96200,0.25000,-0.96200,0.25000,-0.76200,0*%
%ADD173T173*%
%ADD175R,2.43200X1.92400*%
%AMT19*0 Thermal pad*7,0,0,1.90000,1.50000,0.50000,0*%
%ADD19T19*%
%AMT70*0 Thermal pad*7,0,0,1.93000,1.53000,0.50000,0*%
%ADD70T70*%
%AMT18*0 Thermal pad*7,0,0,2.20000,1.80000,0.50000,0*%
%ADD18T18*%
%AMT17*0 Thermal pad*7,0,0,2.80000,2.40000,0.50000,0*%
%ADD17T17*%
%AMT71*0 Thermal pad*4,1,6,-0.25000,0.76200,-1.01600,0.76200,-1.01600,0.25000,-1.21600,0.25000,-1.21600,0.96200,-0.25000,0.96200,-0.25000,0.76200,0*4,1,6,-1.01600,-0.25000,-1.01600,-0.76200,-0.25000,-0.76200,-0.25000,-0.96200,-1.21600,-0.96200,-1.21600,-0.25000,-1.01600,-0.25000,0*4,1,6,0.25000,-0.76200,1.01600,-0.76200,1.01600,-0.25000,1.21600,-0.25000,1.21600,-0.96200,0.25000,-0.96200,0.25000,-0.76200,0*4,1,6,1.01600,0.25000,1.01600,0.76200,0.25000,0.76200,0.25000,0.96200,1.21600,0.96200,1.21600,0.25000,1.01600,0.25000,0*%
%ADD71T71*%
G04 #@! TD.AperFunction*
X0Y0D02*
D02*
D10*
X1778310Y4241130D03*
D02*
D11*
X615810Y3618630D03*
X1355810Y4718630D03*
X1616350Y1623630D03*
X1810810Y3671130D03*
X1841350Y1628630D03*
X2553310Y4143630D03*
X2894010Y7908630D03*
X3155810Y1981130D03*
Y2376130D03*
X3160810Y3153630D03*
X3163310Y3533630D03*
X3735010Y3441130D03*
X3736010Y4131130D03*
X3885810Y2943630D03*
X4018310Y1956130D03*
X4295810Y6318630D03*
X4348310Y2266130D03*
X5155810Y2061130D03*
X5433310Y5283630D03*
X5800810Y2663630D03*
X6123310Y7238630D03*
D02*
D12*
X2695810Y6448630D03*
X3738310Y5918630D03*
X5640810Y1791130D03*
X5765810Y4471130D03*
X6333310Y6023630D03*
D02*
D13*
X5083310Y2783630D03*
X5093310Y2938630D03*
D02*
D14*
X1383310Y731130D03*
X2698310Y945630D03*
X4295810Y5356130D03*
D02*
D15*
X1383310Y3078630D03*
X2713310Y1176350D03*
X3203310D03*
X3298310Y7733630D03*
X3488310Y7368630D03*
X3555810Y688630D03*
X3963310Y3441130D03*
X3965810Y3998630D03*
X4018310Y983630D03*
X4625810Y2066130D03*
X5833310Y2868630D03*
D02*
D16*
X2758310Y7011130D03*
X2763310Y6784630D03*
X3803310Y6301130D03*
X5043310Y3146130D03*
Y3218630D03*
X5085810Y2496130D03*
Y2698630D03*
Y2858630D03*
X5090810Y3018630D03*
X5238310Y2566130D03*
X5320810Y4371130D03*
X5330810Y2628130D03*
X5335810Y2496130D03*
X5338310Y2423630D03*
X5490810Y2296130D03*
X5698310Y3216130D03*
X5705810Y2938630D03*
X5715810Y3028630D03*
X5725810Y7126130D03*
X5735810Y6908630D03*
X5898310Y2293630D03*
D02*
D17*
X638310Y1692630D03*
Y2200630D03*
X1701350Y6446350D03*
Y8016350D03*
D02*
D18*
X3869810Y8522630D03*
X4377810D03*
X5393810D03*
D02*
D19*
X6436350Y881350D03*
Y1531350D03*
D02*
D70*
X990350Y6821350D03*
Y7641350D03*
D02*
D71*
X2316350Y336350D03*
X2916350D03*
D02*
D20*
X318310Y318630D03*
Y8638630D03*
X6458310D03*
D02*
D140*
X1183310Y5433630D03*
Y5608630D03*
X1358310Y5258630D03*
Y5433630D03*
Y5608630D03*
X1533310Y5433630D03*
Y5608630D03*
D02*
D141*
X2573310Y4748630D03*
Y4903630D03*
Y5043630D03*
Y5183630D03*
Y5323630D03*
X2703310Y4898630D03*
X2706350Y4748630D03*
Y5043630D03*
Y5183630D03*
Y5323630D03*
X2838310Y4748630D03*
Y4898630D03*
X2843310Y5043630D03*
X2973310Y4748630D03*
Y4898630D03*
Y5048630D03*
X3103310Y4748630D03*
Y4898630D03*
Y5048630D03*
X3223310Y4748630D03*
Y4898630D03*
Y5048630D03*
D02*
D146*
X3093310Y6613630D03*
X3258310Y7333630D03*
X3323310Y7071130D03*
X3443310Y5591130D03*
X3548310Y5616130D03*
X4250810Y7828630D03*
X4445810Y5791130D03*
X4453310Y2668630D03*
Y3188630D03*
X4520810Y2551130D03*
Y6383630D03*
X4590810Y2463630D03*
X4595810Y6208630D03*
X4660810Y2378630D03*
Y6296130D03*
X4760810Y7343630D03*
Y7728630D03*
X4853010Y2338630D03*
X4913310Y6538630D03*
X4925810Y7576130D03*
X4980810Y3391130D03*
X5048310Y6473630D03*
X5178310Y2823130D03*
X5243310Y2986130D03*
X5305810Y3446130D03*
X5380810Y6913630D03*
X5388310Y5776130D03*
X5480810Y3408630D03*
X5545810Y3883630D03*
X5608310Y3383630D03*
X5760810Y5788630D03*
X5778310Y3411130D03*
X5845810Y3518630D03*
X5895810Y5646130D03*
Y5913630D03*
X5905810Y3216130D03*
X6398310Y5643630D03*
D02*
D148*
X2683310Y7353630D03*
X2704420Y7529740D03*
X4875810Y7068630D03*
X4943310Y6871130D03*
X5755810Y5906130D03*
X6080810Y4161130D03*
D02*
D149*
X2013310Y3351130D03*
D02*
D164*
X638310Y2708630D03*
D02*
D165*
Y1184630D03*
D02*
D166*
X3615810Y8268630D03*
Y8522630D03*
X3869810Y8268630D03*
X4123810D03*
Y8522630D03*
X4377810Y8268630D03*
X4631810D03*
Y8522630D03*
X4885810Y8268630D03*
Y8522630D03*
X5139810Y8268630D03*
Y8522630D03*
X5393810Y8268630D03*
D02*
D167*
X5986350Y881350D03*
Y1531350D03*
D02*
D168*
X2031350Y7675850D03*
D02*
D169*
Y6913850D03*
Y7167850D03*
Y7421850D03*
X2285350Y6786850D03*
Y7040850D03*
Y7294850D03*
Y7548850D03*
D02*
D170*
X990350Y6567350D03*
Y7895350D03*
D02*
D171*
X1396350Y6659850D03*
Y7802850D03*
D02*
D172*
X3215840Y4424390D03*
X4151640Y340310D03*
X4409810Y343630D03*
X4663810D03*
X5171810D03*
X5425810D03*
X5643310Y866130D03*
Y1120130D03*
D02*
D173*
X4917810Y343630D03*
D02*
D174*
X1084310Y3244390D03*
Y3752390D03*
D02*
D175*
X2316350Y590350D03*
X2916350D03*
D02*
D177*
X1088310Y351130D03*
X1593310D03*
X0Y0D02*
M02*
