G04 DesignSpark PCB Gerber Version 11.0 Build 5877*
G04 #@! TF.Part,Single*
G04 #@! TF.FileFunction,Copper,L3,Inr*
G04 #@! TF.FilePolarity,Positive*
%FSLAX35Y35*%
%MOMM*%
G04 #@! TA.AperFunction,ViaPad*
%AMT22*0 Rounded Rectangle Pad at angle 0*4,1,32,-0.11000,-0.44500,0.11000,-0.44500,0.14340,-0.44120,0.17510,-0.43010,0.20350,-0.41220,0.22720,-0.38850,0.24510,-0.36010,0.25620,-0.32840,0.26000,-0.29500,0.26000,0.29500,0.25620,0.32840,0.24510,0.36010,0.22720,0.38850,0.20350,0.41220,0.17510,0.43010,0.14340,0.44120,0.11000,0.44500,-0.11000,0.44500,-0.14340,0.44120,-0.17510,0.43010,-0.20350,0.41220,-0.22720,0.38850,-0.24510,0.36010,-0.25620,0.32840,-0.26000,0.29500,-0.26000,-0.29500,-0.25620,-0.32840,-0.24510,-0.36010,-0.22720,-0.38850,-0.20350,-0.41220,-0.17510,-0.43010,-0.14340,-0.44120,-0.11000,-0.44500,0*%
%ADD22T22*%
%AMT18*0 Rounded Rectangle Pad at angle 0*4,1,44,-0.21000,-0.70000,0.21000,-0.70000,0.25690,-0.69630,0.30270,-0.68530,0.34620,-0.66730,0.38630,-0.64270,0.42210,-0.61210,0.45270,-0.57630,0.47730,-0.53620,0.49530,-0.49270,0.50630,-0.44690,0.51000,-0.40000,0.51000,0.40000,0.50630,0.44690,0.49530,0.49270,0.47730,0.53620,0.45270,0.57630,0.42210,0.61210,0.38630,0.64270,0.34620,0.66730,0.30270,0.68530,0.25690,0.69630,0.21000,0.70000,-0.21000,0.70000,-0.25690,0.69630,-0.30270,0.68530,-0.34620,0.66730,-0.38630,0.64270,-0.42210,0.61210,-0.45270,0.57630,-0.47730,0.53620,-0.49530,0.49270,-0.50630,0.44690,-0.51000,0.40000,-0.51000,-0.40000,-0.50630,-0.44690,-0.49530,-0.49270,-0.47730,-0.53620,-0.45270,-0.57630,-0.42210,-0.61210,-0.38630,-0.64270,-0.34620,-0.66730,-0.30270,-0.68530,-0.25690,-0.69630,-0.21000,-0.70000,0*%
%ADD18T18*%
%AMT23*0 Rounded Rectangle Pad at angle 45*4,1,32,0.23690,-0.39240,0.39240,-0.23690,0.41330,-0.21060,0.42790,-0.18030,0.43540,-0.14760,0.43540,-0.11400,0.42790,-0.08120,0.41330,-0.05090,0.39240,-0.02470,-0.02470,0.39240,-0.05100,0.41330,-0.08130,0.42790,-0.11400,0.43540,-0.14760,0.43540,-0.18040,0.42790,-0.21070,0.41330,-0.23690,0.39240,-0.39240,0.23690,-0.41330,0.21060,-0.42790,0.18030,-0.43540,0.14760,-0.43540,0.11400,-0.42790,0.08120,-0.41330,0.05090,-0.39240,0.02470,0.02470,-0.39240,0.05100,-0.41330,0.08130,-0.42790,0.11400,-0.43540,0.14760,-0.43540,0.18040,-0.42790,0.21070,-0.41330,0.23690,-0.39240,0*%
%ADD23T23*%
%AMT70*0 Rounded Rectangle Pad at angle 90*4,1,32,0.44500,-0.11000,0.44500,0.11000,0.44120,0.14340,0.43010,0.17510,0.41220,0.20350,0.38850,0.22720,0.36010,0.24510,0.32840,0.25620,0.29500,0.26000,-0.29500,0.26000,-0.32840,0.25620,-0.36010,0.24510,-0.38850,0.22720,-0.41220,0.20350,-0.43010,0.17510,-0.44120,0.14340,-0.44500,0.11000,-0.44500,-0.11000,-0.44120,-0.14340,-0.43010,-0.17510,-0.41220,-0.20350,-0.38850,-0.22720,-0.36010,-0.24510,-0.32840,-0.25620,-0.29500,-0.26000,0.29500,-0.26000,0.32840,-0.25620,0.36010,-0.24510,0.38850,-0.22720,0.41220,-0.20350,0.43010,-0.17510,0.44120,-0.14340,0.44500,-0.11000,0*%
%ADD70T70*%
%AMT17*0 Rounded Rectangle Pad at angle 90*4,1,44,0.70000,-0.21000,0.70000,0.21000,0.69630,0.25690,0.68530,0.30270,0.66730,0.34620,0.64270,0.38630,0.61210,0.42210,0.57630,0.45270,0.53620,0.47730,0.49270,0.49530,0.44690,0.50630,0.40000,0.51000,-0.40000,0.51000,-0.44690,0.50630,-0.49270,0.49530,-0.53620,0.47730,-0.57630,0.45270,-0.61210,0.42210,-0.64270,0.38630,-0.66730,0.34620,-0.68530,0.30270,-0.69630,0.25690,-0.70000,0.21000,-0.70000,-0.21000,-0.69630,-0.25690,-0.68530,-0.30270,-0.66730,-0.34620,-0.64270,-0.38630,-0.61210,-0.42210,-0.57630,-0.45270,-0.53620,-0.47730,-0.49270,-0.49530,-0.44690,-0.50630,-0.40000,-0.51000,0.40000,-0.51000,0.44690,-0.50630,0.49270,-0.49530,0.53620,-0.47730,0.57630,-0.45270,0.61210,-0.42210,0.64270,-0.38630,0.66730,-0.34620,0.68530,-0.30270,0.69630,-0.25690,0.70000,-0.21000,0*%
%ADD17T17*%
G04 #@! TA.AperFunction,ComponentPad*
%AMT100*0 Rounded Rectangle Pad at angle 0*4,1,76,-1.50000,-2.50000,1.50000,-2.50000,1.58720,-2.49620,1.67370,-2.48480,1.75890,-2.46590,1.84210,-2.43970,1.92270,-2.40630,2.00010,-2.36600,2.07370,-2.31910,2.14290,-2.26600,2.20720,-2.20710,2.26610,-2.14280,2.31920,-2.07360,2.36610,-2.00000,2.40640,-1.92260,2.43980,-1.84200,2.46600,-1.75880,2.48490,-1.67360,2.49630,-1.58710,2.50000,-1.50000,2.50000,1.50000,2.49620,1.58720,2.48480,1.67370,2.46590,1.75890,2.43970,1.84210,2.40630,1.92270,2.36600,2.00010,2.31910,2.07370,2.26600,2.14290,2.20710,2.20720,2.14280,2.26610,2.07360,2.31920,2.00000,2.36610,1.92260,2.40640,1.84200,2.43980,1.75880,2.46600,1.67360,2.48490,1.58710,2.49630,1.50000,2.50000,-1.50000,2.50000,-1.58720,2.49620,-1.67370,2.48480,-1.75890,2.46590,-1.84210,2.43970,-1.92270,2.40630,-2.00010,2.36600,-2.07370,2.31910,-2.14290,2.26600,-2.20720,2.20710,-2.26610,2.14280,-2.31920,2.07360,-2.36610,2.00000,-2.40640,1.92260,-2.43980,1.84200,-2.46600,1.75880,-2.48490,1.67360,-2.49630,1.58710,-2.50000,1.50000,-2.50000,-1.50000,-2.49620,-1.58720,-2.48480,-1.67370,-2.46590,-1.75890,-2.43970,-1.84210,-2.40630,-1.92270,-2.36600,-2.00010,-2.31910,-2.07370,-2.26600,-2.14290,-2.20710,-2.20720,-2.14280,-2.26610,-2.07360,-2.31920,-2.00000,-2.36610,-1.92260,-2.40640,-1.84200,-2.43980,-1.75880,-2.46600,-1.67360,-2.48490,-1.58710,-2.49630,-1.50000,-2.50000,0*%
%ADD100T100*%
%ADD97R,2.03200X1.52400*%
%ADD89R,1.40000X1.40000*%
%ADD95R,1.52400X1.52400*%
%ADD75R,2.40000X2.40000*%
G04 #@! TD.AperFunction*
%ADD111C,0.00001*%
G04 #@! TA.AperFunction,ViaPad*
%ADD21C,0.90000*%
G04 #@! TA.AperFunction,ComponentPad*
%ADD96C,1.21700*%
%ADD101C,1.31600*%
%ADD90C,1.40000*%
G04 #@! TA.AperFunction,ViaPad*
%ADD71C,1.42000*%
G04 #@! TA.AperFunction,ComponentPad*
%ADD83C,1.50000*%
%ADD91C,1.53000*%
%ADD82C,1.80000*%
%ADD76C,2.40000*%
G04 #@! TD.AperFunction*
X0Y0D02*
D02*
D17*
X1383310Y731130D03*
X1778310Y4241130D03*
X2695810Y6448630D03*
X2698310Y945630D03*
X3738310Y5918630D03*
X4295810Y5356130D03*
X5640810Y1791130D03*
X5765810Y4471130D03*
X6333310Y6023630D03*
D02*
D18*
X615810Y3618630D03*
X1355810Y4718630D03*
X1383310Y3078630D03*
X1616350Y1623630D03*
X1810810Y3671130D03*
X1841350Y1628630D03*
X2013310Y3351130D03*
X2553310Y4143630D03*
X2713310Y1176350D03*
X2894010Y7908630D03*
X3155810Y1981130D03*
Y2376130D03*
X3160810Y3153630D03*
X3163310Y3533630D03*
X3203310Y1176350D03*
X3298310Y7733630D03*
X3488310Y7368630D03*
X3555810Y688630D03*
X3735010Y3441130D03*
X3736010Y4131130D03*
X3885810Y2943630D03*
X3963310Y3441130D03*
X3965810Y3998630D03*
X4018310Y983630D03*
Y1956130D03*
X4295810Y6318630D03*
X4348310Y2266130D03*
X4625810Y2066130D03*
X5155810Y2061130D03*
X5433310Y5283630D03*
X5800810Y2663630D03*
X5833310Y2868630D03*
X6123310Y7238630D03*
D02*
D70*
X2758310Y7011130D03*
X2763310Y6784630D03*
X3803310Y6301130D03*
X5043310Y3146130D03*
Y3218630D03*
X5083310Y2783630D03*
X5085810Y2858630D03*
X5090810Y3018630D03*
X5093310Y2938630D03*
X5185810Y2696130D03*
X5190810Y2563130D03*
X5320810Y4371130D03*
X5343310Y2433630D03*
X5698310Y3216130D03*
X5705810Y2938630D03*
X5715810Y3028630D03*
X5725810Y7126130D03*
X5735810Y6908630D03*
D02*
D71*
X1183310Y5433630D03*
Y5608630D03*
X1358310Y5258630D03*
Y5433630D03*
Y5608630D03*
X1533310Y5433630D03*
Y5608630D03*
D02*
D21*
X2573310Y4748630D03*
Y4903630D03*
Y5043630D03*
Y5183630D03*
Y5323630D03*
X2703310Y4898630D03*
X2706350Y4748630D03*
Y5043630D03*
Y5183630D03*
Y5323630D03*
X2838310Y4748630D03*
Y4898630D03*
X2843310Y5043630D03*
X2973310Y4748630D03*
Y4898630D03*
Y5048630D03*
X3103310Y4748630D03*
Y4898630D03*
Y5048630D03*
X3223310Y4748630D03*
Y4898630D03*
Y5048630D03*
D02*
D22*
X3093310Y6613630D03*
X3258310Y7333630D03*
X3323310Y7071130D03*
X3443310Y5591130D03*
X3548310Y5616130D03*
X4250810Y7828630D03*
X4445810Y5791130D03*
X4520810Y2551130D03*
Y6383630D03*
X4590810Y2463630D03*
X4595810Y6208630D03*
X4660810Y2378630D03*
Y6296130D03*
X4760810Y7343630D03*
Y7728630D03*
X4853010Y2338630D03*
X4925810Y7576130D03*
X4980810Y3391130D03*
X5048310Y6473630D03*
X5178310Y2823130D03*
X5243310Y2986130D03*
X5305810Y3446130D03*
X5380810Y6913630D03*
X5388310Y5776130D03*
X5425810Y1936130D03*
X5480810Y3408630D03*
X5608310Y3383630D03*
X5683310Y4043380D03*
X5725810Y2501130D03*
X5760810Y5788630D03*
X5778310Y3411130D03*
X5845810Y3518630D03*
X5895810Y5646130D03*
Y5913630D03*
X5905810Y3216130D03*
X6398310Y5643630D03*
D02*
D23*
X2683310Y7353630D03*
X2704420Y7529740D03*
X3963310Y7861130D03*
X4875810Y7068630D03*
X4943310Y6871130D03*
X5755810Y5906130D03*
D02*
D75*
X638310Y2708630D03*
D02*
D76*
Y1184630D03*
Y1692630D03*
Y2200630D03*
X1701350Y6446350D03*
Y8016350D03*
D02*
D82*
X3615810Y8268630D03*
Y8522630D03*
X3869810Y8268630D03*
Y8522630D03*
X4123810Y8268630D03*
Y8522630D03*
X4377810Y8268630D03*
Y8522630D03*
X4631810Y8268630D03*
Y8522630D03*
X4885810Y8268630D03*
Y8522630D03*
X5139810Y8268630D03*
Y8522630D03*
X5393810Y8268630D03*
Y8522630D03*
D02*
D83*
X5986350Y881350D03*
Y1531350D03*
X6436350Y881350D03*
Y1531350D03*
D02*
D89*
X2031350Y7675850D03*
D02*
D90*
Y6913850D03*
Y7167850D03*
Y7421850D03*
X2285350Y6786850D03*
Y7040850D03*
Y7294850D03*
Y7548850D03*
D02*
D91*
X990350Y6567350D03*
Y6821350D03*
Y7641350D03*
Y7895350D03*
D02*
D95*
X3215840Y4424390D03*
X4151640Y340310D03*
X4409810Y343630D03*
X4663810D03*
X4917810D03*
X5171810D03*
X5425810D03*
X5643310Y866130D03*
Y1120130D03*
D02*
D96*
X1084310Y3244390D03*
Y3752390D03*
D02*
D97*
X2316350Y336350D03*
Y590350D03*
X2916350Y336350D03*
Y590350D03*
D02*
D100*
X318310Y318630D03*
Y8638630D03*
X6458310D03*
D02*
D101*
X1088310Y351130D03*
X1593310D03*
D02*
D111*
X32700Y8786350D02*
Y156350D01*
G75*
G03*
X156350Y32700I123650J0D01*
G01*
X6606350D01*
G75*
G03*
X6730000Y156350I0J123650D01*
G01*
Y8786350D01*
G75*
G03*
X6727240Y8812330I-123650J0D01*
G01*
G75*
G02*
X6728310Y8796890I-110660J-15430D01*
G01*
Y8663630D01*
X6708310D01*
Y8788630D01*
G75*
G03*
X6608310Y8888630I-100000J0D01*
G01*
X6483310D01*
Y8908630D01*
X6616570D01*
G75*
G02*
X6628600Y8907980I-10J-111790D01*
G01*
G75*
G03*
X6606350Y8910000I-22260J-121670D01*
G01*
X156350D01*
G75*
G03*
X32700Y8786350I0J-123650D01*
G01*
X568310Y293630D02*
X588310D01*
Y160370D01*
G75*
G02*
X476570Y48630I-111740J0D01*
G01*
X343310D01*
Y68630D01*
X468310D01*
G75*
G03*
X568310Y168630I0J100000D01*
G01*
Y293630D01*
X476570Y588630D02*
G75*
G02*
X588310Y476890I0J-111740D01*
G01*
Y343630D01*
X568310D01*
Y468630D01*
G75*
G03*
X468310Y568630I-100000J0D01*
G01*
X343310D01*
Y588630D01*
X476570D01*
X568310Y8613630D02*
X588310D01*
Y8480370D01*
G75*
G02*
X476570Y8368630I-111740J0D01*
G01*
X343310D01*
Y8388630D01*
X468310D01*
G75*
G03*
X568310Y8488630I0J100000D01*
G01*
Y8613630D01*
X498310Y1184630D02*
G75*
G02*
X778310I140000J0D01*
G01*
G75*
G02*
X498310I-140000J0D01*
G01*
Y2848630D02*
X778310D01*
Y2568630D01*
X498310D01*
Y2848630D01*
X520940Y1667630D02*
G75*
G03*
X613310Y1575260I117370J25000D01*
G01*
Y1554880D01*
G75*
G02*
X500560Y1667630I25000J137750D01*
G01*
X520940D01*
X500560Y1717630D02*
G75*
G02*
X613310Y1830380I137750J-25000D01*
G01*
Y1810000D01*
G75*
G03*
X520940Y1717630I25000J-117370D01*
G01*
X500560D01*
X520940Y2175630D02*
G75*
G03*
X613310Y2083260I117370J25000D01*
G01*
Y2062880D01*
G75*
G02*
X500560Y2175630I25000J137750D01*
G01*
X520940D01*
X500560Y2225630D02*
G75*
G02*
X613310Y2338380I137750J-25000D01*
G01*
Y2318000D01*
G75*
G03*
X520940Y2225630I25000J-117370D01*
G01*
X500560D01*
X755680Y1667630D02*
X776060D01*
G75*
G02*
X663310Y1554880I-137750J25000D01*
G01*
Y1575260D01*
G75*
G03*
X755680Y1667630I-25000J117370D01*
G01*
X663310Y1830380D02*
G75*
G02*
X776060Y1717630I-25000J-137750D01*
G01*
X755680D01*
G75*
G03*
X663310Y1810000I-117370J-25000D01*
G01*
Y1830380D01*
X755680Y2175630D02*
X776060D01*
G75*
G02*
X663310Y2062880I-137750J25000D01*
G01*
Y2083260D01*
G75*
G03*
X755680Y2175630I-25000J117370D01*
G01*
X663310Y2338380D02*
G75*
G02*
X776060Y2225630I-25000J-137750D01*
G01*
X755680D01*
G75*
G03*
X663310Y2318000I-117370J-25000D01*
G01*
Y2338380D01*
X564810Y3578630D02*
G75*
G03*
X590810Y3548900I30000J0D01*
G01*
Y3528630D01*
X586550D01*
G75*
G02*
X544810Y3570370I0J41740D01*
G01*
Y3593630D01*
X564810D01*
Y3578630D01*
X586550Y3708630D02*
X590810D01*
Y3688360D01*
G75*
G03*
X564810Y3658630I4000J-29730D01*
G01*
Y3643630D01*
X544810D01*
Y3666890D01*
G75*
G02*
X586550Y3708630I41740J0D01*
G01*
X476570Y8908630D02*
G75*
G02*
X588310Y8796890I0J-111740D01*
G01*
Y8663630D01*
X568310D01*
Y8788630D01*
G75*
G03*
X468310Y8888630I-100000J0D01*
G01*
X343310D01*
Y8908630D01*
X476570D01*
X666810Y3593630D02*
X686810D01*
Y3570370D01*
G75*
G02*
X645070Y3528630I-41740J0D01*
G01*
X640810D01*
Y3548900D01*
G75*
G03*
X666810Y3578630I-4000J29730D01*
G01*
Y3593630D01*
X645070Y3708630D02*
G75*
G02*
X686810Y3666890I0J-41740D01*
G01*
Y3643630D01*
X666810D01*
Y3658630D01*
G75*
G03*
X640810Y3688360I-30000J0D01*
G01*
Y3708630D01*
X645070D01*
X893850Y6567350D02*
G75*
G02*
X1086850I96500J0D01*
G01*
G75*
G02*
X893850I-96500J0D01*
G01*
X1088310Y436930D02*
G75*
G02*
X1174110Y351130I0J-85800D01*
G01*
G75*
G02*
X1088310Y265330I-85800J0D01*
G01*
G75*
G02*
X1002510Y351130I0J85800D01*
G01*
G75*
G02*
X1088310Y436930I85800J0D01*
G01*
X1003460Y3244390D02*
G75*
G02*
X1165160I80850J0D01*
G01*
G75*
G02*
X1003460I-80850J0D01*
G01*
Y3752390D02*
G75*
G02*
X1165160I80850J0D01*
G01*
G75*
G02*
X1003460I-80850J0D01*
G01*
X893850Y7895350D02*
G75*
G02*
X1086850I96500J0D01*
G01*
G75*
G02*
X893850I-96500J0D01*
G01*
X918050Y6796350D02*
G75*
G03*
X965350Y6749050I72340J25040D01*
G01*
Y6728140D01*
G75*
G02*
X897140Y6796350I24990J93200D01*
G01*
X918050D01*
X897140Y6846350D02*
G75*
G02*
X965350Y6914560I93200J-24990D01*
G01*
Y6893650D01*
G75*
G03*
X918050Y6846350I25040J-72340D01*
G01*
X897140D01*
X918050Y7616350D02*
G75*
G03*
X965350Y7569050I72340J25040D01*
G01*
Y7548140D01*
G75*
G02*
X897140Y7616350I24990J93200D01*
G01*
X918050D01*
X897140Y7666350D02*
G75*
G02*
X965350Y7734560I93200J-24990D01*
G01*
Y7713650D01*
G75*
G03*
X918050Y7666350I25040J-72340D01*
G01*
X897140D01*
X1062650Y6796350D02*
X1083560D01*
G75*
G02*
X1015350Y6728140I-93200J24990D01*
G01*
Y6749050D01*
G75*
G03*
X1062650Y6796350I-25040J72340D01*
G01*
X1015350Y6914560D02*
G75*
G02*
X1083560Y6846350I-24990J-93200D01*
G01*
X1062650D01*
G75*
G03*
X1015350Y6893650I-72340J-25040D01*
G01*
Y6914560D01*
X1062650Y7616350D02*
X1083560D01*
G75*
G02*
X1015350Y7548140I-93200J24990D01*
G01*
Y7569050D01*
G75*
G03*
X1062650Y7616350I-25040J72340D01*
G01*
X1015350Y7734560D02*
G75*
G02*
X1083560Y7666350I-24990J-93200D01*
G01*
X1062650D01*
G75*
G03*
X1015350Y7713650I-72340J-25040D01*
G01*
Y7734560D01*
X1445810Y5633620D02*
G75*
G02*
X1624310Y5608630I87500J-24990D01*
G01*
G75*
G02*
X1558300Y5521130I-91000J0D01*
G01*
G75*
G02*
X1624310Y5433630I-24990J-87500D01*
G01*
G75*
G02*
X1445810Y5408640I-91000J0D01*
G01*
G75*
G02*
X1383300Y5346130I-87510J25000D01*
G01*
G75*
G02*
X1449310Y5258630I-24990J-87500D01*
G01*
G75*
G02*
X1267310I-91000J0D01*
G01*
G75*
G02*
X1333320Y5346130I91000J0D01*
G01*
G75*
G02*
X1270810Y5408640I25000J87510D01*
G01*
G75*
G02*
X1092310Y5433630I-87500J24990D01*
G01*
G75*
G02*
X1158320Y5521130I91000J0D01*
G01*
G75*
G02*
X1092310Y5608630I24990J87500D01*
G01*
G75*
G02*
X1270810Y5633620I91000J0D01*
G01*
G75*
G02*
X1445810I87500J-25000D01*
G01*
X1593310Y436930D02*
G75*
G02*
X1679110Y351130I0J-85800D01*
G01*
G75*
G02*
X1593310Y265330I-85800J0D01*
G01*
G75*
G02*
X1507510Y351130I0J85800D01*
G01*
G75*
G02*
X1593310Y436930I85800J0D01*
G01*
X1565350Y1583630D02*
G75*
G03*
X1591350Y1553900I30000J0D01*
G01*
Y1533630D01*
X1587090D01*
G75*
G02*
X1545350Y1575370I0J41740D01*
G01*
Y1598630D01*
X1565350D01*
Y1583630D01*
X1587090Y1713630D02*
X1591350D01*
Y1693360D01*
G75*
G03*
X1565350Y1663630I4000J-29730D01*
G01*
Y1648630D01*
X1545350D01*
Y1671890D01*
G75*
G02*
X1587090Y1713630I41740J0D01*
G01*
X1304810Y4678630D02*
G75*
G03*
X1330810Y4648900I30000J0D01*
G01*
Y4628630D01*
X1326550D01*
G75*
G02*
X1284810Y4670370I0J41740D01*
G01*
Y4693630D01*
X1304810D01*
Y4678630D01*
X1443310Y802130D02*
G75*
G02*
X1473310Y772130I0J-30000D01*
G01*
Y690130D01*
G75*
G02*
X1443310Y660130I-30000J0D01*
G01*
X1323310D01*
G75*
G02*
X1293310Y690130I0J30000D01*
G01*
Y772130D01*
G75*
G02*
X1323310Y802130I30000J0D01*
G01*
X1443310D01*
X1424310Y3168630D02*
G75*
G02*
X1454310Y3138630I0J-30000D01*
G01*
Y3018630D01*
G75*
G02*
X1424310Y2988630I-30000J0D01*
G01*
X1342310D01*
G75*
G02*
X1312310Y3018630I0J30000D01*
G01*
Y3138630D01*
G75*
G02*
X1342310Y3168630I30000J0D01*
G01*
X1424310D01*
X1326550Y4808630D02*
X1330810D01*
Y4788360D01*
G75*
G03*
X1304810Y4758630I4000J-29730D01*
G01*
Y4743630D01*
X1284810D01*
Y4766890D01*
G75*
G02*
X1326550Y4808630I41740J0D01*
G01*
X1406810Y4693630D02*
X1426810D01*
Y4670370D01*
G75*
G02*
X1385070Y4628630I-41740J0D01*
G01*
X1380810D01*
Y4648900D01*
G75*
G03*
X1406810Y4678630I-4000J29730D01*
G01*
Y4693630D01*
X1385070Y4808630D02*
G75*
G02*
X1426810Y4766890I0J-41740D01*
G01*
Y4743630D01*
X1406810D01*
Y4758630D01*
G75*
G03*
X1380810Y4788360I-30000J0D01*
G01*
Y4808630D01*
X1385070D01*
X1295100Y6659850D02*
G75*
G02*
X1497600I101250J0D01*
G01*
G75*
G02*
X1295100I-101250J0D01*
G01*
Y7802850D02*
G75*
G02*
X1497600I101250J0D01*
G01*
G75*
G02*
X1295100I-101250J0D01*
G01*
X1583980Y6421350D02*
G75*
G03*
X1676350Y6328980I117370J25000D01*
G01*
Y6308600D01*
G75*
G02*
X1563600Y6421350I25000J137750D01*
G01*
X1583980D01*
X1667350Y1598630D02*
X1687350D01*
Y1575370D01*
G75*
G02*
X1645610Y1533630I-41740J0D01*
G01*
X1641350D01*
Y1553900D01*
G75*
G03*
X1667350Y1583630I-4000J29730D01*
G01*
Y1598630D01*
X1645610Y1713630D02*
G75*
G02*
X1687350Y1671890I0J-41740D01*
G01*
Y1648630D01*
X1667350D01*
Y1663630D01*
G75*
G03*
X1641350Y1693360I-30000J0D01*
G01*
Y1713630D01*
X1645610D01*
X1563600Y6471350D02*
G75*
G02*
X1676350Y6584100I137750J-25000D01*
G01*
Y6563720D01*
G75*
G03*
X1583980Y6471350I25000J-117370D01*
G01*
X1563600D01*
X1583980Y7991350D02*
G75*
G03*
X1676350Y7898980I117370J25000D01*
G01*
Y7878600D01*
G75*
G02*
X1563600Y7991350I25000J137750D01*
G01*
X1583980D01*
X1563600Y8041350D02*
G75*
G02*
X1676350Y8154100I137750J-25000D01*
G01*
Y8133720D01*
G75*
G03*
X1583980Y8041350I25000J-117370D01*
G01*
X1563600D01*
X1838310Y4312130D02*
G75*
G02*
X1868310Y4282130I0J-30000D01*
G01*
Y4200130D01*
G75*
G02*
X1838310Y4170130I-30000J0D01*
G01*
X1718310D01*
G75*
G02*
X1688310Y4200130I0J30000D01*
G01*
Y4282130D01*
G75*
G02*
X1718310Y4312130I30000J0D01*
G01*
X1838310D01*
X1759810Y3631130D02*
G75*
G03*
X1785810Y3601400I30000J0D01*
G01*
Y3581130D01*
X1781550D01*
G75*
G02*
X1739810Y3622870I0J41740D01*
G01*
Y3646130D01*
X1759810D01*
Y3631130D01*
X1790350Y1588630D02*
G75*
G03*
X1816350Y1558900I30000J0D01*
G01*
Y1538630D01*
X1812090D01*
G75*
G02*
X1770350Y1580370I0J41740D01*
G01*
Y1603630D01*
X1790350D01*
Y1588630D01*
X1812090Y1718630D02*
X1816350D01*
Y1698360D01*
G75*
G03*
X1790350Y1668630I4000J-29730D01*
G01*
Y1653630D01*
X1770350D01*
Y1676890D01*
G75*
G02*
X1812090Y1718630I41740J0D01*
G01*
X1781550Y3761130D02*
X1785810D01*
Y3740860D01*
G75*
G03*
X1759810Y3711130I4000J-29730D01*
G01*
Y3696130D01*
X1739810D01*
Y3719390D01*
G75*
G02*
X1781550Y3761130I41740J0D01*
G01*
X1861810Y3646130D02*
X1881810D01*
Y3622870D01*
G75*
G02*
X1840070Y3581130I-41740J0D01*
G01*
X1835810D01*
Y3601400D01*
G75*
G03*
X1861810Y3631130I-4000J29730D01*
G01*
Y3646130D01*
X1892350Y1603630D02*
X1912350D01*
Y1580370D01*
G75*
G02*
X1870610Y1538630I-41740J0D01*
G01*
X1866350D01*
Y1558900D01*
G75*
G03*
X1892350Y1588630I-4000J29730D01*
G01*
Y1603630D01*
X1870610Y1718630D02*
G75*
G02*
X1912350Y1676890I0J-41740D01*
G01*
Y1653630D01*
X1892350D01*
Y1668630D01*
G75*
G03*
X1866350Y1698360I-30000J0D01*
G01*
Y1718630D01*
X1870610D01*
X1840070Y3761130D02*
G75*
G02*
X1881810Y3719390I0J-41740D01*
G01*
Y3696130D01*
X1861810D01*
Y3711130D01*
G75*
G03*
X1835810Y3740860I-30000J0D01*
G01*
Y3761130D01*
X1840070D01*
X1818720Y6421350D02*
X1839100D01*
G75*
G02*
X1726350Y6308600I-137750J25000D01*
G01*
Y6328980D01*
G75*
G03*
X1818720Y6421350I-25000J117370D01*
G01*
X1726350Y6584100D02*
G75*
G02*
X1839100Y6471350I-25000J-137750D01*
G01*
X1818720D01*
G75*
G03*
X1726350Y6563720I-117370J-25000D01*
G01*
Y6584100D01*
X1818720Y7991350D02*
X1839100D01*
G75*
G02*
X1726350Y7878600I-137750J25000D01*
G01*
Y7898980D01*
G75*
G03*
X1818720Y7991350I-25000J117370D01*
G01*
X1726350Y8154100D02*
G75*
G02*
X1839100Y8041350I-25000J-137750D01*
G01*
X1818720D01*
G75*
G03*
X1726350Y8133720I-117370J-25000D01*
G01*
Y8154100D01*
X1941350Y6913850D02*
G75*
G02*
X2121350I90000J0D01*
G01*
G75*
G02*
X1941350I-90000J0D01*
G01*
X2054310Y3441130D02*
G75*
G02*
X2084310Y3411130I0J-30000D01*
G01*
Y3291130D01*
G75*
G02*
X2054310Y3261130I-30000J0D01*
G01*
X1972310D01*
G75*
G02*
X1942310Y3291130I0J30000D01*
G01*
Y3411130D01*
G75*
G02*
X1972310Y3441130I30000J0D01*
G01*
X2054310D01*
X1941350Y7167850D02*
G75*
G02*
X2121350I90000J0D01*
G01*
G75*
G02*
X1941350I-90000J0D01*
G01*
Y7421850D02*
G75*
G02*
X2121350I90000J0D01*
G01*
G75*
G02*
X1941350I-90000J0D01*
G01*
Y7765850D02*
X2121350D01*
Y7585850D01*
X1941350D01*
Y7765850D01*
X2214750Y260150D02*
X2291350D01*
Y240150D01*
X2194750D01*
Y311350D01*
X2214750D01*
Y260150D01*
X2194750Y432550D02*
X2291350D01*
Y412550D01*
X2214750D01*
Y361350D01*
X2194750D01*
Y432550D01*
Y686550D02*
X2437950D01*
Y494150D01*
X2194750D01*
Y686550D01*
X2417950Y311350D02*
X2437950D01*
Y240150D01*
X2341350D01*
Y260150D01*
X2417950D01*
Y311350D01*
X2341350Y432550D02*
X2437950D01*
Y361350D01*
X2417950D01*
Y412550D01*
X2341350D01*
Y432550D01*
X2195350Y6786850D02*
G75*
G02*
X2375350I90000J0D01*
G01*
G75*
G02*
X2195350I-90000J0D01*
G01*
Y7040850D02*
G75*
G02*
X2375350I90000J0D01*
G01*
G75*
G02*
X2195350I-90000J0D01*
G01*
Y7294850D02*
G75*
G02*
X2375350I90000J0D01*
G01*
G75*
G02*
X2195350I-90000J0D01*
G01*
Y7548850D02*
G75*
G02*
X2375350I90000J0D01*
G01*
G75*
G02*
X2195350I-90000J0D01*
G01*
X2502310Y4103630D02*
G75*
G03*
X2528310Y4073900I30000J0D01*
G01*
Y4053630D01*
X2524050D01*
G75*
G02*
X2482310Y4095370I0J41740D01*
G01*
Y4118630D01*
X2502310D01*
Y4103630D01*
X2524050Y4233630D02*
X2528310D01*
Y4213360D01*
G75*
G03*
X2502310Y4183630I4000J-29730D01*
G01*
Y4168630D01*
X2482310D01*
Y4191890D01*
G75*
G02*
X2524050Y4233630I41740J0D01*
G01*
X2508310Y4748630D02*
G75*
G02*
X2638310I65000J0D01*
G01*
G75*
G02*
X2508310I-65000J0D01*
G01*
X2604310Y4118630D02*
X2624310D01*
Y4095370D01*
G75*
G02*
X2582570Y4053630I-41740J0D01*
G01*
X2578310D01*
Y4073900D01*
G75*
G03*
X2604310Y4103630I-4000J29730D01*
G01*
Y4118630D01*
X2758310Y1016630D02*
G75*
G02*
X2788310Y986630I0J-30000D01*
G01*
Y904630D01*
G75*
G02*
X2758310Y874630I-30000J0D01*
G01*
X2638310D01*
G75*
G02*
X2608310Y904630I0J30000D01*
G01*
Y986630D01*
G75*
G02*
X2638310Y1016630I30000J0D01*
G01*
X2758310D01*
X2582570Y4233630D02*
G75*
G02*
X2624310Y4191890I0J-41740D01*
G01*
Y4168630D01*
X2604310D01*
Y4183630D01*
G75*
G03*
X2578310Y4213360I-30000J0D01*
G01*
Y4233630D01*
X2582570D01*
X2508310Y4903630D02*
G75*
G02*
X2638310I65000J0D01*
G01*
G75*
G02*
X2508310I-65000J0D01*
G01*
X2638310Y4898630D02*
G75*
G02*
X2768310I65000J0D01*
G01*
G75*
G02*
X2638310I-65000J0D01*
G01*
X2641350Y4748630D02*
G75*
G02*
X2771350I65000J0D01*
G01*
G75*
G02*
X2641350I-65000J0D01*
G01*
X2754310Y1266350D02*
G75*
G02*
X2784310Y1236350I0J-30000D01*
G01*
Y1116350D01*
G75*
G02*
X2754310Y1086350I-30000J0D01*
G01*
X2672310D01*
G75*
G02*
X2642310Y1116350I0J30000D01*
G01*
Y1236350D01*
G75*
G02*
X2672310Y1266350I30000J0D01*
G01*
X2754310D01*
X2508310Y5043630D02*
G75*
G02*
X2638310I65000J0D01*
G01*
G75*
G02*
X2508310I-65000J0D01*
G01*
Y5183630D02*
G75*
G02*
X2638310I65000J0D01*
G01*
G75*
G02*
X2508310I-65000J0D01*
G01*
Y5323630D02*
G75*
G02*
X2638310I65000J0D01*
G01*
G75*
G02*
X2508310I-65000J0D01*
G01*
X2655810Y6397630D02*
X2670810D01*
Y6377630D01*
X2647550D01*
G75*
G02*
X2605810Y6419370I0J41740D01*
G01*
Y6423630D01*
X2626080D01*
G75*
G03*
X2655810Y6397630I29730J4000D01*
G01*
X2641350Y5043630D02*
G75*
G02*
X2771350I65000J0D01*
G01*
G75*
G02*
X2641350I-65000J0D01*
G01*
Y5183630D02*
G75*
G02*
X2771350I65000J0D01*
G01*
G75*
G02*
X2641350I-65000J0D01*
G01*
Y5323630D02*
G75*
G02*
X2771350I65000J0D01*
G01*
G75*
G02*
X2641350I-65000J0D01*
G01*
X2647550Y6519630D02*
X2670810D01*
Y6499630D01*
X2655810D01*
G75*
G03*
X2626080Y6473630I0J-30000D01*
G01*
X2605810D01*
Y6477890D01*
G75*
G02*
X2647550Y6519630I41740J0D01*
G01*
X2750840Y7351160D02*
G75*
G02*
X2755230Y7340550I-10630J-10610D01*
G01*
G75*
G02*
X2750840Y7329940I-15020J0D01*
G01*
X2707000Y7286100D01*
G75*
G02*
X2685780I-10610J10630D01*
G01*
X2615780Y7356100D01*
G75*
G02*
X2611390Y7366710I10630J10610D01*
G01*
G75*
G02*
X2615780Y7377320I15020J0D01*
G01*
X2659620Y7421160D01*
G75*
G02*
X2680840I10610J-10630D01*
G01*
X2750840Y7351160D01*
X2807810Y7057130D02*
G75*
G02*
X2822810Y7042140I0J-14990D01*
G01*
G75*
G02*
Y7042130I-13020J0D01*
G01*
Y6980130D01*
G75*
G02*
Y6980120I-13020J0D01*
G01*
G75*
G02*
X2807810Y6965130I-15000J0D01*
G01*
X2708810D01*
G75*
G02*
X2693810Y6980120I0J14990D01*
G01*
G75*
G02*
Y6980130I13020J10D01*
G01*
Y7042130D01*
G75*
G02*
Y7042140I13020J10D01*
G01*
G75*
G02*
X2708810Y7057130I15000J0D01*
G01*
X2807810D01*
X2812810Y6830630D02*
G75*
G02*
X2827810Y6815640I0J-14990D01*
G01*
G75*
G02*
Y6815630I-13020J0D01*
G01*
Y6753630D01*
G75*
G02*
Y6753620I-13020J0D01*
G01*
G75*
G02*
X2812810Y6738630I-15000J0D01*
G01*
X2713810D01*
G75*
G02*
X2698810Y6753620I0J14990D01*
G01*
G75*
G02*
Y6753630I13020J10D01*
G01*
Y6815630D01*
G75*
G02*
Y6815640I13020J10D01*
G01*
G75*
G02*
X2713810Y6830630I15000J0D01*
G01*
X2812810D01*
X2765540Y6423630D02*
X2785810D01*
Y6419370D01*
G75*
G02*
X2744070Y6377630I-41740J0D01*
G01*
X2720810D01*
Y6397630D01*
X2735810D01*
G75*
G03*
X2765540Y6423630I0J30000D01*
G01*
X2773310Y4748630D02*
G75*
G02*
X2903310I65000J0D01*
G01*
G75*
G02*
X2773310I-65000J0D01*
G01*
X2814750Y260150D02*
X2891350D01*
Y240150D01*
X2794750D01*
Y311350D01*
X2814750D01*
Y260150D01*
X2794750Y432550D02*
X2891350D01*
Y412550D01*
X2814750D01*
Y361350D01*
X2794750D01*
Y432550D01*
Y686550D02*
X3037950D01*
Y494150D01*
X2794750D01*
Y686550D01*
X3017950Y311350D02*
X3037950D01*
Y240150D01*
X2941350D01*
Y260150D01*
X3017950D01*
Y311350D01*
X2941350Y432550D02*
X3037950D01*
Y361350D01*
X3017950D01*
Y412550D01*
X2941350D01*
Y432550D01*
X2773310Y4898630D02*
G75*
G02*
X2903310I65000J0D01*
G01*
G75*
G02*
X2773310I-65000J0D01*
G01*
X2778310Y5043630D02*
G75*
G02*
X2908310I65000J0D01*
G01*
G75*
G02*
X2778310I-65000J0D01*
G01*
X2908310Y4748630D02*
G75*
G02*
X3038310I65000J0D01*
G01*
G75*
G02*
X2908310I-65000J0D01*
G01*
X3163310Y4773630D02*
G75*
G02*
X3288310Y4748630I60000J-25000D01*
G01*
G75*
G02*
X3163310Y4723630I-65000J0D01*
G01*
G75*
G02*
X3038310Y4748630I-60000J25000D01*
G01*
G75*
G02*
X3163310Y4773630I65000J0D01*
G01*
X3104810Y1941130D02*
G75*
G03*
X3130810Y1911400I30000J0D01*
G01*
Y1891130D01*
X3126550D01*
G75*
G02*
X3084810Y1932870I0J41740D01*
G01*
Y1956130D01*
X3104810D01*
Y1941130D01*
X3126550Y2071130D02*
X3130810D01*
Y2050860D01*
G75*
G03*
X3104810Y2021130I4000J-29730D01*
G01*
Y2006130D01*
X3084810D01*
Y2029390D01*
G75*
G02*
X3126550Y2071130I41740J0D01*
G01*
X3104810Y2336130D02*
G75*
G03*
X3130810Y2306400I30000J0D01*
G01*
Y2286130D01*
X3126550D01*
G75*
G02*
X3084810Y2327870I0J41740D01*
G01*
Y2351130D01*
X3104810D01*
Y2336130D01*
X3126550Y2466130D02*
X3130810D01*
Y2445860D01*
G75*
G03*
X3104810Y2416130I4000J-29730D01*
G01*
Y2401130D01*
X3084810D01*
Y2424390D01*
G75*
G02*
X3126550Y2466130I41740J0D01*
G01*
X3109810Y3113630D02*
G75*
G03*
X3135810Y3083900I30000J0D01*
G01*
Y3063630D01*
X3131550D01*
G75*
G02*
X3089810Y3105370I0J41740D01*
G01*
Y3128630D01*
X3109810D01*
Y3113630D01*
X3244310Y1266350D02*
G75*
G02*
X3274310Y1236350I0J-30000D01*
G01*
Y1116350D01*
G75*
G02*
X3244310Y1086350I-30000J0D01*
G01*
X3162310D01*
G75*
G02*
X3132310Y1116350I0J30000D01*
G01*
Y1236350D01*
G75*
G02*
X3162310Y1266350I30000J0D01*
G01*
X3244310D01*
X3131550Y3243630D02*
X3135810D01*
Y3223360D01*
G75*
G03*
X3109810Y3193630I4000J-29730D01*
G01*
Y3178630D01*
X3089810D01*
Y3201890D01*
G75*
G02*
X3131550Y3243630I41740J0D01*
G01*
X3112310Y3493630D02*
G75*
G03*
X3138310Y3463900I30000J0D01*
G01*
Y3443630D01*
X3134050D01*
G75*
G02*
X3092310Y3485370I0J41740D01*
G01*
Y3508630D01*
X3112310D01*
Y3493630D01*
X3134050Y3623630D02*
X3138310D01*
Y3603360D01*
G75*
G03*
X3112310Y3573630I4000J-29730D01*
G01*
Y3558630D01*
X3092310D01*
Y3581890D01*
G75*
G02*
X3134050Y3623630I41740J0D01*
G01*
X3119640Y4520590D02*
X3312040D01*
Y4328190D01*
X3119640D01*
Y4520590D01*
X3206810Y1956130D02*
X3226810D01*
Y1932870D01*
G75*
G02*
X3185070Y1891130I-41740J0D01*
G01*
X3180810D01*
Y1911400D01*
G75*
G03*
X3206810Y1941130I-4000J29730D01*
G01*
Y1956130D01*
X3185070Y2071130D02*
G75*
G02*
X3226810Y2029390I0J-41740D01*
G01*
Y2006130D01*
X3206810D01*
Y2021130D01*
G75*
G03*
X3180810Y2050860I-30000J0D01*
G01*
Y2071130D01*
X3185070D01*
X3206810Y2351130D02*
X3226810D01*
Y2327870D01*
G75*
G02*
X3185070Y2286130I-41740J0D01*
G01*
X3180810D01*
Y2306400D01*
G75*
G03*
X3206810Y2336130I-4000J29730D01*
G01*
Y2351130D01*
X3185070Y2466130D02*
G75*
G02*
X3226810Y2424390I0J-41740D01*
G01*
Y2401130D01*
X3206810D01*
Y2416130D01*
G75*
G03*
X3180810Y2445860I-30000J0D01*
G01*
Y2466130D01*
X3185070D01*
X3211810Y3128630D02*
X3231810D01*
Y3105370D01*
G75*
G02*
X3190070Y3063630I-41740J0D01*
G01*
X3185810D01*
Y3083900D01*
G75*
G03*
X3211810Y3113630I-4000J29730D01*
G01*
Y3128630D01*
X3190070Y3243630D02*
G75*
G02*
X3231810Y3201890I0J-41740D01*
G01*
Y3178630D01*
X3211810D01*
Y3193630D01*
G75*
G03*
X3185810Y3223360I-30000J0D01*
G01*
Y3243630D01*
X3190070D01*
X3214310Y3508630D02*
X3234310D01*
Y3485370D01*
G75*
G02*
X3192570Y3443630I-41740J0D01*
G01*
X3188310D01*
Y3463900D01*
G75*
G03*
X3214310Y3493630I-4000J29730D01*
G01*
Y3508630D01*
X3192570Y3623630D02*
G75*
G02*
X3234310Y3581890I0J-41740D01*
G01*
Y3558630D01*
X3214310D01*
Y3573630D01*
G75*
G03*
X3188310Y3603360I-30000J0D01*
G01*
Y3623630D01*
X3192570D01*
X2908310Y4898630D02*
G75*
G02*
X3038310I65000J0D01*
G01*
G75*
G02*
X2908310I-65000J0D01*
G01*
X3163310Y4923630D02*
G75*
G02*
X3288310Y4898630I60000J-25000D01*
G01*
G75*
G02*
X3163310Y4873630I-65000J0D01*
G01*
G75*
G02*
X3038310Y4898630I-60000J25000D01*
G01*
G75*
G02*
X3163310Y4923630I65000J0D01*
G01*
X2744070Y6519630D02*
G75*
G02*
X2785810Y6477890I0J-41740D01*
G01*
Y6473630D01*
X2765540D01*
G75*
G03*
X2735810Y6499630I-29730J-4000D01*
G01*
X2720810D01*
Y6519630D01*
X2744070D01*
X2771950Y7527270D02*
G75*
G02*
X2776340Y7516660I-10630J-10610D01*
G01*
G75*
G02*
X2771950Y7506050I-15020J0D01*
G01*
X2728110Y7462210D01*
G75*
G02*
X2706890I-10610J10630D01*
G01*
X2636890Y7532210D01*
G75*
G02*
X2632500Y7542820I10630J10610D01*
G01*
G75*
G02*
X2636890Y7553430I15020J0D01*
G01*
X2680730Y7597270D01*
G75*
G02*
X2701950I10610J-10630D01*
G01*
X2771950Y7527270D01*
X2843010Y7868630D02*
G75*
G03*
X2869010Y7838900I30000J0D01*
G01*
Y7818630D01*
X2864750D01*
G75*
G02*
X2823010Y7860370I0J41740D01*
G01*
Y7883630D01*
X2843010D01*
Y7868630D01*
X2864750Y7998630D02*
X2869010D01*
Y7978360D01*
G75*
G03*
X2843010Y7948630I4000J-29730D01*
G01*
Y7933630D01*
X2823010D01*
Y7956890D01*
G75*
G02*
X2864750Y7998630I41740J0D01*
G01*
X2908310Y5048630D02*
G75*
G02*
X3038310I65000J0D01*
G01*
G75*
G02*
X2908310I-65000J0D01*
G01*
X3163310Y5073630D02*
G75*
G02*
X3288310Y5048630I60000J-25000D01*
G01*
G75*
G02*
X3163310Y5023630I-65000J0D01*
G01*
G75*
G02*
X3038310Y5048630I-60000J25000D01*
G01*
G75*
G02*
X3163310Y5073630I65000J0D01*
G01*
X2945010Y7883630D02*
X2965010D01*
Y7860370D01*
G75*
G02*
X2923270Y7818630I-41740J0D01*
G01*
X2919010D01*
Y7838900D01*
G75*
G03*
X2945010Y7868630I-4000J29730D01*
G01*
Y7883630D01*
X2923270Y7998630D02*
G75*
G02*
X2965010Y7956890I0J-41740D01*
G01*
Y7933630D01*
X2945010D01*
Y7948630D01*
G75*
G03*
X2919010Y7978360I-30000J0D01*
G01*
Y7998630D01*
X2923270D01*
X3124310Y6678130D02*
G75*
G02*
X3139310Y6663140I0J-14990D01*
G01*
G75*
G02*
Y6663130I-13020J0D01*
G01*
Y6564130D01*
G75*
G02*
Y6564120I-13020J0D01*
G01*
G75*
G02*
X3124310Y6549130I-15000J0D01*
G01*
X3062310D01*
G75*
G02*
X3047310Y6564120I0J14990D01*
G01*
G75*
G02*
Y6564130I13020J10D01*
G01*
Y6663130D01*
G75*
G02*
Y6663140I13020J10D01*
G01*
G75*
G02*
X3062310Y6678130I15000J0D01*
G01*
X3124310D01*
X3289310Y7398130D02*
G75*
G02*
X3304310Y7383140I0J-14990D01*
G01*
G75*
G02*
Y7383130I-13020J0D01*
G01*
Y7284130D01*
G75*
G02*
Y7284120I-13020J0D01*
G01*
G75*
G02*
X3289310Y7269130I-15000J0D01*
G01*
X3227310D01*
G75*
G02*
X3212310Y7284120I0J14990D01*
G01*
G75*
G02*
Y7284130I13020J10D01*
G01*
Y7383130D01*
G75*
G02*
Y7383140I13020J10D01*
G01*
G75*
G02*
X3227310Y7398130I15000J0D01*
G01*
X3289310D01*
X3354310Y7135630D02*
G75*
G02*
X3369310Y7120640I0J-14990D01*
G01*
G75*
G02*
Y7120630I-13020J0D01*
G01*
Y7021630D01*
G75*
G02*
Y7021620I-13020J0D01*
G01*
G75*
G02*
X3354310Y7006630I-15000J0D01*
G01*
X3292310D01*
G75*
G02*
X3277310Y7021620I0J14990D01*
G01*
G75*
G02*
Y7021630I13020J10D01*
G01*
Y7120630D01*
G75*
G02*
Y7120640I13020J10D01*
G01*
G75*
G02*
X3292310Y7135630I15000J0D01*
G01*
X3354310D01*
X3339310Y7823630D02*
G75*
G02*
X3369310Y7793630I0J-30000D01*
G01*
Y7673630D01*
G75*
G02*
X3339310Y7643630I-30000J0D01*
G01*
X3257310D01*
G75*
G02*
X3227310Y7673630I0J30000D01*
G01*
Y7793630D01*
G75*
G02*
X3257310Y7823630I30000J0D01*
G01*
X3339310D01*
X3474310Y5655630D02*
G75*
G02*
X3489310Y5640640I0J-14990D01*
G01*
G75*
G02*
Y5640630I-13020J0D01*
G01*
Y5541630D01*
G75*
G02*
Y5541620I-13020J0D01*
G01*
G75*
G02*
X3474310Y5526630I-15000J0D01*
G01*
X3412310D01*
G75*
G02*
X3397310Y5541620I0J14990D01*
G01*
G75*
G02*
Y5541630I13020J10D01*
G01*
Y5640630D01*
G75*
G02*
Y5640640I13020J10D01*
G01*
G75*
G02*
X3412310Y5655630I15000J0D01*
G01*
X3474310D01*
X3596810Y778630D02*
G75*
G02*
X3626810Y748630I0J-30000D01*
G01*
Y628630D01*
G75*
G02*
X3596810Y598630I-30000J0D01*
G01*
X3514810D01*
G75*
G02*
X3484810Y628630I0J30000D01*
G01*
Y748630D01*
G75*
G02*
X3514810Y778630I30000J0D01*
G01*
X3596810D01*
X3529310Y7458630D02*
G75*
G02*
X3559310Y7428630I0J-30000D01*
G01*
Y7308630D01*
G75*
G02*
X3529310Y7278630I-30000J0D01*
G01*
X3447310D01*
G75*
G02*
X3417310Y7308630I0J30000D01*
G01*
Y7428630D01*
G75*
G02*
X3447310Y7458630I30000J0D01*
G01*
X3529310D01*
X3579310Y5680630D02*
G75*
G02*
X3594310Y5665640I0J-14990D01*
G01*
G75*
G02*
Y5665630I-13020J0D01*
G01*
Y5566630D01*
G75*
G02*
Y5566620I-13020J0D01*
G01*
G75*
G02*
X3579310Y5551630I-15000J0D01*
G01*
X3517310D01*
G75*
G02*
X3502310Y5566620I0J14990D01*
G01*
G75*
G02*
Y5566630I13020J10D01*
G01*
Y5665630D01*
G75*
G02*
Y5665640I13020J10D01*
G01*
G75*
G02*
X3517310Y5680630I15000J0D01*
G01*
X3579310D01*
X3615810Y8378630D02*
G75*
G02*
X3725810Y8268630I0J-110000D01*
G01*
G75*
G02*
X3615810Y8158630I-110000J0D01*
G01*
G75*
G02*
X3505810Y8268630I0J110000D01*
G01*
G75*
G02*
X3615810Y8378630I110000J0D01*
G01*
X3698310Y5867630D02*
X3713310D01*
Y5847630D01*
X3690050D01*
G75*
G02*
X3648310Y5889370I0J41740D01*
G01*
Y5893630D01*
X3668580D01*
G75*
G03*
X3698310Y5867630I29730J4000D01*
G01*
X3684010Y3401130D02*
G75*
G03*
X3710010Y3371400I30000J0D01*
G01*
Y3351130D01*
X3705750D01*
G75*
G02*
X3664010Y3392870I0J41740D01*
G01*
Y3416130D01*
X3684010D01*
Y3401130D01*
X3705750Y3531130D02*
X3710010D01*
Y3510860D01*
G75*
G03*
X3684010Y3481130I4000J-29730D01*
G01*
Y3466130D01*
X3664010D01*
Y3489390D01*
G75*
G02*
X3705750Y3531130I41740J0D01*
G01*
X3685010Y4091130D02*
G75*
G03*
X3711010Y4061400I30000J0D01*
G01*
Y4041130D01*
X3706750D01*
G75*
G02*
X3665010Y4082870I0J41740D01*
G01*
Y4106130D01*
X3685010D01*
Y4091130D01*
X3706750Y4221130D02*
X3711010D01*
Y4200860D01*
G75*
G03*
X3685010Y4171130I4000J-29730D01*
G01*
Y4156130D01*
X3665010D01*
Y4179390D01*
G75*
G02*
X3706750Y4221130I41740J0D01*
G01*
X3690050Y5989630D02*
X3713310D01*
Y5969630D01*
X3698310D01*
G75*
G03*
X3668580Y5943630I0J-30000D01*
G01*
X3648310D01*
Y5947890D01*
G75*
G02*
X3690050Y5989630I41740J0D01*
G01*
X3615810Y8632630D02*
G75*
G02*
X3725810Y8522630I0J-110000D01*
G01*
G75*
G02*
X3615810Y8412630I-110000J0D01*
G01*
G75*
G02*
X3505810Y8522630I0J110000D01*
G01*
G75*
G02*
X3615810Y8632630I110000J0D01*
G01*
X3852810Y6347130D02*
G75*
G02*
X3867810Y6332140I0J-14990D01*
G01*
G75*
G02*
Y6332130I-13020J0D01*
G01*
Y6270130D01*
G75*
G02*
Y6270120I-13020J0D01*
G01*
G75*
G02*
X3852810Y6255130I-15000J0D01*
G01*
X3753810D01*
G75*
G02*
X3738810Y6270120I0J14990D01*
G01*
G75*
G02*
Y6270130I13020J10D01*
G01*
Y6332130D01*
G75*
G02*
Y6332140I13020J10D01*
G01*
G75*
G02*
X3753810Y6347130I15000J0D01*
G01*
X3852810D01*
X3786010Y3416130D02*
X3806010D01*
Y3392870D01*
G75*
G02*
X3764270Y3351130I-41740J0D01*
G01*
X3760010D01*
Y3371400D01*
G75*
G03*
X3786010Y3401130I-4000J29730D01*
G01*
Y3416130D01*
X3764270Y3531130D02*
G75*
G02*
X3806010Y3489390I0J-41740D01*
G01*
Y3466130D01*
X3786010D01*
Y3481130D01*
G75*
G03*
X3760010Y3510860I-30000J0D01*
G01*
Y3531130D01*
X3764270D01*
X3787010Y4106130D02*
X3807010D01*
Y4082870D01*
G75*
G02*
X3765270Y4041130I-41740J0D01*
G01*
X3761010D01*
Y4061400D01*
G75*
G03*
X3787010Y4091130I-4000J29730D01*
G01*
Y4106130D01*
X3765270Y4221130D02*
G75*
G02*
X3807010Y4179390I0J-41740D01*
G01*
Y4156130D01*
X3787010D01*
Y4171130D01*
G75*
G03*
X3761010Y4200860I-30000J0D01*
G01*
Y4221130D01*
X3765270D01*
X3808040Y5893630D02*
X3828310D01*
Y5889370D01*
G75*
G02*
X3786570Y5847630I-41740J0D01*
G01*
X3763310D01*
Y5867630D01*
X3778310D01*
G75*
G03*
X3808040Y5893630I0J30000D01*
G01*
X3834810Y2903630D02*
G75*
G03*
X3860810Y2873900I30000J0D01*
G01*
Y2853630D01*
X3856550D01*
G75*
G02*
X3814810Y2895370I0J41740D01*
G01*
Y2918630D01*
X3834810D01*
Y2903630D01*
X3856550Y3033630D02*
X3860810D01*
Y3013360D01*
G75*
G03*
X3834810Y2983630I4000J-29730D01*
G01*
Y2968630D01*
X3814810D01*
Y2991890D01*
G75*
G02*
X3856550Y3033630I41740J0D01*
G01*
X3786570Y5989630D02*
G75*
G02*
X3828310Y5947890I0J-41740D01*
G01*
Y5943630D01*
X3808040D01*
G75*
G03*
X3778310Y5969630I-29730J-4000D01*
G01*
X3763310D01*
Y5989630D01*
X3786570D01*
X3869810Y8378630D02*
G75*
G02*
X3979810Y8268630I0J-110000D01*
G01*
G75*
G02*
X3869810Y8158630I-110000J0D01*
G01*
G75*
G02*
X3759810Y8268630I0J110000D01*
G01*
G75*
G02*
X3869810Y8378630I110000J0D01*
G01*
X4030840Y7858660D02*
G75*
G02*
X4035230Y7848050I-10630J-10610D01*
G01*
G75*
G02*
X4030840Y7837440I-15020J0D01*
G01*
X3987000Y7793600D01*
G75*
G02*
X3965780I-10610J10630D01*
G01*
X3895780Y7863600D01*
G75*
G02*
X3891390Y7874210I10630J10610D01*
G01*
G75*
G02*
X3895780Y7884820I15020J0D01*
G01*
X3939620Y7928660D01*
G75*
G02*
X3960840I10610J-10630D01*
G01*
X4030840Y7858660D01*
X4004310Y3531130D02*
G75*
G02*
X4034310Y3501130I0J-30000D01*
G01*
Y3381130D01*
G75*
G02*
X4004310Y3351130I-30000J0D01*
G01*
X3922310D01*
G75*
G02*
X3892310Y3381130I0J30000D01*
G01*
Y3501130D01*
G75*
G02*
X3922310Y3531130I30000J0D01*
G01*
X4004310D01*
X3936810Y2918630D02*
X3956810D01*
Y2895370D01*
G75*
G02*
X3915070Y2853630I-41740J0D01*
G01*
X3910810D01*
Y2873900D01*
G75*
G03*
X3936810Y2903630I-4000J29730D01*
G01*
Y2918630D01*
X4059310Y1073630D02*
G75*
G02*
X4089310Y1043630I0J-30000D01*
G01*
Y923630D01*
G75*
G02*
X4059310Y893630I-30000J0D01*
G01*
X3977310D01*
G75*
G02*
X3947310Y923630I0J30000D01*
G01*
Y1043630D01*
G75*
G02*
X3977310Y1073630I30000J0D01*
G01*
X4059310D01*
X4055440Y436510D02*
X4247840D01*
Y244110D01*
X4055440D01*
Y436510D01*
X3967310Y1916130D02*
G75*
G03*
X3993310Y1886400I30000J0D01*
G01*
Y1866130D01*
X3989050D01*
G75*
G02*
X3947310Y1907870I0J41740D01*
G01*
Y1931130D01*
X3967310D01*
Y1916130D01*
X3989050Y2046130D02*
X3993310D01*
Y2025860D01*
G75*
G03*
X3967310Y1996130I4000J-29730D01*
G01*
Y1981130D01*
X3947310D01*
Y2004390D01*
G75*
G02*
X3989050Y2046130I41740J0D01*
G01*
X3915070Y3033630D02*
G75*
G02*
X3956810Y2991890I0J-41740D01*
G01*
Y2968630D01*
X3936810D01*
Y2983630D01*
G75*
G03*
X3910810Y3013360I-30000J0D01*
G01*
Y3033630D01*
X3915070D01*
X4006810Y4088630D02*
G75*
G02*
X4036810Y4058630I0J-30000D01*
G01*
Y3938630D01*
G75*
G02*
X4006810Y3908630I-30000J0D01*
G01*
X3924810D01*
G75*
G02*
X3894810Y3938630I0J30000D01*
G01*
Y4058630D01*
G75*
G02*
X3924810Y4088630I30000J0D01*
G01*
X4006810D01*
X3783350Y8497630D02*
G75*
G03*
X3844810Y8436170I86470J25010D01*
G01*
Y8415510D01*
G75*
G02*
X3762690Y8497630I25010J107130D01*
G01*
X3783350D01*
X3762690Y8547630D02*
G75*
G02*
X3844810Y8629750I107130J-25010D01*
G01*
Y8609090D01*
G75*
G03*
X3783350Y8547630I25010J-86470D01*
G01*
X3762690D01*
X3956270Y8497630D02*
X3976930D01*
G75*
G02*
X3894810Y8415510I-107130J25010D01*
G01*
Y8436170D01*
G75*
G03*
X3956270Y8497630I-25010J86470D01*
G01*
X3894810Y8629750D02*
G75*
G02*
X3976930Y8547630I-25010J-107130D01*
G01*
X3956270D01*
G75*
G03*
X3894810Y8609090I-86470J-25010D01*
G01*
Y8629750D01*
X4123810Y8378630D02*
G75*
G02*
X4233810Y8268630I0J-110000D01*
G01*
G75*
G02*
X4123810Y8158630I-110000J0D01*
G01*
G75*
G02*
X4013810Y8268630I0J110000D01*
G01*
G75*
G02*
X4123810Y8378630I110000J0D01*
G01*
X4281810Y7893130D02*
G75*
G02*
X4296810Y7878140I0J-14990D01*
G01*
G75*
G02*
Y7878130I-13020J0D01*
G01*
Y7779130D01*
G75*
G02*
Y7779120I-13020J0D01*
G01*
G75*
G02*
X4281810Y7764130I-15000J0D01*
G01*
X4219810D01*
G75*
G02*
X4204810Y7779120I0J14990D01*
G01*
G75*
G02*
Y7779130I13020J10D01*
G01*
Y7878130D01*
G75*
G02*
Y7878140I13020J10D01*
G01*
G75*
G02*
X4219810Y7893130I15000J0D01*
G01*
X4281810D01*
X4244810Y6278630D02*
G75*
G03*
X4270810Y6248900I30000J0D01*
G01*
Y6228630D01*
X4266550D01*
G75*
G02*
X4224810Y6270370I0J41740D01*
G01*
Y6293630D01*
X4244810D01*
Y6278630D01*
X4266550Y6408630D02*
X4270810D01*
Y6388360D01*
G75*
G03*
X4244810Y6358630I4000J-29730D01*
G01*
Y6343630D01*
X4224810D01*
Y6366890D01*
G75*
G02*
X4266550Y6408630I41740J0D01*
G01*
X4355810Y5427130D02*
G75*
G02*
X4385810Y5397130I0J-30000D01*
G01*
Y5315130D01*
G75*
G02*
X4355810Y5285130I-30000J0D01*
G01*
X4235810D01*
G75*
G02*
X4205810Y5315130I0J30000D01*
G01*
Y5397130D01*
G75*
G02*
X4235810Y5427130I30000J0D01*
G01*
X4355810D01*
X4399310Y2241130D02*
X4419310D01*
Y2217870D01*
G75*
G02*
X4377570Y2176130I-41740J0D01*
G01*
X4373310D01*
Y2196400D01*
G75*
G03*
X4399310Y2226130I-4000J29730D01*
G01*
Y2241130D01*
X4377570Y2356130D02*
G75*
G02*
X4419310Y2314390I0J-41740D01*
G01*
Y2291130D01*
X4399310D01*
Y2306130D01*
G75*
G03*
X4373310Y2335860I-30000J0D01*
G01*
Y2356130D01*
X4377570D01*
X4297310Y2226130D02*
G75*
G03*
X4323310Y2196400I30000J0D01*
G01*
Y2176130D01*
X4319050D01*
G75*
G02*
X4277310Y2217870I0J41740D01*
G01*
Y2241130D01*
X4297310D01*
Y2226130D01*
X4313610Y439830D02*
X4506010D01*
Y247430D01*
X4313610D01*
Y439830D01*
X4319050Y2356130D02*
X4323310D01*
Y2335860D01*
G75*
G03*
X4297310Y2306130I4000J-29730D01*
G01*
Y2291130D01*
X4277310D01*
Y2314390D01*
G75*
G02*
X4319050Y2356130I41740J0D01*
G01*
X4069310Y1931130D02*
X4089310D01*
Y1907870D01*
G75*
G02*
X4047570Y1866130I-41740J0D01*
G01*
X4043310D01*
Y1886400D01*
G75*
G03*
X4069310Y1916130I-4000J29730D01*
G01*
Y1931130D01*
X4047570Y2046130D02*
G75*
G02*
X4089310Y2004390I0J-41740D01*
G01*
Y1981130D01*
X4069310D01*
Y1996130D01*
G75*
G03*
X4043310Y2025860I-30000J0D01*
G01*
Y2046130D01*
X4047570D01*
X4123810Y8632630D02*
G75*
G02*
X4233810Y8522630I0J-110000D01*
G01*
G75*
G02*
X4123810Y8412630I-110000J0D01*
G01*
G75*
G02*
X4013810Y8522630I0J110000D01*
G01*
G75*
G02*
X4123810Y8632630I110000J0D01*
G01*
X4377810Y8378630D02*
G75*
G02*
X4487810Y8268630I0J-110000D01*
G01*
G75*
G02*
X4377810Y8158630I-110000J0D01*
G01*
G75*
G02*
X4267810Y8268630I0J110000D01*
G01*
G75*
G02*
X4377810Y8378630I110000J0D01*
G01*
X4476810Y5855630D02*
G75*
G02*
X4491810Y5840640I0J-14990D01*
G01*
G75*
G02*
Y5840630I-13020J0D01*
G01*
Y5741630D01*
G75*
G02*
Y5741620I-13020J0D01*
G01*
G75*
G02*
X4476810Y5726630I-15000J0D01*
G01*
X4414810D01*
G75*
G02*
X4399810Y5741620I0J14990D01*
G01*
G75*
G02*
Y5741630I13020J10D01*
G01*
Y5840630D01*
G75*
G02*
Y5840640I13020J10D01*
G01*
G75*
G02*
X4414810Y5855630I15000J0D01*
G01*
X4476810D01*
X4691810Y2443130D02*
G75*
G02*
X4706810Y2428140I0J-14990D01*
G01*
G75*
G02*
Y2428130I-13020J0D01*
G01*
Y2329130D01*
G75*
G02*
Y2329120I-13020J0D01*
G01*
G75*
G02*
X4691810Y2314130I-15000J0D01*
G01*
X4629810D01*
G75*
G02*
X4614810Y2329120I0J14990D01*
G01*
G75*
G02*
Y2329130I13020J10D01*
G01*
Y2399130D01*
X4559810D01*
G75*
G02*
X4544810Y2414120I0J14990D01*
G01*
G75*
G02*
Y2414130I13020J10D01*
G01*
Y2486630D01*
X4489810D01*
G75*
G02*
X4474810Y2501620I0J14990D01*
G01*
G75*
G02*
Y2501630I13020J10D01*
G01*
Y2600630D01*
G75*
G02*
Y2600640I13020J10D01*
G01*
G75*
G02*
X4489810Y2615630I15000J0D01*
G01*
X4551810D01*
G75*
G02*
X4566810Y2600640I0J-14990D01*
G01*
G75*
G02*
Y2600630I-13020J0D01*
G01*
Y2528130D01*
X4621810D01*
G75*
G02*
X4636810Y2513140I0J-14990D01*
G01*
G75*
G02*
Y2513130I-13020J0D01*
G01*
Y2443130D01*
X4691810D01*
X4666810Y2156130D02*
G75*
G02*
X4696810Y2126130I0J-30000D01*
G01*
Y2006130D01*
G75*
G02*
X4666810Y1976130I-30000J0D01*
G01*
X4584810D01*
G75*
G02*
X4554810Y2006130I0J30000D01*
G01*
Y2126130D01*
G75*
G02*
X4584810Y2156130I30000J0D01*
G01*
X4666810D01*
X4567610Y439830D02*
X4760010D01*
Y247430D01*
X4567610D01*
Y439830D01*
X4551810Y6448130D02*
G75*
G02*
X4566810Y6433140I0J-14990D01*
G01*
G75*
G02*
Y6433130I-13020J0D01*
G01*
Y6334130D01*
G75*
G02*
Y6334120I-13020J0D01*
G01*
G75*
G02*
X4551810Y6319130I-15000J0D01*
G01*
X4489810D01*
G75*
G02*
X4474810Y6334120I0J14990D01*
G01*
G75*
G02*
Y6334130I13020J10D01*
G01*
Y6433130D01*
G75*
G02*
Y6433140I13020J10D01*
G01*
G75*
G02*
X4489810Y6448130I15000J0D01*
G01*
X4551810D01*
X4691810Y6360630D02*
G75*
G02*
X4706810Y6345640I0J-14990D01*
G01*
G75*
G02*
Y6345630I-13020J0D01*
G01*
Y6246630D01*
G75*
G02*
Y6246620I-13020J0D01*
G01*
G75*
G02*
X4691810Y6231630I-15000J0D01*
G01*
X4641810D01*
Y6159130D01*
G75*
G02*
Y6159120I-13020J0D01*
G01*
G75*
G02*
X4626810Y6144130I-15000J0D01*
G01*
X4564810D01*
G75*
G02*
X4549810Y6159120I0J14990D01*
G01*
G75*
G02*
Y6159130I13020J10D01*
G01*
Y6258130D01*
G75*
G02*
Y6258140I13020J10D01*
G01*
G75*
G02*
X4564810Y6273130I15000J0D01*
G01*
X4614810D01*
Y6345630D01*
G75*
G02*
Y6345640I13020J10D01*
G01*
G75*
G02*
X4629810Y6360630I15000J0D01*
G01*
X4691810D01*
X4346810Y6293630D02*
X4366810D01*
Y6270370D01*
G75*
G02*
X4325070Y6228630I-41740J0D01*
G01*
X4320810D01*
Y6248900D01*
G75*
G03*
X4346810Y6278630I-4000J29730D01*
G01*
Y6293630D01*
X4325070Y6408630D02*
G75*
G02*
X4366810Y6366890I0J-41740D01*
G01*
Y6343630D01*
X4346810D01*
Y6358630D01*
G75*
G03*
X4320810Y6388360I-30000J0D01*
G01*
Y6408630D01*
X4325070D01*
X4291350Y8497630D02*
G75*
G03*
X4352810Y8436170I86470J25010D01*
G01*
Y8415510D01*
G75*
G02*
X4270690Y8497630I25010J107130D01*
G01*
X4291350D01*
X4270690Y8547630D02*
G75*
G02*
X4352810Y8629750I107130J-25010D01*
G01*
Y8609090D01*
G75*
G03*
X4291350Y8547630I25010J-86470D01*
G01*
X4270690D01*
X4464270Y8497630D02*
X4484930D01*
G75*
G02*
X4402810Y8415510I-107130J25010D01*
G01*
Y8436170D01*
G75*
G03*
X4464270Y8497630I-25010J86470D01*
G01*
X4402810Y8629750D02*
G75*
G02*
X4484930Y8547630I-25010J-107130D01*
G01*
X4464270D01*
G75*
G03*
X4402810Y8609090I-86470J-25010D01*
G01*
Y8629750D01*
X4631810Y8378630D02*
G75*
G02*
X4741810Y8268630I0J-110000D01*
G01*
G75*
G02*
X4631810Y8158630I-110000J0D01*
G01*
G75*
G02*
X4521810Y8268630I0J110000D01*
G01*
G75*
G02*
X4631810Y8378630I110000J0D01*
G01*
X4791810Y7408130D02*
G75*
G02*
X4806810Y7393140I0J-14990D01*
G01*
G75*
G02*
Y7393130I-13020J0D01*
G01*
Y7294130D01*
G75*
G02*
Y7294120I-13020J0D01*
G01*
G75*
G02*
X4791810Y7279130I-15000J0D01*
G01*
X4729810D01*
G75*
G02*
X4714810Y7294120I0J14990D01*
G01*
G75*
G02*
Y7294130I13020J10D01*
G01*
Y7393130D01*
G75*
G02*
Y7393140I13020J10D01*
G01*
G75*
G02*
X4729810Y7408130I15000J0D01*
G01*
X4791810D01*
X4943340Y7066160D02*
G75*
G02*
X4947730Y7055550I-10630J-10610D01*
G01*
G75*
G02*
X4943340Y7044940I-15020J0D01*
G01*
X4899500Y7001100D01*
G75*
G02*
X4878280I-10610J10630D01*
G01*
X4808280Y7071100D01*
G75*
G02*
X4803890Y7081710I10630J10610D01*
G01*
G75*
G02*
X4808280Y7092320I15020J0D01*
G01*
X4852120Y7136160D01*
G75*
G02*
X4873340I10610J-10630D01*
G01*
X4943340Y7066160D01*
X5010840Y6868660D02*
G75*
G02*
X5015230Y6858050I-10630J-10610D01*
G01*
G75*
G02*
X5010840Y6847440I-15020J0D01*
G01*
X4967000Y6803600D01*
G75*
G02*
X4945780I-10610J10630D01*
G01*
X4875780Y6873600D01*
G75*
G02*
X4871390Y6884210I10630J10610D01*
G01*
G75*
G02*
X4875780Y6894820I15020J0D01*
G01*
X4919620Y6938660D01*
G75*
G02*
X4940840I10610J-10630D01*
G01*
X5010840Y6868660D01*
X5079310Y6538130D02*
G75*
G02*
X5094310Y6523140I0J-14990D01*
G01*
G75*
G02*
Y6523130I-13020J0D01*
G01*
Y6424130D01*
G75*
G02*
Y6424120I-13020J0D01*
G01*
G75*
G02*
X5079310Y6409130I-15000J0D01*
G01*
X5017310D01*
G75*
G02*
X5002310Y6424120I0J14990D01*
G01*
G75*
G02*
Y6424130I13020J10D01*
G01*
Y6523130D01*
G75*
G02*
Y6523140I13020J10D01*
G01*
G75*
G02*
X5017310Y6538130I15000J0D01*
G01*
X5079310D01*
X5011810Y3455630D02*
G75*
G02*
X5026810Y3440640I0J-14990D01*
G01*
G75*
G02*
Y3440630I-13020J0D01*
G01*
Y3341630D01*
G75*
G02*
Y3341620I-13020J0D01*
G01*
G75*
G02*
X5011810Y3326630I-15000J0D01*
G01*
X4949810D01*
G75*
G02*
X4934810Y3341620I0J14990D01*
G01*
G75*
G02*
Y3341630I13020J10D01*
G01*
Y3440630D01*
G75*
G02*
Y3440640I13020J10D01*
G01*
G75*
G02*
X4949810Y3455630I15000J0D01*
G01*
X5011810D01*
X5092810Y3264630D02*
G75*
G02*
X5107810Y3249640I0J-14990D01*
G01*
G75*
G02*
Y3249630I-13020J0D01*
G01*
Y3187630D01*
G75*
G02*
Y3187620I-13020J0D01*
G01*
G75*
G02*
X5106860Y3182380I-15000J10D01*
G01*
G75*
G02*
X5107810Y3177140I-14050J-5250D01*
G01*
G75*
G02*
Y3177130I-13020J0D01*
G01*
Y3115130D01*
G75*
G02*
Y3115120I-13020J0D01*
G01*
G75*
G02*
X5092810Y3100130I-15000J0D01*
G01*
X4993810D01*
G75*
G02*
X4978810Y3115120I0J14990D01*
G01*
G75*
G02*
Y3115130I13020J10D01*
G01*
Y3177130D01*
G75*
G02*
Y3177140I13020J10D01*
G01*
G75*
G02*
X4979760Y3182380I15000J-10D01*
G01*
G75*
G02*
X4978810Y3187620I14050J5250D01*
G01*
G75*
G02*
Y3187630I13020J10D01*
G01*
Y3249630D01*
G75*
G02*
Y3249640I13020J10D01*
G01*
G75*
G02*
X4993810Y3264630I15000J0D01*
G01*
X5092810D01*
X5053810Y2757630D02*
X5058310D01*
Y2737630D01*
X5045550D01*
G75*
G02*
X5019430Y2758630I-10J26740D01*
G01*
X5048420D01*
G75*
G03*
X5053810Y2757630I5370J13920D01*
G01*
X5209310Y2887630D02*
G75*
G02*
X5224310Y2872640I0J-14990D01*
G01*
G75*
G02*
Y2872630I-13020J0D01*
G01*
Y2773630D01*
G75*
G02*
Y2773620I-13020J0D01*
G01*
G75*
G02*
X5209310Y2758630I-15000J0D01*
G01*
X5147310D01*
G75*
G02*
X5132310Y2773620I0J14990D01*
G01*
G75*
G02*
Y2773630I13020J10D01*
G01*
Y2808630D01*
X5118200D01*
G75*
G03*
X5112810Y2809630I-5370J-13920D01*
G01*
X5108310D01*
Y2812630D01*
X5058310D01*
Y2809630D01*
X5053810D01*
G75*
G03*
X5048420Y2808630I-20J-14920D01*
G01*
X5019430D01*
G75*
G02*
X5024120Y2818890I26130J-5740D01*
G01*
G75*
G02*
X5021310Y2827620I12180J8740D01*
G01*
G75*
G02*
Y2827630I13020J10D01*
G01*
Y2889630D01*
G75*
G02*
Y2889640I13020J10D01*
G01*
G75*
G02*
X5033420Y2904350I14990J0D01*
G01*
G75*
G02*
X5029430Y2913630I22130J15010D01*
G01*
X5058420D01*
G75*
G03*
X5063810Y2912630I5370J13920D01*
G01*
X5068310D01*
Y2904630D01*
X5118310D01*
Y2912630D01*
X5122810D01*
G75*
G03*
X5128200Y2913630I20J14920D01*
G01*
X5157190D01*
G75*
G02*
X5147550Y2898310I-26110J5740D01*
G01*
G75*
G02*
X5150310Y2889640I-12230J-8670D01*
G01*
G75*
G02*
Y2889630I-13020J0D01*
G01*
Y2887630D01*
X5209310D01*
X5075610Y439830D02*
X5268010D01*
Y247430D01*
X5075610D01*
Y439830D01*
X5104810Y2021130D02*
G75*
G03*
X5130810Y1991400I30000J0D01*
G01*
Y1971130D01*
X5126550D01*
G75*
G02*
X5084810Y2012870I0J41740D01*
G01*
Y2036130D01*
X5104810D01*
Y2021130D01*
X5126550Y2151130D02*
X5130810D01*
Y2130860D01*
G75*
G03*
X5104810Y2101130I4000J-29730D01*
G01*
Y2086130D01*
X5084810D01*
Y2109390D01*
G75*
G02*
X5126550Y2151130I41740J0D01*
G01*
X5235310Y2742130D02*
G75*
G02*
X5250310Y2727140I0J-14990D01*
G01*
G75*
G02*
Y2727130I-13020J0D01*
G01*
Y2665130D01*
G75*
G02*
Y2665120I-13020J0D01*
G01*
G75*
G02*
X5235310Y2650130I-15000J0D01*
G01*
X5136310D01*
G75*
G02*
X5121310Y2665120I0J14990D01*
G01*
G75*
G02*
Y2665130I13020J10D01*
G01*
Y2727130D01*
G75*
G02*
Y2727140I13020J10D01*
G01*
G75*
G02*
X5126070Y2738100I14990J0D01*
G01*
G75*
G02*
X5121070Y2737630I-4990J26250D01*
G01*
X5108310D01*
Y2757630D01*
X5112810D01*
G75*
G03*
X5118200Y2758630I20J14920D01*
G01*
X5147190D01*
G75*
G02*
X5135910Y2742130I-26110J5740D01*
G01*
G75*
G02*
X5136310I200J-15160D01*
G01*
X5235310D01*
X5240310Y2609130D02*
G75*
G02*
X5255310Y2594140I0J-14990D01*
G01*
G75*
G02*
Y2594130I-13020J0D01*
G01*
Y2532130D01*
G75*
G02*
Y2532120I-13020J0D01*
G01*
G75*
G02*
X5240310Y2517130I-15000J0D01*
G01*
X5141310D01*
G75*
G02*
X5126310Y2532120I0J14990D01*
G01*
G75*
G02*
Y2532130I13020J10D01*
G01*
Y2594130D01*
G75*
G02*
Y2594140I13020J10D01*
G01*
G75*
G02*
X5141310Y2609130I15000J0D01*
G01*
X5240310D01*
X5206810Y2036130D02*
X5226810D01*
Y2012870D01*
G75*
G02*
X5185070Y1971130I-41740J0D01*
G01*
X5180810D01*
Y1991400D01*
G75*
G03*
X5206810Y2021130I-4000J29730D01*
G01*
Y2036130D01*
X5185070Y2151130D02*
G75*
G02*
X5226810Y2109390I0J-41740D01*
G01*
Y2086130D01*
X5206810D01*
Y2101130D01*
G75*
G03*
X5180810Y2130860I-30000J0D01*
G01*
Y2151130D01*
X5185070D01*
X5150320Y2976450D02*
G75*
G02*
X5157190Y2963630I-19240J-18560D01*
G01*
X5128200D01*
G75*
G03*
X5122810Y2964630I-5370J-13920D01*
G01*
X5118310D01*
Y2972630D01*
X5068310D01*
Y2964630D01*
X5063810D01*
G75*
G03*
X5058420Y2963630I-20J-14920D01*
G01*
X5029430D01*
G75*
G02*
X5034430Y2974300I26120J-5730D01*
G01*
G75*
G02*
X5026310Y2987620I6870J13320D01*
G01*
G75*
G02*
Y2987630I13020J10D01*
G01*
Y3049630D01*
G75*
G02*
Y3049640I13020J10D01*
G01*
G75*
G02*
X5041310Y3064630I15000J0D01*
G01*
X5140310D01*
G75*
G02*
X5155310Y3049640I0J-14990D01*
G01*
G75*
G02*
Y3049630I-13020J0D01*
G01*
Y2987630D01*
G75*
G02*
Y2987620I-13020J0D01*
G01*
G75*
G02*
X5150320Y2976450I-14990J0D01*
G01*
X4994010Y318630D02*
X5014010D01*
Y247430D01*
X4942810D01*
Y267430D01*
X4994010D01*
Y318630D01*
X4942810Y439830D02*
X5014010D01*
Y368630D01*
X4994010D01*
Y419830D01*
X4942810D01*
Y439830D01*
X4884010Y2403130D02*
G75*
G02*
X4899010Y2388140I0J-14990D01*
G01*
G75*
G02*
Y2388130I-13020J0D01*
G01*
Y2289130D01*
G75*
G02*
Y2289120I-13020J0D01*
G01*
G75*
G02*
X4884010Y2274130I-15000J0D01*
G01*
X4822010D01*
G75*
G02*
X4807010Y2289120I0J14990D01*
G01*
G75*
G02*
Y2289130I13020J10D01*
G01*
Y2388130D01*
G75*
G02*
Y2388140I13020J10D01*
G01*
G75*
G02*
X4822010Y2403130I15000J0D01*
G01*
X4884010D01*
X4841610Y267430D02*
X4892810D01*
Y247430D01*
X4821610D01*
Y318630D01*
X4841610D01*
Y267430D01*
X4821610Y439830D02*
X4892810D01*
Y419830D01*
X4841610D01*
Y368630D01*
X4821610D01*
Y439830D01*
X4791810Y7793130D02*
G75*
G02*
X4806810Y7778140I0J-14990D01*
G01*
G75*
G02*
Y7778130I-13020J0D01*
G01*
Y7679130D01*
G75*
G02*
Y7679120I-13020J0D01*
G01*
G75*
G02*
X4791810Y7664130I-15000J0D01*
G01*
X4729810D01*
G75*
G02*
X4714810Y7679120I0J14990D01*
G01*
G75*
G02*
Y7679130I13020J10D01*
G01*
Y7778130D01*
G75*
G02*
Y7778140I13020J10D01*
G01*
G75*
G02*
X4729810Y7793130I15000J0D01*
G01*
X4791810D01*
X4631810Y8632630D02*
G75*
G02*
X4741810Y8522630I0J-110000D01*
G01*
G75*
G02*
X4631810Y8412630I-110000J0D01*
G01*
G75*
G02*
X4521810Y8522630I0J110000D01*
G01*
G75*
G02*
X4631810Y8632630I110000J0D01*
G01*
X4885810Y8378630D02*
G75*
G02*
X4995810Y8268630I0J-110000D01*
G01*
G75*
G02*
X4885810Y8158630I-110000J0D01*
G01*
G75*
G02*
X4775810Y8268630I0J110000D01*
G01*
G75*
G02*
X4885810Y8378630I110000J0D01*
G01*
X4956810Y7640630D02*
G75*
G02*
X4971810Y7625640I0J-14990D01*
G01*
G75*
G02*
Y7625630I-13020J0D01*
G01*
Y7526630D01*
G75*
G02*
Y7526620I-13020J0D01*
G01*
G75*
G02*
X4956810Y7511630I-15000J0D01*
G01*
X4894810D01*
G75*
G02*
X4879810Y7526620I0J14990D01*
G01*
G75*
G02*
Y7526630I13020J10D01*
G01*
Y7625630D01*
G75*
G02*
Y7625640I13020J10D01*
G01*
G75*
G02*
X4894810Y7640630I15000J0D01*
G01*
X4956810D01*
X4885810Y8632630D02*
G75*
G02*
X4995810Y8522630I0J-110000D01*
G01*
G75*
G02*
X4885810Y8412630I-110000J0D01*
G01*
G75*
G02*
X4775810Y8522630I0J110000D01*
G01*
G75*
G02*
X4885810Y8632630I110000J0D01*
G01*
X5139810Y8378630D02*
G75*
G02*
X5249810Y8268630I0J-110000D01*
G01*
G75*
G02*
X5139810Y8158630I-110000J0D01*
G01*
G75*
G02*
X5029810Y8268630I0J110000D01*
G01*
G75*
G02*
X5139810Y8378630I110000J0D01*
G01*
X5274310Y3050630D02*
G75*
G02*
X5289310Y3035640I0J-14990D01*
G01*
G75*
G02*
Y3035630I-13020J0D01*
G01*
Y2936630D01*
G75*
G02*
Y2936620I-13020J0D01*
G01*
G75*
G02*
X5274310Y2921630I-15000J0D01*
G01*
X5212310D01*
G75*
G02*
X5197310Y2936620I0J14990D01*
G01*
G75*
G02*
Y2936630I13020J10D01*
G01*
Y3035630D01*
G75*
G02*
Y3035640I13020J10D01*
G01*
G75*
G02*
X5212310Y3050630I15000J0D01*
G01*
X5274310D01*
X5392810Y2479630D02*
G75*
G02*
X5407810Y2464640I0J-14990D01*
G01*
G75*
G02*
Y2464630I-13020J0D01*
G01*
Y2402630D01*
G75*
G02*
Y2402620I-13020J0D01*
G01*
G75*
G02*
X5392810Y2387630I-15000J0D01*
G01*
X5293810D01*
G75*
G02*
X5278810Y2402620I0J14990D01*
G01*
G75*
G02*
Y2402630I13020J10D01*
G01*
Y2464630D01*
G75*
G02*
Y2464640I13020J10D01*
G01*
G75*
G02*
X5293810Y2479630I15000J0D01*
G01*
X5392810D01*
X5329610Y439830D02*
X5522010D01*
Y247430D01*
X5329610D01*
Y439830D01*
X5456810Y2000630D02*
G75*
G02*
X5471810Y1985640I0J-14990D01*
G01*
G75*
G02*
Y1985630I-13020J0D01*
G01*
Y1886630D01*
G75*
G02*
Y1886620I-13020J0D01*
G01*
G75*
G02*
X5456810Y1871630I-15000J0D01*
G01*
X5394810D01*
G75*
G02*
X5379810Y1886620I0J14990D01*
G01*
G75*
G02*
Y1886630I13020J10D01*
G01*
Y1985630D01*
G75*
G02*
Y1985640I13020J10D01*
G01*
G75*
G02*
X5394810Y2000630I15000J0D01*
G01*
X5456810D01*
X5139810Y8632630D02*
G75*
G02*
X5249810Y8522630I0J-110000D01*
G01*
G75*
G02*
X5139810Y8412630I-110000J0D01*
G01*
G75*
G02*
X5029810Y8522630I0J110000D01*
G01*
G75*
G02*
X5139810Y8632630I110000J0D01*
G01*
X5370310Y4417130D02*
G75*
G02*
X5385310Y4402140I0J-14990D01*
G01*
G75*
G02*
Y4402130I-13020J0D01*
G01*
Y4340130D01*
G75*
G02*
Y4340120I-13020J0D01*
G01*
G75*
G02*
X5370310Y4325130I-15000J0D01*
G01*
X5271310D01*
G75*
G02*
X5256310Y4340120I0J14990D01*
G01*
G75*
G02*
Y4340130I13020J10D01*
G01*
Y4402130D01*
G75*
G02*
Y4402140I13020J10D01*
G01*
G75*
G02*
X5271310Y4417130I15000J0D01*
G01*
X5370310D01*
X5336810Y3510630D02*
G75*
G02*
X5351810Y3495640I0J-14990D01*
G01*
G75*
G02*
Y3495630I-13020J0D01*
G01*
Y3396630D01*
G75*
G02*
Y3396620I-13020J0D01*
G01*
G75*
G02*
X5336810Y3381630I-15000J0D01*
G01*
X5274810D01*
G75*
G02*
X5259810Y3396620I0J14990D01*
G01*
G75*
G02*
Y3396630I13020J10D01*
G01*
Y3495630D01*
G75*
G02*
Y3495640I13020J10D01*
G01*
G75*
G02*
X5274810Y3510630I15000J0D01*
G01*
X5336810D01*
X5393810Y8378630D02*
G75*
G02*
X5503810Y8268630I0J-110000D01*
G01*
G75*
G02*
X5393810Y8158630I-110000J0D01*
G01*
G75*
G02*
X5283810Y8268630I0J110000D01*
G01*
G75*
G02*
X5393810Y8378630I110000J0D01*
G01*
X5511810Y3473130D02*
G75*
G02*
X5526810Y3458140I0J-14990D01*
G01*
G75*
G02*
Y3458130I-13020J0D01*
G01*
Y3359130D01*
G75*
G02*
Y3359120I-13020J0D01*
G01*
G75*
G02*
X5511810Y3344130I-15000J0D01*
G01*
X5449810D01*
G75*
G02*
X5434810Y3359120I0J14990D01*
G01*
G75*
G02*
Y3359130I13020J10D01*
G01*
Y3458130D01*
G75*
G02*
Y3458140I13020J10D01*
G01*
G75*
G02*
X5449810Y3473130I15000J0D01*
G01*
X5511810D01*
X5484310Y5258630D02*
X5504310D01*
Y5235370D01*
G75*
G02*
X5462570Y5193630I-41740J0D01*
G01*
X5458310D01*
Y5213900D01*
G75*
G03*
X5484310Y5243630I-4000J29730D01*
G01*
Y5258630D01*
X5462570Y5373630D02*
G75*
G02*
X5504310Y5331890I0J-41740D01*
G01*
Y5308630D01*
X5484310D01*
Y5323630D01*
G75*
G03*
X5458310Y5353360I-30000J0D01*
G01*
Y5373630D01*
X5462570D01*
X5411810Y6978130D02*
G75*
G02*
X5426810Y6963140I0J-14990D01*
G01*
G75*
G02*
Y6963130I-13020J0D01*
G01*
Y6864130D01*
G75*
G02*
Y6864120I-13020J0D01*
G01*
G75*
G02*
X5411810Y6849130I-15000J0D01*
G01*
X5349810D01*
G75*
G02*
X5334810Y6864120I0J14990D01*
G01*
G75*
G02*
Y6864130I13020J10D01*
G01*
Y6963130D01*
G75*
G02*
Y6963140I13020J10D01*
G01*
G75*
G02*
X5349810Y6978130I15000J0D01*
G01*
X5411810D01*
X5419310Y5840630D02*
G75*
G02*
X5434310Y5825640I0J-14990D01*
G01*
G75*
G02*
Y5825630I-13020J0D01*
G01*
Y5726630D01*
G75*
G02*
Y5726620I-13020J0D01*
G01*
G75*
G02*
X5419310Y5711630I-15000J0D01*
G01*
X5357310D01*
G75*
G02*
X5342310Y5726620I0J14990D01*
G01*
G75*
G02*
Y5726630I13020J10D01*
G01*
Y5825630D01*
G75*
G02*
Y5825640I13020J10D01*
G01*
G75*
G02*
X5357310Y5840630I15000J0D01*
G01*
X5419310D01*
X5382310Y5243630D02*
G75*
G03*
X5408310Y5213900I30000J0D01*
G01*
Y5193630D01*
X5404050D01*
G75*
G02*
X5362310Y5235370I0J41740D01*
G01*
Y5258630D01*
X5382310D01*
Y5243630D01*
X5404050Y5373630D02*
X5408310D01*
Y5353360D01*
G75*
G03*
X5382310Y5323630I4000J-29730D01*
G01*
Y5308630D01*
X5362310D01*
Y5331890D01*
G75*
G02*
X5404050Y5373630I41740J0D01*
G01*
X5307350Y8497630D02*
G75*
G03*
X5368810Y8436170I86470J25010D01*
G01*
Y8415510D01*
G75*
G02*
X5286690Y8497630I25010J107130D01*
G01*
X5307350D01*
X5286690Y8547630D02*
G75*
G02*
X5368810Y8629750I107130J-25010D01*
G01*
Y8609090D01*
G75*
G03*
X5307350Y8547630I25010J-86470D01*
G01*
X5286690D01*
X5480270Y8497630D02*
X5500930D01*
G75*
G02*
X5418810Y8415510I-107130J25010D01*
G01*
Y8436170D01*
G75*
G03*
X5480270Y8497630I-25010J86470D01*
G01*
X5418810Y8629750D02*
G75*
G02*
X5500930Y8547630I-25010J-107130D01*
G01*
X5480270D01*
G75*
G03*
X5418810Y8609090I-86470J-25010D01*
G01*
Y8629750D01*
X5547110Y962330D02*
X5739510D01*
Y769930D01*
X5547110D01*
Y962330D01*
Y1216330D02*
X5739510D01*
Y1023930D01*
X5547110D01*
Y1216330D01*
X5600810Y1740130D02*
X5615810D01*
Y1720130D01*
X5592550D01*
G75*
G02*
X5550810Y1761870I0J41740D01*
G01*
Y1766130D01*
X5571080D01*
G75*
G03*
X5600810Y1740130I29730J4000D01*
G01*
X5592550Y1862130D02*
X5615810D01*
Y1842130D01*
X5600810D01*
G75*
G03*
X5571080Y1816130I0J-30000D01*
G01*
X5550810D01*
Y1820390D01*
G75*
G02*
X5592550Y1862130I41740J0D01*
G01*
X5639310Y3448130D02*
G75*
G02*
X5654310Y3433140I0J-14990D01*
G01*
G75*
G02*
Y3433130I-13020J0D01*
G01*
Y3334130D01*
G75*
G02*
Y3334120I-13020J0D01*
G01*
G75*
G02*
X5639310Y3319130I-15000J0D01*
G01*
X5577310D01*
G75*
G02*
X5562310Y3334120I0J14990D01*
G01*
G75*
G02*
Y3334130I13020J10D01*
G01*
Y3433130D01*
G75*
G02*
Y3433140I13020J10D01*
G01*
G75*
G02*
X5577310Y3448130I15000J0D01*
G01*
X5639310D01*
X5747810Y3262130D02*
G75*
G02*
X5762810Y3247140I0J-14990D01*
G01*
G75*
G02*
Y3247130I-13020J0D01*
G01*
Y3185130D01*
G75*
G02*
Y3185120I-13020J0D01*
G01*
G75*
G02*
X5747810Y3170130I-15000J0D01*
G01*
X5648810D01*
G75*
G02*
X5633810Y3185120I0J14990D01*
G01*
G75*
G02*
Y3185130I13020J10D01*
G01*
Y3247130D01*
G75*
G02*
Y3247140I13020J10D01*
G01*
G75*
G02*
X5648810Y3262130I15000J0D01*
G01*
X5747810D01*
X5874310Y2958630D02*
G75*
G02*
X5904310Y2928630I0J-30000D01*
G01*
Y2808630D01*
G75*
G02*
X5874310Y2778630I-30000J0D01*
G01*
X5792310D01*
G75*
G02*
X5762310Y2808630I0J30000D01*
G01*
Y2894360D01*
G75*
G02*
X5755310Y2892630I-6990J13260D01*
G01*
X5656310D01*
G75*
G02*
X5641310Y2907620I0J14990D01*
G01*
G75*
G02*
Y2907630I13020J10D01*
G01*
Y2969630D01*
G75*
G02*
Y2969640I13020J10D01*
G01*
G75*
G02*
X5656310Y2984630I15000J0D01*
G01*
X5658820D01*
G75*
G02*
X5651310Y2997620I7480J12990D01*
G01*
G75*
G02*
Y2997630I13020J10D01*
G01*
Y3059630D01*
G75*
G02*
Y3059640I13020J10D01*
G01*
G75*
G02*
X5666310Y3074630I15000J0D01*
G01*
X5765310D01*
G75*
G02*
X5780310Y3059640I0J-14990D01*
G01*
G75*
G02*
Y3059630I-13020J0D01*
G01*
Y2997630D01*
G75*
G02*
Y2997620I-13020J0D01*
G01*
G75*
G02*
X5765310Y2982630I-15000J0D01*
G01*
X5762800D01*
G75*
G02*
X5770310Y2969640I-7480J-12990D01*
G01*
G75*
G02*
Y2969630I-13020J0D01*
G01*
Y2949020D01*
G75*
G02*
X5792310Y2958630I22010J-20400D01*
G01*
X5874310D01*
X5891350Y881350D02*
G75*
G02*
X6081350I95000J0D01*
G01*
G75*
G02*
X5891350I-95000J0D01*
G01*
Y1531350D02*
G75*
G02*
X6081350I95000J0D01*
G01*
G75*
G02*
X5891350I-95000J0D01*
G01*
X5851810Y2638630D02*
X5871810D01*
Y2615370D01*
G75*
G02*
X5830070Y2573630I-41740J0D01*
G01*
X5825810D01*
Y2593900D01*
G75*
G03*
X5851810Y2623630I-4000J29730D01*
G01*
Y2638630D01*
X5830070Y2753630D02*
G75*
G02*
X5871810Y2711890I0J-41740D01*
G01*
Y2688630D01*
X5851810D01*
Y2703630D01*
G75*
G03*
X5825810Y2733360I-30000J0D01*
G01*
Y2753630D01*
X5830070D01*
X5710540Y1766130D02*
X5730810D01*
Y1761870D01*
G75*
G02*
X5689070Y1720130I-41740J0D01*
G01*
X5665810D01*
Y1740130D01*
X5680810D01*
G75*
G03*
X5710540Y1766130I0J30000D01*
G01*
X5689070Y1862130D02*
G75*
G02*
X5730810Y1820390I0J-41740D01*
G01*
Y1816130D01*
X5710540D01*
G75*
G03*
X5680810Y1842130I-29730J-4000D01*
G01*
X5665810D01*
Y1862130D01*
X5689070D01*
X5756810Y2565630D02*
G75*
G02*
X5771810Y2550640I0J-14990D01*
G01*
G75*
G02*
Y2550630I-13020J0D01*
G01*
Y2451630D01*
G75*
G02*
Y2451620I-13020J0D01*
G01*
G75*
G02*
X5756810Y2436630I-15000J0D01*
G01*
X5694810D01*
G75*
G02*
X5679810Y2451620I0J14990D01*
G01*
G75*
G02*
Y2451630I13020J10D01*
G01*
Y2550630D01*
G75*
G02*
Y2550640I13020J10D01*
G01*
G75*
G02*
X5694810Y2565630I15000J0D01*
G01*
X5756810D01*
X5749810Y2623630D02*
G75*
G03*
X5775810Y2593900I30000J0D01*
G01*
Y2573630D01*
X5771550D01*
G75*
G02*
X5729810Y2615370I0J41740D01*
G01*
Y2638630D01*
X5749810D01*
Y2623630D01*
X5771550Y2753630D02*
X5775810D01*
Y2733360D01*
G75*
G03*
X5749810Y2703630I4000J-29730D01*
G01*
Y2688630D01*
X5729810D01*
Y2711890D01*
G75*
G02*
X5771550Y2753630I41740J0D01*
G01*
X5714310Y4107880D02*
G75*
G02*
X5729310Y4092890I0J-14990D01*
G01*
G75*
G02*
Y4092880I-13020J0D01*
G01*
Y3993880D01*
G75*
G02*
Y3993870I-13020J0D01*
G01*
G75*
G02*
X5714310Y3978880I-15000J0D01*
G01*
X5652310D01*
G75*
G02*
X5637310Y3993870I0J14990D01*
G01*
G75*
G02*
Y3993880I13020J10D01*
G01*
Y4092880D01*
G75*
G02*
Y4092890I13020J10D01*
G01*
G75*
G02*
X5652310Y4107880I15000J0D01*
G01*
X5714310D01*
X5775310Y7172130D02*
G75*
G02*
X5790310Y7157140I0J-14990D01*
G01*
G75*
G02*
Y7157130I-13020J0D01*
G01*
Y7095130D01*
G75*
G02*
Y7095120I-13020J0D01*
G01*
G75*
G02*
X5775310Y7080130I-15000J0D01*
G01*
X5676310D01*
G75*
G02*
X5661310Y7095120I0J14990D01*
G01*
G75*
G02*
Y7095130I13020J10D01*
G01*
Y7157130D01*
G75*
G02*
Y7157140I13020J10D01*
G01*
G75*
G02*
X5676310Y7172130I15000J0D01*
G01*
X5775310D01*
X5785310Y6954630D02*
G75*
G02*
X5800310Y6939640I0J-14990D01*
G01*
G75*
G02*
Y6939630I-13020J0D01*
G01*
Y6877630D01*
G75*
G02*
Y6877620I-13020J0D01*
G01*
G75*
G02*
X5785310Y6862630I-15000J0D01*
G01*
X5686310D01*
G75*
G02*
X5671310Y6877620I0J14990D01*
G01*
G75*
G02*
Y6877630I13020J10D01*
G01*
Y6939630D01*
G75*
G02*
Y6939640I13020J10D01*
G01*
G75*
G02*
X5686310Y6954630I15000J0D01*
G01*
X5785310D01*
X5725810Y4420130D02*
X5740810D01*
Y4400130D01*
X5717550D01*
G75*
G02*
X5675810Y4441870I0J41740D01*
G01*
Y4446130D01*
X5696080D01*
G75*
G03*
X5725810Y4420130I29730J4000D01*
G01*
X5876810Y3583130D02*
G75*
G02*
X5891810Y3568140I0J-14990D01*
G01*
G75*
G02*
Y3568130I-13020J0D01*
G01*
Y3469130D01*
G75*
G02*
Y3469120I-13020J0D01*
G01*
G75*
G02*
X5876810Y3454130I-15000J0D01*
G01*
X5824310D01*
Y3361630D01*
G75*
G02*
Y3361620I-13020J0D01*
G01*
G75*
G02*
X5809310Y3346630I-15000J0D01*
G01*
X5747310D01*
G75*
G02*
X5732310Y3361620I0J14990D01*
G01*
G75*
G02*
Y3361630I13020J10D01*
G01*
Y3460630D01*
G75*
G02*
Y3460640I13020J10D01*
G01*
G75*
G02*
X5747310Y3475630I15000J0D01*
G01*
X5799810D01*
Y3568130D01*
G75*
G02*
Y3568140I13020J10D01*
G01*
G75*
G02*
X5814810Y3583130I15000J0D01*
G01*
X5876810D01*
X5936810Y3280630D02*
G75*
G02*
X5951810Y3265640I0J-14990D01*
G01*
G75*
G02*
Y3265630I-13020J0D01*
G01*
Y3166630D01*
G75*
G02*
Y3166620I-13020J0D01*
G01*
G75*
G02*
X5936810Y3151630I-15000J0D01*
G01*
X5874810D01*
G75*
G02*
X5859810Y3166620I0J14990D01*
G01*
G75*
G02*
Y3166630I13020J10D01*
G01*
Y3265630D01*
G75*
G02*
Y3265640I13020J10D01*
G01*
G75*
G02*
X5874810Y3280630I15000J0D01*
G01*
X5936810D01*
X5717550Y4542130D02*
X5740810D01*
Y4522130D01*
X5725810D01*
G75*
G03*
X5696080Y4496130I0J-30000D01*
G01*
X5675810D01*
Y4500390D01*
G75*
G02*
X5717550Y4542130I41740J0D01*
G01*
X5823340Y5903660D02*
G75*
G02*
X5827730Y5893050I-10630J-10610D01*
G01*
G75*
G02*
X5823340Y5882440I-15020J0D01*
G01*
X5793890Y5852990D01*
G75*
G02*
X5806810Y5838140I-2070J-14850D01*
G01*
G75*
G02*
Y5838130I-13020J0D01*
G01*
Y5739130D01*
G75*
G02*
Y5739120I-13020J0D01*
G01*
G75*
G02*
X5791810Y5724130I-15000J0D01*
G01*
X5729810D01*
G75*
G02*
X5714810Y5739120I0J14990D01*
G01*
G75*
G02*
Y5739130I13020J10D01*
G01*
Y5838130D01*
G75*
G02*
Y5838140I13020J10D01*
G01*
G75*
G02*
X5729810Y5853130I15000J0D01*
G01*
X5743750D01*
X5688280Y5908600D01*
G75*
G02*
X5683890Y5919210I10630J10610D01*
G01*
G75*
G02*
X5688280Y5929820I15020J0D01*
G01*
X5732120Y5973660D01*
G75*
G02*
X5753340I10610J-10630D01*
G01*
X5823340Y5903660D01*
X5835540Y4446130D02*
X5855810D01*
Y4441870D01*
G75*
G02*
X5814070Y4400130I-41740J0D01*
G01*
X5790810D01*
Y4420130D01*
X5805810D01*
G75*
G03*
X5835540Y4446130I0J30000D01*
G01*
X5814070Y4542130D02*
G75*
G02*
X5855810Y4500390I0J-41740D01*
G01*
Y4496130D01*
X5835540D01*
G75*
G03*
X5805810Y4522130I-29730J-4000D01*
G01*
X5790810D01*
Y4542130D01*
X5814070D01*
X5926810Y5710630D02*
G75*
G02*
X5941810Y5695640I0J-14990D01*
G01*
G75*
G02*
Y5695630I-13020J0D01*
G01*
Y5596630D01*
G75*
G02*
Y5596620I-13020J0D01*
G01*
G75*
G02*
X5926810Y5581630I-15000J0D01*
G01*
X5864810D01*
G75*
G02*
X5849810Y5596620I0J14990D01*
G01*
G75*
G02*
Y5596630I13020J10D01*
G01*
Y5695630D01*
G75*
G02*
Y5695640I13020J10D01*
G01*
G75*
G02*
X5864810Y5710630I15000J0D01*
G01*
X5926810D01*
Y5978130D02*
G75*
G02*
X5941810Y5963140I0J-14990D01*
G01*
G75*
G02*
Y5963130I-13020J0D01*
G01*
Y5864130D01*
G75*
G02*
Y5864120I-13020J0D01*
G01*
G75*
G02*
X5926810Y5849130I-15000J0D01*
G01*
X5864810D01*
G75*
G02*
X5849810Y5864120I0J14990D01*
G01*
G75*
G02*
Y5864130I13020J10D01*
G01*
Y5963130D01*
G75*
G02*
Y5963140I13020J10D01*
G01*
G75*
G02*
X5864810Y5978130I15000J0D01*
G01*
X5926810D01*
X6072310Y7198630D02*
G75*
G03*
X6098310Y7168900I30000J0D01*
G01*
Y7148630D01*
X6094050D01*
G75*
G02*
X6052310Y7190370I0J41740D01*
G01*
Y7213630D01*
X6072310D01*
Y7198630D01*
X6094050Y7328630D02*
X6098310D01*
Y7308360D01*
G75*
G03*
X6072310Y7278630I4000J-29730D01*
G01*
Y7263630D01*
X6052310D01*
Y7286890D01*
G75*
G02*
X6094050Y7328630I41740J0D01*
G01*
X6174310Y7213630D02*
X6194310D01*
Y7190370D01*
G75*
G02*
X6152570Y7148630I-41740J0D01*
G01*
X6148310D01*
Y7168900D01*
G75*
G03*
X6174310Y7198630I-4000J29730D01*
G01*
Y7213630D01*
X6152570Y7328630D02*
G75*
G02*
X6194310Y7286890I0J-41740D01*
G01*
Y7263630D01*
X6174310D01*
Y7278630D01*
G75*
G03*
X6148310Y7308360I-30000J0D01*
G01*
Y7328630D01*
X6152570D01*
X6308310Y8388630D02*
X6433310D01*
Y8368630D01*
X6300050D01*
G75*
G02*
X6188310Y8480370I0J111740D01*
G01*
Y8613630D01*
X6208310D01*
Y8488630D01*
G75*
G03*
X6308310Y8388630I100000J0D01*
G01*
X6365640Y856350D02*
G75*
G03*
X6411350Y810640I70740J25030D01*
G01*
Y789700D01*
G75*
G02*
X6344700Y856350I25030J91680D01*
G01*
X6365640D01*
X6344700Y906350D02*
G75*
G02*
X6411350Y973000I91680J-25030D01*
G01*
Y952060D01*
G75*
G03*
X6365640Y906350I25030J-70740D01*
G01*
X6344700D01*
X6365640Y1506350D02*
G75*
G03*
X6411350Y1460640I70740J25030D01*
G01*
Y1439700D01*
G75*
G02*
X6344700Y1506350I25030J91680D01*
G01*
X6365640D01*
X6344700Y1556350D02*
G75*
G02*
X6411350Y1623000I91680J-25030D01*
G01*
Y1602060D01*
G75*
G03*
X6365640Y1556350I25030J-70740D01*
G01*
X6344700D01*
X6429310Y5708130D02*
G75*
G02*
X6444310Y5693140I0J-14990D01*
G01*
G75*
G02*
Y5693130I-13020J0D01*
G01*
Y5594130D01*
G75*
G02*
Y5594120I-13020J0D01*
G01*
G75*
G02*
X6429310Y5579130I-15000J0D01*
G01*
X6367310D01*
G75*
G02*
X6352310Y5594120I0J14990D01*
G01*
G75*
G02*
Y5594130I13020J10D01*
G01*
Y5693130D01*
G75*
G02*
Y5693140I13020J10D01*
G01*
G75*
G02*
X6367310Y5708130I15000J0D01*
G01*
X6429310D01*
X6403040Y5998630D02*
X6423310D01*
Y5994370D01*
G75*
G02*
X6381570Y5952630I-41740J0D01*
G01*
X6358310D01*
Y5972630D01*
X6373310D01*
G75*
G03*
X6403040Y5998630I0J30000D01*
G01*
X6381570Y6094630D02*
G75*
G02*
X6423310Y6052890I0J-41740D01*
G01*
Y6048630D01*
X6403040D01*
G75*
G03*
X6373310Y6074630I-29730J-4000D01*
G01*
X6358310D01*
Y6094630D01*
X6381570D01*
X6293310Y5972630D02*
X6308310D01*
Y5952630D01*
X6285050D01*
G75*
G02*
X6243310Y5994370I0J41740D01*
G01*
Y5998630D01*
X6263580D01*
G75*
G03*
X6293310Y5972630I29730J4000D01*
G01*
X6285050Y6094630D02*
X6308310D01*
Y6074630D01*
X6293310D01*
G75*
G03*
X6263580Y6048630I0J-30000D01*
G01*
X6243310D01*
Y6052890D01*
G75*
G02*
X6285050Y6094630I41740J0D01*
G01*
X6300050Y8908630D02*
X6433310D01*
Y8888630D01*
X6308310D01*
G75*
G03*
X6208310Y8788630I0J-100000D01*
G01*
Y8663630D01*
X6188310D01*
Y8796890D01*
G75*
G02*
X6300050Y8908630I111740J0D01*
G01*
X6507060Y856350D02*
X6528000D01*
G75*
G02*
X6461350Y789700I-91680J25030D01*
G01*
Y810640D01*
G75*
G03*
X6507060Y856350I-25030J70740D01*
G01*
X6461350Y973000D02*
G75*
G02*
X6528000Y906350I-25030J-91680D01*
G01*
X6507060D01*
G75*
G03*
X6461350Y952060I-70740J-25030D01*
G01*
Y973000D01*
X6507060Y1506350D02*
X6528000D01*
G75*
G02*
X6461350Y1439700I-91680J25030D01*
G01*
Y1460640D01*
G75*
G03*
X6507060Y1506350I-25030J70740D01*
G01*
X6461350Y1623000D02*
G75*
G02*
X6528000Y1556350I-25030J-91680D01*
G01*
X6507060D01*
G75*
G03*
X6461350Y1602060I-70740J-25030D01*
G01*
Y1623000D01*
X6708310Y8613630D02*
X6728310D01*
Y8480370D01*
G75*
G02*
X6616570Y8368630I-111740J0D01*
G01*
X6483310D01*
Y8388630D01*
X6608310D01*
G75*
G03*
X6708310Y8488630I0J100000D01*
G01*
Y8613630D01*
X168310Y68630D02*
X293310D01*
Y48630D01*
X160050D01*
G75*
G02*
X48310Y160370I0J111740D01*
G01*
Y293630D01*
X68310D01*
Y168630D01*
G75*
G03*
X168310Y68630I100000J0D01*
G01*
X160050Y588630D02*
X293310D01*
Y568630D01*
X168310D01*
G75*
G03*
X68310Y468630I0J-100000D01*
G01*
Y343630D01*
X48310D01*
Y476890D01*
G75*
G02*
X160050Y588630I111740J0D01*
G01*
X168310Y8388630D02*
X293310D01*
Y8368630D01*
X160050D01*
G75*
G02*
X48310Y8480370I0J111740D01*
G01*
Y8613630D01*
X68310D01*
Y8488630D01*
G75*
G03*
X168310Y8388630I100000J0D01*
G01*
X160050Y8908630D02*
X293310D01*
Y8888630D01*
X168310D01*
G75*
G03*
X68310Y8788630I0J-100000D01*
G01*
Y8663630D01*
X48310D01*
Y8796890D01*
G75*
G02*
X160050Y8908630I111740J0D01*
G01*
X32700Y171130D02*
G36*
X32700Y171130D02*
Y156350D01*
G75*
G03*
X156350Y32700I123650J0D01*
G01*
X6606350D01*
G75*
G03*
X6730000Y156350I0J123650D01*
G01*
Y171130D01*
X588310D01*
Y160370D01*
G75*
G02*
Y160360I-114590J0D01*
G01*
G75*
G02*
X476570Y48630I-111740J0D01*
G01*
X343310D01*
Y68630D01*
X468310D01*
G75*
G03*
X568310Y168630I0J100000D01*
G01*
Y171130D01*
X68310D01*
Y168630D01*
G75*
G03*
X168310Y68630I100000J0D01*
G01*
X293310D01*
Y48630D01*
X160050D01*
G75*
G02*
X48310Y160360I0J111730D01*
G01*
G75*
G02*
Y160370I114590J10D01*
G01*
Y171130D01*
X32700D01*
G37*
Y275750D02*
G36*
X32700Y275750D02*
Y171130D01*
X48310D01*
Y275750D01*
X32700D01*
G37*
X68310D02*
G36*
X68310Y275750D02*
Y171130D01*
X568310D01*
Y275750D01*
X68310D01*
G37*
X588310D02*
G36*
X588310Y275750D02*
Y171130D01*
X6730000D01*
Y275750D01*
X5522010D01*
Y247430D01*
X5329610D01*
Y275750D01*
X5268010D01*
Y247430D01*
X5075610D01*
Y275750D01*
X5014010D01*
Y247430D01*
X4942810D01*
Y267430D01*
X4994010D01*
Y275750D01*
X4841610D01*
Y267430D01*
X4892810D01*
Y247430D01*
X4821610D01*
Y275750D01*
X4760010D01*
Y247430D01*
X4567610D01*
Y275750D01*
X4506010D01*
Y247430D01*
X4313610D01*
Y275750D01*
X4247840D01*
Y244110D01*
X4055440D01*
Y275750D01*
X3037950D01*
Y240150D01*
X2941350D01*
Y260150D01*
X3017950D01*
Y275750D01*
X2814750D01*
Y260150D01*
X2891350D01*
Y240150D01*
X2794750D01*
Y275750D01*
X2437950D01*
Y240150D01*
X2341350D01*
Y260150D01*
X2417950D01*
Y275750D01*
X2214750D01*
Y260150D01*
X2291350D01*
Y240150D01*
X2194750D01*
Y275750D01*
X1634290D01*
G75*
G02*
X1593310Y265330I-40980J75380D01*
G01*
G75*
G02*
X1552330Y275750I0J85800D01*
G01*
X1129290D01*
G75*
G02*
X1088310Y265330I-40980J75380D01*
G01*
G75*
G02*
X1047330Y275750I0J85800D01*
G01*
X588310D01*
G37*
X32700Y351130D02*
G36*
X32700Y351130D02*
Y275750D01*
X48310D01*
Y293630D01*
X68310D01*
Y275750D01*
X568310D01*
Y293630D01*
X588310D01*
Y275750D01*
X1047330D01*
G75*
G02*
X1002510Y351130I40980J75380D01*
G01*
X588310D01*
Y343630D01*
X568310D01*
Y351130D01*
X68310D01*
Y343630D01*
X48310D01*
Y351130D01*
X32700D01*
G37*
X1174110D02*
G36*
X1174110Y351130D02*
G75*
G02*
X1129290Y275750I-85800J0D01*
G01*
X1552330D01*
G75*
G02*
X1507510Y351130I40980J75380D01*
G01*
X1174110D01*
G37*
X1679110D02*
G36*
X1679110Y351130D02*
G75*
G02*
X1634290Y275750I-85800J0D01*
G01*
X2194750D01*
Y311350D01*
X2214750D01*
Y275750D01*
X2417950D01*
Y311350D01*
X2437950D01*
Y275750D01*
X2794750D01*
Y311350D01*
X2814750D01*
Y275750D01*
X3017950D01*
Y311350D01*
X3037950D01*
Y275750D01*
X4055440D01*
Y351130D01*
X1679110D01*
G37*
X4247840D02*
G36*
X4247840Y351130D02*
Y275750D01*
X4313610D01*
Y351130D01*
X4247840D01*
G37*
X4506010D02*
G36*
X4506010Y351130D02*
Y275750D01*
X4567610D01*
Y351130D01*
X4506010D01*
G37*
X4760010D02*
G36*
X4760010Y351130D02*
Y275750D01*
X4821610D01*
Y318630D01*
X4841610D01*
Y275750D01*
X4994010D01*
Y318630D01*
X5014010D01*
Y275750D01*
X5075610D01*
Y351130D01*
X4760010D01*
G37*
X5268010D02*
G36*
X5268010Y351130D02*
Y275750D01*
X5329610D01*
Y351130D01*
X5268010D01*
G37*
X5522010D02*
G36*
X5522010Y351130D02*
Y275750D01*
X6730000D01*
Y351130D01*
X5522010D01*
G37*
X32700Y396950D02*
G36*
X32700Y396950D02*
Y351130D01*
X48310D01*
Y396950D01*
X32700D01*
G37*
X68310D02*
G36*
X68310Y396950D02*
Y351130D01*
X568310D01*
Y396950D01*
X68310D01*
G37*
X588310D02*
G36*
X588310Y396950D02*
Y351130D01*
X1002510D01*
G75*
G02*
X1015770Y396950I85800J0D01*
G01*
X588310D01*
G37*
X1174110Y351130D02*
G36*
X1174110Y351130D02*
X1507510D01*
G75*
G02*
X1520770Y396950I85800J0D01*
G01*
X1160850D01*
G75*
G02*
X1174110Y351130I-72540J-45820D01*
G01*
G37*
X1679110D02*
G36*
X1679110Y351130D02*
X4055440D01*
Y396950D01*
X3037950D01*
Y361350D01*
X3017950D01*
Y396950D01*
X2814750D01*
Y361350D01*
X2794750D01*
Y396950D01*
X2437950D01*
Y361350D01*
X2417950D01*
Y396950D01*
X2214750D01*
Y361350D01*
X2194750D01*
Y396950D01*
X1665850D01*
G75*
G02*
X1679110Y351130I-72540J-45820D01*
G01*
G37*
X4247840Y396950D02*
G36*
X4247840Y396950D02*
Y351130D01*
X4313610D01*
Y396950D01*
X4247840D01*
G37*
X4506010D02*
G36*
X4506010Y396950D02*
Y351130D01*
X4567610D01*
Y396950D01*
X4506010D01*
G37*
X4760010D02*
G36*
X4760010Y396950D02*
Y351130D01*
X5075610D01*
Y396950D01*
X5014010D01*
Y368630D01*
X4994010D01*
Y396950D01*
X4841610D01*
Y368630D01*
X4821610D01*
Y396950D01*
X4760010D01*
G37*
X5268010D02*
G36*
X5268010Y396950D02*
Y351130D01*
X5329610D01*
Y396950D01*
X5268010D01*
G37*
X5522010D02*
G36*
X5522010Y396950D02*
Y351130D01*
X6730000D01*
Y396950D01*
X5522010D01*
G37*
X32700Y466130D02*
G36*
X32700Y466130D02*
Y396950D01*
X48310D01*
Y466130D01*
X32700D01*
G37*
X68310D02*
G36*
X68310Y466130D02*
Y396950D01*
X568310D01*
Y466130D01*
X68310D01*
G37*
X588310D02*
G36*
X588310Y466130D02*
Y396950D01*
X1015770D01*
G75*
G02*
X1088310Y436930I72540J-45820D01*
G01*
G75*
G02*
X1160850Y396950I0J-85800D01*
G01*
X1520770D01*
G75*
G02*
X1593310Y436930I72540J-45820D01*
G01*
G75*
G02*
X1665850Y396950I0J-85800D01*
G01*
X2194750D01*
Y432550D01*
X2291350D01*
Y412550D01*
X2214750D01*
Y396950D01*
X2417950D01*
Y412550D01*
X2341350D01*
Y432550D01*
X2437950D01*
Y396950D01*
X2794750D01*
Y432550D01*
X2891350D01*
Y412550D01*
X2814750D01*
Y396950D01*
X3017950D01*
Y412550D01*
X2941350D01*
Y432550D01*
X3037950D01*
Y396950D01*
X4055440D01*
Y436510D01*
X4247840D01*
Y396950D01*
X4313610D01*
Y439830D01*
X4506010D01*
Y396950D01*
X4567610D01*
Y439830D01*
X4760010D01*
Y396950D01*
X4821610D01*
Y439830D01*
X4892810D01*
Y419830D01*
X4841610D01*
Y396950D01*
X4994010D01*
Y419830D01*
X4942810D01*
Y439830D01*
X5014010D01*
Y396950D01*
X5075610D01*
Y439830D01*
X5268010D01*
Y396950D01*
X5329610D01*
Y439830D01*
X5522010D01*
Y396950D01*
X6730000D01*
Y466130D01*
X588310D01*
G37*
X32700Y590350D02*
G36*
X32700Y590350D02*
Y466130D01*
X48310D01*
Y476890D01*
G75*
G02*
Y476900I114590J10D01*
G01*
G75*
G02*
X160050Y588630I111740J0D01*
G01*
X293310D01*
Y568630D01*
X168310D01*
G75*
G03*
X68310Y468630I0J-100000D01*
G01*
Y466130D01*
X568310D01*
Y468630D01*
G75*
G03*
X468310Y568630I-100000J0D01*
G01*
X343310D01*
Y588630D01*
X476570D01*
G75*
G02*
X588310Y476900I0J-111730D01*
G01*
G75*
G02*
Y476890I-114590J0D01*
G01*
Y466130D01*
X6730000D01*
Y590350D01*
X3037950D01*
Y494150D01*
X2794750D01*
Y590350D01*
X2437950D01*
Y494150D01*
X2194750D01*
Y590350D01*
X32700D01*
G37*
Y731130D02*
G36*
X32700Y731130D02*
Y590350D01*
X2194750D01*
Y686550D01*
X2437950D01*
Y590350D01*
X2794750D01*
Y686550D01*
X3037950D01*
Y590350D01*
X6730000D01*
Y731130D01*
X3626810D01*
Y628630D01*
G75*
G02*
Y628620I-52090J0D01*
G01*
G75*
G02*
X3596810Y598630I-30000J0D01*
G01*
X3514810D01*
G75*
G02*
X3484810Y628620I0J29990D01*
G01*
G75*
G02*
Y628630I52090J10D01*
G01*
Y731130D01*
X1473310D01*
Y690130D01*
G75*
G02*
Y690120I-52090J0D01*
G01*
G75*
G02*
X1443310Y660130I-30000J0D01*
G01*
X1323310D01*
G75*
G02*
X1293310Y690120I0J29990D01*
G01*
G75*
G02*
Y690130I52090J10D01*
G01*
Y731130D01*
X32700D01*
G37*
Y823020D02*
G36*
X32700Y823020D02*
Y731130D01*
X1293310D01*
Y772130D01*
G75*
G02*
Y772140I52090J10D01*
G01*
G75*
G02*
X1323310Y802130I30000J0D01*
G01*
X1443310D01*
G75*
G02*
X1473310Y772140I0J-29990D01*
G01*
G75*
G02*
Y772130I-52090J0D01*
G01*
Y731130D01*
X3484810D01*
Y748630D01*
G75*
G02*
Y748640I52090J10D01*
G01*
G75*
G02*
X3514810Y778630I30000J0D01*
G01*
X3596810D01*
G75*
G02*
X3626810Y748640I0J-29990D01*
G01*
G75*
G02*
Y748630I-52090J0D01*
G01*
Y731130D01*
X6730000D01*
Y823020D01*
X6511330D01*
G75*
G02*
X6461350Y789700I-75010J58370D01*
G01*
Y810640D01*
G75*
G03*
X6483490Y823020I-25030J70740D01*
G01*
X6389210D01*
G75*
G03*
X6411350Y810640I47170J58360D01*
G01*
Y789700D01*
G75*
G02*
X6361370Y823020I25030J91690D01*
G01*
X6061330D01*
G75*
G02*
X5911370I-74980J58330D01*
G01*
X5739510D01*
Y769930D01*
X5547110D01*
Y823020D01*
X32700D01*
G37*
Y945630D02*
G36*
X32700Y945630D02*
Y823020D01*
X5547110D01*
Y945630D01*
X4089310D01*
Y923630D01*
G75*
G02*
Y923620I-52090J0D01*
G01*
G75*
G02*
X4059310Y893630I-30000J0D01*
G01*
X3977310D01*
G75*
G02*
X3947310Y923620I0J29990D01*
G01*
G75*
G02*
Y923630I52090J10D01*
G01*
Y945630D01*
X2788310D01*
Y904630D01*
G75*
G02*
Y904620I-52090J0D01*
G01*
G75*
G02*
X2758310Y874630I-30000J0D01*
G01*
X2638310D01*
G75*
G02*
X2608310Y904620I0J29990D01*
G01*
G75*
G02*
Y904630I52090J10D01*
G01*
Y945630D01*
X32700D01*
G37*
X5739510D02*
G36*
X5739510Y945630D02*
Y823020D01*
X5911370D01*
G75*
G02*
X5891350Y881350I74980J58340D01*
G01*
G75*
G02*
X5916400Y945630I95000J0D01*
G01*
X5739510D01*
G37*
X6081350Y881350D02*
G36*
X6081350Y881350D02*
G75*
G02*
X6061330Y823020I-95000J10D01*
G01*
X6361370D01*
G75*
G02*
X6344700Y856350I75010J58350D01*
G01*
X6365640D01*
G75*
G03*
X6389210Y823020I70740J25020D01*
G01*
X6483490D01*
G75*
G03*
X6507060Y856350I-47170J58350D01*
G01*
X6528000D01*
G75*
G02*
X6511330Y823020I-91680J25020D01*
G01*
X6730000D01*
Y945630D01*
X6506290D01*
G75*
G02*
X6528000Y906350I-69970J-64310D01*
G01*
X6507060D01*
G75*
G03*
X6474980Y945630I-70740J-25030D01*
G01*
X6397720D01*
G75*
G03*
X6365640Y906350I38660J-64310D01*
G01*
X6344700D01*
G75*
G02*
X6366410Y945630I91680J-25030D01*
G01*
X6056300D01*
G75*
G02*
X6081350Y881350I-69950J-64280D01*
G01*
G37*
X32700Y1184630D02*
G36*
X32700Y1184630D02*
Y945630D01*
X2608310D01*
Y986630D01*
G75*
G02*
Y986640I52090J10D01*
G01*
G75*
G02*
X2638310Y1016630I30000J0D01*
G01*
X2758310D01*
G75*
G02*
X2788310Y986640I0J-29990D01*
G01*
G75*
G02*
Y986630I-52090J0D01*
G01*
Y945630D01*
X3947310D01*
Y1043630D01*
G75*
G02*
Y1043640I52090J10D01*
G01*
G75*
G02*
X3977310Y1073630I30000J0D01*
G01*
X4059310D01*
G75*
G02*
X4089310Y1043640I0J-29990D01*
G01*
G75*
G02*
Y1043630I-52090J0D01*
G01*
Y945630D01*
X5547110D01*
Y962330D01*
X5739510D01*
Y945630D01*
X5916400D01*
G75*
G02*
X6056300I69950J-64280D01*
G01*
X6366410D01*
G75*
G02*
X6411350Y973000I69970J-64310D01*
G01*
Y952060D01*
G75*
G03*
X6397720Y945630I25030J-70720D01*
G01*
X6474980D01*
G75*
G03*
X6461350Y952060I-38660J-64290D01*
G01*
Y973000D01*
G75*
G02*
X6506290Y945630I-25030J-91680D01*
G01*
X6730000D01*
Y1184630D01*
X5739510D01*
Y1023930D01*
X5547110D01*
Y1184630D01*
X3274310D01*
Y1116350D01*
G75*
G02*
Y1116340I-52090J0D01*
G01*
G75*
G02*
X3244310Y1086350I-30000J0D01*
G01*
X3162310D01*
G75*
G02*
X3132310Y1116340I0J29990D01*
G01*
G75*
G02*
Y1116350I52090J10D01*
G01*
Y1184630D01*
X2784310D01*
Y1116350D01*
G75*
G02*
Y1116340I-52090J0D01*
G01*
G75*
G02*
X2754310Y1086350I-30000J0D01*
G01*
X2672310D01*
G75*
G02*
X2642310Y1116340I0J29990D01*
G01*
G75*
G02*
Y1116350I52090J10D01*
G01*
Y1184630D01*
X778310D01*
G75*
G02*
X498310I-140000J0D01*
G01*
X32700D01*
G37*
Y1473020D02*
G36*
X32700Y1473020D02*
Y1184630D01*
X498310D01*
G75*
G02*
X778310I140000J0D01*
G01*
X2642310D01*
Y1236350D01*
G75*
G02*
Y1236360I52090J10D01*
G01*
G75*
G02*
X2672310Y1266350I30000J0D01*
G01*
X2754310D01*
G75*
G02*
X2784310Y1236360I0J-29990D01*
G01*
G75*
G02*
Y1236350I-52090J0D01*
G01*
Y1184630D01*
X3132310D01*
Y1236350D01*
G75*
G02*
Y1236360I52090J10D01*
G01*
G75*
G02*
X3162310Y1266350I30000J0D01*
G01*
X3244310D01*
G75*
G02*
X3274310Y1236360I0J-29990D01*
G01*
G75*
G02*
Y1236350I-52090J0D01*
G01*
Y1184630D01*
X5547110D01*
Y1216330D01*
X5739510D01*
Y1184630D01*
X6730000D01*
Y1473020D01*
X6511330D01*
G75*
G02*
X6461350Y1439700I-75010J58370D01*
G01*
Y1460640D01*
G75*
G03*
X6483490Y1473020I-25030J70740D01*
G01*
X6389210D01*
G75*
G03*
X6411350Y1460640I47170J58360D01*
G01*
Y1439700D01*
G75*
G02*
X6361370Y1473020I25030J91690D01*
G01*
X6061330D01*
G75*
G02*
X5911370I-74980J58330D01*
G01*
X32700D01*
G37*
Y1566130D02*
G36*
X32700Y1566130D02*
Y1473020D01*
X5911370D01*
G75*
G02*
X5891350Y1531350I74980J58340D01*
G01*
G75*
G02*
X5897950Y1566130I95000J-10D01*
G01*
X1909850D01*
G75*
G02*
X1870610Y1538630I-39240J14240D01*
G01*
X1866350D01*
Y1558900D01*
G75*
G03*
X1882190Y1566130I-4000J29730D01*
G01*
X1800510D01*
G75*
G03*
X1816350Y1558900I19840J22500D01*
G01*
Y1538630D01*
X1812090D01*
G75*
G02*
X1772850Y1566130I0J41740D01*
G01*
X1686310D01*
G75*
G02*
X1645610Y1533630I-40700J9240D01*
G01*
X1641350D01*
Y1553900D01*
G75*
G03*
X1661720Y1566130I-4000J29740D01*
G01*
X1570980D01*
G75*
G03*
X1591350Y1553900I24370J17510D01*
G01*
Y1533630D01*
X1587090D01*
G75*
G02*
X1546390Y1566130I0J41740D01*
G01*
X698280D01*
G75*
G02*
X663310Y1554880I-60000J126530D01*
G01*
Y1566130D01*
X613310D01*
Y1554880D01*
G75*
G02*
X578340Y1566130I25030J137780D01*
G01*
X32700D01*
G37*
X6081350Y1531350D02*
G36*
X6081350Y1531350D02*
G75*
G02*
X6061330Y1473020I-95000J10D01*
G01*
X6361370D01*
G75*
G02*
X6344700Y1506350I75010J58350D01*
G01*
X6365640D01*
G75*
G03*
X6389210Y1473020I70740J25020D01*
G01*
X6483490D01*
G75*
G03*
X6507060Y1506350I-47170J58350D01*
G01*
X6528000D01*
G75*
G02*
X6511330Y1473020I-91680J25020D01*
G01*
X6730000D01*
Y1566130D01*
X6524750D01*
G75*
G02*
X6528000Y1556350I-88430J-34820D01*
G01*
X6507060D01*
G75*
G03*
X6502800Y1566130I-70740J-24990D01*
G01*
X6369900D01*
G75*
G03*
X6365640Y1556350I66480J-34770D01*
G01*
X6344700D01*
G75*
G02*
X6347950Y1566130I91680J-25040D01*
G01*
X6074750D01*
G75*
G02*
X6081350Y1531350I-88400J-34790D01*
G01*
G37*
X32700Y1611250D02*
G36*
X32700Y1611250D02*
Y1566130D01*
X578340D01*
G75*
G02*
X524400Y1611250I60000J126530D01*
G01*
X32700D01*
G37*
X613310Y1575260D02*
G36*
X613310Y1575260D02*
Y1566130D01*
X663310D01*
Y1575260D01*
G75*
G03*
X726500Y1611250I-25000J117370D01*
G01*
X550120D01*
G75*
G03*
X613310Y1575260I88190J81380D01*
G01*
G37*
X752220Y1611250D02*
G36*
X752220Y1611250D02*
G75*
G02*
X698280Y1566130I-113940J81410D01*
G01*
X1546390D01*
G75*
G02*
X1545350Y1575370I40710J9260D01*
G01*
Y1598630D01*
X1565350D01*
Y1583630D01*
G75*
G03*
X1570980Y1566130I30000J0D01*
G01*
X1661720D01*
G75*
G03*
X1667350Y1583630I-24370J17500D01*
G01*
Y1598630D01*
X1687350D01*
Y1575370D01*
G75*
G02*
X1686310Y1566130I-41750J20D01*
G01*
X1772850D01*
G75*
G02*
X1770350Y1580370I39240J14230D01*
G01*
Y1603630D01*
X1790350D01*
Y1588630D01*
G75*
G03*
X1800510Y1566130I30000J0D01*
G01*
X1882190D01*
G75*
G03*
X1892350Y1588630I-19840J22500D01*
G01*
Y1603630D01*
X1912350D01*
Y1580370D01*
G75*
G02*
X1909850Y1566130I-41740J-10D01*
G01*
X5897950D01*
G75*
G02*
X5934960Y1611250I88400J-34780D01*
G01*
X752220D01*
G37*
X6037740D02*
G36*
X6037740Y1611250D02*
G75*
G02*
X6074750Y1566130I-51390J-79900D01*
G01*
X6347950D01*
G75*
G02*
X6384970Y1611250I88430J-34810D01*
G01*
X6037740D01*
G37*
X6411350Y1602060D02*
G36*
X6411350Y1602060D02*
G75*
G03*
X6369900Y1566130I25020J-70740D01*
G01*
X6502800D01*
G75*
G03*
X6461350Y1602060I-66470J-34810D01*
G01*
Y1611250D01*
X6411350D01*
Y1602060D01*
G37*
X6487730Y1611250D02*
G36*
X6487730Y1611250D02*
G75*
G02*
X6524750Y1566130I-51410J-79930D01*
G01*
X6730000D01*
Y1611250D01*
X6487730D01*
G37*
X32700Y1681130D02*
G36*
X32700Y1681130D02*
Y1611250D01*
X524400D01*
G75*
G02*
X500560Y1667630I113940J81410D01*
G01*
X520940D01*
G75*
G03*
X550120Y1611250I117370J25010D01*
G01*
X726500D01*
G75*
G03*
X755680Y1667630I-88190J81390D01*
G01*
X776060D01*
G75*
G02*
X752220Y1611250I-137780J25030D01*
G01*
X5934960D01*
G75*
G02*
X6037740I51390J-79900D01*
G01*
X6384970D01*
G75*
G02*
X6411350Y1623000I51410J-79940D01*
G01*
Y1611250D01*
X6461350D01*
Y1623000D01*
G75*
G02*
X6487730Y1611250I-25030J-91690D01*
G01*
X6730000D01*
Y1681130D01*
X1912130D01*
G75*
G02*
X1912350Y1676890I-41540J-4280D01*
G01*
Y1653630D01*
X1892350D01*
Y1668630D01*
G75*
G03*
X1889620Y1681130I-30000J0D01*
G01*
X1793080D01*
G75*
G03*
X1790350Y1668630I27270J-12500D01*
G01*
Y1653630D01*
X1770350D01*
Y1676890D01*
G75*
G02*
X1770570Y1681130I41760J-40D01*
G01*
X1686310D01*
G75*
G02*
X1687350Y1671890I-40710J-9260D01*
G01*
Y1648630D01*
X1667350D01*
Y1663630D01*
G75*
G03*
X1661720Y1681130I-30000J0D01*
G01*
X1570980D01*
G75*
G03*
X1565350Y1663630I24370J-17500D01*
G01*
Y1648630D01*
X1545350D01*
Y1671890D01*
G75*
G02*
X1546390Y1681130I41750J-20D01*
G01*
X32700D01*
G37*
Y1743130D02*
G36*
X32700Y1743130D02*
Y1681130D01*
X1546390D01*
G75*
G02*
X1587090Y1713630I40700J-9240D01*
G01*
X1591350D01*
Y1693360D01*
G75*
G03*
X1570980Y1681130I4000J-29740D01*
G01*
X1661720D01*
G75*
G03*
X1641350Y1693360I-24370J-17510D01*
G01*
Y1713630D01*
X1645610D01*
G75*
G02*
X1686310Y1681130I0J-41740D01*
G01*
X1770570D01*
G75*
G02*
X1812090Y1718630I41520J-4240D01*
G01*
X1816350D01*
Y1698360D01*
G75*
G03*
X1793080Y1681130I4000J-29730D01*
G01*
X1889620D01*
G75*
G03*
X1866350Y1698360I-27270J-12500D01*
G01*
Y1718630D01*
X1870610D01*
G75*
G02*
X1912130Y1681130I0J-41740D01*
G01*
X6730000D01*
Y1743130D01*
X5726370D01*
G75*
G02*
X5689070Y1720130I-37300J18740D01*
G01*
X5665810D01*
Y1740130D01*
X5680810D01*
G75*
G03*
X5693880Y1743130I0J29990D01*
G01*
X5587740D01*
G75*
G03*
X5600810Y1740130I13070J26990D01*
G01*
X5615810D01*
Y1720130D01*
X5592550D01*
G75*
G02*
X5555250Y1743130I0J41740D01*
G01*
X768880D01*
G75*
G02*
X776060Y1717630I-130600J-50530D01*
G01*
X755680D01*
G75*
G03*
X747170Y1743130I-117370J-25000D01*
G01*
X529450D01*
G75*
G03*
X520940Y1717630I108860J-50500D01*
G01*
X500560D01*
G75*
G02*
X507740Y1743130I137780J-25030D01*
G01*
X32700D01*
G37*
Y1774000D02*
G36*
X32700Y1774000D02*
Y1743130D01*
X507740D01*
G75*
G02*
X524390Y1774000I130600J-50520D01*
G01*
X32700D01*
G37*
X550110D02*
G36*
X550110Y1774000D02*
G75*
G03*
X529450Y1743130I88200J-81380D01*
G01*
X747170D01*
G75*
G03*
X726510Y1774000I-108860J-50510D01*
G01*
X550110D01*
G37*
X752230D02*
G36*
X752230Y1774000D02*
G75*
G02*
X768880Y1743130I-113950J-81390D01*
G01*
X5555250D01*
G75*
G02*
X5550810Y1761870I37300J18730D01*
G01*
Y1766130D01*
X5571080D01*
G75*
G03*
X5587740Y1743130I29730J4000D01*
G01*
X5693880D01*
G75*
G03*
X5710540Y1766130I-13070J27000D01*
G01*
X5730810D01*
Y1761870D01*
G75*
G02*
X5726370Y1743130I-41740J-10D01*
G01*
X6730000D01*
Y1774000D01*
X752230D01*
G37*
X32700Y1839130D02*
G36*
X32700Y1839130D02*
Y1774000D01*
X524390D01*
G75*
G02*
X613310Y1830380I113950J-81400D01*
G01*
Y1810000D01*
G75*
G03*
X550110Y1774000I25000J-117370D01*
G01*
X726510D01*
G75*
G03*
X663310Y1810000I-88200J-81370D01*
G01*
Y1830380D01*
G75*
G02*
X752230Y1774000I-25030J-137780D01*
G01*
X6730000D01*
Y1839130D01*
X5726370D01*
G75*
G02*
X5730810Y1820390I-37300J-18730D01*
G01*
Y1816130D01*
X5710540D01*
G75*
G03*
X5693880Y1839130I-29730J-4000D01*
G01*
X5587740D01*
G75*
G03*
X5571080Y1816130I13070J-27000D01*
G01*
X5550810D01*
Y1820390D01*
G75*
G02*
X5555250Y1839130I41740J10D01*
G01*
X32700D01*
G37*
Y1923630D02*
G36*
X32700Y1923630D02*
Y1839130D01*
X5555250D01*
G75*
G02*
X5592550Y1862130I37300J-18740D01*
G01*
X5615810D01*
Y1842130D01*
X5600810D01*
G75*
G03*
X5587740Y1839130I0J-29990D01*
G01*
X5693880D01*
G75*
G03*
X5680810Y1842130I-13070J-26990D01*
G01*
X5665810D01*
Y1862130D01*
X5689070D01*
G75*
G02*
X5726370Y1839130I0J-41740D01*
G01*
X6730000D01*
Y1923630D01*
X5471810D01*
Y1886630D01*
Y1886620D01*
G75*
G02*
X5456810Y1871630I-15000J0D01*
G01*
X5394810D01*
G75*
G02*
X5379810Y1886620I0J14990D01*
G01*
Y1886630D01*
Y1923630D01*
X4089310D01*
Y1907870D01*
G75*
G02*
X4047570Y1866130I-41740J0D01*
G01*
X4043310D01*
Y1886400D01*
G75*
G03*
X4069310Y1916130I-4000J29730D01*
G01*
Y1923630D01*
X3967310D01*
Y1916130D01*
G75*
G03*
X3993310Y1886400I30000J0D01*
G01*
Y1866130D01*
X3989050D01*
G75*
G02*
X3947310Y1907870I0J41740D01*
G01*
Y1923630D01*
X3225770D01*
G75*
G02*
X3185070Y1891130I-40700J9240D01*
G01*
X3180810D01*
Y1911400D01*
G75*
G03*
X3201180Y1923630I-4000J29740D01*
G01*
X3110440D01*
G75*
G03*
X3130810Y1911400I24370J17510D01*
G01*
Y1891130D01*
X3126550D01*
G75*
G02*
X3085850Y1923630I0J41740D01*
G01*
X32700D01*
G37*
Y2003630D02*
G36*
X32700Y2003630D02*
Y1923630D01*
X3085850D01*
G75*
G02*
X3084810Y1932870I40710J9260D01*
G01*
Y1956130D01*
X3104810D01*
Y1941130D01*
G75*
G03*
X3110440Y1923630I30000J0D01*
G01*
X3201180D01*
G75*
G03*
X3206810Y1941130I-24370J17500D01*
G01*
Y1956130D01*
X3226810D01*
Y1932870D01*
G75*
G02*
X3225770Y1923630I-41750J20D01*
G01*
X3947310D01*
Y1931130D01*
X3967310D01*
Y1923630D01*
X4069310D01*
Y1931130D01*
X4089310D01*
Y1923630D01*
X5379810D01*
Y1985630D01*
Y1985640D01*
G75*
G02*
X5394810Y2000630I15000J0D01*
G01*
X5456810D01*
G75*
G02*
X5471810Y1985640I0J-14990D01*
G01*
Y1985630D01*
Y1923630D01*
X6730000D01*
Y2003630D01*
X5225770D01*
G75*
G02*
X5185070Y1971130I-40700J9240D01*
G01*
X5180810D01*
Y1991400D01*
G75*
G03*
X5201180Y2003630I-4000J29740D01*
G01*
X5110440D01*
G75*
G03*
X5130810Y1991400I24370J17510D01*
G01*
Y1971130D01*
X5126550D01*
G75*
G02*
X5085850Y2003630I0J41740D01*
G01*
X4696710D01*
G75*
G02*
X4666810Y1976130I-29890J2500D01*
G01*
X4584810D01*
G75*
G02*
X4554910Y2003630I-10J30000D01*
G01*
X4089310D01*
Y1981130D01*
X4069310D01*
Y1996130D01*
G75*
G03*
X4068360Y2003630I-30000J10D01*
G01*
X3968260D01*
G75*
G03*
X3967310Y1996130I29050J-7490D01*
G01*
Y1981130D01*
X3947310D01*
Y2003630D01*
X32700D01*
G37*
Y2038630D02*
G36*
X32700Y2038630D02*
Y2003630D01*
X3947310D01*
Y2004390D01*
G75*
G02*
X3965180Y2038630I41740J0D01*
G01*
X3225770D01*
G75*
G02*
X3226810Y2029390I-40710J-9260D01*
G01*
Y2006130D01*
X3206810D01*
Y2021130D01*
G75*
G03*
X3201180Y2038630I-30000J0D01*
G01*
X3110440D01*
G75*
G03*
X3104810Y2021130I24370J-17500D01*
G01*
Y2006130D01*
X3084810D01*
Y2029390D01*
G75*
G02*
X3085850Y2038630I41750J-20D01*
G01*
X32700D01*
G37*
X3993310Y2025860D02*
G36*
X3993310Y2025860D02*
G75*
G03*
X3968260Y2003630I4000J-29730D01*
G01*
X4068360D01*
G75*
G03*
X4043310Y2025860I-29050J-7500D01*
G01*
Y2038630D01*
X3993310D01*
Y2025860D01*
G37*
X4089310Y2004390D02*
G36*
X4089310Y2004390D02*
Y2003630D01*
X4554910D01*
G75*
G02*
X4554810Y2006120I29850J2450D01*
G01*
G75*
G02*
Y2006130I52090J10D01*
G01*
Y2038630D01*
X4071440D01*
G75*
G02*
X4089310Y2004390I-23870J-34240D01*
G01*
G37*
X4696810Y2038630D02*
G36*
X4696810Y2038630D02*
Y2006130D01*
G75*
G02*
Y2006120I-52090J0D01*
G01*
G75*
G02*
X4696710Y2003630I-29950J-40D01*
G01*
X5085850D01*
G75*
G02*
X5084810Y2012870I40710J9260D01*
G01*
Y2036130D01*
X5104810D01*
Y2021130D01*
G75*
G03*
X5110440Y2003630I30000J0D01*
G01*
X5201180D01*
G75*
G03*
X5206810Y2021130I-24370J17500D01*
G01*
Y2036130D01*
X5226810D01*
Y2012870D01*
G75*
G02*
X5225770Y2003630I-41750J20D01*
G01*
X6730000D01*
Y2038630D01*
X4696810D01*
G37*
X32700Y2119250D02*
G36*
X32700Y2119250D02*
Y2038630D01*
X3085850D01*
G75*
G02*
X3126550Y2071130I40700J-9240D01*
G01*
X3130810D01*
Y2050860D01*
G75*
G03*
X3110440Y2038630I4000J-29740D01*
G01*
X3201180D01*
G75*
G03*
X3180810Y2050860I-24370J-17510D01*
G01*
Y2071130D01*
X3185070D01*
G75*
G02*
X3225770Y2038630I0J-41740D01*
G01*
X3965180D01*
G75*
G02*
X3989050Y2046130I23870J-34240D01*
G01*
X3993310D01*
Y2038630D01*
X4043310D01*
Y2046130D01*
X4047570D01*
G75*
G02*
X4071440Y2038630I0J-41740D01*
G01*
X4554810D01*
Y2119250D01*
X752220D01*
G75*
G02*
X663310Y2062880I-113940J81410D01*
G01*
Y2083260D01*
G75*
G03*
X726500Y2119250I-25000J117370D01*
G01*
X550120D01*
G75*
G03*
X613310Y2083260I88190J81380D01*
G01*
Y2062880D01*
G75*
G02*
X524400Y2119250I25030J137780D01*
G01*
X32700D01*
G37*
X4696810D02*
G36*
X4696810Y2119250D02*
Y2038630D01*
X6730000D01*
Y2119250D01*
X5225630D01*
G75*
G02*
X5226810Y2109390I-40560J-9860D01*
G01*
Y2086130D01*
X5206810D01*
Y2101130D01*
G75*
G03*
X5200720Y2119250I-30000J0D01*
G01*
X5110900D01*
G75*
G03*
X5104810Y2101130I23910J-18120D01*
G01*
Y2086130D01*
X5084810D01*
Y2109390D01*
G75*
G02*
X5085990Y2119250I41740J0D01*
G01*
X4696810D01*
G37*
X32700Y2208630D02*
G36*
X32700Y2208630D02*
Y2119250D01*
X524400D01*
G75*
G02*
X500560Y2175630I113940J81410D01*
G01*
X520940D01*
G75*
G03*
X550120Y2119250I117370J25010D01*
G01*
X726500D01*
G75*
G03*
X755680Y2175630I-88190J81390D01*
G01*
X776060D01*
G75*
G02*
X752220Y2119250I-137780J25030D01*
G01*
X4554810D01*
Y2126130D01*
G75*
G02*
Y2126140I52090J10D01*
G01*
G75*
G02*
X4584810Y2156130I30000J0D01*
G01*
X4666810D01*
G75*
G02*
X4696810Y2126140I0J-29990D01*
G01*
G75*
G02*
Y2126130I-52090J0D01*
G01*
Y2119250D01*
X5085990D01*
G75*
G02*
X5126550Y2151130I40560J-9860D01*
G01*
X5130810D01*
Y2130860D01*
G75*
G03*
X5110900Y2119250I4000J-29730D01*
G01*
X5200720D01*
G75*
G03*
X5180810Y2130860I-23910J-18120D01*
G01*
Y2151130D01*
X5185070D01*
G75*
G02*
X5225630Y2119250I0J-41740D01*
G01*
X6730000D01*
Y2208630D01*
X4418270D01*
G75*
G02*
X4377570Y2176130I-40700J9240D01*
G01*
X4373310D01*
Y2196400D01*
G75*
G03*
X4393680Y2208630I-4000J29740D01*
G01*
X4302940D01*
G75*
G03*
X4323310Y2196400I24370J17510D01*
G01*
Y2176130D01*
X4319050D01*
G75*
G02*
X4278350Y2208630I0J41740D01*
G01*
X32700D01*
G37*
Y2282000D02*
G36*
X32700Y2282000D02*
Y2208630D01*
X4278350D01*
G75*
G02*
X4277310Y2217870I40710J9260D01*
G01*
Y2241130D01*
X4297310D01*
Y2226130D01*
G75*
G03*
X4302940Y2208630I30000J0D01*
G01*
X4393680D01*
G75*
G03*
X4399310Y2226130I-24370J17500D01*
G01*
Y2241130D01*
X4419310D01*
Y2217870D01*
G75*
G02*
X4418270Y2208630I-41750J20D01*
G01*
X6730000D01*
Y2282000D01*
X4897210D01*
G75*
G02*
X4884010Y2274130I-13190J7120D01*
G01*
X4822010D01*
G75*
G02*
X4808820Y2282000I10J15000D01*
G01*
X752230D01*
G75*
G02*
X776060Y2225630I-113950J-81390D01*
G01*
X755680D01*
G75*
G03*
X726510Y2282000I-117370J-25000D01*
G01*
X550110D01*
G75*
G03*
X520940Y2225630I88200J-81370D01*
G01*
X500560D01*
G75*
G02*
X524390Y2282000I137780J-25020D01*
G01*
X32700D01*
G37*
Y2318630D02*
G36*
X32700Y2318630D02*
Y2282000D01*
X524390D01*
G75*
G02*
X562980Y2318630I113950J-81400D01*
G01*
X32700D01*
G37*
X613310Y2318000D02*
G36*
X613310Y2318000D02*
G75*
G03*
X550110Y2282000I25000J-117370D01*
G01*
X726510D01*
G75*
G03*
X663310Y2318000I-88200J-81370D01*
G01*
Y2318630D01*
X613310D01*
Y2318000D01*
G37*
X713640Y2318630D02*
G36*
X713640Y2318630D02*
G75*
G02*
X752230Y2282000I-75360J-118030D01*
G01*
X4808820D01*
G75*
G02*
X4807010Y2289120I13200J7150D01*
G01*
Y2289130D01*
Y2318630D01*
X4702530D01*
G75*
G02*
X4691810Y2314130I-10710J10490D01*
G01*
X4629810D01*
G75*
G02*
X4619100Y2318630I10J15010D01*
G01*
X4419090D01*
G75*
G02*
X4419310Y2314390I-41540J-4280D01*
G01*
Y2291130D01*
X4399310D01*
Y2306130D01*
G75*
G03*
X4396580Y2318630I-30000J0D01*
G01*
X4300040D01*
G75*
G03*
X4297310Y2306130I27270J-12500D01*
G01*
Y2291130D01*
X4277310D01*
Y2314390D01*
G75*
G02*
X4277530Y2318630I41760J-40D01*
G01*
X3225770D01*
G75*
G02*
X3185070Y2286130I-40700J9240D01*
G01*
X3180810D01*
Y2306400D01*
G75*
G03*
X3201180Y2318630I-4000J29740D01*
G01*
X3110440D01*
G75*
G03*
X3130810Y2306400I24370J17510D01*
G01*
Y2286130D01*
X3126550D01*
G75*
G02*
X3085850Y2318630I0J41740D01*
G01*
X713640D01*
G37*
X4899010Y2289130D02*
G36*
X4899010Y2289130D02*
Y2289120D01*
G75*
G02*
X4897210Y2282000I-14990J0D01*
G01*
X6730000D01*
Y2318630D01*
X4899010D01*
Y2289130D01*
G37*
X32700Y2433630D02*
G36*
X32700Y2433630D02*
Y2318630D01*
X562980D01*
G75*
G02*
X613310Y2338380I75360J-118040D01*
G01*
Y2318630D01*
X663310D01*
Y2338380D01*
G75*
G02*
X713640Y2318630I-25030J-137790D01*
G01*
X3085850D01*
G75*
G02*
X3084810Y2327870I40710J9260D01*
G01*
Y2351130D01*
X3104810D01*
Y2336130D01*
G75*
G03*
X3110440Y2318630I30000J0D01*
G01*
X3201180D01*
G75*
G03*
X3206810Y2336130I-24370J17500D01*
G01*
Y2351130D01*
X3226810D01*
Y2327870D01*
G75*
G02*
X3225770Y2318630I-41750J20D01*
G01*
X4277530D01*
G75*
G02*
X4319050Y2356130I41520J-4240D01*
G01*
X4323310D01*
Y2335860D01*
G75*
G03*
X4300040Y2318630I4000J-29730D01*
G01*
X4396580D01*
G75*
G03*
X4373310Y2335860I-27270J-12500D01*
G01*
Y2356130D01*
X4377570D01*
G75*
G02*
X4419090Y2318630I0J-41740D01*
G01*
X4619100D01*
G75*
G02*
X4614810Y2329120I10720J10500D01*
G01*
Y2329130D01*
Y2399130D01*
X4559810D01*
G75*
G02*
X4544810Y2414120I0J14990D01*
G01*
Y2414130D01*
Y2433630D01*
X3225770D01*
G75*
G02*
X3226810Y2424390I-40710J-9260D01*
G01*
Y2401130D01*
X3206810D01*
Y2416130D01*
G75*
G03*
X3201180Y2433630I-30000J0D01*
G01*
X3110440D01*
G75*
G03*
X3104810Y2416130I24370J-17500D01*
G01*
Y2401130D01*
X3084810D01*
Y2424390D01*
G75*
G02*
X3085850Y2433630I41750J-20D01*
G01*
X32700D01*
G37*
X4706810Y2329130D02*
G36*
X4706810Y2329130D02*
Y2329120D01*
G75*
G02*
X4702530Y2318630I-14990J0D01*
G01*
X4807010D01*
Y2388130D01*
Y2388140D01*
G75*
G02*
X4822010Y2403130I15000J0D01*
G01*
X4884010D01*
G75*
G02*
X4899010Y2388140I0J-14990D01*
G01*
Y2388130D01*
Y2318630D01*
X6730000D01*
Y2433630D01*
X5407810D01*
Y2402630D01*
Y2402620D01*
G75*
G02*
X5392810Y2387630I-15000J0D01*
G01*
X5293810D01*
G75*
G02*
X5278810Y2402620I0J14990D01*
G01*
Y2402630D01*
Y2433630D01*
X4705760D01*
G75*
G02*
X4706810Y2428140I-13960J-5510D01*
G01*
Y2428130D01*
Y2329130D01*
G37*
X32700Y2563130D02*
G36*
X32700Y2563130D02*
Y2433630D01*
X3085850D01*
G75*
G02*
X3126550Y2466130I40700J-9240D01*
G01*
X3130810D01*
Y2445860D01*
G75*
G03*
X3110440Y2433630I4000J-29740D01*
G01*
X3201180D01*
G75*
G03*
X3180810Y2445860I-24370J-17510D01*
G01*
Y2466130D01*
X3185070D01*
G75*
G02*
X3225770Y2433630I0J-41740D01*
G01*
X4544810D01*
Y2486630D01*
X4489810D01*
G75*
G02*
X4474810Y2501620I0J14990D01*
G01*
Y2501630D01*
Y2563130D01*
X32700D01*
G37*
X4566810D02*
G36*
X4566810Y2563130D02*
Y2528130D01*
X4621810D01*
G75*
G02*
X4636810Y2513140I0J-14990D01*
G01*
Y2513130D01*
Y2443130D01*
X4691810D01*
G75*
G02*
X4705760Y2433630I-10J-15000D01*
G01*
X5278810D01*
Y2464630D01*
Y2464640D01*
G75*
G02*
X5293810Y2479630I15000J0D01*
G01*
X5392810D01*
G75*
G02*
X5407810Y2464640I0J-14990D01*
G01*
Y2464630D01*
Y2433630D01*
X6730000D01*
Y2563130D01*
X5765100D01*
G75*
G02*
X5771810Y2550640I-8290J-12500D01*
G01*
Y2550630D01*
Y2451630D01*
Y2451620D01*
G75*
G02*
X5756810Y2436630I-15000J0D01*
G01*
X5694810D01*
G75*
G02*
X5679810Y2451620I0J14990D01*
G01*
Y2451630D01*
Y2550630D01*
Y2550640D01*
G75*
G02*
X5686510Y2563130I14990J0D01*
G01*
X5255310D01*
Y2532130D01*
Y2532120D01*
G75*
G02*
X5240310Y2517130I-15000J0D01*
G01*
X5141310D01*
G75*
G02*
X5126310Y2532120I0J14990D01*
G01*
Y2532130D01*
Y2563130D01*
X4566810D01*
G37*
X32700Y2606130D02*
G36*
X32700Y2606130D02*
Y2563130D01*
X4474810D01*
Y2600630D01*
Y2600640D01*
G75*
G02*
X4475850Y2606130I14990J0D01*
G01*
X778310D01*
Y2568630D01*
X498310D01*
Y2606130D01*
X32700D01*
G37*
X4566810Y2600630D02*
G36*
X4566810Y2600630D02*
Y2563130D01*
X5126310D01*
Y2594130D01*
Y2594140D01*
G75*
G02*
X5132300Y2606130I14990J0D01*
G01*
X4565760D01*
G75*
G02*
X4566810Y2600640I-13960J-5510D01*
G01*
Y2600630D01*
G37*
X5255310Y2594130D02*
G36*
X5255310Y2594130D02*
Y2563130D01*
X5686510D01*
G75*
G02*
X5694810Y2565630I8290J-12490D01*
G01*
X5756810D01*
G75*
G02*
X5765100Y2563130I0J-15010D01*
G01*
X6730000D01*
Y2606130D01*
X5870770D01*
G75*
G02*
X5830070Y2573630I-40700J9240D01*
G01*
X5825810D01*
Y2593900D01*
G75*
G03*
X5846180Y2606130I-4000J29740D01*
G01*
X5755440D01*
G75*
G03*
X5775810Y2593900I24370J17510D01*
G01*
Y2573630D01*
X5771550D01*
G75*
G02*
X5730850Y2606130I0J41740D01*
G01*
X5249310D01*
G75*
G02*
X5255310Y2594140I-9000J-12000D01*
G01*
Y2594130D01*
G37*
X32700Y2708630D02*
G36*
X32700Y2708630D02*
Y2606130D01*
X498310D01*
Y2708630D01*
X32700D01*
G37*
X778310D02*
G36*
X778310Y2708630D02*
Y2606130D01*
X4475850D01*
G75*
G02*
X4489810Y2615630I13950J-5490D01*
G01*
X4551810D01*
G75*
G02*
X4565760Y2606130I-10J-15000D01*
G01*
X5132300D01*
G75*
G02*
X5141310Y2609130I9000J-11990D01*
G01*
X5240310D01*
G75*
G02*
X5249310Y2606130I0J-15010D01*
G01*
X5730850D01*
G75*
G02*
X5729810Y2615370I40710J9260D01*
G01*
Y2638630D01*
X5749810D01*
Y2623630D01*
G75*
G03*
X5755440Y2606130I30000J0D01*
G01*
X5846180D01*
G75*
G03*
X5851810Y2623630I-24370J17500D01*
G01*
Y2638630D01*
X5871810D01*
Y2615370D01*
G75*
G02*
X5870770Y2606130I-41750J20D01*
G01*
X6730000D01*
Y2708630D01*
X5871810D01*
Y2688630D01*
X5851810D01*
Y2703630D01*
G75*
G03*
X5851390Y2708630I-30000J0D01*
G01*
X5750230D01*
G75*
G03*
X5749810Y2703630I29580J-5000D01*
G01*
Y2688630D01*
X5729810D01*
Y2708630D01*
X5250310D01*
Y2665130D01*
Y2665120D01*
G75*
G02*
X5235310Y2650130I-15000J0D01*
G01*
X5136310D01*
G75*
G02*
X5121310Y2665120I0J14990D01*
G01*
Y2665130D01*
Y2708630D01*
X778310D01*
G37*
X32700Y2748130D02*
G36*
X32700Y2748130D02*
Y2708630D01*
X498310D01*
Y2748130D01*
X32700D01*
G37*
X778310D02*
G36*
X778310Y2748130D02*
Y2708630D01*
X5121310D01*
Y2727130D01*
Y2727140D01*
G75*
G02*
X5126070Y2738100I15000J0D01*
G01*
G75*
G02*
X5121070Y2737630I-5050J26900D01*
G01*
X5108310D01*
Y2748130D01*
X5058310D01*
Y2737630D01*
X5045550D01*
G75*
G02*
X5024300Y2748130I-10J26740D01*
G01*
X778310D01*
G37*
X5135910Y2742130D02*
G36*
X5135910Y2742130D02*
X5136310D01*
X5235310D01*
G75*
G02*
X5250310Y2727140I0J-14990D01*
G01*
Y2727130D01*
Y2708630D01*
X5729810D01*
Y2711890D01*
G75*
G02*
X5750840Y2748130I41740J0D01*
G01*
X5142310D01*
G75*
G02*
X5135910Y2742130I-21260J16260D01*
G01*
G37*
X5775810Y2733360D02*
G36*
X5775810Y2733360D02*
G75*
G03*
X5750230Y2708630I4000J-29730D01*
G01*
X5851390D01*
G75*
G03*
X5825810Y2733360I-29580J-5000D01*
G01*
Y2748130D01*
X5775810D01*
Y2733360D01*
G37*
X5871810Y2711890D02*
G36*
X5871810Y2711890D02*
Y2708630D01*
X6730000D01*
Y2748130D01*
X5850780D01*
G75*
G02*
X5871810Y2711890I-20710J-36240D01*
G01*
G37*
X32700Y2886130D02*
G36*
X32700Y2886130D02*
Y2748130D01*
X498310D01*
Y2848630D01*
X778310D01*
Y2748130D01*
X5024300D01*
G75*
G02*
X5019430Y2758630I21240J16230D01*
G01*
X5048420D01*
G75*
G03*
X5053810Y2757630I5370J13920D01*
G01*
X5058310D01*
Y2748130D01*
X5108310D01*
Y2757630D01*
X5112810D01*
G75*
G03*
X5118200Y2758630I20J14920D01*
G01*
X5147190D01*
G75*
G02*
X5142310Y2748130I-26130J5760D01*
G01*
X5750840D01*
G75*
G02*
X5771550Y2753630I20710J-36240D01*
G01*
X5775810D01*
Y2748130D01*
X5825810D01*
Y2753630D01*
X5830070D01*
G75*
G02*
X5850780Y2748130I0J-41740D01*
G01*
X6730000D01*
Y2886130D01*
X5904310D01*
Y2808630D01*
G75*
G02*
Y2808620I-52090J0D01*
G01*
G75*
G02*
X5874310Y2778630I-30000J0D01*
G01*
X5792310D01*
G75*
G02*
X5762310Y2808620I0J29990D01*
G01*
G75*
G02*
Y2808630I52090J10D01*
G01*
Y2886130D01*
X5215840D01*
G75*
G02*
X5224310Y2872640I-6540J-13510D01*
G01*
Y2872630D01*
Y2773630D01*
Y2773620D01*
G75*
G02*
X5209310Y2758630I-15000J0D01*
G01*
X5147310D01*
G75*
G02*
X5132310Y2773620I0J14990D01*
G01*
Y2773630D01*
Y2808630D01*
X5118200D01*
G75*
G03*
X5112810Y2809630I-5370J-13920D01*
G01*
X5108310D01*
Y2812630D01*
X5058310D01*
Y2809630D01*
X5053810D01*
G75*
G03*
X5048420Y2808630I-20J-14920D01*
G01*
X5019430D01*
G75*
G02*
X5024120Y2818890I26200J-5780D01*
G01*
G75*
G02*
X5021310Y2827610I12130J8720D01*
G01*
G75*
G02*
Y2827620I20460J10D01*
G01*
Y2827630D01*
Y2886130D01*
X3955770D01*
G75*
G02*
X3915070Y2853630I-40700J9240D01*
G01*
X3910810D01*
Y2873900D01*
G75*
G03*
X3931180Y2886130I-4000J29740D01*
G01*
X3840440D01*
G75*
G03*
X3860810Y2873900I24370J17510D01*
G01*
Y2853630D01*
X3856550D01*
G75*
G02*
X3815850Y2886130I0J41740D01*
G01*
X32700D01*
G37*
Y3001130D02*
G36*
X32700Y3001130D02*
Y2886130D01*
X3815850D01*
G75*
G02*
X3814810Y2895370I40710J9260D01*
G01*
Y2918630D01*
X3834810D01*
Y2903630D01*
G75*
G03*
X3840440Y2886130I30000J0D01*
G01*
X3931180D01*
G75*
G03*
X3936810Y2903630I-24370J17500D01*
G01*
Y2918630D01*
X3956810D01*
Y2895370D01*
G75*
G02*
X3955770Y2886130I-41750J20D01*
G01*
X5021310D01*
Y2889630D01*
Y2889640D01*
G75*
G02*
X5033420Y2904350I14990J0D01*
G01*
G75*
G02*
X5029430Y2913630I22000J14960D01*
G01*
X5058420D01*
G75*
G03*
X5063810Y2912630I5370J13920D01*
G01*
X5068310D01*
Y2904630D01*
X5118310D01*
Y2912630D01*
X5122810D01*
G75*
G03*
X5128200Y2913630I20J14920D01*
G01*
X5157190D01*
G75*
G02*
X5147550Y2898310I-26070J5710D01*
G01*
G75*
G02*
X5150310Y2889640I-12300J-8690D01*
G01*
Y2889630D01*
Y2887630D01*
X5209310D01*
G75*
G02*
X5215840Y2886130I-10J-15000D01*
G01*
X5762310D01*
Y2894360D01*
G75*
G02*
X5755310Y2892630I-7000J13290D01*
G01*
X5656310D01*
G75*
G02*
X5641310Y2907620I0J14990D01*
G01*
Y2907630D01*
Y2969630D01*
Y2969640D01*
G75*
G02*
X5656310Y2984630I15000J0D01*
G01*
X5658820D01*
G75*
G02*
X5651310Y2997620I7480J12990D01*
G01*
Y2997630D01*
Y3001130D01*
X5289310D01*
Y2936630D01*
Y2936620D01*
G75*
G02*
X5274310Y2921630I-15000J0D01*
G01*
X5212310D01*
G75*
G02*
X5197310Y2936620I0J14990D01*
G01*
Y2936630D01*
Y3001130D01*
X5155310D01*
Y2987630D01*
Y2987620D01*
G75*
G02*
Y2987600I-12590J-10D01*
G01*
G75*
G02*
X5150320Y2976450I-14950J0D01*
G01*
G75*
G02*
X5157190Y2963630I-19270J-18580D01*
G01*
X5128200D01*
G75*
G03*
X5122810Y2964630I-5370J-13920D01*
G01*
X5118310D01*
Y2972630D01*
X5068310D01*
Y2964630D01*
X5063810D01*
G75*
G03*
X5058420Y2963630I-20J-14920D01*
G01*
X5029430D01*
G75*
G02*
X5034430Y2974300I26010J-5680D01*
G01*
G75*
G02*
X5026310Y2987620I6860J13320D01*
G01*
Y2987630D01*
Y3001130D01*
X3955770D01*
G75*
G02*
X3956810Y2991890I-40710J-9260D01*
G01*
Y2968630D01*
X3936810D01*
Y2983630D01*
G75*
G03*
X3931180Y3001130I-30000J0D01*
G01*
X3840440D01*
G75*
G03*
X3834810Y2983630I24370J-17500D01*
G01*
Y2968630D01*
X3814810D01*
Y2991890D01*
G75*
G02*
X3815850Y3001130I41750J-20D01*
G01*
X1448680D01*
G75*
G02*
X1424310Y2988630I-24360J17490D01*
G01*
X1342310D01*
G75*
G02*
X1317940Y3001130I-10J29990D01*
G01*
X32700D01*
G37*
X5765310Y2982630D02*
G36*
X5765310Y2982630D02*
X5762800D01*
G75*
G02*
X5770310Y2969640I-7480J-12990D01*
G01*
Y2969630D01*
Y2949020D01*
G75*
G02*
X5792310Y2958630I22020J-20420D01*
G01*
X5874310D01*
G75*
G02*
X5904310Y2928640I0J-29990D01*
G01*
G75*
G02*
Y2928630I-52090J0D01*
G01*
Y2886130D01*
X6730000D01*
Y3001130D01*
X5780310D01*
Y2997630D01*
Y2997620D01*
G75*
G02*
X5765310Y2982630I-15000J0D01*
G01*
G37*
X32700Y3078630D02*
G36*
X32700Y3078630D02*
Y3001130D01*
X1317940D01*
G75*
G02*
X1312310Y3018620I24360J17490D01*
G01*
G75*
G02*
Y3018630I52090J10D01*
G01*
Y3078630D01*
X32700D01*
G37*
X1454310D02*
G36*
X1454310Y3078630D02*
Y3018630D01*
G75*
G02*
Y3018620I-52090J0D01*
G01*
G75*
G02*
X1448680Y3001130I-29990J0D01*
G01*
X3815850D01*
G75*
G02*
X3856550Y3033630I40700J-9240D01*
G01*
X3860810D01*
Y3013360D01*
G75*
G03*
X3840440Y3001130I4000J-29740D01*
G01*
X3931180D01*
G75*
G03*
X3910810Y3013360I-24370J-17510D01*
G01*
Y3033630D01*
X3915070D01*
G75*
G02*
X3955770Y3001130I0J-41740D01*
G01*
X5026310D01*
Y3049630D01*
Y3049640D01*
G75*
G02*
X5041310Y3064630I15000J0D01*
G01*
X5140310D01*
G75*
G02*
X5155310Y3049640I0J-14990D01*
G01*
Y3049630D01*
Y3001130D01*
X5197310D01*
Y3035630D01*
Y3035640D01*
G75*
G02*
X5212310Y3050630I15000J0D01*
G01*
X5274310D01*
G75*
G02*
X5289310Y3035640I0J-14990D01*
G01*
Y3035630D01*
Y3001130D01*
X5651310D01*
Y3059630D01*
Y3059640D01*
G75*
G02*
X5666310Y3074630I15000J0D01*
G01*
X5765310D01*
G75*
G02*
X5780310Y3059640I0J-14990D01*
G01*
Y3059630D01*
Y3001130D01*
X6730000D01*
Y3078630D01*
X3222120D01*
G75*
G02*
X3190070Y3063630I-32050J26740D01*
G01*
X3185810D01*
Y3078630D01*
X3135810D01*
Y3063630D01*
X3131550D01*
G75*
G02*
X3099500Y3078630I0J41740D01*
G01*
X1454310D01*
G37*
X32700Y3211130D02*
G36*
X32700Y3211130D02*
Y3078630D01*
X1312310D01*
Y3138630D01*
G75*
G02*
Y3138640I52090J10D01*
G01*
G75*
G02*
X1342310Y3168630I30000J0D01*
G01*
X1424310D01*
G75*
G02*
X1454310Y3138640I0J-29990D01*
G01*
G75*
G02*
Y3138630I-52090J0D01*
G01*
Y3078630D01*
X3099500D01*
G75*
G02*
X3089810Y3105370I32050J26740D01*
G01*
Y3128630D01*
X3109810D01*
Y3113630D01*
G75*
G03*
X3135810Y3083900I30000J0D01*
G01*
Y3078630D01*
X3185810D01*
Y3083900D01*
G75*
G03*
X3211810Y3113630I-4000J29730D01*
G01*
Y3128630D01*
X3231810D01*
Y3105370D01*
G75*
G02*
X3222120Y3078630I-41740J0D01*
G01*
X6730000D01*
Y3211130D01*
X5951810D01*
Y3166630D01*
Y3166620D01*
G75*
G02*
X5936810Y3151630I-15000J0D01*
G01*
X5874810D01*
G75*
G02*
X5859810Y3166620I0J14990D01*
G01*
Y3166630D01*
Y3211130D01*
X5762810D01*
Y3185130D01*
Y3185120D01*
G75*
G02*
X5747810Y3170130I-15000J0D01*
G01*
X5648810D01*
G75*
G02*
X5633810Y3185120I0J14990D01*
G01*
Y3185130D01*
Y3211130D01*
X5107810D01*
Y3187630D01*
Y3187620D01*
G75*
G02*
X5106860Y3182380I-14990J10D01*
G01*
G75*
G02*
X5107810Y3177140I-14040J-5250D01*
G01*
Y3177130D01*
Y3115130D01*
Y3115120D01*
G75*
G02*
X5092810Y3100130I-15000J0D01*
G01*
X4993810D01*
G75*
G02*
X4978810Y3115120I0J14990D01*
G01*
Y3115130D01*
Y3177130D01*
Y3177140D01*
G75*
G02*
X4979760Y3182380I14990J-10D01*
G01*
G75*
G02*
X4978810Y3187620I14040J5250D01*
G01*
Y3187630D01*
Y3211130D01*
X3230770D01*
G75*
G02*
X3231810Y3201890I-40710J-9260D01*
G01*
Y3178630D01*
X3211810D01*
Y3193630D01*
G75*
G03*
X3206180Y3211130I-30000J0D01*
G01*
X3115440D01*
G75*
G03*
X3109810Y3193630I24370J-17500D01*
G01*
Y3178630D01*
X3089810D01*
Y3201890D01*
G75*
G02*
X3090850Y3211130I41750J-20D01*
G01*
X1158000D01*
G75*
G02*
X1010620I-73690J33260D01*
G01*
X32700D01*
G37*
Y3244390D02*
G36*
X32700Y3244390D02*
Y3211130D01*
X1010620D01*
G75*
G02*
X1003460Y3244390I73690J33260D01*
G01*
X32700D01*
G37*
X1165160D02*
G36*
X1165160Y3244390D02*
G75*
G02*
X1158000Y3211130I-80850J0D01*
G01*
X3090850D01*
G75*
G02*
X3131550Y3243630I40700J-9240D01*
G01*
X3135810D01*
Y3223360D01*
G75*
G03*
X3115440Y3211130I4000J-29740D01*
G01*
X3206180D01*
G75*
G03*
X3185810Y3223360I-24370J-17510D01*
G01*
Y3243630D01*
X3190070D01*
G75*
G02*
X3230770Y3211130I0J-41740D01*
G01*
X4978810D01*
Y3244390D01*
X1165160D01*
G37*
X5107810D02*
G36*
X5107810Y3244390D02*
Y3211130D01*
X5633810D01*
Y3244390D01*
X5107810D01*
G37*
X5762810D02*
G36*
X5762810Y3244390D02*
Y3211130D01*
X5859810D01*
Y3244390D01*
X5762810D01*
G37*
X5951810D02*
G36*
X5951810Y3244390D02*
Y3211130D01*
X6730000D01*
Y3244390D01*
X5951810D01*
G37*
X32700Y3351130D02*
G36*
X32700Y3351130D02*
Y3244390D01*
X1003460D01*
G75*
G02*
X1165160I80850J0D01*
G01*
X4978810D01*
Y3249630D01*
Y3249640D01*
G75*
G02*
X4993810Y3264630I15000J0D01*
G01*
X5092810D01*
G75*
G02*
X5107810Y3249640I0J-14990D01*
G01*
Y3249630D01*
Y3244390D01*
X5633810D01*
Y3247130D01*
Y3247140D01*
G75*
G02*
X5648810Y3262130I15000J0D01*
G01*
X5747810D01*
G75*
G02*
X5762810Y3247140I0J-14990D01*
G01*
Y3247130D01*
Y3244390D01*
X5859810D01*
Y3265630D01*
Y3265640D01*
G75*
G02*
X5874810Y3280630I15000J0D01*
G01*
X5936810D01*
G75*
G02*
X5951810Y3265640I0J-14990D01*
G01*
Y3265630D01*
Y3244390D01*
X6730000D01*
Y3351130D01*
X5820030D01*
G75*
G02*
X5809310Y3346630I-10710J10490D01*
G01*
X5747310D01*
G75*
G02*
X5736600Y3351130I10J15010D01*
G01*
X5654310D01*
Y3334130D01*
Y3334120D01*
G75*
G02*
X5639310Y3319130I-15000J0D01*
G01*
X5577310D01*
G75*
G02*
X5562310Y3334120I0J14990D01*
G01*
Y3334130D01*
Y3351130D01*
X5524500D01*
G75*
G02*
X5511810Y3344130I-12680J7990D01*
G01*
X5449810D01*
G75*
G02*
X5437120Y3351130I0J15010D01*
G01*
X5026810D01*
Y3341630D01*
Y3341620D01*
G75*
G02*
X5011810Y3326630I-15000J0D01*
G01*
X4949810D01*
G75*
G02*
X4934810Y3341620I0J14990D01*
G01*
Y3341630D01*
Y3351130D01*
X4004320D01*
G75*
G02*
X4004310I0J24910D01*
G01*
X3922310D01*
G75*
G02*
X3922300I0J24910D01*
G01*
X3764270D01*
X3760010D01*
X3710010D01*
X3705750D01*
X2084310D01*
Y3291130D01*
G75*
G02*
Y3291120I-52090J0D01*
G01*
G75*
G02*
X2054310Y3261130I-30000J0D01*
G01*
X1972310D01*
G75*
G02*
X1942310Y3291120I0J29990D01*
G01*
G75*
G02*
Y3291130I52090J10D01*
G01*
Y3351130D01*
X32700D01*
G37*
Y3476130D02*
G36*
X32700Y3476130D02*
Y3351130D01*
X1942310D01*
Y3411130D01*
G75*
G02*
Y3411140I52090J10D01*
G01*
G75*
G02*
X1972310Y3441130I30000J0D01*
G01*
X2054310D01*
G75*
G02*
X2084310Y3411140I0J-29990D01*
G01*
G75*
G02*
Y3411130I-52090J0D01*
G01*
Y3351130D01*
X3705750D01*
G75*
G02*
X3664010Y3392870I0J41740D01*
G01*
Y3416130D01*
X3684010D01*
Y3401130D01*
G75*
G03*
X3710010Y3371400I30000J0D01*
G01*
Y3351130D01*
X3760010D01*
Y3371400D01*
G75*
G03*
X3786010Y3401130I-4000J29730D01*
G01*
Y3416130D01*
X3806010D01*
Y3392870D01*
G75*
G02*
X3764270Y3351130I-41740J0D01*
G01*
X3922300D01*
G75*
G02*
X3892310Y3381120I0J29990D01*
G01*
G75*
G02*
Y3381130I52090J10D01*
G01*
Y3476130D01*
X3806010D01*
Y3466130D01*
X3786010D01*
Y3476130D01*
X3684010D01*
Y3466130D01*
X3664010D01*
Y3476130D01*
X3233270D01*
G75*
G02*
X3192570Y3443630I-40700J9240D01*
G01*
X3188310D01*
Y3463900D01*
G75*
G03*
X3208680Y3476130I-4000J29740D01*
G01*
X3117940D01*
G75*
G03*
X3138310Y3463900I24370J17510D01*
G01*
Y3443630D01*
X3134050D01*
G75*
G02*
X3093350Y3476130I0J41740D01*
G01*
X32700D01*
G37*
X4034310D02*
G36*
X4034310Y3476130D02*
Y3381130D01*
G75*
G02*
Y3381120I-52090J0D01*
G01*
G75*
G02*
X4004320Y3351130I-29990J0D01*
G01*
X4934810D01*
Y3440630D01*
Y3440640D01*
G75*
G02*
X4949810Y3455630I15000J0D01*
G01*
X5011810D01*
G75*
G02*
X5026810Y3440640I0J-14990D01*
G01*
Y3440630D01*
Y3351130D01*
X5437120D01*
G75*
G02*
X5434810Y3359120I12690J8000D01*
G01*
Y3359130D01*
Y3458130D01*
Y3458140D01*
G75*
G02*
X5449810Y3473130I15000J0D01*
G01*
X5511810D01*
G75*
G02*
X5526810Y3458140I0J-14990D01*
G01*
Y3458130D01*
Y3359130D01*
Y3359120D01*
G75*
G02*
X5524500Y3351130I-14990J10D01*
G01*
X5562310D01*
Y3433130D01*
Y3433140D01*
G75*
G02*
X5577310Y3448130I15000J0D01*
G01*
X5639310D01*
G75*
G02*
X5654310Y3433140I0J-14990D01*
G01*
Y3433130D01*
Y3351130D01*
X5736600D01*
G75*
G02*
X5732310Y3361620I10720J10500D01*
G01*
Y3361630D01*
Y3460630D01*
Y3460640D01*
G75*
G02*
X5747310Y3475630I15000J0D01*
G01*
X5799810D01*
Y3476130D01*
X5351810D01*
Y3396630D01*
Y3396620D01*
G75*
G02*
X5336810Y3381630I-15000J0D01*
G01*
X5274810D01*
G75*
G02*
X5259810Y3396620I0J14990D01*
G01*
Y3396630D01*
Y3476130D01*
X4034310D01*
G37*
X5824310Y3361630D02*
G36*
X5824310Y3361630D02*
Y3361620D01*
G75*
G02*
X5820030Y3351130I-14990J0D01*
G01*
X6730000D01*
Y3476130D01*
X5891810D01*
Y3469130D01*
Y3469120D01*
G75*
G02*
X5876810Y3454130I-15000J0D01*
G01*
X5824310D01*
Y3361630D01*
G37*
X32700Y3561130D02*
G36*
X32700Y3561130D02*
Y3476130D01*
X3093350D01*
G75*
G02*
X3092310Y3485370I40710J9260D01*
G01*
Y3508630D01*
X3112310D01*
Y3493630D01*
G75*
G03*
X3117940Y3476130I30000J0D01*
G01*
X3208680D01*
G75*
G03*
X3214310Y3493630I-24370J17500D01*
G01*
Y3508630D01*
X3234310D01*
Y3485370D01*
G75*
G02*
X3233270Y3476130I-41750J20D01*
G01*
X3664010D01*
Y3489390D01*
G75*
G02*
X3705750Y3531130I41740J0D01*
G01*
X3710010D01*
Y3510860D01*
G75*
G03*
X3684010Y3481130I4000J-29730D01*
G01*
Y3476130D01*
X3786010D01*
Y3481130D01*
G75*
G03*
X3760010Y3510860I-30000J0D01*
G01*
Y3531130D01*
X3764270D01*
G75*
G02*
X3806010Y3489390I0J-41740D01*
G01*
Y3476130D01*
X3892310D01*
Y3501130D01*
G75*
G02*
Y3501140I52090J10D01*
G01*
G75*
G02*
X3922310Y3531130I30000J0D01*
G01*
X4004310D01*
G75*
G02*
X4034310Y3501140I0J-29990D01*
G01*
G75*
G02*
Y3501130I-52090J0D01*
G01*
Y3476130D01*
X5259810D01*
Y3495630D01*
Y3495640D01*
G75*
G02*
X5274810Y3510630I15000J0D01*
G01*
X5336810D01*
G75*
G02*
X5351810Y3495640I0J-14990D01*
G01*
Y3495630D01*
Y3476130D01*
X5799810D01*
Y3561130D01*
X3234310D01*
Y3558630D01*
X3214310D01*
Y3561130D01*
X3112310D01*
Y3558630D01*
X3092310D01*
Y3561130D01*
X685770D01*
G75*
G02*
X645070Y3528630I-40700J9240D01*
G01*
X640810D01*
Y3548900D01*
G75*
G03*
X661180Y3561130I-4000J29740D01*
G01*
X570440D01*
G75*
G03*
X590810Y3548900I24370J17510D01*
G01*
Y3528630D01*
X586550D01*
G75*
G02*
X545850Y3561130I0J41740D01*
G01*
X32700D01*
G37*
X5891810D02*
G36*
X5891810Y3561130D02*
Y3476130D01*
X6730000D01*
Y3561130D01*
X5891810D01*
G37*
X32700Y3613630D02*
G36*
X32700Y3613630D02*
Y3561130D01*
X545850D01*
G75*
G02*
X544810Y3570370I40710J9260D01*
G01*
Y3593630D01*
X564810D01*
Y3578630D01*
G75*
G03*
X570440Y3561130I30000J0D01*
G01*
X661180D01*
G75*
G03*
X666810Y3578630I-24370J17500D01*
G01*
Y3593630D01*
X686810D01*
Y3570370D01*
G75*
G02*
X685770Y3561130I-41750J20D01*
G01*
X3092310D01*
Y3581890D01*
G75*
G02*
X3106940Y3613630I41740J0D01*
G01*
X1880770D01*
G75*
G02*
X1840070Y3581130I-40700J9240D01*
G01*
X1835810D01*
Y3601400D01*
G75*
G03*
X1856180Y3613630I-4000J29740D01*
G01*
X1765440D01*
G75*
G03*
X1785810Y3601400I24370J17510D01*
G01*
Y3581130D01*
X1781550D01*
G75*
G02*
X1740850Y3613630I0J41740D01*
G01*
X32700D01*
G37*
X3112310Y3573630D02*
G36*
X3112310Y3573630D02*
Y3561130D01*
X3214310D01*
Y3573630D01*
G75*
G03*
X3188310Y3603360I-30000J0D01*
G01*
Y3613630D01*
X3138310D01*
Y3603360D01*
G75*
G03*
X3112310Y3573630I4000J-29730D01*
G01*
G37*
X3234310Y3581890D02*
G36*
X3234310Y3581890D02*
Y3561130D01*
X5799810D01*
Y3568130D01*
Y3568140D01*
G75*
G02*
X5814810Y3583130I15000J0D01*
G01*
X5876810D01*
G75*
G02*
X5891810Y3568140I0J-14990D01*
G01*
Y3568130D01*
Y3561130D01*
X6730000D01*
Y3613630D01*
X3219680D01*
G75*
G02*
X3234310Y3581890I-27110J-31740D01*
G01*
G37*
X32700Y3676130D02*
G36*
X32700Y3676130D02*
Y3613630D01*
X1740850D01*
G75*
G02*
X1739810Y3622870I40710J9260D01*
G01*
Y3646130D01*
X1759810D01*
Y3631130D01*
G75*
G03*
X1765440Y3613630I30000J0D01*
G01*
X1856180D01*
G75*
G03*
X1861810Y3631130I-24370J17500D01*
G01*
Y3646130D01*
X1881810D01*
Y3622870D01*
G75*
G02*
X1880770Y3613630I-41750J20D01*
G01*
X3106940D01*
G75*
G02*
X3134050Y3623630I27110J-31740D01*
G01*
X3138310D01*
Y3613630D01*
X3188310D01*
Y3623630D01*
X3192570D01*
G75*
G02*
X3219680Y3613630I0J-41740D01*
G01*
X6730000D01*
Y3676130D01*
X1111160D01*
G75*
G02*
X1057460I-26850J76250D01*
G01*
X685770D01*
G75*
G02*
X686810Y3666890I-40710J-9260D01*
G01*
Y3643630D01*
X666810D01*
Y3658630D01*
G75*
G03*
X661180Y3676130I-30000J0D01*
G01*
X570440D01*
G75*
G03*
X564810Y3658630I24370J-17500D01*
G01*
Y3643630D01*
X544810D01*
Y3666890D01*
G75*
G02*
X545850Y3676130I41750J-20D01*
G01*
X32700D01*
G37*
Y3728630D02*
G36*
X32700Y3728630D02*
Y3676130D01*
X545850D01*
G75*
G02*
X586550Y3708630I40700J-9240D01*
G01*
X590810D01*
Y3688360D01*
G75*
G03*
X570440Y3676130I4000J-29740D01*
G01*
X661180D01*
G75*
G03*
X640810Y3688360I-24370J-17510D01*
G01*
Y3708630D01*
X645070D01*
G75*
G02*
X685770Y3676130I0J-41740D01*
G01*
X1057460D01*
G75*
G02*
X1007030Y3728630I26850J76260D01*
G01*
X32700D01*
G37*
X1161590D02*
G36*
X1161590Y3728630D02*
G75*
G02*
X1111160Y3676130I-77280J23760D01*
G01*
X6730000D01*
Y3728630D01*
X1880770D01*
G75*
G02*
X1881810Y3719390I-40710J-9260D01*
G01*
Y3696130D01*
X1861810D01*
Y3711130D01*
G75*
G03*
X1856180Y3728630I-30000J0D01*
G01*
X1765440D01*
G75*
G03*
X1759810Y3711130I24370J-17500D01*
G01*
Y3696130D01*
X1739810D01*
Y3719390D01*
G75*
G02*
X1740850Y3728630I41750J-20D01*
G01*
X1161590D01*
G37*
X32700Y4086130D02*
G36*
X32700Y4086130D02*
Y3728630D01*
X1007030D01*
G75*
G02*
X1003460Y3752390I77280J23760D01*
G01*
G75*
G02*
X1165160I80850J0D01*
G01*
G75*
G02*
X1161590Y3728630I-80850J0D01*
G01*
X1740850D01*
G75*
G02*
X1781550Y3761130I40700J-9240D01*
G01*
X1785810D01*
Y3740860D01*
G75*
G03*
X1765440Y3728630I4000J-29740D01*
G01*
X1856180D01*
G75*
G03*
X1835810Y3740860I-24370J-17510D01*
G01*
Y3761130D01*
X1840070D01*
G75*
G02*
X1880770Y3728630I0J-41740D01*
G01*
X6730000D01*
Y4086130D01*
X5729310D01*
Y3993880D01*
Y3993870D01*
G75*
G02*
X5714310Y3978880I-15000J0D01*
G01*
X5652310D01*
G75*
G02*
X5637310Y3993870I0J14990D01*
G01*
Y3993880D01*
Y4086130D01*
X4018800D01*
G75*
G02*
X4036810Y4058640I-11980J-27500D01*
G01*
G75*
G02*
Y4058630I-52090J0D01*
G01*
Y3938630D01*
G75*
G02*
Y3938620I-52090J0D01*
G01*
G75*
G02*
X4006810Y3908630I-30000J0D01*
G01*
X3924810D01*
G75*
G02*
X3894810Y3938620I0J29990D01*
G01*
G75*
G02*
Y3938630I52090J10D01*
G01*
Y4058630D01*
G75*
G02*
Y4058640I52090J10D01*
G01*
G75*
G02*
X3912820Y4086130I29990J-10D01*
G01*
X3807010D01*
Y4082870D01*
G75*
G02*
X3765270Y4041130I-41740J0D01*
G01*
X3761010D01*
Y4061400D01*
G75*
G03*
X3786590Y4086130I-4000J29730D01*
G01*
X3685430D01*
G75*
G03*
X3711010Y4061400I29580J5000D01*
G01*
Y4041130D01*
X3706750D01*
G75*
G02*
X3665010Y4082870I0J41740D01*
G01*
Y4086130D01*
X2623270D01*
G75*
G02*
X2582570Y4053630I-40700J9240D01*
G01*
X2578310D01*
Y4073900D01*
G75*
G03*
X2598680Y4086130I-4000J29740D01*
G01*
X2507940D01*
G75*
G03*
X2528310Y4073900I24370J17510D01*
G01*
Y4053630D01*
X2524050D01*
G75*
G02*
X2483350Y4086130I0J41740D01*
G01*
X32700D01*
G37*
Y4201130D02*
G36*
X32700Y4201130D02*
Y4086130D01*
X2483350D01*
G75*
G02*
X2482310Y4095370I40710J9260D01*
G01*
Y4118630D01*
X2502310D01*
Y4103630D01*
G75*
G03*
X2507940Y4086130I30000J0D01*
G01*
X2598680D01*
G75*
G03*
X2604310Y4103630I-24370J17500D01*
G01*
Y4118630D01*
X2624310D01*
Y4095370D01*
G75*
G02*
X2623270Y4086130I-41750J20D01*
G01*
X3665010D01*
Y4106130D01*
X3685010D01*
Y4091130D01*
G75*
G03*
X3685430Y4086130I30000J0D01*
G01*
X3786590D01*
G75*
G03*
X3787010Y4091130I-29580J5000D01*
G01*
Y4106130D01*
X3807010D01*
Y4086130D01*
X3912820D01*
G75*
G02*
X3924810Y4088630I11990J-27480D01*
G01*
X4006810D01*
G75*
G02*
X4018800Y4086130I0J-29980D01*
G01*
X5637310D01*
Y4092880D01*
Y4092890D01*
G75*
G02*
X5652310Y4107880I15000J0D01*
G01*
X5714310D01*
G75*
G02*
X5729310Y4092890I0J-14990D01*
G01*
Y4092880D01*
Y4086130D01*
X6730000D01*
Y4201130D01*
X3800900D01*
G75*
G02*
X3807010Y4179390I-35630J-21740D01*
G01*
Y4156130D01*
X3787010D01*
Y4171130D01*
G75*
G03*
X3761010Y4200860I-30000J0D01*
G01*
Y4201130D01*
X3711010D01*
Y4200860D01*
G75*
G03*
X3685010Y4171130I4000J-29730D01*
G01*
Y4156130D01*
X3665010D01*
Y4179390D01*
G75*
G02*
X3671120Y4201130I41740J0D01*
G01*
X2623270D01*
G75*
G02*
X2624310Y4191890I-40710J-9260D01*
G01*
Y4168630D01*
X2604310D01*
Y4183630D01*
G75*
G03*
X2598680Y4201130I-30000J0D01*
G01*
X2507940D01*
G75*
G03*
X2502310Y4183630I24370J-17500D01*
G01*
Y4168630D01*
X2482310D01*
Y4191890D01*
G75*
G02*
X2483350Y4201130I41750J-20D01*
G01*
X1868310D01*
Y4200130D01*
G75*
G02*
Y4200120I-52090J0D01*
G01*
G75*
G02*
X1838310Y4170130I-30000J0D01*
G01*
X1718310D01*
G75*
G02*
X1688310Y4200120I0J29990D01*
G01*
G75*
G02*
Y4200130I52090J10D01*
G01*
Y4201130D01*
X32700D01*
G37*
Y4241130D02*
G36*
X32700Y4241130D02*
Y4201130D01*
X1688310D01*
Y4241130D01*
X32700D01*
G37*
X1868310D02*
G36*
X1868310Y4241130D02*
Y4201130D01*
X2483350D01*
G75*
G02*
X2524050Y4233630I40700J-9240D01*
G01*
X2528310D01*
Y4213360D01*
G75*
G03*
X2507940Y4201130I4000J-29740D01*
G01*
X2598680D01*
G75*
G03*
X2578310Y4213360I-24370J-17510D01*
G01*
Y4233630D01*
X2582570D01*
G75*
G02*
X2623270Y4201130I0J-41740D01*
G01*
X3671120D01*
G75*
G02*
X3706750Y4221130I35630J-21740D01*
G01*
X3711010D01*
Y4201130D01*
X3761010D01*
Y4221130D01*
X3765270D01*
G75*
G02*
X3800900Y4201130I0J-41740D01*
G01*
X6730000D01*
Y4241130D01*
X1868310D01*
G37*
X32700Y4371130D02*
G36*
X32700Y4371130D02*
Y4241130D01*
X1688310D01*
Y4282130D01*
G75*
G02*
Y4282140I52090J10D01*
G01*
G75*
G02*
X1718310Y4312130I30000J0D01*
G01*
X1838310D01*
G75*
G02*
X1868310Y4282140I0J-29990D01*
G01*
G75*
G02*
Y4282130I-52090J0D01*
G01*
Y4241130D01*
X6730000D01*
Y4371130D01*
X5385310D01*
Y4340130D01*
Y4340120D01*
G75*
G02*
X5370310Y4325130I-15000J0D01*
G01*
X5271310D01*
G75*
G02*
X5256310Y4340120I0J14990D01*
G01*
Y4340130D01*
Y4371130D01*
X3312040D01*
Y4328190D01*
X3119640D01*
Y4371130D01*
X32700D01*
G37*
Y4424390D02*
G36*
X32700Y4424390D02*
Y4371130D01*
X3119640D01*
Y4424390D01*
X32700D01*
G37*
X3312040D02*
G36*
X3312040Y4424390D02*
Y4371130D01*
X5256310D01*
Y4402130D01*
Y4402140D01*
G75*
G02*
X5271310Y4417130I15000J0D01*
G01*
X5370310D01*
G75*
G02*
X5385310Y4402140I0J-14990D01*
G01*
Y4402130D01*
Y4371130D01*
X6730000D01*
Y4424390D01*
X5851970D01*
G75*
G02*
X5814070Y4400130I-37900J17480D01*
G01*
X5790810D01*
Y4420130D01*
X5805810D01*
G75*
G03*
X5821220Y4424390I0J30000D01*
G01*
X5710400D01*
G75*
G03*
X5725810Y4420130I15410J25740D01*
G01*
X5740810D01*
Y4400130D01*
X5717550D01*
G75*
G02*
X5679650Y4424390I0J41740D01*
G01*
X3312040D01*
G37*
X32700Y4519130D02*
G36*
X32700Y4519130D02*
Y4424390D01*
X3119640D01*
Y4519130D01*
X32700D01*
G37*
X3312040D02*
G36*
X3312040Y4519130D02*
Y4424390D01*
X5679650D01*
G75*
G02*
X5675810Y4441870I37900J17490D01*
G01*
Y4446130D01*
X5696080D01*
G75*
G03*
X5710400Y4424390I29730J4000D01*
G01*
X5821220D01*
G75*
G03*
X5835540Y4446130I-15410J25740D01*
G01*
X5855810D01*
Y4441870D01*
G75*
G02*
X5851970Y4424390I-41740J10D01*
G01*
X6730000D01*
Y4519130D01*
X5851370D01*
G75*
G02*
X5855810Y4500390I-37300J-18730D01*
G01*
Y4496130D01*
X5835540D01*
G75*
G03*
X5818880Y4519130I-29730J-4000D01*
G01*
X5712740D01*
G75*
G03*
X5696080Y4496130I13070J-27000D01*
G01*
X5675810D01*
Y4500390D01*
G75*
G02*
X5680250Y4519130I41740J10D01*
G01*
X3312040D01*
G37*
X32700Y4661130D02*
G36*
X32700Y4661130D02*
Y4519130D01*
X3119640D01*
Y4520590D01*
X3312040D01*
Y4519130D01*
X5680250D01*
G75*
G02*
X5717550Y4542130I37300J-18740D01*
G01*
X5740810D01*
Y4522130D01*
X5725810D01*
G75*
G03*
X5712740Y4519130I0J-29990D01*
G01*
X5818880D01*
G75*
G03*
X5805810Y4522130I-13070J-26990D01*
G01*
X5790810D01*
Y4542130D01*
X5814070D01*
G75*
G02*
X5851370Y4519130I0J-41740D01*
G01*
X6730000D01*
Y4661130D01*
X1425770D01*
G75*
G02*
X1385070Y4628630I-40700J9240D01*
G01*
X1380810D01*
Y4648900D01*
G75*
G03*
X1401180Y4661130I-4000J29740D01*
G01*
X1310440D01*
G75*
G03*
X1330810Y4648900I24370J17510D01*
G01*
Y4628630D01*
X1326550D01*
G75*
G02*
X1285850Y4661130I0J41740D01*
G01*
X32700D01*
G37*
Y4776130D02*
G36*
X32700Y4776130D02*
Y4661130D01*
X1285850D01*
G75*
G02*
X1284810Y4670370I40710J9260D01*
G01*
Y4693630D01*
X1304810D01*
Y4678630D01*
G75*
G03*
X1310440Y4661130I30000J0D01*
G01*
X1401180D01*
G75*
G03*
X1406810Y4678630I-24370J17500D01*
G01*
Y4693630D01*
X1426810D01*
Y4670370D01*
G75*
G02*
X1425770Y4661130I-41750J20D01*
G01*
X6730000D01*
Y4776130D01*
X3282210D01*
G75*
G02*
X3288310Y4748630I-58910J-27490D01*
G01*
G75*
G02*
X3163310Y4723630I-65000J0D01*
G01*
G75*
G02*
X3038310Y4748630I-60000J25000D01*
G01*
G75*
G02*
X2908310I-65000J0D01*
G01*
G75*
G02*
X2914410Y4776130I65000J10D01*
G01*
X2897210D01*
G75*
G02*
X2903310Y4748630I-58900J-27490D01*
G01*
G75*
G02*
X2773310I-65000J0D01*
G01*
G75*
G02*
X2779410Y4776130I65000J10D01*
G01*
X2765250D01*
G75*
G02*
X2771350Y4748630I-58900J-27490D01*
G01*
G75*
G02*
X2641350I-65000J0D01*
G01*
G75*
G02*
X2647450Y4776130I65000J10D01*
G01*
X2632210D01*
G75*
G02*
X2638310Y4748630I-58900J-27490D01*
G01*
G75*
G02*
X2508310I-65000J0D01*
G01*
G75*
G02*
X2514410Y4776130I65000J10D01*
G01*
X1425770D01*
G75*
G02*
X1426810Y4766890I-40710J-9260D01*
G01*
Y4743630D01*
X1406810D01*
Y4758630D01*
G75*
G03*
X1401180Y4776130I-30000J0D01*
G01*
X1310440D01*
G75*
G03*
X1304810Y4758630I24370J-17500D01*
G01*
Y4743630D01*
X1284810D01*
Y4766890D01*
G75*
G02*
X1285850Y4776130I41750J-20D01*
G01*
X32700D01*
G37*
X3032210D02*
G36*
X3032210Y4776130D02*
G75*
G02*
X3038310Y4748630I-58910J-27490D01*
G01*
G75*
G02*
X3044410Y4776130I65010J10D01*
G01*
X3032210D01*
G37*
X3162210D02*
G36*
X3162210Y4776130D02*
G75*
G02*
X3163310Y4773630I-58900J-27410D01*
G01*
G75*
G02*
X3164410Y4776130I60000J-24910D01*
G01*
X3162210D01*
G37*
X32700Y4903630D02*
G36*
X32700Y4903630D02*
Y4776130D01*
X1285850D01*
G75*
G02*
X1326550Y4808630I40700J-9240D01*
G01*
X1330810D01*
Y4788360D01*
G75*
G03*
X1310440Y4776130I4000J-29740D01*
G01*
X1401180D01*
G75*
G03*
X1380810Y4788360I-24370J-17510D01*
G01*
Y4808630D01*
X1385070D01*
G75*
G02*
X1425770Y4776130I0J-41740D01*
G01*
X2514410D01*
G75*
G02*
X2632210I58900J-27500D01*
G01*
X2647450D01*
G75*
G02*
X2765250I58900J-27500D01*
G01*
X2779410D01*
G75*
G02*
X2897210I58900J-27500D01*
G01*
X2914410D01*
G75*
G02*
X3032210I58900J-27500D01*
G01*
X3044410D01*
G75*
G02*
X3162210I58900J-27500D01*
G01*
X3164410D01*
G75*
G02*
X3282210I58900J-27500D01*
G01*
X6730000D01*
Y4903630D01*
X3288120D01*
G75*
G02*
X3288310Y4898630I-64860J-4970D01*
G01*
G75*
G02*
X3163310Y4873630I-65000J0D01*
G01*
G75*
G02*
X3038310Y4898630I-60000J25000D01*
G01*
G75*
G02*
X2908310I-65000J0D01*
G01*
G75*
G02*
X2908500Y4903630I65010J30D01*
G01*
X2903120D01*
G75*
G02*
X2903310Y4898630I-64820J-4970D01*
G01*
G75*
G02*
X2773310I-65000J0D01*
G01*
G75*
G02*
X2773500Y4903630I65010J30D01*
G01*
X2768120D01*
G75*
G02*
X2768310Y4898630I-64820J-4970D01*
G01*
G75*
G02*
X2638310I-65000J0D01*
G01*
G75*
G02*
X2638500Y4903630I65010J30D01*
G01*
X2638310D01*
G75*
G02*
X2508310I-65000J0D01*
G01*
X32700D01*
G37*
X3038120D02*
G36*
X3038120Y4903630D02*
G75*
G02*
X3038310Y4898630I-64860J-4970D01*
G01*
G75*
G02*
X3038500Y4903630I65050J30D01*
G01*
X3038120D01*
G37*
X32700Y5043630D02*
G36*
X32700Y5043630D02*
Y4903630D01*
X2508310D01*
G75*
G02*
X2638310I65000J0D01*
G01*
X2638500D01*
G75*
G02*
X2768120I64810J-5000D01*
G01*
X2773500D01*
G75*
G02*
X2903120I64810J-5000D01*
G01*
X2908500D01*
G75*
G02*
X3038120I64810J-5000D01*
G01*
X3038500D01*
G75*
G02*
X3163310Y4923630I64810J-5000D01*
G01*
G75*
G02*
X3288120Y4903630I60000J-25000D01*
G01*
X6730000D01*
Y5043630D01*
X3288120D01*
G75*
G02*
X3163310Y5023630I-64810J5000D01*
G01*
G75*
G02*
X3038500Y5043630I-60000J25000D01*
G01*
X3038120D01*
G75*
G02*
X2908500I-64810J5000D01*
G01*
X2908310D01*
G75*
G02*
X2778310I-65000J0D01*
G01*
X2771350D01*
G75*
G02*
X2641350I-65000J0D01*
G01*
X2638310D01*
G75*
G02*
X2508310I-65000J0D01*
G01*
X32700D01*
G37*
Y5183630D02*
G36*
X32700Y5183630D02*
Y5043630D01*
X2508310D01*
G75*
G02*
X2638310I65000J0D01*
G01*
X2641350D01*
G75*
G02*
X2771350I65000J0D01*
G01*
X2778310D01*
G75*
G02*
X2908310I65000J0D01*
G01*
X2908500D01*
G75*
G02*
X2908310Y5048630I64820J4970D01*
G01*
G75*
G02*
X3038310I65000J0D01*
G01*
G75*
G02*
X3163310Y5073630I65000J0D01*
G01*
G75*
G02*
X3288310Y5048630I60000J-25000D01*
G01*
G75*
G02*
X3288120Y5043630I-65050J-30D01*
G01*
X6730000D01*
Y5183630D01*
X2771350D01*
G75*
G02*
X2641350I-65000J0D01*
G01*
X2638310D01*
G75*
G02*
X2508310I-65000J0D01*
G01*
X1409850D01*
G75*
G02*
X1306770I-51540J75010D01*
G01*
X32700D01*
G37*
X3038310Y5048630D02*
G36*
X3038310Y5048630D02*
G75*
G02*
X3038120Y5043630I-65050J-30D01*
G01*
X3038500D01*
G75*
G02*
X3038310Y5048630I64860J4970D01*
G01*
G37*
X32700Y5226130D02*
G36*
X32700Y5226130D02*
Y5183630D01*
X1306770D01*
G75*
G02*
X1273310Y5226130I51540J75000D01*
G01*
X32700D01*
G37*
X1443310D02*
G36*
X1443310Y5226130D02*
G75*
G02*
X1409850Y5183630I-85000J32500D01*
G01*
X2508310D01*
G75*
G02*
X2524130Y5226130I65000J0D01*
G01*
X1443310D01*
G37*
X2622490D02*
G36*
X2622490Y5226130D02*
G75*
G02*
X2638310Y5183630I-49180J-42500D01*
G01*
X2641350D01*
G75*
G02*
X2657170Y5226130I65000J0D01*
G01*
X2622490D01*
G37*
X2755530D02*
G36*
X2755530Y5226130D02*
G75*
G02*
X2771350Y5183630I-49180J-42500D01*
G01*
X6730000D01*
Y5226130D01*
X5503270D01*
G75*
G02*
X5462570Y5193630I-40700J9240D01*
G01*
X5458310D01*
Y5213900D01*
G75*
G03*
X5478680Y5226130I-4000J29740D01*
G01*
X5387940D01*
G75*
G03*
X5408310Y5213900I24370J17510D01*
G01*
Y5193630D01*
X5404050D01*
G75*
G02*
X5363350Y5226130I0J41740D01*
G01*
X2755530D01*
G37*
X32700Y5323630D02*
G36*
X32700Y5323630D02*
Y5226130D01*
X1273310D01*
G75*
G02*
X1267310Y5258630I85000J32500D01*
G01*
G75*
G02*
X1294620Y5323630I91000J0D01*
G01*
X32700D01*
G37*
X1449310Y5258630D02*
G36*
X1449310Y5258630D02*
G75*
G02*
X1443310Y5226130I-91000J0D01*
G01*
X2524130D01*
G75*
G02*
X2622490I49180J-42500D01*
G01*
X2657170D01*
G75*
G02*
X2755530I49180J-42500D01*
G01*
X5363350D01*
G75*
G02*
X5362310Y5235370I40710J9260D01*
G01*
Y5258630D01*
X5382310D01*
Y5243630D01*
G75*
G03*
X5387940Y5226130I30000J0D01*
G01*
X5478680D01*
G75*
G03*
X5484310Y5243630I-24370J17500D01*
G01*
Y5258630D01*
X5504310D01*
Y5235370D01*
G75*
G02*
X5503270Y5226130I-41750J20D01*
G01*
X6730000D01*
Y5323630D01*
X5504310D01*
Y5308630D01*
X5484310D01*
Y5323630D01*
X5382310D01*
Y5308630D01*
X5362310D01*
Y5323630D01*
X4385810D01*
Y5315130D01*
G75*
G02*
Y5315120I-52090J0D01*
G01*
G75*
G02*
X4355810Y5285130I-30000J0D01*
G01*
X4235810D01*
G75*
G02*
X4205810Y5315120I0J29990D01*
G01*
G75*
G02*
Y5315130I52090J10D01*
G01*
Y5323630D01*
X2771350D01*
G75*
G02*
X2641350I-65000J0D01*
G01*
X2638310D01*
G75*
G02*
X2508310I-65000J0D01*
G01*
X1422000D01*
G75*
G02*
X1449310Y5258630I-63690J-65000D01*
G01*
G37*
X32700Y5433630D02*
G36*
X32700Y5433630D02*
Y5323630D01*
X1294620D01*
G75*
G02*
X1333320Y5346130I63680J-65000D01*
G01*
G75*
G02*
X1270810Y5408640I25000J87510D01*
G01*
G75*
G02*
X1092310Y5433630I-87500J24990D01*
G01*
X32700D01*
G37*
X1383300Y5346130D02*
G36*
X1383300Y5346130D02*
G75*
G02*
X1422000Y5323630I-24980J-87500D01*
G01*
X2508310D01*
G75*
G02*
X2638310I65000J0D01*
G01*
X2641350D01*
G75*
G02*
X2771350I65000J0D01*
G01*
X4205810D01*
Y5397130D01*
G75*
G02*
Y5397140I52090J10D01*
G01*
G75*
G02*
X4235810Y5427130I30000J0D01*
G01*
X4355810D01*
G75*
G02*
X4385810Y5397140I0J-29990D01*
G01*
G75*
G02*
Y5397130I-52090J0D01*
G01*
Y5323630D01*
X5362310D01*
Y5331890D01*
G75*
G02*
X5404050Y5373630I41740J0D01*
G01*
X5408310D01*
Y5353360D01*
G75*
G03*
X5382310Y5323630I4000J-29730D01*
G01*
X5484310D01*
G75*
G03*
X5458310Y5353360I-30000J0D01*
G01*
Y5373630D01*
X5462570D01*
G75*
G02*
X5504310Y5331890I0J-41740D01*
G01*
Y5323630D01*
X6730000D01*
Y5433630D01*
X1624310D01*
G75*
G02*
X1445810Y5408640I-91000J0D01*
G01*
G75*
G02*
X1383300Y5346130I-87510J25000D01*
G01*
G37*
X32700Y5591130D02*
G36*
X32700Y5591130D02*
Y5433630D01*
X1092310D01*
G75*
G02*
X1158320Y5521130I91000J0D01*
G01*
G75*
G02*
X1094010Y5591130I24990J87500D01*
G01*
X32700D01*
G37*
X1622610D02*
G36*
X1622610Y5591130D02*
G75*
G02*
X1558300Y5521130I-89300J17500D01*
G01*
G75*
G02*
X1624310Y5433630I-24990J-87500D01*
G01*
X6730000D01*
Y5591130D01*
X6444010D01*
G75*
G02*
X6429310Y5579130I-14690J2990D01*
G01*
X6367310D01*
G75*
G02*
X6352610Y5591130I0J15010D01*
G01*
X5940770D01*
G75*
G02*
X5926810Y5581630I-13950J5490D01*
G01*
X5864810D01*
G75*
G02*
X5850860Y5591130I10J15000D01*
G01*
X3594310D01*
Y5566630D01*
Y5566620D01*
G75*
G02*
X3579310Y5551630I-15000J0D01*
G01*
X3517310D01*
G75*
G02*
X3502310Y5566620I0J14990D01*
G01*
Y5566630D01*
Y5591130D01*
X3489310D01*
Y5541630D01*
Y5541620D01*
G75*
G02*
X3474310Y5526630I-15000J0D01*
G01*
X3412310D01*
G75*
G02*
X3397310Y5541620I0J14990D01*
G01*
Y5541630D01*
Y5591130D01*
X1622610D01*
G37*
X32700Y5791130D02*
G36*
X32700Y5791130D02*
Y5591130D01*
X1094010D01*
G75*
G02*
X1092310Y5608630I89310J17510D01*
G01*
G75*
G02*
X1270810Y5633620I91000J0D01*
G01*
G75*
G02*
X1445810I87500J-25000D01*
G01*
G75*
G02*
X1624310Y5608630I87500J-24990D01*
G01*
G75*
G02*
X1622610Y5591130I-91010J10D01*
G01*
X3397310D01*
Y5640630D01*
Y5640640D01*
G75*
G02*
X3412310Y5655630I15000J0D01*
G01*
X3474310D01*
G75*
G02*
X3489310Y5640640I0J-14990D01*
G01*
Y5640630D01*
Y5591130D01*
X3502310D01*
Y5665630D01*
Y5665640D01*
G75*
G02*
X3517310Y5680630I15000J0D01*
G01*
X3579310D01*
G75*
G02*
X3594310Y5665640I0J-14990D01*
G01*
Y5665630D01*
Y5591130D01*
X5850860D01*
G75*
G02*
X5849810Y5596620I13960J5510D01*
G01*
Y5596630D01*
Y5695630D01*
Y5695640D01*
G75*
G02*
X5864810Y5710630I15000J0D01*
G01*
X5926810D01*
G75*
G02*
X5941810Y5695640I0J-14990D01*
G01*
Y5695630D01*
Y5596630D01*
Y5596620D01*
G75*
G02*
X5940770Y5591130I-14990J0D01*
G01*
X6352610D01*
G75*
G02*
X6352310Y5594120I14700J2990D01*
G01*
Y5594130D01*
Y5693130D01*
Y5693140D01*
G75*
G02*
X6367310Y5708130I15000J0D01*
G01*
X6429310D01*
G75*
G02*
X6444310Y5693140I0J-14990D01*
G01*
Y5693130D01*
Y5594130D01*
Y5594120D01*
G75*
G02*
X6444010Y5591130I-15000J-10D01*
G01*
X6730000D01*
Y5791130D01*
X5806810D01*
Y5739130D01*
Y5739120D01*
G75*
G02*
X5791810Y5724130I-15000J0D01*
G01*
X5729810D01*
G75*
G02*
X5714810Y5739120I0J14990D01*
G01*
Y5739130D01*
Y5791130D01*
X5434310D01*
Y5726630D01*
Y5726620D01*
G75*
G02*
X5419310Y5711630I-15000J0D01*
G01*
X5357310D01*
G75*
G02*
X5342310Y5726620I0J14990D01*
G01*
Y5726630D01*
Y5791130D01*
X4491810D01*
Y5741630D01*
Y5741620D01*
G75*
G02*
X4476810Y5726630I-15000J0D01*
G01*
X4414810D01*
G75*
G02*
X4399810Y5741620I0J14990D01*
G01*
Y5741630D01*
Y5791130D01*
X32700D01*
G37*
Y5870630D02*
G36*
X32700Y5870630D02*
Y5791130D01*
X4399810D01*
Y5840630D01*
Y5840640D01*
G75*
G02*
X4414810Y5855630I15000J0D01*
G01*
X4476810D01*
G75*
G02*
X4491810Y5840640I0J-14990D01*
G01*
Y5840630D01*
Y5791130D01*
X5342310D01*
Y5825630D01*
Y5825640D01*
G75*
G02*
X5357310Y5840630I15000J0D01*
G01*
X5419310D01*
G75*
G02*
X5434310Y5825640I0J-14990D01*
G01*
Y5825630D01*
Y5791130D01*
X5714810D01*
Y5838130D01*
Y5838140D01*
G75*
G02*
X5729810Y5853130I15000J0D01*
G01*
X5743750D01*
X5726250Y5870630D01*
X3823870D01*
G75*
G02*
X3786570Y5847630I-37300J18740D01*
G01*
X3763310D01*
Y5867630D01*
X3778310D01*
G75*
G03*
X3791380Y5870630I0J29990D01*
G01*
X3685240D01*
G75*
G03*
X3698310Y5867630I13070J26990D01*
G01*
X3713310D01*
Y5847630D01*
X3690050D01*
G75*
G02*
X3652750Y5870630I0J41740D01*
G01*
X32700D01*
G37*
X5806810Y5838130D02*
G36*
X5806810Y5838130D02*
Y5791130D01*
X6730000D01*
Y5870630D01*
X5941810D01*
Y5864130D01*
Y5864120D01*
G75*
G02*
X5926810Y5849130I-15000J0D01*
G01*
X5864810D01*
G75*
G02*
X5849810Y5864120I0J14990D01*
G01*
Y5864130D01*
Y5870630D01*
X5811530D01*
X5793890Y5852990D01*
G75*
G02*
X5806810Y5838140I-2070J-14850D01*
G01*
Y5838130D01*
G37*
X32700Y5966630D02*
G36*
X32700Y5966630D02*
Y5870630D01*
X3652750D01*
G75*
G02*
X3648310Y5889370I37300J18730D01*
G01*
Y5893630D01*
X3668580D01*
G75*
G03*
X3685240Y5870630I29730J4000D01*
G01*
X3791380D01*
G75*
G03*
X3808040Y5893630I-13070J27000D01*
G01*
X3828310D01*
Y5889370D01*
G75*
G02*
X3823870Y5870630I-41740J-10D01*
G01*
X5726250D01*
X5688280Y5908600D01*
G75*
G02*
X5683890Y5919210I10620J10610D01*
G01*
G75*
G02*
X5688280Y5929820I15010J0D01*
G01*
X5725090Y5966630D01*
X3823870D01*
G75*
G02*
X3828310Y5947890I-37300J-18730D01*
G01*
Y5943630D01*
X3808040D01*
G75*
G03*
X3791380Y5966630I-29730J-4000D01*
G01*
X3685240D01*
G75*
G03*
X3668580Y5943630I13070J-27000D01*
G01*
X3648310D01*
Y5947890D01*
G75*
G02*
X3652750Y5966630I41740J10D01*
G01*
X32700D01*
G37*
X5823340Y5882440D02*
G36*
X5823340Y5882440D02*
X5811530Y5870630D01*
X5849810D01*
Y5963130D01*
Y5963140D01*
G75*
G02*
X5850220Y5966630I14990J10D01*
G01*
X5760370D01*
X5823340Y5903660D01*
G75*
G02*
X5827730Y5893050I-10620J-10610D01*
G01*
G75*
G02*
X5823340Y5882440I-15010J0D01*
G01*
G37*
X5941810Y5963130D02*
G36*
X5941810Y5963130D02*
Y5870630D01*
X6730000D01*
Y5966630D01*
X6412760D01*
G75*
G02*
X6381570Y5952630I-31190J27740D01*
G01*
X6358310D01*
Y5966630D01*
X6308310D01*
Y5952630D01*
X6285050D01*
G75*
G02*
X6253860Y5966630I0J41740D01*
G01*
X5941390D01*
G75*
G02*
X5941810Y5963140I-14590J-3530D01*
G01*
Y5963130D01*
G37*
X32700Y6071630D02*
G36*
X32700Y6071630D02*
Y5966630D01*
X3652750D01*
G75*
G02*
X3690050Y5989630I37300J-18740D01*
G01*
X3713310D01*
Y5969630D01*
X3698310D01*
G75*
G03*
X3685240Y5966630I0J-29990D01*
G01*
X3791380D01*
G75*
G03*
X3778310Y5969630I-13070J-26990D01*
G01*
X3763310D01*
Y5989630D01*
X3786570D01*
G75*
G02*
X3823870Y5966630I0J-41740D01*
G01*
X5725090D01*
X5732120Y5973660D01*
G75*
G02*
X5753340I10610J-10630D01*
G01*
X5760370Y5966630D01*
X5850220D01*
G75*
G02*
X5864810Y5978130I14580J-3490D01*
G01*
X5926810D01*
G75*
G02*
X5941390Y5966630I-10J-15000D01*
G01*
X6253860D01*
G75*
G02*
X6243310Y5994370I31190J27740D01*
G01*
Y5998630D01*
X6263580D01*
G75*
G03*
X6293310Y5972630I29730J4000D01*
G01*
X6308310D01*
Y5966630D01*
X6358310D01*
Y5972630D01*
X6373310D01*
G75*
G03*
X6403040Y5998630I0J30000D01*
G01*
X6423310D01*
Y5994370D01*
G75*
G02*
X6412760Y5966630I-41740J0D01*
G01*
X6730000D01*
Y6071630D01*
X6418870D01*
G75*
G02*
X6423310Y6052890I-37300J-18730D01*
G01*
Y6048630D01*
X6403040D01*
G75*
G03*
X6386380Y6071630I-29730J-4000D01*
G01*
X6280240D01*
G75*
G03*
X6263580Y6048630I13070J-27000D01*
G01*
X6243310D01*
Y6052890D01*
G75*
G02*
X6247750Y6071630I41740J10D01*
G01*
X32700D01*
G37*
Y6261130D02*
G36*
X32700Y6261130D02*
Y6071630D01*
X6247750D01*
G75*
G02*
X6285050Y6094630I37300J-18740D01*
G01*
X6308310D01*
Y6074630D01*
X6293310D01*
G75*
G03*
X6280240Y6071630I0J-29990D01*
G01*
X6386380D01*
G75*
G03*
X6373310Y6074630I-13070J-26990D01*
G01*
X6358310D01*
Y6094630D01*
X6381570D01*
G75*
G02*
X6418870Y6071630I0J-41740D01*
G01*
X6730000D01*
Y6261130D01*
X4706810D01*
Y6246630D01*
Y6246620D01*
G75*
G02*
X4691810Y6231630I-15000J0D01*
G01*
X4641810D01*
Y6159130D01*
Y6159120D01*
G75*
G02*
X4626810Y6144130I-15000J0D01*
G01*
X4564810D01*
G75*
G02*
X4549810Y6159120I0J14990D01*
G01*
Y6159130D01*
Y6258130D01*
Y6258140D01*
G75*
G02*
X4550110Y6261130I15000J10D01*
G01*
X4365770D01*
G75*
G02*
X4325070Y6228630I-40700J9240D01*
G01*
X4320810D01*
Y6248900D01*
G75*
G03*
X4341180Y6261130I-4000J29740D01*
G01*
X4250440D01*
G75*
G03*
X4270810Y6248900I24370J17510D01*
G01*
Y6228630D01*
X4266550D01*
G75*
G02*
X4225850Y6261130I0J41740D01*
G01*
X3864820D01*
G75*
G02*
X3852810Y6255130I-12000J8990D01*
G01*
X3753810D01*
G75*
G02*
X3741810Y6261130I0J15010D01*
G01*
X32700D01*
G37*
Y6301130D02*
G36*
X32700Y6301130D02*
Y6261130D01*
X3741810D01*
G75*
G02*
X3738810Y6270120I12000J9000D01*
G01*
Y6270130D01*
Y6301130D01*
X32700D01*
G37*
X3867810Y6270130D02*
G36*
X3867810Y6270130D02*
Y6270120D01*
G75*
G02*
X3864820Y6261130I-14990J-10D01*
G01*
X4225850D01*
G75*
G02*
X4224810Y6270370I40710J9260D01*
G01*
Y6293630D01*
X4244810D01*
Y6278630D01*
G75*
G03*
X4250440Y6261130I30000J0D01*
G01*
X4341180D01*
G75*
G03*
X4346810Y6278630I-24370J17500D01*
G01*
Y6293630D01*
X4366810D01*
Y6270370D01*
G75*
G02*
X4365770Y6261130I-41750J20D01*
G01*
X4550110D01*
G75*
G02*
X4564810Y6273130I14690J-2990D01*
G01*
X4614810D01*
Y6301130D01*
X3867810D01*
Y6270130D01*
G37*
X4706810Y6301130D02*
G36*
X4706810Y6301130D02*
Y6261130D01*
X6730000D01*
Y6301130D01*
X4706810D01*
G37*
X32700Y6364970D02*
G36*
X32700Y6364970D02*
Y6301130D01*
X3738810D01*
Y6332130D01*
Y6332140D01*
G75*
G02*
X3753810Y6347130I15000J0D01*
G01*
X3852810D01*
G75*
G02*
X3867810Y6332140I0J-14990D01*
G01*
Y6332130D01*
Y6301130D01*
X4614810D01*
Y6345630D01*
Y6345640D01*
G75*
G02*
X4629810Y6360630I15000J0D01*
G01*
X4691810D01*
G75*
G02*
X4706810Y6345640I0J-14990D01*
G01*
Y6345630D01*
Y6301130D01*
X6730000D01*
Y6364970D01*
X4566810D01*
Y6334130D01*
Y6334120D01*
G75*
G02*
X4551810Y6319130I-15000J0D01*
G01*
X4489810D01*
G75*
G02*
X4474810Y6334120I0J14990D01*
G01*
Y6334130D01*
Y6364970D01*
X4366810D01*
Y6343630D01*
X4346810D01*
Y6358630D01*
G75*
G03*
X4346130Y6364970I-30000J-10D01*
G01*
X4245490D01*
G75*
G03*
X4244810Y6358630I29320J-6350D01*
G01*
Y6343630D01*
X4224810D01*
Y6364970D01*
X1815260D01*
G75*
G02*
X1726350Y6308600I-113940J81410D01*
G01*
Y6328980D01*
G75*
G03*
X1789540Y6364970I-25000J117370D01*
G01*
X1613160D01*
G75*
G03*
X1676350Y6328980I88190J81380D01*
G01*
Y6308600D01*
G75*
G02*
X1587440Y6364970I25030J137780D01*
G01*
X32700D01*
G37*
Y6400630D02*
G36*
X32700Y6400630D02*
Y6364970D01*
X1587440D01*
G75*
G02*
X1569030Y6400630I113940J81410D01*
G01*
X32700D01*
G37*
X1590400D02*
G36*
X1590400Y6400630D02*
G75*
G03*
X1613160Y6364970I110950J45720D01*
G01*
X1789540D01*
G75*
G03*
X1812300Y6400630I-88190J81380D01*
G01*
X1590400D01*
G37*
X1833670D02*
G36*
X1833670Y6400630D02*
G75*
G02*
X1815260Y6364970I-132350J45750D01*
G01*
X4224810D01*
Y6366890D01*
G75*
G02*
X4241980Y6400630I41740J0D01*
G01*
X2781370D01*
G75*
G02*
X2744070Y6377630I-37300J18740D01*
G01*
X2720810D01*
Y6397630D01*
X2735810D01*
G75*
G03*
X2748880Y6400630I0J29990D01*
G01*
X2642740D01*
G75*
G03*
X2655810Y6397630I13070J26990D01*
G01*
X2670810D01*
Y6377630D01*
X2647550D01*
G75*
G02*
X2610250Y6400630I0J41740D01*
G01*
X1833670D01*
G37*
X4270810Y6388360D02*
G36*
X4270810Y6388360D02*
G75*
G03*
X4245490Y6364970I4000J-29730D01*
G01*
X4346130D01*
G75*
G03*
X4320810Y6388360I-29320J-6340D01*
G01*
Y6400630D01*
X4270810D01*
Y6388360D01*
G37*
X4366810Y6366890D02*
G36*
X4366810Y6366890D02*
Y6364970D01*
X4474810D01*
Y6400630D01*
X4349640D01*
G75*
G02*
X4366810Y6366890I-24570J-33740D01*
G01*
G37*
X4566810Y6400630D02*
G36*
X4566810Y6400630D02*
Y6364970D01*
X6730000D01*
Y6400630D01*
X4566810D01*
G37*
X32700Y6496630D02*
G36*
X32700Y6496630D02*
Y6400630D01*
X1569030D01*
G75*
G02*
X1563600Y6421350I132360J45760D01*
G01*
X1583980D01*
G75*
G03*
X1590400Y6400630I117380J25010D01*
G01*
X1812300D01*
G75*
G03*
X1818720Y6421350I-110960J45730D01*
G01*
X1839100D01*
G75*
G02*
X1833670Y6400630I-137790J25040D01*
G01*
X2610250D01*
G75*
G02*
X2605810Y6419370I37300J18730D01*
G01*
Y6423630D01*
X2626080D01*
G75*
G03*
X2642740Y6400630I29730J4000D01*
G01*
X2748880D01*
G75*
G03*
X2765540Y6423630I-13070J27000D01*
G01*
X2785810D01*
Y6419370D01*
G75*
G02*
X2781370Y6400630I-41740J-10D01*
G01*
X4241980D01*
G75*
G02*
X4266550Y6408630I24570J-33730D01*
G01*
X4270810D01*
Y6400630D01*
X4320810D01*
Y6408630D01*
X4325070D01*
G75*
G02*
X4349640Y6400630I0J-41730D01*
G01*
X4474810D01*
Y6433130D01*
Y6433140D01*
G75*
G02*
X4489810Y6448130I15000J0D01*
G01*
X4551810D01*
G75*
G02*
X4566810Y6433140I0J-14990D01*
G01*
Y6433130D01*
Y6400630D01*
X6730000D01*
Y6496630D01*
X5094310D01*
Y6424130D01*
Y6424120D01*
G75*
G02*
X5079310Y6409130I-15000J0D01*
G01*
X5017310D01*
G75*
G02*
X5002310Y6424120I0J14990D01*
G01*
Y6424130D01*
Y6496630D01*
X2781370D01*
G75*
G02*
X2785810Y6477890I-37300J-18730D01*
G01*
Y6473630D01*
X2765540D01*
G75*
G03*
X2748880Y6496630I-29730J-4000D01*
G01*
X2642740D01*
G75*
G03*
X2626080Y6473630I13070J-27000D01*
G01*
X2605810D01*
Y6477890D01*
G75*
G02*
X2610250Y6496630I41740J10D01*
G01*
X1832010D01*
G75*
G02*
X1839100Y6471350I-130700J-50290D01*
G01*
X1818720D01*
G75*
G03*
X1810310Y6496630I-117370J-25010D01*
G01*
X1592390D01*
G75*
G03*
X1583980Y6471350I108960J-50290D01*
G01*
X1563600D01*
G75*
G02*
X1570690Y6496630I137790J-25010D01*
G01*
X1056010D01*
G75*
G02*
X924690I-65660J70720D01*
G01*
X32700D01*
G37*
Y6567350D02*
G36*
X32700Y6567350D02*
Y6496630D01*
X924690D01*
G75*
G02*
X893850Y6567350I65660J70720D01*
G01*
X32700D01*
G37*
X1086850D02*
G36*
X1086850Y6567350D02*
G75*
G02*
X1056010Y6496630I-96500J0D01*
G01*
X1570690D01*
G75*
G02*
X1630940Y6567350I130690J-50310D01*
G01*
X1437520D01*
G75*
G02*
X1355180I-41170J92490D01*
G01*
X1086850D01*
G37*
X1676350Y6563720D02*
G36*
X1676350Y6563720D02*
G75*
G03*
X1592390Y6496630I25000J-117370D01*
G01*
X1810310D01*
G75*
G03*
X1726350Y6563720I-108960J-50280D01*
G01*
Y6567350D01*
X1676350D01*
Y6563720D01*
G37*
X1771760Y6567350D02*
G36*
X1771760Y6567350D02*
G75*
G02*
X1832010Y6496630I-70440J-121030D01*
G01*
X2610250D01*
G75*
G02*
X2647550Y6519630I37300J-18740D01*
G01*
X2670810D01*
Y6499630D01*
X2655810D01*
G75*
G03*
X2642740Y6496630I0J-29990D01*
G01*
X2748880D01*
G75*
G03*
X2735810Y6499630I-13070J-26990D01*
G01*
X2720810D01*
Y6519630D01*
X2744070D01*
G75*
G02*
X2781370Y6496630I0J-41740D01*
G01*
X5002310D01*
Y6523130D01*
Y6523140D01*
G75*
G02*
X5017310Y6538130I15000J0D01*
G01*
X5079310D01*
G75*
G02*
X5094310Y6523140I0J-14990D01*
G01*
Y6523130D01*
Y6496630D01*
X6730000D01*
Y6567350D01*
X3139310D01*
Y6564130D01*
Y6564120D01*
G75*
G02*
X3124310Y6549130I-15000J0D01*
G01*
X3062310D01*
G75*
G02*
X3047310Y6564120I0J14990D01*
G01*
Y6564130D01*
Y6567350D01*
X1771760D01*
G37*
X32700Y6762240D02*
G36*
X32700Y6762240D02*
Y6567350D01*
X893850D01*
G75*
G02*
X1086850I96500J0D01*
G01*
X1355180D01*
G75*
G02*
X1295100Y6659850I41170J92500D01*
G01*
G75*
G02*
X1497600I101250J0D01*
G01*
G75*
G02*
X1437520Y6567350I-101250J0D01*
G01*
X1630940D01*
G75*
G02*
X1676350Y6584100I70440J-121030D01*
G01*
Y6567350D01*
X1726350D01*
Y6584100D01*
G75*
G02*
X1771760Y6567350I-25030J-137780D01*
G01*
X3047310D01*
Y6663130D01*
Y6663140D01*
G75*
G02*
X3062310Y6678130I15000J0D01*
G01*
X3124310D01*
G75*
G02*
X3139310Y6663140I0J-14990D01*
G01*
Y6663130D01*
Y6567350D01*
X6730000D01*
Y6762240D01*
X2827810D01*
Y6753630D01*
Y6753620D01*
G75*
G02*
X2812810Y6738630I-15000J0D01*
G01*
X2713810D01*
G75*
G02*
X2698810Y6753620I0J14990D01*
G01*
Y6753630D01*
Y6762240D01*
X2371920D01*
G75*
G02*
X2198780I-86570J24610D01*
G01*
X1066630D01*
G75*
G02*
X1015350Y6728140I-76280J59100D01*
G01*
Y6749050D01*
G75*
G03*
X1038900Y6762240I-25040J72330D01*
G01*
X941800D01*
G75*
G03*
X965350Y6749050I48590J59140D01*
G01*
Y6728140D01*
G75*
G02*
X914070Y6762240I25000J93200D01*
G01*
X32700D01*
G37*
Y6880450D02*
G36*
X32700Y6880450D02*
Y6762240D01*
X914070D01*
G75*
G02*
X897140Y6796350I76270J59110D01*
G01*
X918050D01*
G75*
G03*
X941800Y6762240I72340J25050D01*
G01*
X1038900D01*
G75*
G03*
X1062650Y6796350I-48590J59160D01*
G01*
X1083560D01*
G75*
G02*
X1066630Y6762240I-93200J25000D01*
G01*
X2198780D01*
G75*
G02*
X2195350Y6786850I86570J24610D01*
G01*
G75*
G02*
X2375350I90000J0D01*
G01*
G75*
G02*
X2371920Y6762240I-90000J0D01*
G01*
X2698810D01*
Y6815630D01*
Y6815640D01*
G75*
G02*
X2713810Y6830630I15000J0D01*
G01*
X2812810D01*
G75*
G02*
X2827810Y6815640I0J-14990D01*
G01*
Y6815630D01*
Y6762240D01*
X6730000D01*
Y6880450D01*
X5800310D01*
Y6877630D01*
Y6877620D01*
G75*
G02*
X5785310Y6862630I-15000J0D01*
G01*
X5686310D01*
G75*
G02*
X5671310Y6877620I0J14990D01*
G01*
Y6877630D01*
Y6880450D01*
X5426810D01*
Y6864130D01*
Y6864120D01*
G75*
G02*
X5411810Y6849130I-15000J0D01*
G01*
X5349810D01*
G75*
G02*
X5334810Y6864120I0J14990D01*
G01*
Y6864130D01*
Y6880450D01*
X4999050D01*
X5010840Y6868660D01*
G75*
G02*
X5015230Y6858050I-10620J-10610D01*
G01*
G75*
G02*
X5010840Y6847440I-15010J0D01*
G01*
X4967000Y6803600D01*
G75*
G02*
X4945780I-10610J10630D01*
G01*
X4875780Y6873600D01*
G75*
G02*
X4871870Y6880450I10620J10600D01*
G01*
X2114920D01*
G75*
G02*
X1947780I-83570J33400D01*
G01*
X1066640D01*
G75*
G02*
X1083560Y6846350I-76290J-59100D01*
G01*
X1062650D01*
G75*
G03*
X1038920Y6880450I-72340J-25030D01*
G01*
X941780D01*
G75*
G03*
X918050Y6846350I48610J-59130D01*
G01*
X897140D01*
G75*
G02*
X914060Y6880450I93210J-25000D01*
G01*
X32700D01*
G37*
Y7040850D02*
G36*
X32700Y7040850D02*
Y6880450D01*
X914060D01*
G75*
G02*
X965350Y6914560I76280J-59090D01*
G01*
Y6893650D01*
G75*
G03*
X941780Y6880450I25040J-72350D01*
G01*
X1038920D01*
G75*
G03*
X1015350Y6893650I-48610J-59150D01*
G01*
Y6914560D01*
G75*
G02*
X1066640Y6880450I-24990J-93200D01*
G01*
X1947780D01*
G75*
G02*
X1941350Y6913850I83570J33410D01*
G01*
G75*
G02*
X2121350I90000J0D01*
G01*
G75*
G02*
X2114920Y6880450I-90000J10D01*
G01*
X4871870D01*
G75*
G02*
X4871390Y6884210I14540J3770D01*
G01*
G75*
G02*
X4875780Y6894820I15010J0D01*
G01*
X4919620Y6938660D01*
G75*
G02*
X4940840I10610J-10630D01*
G01*
X4999050Y6880450D01*
X5334810D01*
Y6963130D01*
Y6963140D01*
G75*
G02*
X5349810Y6978130I15000J0D01*
G01*
X5411810D01*
G75*
G02*
X5426810Y6963140I0J-14990D01*
G01*
Y6963130D01*
Y6880450D01*
X5671310D01*
Y6939630D01*
Y6939640D01*
G75*
G02*
X5686310Y6954630I15000J0D01*
G01*
X5785310D01*
G75*
G02*
X5800310Y6939640I0J-14990D01*
G01*
Y6939630D01*
Y6880450D01*
X6730000D01*
Y7040850D01*
X4939250D01*
X4899500Y7001100D01*
G75*
G02*
X4878280I-10610J10630D01*
G01*
X4838530Y7040850D01*
X3369310D01*
Y7021630D01*
Y7021620D01*
G75*
G02*
X3354310Y7006630I-15000J0D01*
G01*
X3292310D01*
G75*
G02*
X3277310Y7021620I0J14990D01*
G01*
Y7021630D01*
Y7040850D01*
X2822810D01*
Y6980130D01*
Y6980120D01*
G75*
G02*
X2807810Y6965130I-15000J0D01*
G01*
X2708810D01*
G75*
G02*
X2693810Y6980120I0J14990D01*
G01*
Y6980130D01*
Y7040850D01*
X2375350D01*
G75*
G02*
X2195350I-90000J0D01*
G01*
X32700D01*
G37*
Y7167850D02*
G36*
X32700Y7167850D02*
Y7040850D01*
X2195350D01*
G75*
G02*
X2375350I90000J0D01*
G01*
X2693810D01*
Y7042130D01*
Y7042140D01*
G75*
G02*
X2708810Y7057130I15000J0D01*
G01*
X2807810D01*
G75*
G02*
X2822810Y7042140I0J-14990D01*
G01*
Y7042130D01*
Y7040850D01*
X3277310D01*
Y7120630D01*
Y7120640D01*
G75*
G02*
X3292310Y7135630I15000J0D01*
G01*
X3354310D01*
G75*
G02*
X3369310Y7120640I0J-14990D01*
G01*
Y7120630D01*
Y7040850D01*
X4838530D01*
X4808280Y7071100D01*
G75*
G02*
X4803890Y7081710I10620J10610D01*
G01*
G75*
G02*
X4808280Y7092320I15010J0D01*
G01*
X4852120Y7136160D01*
G75*
G02*
X4873340I10610J-10630D01*
G01*
X4943340Y7066160D01*
G75*
G02*
X4947730Y7055550I-10620J-10610D01*
G01*
G75*
G02*
X4943340Y7044940I-15010J0D01*
G01*
X4939250Y7040850D01*
X6730000D01*
Y7167850D01*
X6187710D01*
G75*
G02*
X6152570Y7148630I-35140J22520D01*
G01*
X6148310D01*
Y7167850D01*
X6098310D01*
Y7148630D01*
X6094050D01*
G75*
G02*
X6058910Y7167850I0J41740D01*
G01*
X5785800D01*
G75*
G02*
X5790310Y7157140I-10490J-10720D01*
G01*
Y7157130D01*
Y7095130D01*
Y7095120D01*
G75*
G02*
X5775310Y7080130I-15000J0D01*
G01*
X5676310D01*
G75*
G02*
X5661310Y7095120I0J14990D01*
G01*
Y7095130D01*
Y7157130D01*
Y7157140D01*
G75*
G02*
X5665810Y7167850I14990J0D01*
G01*
X2121350D01*
G75*
G02*
X1941350I-90000J0D01*
G01*
X32700D01*
G37*
Y7294850D02*
G36*
X32700Y7294850D02*
Y7167850D01*
X1941350D01*
G75*
G02*
X2121350I90000J0D01*
G01*
X5665810D01*
G75*
G02*
X5676310Y7172130I10490J-10710D01*
G01*
X5775310D01*
G75*
G02*
X5785800Y7167850I0J-15010D01*
G01*
X6058910D01*
G75*
G02*
X6052310Y7190370I35140J22530D01*
G01*
Y7213630D01*
X6072310D01*
Y7198630D01*
G75*
G03*
X6098310Y7168900I30000J0D01*
G01*
Y7167850D01*
X6148310D01*
Y7168900D01*
G75*
G03*
X6174310Y7198630I-4000J29730D01*
G01*
Y7213630D01*
X6194310D01*
Y7190370D01*
G75*
G02*
X6187710Y7167850I-41740J10D01*
G01*
X6730000D01*
Y7294850D01*
X6193540D01*
G75*
G02*
X6194310Y7286890I-40980J-7980D01*
G01*
Y7263630D01*
X6174310D01*
Y7278630D01*
G75*
G03*
X6169550Y7294850I-30000J0D01*
G01*
X6077070D01*
G75*
G03*
X6072310Y7278630I25240J-16220D01*
G01*
Y7263630D01*
X6052310D01*
Y7286890D01*
G75*
G02*
X6053080Y7294850I41750J-20D01*
G01*
X4806810D01*
Y7294130D01*
Y7294120D01*
G75*
G02*
X4791810Y7279130I-15000J0D01*
G01*
X4729810D01*
G75*
G02*
X4714810Y7294120I0J14990D01*
G01*
Y7294130D01*
Y7294850D01*
X3555960D01*
G75*
G02*
X3529310Y7278630I-26640J13770D01*
G01*
X3447310D01*
G75*
G02*
X3420660Y7294850I-10J29990D01*
G01*
X3304310D01*
Y7284130D01*
Y7284120D01*
G75*
G02*
X3289310Y7269130I-15000J0D01*
G01*
X3227310D01*
G75*
G02*
X3212310Y7284120I0J14990D01*
G01*
Y7284130D01*
Y7294850D01*
X2715750D01*
X2707000Y7286100D01*
G75*
G02*
X2685780I-10610J10630D01*
G01*
X2677030Y7294850D01*
X2375350D01*
G75*
G02*
X2195350I-90000J0D01*
G01*
X32700D01*
G37*
Y7421850D02*
G36*
X32700Y7421850D02*
Y7294850D01*
X2195350D01*
G75*
G02*
X2375350I90000J0D01*
G01*
X2677030D01*
X2615780Y7356100D01*
G75*
G02*
X2611390Y7366710I10620J10610D01*
G01*
G75*
G02*
X2615780Y7377320I15010J0D01*
G01*
X2659620Y7421160D01*
G75*
G02*
X2660360Y7421850I10610J-10640D01*
G01*
X2121350D01*
G75*
G02*
X1941350I-90000J0D01*
G01*
X32700D01*
G37*
X2680100D02*
G36*
X2680100Y7421850D02*
G75*
G02*
X2680840Y7421160I-9870J-11330D01*
G01*
X2750840Y7351160D01*
G75*
G02*
X2755230Y7340550I-10620J-10610D01*
G01*
G75*
G02*
X2750840Y7329940I-15010J0D01*
G01*
X2715750Y7294850D01*
X3212310D01*
Y7383130D01*
Y7383140D01*
G75*
G02*
X3227310Y7398130I15000J0D01*
G01*
X3289310D01*
G75*
G02*
X3304310Y7383140I0J-14990D01*
G01*
Y7383130D01*
Y7294850D01*
X3420660D01*
G75*
G02*
X3417310Y7308620I26640J13770D01*
G01*
G75*
G02*
Y7308630I52090J10D01*
G01*
Y7421850D01*
X2680100D01*
G37*
X3559310D02*
G36*
X3559310Y7421850D02*
Y7308630D01*
G75*
G02*
Y7308620I-52090J0D01*
G01*
G75*
G02*
X3555960Y7294850I-29990J0D01*
G01*
X4714810D01*
Y7393130D01*
Y7393140D01*
G75*
G02*
X4729810Y7408130I15000J0D01*
G01*
X4791810D01*
G75*
G02*
X4806810Y7393140I0J-14990D01*
G01*
Y7393130D01*
Y7294850D01*
X6053080D01*
G75*
G02*
X6094050Y7328630I40970J-7960D01*
G01*
X6098310D01*
Y7308360D01*
G75*
G03*
X6077070Y7294850I4000J-29740D01*
G01*
X6169550D01*
G75*
G03*
X6148310Y7308360I-25240J-16230D01*
G01*
Y7328630D01*
X6152570D01*
G75*
G02*
X6193540Y7294850I0J-41740D01*
G01*
X6730000D01*
Y7421850D01*
X3559310D01*
G37*
X32700Y7582240D02*
G36*
X32700Y7582240D02*
Y7421850D01*
X1941350D01*
G75*
G02*
X2121350I90000J0D01*
G01*
X2660360D01*
G75*
G02*
X2680100I9870J-11320D01*
G01*
X3417310D01*
Y7428630D01*
G75*
G02*
Y7428640I52090J10D01*
G01*
G75*
G02*
X3447310Y7458630I30000J0D01*
G01*
X3529310D01*
G75*
G02*
X3559310Y7428640I0J-29990D01*
G01*
G75*
G02*
Y7428630I-52090J0D01*
G01*
Y7421850D01*
X6730000D01*
Y7582240D01*
X4971810D01*
Y7526630D01*
Y7526620D01*
G75*
G02*
X4956810Y7511630I-15000J0D01*
G01*
X4894810D01*
G75*
G02*
X4879810Y7526620I0J14990D01*
G01*
Y7526630D01*
Y7582240D01*
X2716980D01*
X2771950Y7527270D01*
G75*
G02*
X2776340Y7516660I-10620J-10610D01*
G01*
G75*
G02*
X2771950Y7506050I-15010J0D01*
G01*
X2728110Y7462210D01*
G75*
G02*
X2706890I-10610J10630D01*
G01*
X2636890Y7532210D01*
G75*
G02*
X2632500Y7542820I10620J10610D01*
G01*
G75*
G02*
X2636890Y7553430I15010J0D01*
G01*
X2665700Y7582240D01*
X2368930D01*
G75*
G02*
X2375350Y7548850I-83580J-33380D01*
G01*
G75*
G02*
X2195350I-90000J0D01*
G01*
G75*
G02*
X2201770Y7582240I90000J10D01*
G01*
X1066630D01*
G75*
G02*
X1015350Y7548140I-76280J59100D01*
G01*
Y7569050D01*
G75*
G03*
X1038900Y7582240I-25040J72330D01*
G01*
X941800D01*
G75*
G03*
X965350Y7569050I48590J59140D01*
G01*
Y7548140D01*
G75*
G02*
X914070Y7582240I25000J93200D01*
G01*
X32700D01*
G37*
Y7700450D02*
G36*
X32700Y7700450D02*
Y7582240D01*
X914070D01*
G75*
G02*
X897140Y7616350I76270J59110D01*
G01*
X918050D01*
G75*
G03*
X941800Y7582240I72340J25050D01*
G01*
X1038900D01*
G75*
G03*
X1062650Y7616350I-48590J59160D01*
G01*
X1083560D01*
G75*
G02*
X1066630Y7582240I-93200J25000D01*
G01*
X2201770D01*
G75*
G02*
X2368930I83580J-33390D01*
G01*
X2665700D01*
X2680730Y7597270D01*
G75*
G02*
X2701950I10610J-10630D01*
G01*
X2716980Y7582240D01*
X4879810D01*
Y7625630D01*
Y7625640D01*
G75*
G02*
X4894810Y7640630I15000J0D01*
G01*
X4956810D01*
G75*
G02*
X4971810Y7625640I0J-14990D01*
G01*
Y7625630D01*
Y7582240D01*
X6730000D01*
Y7700450D01*
X4806810D01*
Y7679130D01*
Y7679120D01*
G75*
G02*
X4791810Y7664130I-15000J0D01*
G01*
X4729810D01*
G75*
G02*
X4714810Y7679120I0J14990D01*
G01*
Y7679130D01*
Y7700450D01*
X3369310D01*
Y7673630D01*
G75*
G02*
Y7673620I-52090J0D01*
G01*
G75*
G02*
X3339310Y7643630I-30000J0D01*
G01*
X3257310D01*
G75*
G02*
X3227310Y7673620I0J29990D01*
G01*
G75*
G02*
Y7673630I52090J10D01*
G01*
Y7700450D01*
X2121350D01*
Y7585850D01*
X1941350D01*
Y7700450D01*
X1066640D01*
G75*
G02*
X1083560Y7666350I-76290J-59100D01*
G01*
X1062650D01*
G75*
G03*
X1038920Y7700450I-72340J-25030D01*
G01*
X941780D01*
G75*
G03*
X918050Y7666350I48610J-59130D01*
G01*
X897140D01*
G75*
G02*
X914060Y7700450I93210J-25000D01*
G01*
X32700D01*
G37*
Y7851130D02*
G36*
X32700Y7851130D02*
Y7700450D01*
X914060D01*
G75*
G02*
X965350Y7734560I76280J-59090D01*
G01*
Y7713650D01*
G75*
G03*
X941780Y7700450I25040J-72350D01*
G01*
X1038920D01*
G75*
G03*
X1015350Y7713650I-48610J-59150D01*
G01*
Y7734560D01*
G75*
G02*
X1066640Y7700450I-24990J-93200D01*
G01*
X1941350D01*
Y7765850D01*
X2121350D01*
Y7700450D01*
X3227310D01*
Y7793630D01*
G75*
G02*
Y7793640I52090J10D01*
G01*
G75*
G02*
X3257310Y7823630I30000J0D01*
G01*
X3339310D01*
G75*
G02*
X3369310Y7793640I0J-29990D01*
G01*
G75*
G02*
Y7793630I-52090J0D01*
G01*
Y7700450D01*
X4714810D01*
Y7778130D01*
Y7778140D01*
G75*
G02*
X4729810Y7793130I15000J0D01*
G01*
X4791810D01*
G75*
G02*
X4806810Y7778140I0J-14990D01*
G01*
Y7778130D01*
Y7700450D01*
X6730000D01*
Y7851130D01*
X4296810D01*
Y7779130D01*
Y7779120D01*
G75*
G02*
X4281810Y7764130I-15000J0D01*
G01*
X4219810D01*
G75*
G02*
X4204810Y7779120I0J14990D01*
G01*
Y7779130D01*
Y7851130D01*
X4034910D01*
G75*
G02*
X4035230Y7848050I-14700J-3080D01*
G01*
G75*
G02*
X4030840Y7837440I-15010J0D01*
G01*
X3987000Y7793600D01*
G75*
G02*
X3965780I-10610J10630D01*
G01*
X3908250Y7851130D01*
X2963970D01*
G75*
G02*
X2923270Y7818630I-40700J9240D01*
G01*
X2919010D01*
Y7838900D01*
G75*
G03*
X2939380Y7851130I-4000J29740D01*
G01*
X2848640D01*
G75*
G03*
X2869010Y7838900I24370J17510D01*
G01*
Y7818630D01*
X2864750D01*
G75*
G02*
X2824050Y7851130I0J41740D01*
G01*
X1485350D01*
G75*
G02*
X1497600Y7802850I-89000J-48280D01*
G01*
G75*
G02*
X1295100I-101250J0D01*
G01*
G75*
G02*
X1307350Y7851130I101250J0D01*
G01*
X1076120D01*
G75*
G02*
X904580I-85770J44220D01*
G01*
X32700D01*
G37*
Y7895350D02*
G36*
X32700Y7895350D02*
Y7851130D01*
X904580D01*
G75*
G02*
X893850Y7895350I85770J44220D01*
G01*
X32700D01*
G37*
X1086850D02*
G36*
X1086850Y7895350D02*
G75*
G02*
X1076120Y7851130I-96500J0D01*
G01*
X1307350D01*
G75*
G02*
X1355180Y7895350I89000J-48290D01*
G01*
X1086850D01*
G37*
X1437520D02*
G36*
X1437520Y7895350D02*
G75*
G02*
X1485350Y7851130I-41170J-92510D01*
G01*
X2824050D01*
G75*
G02*
X2823010Y7860370I40710J9260D01*
G01*
Y7883630D01*
X2843010D01*
Y7868630D01*
G75*
G03*
X2848640Y7851130I30000J0D01*
G01*
X2939380D01*
G75*
G03*
X2945010Y7868630I-24370J17500D01*
G01*
Y7883630D01*
X2965010D01*
Y7860370D01*
G75*
G02*
X2963970Y7851130I-41750J20D01*
G01*
X3908250D01*
X3895780Y7863600D01*
G75*
G02*
X3891390Y7874210I10620J10610D01*
G01*
G75*
G02*
X3895780Y7884820I15010J0D01*
G01*
X3906310Y7895350D01*
X1771760D01*
G75*
G02*
X1726350Y7878600I-70440J121030D01*
G01*
Y7895350D01*
X1676350D01*
Y7878600D01*
G75*
G02*
X1630940Y7895350I25030J137780D01*
G01*
X1437520D01*
G37*
X3994150D02*
G36*
X3994150Y7895350D02*
X4030840Y7858660D01*
G75*
G02*
X4034910Y7851130I-10620J-10610D01*
G01*
X4204810D01*
Y7878130D01*
Y7878140D01*
G75*
G02*
X4219810Y7893130I15000J0D01*
G01*
X4281810D01*
G75*
G02*
X4296810Y7878140I0J-14990D01*
G01*
Y7878130D01*
Y7851130D01*
X6730000D01*
Y7895350D01*
X3994150D01*
G37*
X32700Y7966130D02*
G36*
X32700Y7966130D02*
Y7895350D01*
X893850D01*
G75*
G02*
X924760Y7966130I96500J0D01*
G01*
X32700D01*
G37*
X1055940D02*
G36*
X1055940Y7966130D02*
G75*
G02*
X1086850Y7895350I-65590J-70780D01*
G01*
X1355180D01*
G75*
G02*
X1437520I41170J-92490D01*
G01*
X1630940D01*
G75*
G02*
X1570670Y7966130I70440J121030D01*
G01*
X1055940D01*
G37*
X1676350Y7898980D02*
G36*
X1676350Y7898980D02*
Y7895350D01*
X1726350D01*
Y7898980D01*
G75*
G03*
X1810340Y7966130I-25000J117370D01*
G01*
X1592360D01*
G75*
G03*
X1676350Y7898980I108990J50220D01*
G01*
G37*
X1832030Y7966130D02*
G36*
X1832030Y7966130D02*
G75*
G02*
X1771760Y7895350I-130710J50250D01*
G01*
X3906310D01*
X3939620Y7928660D01*
G75*
G02*
X3960840I10610J-10630D01*
G01*
X3994150Y7895350D01*
X6730000D01*
Y7966130D01*
X2963970D01*
G75*
G02*
X2965010Y7956890I-40710J-9260D01*
G01*
Y7933630D01*
X2945010D01*
Y7948630D01*
G75*
G03*
X2939380Y7966130I-30000J0D01*
G01*
X2848640D01*
G75*
G03*
X2843010Y7948630I24370J-17500D01*
G01*
Y7933630D01*
X2823010D01*
Y7956890D01*
G75*
G02*
X2824050Y7966130I41750J-20D01*
G01*
X1832030D01*
G37*
X32700Y8097720D02*
G36*
X32700Y8097720D02*
Y7966130D01*
X924760D01*
G75*
G02*
X1055940I65590J-70780D01*
G01*
X1570670D01*
G75*
G02*
X1563600Y7991350I130720J50240D01*
G01*
X1583980D01*
G75*
G03*
X1592360Y7966130I117380J25000D01*
G01*
X1810340D01*
G75*
G03*
X1818720Y7991350I-109000J50220D01*
G01*
X1839100D01*
G75*
G02*
X1832030Y7966130I-137790J25020D01*
G01*
X2824050D01*
G75*
G02*
X2864750Y7998630I40700J-9240D01*
G01*
X2869010D01*
Y7978360D01*
G75*
G03*
X2848640Y7966130I4000J-29740D01*
G01*
X2939380D01*
G75*
G03*
X2919010Y7978360I-24370J-17510D01*
G01*
Y7998630D01*
X2923270D01*
G75*
G02*
X2963970Y7966130I0J-41740D01*
G01*
X6730000D01*
Y8097720D01*
X1815270D01*
G75*
G02*
X1839100Y8041350I-113950J-81390D01*
G01*
X1818720D01*
G75*
G03*
X1789550Y8097720I-117370J-25000D01*
G01*
X1613150D01*
G75*
G03*
X1583980Y8041350I88200J-81370D01*
G01*
X1563600D01*
G75*
G02*
X1587430Y8097720I137780J-25020D01*
G01*
X32700D01*
G37*
Y8268630D02*
G36*
X32700Y8268630D02*
Y8097720D01*
X1587430D01*
G75*
G02*
X1676350Y8154100I113950J-81400D01*
G01*
Y8133720D01*
G75*
G03*
X1613150Y8097720I25000J-117370D01*
G01*
X1789550D01*
G75*
G03*
X1726350Y8133720I-88200J-81370D01*
G01*
Y8154100D01*
G75*
G02*
X1815270Y8097720I-25030J-137780D01*
G01*
X6730000D01*
Y8268630D01*
X5503810D01*
G75*
G02*
X5393810Y8158630I-110000J0D01*
G01*
G75*
G02*
X5283810Y8268630I0J110000D01*
G01*
X5249810D01*
G75*
G02*
X5139810Y8158630I-110000J0D01*
G01*
G75*
G02*
X5029810Y8268630I0J110000D01*
G01*
X4995810D01*
G75*
G02*
X4885810Y8158630I-110000J0D01*
G01*
G75*
G02*
X4775810Y8268630I0J110000D01*
G01*
X4741810D01*
G75*
G02*
X4631810Y8158630I-110000J0D01*
G01*
G75*
G02*
X4521810Y8268630I0J110000D01*
G01*
X4487810D01*
G75*
G02*
X4377810Y8158630I-110000J0D01*
G01*
G75*
G02*
X4267810Y8268630I0J110000D01*
G01*
X4233810D01*
G75*
G02*
X4123810Y8158630I-110000J0D01*
G01*
G75*
G02*
X4013810Y8268630I0J110000D01*
G01*
X3979810D01*
G75*
G02*
X3869810Y8158630I-110000J0D01*
G01*
G75*
G02*
X3759810Y8268630I0J110000D01*
G01*
X3725810D01*
G75*
G02*
X3615810Y8158630I-110000J0D01*
G01*
G75*
G02*
X3505810Y8268630I0J110000D01*
G01*
X32700D01*
G37*
Y8491130D02*
G36*
X32700Y8491130D02*
Y8268630D01*
X3505810D01*
G75*
G02*
X3615810Y8378630I110000J0D01*
G01*
G75*
G02*
X3725810Y8268630I0J-110000D01*
G01*
X3759810D01*
G75*
G02*
X3869810Y8378630I110000J0D01*
G01*
G75*
G02*
X3979810Y8268630I0J-110000D01*
G01*
X4013810D01*
G75*
G02*
X4123810Y8378630I110000J0D01*
G01*
G75*
G02*
X4233810Y8268630I0J-110000D01*
G01*
X4267810D01*
G75*
G02*
X4377810Y8378630I110000J0D01*
G01*
G75*
G02*
X4487810Y8268630I0J-110000D01*
G01*
X4521810D01*
G75*
G02*
X4631810Y8378630I110000J0D01*
G01*
G75*
G02*
X4741810Y8268630I0J-110000D01*
G01*
X4775810D01*
G75*
G02*
X4885810Y8378630I110000J0D01*
G01*
G75*
G02*
X4995810Y8268630I0J-110000D01*
G01*
X5029810D01*
G75*
G02*
X5139810Y8378630I110000J0D01*
G01*
G75*
G02*
X5249810Y8268630I0J-110000D01*
G01*
X5283810D01*
G75*
G02*
X5393810Y8378630I110000J0D01*
G01*
G75*
G02*
X5503810Y8268630I0J-110000D01*
G01*
X6730000D01*
Y8491130D01*
X6728310D01*
Y8480370D01*
G75*
G02*
Y8480360I-114590J0D01*
G01*
G75*
G02*
X6616570Y8368630I-111740J0D01*
G01*
X6483310D01*
Y8388630D01*
X6608310D01*
G75*
G03*
X6708310Y8488630I0J100000D01*
G01*
Y8491130D01*
X6208310D01*
Y8488630D01*
G75*
G03*
X6308310Y8388630I100000J0D01*
G01*
X6433310D01*
Y8368630D01*
X6300050D01*
G75*
G02*
X6188310Y8480360I0J111730D01*
G01*
G75*
G02*
Y8480370I114590J10D01*
G01*
Y8491130D01*
X5499200D01*
G75*
G02*
X5418810Y8415510I-105400J31500D01*
G01*
Y8436170D01*
G75*
G03*
X5478120Y8491130I-25010J86470D01*
G01*
X5309500D01*
G75*
G03*
X5368810Y8436170I84320J31510D01*
G01*
Y8415510D01*
G75*
G02*
X5288420Y8491130I25010J107120D01*
G01*
X5245200D01*
G75*
G02*
X5139810Y8412630I-105400J31510D01*
G01*
G75*
G02*
X5034420Y8491130I10J110010D01*
G01*
X4991200D01*
G75*
G02*
X4885810Y8412630I-105400J31510D01*
G01*
G75*
G02*
X4780420Y8491130I10J110010D01*
G01*
X4737200D01*
G75*
G02*
X4631810Y8412630I-105400J31510D01*
G01*
G75*
G02*
X4526420Y8491130I10J110010D01*
G01*
X4483200D01*
G75*
G02*
X4402810Y8415510I-105400J31500D01*
G01*
Y8436170D01*
G75*
G03*
X4462120Y8491130I-25010J86470D01*
G01*
X4293500D01*
G75*
G03*
X4352810Y8436170I84320J31510D01*
G01*
Y8415510D01*
G75*
G02*
X4272420Y8491130I25010J107120D01*
G01*
X4229200D01*
G75*
G02*
X4123810Y8412630I-105400J31510D01*
G01*
G75*
G02*
X4018420Y8491130I10J110010D01*
G01*
X3975200D01*
G75*
G02*
X3894810Y8415510I-105400J31500D01*
G01*
Y8436170D01*
G75*
G03*
X3954120Y8491130I-25010J86470D01*
G01*
X3785500D01*
G75*
G03*
X3844810Y8436170I84320J31510D01*
G01*
Y8415510D01*
G75*
G02*
X3764420Y8491130I25010J107120D01*
G01*
X3721200D01*
G75*
G02*
X3615810Y8412630I-105400J31510D01*
G01*
G75*
G02*
X3510420Y8491130I10J110010D01*
G01*
X588310D01*
Y8480370D01*
G75*
G02*
Y8480360I-114590J0D01*
G01*
G75*
G02*
X476570Y8368630I-111740J0D01*
G01*
X343310D01*
Y8388630D01*
X468310D01*
G75*
G03*
X568310Y8488630I0J100000D01*
G01*
Y8491130D01*
X68310D01*
Y8488630D01*
G75*
G03*
X168310Y8388630I100000J0D01*
G01*
X293310D01*
Y8368630D01*
X160050D01*
G75*
G02*
X48310Y8480360I0J111730D01*
G01*
G75*
G02*
Y8480370I114590J10D01*
G01*
Y8491130D01*
X32700D01*
G37*
Y8588690D02*
G36*
X32700Y8588690D02*
Y8491130D01*
X48310D01*
Y8588690D01*
X32700D01*
G37*
X68310D02*
G36*
X68310Y8588690D02*
Y8491130D01*
X568310D01*
Y8588690D01*
X68310D01*
G37*
X588310D02*
G36*
X588310Y8588690D02*
Y8491130D01*
X3510420D01*
G75*
G02*
X3505810Y8522630I105400J31510D01*
G01*
G75*
G02*
X3527860Y8588690I110010J-10D01*
G01*
X588310D01*
G37*
X3725810Y8522630D02*
G36*
X3725810Y8522630D02*
G75*
G02*
X3721200Y8491130I-110010J10D01*
G01*
X3764420D01*
G75*
G02*
X3762690Y8497630I105420J31540D01*
G01*
X3783350D01*
G75*
G03*
X3785500Y8491130I86470J25000D01*
G01*
X3954120D01*
G75*
G03*
X3956270Y8497630I-84320J31500D01*
G01*
X3976930D01*
G75*
G02*
X3975200Y8491130I-107150J25040D01*
G01*
X4018420D01*
G75*
G02*
X4013810Y8522630I105400J31510D01*
G01*
G75*
G02*
X4035860Y8588690I110010J-10D01*
G01*
X3957760D01*
G75*
G02*
X3976930Y8547630I-87960J-66070D01*
G01*
X3956270D01*
G75*
G03*
X3930930Y8588690I-86470J-25020D01*
G01*
X3808690D01*
G75*
G03*
X3783350Y8547630I61130J-66080D01*
G01*
X3762690D01*
G75*
G02*
X3781860Y8588690I107130J-25010D01*
G01*
X3703760D01*
G75*
G02*
X3725810Y8522630I-87960J-66070D01*
G01*
G37*
X4233810D02*
G36*
X4233810Y8522630D02*
G75*
G02*
X4229200Y8491130I-110010J10D01*
G01*
X4272420D01*
G75*
G02*
X4270690Y8497630I105420J31540D01*
G01*
X4291350D01*
G75*
G03*
X4293500Y8491130I86470J25000D01*
G01*
X4462120D01*
G75*
G03*
X4464270Y8497630I-84320J31500D01*
G01*
X4484930D01*
G75*
G02*
X4483200Y8491130I-107150J25040D01*
G01*
X4526420D01*
G75*
G02*
X4521810Y8522630I105400J31510D01*
G01*
G75*
G02*
X4543860Y8588690I110010J-10D01*
G01*
X4465760D01*
G75*
G02*
X4484930Y8547630I-87960J-66070D01*
G01*
X4464270D01*
G75*
G03*
X4438930Y8588690I-86470J-25020D01*
G01*
X4316690D01*
G75*
G03*
X4291350Y8547630I61130J-66080D01*
G01*
X4270690D01*
G75*
G02*
X4289860Y8588690I107130J-25010D01*
G01*
X4211760D01*
G75*
G02*
X4233810Y8522630I-87960J-66070D01*
G01*
G37*
X4741810D02*
G36*
X4741810Y8522630D02*
G75*
G02*
X4737200Y8491130I-110010J10D01*
G01*
X4780420D01*
G75*
G02*
X4775810Y8522630I105400J31510D01*
G01*
G75*
G02*
X4797860Y8588690I110010J-10D01*
G01*
X4719760D01*
G75*
G02*
X4741810Y8522630I-87960J-66070D01*
G01*
G37*
X4995810D02*
G36*
X4995810Y8522630D02*
G75*
G02*
X4991200Y8491130I-110010J10D01*
G01*
X5034420D01*
G75*
G02*
X5029810Y8522630I105400J31510D01*
G01*
G75*
G02*
X5051860Y8588690I110010J-10D01*
G01*
X4973760D01*
G75*
G02*
X4995810Y8522630I-87960J-66070D01*
G01*
G37*
X5249810D02*
G36*
X5249810Y8522630D02*
G75*
G02*
X5245200Y8491130I-110010J10D01*
G01*
X5288420D01*
G75*
G02*
X5286690Y8497630I105420J31540D01*
G01*
X5307350D01*
G75*
G03*
X5309500Y8491130I86470J25000D01*
G01*
X5478120D01*
G75*
G03*
X5480270Y8497630I-84320J31500D01*
G01*
X5500930D01*
G75*
G02*
X5499200Y8491130I-107150J25040D01*
G01*
X6188310D01*
Y8588690D01*
X5481760D01*
G75*
G02*
X5500930Y8547630I-87960J-66070D01*
G01*
X5480270D01*
G75*
G03*
X5454930Y8588690I-86470J-25020D01*
G01*
X5332690D01*
G75*
G03*
X5307350Y8547630I61130J-66080D01*
G01*
X5286690D01*
G75*
G02*
X5305860Y8588690I107130J-25010D01*
G01*
X5227760D01*
G75*
G02*
X5249810Y8522630I-87960J-66070D01*
G01*
G37*
X6208310Y8588690D02*
G36*
X6208310Y8588690D02*
Y8491130D01*
X6708310D01*
Y8588690D01*
X6208310D01*
G37*
X6728310D02*
G36*
X6728310Y8588690D02*
Y8491130D01*
X6730000D01*
Y8588690D01*
X6728310D01*
G37*
X32700Y8786130D02*
G36*
X32700Y8786130D02*
Y8588690D01*
X48310D01*
Y8613630D01*
X68310D01*
Y8588690D01*
X568310D01*
Y8613630D01*
X588310D01*
Y8588690D01*
X3527860D01*
G75*
G02*
X3615810Y8632630I87960J-66060D01*
G01*
G75*
G02*
X3703760Y8588690I-10J-110000D01*
G01*
X3781860D01*
G75*
G02*
X3844810Y8629750I87960J-66060D01*
G01*
Y8609090D01*
G75*
G03*
X3808690Y8588690I25010J-86460D01*
G01*
X3930930D01*
G75*
G03*
X3894810Y8609090I-61130J-66060D01*
G01*
Y8629750D01*
G75*
G02*
X3957760Y8588690I-25010J-107120D01*
G01*
X4035860D01*
G75*
G02*
X4123810Y8632630I87960J-66060D01*
G01*
G75*
G02*
X4211760Y8588690I-10J-110000D01*
G01*
X4289860D01*
G75*
G02*
X4352810Y8629750I87960J-66060D01*
G01*
Y8609090D01*
G75*
G03*
X4316690Y8588690I25010J-86460D01*
G01*
X4438930D01*
G75*
G03*
X4402810Y8609090I-61130J-66060D01*
G01*
Y8629750D01*
G75*
G02*
X4465760Y8588690I-25010J-107120D01*
G01*
X4543860D01*
G75*
G02*
X4631810Y8632630I87960J-66060D01*
G01*
G75*
G02*
X4719760Y8588690I-10J-110000D01*
G01*
X4797860D01*
G75*
G02*
X4885810Y8632630I87960J-66060D01*
G01*
G75*
G02*
X4973760Y8588690I-10J-110000D01*
G01*
X5051860D01*
G75*
G02*
X5139810Y8632630I87960J-66060D01*
G01*
G75*
G02*
X5227760Y8588690I-10J-110000D01*
G01*
X5305860D01*
G75*
G02*
X5368810Y8629750I87960J-66060D01*
G01*
Y8609090D01*
G75*
G03*
X5332690Y8588690I25010J-86460D01*
G01*
X5454930D01*
G75*
G03*
X5418810Y8609090I-61130J-66060D01*
G01*
Y8629750D01*
G75*
G02*
X5481760Y8588690I-25010J-107120D01*
G01*
X6188310D01*
Y8613630D01*
X6208310D01*
Y8588690D01*
X6708310D01*
Y8613630D01*
X6728310D01*
Y8588690D01*
X6730000D01*
Y8786130D01*
X6728310D01*
Y8663630D01*
X6708310D01*
Y8786130D01*
X6208310D01*
Y8663630D01*
X6188310D01*
Y8786130D01*
X588310D01*
Y8663630D01*
X568310D01*
Y8786130D01*
X68310D01*
Y8663630D01*
X48310D01*
Y8786130D01*
X32700D01*
G37*
Y8786350D02*
G36*
X32700Y8786350D02*
Y8786130D01*
X48310D01*
Y8796890D01*
G75*
G02*
Y8796900I114590J10D01*
G01*
G75*
G02*
X160050Y8908630I111740J0D01*
G01*
X293310D01*
Y8888630D01*
X168310D01*
G75*
G03*
X68310Y8788630I0J-100000D01*
G01*
Y8786130D01*
X568310D01*
Y8788630D01*
G75*
G03*
X468310Y8888630I-100000J0D01*
G01*
X343310D01*
Y8908630D01*
X476570D01*
G75*
G02*
X588310Y8796900I0J-111730D01*
G01*
G75*
G02*
Y8796890I-114590J0D01*
G01*
Y8786130D01*
X6188310D01*
Y8796890D01*
G75*
G02*
Y8796900I114590J10D01*
G01*
G75*
G02*
X6300050Y8908630I111740J0D01*
G01*
X6433310D01*
Y8888630D01*
X6308310D01*
G75*
G03*
X6208310Y8788630I0J-100000D01*
G01*
Y8786130D01*
X6708310D01*
Y8788630D01*
G75*
G03*
X6608310Y8888630I-100000J0D01*
G01*
X6483310D01*
Y8908630D01*
X6616570D01*
G75*
G02*
X6628600Y8907980I90J-110020D01*
G01*
G75*
G03*
X6606350Y8910000I-22340J-122520D01*
G01*
X156350D01*
G75*
G03*
X32700Y8786350I0J-123650D01*
G01*
G37*
X6728310Y8796890D02*
G36*
X6728310Y8796890D02*
Y8786130D01*
X6730000D01*
Y8786350D01*
Y8786410D01*
G75*
G03*
X6727240Y8812330I-123380J-30D01*
G01*
G75*
G02*
X6728310Y8796890I-111740J-15500D01*
G01*
G37*
X1270810Y5583640D02*
G75*
G02*
X1208300Y5521130I-87510J25000D01*
G01*
G75*
G02*
X1270810Y5458620I-25000J-87510D01*
G01*
G75*
G02*
X1333320Y5521130I87510J-25000D01*
G01*
G75*
G02*
X1270810Y5583640I25000J87510D01*
G01*
G36*
X1270810Y5583640D02*
G75*
G02*
X1208300Y5521130I-87510J25000D01*
G01*
G75*
G02*
X1270810Y5458620I-25000J-87510D01*
G01*
G75*
G02*
X1333320Y5521130I87510J-25000D01*
G01*
G75*
G02*
X1270810Y5583640I25000J87510D01*
G01*
G37*
X1445810D02*
G75*
G02*
X1383300Y5521130I-87510J25000D01*
G01*
G75*
G02*
X1445810Y5458620I-25000J-87510D01*
G01*
G75*
G02*
X1508320Y5521130I87510J-25000D01*
G01*
G75*
G02*
X1445810Y5583640I25000J87510D01*
G01*
G36*
X1445810Y5583640D02*
G75*
G02*
X1383300Y5521130I-87510J25000D01*
G01*
G75*
G02*
X1445810Y5458620I-25000J-87510D01*
G01*
G75*
G02*
X1508320Y5521130I87510J-25000D01*
G01*
G75*
G02*
X1445810Y5583640I25000J87510D01*
G01*
G37*
X0Y0D02*
M02*
