G04 DesignSpark PCB Gerber Version 11.0 Build 5877*
G04 #@! TF.Part,Single*
G04 #@! TF.FileFunction,Copper,L1,Top*
G04 #@! TF.FilePolarity,Positive*
%FSLAX35Y35*%
%MOMM*%
G04 #@! TA.AperFunction,ViaPad*
%AMT148*0 Rounded Rectangle Pad at angle 0*4,1,32,-0.11000,-0.44500,0.11000,-0.44500,0.14340,-0.44120,0.17510,-0.43010,0.20350,-0.41220,0.22720,-0.38850,0.24510,-0.36010,0.25620,-0.32840,0.26000,-0.29500,0.26000,0.29500,0.25620,0.32840,0.24510,0.36010,0.22720,0.38850,0.20350,0.41220,0.17510,0.43010,0.14340,0.44120,0.11000,0.44500,-0.11000,0.44500,-0.14340,0.44120,-0.17510,0.43010,-0.20350,0.41220,-0.22720,0.38850,-0.24510,0.36010,-0.25620,0.32840,-0.26000,0.29500,-0.26000,-0.29500,-0.25620,-0.32840,-0.24510,-0.36010,-0.22720,-0.38850,-0.20350,-0.41220,-0.17510,-0.43010,-0.14340,-0.44120,-0.11000,-0.44500,0*%
%ADD148T148*%
%AMT142*0 Rounded Rectangle Pad at angle 0*4,1,44,-0.21000,-0.70000,0.21000,-0.70000,0.25690,-0.69630,0.30270,-0.68530,0.34620,-0.66730,0.38630,-0.64270,0.42210,-0.61210,0.45270,-0.57630,0.47730,-0.53620,0.49530,-0.49270,0.50630,-0.44690,0.51000,-0.40000,0.51000,0.40000,0.50630,0.44690,0.49530,0.49270,0.47730,0.53620,0.45270,0.57630,0.42210,0.61210,0.38630,0.64270,0.34620,0.66730,0.30270,0.68530,0.25690,0.69630,0.21000,0.70000,-0.21000,0.70000,-0.25690,0.69630,-0.30270,0.68530,-0.34620,0.66730,-0.38630,0.64270,-0.42210,0.61210,-0.45270,0.57630,-0.47730,0.53620,-0.49530,0.49270,-0.50630,0.44690,-0.51000,0.40000,-0.51000,-0.40000,-0.50630,-0.44690,-0.49530,-0.49270,-0.47730,-0.53620,-0.45270,-0.57630,-0.42210,-0.61210,-0.38630,-0.64270,-0.34620,-0.66730,-0.30270,-0.68530,-0.25690,-0.69630,-0.21000,-0.70000,0*%
%ADD142T142*%
G04 #@! TA.AperFunction,ComponentPad*
%AMT198*0 Rounded Rectangle Pad at angle 0*4,1,76,-1.50000,-2.50000,1.50000,-2.50000,1.58720,-2.49620,1.67370,-2.48480,1.75890,-2.46590,1.84210,-2.43970,1.92270,-2.40630,2.00010,-2.36600,2.07370,-2.31910,2.14290,-2.26600,2.20720,-2.20710,2.26610,-2.14280,2.31920,-2.07360,2.36610,-2.00000,2.40640,-1.92260,2.43980,-1.84200,2.46600,-1.75880,2.48490,-1.67360,2.49630,-1.58710,2.50000,-1.50000,2.50000,1.50000,2.49620,1.58720,2.48480,1.67370,2.46590,1.75890,2.43970,1.84210,2.40630,1.92270,2.36600,2.00010,2.31910,2.07370,2.26600,2.14290,2.20710,2.20720,2.14280,2.26610,2.07360,2.31920,2.00000,2.36610,1.92260,2.40640,1.84200,2.43980,1.75880,2.46600,1.67360,2.48490,1.58710,2.49630,1.50000,2.50000,-1.50000,2.50000,-1.58720,2.49620,-1.67370,2.48480,-1.75890,2.46590,-1.84210,2.43970,-1.92270,2.40630,-2.00010,2.36600,-2.07370,2.31910,-2.14290,2.26600,-2.20720,2.20710,-2.26610,2.14280,-2.31920,2.07360,-2.36610,2.00000,-2.40640,1.92260,-2.43980,1.84200,-2.46600,1.75880,-2.48490,1.67360,-2.49630,1.58710,-2.50000,1.50000,-2.50000,-1.50000,-2.49620,-1.58720,-2.48480,-1.67370,-2.46590,-1.75890,-2.43970,-1.84210,-2.40630,-1.92270,-2.36600,-2.00010,-2.31910,-2.07370,-2.26600,-2.14290,-2.20710,-2.20720,-2.14280,-2.26610,-2.07360,-2.31920,-2.00000,-2.36610,-1.92260,-2.40640,-1.84200,-2.43980,-1.75880,-2.46600,-1.67360,-2.48490,-1.58710,-2.49630,-1.50000,-2.50000,0*%
%ADD198T198*%
G04 #@! TA.AperFunction,SMDPad,CuDef*
%ADD182R,0.55000X1.85000*%
%ADD206R,1.00000X1.45000*%
%ADD208R,1.20000X1.52000*%
%ADD196R,1.20000X1.80000*%
%ADD171R,1.29540X1.52400*%
%ADD186R,1.30000X1.80000*%
%ADD177R,1.39700X1.52400*%
%ADD169R,1.52400X2.28000*%
%ADD183R,1.60000X3.15000*%
%ADD176R,1.75000X3.20000*%
%ADD192R,2.15000X2.20000*%
%ADD197R,2.15000X2.30000*%
%ADD166R,2.40000X3.10000*%
%ADD185R,3.35000X3.60000*%
G04 #@! TA.AperFunction,ComponentPad*
%ADD187R,1.40000X1.40000*%
G04 #@! TA.AperFunction,SMDPad,CuDef*
%ADD202R,1.50000X1.50000*%
G04 #@! TA.AperFunction,ComponentPad*
%ADD193R,1.52400X1.52400*%
%ADD173R,2.40000X2.40000*%
G04 #@! TD.AperFunction*
%ADD11C,0.12700*%
%ADD17C,0.25400*%
%ADD138C,0.38100*%
%ADD139C,0.40000*%
%ADD136C,0.50000*%
%ADD146C,0.54000*%
%ADD137C,0.63500*%
G04 #@! TA.AperFunction,ViaPad*
%ADD143C,0.71000*%
G04 #@! TD.AperFunction*
%ADD140C,0.85000*%
G04 #@! TA.AperFunction,ViaPad*
%ADD147C,0.90000*%
G04 #@! TA.AperFunction,ComponentPad*
%ADD194C,1.21700*%
%ADD199C,1.31600*%
%ADD188C,1.40000*%
G04 #@! TA.AperFunction,ViaPad*
%ADD145C,1.42000*%
G04 #@! TA.AperFunction,ComponentPad*
%ADD181C,1.50000*%
%ADD189C,1.53000*%
%ADD180C,1.80000*%
G04 #@! TD.AperFunction*
%ADD164C,2.00000*%
G04 #@! TA.AperFunction,ComponentPad*
%ADD174C,2.40000*%
G04 #@! TA.AperFunction,ViaPad*
%AMT149*0 Rounded Rectangle Pad at angle 45*4,1,32,0.23690,-0.39240,0.39240,-0.23690,0.41330,-0.21060,0.42790,-0.18030,0.43540,-0.14760,0.43540,-0.11400,0.42790,-0.08120,0.41330,-0.05090,0.39240,-0.02470,-0.02470,0.39240,-0.05100,0.41330,-0.08130,0.42790,-0.11400,0.43540,-0.14760,0.43540,-0.18040,0.42790,-0.21070,0.41330,-0.23690,0.39240,-0.39240,0.23690,-0.41330,0.21060,-0.42790,0.18030,-0.43540,0.14760,-0.43540,0.11400,-0.42790,0.08120,-0.41330,0.05090,-0.39240,0.02470,0.02470,-0.39240,0.05100,-0.41330,0.08130,-0.42790,0.11400,-0.43540,0.14760,-0.43540,0.18040,-0.42790,0.21070,-0.41330,0.23690,-0.39240,0*%
%ADD149T149*%
%AMT144*0 Rounded Rectangle Pad at angle 90*4,1,32,0.44500,-0.11000,0.44500,0.11000,0.44120,0.14340,0.43010,0.17510,0.41220,0.20350,0.38850,0.22720,0.36010,0.24510,0.32840,0.25620,0.29500,0.26000,-0.29500,0.26000,-0.32840,0.25620,-0.36010,0.24510,-0.38850,0.22720,-0.41220,0.20350,-0.43010,0.17510,-0.44120,0.14340,-0.44500,0.11000,-0.44500,-0.11000,-0.44120,-0.14340,-0.43010,-0.17510,-0.41220,-0.20350,-0.38850,-0.22720,-0.36010,-0.24510,-0.32840,-0.25620,-0.29500,-0.26000,0.29500,-0.26000,0.32840,-0.25620,0.36010,-0.24510,0.38850,-0.22720,0.41220,-0.20350,0.43010,-0.17510,0.44120,-0.14340,0.44500,-0.11000,0*%
%ADD144T144*%
%AMT141*0 Rounded Rectangle Pad at angle 90*4,1,44,0.70000,-0.21000,0.70000,0.21000,0.69630,0.25690,0.68530,0.30270,0.66730,0.34620,0.64270,0.38630,0.61210,0.42210,0.57630,0.45270,0.53620,0.47730,0.49270,0.49530,0.44690,0.50630,0.40000,0.51000,-0.40000,0.51000,-0.44690,0.50630,-0.49270,0.49530,-0.53620,0.47730,-0.57630,0.45270,-0.61210,0.42210,-0.64270,0.38630,-0.66730,0.34620,-0.68530,0.30270,-0.69630,0.25690,-0.70000,0.21000,-0.70000,-0.21000,-0.69630,-0.25690,-0.68530,-0.30270,-0.66730,-0.34620,-0.64270,-0.38630,-0.61210,-0.42210,-0.57630,-0.45270,-0.53620,-0.47730,-0.49270,-0.49530,-0.44690,-0.50630,-0.40000,-0.51000,0.40000,-0.51000,0.44690,-0.50630,0.49270,-0.49530,0.53620,-0.47730,0.57630,-0.45270,0.61210,-0.42210,0.64270,-0.38630,0.66730,-0.34620,0.68530,-0.30270,0.69630,-0.25690,0.70000,-0.21000,0*%
%ADD141T141*%
G04 #@! TA.AperFunction,SMDPad,CuDef*
%ADD200R,2.30000X0.20000*%
%ADD201R,1.80000X0.45000*%
%ADD165R,1.52500X0.65000*%
%ADD204R,1.40000X0.80000*%
%ADD207R,1.50000X0.80000*%
%ADD203R,1.50000X0.90000*%
%ADD175R,1.75000X0.95000*%
%ADD205R,1.55000X1.00000*%
%ADD190R,1.52000X1.20000*%
%ADD191R,1.80000X1.20000*%
%ADD178R,1.52400X1.29540*%
%ADD179R,1.80000X1.30000*%
%ADD168R,1.52400X1.39700*%
G04 #@! TA.AperFunction,ComponentPad*
%ADD195R,2.03200X1.52400*%
G04 #@! TA.AperFunction,SMDPad,CuDef*
%ADD184R,1.63000X1.53000*%
%ADD172R,2.25000X1.75000*%
%ADD167R,4.15000X2.15000*%
%ADD170R,6.74000X6.23000*%
G04 #@! TD.AperFunction*
X0Y0D02*
D02*
D11*
X68310Y8404320D02*
Y5771130D01*
X2940410D01*
G75*
G02*
Y5771150I95490J10D01*
G01*
G75*
G02*
X2940450Y5773060I45520J0D01*
G01*
Y5889240D01*
G75*
G02*
X2940410Y5891150I45480J1910D01*
G01*
G75*
G03*
Y5891160I-4620J10D01*
G01*
G75*
G03*
X2935850Y5895730I-4560J0D01*
G01*
G75*
G02*
X2934500Y5895750I0J45510D01*
G01*
X1384650D01*
Y5838550D01*
X1202450D01*
Y6043650D01*
X1384650D01*
Y5986550D01*
X2935850D01*
G75*
G02*
X2937720Y5986510I-40J-45410D01*
G01*
G75*
G02*
X3031170Y5893770I-1880J-95350D01*
G01*
G75*
G02*
X3031250Y5891150I-45300J-2690D01*
G01*
Y5771150D01*
G75*
G02*
Y5771130I-45840J-10D01*
G01*
X3096640D01*
G75*
G02*
X3075410Y5831130I74170J60000D01*
G01*
Y6046130D01*
G75*
G03*
X3070810Y6050730I-4600J0D01*
G01*
X1869650D01*
Y5991050D01*
X1687450D01*
Y6196150D01*
X1869650D01*
Y6141530D01*
X3070810D01*
G75*
G02*
X3166210Y6046130I0J-95400D01*
G01*
Y5831130D01*
G75*
G03*
X3170810Y5826530I4600J0D01*
G01*
X3854450D01*
Y6020730D01*
X3839620D01*
X3835410Y6016530D01*
G75*
G02*
X3803230Y6003230I-32100J32100D01*
G01*
X3762150D01*
Y5995980D01*
X3789200D01*
G75*
G02*
X3834660Y5950520I0J-45460D01*
G01*
Y5886740D01*
G75*
G02*
X3789200Y5841280I-45460J0D01*
G01*
X3687420D01*
G75*
G02*
X3641960Y5886740I0J45460D01*
G01*
Y5950520D01*
G75*
G02*
X3662510Y5988550I45460J0D01*
G01*
X3579950D01*
Y6193650D01*
X3762150D01*
Y6094030D01*
X3784500D01*
X3788710Y6098230D01*
G75*
G02*
X3820890Y6111530I32100J-32100D01*
G01*
X4180810D01*
G75*
G02*
X4226210Y6066130I0J-45400D01*
G01*
Y6034950D01*
X4267150D01*
Y5964030D01*
X4642840D01*
G75*
G02*
X4788240Y5818630I0J-145400D01*
G01*
Y5771130D01*
X5139100D01*
X5176210Y5808230D01*
G75*
G02*
X5208390Y5821530I32100J-32100D01*
G01*
X5322140D01*
X5340140Y5831920D01*
G75*
G02*
X5366420Y5846980I26280J-15390D01*
G01*
X5372340D01*
G75*
G02*
X5386320I6990J-44890D01*
G01*
X5410200D01*
G75*
G02*
X5440660Y5816530I0J-30450D01*
G01*
Y5771130D01*
X5465790D01*
Y5856890D01*
G75*
G03*
X5354840Y5967840I-110950J0D01*
G01*
X4532550D01*
G75*
G02*
X4351760Y6148630I0J180790D01*
G01*
Y6229170D01*
G75*
G02*
X4327700Y6222280I-24060J38570D01*
G01*
X4267150D01*
Y6202250D01*
X4094450D01*
Y6434950D01*
X4267150D01*
Y6414980D01*
X4327700D01*
G75*
G02*
X4338900Y6413580I0J-45470D01*
G01*
G75*
G03*
X4290810Y6437080I-48090J-37450D01*
G01*
X3555810D01*
G75*
G02*
X3219260Y6773630I0J336550D01*
G01*
Y7268070D01*
G75*
G02*
X3205960Y7293230I17150J25160D01*
G01*
Y7374020D01*
G75*
G02*
X3236420Y7404480I30460J0D01*
G01*
X3280200D01*
G75*
G02*
X3310660Y7374030I0J-30450D01*
G01*
Y7293240D01*
G75*
G02*
X3297360Y7268070I-30460J0D01*
G01*
Y7141710D01*
G75*
G02*
X3301420Y7141980I4050J-30190D01*
G01*
X3345200D01*
G75*
G02*
X3375660Y7111530I0J-30450D01*
G01*
Y7030740D01*
G75*
G02*
X3362360Y7005570I-30460J0D01*
G01*
Y6771130D01*
G75*
G03*
X3570810Y6562680I208450J0D01*
G01*
X4310810D01*
G75*
G02*
X4479730Y6447670I0J-181560D01*
G01*
G75*
G02*
X4498920Y6454480I19190J-23640D01*
G01*
X4542700D01*
G75*
G02*
X4568980Y6439420I10J-30450D01*
G01*
X4597940Y6422700D01*
X4997840D01*
G75*
G02*
X4995960Y6433230I28570J10530D01*
G01*
Y6514020D01*
G75*
G02*
X5009300Y6539220I30470J0D01*
G01*
Y6836930D01*
G75*
G02*
X5008890Y6836510I-22060J21130D01*
G01*
X4977930Y6805550D01*
G75*
G02*
X4957470Y6796650I-21540J21550D01*
G01*
G75*
G02*
X4958710Y6786130I-44170J-10540D01*
G01*
Y6598390D01*
G75*
G02*
X4965660Y6579020I-23510J-19370D01*
G01*
Y6498240D01*
G75*
G02*
X4935200Y6467780I-30460J0D01*
G01*
X4891420D01*
G75*
G02*
X4860960Y6498240I0J30460D01*
G01*
Y6579020D01*
G75*
G02*
X4867910Y6598390I30460J0D01*
G01*
Y6767320D01*
X3708760Y7926470D01*
G75*
G02*
X3695410Y7958630I32050J32160D01*
G01*
Y8183770D01*
G75*
G02*
X3499460Y8268630I-79600J84860D01*
G01*
G75*
G02*
X3695410Y8353490I116350J0D01*
G01*
Y8379820D01*
X3660170Y8415070D01*
G75*
G02*
X3499460Y8522630I-44360J107560D01*
G01*
G75*
G02*
X3615810Y8638980I116350J0D01*
G01*
G75*
G02*
X3723950Y8479700I10J-116350D01*
G01*
X3772860Y8430790D01*
G75*
G02*
X3786210Y8398630I-32050J-32160D01*
G01*
Y8349550D01*
G75*
G02*
X3986160Y8268630I83600J-80920D01*
G01*
G75*
G02*
X3786210Y8187710I-116350J0D01*
G01*
Y7977440D01*
X4214580Y7549070D01*
G75*
G02*
X4211760Y7563630I36230J14570D01*
G01*
Y7763070D01*
G75*
G02*
X4198460Y7788230I17150J25160D01*
G01*
Y7869020D01*
G75*
G02*
X4228920Y7899480I30460J0D01*
G01*
X4272700D01*
G75*
G02*
X4276760Y7899210I10J-30450D01*
G01*
Y8124850D01*
X4262300Y8254690D01*
G75*
G02*
X4261460Y8268630I115560J13960D01*
G01*
G75*
G02*
X4494160I116350J0D01*
G01*
G75*
G02*
X4446080Y8174410I-116360J0D01*
G01*
X4354860Y8107260D01*
Y7644810D01*
X4714130Y7285530D01*
G75*
G02*
X4708460Y7303230I24790J17700D01*
G01*
Y7384020D01*
G75*
G02*
X4721760Y7409190I30460J0D01*
G01*
Y7663070D01*
G75*
G02*
X4708460Y7688230I17150J25160D01*
G01*
Y7769020D01*
G75*
G02*
X4738920Y7799480I30460J0D01*
G01*
X4782700D01*
G75*
G02*
X4813160Y7769030I0J-30450D01*
G01*
Y7688240D01*
G75*
G02*
X4799860Y7663070I-30460J0D01*
G01*
Y7409190D01*
G75*
G02*
X4813160Y7384030I-17150J-25160D01*
G01*
Y7303240D01*
G75*
G02*
X4782700Y7272780I-30460J0D01*
G01*
X4738920D01*
G75*
G02*
X4721210Y7278450I-10J30460D01*
G01*
X4857060Y7142600D01*
G75*
G02*
X4884270Y7134210I5670J-29940D01*
G01*
X4941390Y7077090D01*
G75*
G02*
Y7034010I-21550J-21540D01*
G01*
X4910430Y7003050D01*
G75*
G02*
X4867350I-21540J21550D01*
G01*
X4810230Y7060170D01*
G75*
G02*
X4801310Y7081710I21550J21540D01*
G01*
G75*
G02*
X4801840Y7087370I30440J0D01*
G01*
X4289860Y7599360D01*
Y7579810D01*
X4924560Y6945100D01*
G75*
G02*
X4951770Y6936710I5670J-29940D01*
G01*
X5008890Y6879590D01*
G75*
G02*
X5009300Y6879170I-21650J-21550D01*
G01*
Y7299940D01*
X4898240Y7411020D01*
G75*
G02*
X4886800Y7438630I27610J27620D01*
G01*
Y7510550D01*
G75*
G02*
X4873460Y7535730I17100J25180D01*
G01*
Y7616520D01*
G75*
G02*
X4903920Y7646980I30460J0D01*
G01*
X4947700D01*
G75*
G02*
X4978160Y7616530I0J-30450D01*
G01*
Y7535740D01*
G75*
G02*
X4964900Y7510600I-30460J0D01*
G01*
Y7454800D01*
X5061920Y7357770D01*
G75*
G02*
X5087400Y7321150I-13570J-36620D01*
G01*
Y6539160D01*
G75*
G02*
X5100660Y6514030I-17190J-25130D01*
G01*
Y6443680D01*
X5104300Y6447320D01*
Y8103060D01*
X5040390Y8208180D01*
G75*
G02*
X5039990Y8208850I32950J20130D01*
G01*
G75*
G02*
X5139810Y8384980I99820J59780D01*
G01*
G75*
G02*
X5241240Y8211630I0J-116350D01*
G01*
X5182400Y8104160D01*
Y7975450D01*
X5354760Y8147810D01*
Y8159030D01*
G75*
G02*
X5321250Y8359580I39050J109600D01*
G01*
X5260810D01*
G75*
G02*
X5233160Y8371050I0J39060D01*
G01*
X5227210Y8377010D01*
X5108150Y8410670D01*
G75*
G02*
X5107960Y8410720I11990J45960D01*
G01*
G75*
G02*
X5139810Y8638980I31850J111910D01*
G01*
G75*
G02*
X5252910Y8549920I0J-116350D01*
G01*
X5281350Y8437680D01*
X5314310D01*
G75*
G02*
X5393810Y8638980I79500J84950D01*
G01*
G75*
G02*
X5453860Y8422970I0J-116350D01*
G01*
G75*
G02*
X5559860Y8261130I-70550J-161840D01*
G01*
Y8056130D01*
G75*
G02*
X5538960Y8021550I-39050J0D01*
G01*
X5292360Y7774960D01*
Y6396130D01*
G75*
G02*
X5280890Y6368480I-39060J0D01*
G01*
X5093460Y6181050D01*
G75*
G02*
X5065810Y6169580I-27650J27590D01*
G01*
X4648160D01*
Y6168240D01*
G75*
G02*
X4617700Y6137780I-30460J0D01*
G01*
X4573920D01*
G75*
G02*
X4543460Y6168240I0J30460D01*
G01*
Y6249020D01*
G75*
G02*
X4573920Y6279480I30460J0D01*
G01*
X4608460D01*
Y6336520D01*
G75*
G02*
X4609550Y6344600I30470J0D01*
G01*
X4598010D01*
X4568980Y6327840D01*
G75*
G02*
X4542700Y6312780I-26270J15390D01*
G01*
X4498920D01*
G75*
G02*
X4492360Y6313490I-20J30450D01*
G01*
Y6154390D01*
G75*
G03*
X4553310Y6093440I60950J0D01*
G01*
X5483340D01*
G75*
G02*
X5554450Y6079440I10J-187550D01*
G01*
Y6261150D01*
X5606510D01*
Y6291130D01*
G75*
G02*
X5617980Y6318780I39060J0D01*
G01*
X5641460Y6342250D01*
X5461950D01*
Y6544950D01*
X5664650D01*
Y6365450D01*
X5704260Y6405060D01*
Y6754960D01*
X5699640Y6759580D01*
X5667150D01*
Y6629750D01*
X5434450D01*
Y7309550D01*
X5419860Y7294960D01*
Y6979190D01*
G75*
G02*
X5433160Y6954030I-17150J-25160D01*
G01*
Y6873240D01*
G75*
G02*
X5402700Y6842780I-30460J0D01*
G01*
X5358920D01*
G75*
G02*
X5328460Y6873230I0J30450D01*
G01*
Y6954020D01*
G75*
G02*
X5341760Y6979190I30460J0D01*
G01*
Y7311130D01*
G75*
G02*
X5353230Y7338780I39060J0D01*
G01*
X5390660Y7376210D01*
G75*
G02*
X5418310Y7387680I27650J-27590D01*
G01*
X5434450D01*
Y7517450D01*
X5461950D01*
Y7649950D01*
X5664650D01*
Y7517450D01*
X5667150D01*
Y7172390D01*
G75*
G02*
X5685420Y7178480I18270J-24370D01*
G01*
X5766200D01*
G75*
G02*
X5796660Y7148020I0J-30460D01*
G01*
Y7104240D01*
G75*
G02*
X5766200Y7073780I-30460J0D01*
G01*
X5685420D01*
G75*
G02*
X5667150Y7079870I0J30460D01*
G01*
Y7064030D01*
X5763230D01*
G75*
G02*
X5795410Y7050730I80J-45400D01*
G01*
X5868160Y6977980D01*
G75*
G02*
X5881460Y6945880I-32100J-32100D01*
G01*
G75*
G02*
Y6945860I-16140J-10D01*
G01*
G75*
G02*
Y6945800I-16290J-30D01*
G01*
Y6261150D01*
X5927150D01*
Y6204030D01*
X5954450D01*
Y6244950D01*
X6187150D01*
Y6062250D01*
X6118710D01*
Y5992350D01*
X6184050D01*
Y5799950D01*
X6118710D01*
Y5771130D01*
X6723310D01*
Y6377250D01*
X6526950D01*
Y6529950D01*
X6723310D01*
Y8427820D01*
G75*
G02*
X6619200Y8362280I-104110J49920D01*
G01*
X6297420D01*
G75*
G02*
X6181960Y8477740I0J115460D01*
G01*
Y8799520D01*
G75*
G02*
X6215750Y8881130I115460J-10D01*
G01*
X3403310D01*
Y8886130D01*
X555550D01*
G75*
G02*
X594660Y8799520I-76350J-86610D01*
G01*
Y8477740D01*
G75*
G02*
X479200Y8362280I-115460J0D01*
G01*
X157420D01*
G75*
G02*
X68310Y8404320I0J115460D01*
G01*
X6214450Y6244950D02*
X6447150D01*
Y6062250D01*
X6429160D01*
G75*
G02*
X6429660Y6055520I-44960J-6720D01*
G01*
Y5991740D01*
G75*
G02*
X6412650Y5956280I-45460J0D01*
G01*
Y5799950D01*
X6207550D01*
Y5992350D01*
X6236960D01*
Y6055520D01*
G75*
G02*
X6237460Y6062250I45460J10D01*
G01*
X6214450D01*
Y6244950D01*
X6221950Y7669950D02*
X6549650D01*
Y7472250D01*
X6396950D01*
Y7537250D01*
X6221950D01*
Y7669950D01*
X6291950Y6474950D02*
X6484650D01*
Y6342250D01*
X6291950D01*
Y6474950D01*
X3869810Y8638980D02*
G75*
G02*
X3986160Y8522630I0J-116350D01*
G01*
G75*
G02*
X3869810Y8406280I-116350J0D01*
G01*
G75*
G02*
X3753460Y8522630I0J116350D01*
G01*
G75*
G02*
X3869810Y8638980I116350J0D01*
G01*
X4123810Y8384980D02*
G75*
G02*
X4240160Y8268630I0J-116350D01*
G01*
G75*
G02*
X4123810Y8152280I-116350J0D01*
G01*
G75*
G02*
X4007460Y8268630I0J116350D01*
G01*
G75*
G02*
X4123810Y8384980I116350J0D01*
G01*
Y8638980D02*
G75*
G02*
X4240160Y8522630I0J-116350D01*
G01*
G75*
G02*
X4123810Y8406280I-116350J0D01*
G01*
G75*
G02*
X4007460Y8522630I0J116350D01*
G01*
G75*
G02*
X4123810Y8638980I116350J0D01*
G01*
X4377810D02*
G75*
G02*
X4494160Y8522630I0J-116350D01*
G01*
G75*
G02*
X4377810Y8406280I-116350J0D01*
G01*
G75*
G02*
X4261460Y8522630I0J116350D01*
G01*
G75*
G02*
X4377810Y8638980I116350J0D01*
G01*
X4631810Y8384980D02*
G75*
G02*
X4748160Y8268630I0J-116350D01*
G01*
G75*
G02*
X4631810Y8152280I-116350J0D01*
G01*
G75*
G02*
X4515460Y8268630I0J116350D01*
G01*
G75*
G02*
X4631810Y8384980I116350J0D01*
G01*
Y8638980D02*
G75*
G02*
X4748160Y8522630I0J-116350D01*
G01*
G75*
G02*
X4631810Y8406280I-116350J0D01*
G01*
G75*
G02*
X4515460Y8522630I0J116350D01*
G01*
G75*
G02*
X4631810Y8638980I116350J0D01*
G01*
X4885810Y8384980D02*
G75*
G02*
X5002160Y8268630I0J-116350D01*
G01*
G75*
G02*
X4885810Y8152280I-116350J0D01*
G01*
G75*
G02*
X4769460Y8268630I0J116350D01*
G01*
G75*
G02*
X4885810Y8384980I116350J0D01*
G01*
Y8638980D02*
G75*
G02*
X5002160Y8522630I0J-116350D01*
G01*
G75*
G02*
X4885810Y8406280I-116350J0D01*
G01*
G75*
G02*
X4769460Y8522630I0J116350D01*
G01*
G75*
G02*
X4885810Y8638980I116350J0D01*
G01*
X6155200Y7334980D02*
G75*
G02*
X6200660Y7289520I0J-45460D01*
G01*
Y7187740D01*
G75*
G02*
X6155200Y7142280I-45460J0D01*
G01*
X6091420D01*
G75*
G02*
X6045960Y7187740I0J45460D01*
G01*
Y7289520D01*
G75*
G02*
X6091420Y7334980I45460J0D01*
G01*
X6155200D01*
X1011950Y6043650D02*
X1194150D01*
Y5838550D01*
X1011950D01*
Y5895750D01*
X973700D01*
G75*
G02*
X972350Y5895730I-1350J45490D01*
G01*
G75*
G02*
X742910Y6125150I0J229420D01*
G01*
G75*
G02*
X742950Y6127060I45520J0D01*
G01*
Y7851730D01*
G75*
G02*
X742910Y7853630I45260J1900D01*
G01*
G75*
G02*
X830030Y7940750I87120J0D01*
G01*
X863280D01*
X938240Y7984020D01*
G75*
G02*
X1093200Y7895350I52110J-88670D01*
G01*
G75*
G02*
X938240Y7806680I-102850J0D01*
G01*
X863280Y7849950D01*
X833750D01*
Y6125150D01*
G75*
G02*
X833720Y6123500I-45370J0D01*
G01*
G75*
G03*
X971180Y5986530I138620J1660D01*
G01*
G75*
G02*
X972350Y5986550I1360J-45310D01*
G01*
X1011950D01*
Y6043650D01*
X1496950Y6196150D02*
X1679150D01*
Y5991050D01*
X1496950D01*
Y6048250D01*
X1180310D01*
G75*
G02*
X945950Y6282620I0J234370D01*
G01*
Y6440020D01*
X902320Y6514160D01*
G75*
G02*
X887500Y6567350I88040J53190D01*
G01*
G75*
G02*
X1093200I102850J0D01*
G01*
G75*
G02*
X1079530Y6516110I-102870J0D01*
G01*
X1036750Y6440550D01*
Y6282620D01*
G75*
G03*
X1180310Y6139050I143560J0D01*
G01*
X1496950D01*
Y6196150D01*
X887500Y6821350D02*
G75*
G02*
X1093200I102850J0D01*
G01*
G75*
G02*
X887500I-102850J0D01*
G01*
Y7641350D02*
G75*
G02*
X1093200I102850J0D01*
G01*
G75*
G02*
X887500I-102850J0D01*
G01*
X1207500Y6659850D02*
G75*
G02*
X1585200I188850J0D01*
G01*
G75*
G02*
X1207500I-188850J0D01*
G01*
X1555000Y6446350D02*
G75*
G02*
X1847700I146350J0D01*
G01*
G75*
G02*
X1555000I-146350J0D01*
G01*
X1207500Y7802850D02*
G75*
G02*
X1585200I188850J0D01*
G01*
G75*
G02*
X1207500I-188850J0D01*
G01*
X1555000Y8016350D02*
G75*
G02*
X1847700I146350J0D01*
G01*
G75*
G02*
X1555000I-146350J0D01*
G01*
X1935000Y6913850D02*
G75*
G02*
X2127700I96350J0D01*
G01*
G75*
G02*
X1935000I-96350J0D01*
G01*
Y7167850D02*
G75*
G02*
X2127700I96350J0D01*
G01*
G75*
G02*
X1935000I-96350J0D01*
G01*
X2821950Y7561150D02*
X3004150D01*
Y7356050D01*
X2821950D01*
Y7413890D01*
X2774290Y7414230D01*
G75*
G02*
X2742430Y7427530I240J45390D01*
G01*
X2714570Y7455380D01*
G75*
G02*
X2695960Y7464160I2930J30320D01*
G01*
X2691710Y7468410D01*
G75*
G02*
X2681950Y7478170I27120J36880D01*
G01*
X2652850Y7507270D01*
G75*
G02*
X2643090Y7517030I26850J36610D01*
G01*
X2638840Y7521280D01*
G75*
G02*
X2630060Y7539890I21550J21540D01*
G01*
X2539500Y7630450D01*
X2336700D01*
X2399420Y7594250D01*
X2493310D01*
G75*
G02*
X2525470Y7580900I0J-45400D01*
G01*
X2679770Y7426600D01*
G75*
G02*
X2691770Y7419210I-9540J-28930D01*
G01*
X2734860Y7376120D01*
G75*
G02*
X2744650Y7366330I-26820J-36610D01*
G01*
X2748890Y7362090D01*
G75*
G02*
X2757670Y7343480I-21540J-21540D01*
G01*
X2820280Y7280860D01*
X2821950Y7280850D01*
Y7337150D01*
X3004150D01*
Y7132050D01*
X2821950D01*
Y7190040D01*
X2800900Y7190230D01*
G75*
G02*
X2769150Y7203590I410J45390D01*
G01*
X2693460Y7279270D01*
G75*
G02*
X2674850Y7288050I2930J30320D01*
G01*
X2670600Y7292300D01*
G75*
G02*
X2660840Y7302060I26850J36610D01*
G01*
X2617730Y7345170D01*
G75*
G02*
X2608810Y7366710I21550J21540D01*
G01*
G75*
G02*
X2608900Y7369050I30410J0D01*
G01*
X2474500Y7503450D01*
X2399420D01*
X2343780Y7471330D01*
G75*
G02*
X2360470Y7460700I-15450J-42680D01*
G01*
X2757690Y7063480D01*
X2778780D01*
G75*
G02*
X2792780I7000J-44880D01*
G01*
X2798700D01*
G75*
G02*
X2818070Y7056530I0J-30460D01*
G01*
X2821950D01*
Y7111150D01*
X3004150D01*
Y6906050D01*
X2821950D01*
Y6965730D01*
X2818070D01*
G75*
G02*
X2798700Y6958780I-19370J23510D01*
G01*
X2792780D01*
G75*
G02*
X2778780I-7000J44880D01*
G01*
X2717920D01*
G75*
G02*
X2687460Y6989230I0J30450D01*
G01*
Y7005290D01*
X2380030Y7312730D01*
G75*
G02*
X2381700Y7294850I-94690J-17860D01*
G01*
G75*
G02*
X2189000I-96350J0D01*
G01*
G75*
G02*
X2247030Y7383250I96350J0D01*
G01*
X2146850D01*
X2085350Y7342060D01*
G75*
G02*
X1935000Y7421850I-54000J79790D01*
G01*
G75*
G02*
X2074710Y7507890I96350J0D01*
G01*
X2143530Y7474050D01*
X2224620D01*
G75*
G02*
X2234120Y7630450I60730J74800D01*
G01*
X2201770D01*
X2127700Y7587690D01*
Y7579500D01*
X2101820D01*
G75*
G02*
X2100880I-470J46030D01*
G01*
X1935000D01*
Y7772200D01*
X2100880D01*
G75*
G02*
X2101820I470J-46030D01*
G01*
X2127700D01*
Y7764010D01*
X2201770Y7721250D01*
X2558230D01*
G75*
G02*
X2590410Y7707950I80J-45400D01*
G01*
X2694270Y7604100D01*
G75*
G02*
X2712880Y7595320I-2930J-30320D01*
G01*
X2717120Y7591080D01*
G75*
G02*
X2726910Y7581290I-26820J-36610D01*
G01*
X2755970Y7552230D01*
G75*
G02*
X2765760Y7542440I-26870J-36660D01*
G01*
X2770000Y7538200D01*
G75*
G02*
X2778780Y7519590I-21550J-21540D01*
G01*
X2793470Y7504890D01*
X2821950Y7504690D01*
Y7561150D01*
X2189000Y6786850D02*
G75*
G02*
X2381700I96350J0D01*
G01*
G75*
G02*
X2189000I-96350J0D01*
G01*
X2821950Y6886150D02*
X3004150D01*
Y6681050D01*
X2821950D01*
Y6738360D01*
G75*
G02*
X2803700Y6732280I-18270J24410D01*
G01*
X2797780D01*
G75*
G02*
X2783780I-7000J45100D01*
G01*
X2754220D01*
X2751370Y6731380D01*
G75*
G02*
X2721390Y6732320I-13650J43310D01*
G01*
G75*
G02*
X2692460Y6762720I1510J30400D01*
G01*
Y6771130D01*
G75*
G02*
X2692320Y6774680I45210J3560D01*
G01*
G75*
G02*
X2692460Y6778230I45310J-10D01*
G01*
Y6791280D01*
X2608300Y6875440D01*
G75*
G02*
X2602630Y6882330I32050J32150D01*
G01*
X2489510Y6995450D01*
X2399420D01*
X2334260Y6957840D01*
G75*
G02*
X2189000Y7040850I-48910J83010D01*
G01*
G75*
G02*
X2334260Y7123860I96350J0D01*
G01*
X2399420Y7086250D01*
X2508290D01*
G75*
G02*
X2540410Y7072950I10J-45410D01*
G01*
X2672450Y6940920D01*
G75*
G02*
X2678070Y6934080I-32090J-32100D01*
G01*
X2766720Y6845430D01*
X2798250Y6836980D01*
X2803700D01*
G75*
G02*
X2821950Y6830900I-20J-30490D01*
G01*
Y6886150D01*
X3137830Y6552850D02*
X3195150D01*
Y6360450D01*
X2990050D01*
Y6552850D01*
X3046910D01*
Y6555150D01*
G75*
G02*
X3040960Y6573240I24520J18090D01*
G01*
Y6654020D01*
G75*
G02*
X3047910Y6673390I30460J0D01*
G01*
Y6681050D01*
X3012450D01*
Y6886150D01*
X3034710D01*
Y6906050D01*
X3012450D01*
Y7111150D01*
X3194650D01*
Y6906050D01*
X3172410D01*
Y6886150D01*
X3194650D01*
Y6681050D01*
X3138710D01*
Y6673390D01*
G75*
G02*
X3145660Y6654020I-23510J-19370D01*
G01*
Y6573240D01*
G75*
G02*
X3137830Y6552850I-30460J0D01*
G01*
X2761450D02*
X2966550D01*
Y6360450D01*
X2761450D01*
Y6373740D01*
G75*
G02*
X2746700Y6371280I-14750J43000D01*
G01*
X2644920D01*
G75*
G02*
X2599460Y6416740I0J45460D01*
G01*
Y6480520D01*
G75*
G02*
X2644920Y6525980I45460J0D01*
G01*
X2746700D01*
G75*
G02*
X2761450Y6523520I0J-45460D01*
G01*
Y6552850D01*
X2962550Y7830850D02*
X2996550D01*
Y7638450D01*
X2791450D01*
Y7830850D01*
X2825470D01*
G75*
G02*
X2816660Y7857740I36650J26900D01*
G01*
Y7959520D01*
G75*
G02*
X2862120Y8004980I45460J0D01*
G01*
X2925900D01*
G75*
G02*
X2971360Y7959520I0J-45460D01*
G01*
Y7857740D01*
G75*
G02*
X2962550Y7830850I-45460J10D01*
G01*
X3388450Y7819950D02*
X3593150D01*
Y7647250D01*
X3388450D01*
Y7675530D01*
X3375080D01*
G75*
G02*
X3330200Y7637280I-44880J7210D01*
G01*
X3266420D01*
G75*
G02*
X3225150Y7663680I0J45460D01*
G01*
Y7638450D01*
X3161650D01*
Y7561150D01*
X3194650D01*
Y7356050D01*
X3172410D01*
Y7337150D01*
X3194650D01*
Y7132050D01*
X3012450D01*
Y7337150D01*
X3034710D01*
Y7356050D01*
X3012450D01*
Y7561150D01*
X3054950D01*
Y7638450D01*
X3020050D01*
Y7830850D01*
X3225150D01*
Y7803580D01*
G75*
G02*
X3266420Y7829980I41270J-19060D01*
G01*
X3330200D01*
G75*
G02*
X3375080Y7791730I0J-45460D01*
G01*
X3388450D01*
Y7819950D01*
Y7634950D02*
X3593150D01*
Y7462250D01*
X3543410D01*
X3546790Y7456400D01*
G75*
G02*
X3565660Y7419540I-26580J-36870D01*
G01*
Y7317740D01*
G75*
G02*
Y7317730I-57300J0D01*
G01*
G75*
G02*
X3520200Y7272280I-45460J0D01*
G01*
X3456420D01*
G75*
G02*
X3410960Y7317720I0J45440D01*
G01*
Y7419520D01*
G75*
G02*
X3429830Y7456400I45470J0D01*
G01*
X3433210Y7462250D01*
X3388450D01*
Y7634950D01*
X3854450Y6434950D02*
X4027150D01*
Y6202250D01*
X3854450D01*
Y6250740D01*
G75*
G02*
X3843700Y6248780I-10750J28530D01*
G01*
X3837780D01*
G75*
G02*
X3823780I-7000J45100D01*
G01*
X3782840D01*
G75*
G02*
X3768860I-6990J44860D01*
G01*
X3762920D01*
G75*
G02*
X3754650Y6249920I-20J30440D01*
G01*
Y6203550D01*
X3572450D01*
Y6408650D01*
X3754650D01*
Y6352330D01*
G75*
G02*
X3762920Y6353480I8290J-29320D01*
G01*
X3768830D01*
G75*
G02*
X3782840I7010J-44860D01*
G01*
X3823780D01*
G75*
G02*
X3837780I7000J-45100D01*
G01*
X3843700D01*
G75*
G02*
X3854450Y6351520I0J-30490D01*
G01*
Y6434950D01*
X3381950Y6408650D02*
X3564150D01*
Y6203550D01*
X3381950D01*
Y6408650D01*
X3389450Y6193650D02*
X3571650D01*
Y5988550D01*
X3389450D01*
Y6193650D01*
X74660Y6022450D02*
G36*
X74660Y6022450D02*
Y5777480D01*
X2940450D01*
Y5889240D01*
G75*
G02*
X2940410Y5891140I45130J1900D01*
G01*
G75*
G02*
Y5891150I47750J10D01*
G01*
Y5891160D01*
G75*
G03*
X2935850Y5895730I-4560J0D01*
G01*
G75*
G02*
X2934500Y5895750I-340J22630D01*
G01*
X1384650D01*
Y5838550D01*
X1202450D01*
Y6022450D01*
X1194150D01*
Y5838550D01*
X1011950D01*
Y5895750D01*
X973700D01*
G75*
G02*
X972350Y5895730I-1010J22610D01*
G01*
G75*
G02*
X767190Y6022450I10J229460D01*
G01*
X74660D01*
G37*
X879230D02*
G36*
X879230Y6022450D02*
G75*
G03*
X971180Y5986530I93120J102720D01*
G01*
G75*
G02*
X972350Y5986550I35310J-2031390D01*
G01*
X1011950D01*
Y6022450D01*
X879230D01*
G37*
X1384650D02*
G36*
X1384650Y6022450D02*
Y5986550D01*
X2935850D01*
G75*
G02*
X2937720Y5986510I10J-43290D01*
G01*
G75*
G02*
X3031170Y5893770I-1880J-95350D01*
G01*
G75*
G02*
X3031250Y5891150I-42900J-2620D01*
G01*
Y5777480D01*
X3091920D01*
G75*
G02*
X3075410Y5831110I78840J53630D01*
G01*
G75*
G02*
Y5831130I114590J10D01*
G01*
Y6022450D01*
X1869650D01*
Y5991050D01*
X1687450D01*
Y6022450D01*
X1679150D01*
Y5991050D01*
X1496950D01*
Y6022450D01*
X1384650D01*
G37*
X3166210D02*
G36*
X3166210Y6022450D02*
Y5831130D01*
G75*
G03*
X3170810Y5826530I4600J0D01*
G01*
X3854450D01*
Y6020730D01*
X3839620D01*
X3835410Y6016530D01*
G75*
G02*
X3803230Y6003230I-32090J32060D01*
G01*
X3762150D01*
Y5995980D01*
X3789200D01*
G75*
G02*
X3834660Y5950540I0J-45440D01*
G01*
G75*
G02*
Y5950520I-54570J-10D01*
G01*
Y5886740D01*
G75*
G02*
Y5886720I-54570J-10D01*
G01*
G75*
G02*
X3789200Y5841280I-45460J0D01*
G01*
X3687420D01*
G75*
G02*
X3641960Y5886720I0J45440D01*
G01*
G75*
G02*
Y5886740I54570J10D01*
G01*
Y5950520D01*
G75*
G02*
X3662510Y5988550I45500J-20D01*
G01*
X3579950D01*
Y6022450D01*
X3571650D01*
Y5988550D01*
X3389450D01*
Y6022450D01*
X3166210D01*
G37*
X4267150D02*
G36*
X4267150Y6022450D02*
Y5964030D01*
X4642840D01*
G75*
G02*
X4788240Y5818640I0J-145390D01*
G01*
G75*
G02*
Y5818630I-286480J0D01*
G01*
Y5777480D01*
X5145450D01*
X5176210Y5808230D01*
G75*
G02*
X5208390Y5821530I32090J-32060D01*
G01*
X5322140D01*
X5340140Y5831920D01*
G75*
G02*
X5366420Y5846980I26260J-15370D01*
G01*
X5372340D01*
G75*
G02*
X5386320I6990J-44970D01*
G01*
X5410200D01*
G75*
G02*
X5440660Y5816530I0J-30450D01*
G01*
Y5777480D01*
X5465790D01*
Y5856890D01*
G75*
G03*
X5354840Y5967840I-110950J0D01*
G01*
X4532550D01*
G75*
G02*
X4403070Y6022450I-10J180790D01*
G01*
X4267150D01*
G37*
X6118710Y5799950D02*
G36*
X6118710Y5799950D02*
Y5777480D01*
X6716960D01*
Y6022450D01*
X6429660D01*
Y5991740D01*
G75*
G02*
X6412650Y5956280I-45460J0D01*
G01*
Y5799950D01*
X6207550D01*
Y5992350D01*
X6236960D01*
Y6022450D01*
X6118710D01*
Y5992350D01*
X6184050D01*
Y5799950D01*
X6118710D01*
G37*
X74660Y6306100D02*
G36*
X74660Y6306100D02*
Y6022450D01*
X767190D01*
G75*
G02*
X742910Y6125150I205180J102730D01*
G01*
G75*
G02*
X742950Y6127060I46130J-10D01*
G01*
Y6306100D01*
X74660D01*
G37*
X833750Y6125150D02*
G36*
X833750Y6125150D02*
G75*
G02*
X833720Y6123500I-66920J390D01*
G01*
G75*
G03*
X879230Y6022450I138630J1660D01*
G01*
X1011950D01*
Y6043650D01*
X1194150D01*
Y6022450D01*
X1202450D01*
Y6043650D01*
X1384650D01*
Y6022450D01*
X1496950D01*
Y6048250D01*
X1180310D01*
G75*
G02*
X945950Y6282600I0J234350D01*
G01*
G75*
G02*
Y6282620I286480J10D01*
G01*
Y6306100D01*
X833750D01*
Y6125150D01*
G37*
X1036750Y6282620D02*
G36*
X1036750Y6282620D02*
G75*
G03*
X1180310Y6139050I143560J0D01*
G01*
X1496950D01*
Y6196150D01*
X1679150D01*
Y6022450D01*
X1687450D01*
Y6196150D01*
X1869650D01*
Y6141530D01*
X3070810D01*
G75*
G02*
X3166210Y6046140I0J-95390D01*
G01*
G75*
G02*
Y6046130I-143240J0D01*
G01*
Y6022450D01*
X3389450D01*
Y6193650D01*
X3571650D01*
Y6022450D01*
X3579950D01*
Y6193650D01*
X3762150D01*
Y6094030D01*
X3784500D01*
X3788710Y6098230D01*
G75*
G02*
X3820890Y6111530I32090J-32060D01*
G01*
X4180810D01*
G75*
G02*
X4226210Y6066130I0J-45400D01*
G01*
Y6034950D01*
X4267150D01*
Y6022450D01*
X4403070D01*
G75*
G02*
X4351760Y6148620I129470J126170D01*
G01*
G75*
G02*
Y6148630I286480J10D01*
G01*
Y6229170D01*
G75*
G02*
X4327700Y6222280I-24090J38680D01*
G01*
X4267150D01*
Y6202250D01*
X4094450D01*
Y6306100D01*
X4027150D01*
Y6202250D01*
X3854450D01*
Y6250740D01*
G75*
G02*
X3843700Y6248780I-10710J28300D01*
G01*
X3837780D01*
G75*
G02*
X3823780I-7000J45100D01*
G01*
X3782840D01*
G75*
G02*
X3768860I-6990J44970D01*
G01*
X3762920D01*
G75*
G02*
X3754650Y6249920I60J31020D01*
G01*
Y6203550D01*
X3572450D01*
Y6306100D01*
X3564150D01*
Y6203550D01*
X3381950D01*
Y6306100D01*
X1743160D01*
G75*
G02*
X1659540I-41810J140240D01*
G01*
X1036750D01*
Y6282620D01*
G37*
X1869650Y6050730D02*
G36*
X1869650Y6050730D02*
Y6022450D01*
X3075410D01*
Y6046130D01*
G75*
G03*
X3070810Y6050730I-4600J0D01*
G01*
X1869650D01*
G37*
X4492360Y6154390D02*
G36*
X4492360Y6154390D02*
G75*
G03*
Y6154380I114590J0D01*
G01*
G75*
G03*
X4553310Y6093440I60950J0D01*
G01*
X5483340D01*
G75*
G02*
X5554450Y6079440I40J-187410D01*
G01*
Y6261150D01*
X5606510D01*
Y6291130D01*
G75*
G02*
Y6291140I35810J10D01*
G01*
G75*
G02*
X5609490Y6306100I39040J0D01*
G01*
X5218510D01*
X5093460Y6181050D01*
G75*
G02*
X5065810Y6169580I-27640J27570D01*
G01*
X4648160D01*
Y6168240D01*
G75*
G02*
Y6168230I-63660J0D01*
G01*
G75*
G02*
X4617700Y6137780I-30460J0D01*
G01*
X4573920D01*
G75*
G02*
X4543460Y6168230I0J30450D01*
G01*
G75*
G02*
Y6168240I63660J10D01*
G01*
Y6249020D01*
G75*
G02*
Y6249030I63660J10D01*
G01*
G75*
G02*
X4573920Y6279480I30460J0D01*
G01*
X4608460D01*
Y6306100D01*
X4492360D01*
Y6154390D01*
G37*
X5881460Y6306100D02*
G36*
X5881460Y6306100D02*
Y6261150D01*
X5927150D01*
Y6204030D01*
X5954450D01*
Y6244950D01*
X6187150D01*
Y6062250D01*
X6118710D01*
Y6022450D01*
X6236960D01*
Y6055520D01*
G75*
G02*
Y6055650I45420J70D01*
G01*
G75*
G02*
X6237460Y6062250I43820J0D01*
G01*
X6214450D01*
Y6244950D01*
X6447150D01*
Y6062250D01*
X6429160D01*
G75*
G02*
X6429660Y6055650I-43320J-6600D01*
G01*
G75*
G02*
Y6055520I-45420J-60D01*
G01*
Y6022450D01*
X6716960D01*
Y6306100D01*
X5881460D01*
G37*
X74660Y6408600D02*
G36*
X74660Y6408600D02*
Y6306100D01*
X742950D01*
Y6408600D01*
X74660D01*
G37*
X833750D02*
G36*
X833750Y6408600D02*
Y6306100D01*
X945950D01*
Y6408600D01*
X833750D01*
G37*
X1036750D02*
G36*
X1036750Y6408600D02*
Y6306100D01*
X1659540D01*
G75*
G02*
X1559950Y6408600I41810J140250D01*
G01*
X1036750D01*
G37*
X1842750D02*
G36*
X1842750Y6408600D02*
G75*
G02*
X1743160Y6306100I-141400J37750D01*
G01*
X3381950D01*
Y6408600D01*
X3195150D01*
Y6360450D01*
X2990050D01*
Y6408600D01*
X2966550D01*
Y6360450D01*
X2761450D01*
Y6373740D01*
G75*
G02*
X2746700Y6371280I-14750J43010D01*
G01*
X2644920D01*
G75*
G02*
X2600190Y6408600I-20J45440D01*
G01*
X1842750D01*
G37*
X3564150D02*
G36*
X3564150Y6408600D02*
Y6306100D01*
X3572450D01*
Y6408600D01*
X3564150D01*
G37*
X3754650D02*
G36*
X3754650Y6408600D02*
Y6352330D01*
G75*
G02*
X3762920Y6353480I8300J-29350D01*
G01*
X3768830D01*
G75*
G02*
X3782840I7010J-45170D01*
G01*
X3823780D01*
G75*
G02*
X3837780I7000J-45100D01*
G01*
X3843700D01*
G75*
G02*
X3854450Y6351520I40J-30260D01*
G01*
Y6408600D01*
X3754650D01*
G37*
X4027150D02*
G36*
X4027150Y6408600D02*
Y6306100D01*
X4094450D01*
Y6408600D01*
X4027150D01*
G37*
X4492360Y6313490D02*
G36*
X4492360Y6313490D02*
Y6306100D01*
X4608460D01*
Y6336520D01*
G75*
G02*
Y6336580I29640J30D01*
G01*
G75*
G02*
X4609550Y6344600I30050J0D01*
G01*
X4598010D01*
X4568980Y6327840D01*
G75*
G02*
X4542700Y6312780I-26260J15370D01*
G01*
X4498920D01*
G75*
G02*
X4492360Y6313490I40J30990D01*
G01*
G37*
X5280890Y6368480D02*
G36*
X5280890Y6368480D02*
X5218510Y6306100D01*
X5609490D01*
G75*
G02*
X5617980Y6318780I36060J-14960D01*
G01*
X5641460Y6342250D01*
X5461950D01*
Y6408600D01*
X5292360D01*
Y6396130D01*
G75*
G02*
Y6396120I-35810J0D01*
G01*
G75*
G02*
X5280890Y6368480I-39040J0D01*
G01*
G37*
X5664650Y6408600D02*
G36*
X5664650Y6408600D02*
Y6365450D01*
X5704260Y6405060D01*
Y6408600D01*
X5664650D01*
G37*
X5881460D02*
G36*
X5881460Y6408600D02*
Y6306100D01*
X6716960D01*
Y6377250D01*
X6526950D01*
Y6408600D01*
X6484650D01*
Y6342250D01*
X6291950D01*
Y6408600D01*
X5881460D01*
G37*
X74660Y6821350D02*
G36*
X74660Y6821350D02*
Y6408600D01*
X742950D01*
Y6821350D01*
X74660D01*
G37*
X833750D02*
G36*
X833750Y6821350D02*
Y6408600D01*
X945950D01*
Y6440020D01*
X902320Y6514160D01*
G75*
G02*
X887500Y6567320I87930J53160D01*
G01*
G75*
G02*
Y6567350I95490J20D01*
G01*
G75*
G02*
X1093200I102850J0D01*
G01*
G75*
G02*
X1079530Y6516110I-102940J20D01*
G01*
X1036750Y6440550D01*
Y6408600D01*
X1559950D01*
G75*
G02*
X1555000Y6446350I141400J37740D01*
G01*
G75*
G02*
X1847700I146350J0D01*
G01*
G75*
G02*
X1842750Y6408600I-146350J-10D01*
G01*
X2600190D01*
G75*
G02*
X2599460Y6416720I44700J8110D01*
G01*
G75*
G02*
Y6416740I54570J10D01*
G01*
Y6480520D01*
G75*
G02*
Y6480540I54570J10D01*
G01*
G75*
G02*
X2644920Y6525980I45460J0D01*
G01*
X2746700D01*
G75*
G02*
X2761450Y6523520I0J-45470D01*
G01*
Y6552850D01*
X2966550D01*
Y6408600D01*
X2990050D01*
Y6552850D01*
X3046910D01*
Y6555150D01*
G75*
G02*
X3040960Y6573240I24610J18120D01*
G01*
Y6654020D01*
G75*
G02*
X3047910Y6673390I30470J0D01*
G01*
Y6681050D01*
X3012450D01*
Y6821350D01*
X3004150D01*
Y6681050D01*
X2821950D01*
Y6738360D01*
G75*
G02*
X2803700Y6732280I-18250J24340D01*
G01*
X2797780D01*
G75*
G02*
X2783780I-7000J45100D01*
G01*
X2754220D01*
X2751370Y6731380D01*
G75*
G02*
X2721390Y6732320I-13650J43250D01*
G01*
G75*
G02*
X2692460Y6762720I1520J30410D01*
G01*
Y6771130D01*
G75*
G02*
X2692320Y6774680I52170J3840D01*
G01*
G75*
G02*
X2692460Y6778230I52310J-290D01*
G01*
Y6791280D01*
X2662390Y6821350D01*
X2375310D01*
G75*
G02*
X2381700Y6786850I-89960J-34500D01*
G01*
G75*
G02*
X2189000I-96350J0D01*
G01*
G75*
G02*
X2195390Y6821350I96350J0D01*
G01*
X2058310D01*
G75*
G02*
X2004390I-26960J92490D01*
G01*
X1494240D01*
G75*
G02*
X1585200Y6659850I-97890J-161500D01*
G01*
G75*
G02*
X1207500I-188850J0D01*
G01*
G75*
G02*
X1298460Y6821350I188850J0D01*
G01*
X1093200D01*
G75*
G02*
X887500I-102850J0D01*
G01*
X833750D01*
G37*
X3138710Y6681050D02*
G36*
X3138710Y6681050D02*
Y6673390D01*
G75*
G02*
X3145660Y6654020I-23520J-19370D01*
G01*
Y6573240D01*
G75*
G02*
Y6573220I-27280J-10D01*
G01*
G75*
G02*
X3137830Y6552850I-30410J0D01*
G01*
X3195150D01*
Y6408600D01*
X3381950D01*
Y6408650D01*
X3564150D01*
Y6408600D01*
X3572450D01*
Y6408650D01*
X3754650D01*
Y6408600D01*
X3854450D01*
Y6434950D01*
X4027150D01*
Y6408600D01*
X4094450D01*
Y6434950D01*
X4267150D01*
Y6414980D01*
X4327700D01*
G75*
G02*
X4338900Y6413580I10J-45390D01*
G01*
G75*
G03*
X4290810Y6437080I-48100J-37470D01*
G01*
X3555810D01*
G75*
G02*
X3219260Y6773620I0J336540D01*
G01*
G75*
G02*
Y6773630I572960J10D01*
G01*
Y6821350D01*
X3194650D01*
Y6681050D01*
X3138710D01*
G37*
X3362360Y6821350D02*
G36*
X3362360Y6821350D02*
Y6771130D01*
G75*
G03*
X3570810Y6562680I208450J0D01*
G01*
X4310810D01*
G75*
G02*
X4479730Y6447670I10J-181540D01*
G01*
G75*
G02*
X4498920Y6454480I19180J-23590D01*
G01*
X4542700D01*
G75*
G02*
X4568980Y6439420I20J-30430D01*
G01*
X4597940Y6422700D01*
X4997840D01*
G75*
G02*
X4995960Y6433190I28310J10490D01*
G01*
G75*
G02*
Y6433230I27610J20D01*
G01*
Y6514020D01*
G75*
G02*
Y6514030I35810J10D01*
G01*
G75*
G02*
X5009300Y6539220I30450J0D01*
G01*
Y6821350D01*
X4993730D01*
X4977930Y6805550D01*
G75*
G02*
X4957470Y6796650I-21550J21570D01*
G01*
G75*
G02*
X4958710Y6786160I-43770J-10490D01*
G01*
G75*
G02*
Y6786130I-55450J-10D01*
G01*
Y6598390D01*
G75*
G02*
X4965660Y6579020I-23520J-19370D01*
G01*
Y6498240D01*
G75*
G02*
Y6498230I-63660J0D01*
G01*
G75*
G02*
X4935200Y6467780I-30460J0D01*
G01*
X4891420D01*
G75*
G02*
X4860960Y6498230I0J30450D01*
G01*
G75*
G02*
Y6498240I63660J10D01*
G01*
Y6579020D01*
G75*
G02*
X4867910Y6598390I30470J0D01*
G01*
Y6767320D01*
X4813880Y6821350D01*
X3362360D01*
G37*
X5087400D02*
G36*
X5087400Y6821350D02*
Y6539160D01*
G75*
G02*
X5100660Y6514030I-17180J-25130D01*
G01*
Y6443680D01*
X5104300Y6447320D01*
Y6821350D01*
X5087400D01*
G37*
X5292360D02*
G36*
X5292360Y6821350D02*
Y6408600D01*
X5461950D01*
Y6544950D01*
X5664650D01*
Y6408600D01*
X5704260D01*
Y6754960D01*
X5699640Y6759580D01*
X5667150D01*
Y6629750D01*
X5434450D01*
Y6821350D01*
X5292360D01*
G37*
X5881460D02*
G36*
X5881460Y6821350D02*
Y6408600D01*
X6291950D01*
Y6474950D01*
X6484650D01*
Y6408600D01*
X6526950D01*
Y6529950D01*
X6716960D01*
Y6821350D01*
X5881460D01*
G37*
X74660Y6913850D02*
G36*
X74660Y6913850D02*
Y6821350D01*
X742950D01*
Y6913850D01*
X74660D01*
G37*
X833750D02*
G36*
X833750Y6913850D02*
Y6821350D01*
X887500D01*
G75*
G02*
X945380Y6913850I102850J0D01*
G01*
X833750D01*
G37*
X1035320D02*
G36*
X1035320Y6913850D02*
G75*
G02*
X1093200Y6821350I-44970J-92500D01*
G01*
X1298460D01*
G75*
G02*
X1494240I97890J-161510D01*
G01*
X2004390D01*
G75*
G02*
X1935000Y6913850I26960J92500D01*
G01*
X1035320D01*
G37*
X2127700D02*
G36*
X2127700Y6913850D02*
G75*
G02*
X2058310Y6821350I-96350J0D01*
G01*
X2195390D01*
G75*
G02*
X2375310I89960J-34500D01*
G01*
X2662390D01*
X2608300Y6875440D01*
G75*
G02*
X2602630Y6882330I33130J33040D01*
G01*
X2571110Y6913850D01*
X2127700D01*
G37*
X2698300D02*
G36*
X2698300Y6913850D02*
X2766720Y6845430D01*
X2798250Y6836980D01*
X2803700D01*
G75*
G02*
X2821950Y6830900I0J-30420D01*
G01*
Y6886150D01*
X3004150D01*
Y6821350D01*
X3012450D01*
Y6886150D01*
X3034710D01*
Y6906050D01*
X3012450D01*
Y6913850D01*
X3004150D01*
Y6906050D01*
X2821950D01*
Y6913850D01*
X2698300D01*
G37*
X3172410Y6906050D02*
G36*
X3172410Y6906050D02*
Y6886150D01*
X3194650D01*
Y6821350D01*
X3219260D01*
Y6913850D01*
X3194650D01*
Y6906050D01*
X3172410D01*
G37*
X3362360Y6913850D02*
G36*
X3362360Y6913850D02*
Y6821350D01*
X4813880D01*
X4721380Y6913850D01*
X3362360D01*
G37*
X5008890Y6836510D02*
G36*
X5008890Y6836510D02*
X4993730Y6821350D01*
X5009300D01*
Y6836930D01*
G75*
G02*
X5008890Y6836510I-8820J8200D01*
G01*
G37*
X4974630Y6913850D02*
G36*
X4974630Y6913850D02*
X5008890Y6879590D01*
G75*
G02*
X5009300Y6879170I-8410J-8620D01*
G01*
Y6913850D01*
X4974630D01*
G37*
X5087400D02*
G36*
X5087400Y6913850D02*
Y6821350D01*
X5104300D01*
Y6913850D01*
X5087400D01*
G37*
X5292360D02*
G36*
X5292360Y6913850D02*
Y6821350D01*
X5434450D01*
Y6913850D01*
X5433160D01*
Y6873240D01*
G75*
G02*
Y6873230I-63660J0D01*
G01*
G75*
G02*
X5402700Y6842780I-30460J0D01*
G01*
X5358920D01*
G75*
G02*
X5328460Y6873230I0J30450D01*
G01*
Y6913850D01*
X5292360D01*
G37*
X5881460D02*
G36*
X5881460Y6913850D02*
Y6821350D01*
X6716960D01*
Y6913850D01*
X5881460D01*
G37*
X74660Y7238630D02*
G36*
X74660Y7238630D02*
Y6913850D01*
X742950D01*
Y7238630D01*
X74660D01*
G37*
X833750D02*
G36*
X833750Y7238630D02*
Y6913850D01*
X945380D01*
G75*
G02*
X1035320I44970J-92510D01*
G01*
X1935000D01*
G75*
G02*
X2127700I96350J0D01*
G01*
X2571110D01*
X2489510Y6995450D01*
X2399420D01*
X2334260Y6957840D01*
G75*
G02*
X2189000Y7040850I-48910J83010D01*
G01*
G75*
G02*
X2334260Y7123860I96350J0D01*
G01*
X2399420Y7086250D01*
X2508290D01*
G75*
G02*
X2540410Y7072950I30J-45370D01*
G01*
X2672450Y6940920D01*
G75*
G02*
X2678070Y6934080I-31480J-31590D01*
G01*
X2698300Y6913850D01*
X2821950D01*
Y6965730D01*
X2818070D01*
G75*
G02*
X2798700Y6958780I-19370J23510D01*
G01*
X2792780D01*
G75*
G02*
X2778780I-7000J45100D01*
G01*
X2717920D01*
G75*
G02*
X2687460Y6989230I0J30450D01*
G01*
Y7005290D01*
X2454130Y7238630D01*
X2363600D01*
G75*
G02*
X2207100I-78250J56220D01*
G01*
X2096720D01*
G75*
G02*
X2127700Y7167850I-65370J-70780D01*
G01*
G75*
G02*
X1935000I-96350J0D01*
G01*
G75*
G02*
X1965980Y7238630I96350J0D01*
G01*
X833750D01*
G37*
X2734110D02*
G36*
X2734110Y7238630D02*
X2582540D01*
X2757690Y7063480D01*
X2778780D01*
G75*
G02*
X2792780I7000J-45100D01*
G01*
X2798700D01*
G75*
G02*
X2818070Y7056530I0J-30460D01*
G01*
X2821950D01*
Y7111150D01*
X3004150D01*
Y6913850D01*
X3012450D01*
Y7111150D01*
X3194650D01*
Y6913850D01*
X3219260D01*
Y7238630D01*
X3194650D01*
Y7132050D01*
X3012450D01*
Y7238630D01*
X3004150D01*
Y7132050D01*
X2821950D01*
Y7190040D01*
X2800900Y7190230D01*
G75*
G02*
X2769150Y7203590I410J45380D01*
G01*
X2734110Y7238630D01*
G37*
X3297360D02*
G36*
X3297360Y7238630D02*
Y7141710D01*
G75*
G02*
X3301420Y7141980I4150J-31670D01*
G01*
X3345200D01*
G75*
G02*
X3375660Y7111530I0J-30450D01*
G01*
Y7030740D01*
G75*
G02*
X3362360Y7005570I-30480J10D01*
G01*
Y6913850D01*
X4721380D01*
X4396600Y7238630D01*
X3297360D01*
G37*
X4650580D02*
G36*
X4650580Y7238630D02*
X4631030D01*
X4924560Y6945100D01*
G75*
G02*
X4951770Y6936710I5670J-29940D01*
G01*
X4974630Y6913850D01*
X5009300D01*
Y7238630D01*
X4761030D01*
X4857060Y7142600D01*
G75*
G02*
X4884270Y7134210I5670J-29940D01*
G01*
X4941390Y7077090D01*
G75*
G02*
X4950310Y7055550I-21550J-21540D01*
G01*
G75*
G02*
X4941390Y7034010I-30470J0D01*
G01*
X4910430Y7003050D01*
G75*
G02*
X4867350I-21540J21550D01*
G01*
X4810230Y7060170D01*
G75*
G02*
X4801310Y7081710I21550J21540D01*
G01*
G75*
G02*
Y7081760I28090J30D01*
G01*
G75*
G02*
X4801840Y7087370I29940J0D01*
G01*
X4650580Y7238630D01*
G37*
X5087400D02*
G36*
X5087400Y7238630D02*
Y6913850D01*
X5104300D01*
Y7238630D01*
X5087400D01*
G37*
X5292360D02*
G36*
X5292360Y7238630D02*
Y6913850D01*
X5328460D01*
Y6954020D01*
G75*
G02*
X5341760Y6979190I30480J-10D01*
G01*
Y7238630D01*
X5292360D01*
G37*
X5419860D02*
G36*
X5419860Y7238630D02*
Y6979190D01*
G75*
G02*
X5433160Y6954030I-17150J-25160D01*
G01*
Y6913850D01*
X5434450D01*
Y7238630D01*
X5419860D01*
G37*
X5667150Y7079870D02*
G36*
X5667150Y7079870D02*
Y7064030D01*
X5763230D01*
G75*
G02*
X5795410Y7050730I90J-45360D01*
G01*
X5868160Y6977980D01*
G75*
G02*
X5881460Y6945880I-32140J-32120D01*
G01*
Y6945860D01*
Y6945800D01*
Y6913850D01*
X6716960D01*
Y7238630D01*
X6200660D01*
Y7187740D01*
G75*
G02*
Y7187720I-54570J-10D01*
G01*
G75*
G02*
X6155200Y7142280I-45460J0D01*
G01*
X6091420D01*
G75*
G02*
X6045960Y7187720I0J45440D01*
G01*
G75*
G02*
Y7187740I54570J10D01*
G01*
Y7238630D01*
X5667150D01*
Y7172390D01*
G75*
G02*
X5685420Y7178480I18250J-24310D01*
G01*
X5766200D01*
G75*
G02*
X5796660Y7148030I0J-30450D01*
G01*
G75*
G02*
Y7148020I-63660J0D01*
G01*
Y7104240D01*
G75*
G02*
Y7104230I-63660J0D01*
G01*
G75*
G02*
X5766200Y7073780I-30460J0D01*
G01*
X5685420D01*
G75*
G02*
X5667150Y7079870I-20J30400D01*
G01*
G37*
X74660Y7571100D02*
G36*
X74660Y7571100D02*
Y7238630D01*
X742950D01*
Y7571100D01*
X74660D01*
G37*
X833750D02*
G36*
X833750Y7571100D02*
Y7238630D01*
X1965980D01*
G75*
G02*
X2096720I65370J-70780D01*
G01*
X2207100D01*
G75*
G02*
X2189000Y7294850I78250J56220D01*
G01*
G75*
G02*
Y7294860I190990J10D01*
G01*
G75*
G02*
X2247030Y7383250I96340J0D01*
G01*
X2146850D01*
X2085350Y7342060D01*
G75*
G02*
X1935000Y7421850I-54000J79800D01*
G01*
G75*
G02*
Y7421860I190990J10D01*
G01*
G75*
G02*
X2074710Y7507890I96340J0D01*
G01*
X2143530Y7474050D01*
X2224620D01*
G75*
G02*
X2189000Y7548850I60730J74800D01*
G01*
G75*
G02*
X2191610Y7571100I96360J-30D01*
G01*
X1065470D01*
G75*
G02*
X915230I-75120J70250D01*
G01*
X833750D01*
G37*
X2343780Y7471330D02*
G36*
X2343780Y7471330D02*
G75*
G02*
X2360470Y7460700I-15390J-42570D01*
G01*
X2582540Y7238630D01*
X2734110D01*
X2693460Y7279270D01*
G75*
G02*
X2674850Y7288050I2920J30300D01*
G01*
X2670600Y7292300D01*
G75*
G02*
X2660840Y7302060I27120J36880D01*
G01*
X2617730Y7345170D01*
G75*
G02*
X2608810Y7366710I21550J21540D01*
G01*
G75*
G02*
Y7366830I28530J60D01*
G01*
G75*
G02*
X2608900Y7369050I27400J0D01*
G01*
X2474500Y7503450D01*
X2399420D01*
X2343780Y7471330D01*
G37*
X2381700Y7294850D02*
G36*
X2381700Y7294850D02*
G75*
G02*
X2363600Y7238630I-96350J0D01*
G01*
X2454130D01*
X2380030Y7312730D01*
G75*
G02*
X2381700Y7294850I-95230J-17910D01*
G01*
G37*
X2598850Y7571100D02*
G36*
X2598850Y7571100D02*
X2535270D01*
X2679770Y7426600D01*
G75*
G02*
X2691770Y7419210I-9550J-28940D01*
G01*
X2734860Y7376120D01*
G75*
G02*
X2744650Y7366330I-26870J-36660D01*
G01*
X2748890Y7362090D01*
G75*
G02*
X2757670Y7343480I-21520J-21530D01*
G01*
X2820280Y7280860D01*
X2821950Y7280850D01*
Y7337150D01*
X3004150D01*
Y7238630D01*
X3012450D01*
Y7337150D01*
X3034710D01*
Y7356050D01*
X3012450D01*
Y7561150D01*
X3054950D01*
Y7571100D01*
X2737100D01*
X2755970Y7552230D01*
G75*
G02*
X2765760Y7542440I-26870J-36660D01*
G01*
X2770000Y7538200D01*
G75*
G02*
X2778780Y7519590I-21520J-21530D01*
G01*
X2793470Y7504890D01*
X2821950Y7504690D01*
Y7561150D01*
X3004150D01*
Y7356050D01*
X2821950D01*
Y7413890D01*
X2774290Y7414230D01*
G75*
G02*
X2742430Y7427530I240J45380D01*
G01*
X2714570Y7455380D01*
G75*
G02*
X2695960Y7464160I2920J30300D01*
G01*
X2691710Y7468410D01*
G75*
G02*
X2681950Y7478170I27120J36880D01*
G01*
X2652850Y7507270D01*
G75*
G02*
X2643090Y7517030I27120J36880D01*
G01*
X2638840Y7521280D01*
G75*
G02*
X2630060Y7539890I21520J21530D01*
G01*
X2598850Y7571100D01*
G37*
X3161650D02*
G36*
X3161650Y7571100D02*
Y7561150D01*
X3194650D01*
Y7356050D01*
X3172410D01*
Y7337150D01*
X3194650D01*
Y7238630D01*
X3219260D01*
Y7268070D01*
G75*
G02*
X3205960Y7293230I17150J25160D01*
G01*
Y7374020D01*
G75*
G02*
Y7374030I63660J10D01*
G01*
G75*
G02*
X3236420Y7404480I30460J0D01*
G01*
X3280200D01*
G75*
G02*
X3310660Y7374030I0J-30450D01*
G01*
Y7293240D01*
G75*
G02*
X3297360Y7268070I-30480J10D01*
G01*
Y7238630D01*
X4396600D01*
X4064130Y7571100D01*
X3593150D01*
Y7462250D01*
X3543410D01*
X3546790Y7456400D01*
G75*
G02*
X3565660Y7419540I-26570J-36860D01*
G01*
Y7317740D01*
Y7317730D01*
G75*
G02*
Y7317720I-71620J0D01*
G01*
G75*
G02*
X3520200Y7272280I-45460J0D01*
G01*
X3456420D01*
G75*
G02*
X3410960Y7317720I0J45440D01*
G01*
Y7419520D01*
G75*
G02*
X3429830Y7456400I45480J0D01*
G01*
X3433210Y7462250D01*
X3388450D01*
Y7571100D01*
X3161650D01*
G37*
X4211760Y7563610D02*
G36*
X4211760Y7563610D02*
G75*
G02*
Y7563630I31830J10D01*
G01*
Y7571100D01*
X4192550D01*
X4214580Y7549070D01*
G75*
G02*
X4211760Y7563610I36060J14540D01*
G01*
G37*
X4318120Y7571100D02*
G36*
X4318120Y7571100D02*
X4298570D01*
X4631030Y7238630D01*
X4650580D01*
X4318120Y7571100D01*
G37*
X4708460Y7303220D02*
G36*
X4708460Y7303220D02*
G75*
G02*
Y7303230I44070J10D01*
G01*
Y7384020D01*
G75*
G02*
X4721760Y7409190I30480J-10D01*
G01*
Y7571100D01*
X4428570D01*
X4714130Y7285530D01*
G75*
G02*
X4708460Y7303220I24770J17690D01*
G01*
G37*
X4738920Y7272780D02*
G36*
X4738920Y7272780D02*
G75*
G02*
X4721210Y7278450I-20J30440D01*
G01*
X4761030Y7238630D01*
X5009300D01*
Y7299940D01*
X4898240Y7411020D01*
G75*
G02*
X4886800Y7438620I27580J27600D01*
G01*
G75*
G02*
Y7438630I44070J10D01*
G01*
Y7510550D01*
G75*
G02*
X4873460Y7535720I17080J25170D01*
G01*
G75*
G02*
Y7535730I40930J10D01*
G01*
Y7571100D01*
X4799860D01*
Y7409190D01*
G75*
G02*
X4813160Y7384030I-17150J-25160D01*
G01*
Y7303240D01*
G75*
G02*
Y7303230I-63660J0D01*
G01*
G75*
G02*
X4782700Y7272780I-30460J0D01*
G01*
X4738920D01*
G37*
X4964900Y7510600D02*
G36*
X4964900Y7510600D02*
Y7454800D01*
X5061920Y7357770D01*
G75*
G02*
X5087400Y7321150I-13580J-36620D01*
G01*
Y7238630D01*
X5104300D01*
Y7571100D01*
X4978160D01*
Y7535740D01*
G75*
G02*
X4964900Y7510600I-30480J10D01*
G01*
G37*
X5292360Y7571100D02*
G36*
X5292360Y7571100D02*
Y7238630D01*
X5341760D01*
Y7311130D01*
G75*
G02*
Y7311140I35810J10D01*
G01*
G75*
G02*
X5353230Y7338780I39040J0D01*
G01*
X5390660Y7376210D01*
G75*
G02*
X5418310Y7387680I27640J-27570D01*
G01*
X5434450D01*
Y7517450D01*
X5461950D01*
Y7571100D01*
X5292360D01*
G37*
X5419860Y7294960D02*
G36*
X5419860Y7294960D02*
Y7238630D01*
X5434450D01*
Y7309550D01*
X5419860Y7294960D01*
G37*
X5664650Y7571100D02*
G36*
X5664650Y7571100D02*
Y7517450D01*
X5667150D01*
Y7238630D01*
X6045960D01*
Y7289520D01*
G75*
G02*
Y7289540I54570J10D01*
G01*
G75*
G02*
X6091420Y7334980I45460J0D01*
G01*
X6155200D01*
G75*
G02*
X6200660Y7289540I0J-45440D01*
G01*
G75*
G02*
Y7289520I-54570J-10D01*
G01*
Y7238630D01*
X6716960D01*
Y7571100D01*
X6549650D01*
Y7472250D01*
X6396950D01*
Y7537250D01*
X6221950D01*
Y7571100D01*
X5664650D01*
G37*
X74660Y7802850D02*
G36*
X74660Y7802850D02*
Y7571100D01*
X742950D01*
Y7802850D01*
X74660D01*
G37*
X833750D02*
G36*
X833750Y7802850D02*
Y7571100D01*
X915230D01*
G75*
G02*
X887500Y7641350I75120J70250D01*
G01*
G75*
G02*
X1093200I102850J0D01*
G01*
G75*
G02*
X1065470Y7571100I-102850J0D01*
G01*
X2191610D01*
G75*
G02*
X2234120Y7630450I93750J-22250D01*
G01*
X2201770D01*
X2127700Y7587690D01*
Y7579500D01*
X2101820D01*
X2100880D01*
X1935000D01*
Y7772200D01*
X2100880D01*
X2101820D01*
X2127700D01*
Y7764010D01*
X2201770Y7721250D01*
X2558230D01*
G75*
G02*
X2590410Y7707950I90J-45360D01*
G01*
X2694270Y7604100D01*
G75*
G02*
X2712880Y7595320I-2920J-30300D01*
G01*
X2717120Y7591080D01*
G75*
G02*
X2726910Y7581290I-26870J-36660D01*
G01*
X2737100Y7571100D01*
X3054950D01*
Y7638450D01*
X3020050D01*
Y7802850D01*
X2996550D01*
Y7638450D01*
X2791450D01*
Y7802850D01*
X1585200D01*
G75*
G02*
X1207500I-188850J0D01*
G01*
X1035320D01*
G75*
G02*
X945390I-44960J92500D01*
G01*
X833750D01*
G37*
X2336700Y7630450D02*
G36*
X2336700Y7630450D02*
X2399420Y7594250D01*
X2493310D01*
G75*
G02*
X2525470Y7580900I0J-45410D01*
G01*
X2535270Y7571100D01*
X2598850D01*
X2539500Y7630450D01*
X2336700D01*
G37*
X3161650Y7638450D02*
G36*
X3161650Y7638450D02*
Y7571100D01*
X3388450D01*
Y7634950D01*
X3593150D01*
Y7571100D01*
X4064130D01*
X3832380Y7802850D01*
X3593150D01*
Y7647250D01*
X3388450D01*
Y7675530D01*
X3375080D01*
G75*
G02*
X3330200Y7637280I-44890J7210D01*
G01*
X3266420D01*
G75*
G02*
X3225150Y7663680I10J45470D01*
G01*
Y7638450D01*
X3161650D01*
G37*
X3371800Y7802850D02*
G36*
X3371800Y7802850D02*
G75*
G02*
X3375080Y7791730I-41610J-18320D01*
G01*
X3388450D01*
Y7802850D01*
X3371800D01*
G37*
X3960800D02*
G36*
X3960800Y7802850D02*
X4192550Y7571100D01*
X4211760D01*
Y7763070D01*
G75*
G02*
X4198460Y7788230I17150J25160D01*
G01*
Y7802850D01*
X3960800D01*
G37*
X4289860Y7599360D02*
G36*
X4289860Y7599360D02*
Y7579810D01*
X4298570Y7571100D01*
X4318120D01*
X4289860Y7599360D01*
G37*
X4354860Y7802850D02*
G36*
X4354860Y7802850D02*
Y7644810D01*
X4428570Y7571100D01*
X4721760D01*
Y7663070D01*
G75*
G02*
X4708460Y7688230I17150J25160D01*
G01*
Y7769020D01*
G75*
G02*
Y7769030I63660J10D01*
G01*
G75*
G02*
X4738920Y7799480I30460J0D01*
G01*
X4782700D01*
G75*
G02*
X4813160Y7769030I0J-30450D01*
G01*
Y7688240D01*
G75*
G02*
X4799860Y7663070I-30480J10D01*
G01*
Y7571100D01*
X4873460D01*
Y7616520D01*
G75*
G02*
Y7616530I63660J10D01*
G01*
G75*
G02*
X4903920Y7646980I30460J0D01*
G01*
X4947700D01*
G75*
G02*
X4978160Y7616530I0J-30450D01*
G01*
Y7571100D01*
X5104300D01*
Y7802850D01*
X4354860D01*
G37*
X5292360Y7774960D02*
G36*
X5292360Y7774960D02*
Y7571100D01*
X5461950D01*
Y7649950D01*
X5664650D01*
Y7571100D01*
X6221950D01*
Y7669950D01*
X6549650D01*
Y7571100D01*
X6716960D01*
Y7802850D01*
X5320250D01*
X5292360Y7774960D01*
G37*
X74660Y8016350D02*
G36*
X74660Y8016350D02*
Y7802850D01*
X742950D01*
Y7851730D01*
G75*
G02*
X742910Y7853630I45130J1900D01*
G01*
G75*
G02*
X830030Y7940750I87120J0D01*
G01*
X863280D01*
X938240Y7984020D01*
G75*
G02*
X1093200Y7895350I52110J-88670D01*
G01*
G75*
G02*
X1035320Y7802850I-102850J0D01*
G01*
X1207500D01*
G75*
G02*
X1585200I188850J0D01*
G01*
X2791450D01*
Y7830850D01*
X2825470D01*
G75*
G02*
X2816660Y7857740I36650J26890D01*
G01*
Y7959520D01*
G75*
G02*
Y7959540I54570J10D01*
G01*
G75*
G02*
X2862120Y8004980I45460J0D01*
G01*
X2925900D01*
G75*
G02*
X2971360Y7959540I0J-45440D01*
G01*
G75*
G02*
Y7959520I-54570J-10D01*
G01*
Y7857740D01*
G75*
G02*
X2962550Y7830850I-45460J0D01*
G01*
X2996550D01*
Y7802850D01*
X3020050D01*
Y7830850D01*
X3225150D01*
Y7803580D01*
G75*
G02*
X3266420Y7829980I41280J-19070D01*
G01*
X3330200D01*
G75*
G02*
X3371800Y7802850I-10J-45470D01*
G01*
X3388450D01*
Y7819950D01*
X3593150D01*
Y7802850D01*
X3832380D01*
X3708760Y7926470D01*
G75*
G02*
X3695410Y7958630I32060J32160D01*
G01*
Y8016350D01*
X1847700D01*
G75*
G02*
X1555000I-146350J0D01*
G01*
X74660D01*
G37*
X833750Y7849950D02*
G36*
X833750Y7849950D02*
Y7802850D01*
X945390D01*
G75*
G02*
X938240Y7806680I44970J92540D01*
G01*
X863280Y7849950D01*
X833750D01*
G37*
X3786210Y8016350D02*
G36*
X3786210Y8016350D02*
Y7977440D01*
X3960800Y7802850D01*
X4198460D01*
Y7869020D01*
G75*
G02*
Y7869030I63660J10D01*
G01*
G75*
G02*
X4228920Y7899480I30460J0D01*
G01*
X4272700D01*
G75*
G02*
X4276760Y7899210I-90J-31940D01*
G01*
Y8016350D01*
X3786210D01*
G37*
X4354860D02*
G36*
X4354860Y8016350D02*
Y7802850D01*
X5104300D01*
Y8016350D01*
X4354860D01*
G37*
X5182400D02*
G36*
X5182400Y8016350D02*
Y7975450D01*
X5223300Y8016350D01*
X5182400D01*
G37*
X5533760D02*
G36*
X5533760Y8016350D02*
X5320250Y7802850D01*
X6716960D01*
Y8016350D01*
X5533760D01*
G37*
X74660Y8268630D02*
G36*
X74660Y8268630D02*
Y8016350D01*
X1555000D01*
G75*
G02*
X1847700I146350J0D01*
G01*
X3695410D01*
Y8183770D01*
G75*
G02*
X3499460Y8268630I-79600J84860D01*
G01*
X74660D01*
G37*
X3786210Y8187710D02*
G36*
X3786210Y8187710D02*
Y8016350D01*
X4276760D01*
Y8124850D01*
X4262300Y8254690D01*
G75*
G02*
X4261460Y8268630I115240J13940D01*
G01*
X4240160D01*
G75*
G02*
X4123810Y8152280I-116350J0D01*
G01*
G75*
G02*
X4007460Y8268630I0J116350D01*
G01*
X3986160D01*
G75*
G02*
X3786210Y8187710I-116350J0D01*
G01*
G37*
X4354860Y8107260D02*
G36*
X4354860Y8107260D02*
Y8016350D01*
X5104300D01*
Y8103060D01*
X5040390Y8208180D01*
G75*
G02*
X5039990Y8208850I25310J15560D01*
G01*
G75*
G02*
X5023450Y8268630I99810J59790D01*
G01*
X5002160D01*
G75*
G02*
X4885810Y8152280I-116350J0D01*
G01*
G75*
G02*
X4769460Y8268630I0J116350D01*
G01*
X4748160D01*
G75*
G02*
X4631810Y8152280I-116350J0D01*
G01*
G75*
G02*
X4515460Y8268630I0J116350D01*
G01*
X4494160D01*
G75*
G02*
Y8268610I-127320J-10D01*
G01*
G75*
G02*
X4446080Y8174410I-116320J0D01*
G01*
X4354860Y8107260D01*
G37*
X5182400Y8104160D02*
G36*
X5182400Y8104160D02*
Y8016350D01*
X5223300D01*
X5354760Y8147810D01*
Y8159030D01*
G75*
G02*
X5277460Y8268630I39050J109600D01*
G01*
X5256160D01*
G75*
G02*
X5241240Y8211630I-116350J0D01*
G01*
X5182400Y8104160D01*
G37*
X5538960Y8021550D02*
G36*
X5538960Y8021550D02*
X5533760Y8016350D01*
X6716960D01*
Y8268630D01*
X5559700D01*
G75*
G02*
X5559860Y8261130I-176440J-7520D01*
G01*
Y8056130D01*
G75*
G02*
X5538960Y8021550I-39060J0D01*
G01*
G37*
X74660Y8397230D02*
G36*
X74660Y8397230D02*
Y8268630D01*
X3499460D01*
G75*
G02*
X3695410Y8353490I116350J0D01*
G01*
Y8379820D01*
X3660170Y8415070D01*
G75*
G02*
X3499460Y8522630I-44360J107570D01*
G01*
X594660D01*
Y8477740D01*
G75*
G02*
X479200Y8362280I-115460J0D01*
G01*
X157420D01*
G75*
G02*
X74660Y8397230I20J115500D01*
G01*
G37*
X3732160Y8522630D02*
G36*
X3732160Y8522630D02*
G75*
G02*
X3723950Y8479700I-116350J0D01*
G01*
X3772860Y8430790D01*
G75*
G02*
X3786210Y8398630I-32060J-32160D01*
G01*
Y8349550D01*
G75*
G02*
X3986160Y8268630I83600J-80920D01*
G01*
X4007460D01*
G75*
G02*
X4123810Y8384980I116350J0D01*
G01*
G75*
G02*
X4240160Y8268630I0J-116350D01*
G01*
X4261460D01*
G75*
G02*
X4494160I116350J0D01*
G01*
X4515460D01*
G75*
G02*
X4631810Y8384980I116350J0D01*
G01*
G75*
G02*
X4748160Y8268630I0J-116350D01*
G01*
X4769460D01*
G75*
G02*
X4885810Y8384980I116350J0D01*
G01*
G75*
G02*
X5002160Y8268630I0J-116350D01*
G01*
X5023450D01*
G75*
G02*
X5139810Y8384980I116360J0D01*
G01*
G75*
G02*
X5256160Y8268630I0J-116350D01*
G01*
X5277460D01*
G75*
G02*
X5321250Y8359580I116340J0D01*
G01*
X5260810D01*
G75*
G02*
X5233160Y8371050I-10J39040D01*
G01*
X5227210Y8377010D01*
X5108150Y8410670D01*
G75*
G02*
X5107960Y8410720I250J1330D01*
G01*
G75*
G02*
X5023450Y8522630I31840J111910D01*
G01*
X5002160D01*
G75*
G02*
X4885810Y8406280I-116350J0D01*
G01*
G75*
G02*
X4769460Y8522630I0J116350D01*
G01*
X4748160D01*
G75*
G02*
X4631810Y8406280I-116350J0D01*
G01*
G75*
G02*
X4515460Y8522630I0J116350D01*
G01*
X4494160D01*
G75*
G02*
X4377810Y8406280I-116350J0D01*
G01*
G75*
G02*
X4261460Y8522630I0J116350D01*
G01*
X4240160D01*
G75*
G02*
X4123810Y8406280I-116350J0D01*
G01*
G75*
G02*
X4007460Y8522630I0J116350D01*
G01*
X3986160D01*
G75*
G02*
X3869810Y8406280I-116350J0D01*
G01*
G75*
G02*
X3753460Y8522630I0J116350D01*
G01*
X3732160D01*
G37*
X5277460D02*
G36*
X5277460Y8522630D02*
X5259820D01*
X5281350Y8437680D01*
X5314310D01*
G75*
G02*
X5277460Y8522630I79490J84950D01*
G01*
G37*
X5510160D02*
G36*
X5510160Y8522630D02*
G75*
G02*
X5453860Y8422970I-116360J0D01*
G01*
G75*
G02*
X5559700Y8268630I-70560J-161850D01*
G01*
X6716960D01*
Y8416310D01*
G75*
G02*
X6619200Y8362280I-97770J61440D01*
G01*
X6297420D01*
G75*
G02*
X6181960Y8477740I0J115460D01*
G01*
Y8522630D01*
X5510160D01*
G37*
X594660Y8799520D02*
G36*
X594660Y8799520D02*
Y8522630D01*
X3499460D01*
G75*
G02*
X3615810Y8638980I116350J0D01*
G01*
G75*
G02*
X3732160Y8522630I0J-116350D01*
G01*
X3753460D01*
G75*
G02*
X3869810Y8638980I116350J0D01*
G01*
G75*
G02*
X3986160Y8522630I0J-116350D01*
G01*
X4007460D01*
G75*
G02*
X4123810Y8638980I116350J0D01*
G01*
G75*
G02*
X4240160Y8522630I0J-116350D01*
G01*
X4261460D01*
G75*
G02*
X4377810Y8638980I116350J0D01*
G01*
G75*
G02*
X4494160Y8522630I0J-116350D01*
G01*
X4515460D01*
G75*
G02*
X4631810Y8638980I116350J0D01*
G01*
G75*
G02*
X4748160Y8522630I0J-116350D01*
G01*
X4769460D01*
G75*
G02*
X4885810Y8638980I116350J0D01*
G01*
G75*
G02*
X5002160Y8522630I0J-116350D01*
G01*
X5023450D01*
G75*
G02*
X5139810Y8638980I116360J0D01*
G01*
G75*
G02*
X5252910Y8549920I0J-116350D01*
G01*
X5259820Y8522630D01*
X5277460D01*
G75*
G02*
X5393810Y8638980I116350J0D01*
G01*
G75*
G02*
X5510160Y8522630I0J-116350D01*
G01*
X6181960D01*
Y8799520D01*
G75*
G02*
X6214420Y8879780I115450J0D01*
G01*
X562200D01*
G75*
G02*
X594660Y8799530I-82970J-80250D01*
G01*
G75*
G02*
Y8799520I-114590J0D01*
G01*
G37*
X553310Y4565150D02*
Y4472160D01*
G75*
G02*
X633540Y4427700I20000J-58530D01*
G01*
X679650D01*
Y4421130D01*
X701950D01*
Y4495700D01*
X907150D01*
Y4421130D01*
X988310D01*
Y4958630D01*
X2200810D01*
Y5636130D01*
X1721650Y5636860D01*
Y5093150D01*
X994950D01*
Y5637960D01*
X553310Y5638630D01*
Y4757550D01*
X579600D01*
Y4565150D01*
X553310D01*
X1812500Y5503250D02*
X2200200D01*
Y5090550D01*
X1812500D01*
Y5503250D01*
X603100Y4757550D02*
X808200D01*
Y4565150D01*
X603100D01*
Y4757550D01*
X559660Y4565150D02*
G36*
X559660Y4565150D02*
Y4473960D01*
G75*
G02*
X633540Y4427700I13650J-60330D01*
G01*
X679650D01*
Y4427480D01*
X701950D01*
Y4495700D01*
X907150D01*
Y4427480D01*
X988310D01*
Y4661350D01*
X808200D01*
Y4565150D01*
X603100D01*
Y4661350D01*
X579600D01*
Y4565150D01*
X559660D01*
G37*
Y5296900D02*
G36*
X559660Y5296900D02*
Y4757550D01*
X579600D01*
Y4661350D01*
X603100D01*
Y4757550D01*
X808200D01*
Y4661350D01*
X988310D01*
Y4958630D01*
X2194460D01*
Y5090550D01*
X1812500D01*
Y5296900D01*
X1721650D01*
Y5093150D01*
X994950D01*
Y5296900D01*
X559660D01*
G37*
Y5632280D02*
G36*
X559660Y5632280D02*
Y5296900D01*
X994950D01*
Y5632280D01*
X559660D01*
G37*
X1721650D02*
G36*
X1721650Y5632280D02*
Y5296900D01*
X1812500D01*
Y5503250D01*
X2194460D01*
Y5632280D01*
X1721650D01*
G37*
X748310Y3997000D02*
Y3183630D01*
X1021760D01*
G75*
G02*
X997110Y3244390I62550J60760D01*
G01*
G75*
G02*
X1171510I87200J0D01*
G01*
G75*
G02*
X1146860Y3183630I-87200J0D01*
G01*
X1238310D01*
X1238210Y3136750D01*
X1306540D01*
G75*
G02*
X1351420Y3174980I44880J-7230D01*
G01*
X1415200D01*
G75*
G02*
X1460080Y3136750I0J-45460D01*
G01*
X1466450D01*
Y3213250D01*
X1734150D01*
Y2940550D01*
X1466450D01*
Y3020550D01*
X1460090D01*
G75*
G02*
X1415200Y2982280I-44890J7190D01*
G01*
X1351420D01*
G75*
G02*
X1306530Y3020550I0J45460D01*
G01*
X1237970D01*
X1235810Y1991130D01*
X1268100D01*
G75*
G02*
X1285810Y1996340I17710J-27500D01*
G01*
X2553030D01*
X2552670Y2172440D01*
Y2172540D01*
G75*
G02*
Y2172950I757780J210D01*
G01*
G75*
G02*
Y2173080I827610J70D01*
G01*
G75*
G02*
Y2173220I729220J70D01*
G01*
G75*
G02*
Y2173610I677130J200D01*
G01*
Y2178610D01*
G75*
G02*
Y2178630I32740J10D01*
G01*
Y2178700D01*
X2550310Y3341810D01*
G75*
G03*
Y3341920I-6302540J60D01*
G01*
Y3343700D01*
X2549480Y3749860D01*
Y3750050D01*
X2548880Y4047080D01*
G75*
G03*
Y4047190I-6302540J60D01*
G01*
Y4047280D01*
X2521420D01*
G75*
G02*
X2492150Y4057960I0J45460D01*
G01*
Y4030550D01*
X2214450D01*
Y4258250D01*
X2492150D01*
Y4229300D01*
G75*
G02*
X2521420Y4239980I29270J-34780D01*
G01*
X2548490D01*
Y4242000D01*
X2548220Y4375440D01*
Y4375520D01*
G75*
G03*
X2548200Y4375540I0J20D01*
G01*
X2492150D01*
Y4330550D01*
X2214450D01*
Y4400940D01*
X1029630D01*
G75*
G02*
X1020420Y4401890I-1280J32710D01*
G01*
X1020380Y4401900D01*
G75*
G02*
X1015810Y4403410I7950J31730D01*
G01*
G75*
G02*
X988310Y4388420I-27500J17720D01*
G01*
X907150D01*
Y4378000D01*
X748310D01*
Y4368700D01*
X907150D01*
Y4251000D01*
X748310D01*
Y4241700D01*
X907150D01*
Y4124000D01*
X748310D01*
Y4114700D01*
X907150D01*
Y3997000D01*
X748310D01*
X1842150Y4119350D02*
X2034550D01*
Y3914250D01*
X1996410D01*
Y3788630D01*
G75*
G02*
X1996360Y3786260I-58250J40D01*
G01*
G75*
G02*
X1888160Y3628040I-180560J7370D01*
G01*
Y3620240D01*
G75*
G02*
X1842700Y3574780I-45460J0D01*
G01*
X1778920D01*
G75*
G02*
X1737960Y3600530I0J45460D01*
G01*
X1734150D01*
Y3380550D01*
X1466450D01*
Y3653250D01*
X1543210D01*
Y3670550D01*
X1467450D01*
Y3953250D01*
X1735150D01*
Y3734300D01*
G75*
G02*
X1778920Y3767480I43770J-12280D01*
G01*
X1842700D01*
G75*
G02*
X1869880Y3758460I0J-45460D01*
G01*
G75*
G03*
X1880210Y3790000I-54060J35170D01*
G01*
Y3914250D01*
X1842150D01*
Y4119350D01*
X2079450Y3475750D02*
X2547150D01*
Y3208050D01*
X2079450D01*
Y3270350D01*
G75*
G02*
X2045200Y3254780I-34250J29890D01*
G01*
X1981420D01*
G75*
G02*
X1935960Y3300240I0J45460D01*
G01*
Y3402020D01*
G75*
G02*
X1981420Y3447480I45460J0D01*
G01*
X2045200D01*
G75*
G02*
X2079450Y3431910I0J-45460D01*
G01*
Y3475750D01*
X2071950Y2307450D02*
X2539650D01*
Y2039750D01*
X2071950D01*
Y2307450D01*
X1842150Y4347950D02*
X2034550D01*
Y4142850D01*
X1842150D01*
Y4165660D01*
G75*
G02*
X1829200Y4163780I-12940J43580D01*
G01*
X1735150D01*
Y4100550D01*
X1467450D01*
Y4383250D01*
X1735150D01*
Y4318480D01*
X1829200D01*
G75*
G02*
X1842150Y4316600I10J-45460D01*
G01*
Y4347950D01*
X997110Y3752390D02*
G75*
G02*
X1171510I87200J0D01*
G01*
G75*
G02*
X997110I-87200J0D01*
G01*
X1236190Y2173600D02*
G36*
X1236190Y2173600D02*
X1235820Y1997480D01*
X2546680D01*
Y2173600D01*
X2539650D01*
Y2039750D01*
X2071950D01*
Y2173600D01*
X1236190D01*
G37*
X754660Y3341900D02*
G36*
X754660Y3341900D02*
Y3183630D01*
X1021760D01*
G75*
G02*
X997110Y3244390I62570J60760D01*
G01*
G75*
G02*
X1171510I87200J0D01*
G01*
G75*
G02*
X1146860Y3183630I-87270J20D01*
G01*
X1238310D01*
X1238210Y3136750D01*
X1306540D01*
G75*
G02*
X1351420Y3174980I44870J-7220D01*
G01*
X1415200D01*
G75*
G02*
X1460080Y3136750I10J-45450D01*
G01*
X1466450D01*
Y3213250D01*
X1734150D01*
Y2940550D01*
X1466450D01*
Y3020550D01*
X1460090D01*
G75*
G02*
X1415200Y2982280I-44910J7210D01*
G01*
X1351420D01*
G75*
G02*
X1306530Y3020550I20J45480D01*
G01*
X1237970D01*
X1236190Y2173600D01*
X2071950D01*
Y2307450D01*
X2539650D01*
Y2173600D01*
X2546680D01*
Y3208050D01*
X2079450D01*
Y3270350D01*
G75*
G02*
X2045200Y3254780I-34270J29940D01*
G01*
X1981420D01*
G75*
G02*
X1935960Y3300220I0J45440D01*
G01*
G75*
G02*
Y3300240I54570J10D01*
G01*
Y3341900D01*
X754660D01*
G37*
Y3749950D02*
G36*
X754660Y3749950D02*
Y3341900D01*
X1935960D01*
Y3402020D01*
G75*
G02*
Y3402040I54570J10D01*
G01*
G75*
G02*
X1981420Y3447480I45460J0D01*
G01*
X2045200D01*
G75*
G02*
X2079450Y3431910I-20J-45510D01*
G01*
Y3475750D01*
X2546680D01*
Y3749950D01*
X1991150D01*
G75*
G02*
X1888160Y3628040I-175330J43660D01*
G01*
Y3620240D01*
G75*
G02*
Y3620220I-54570J-10D01*
G01*
G75*
G02*
X1842700Y3574780I-45460J0D01*
G01*
X1778920D01*
G75*
G02*
X1737960Y3600530I0J45440D01*
G01*
X1734150D01*
Y3380550D01*
X1466450D01*
Y3653250D01*
X1543210D01*
Y3670550D01*
X1467450D01*
Y3749950D01*
X1171480D01*
G75*
G02*
X997140I-87170J2440D01*
G01*
X754660D01*
G37*
X1735150D02*
G36*
X1735150Y3749950D02*
Y3734300D01*
G75*
G02*
X1743050Y3749950I43770J-12270D01*
G01*
X1735150D01*
G37*
X754660Y3997000D02*
G36*
X754660Y3997000D02*
Y3749950D01*
X997140D01*
G75*
G02*
X997110Y3752390I87190J2290D01*
G01*
G75*
G02*
X1171510I87200J0D01*
G01*
G75*
G02*
X1171480Y3749950I-87220J-150D01*
G01*
X1467450D01*
Y3953250D01*
X1735150D01*
Y3749950D01*
X1743050D01*
G75*
G02*
X1778920Y3767480I35870J-27930D01*
G01*
X1842700D01*
G75*
G02*
X1869880Y3758460I20J-45390D01*
G01*
G75*
G03*
X1880210Y3790000I-53990J35140D01*
G01*
Y3914250D01*
X1842150D01*
Y4119350D01*
X2034550D01*
Y3914250D01*
X1996410D01*
Y3788630D01*
G75*
G02*
Y3788430I-45650J-100D01*
G01*
G75*
G02*
X1996360Y3786260I-46620J-10D01*
G01*
G75*
G02*
X1991150Y3749950I-180550J7380D01*
G01*
X2546680D01*
Y4047280D01*
X2521420D01*
G75*
G02*
X2492150Y4057960I-20J45390D01*
G01*
Y4030550D01*
X2214450D01*
Y4241900D01*
X2034550D01*
Y4142850D01*
X1842150D01*
Y4165660D01*
G75*
G02*
X1829200Y4163780I-12920J43470D01*
G01*
X1735150D01*
Y4100550D01*
X1467450D01*
Y4241900D01*
X754660D01*
Y4241700D01*
X907150D01*
Y4124000D01*
X754660D01*
Y4114700D01*
X907150D01*
Y3997000D01*
X754660D01*
G37*
X2492150Y4241900D02*
G36*
X2492150Y4241900D02*
Y4229300D01*
G75*
G02*
X2521420Y4239980I29250J-34710D01*
G01*
X2546680D01*
Y4241900D01*
X2492150D01*
G37*
X754660Y4251000D02*
G36*
X754660Y4251000D02*
Y4241900D01*
X1467450D01*
Y4383250D01*
X1735150D01*
Y4318480D01*
X1829200D01*
G75*
G02*
X1842150Y4316600I30J-45350D01*
G01*
Y4347950D01*
X2034550D01*
Y4241900D01*
X2214450D01*
Y4258250D01*
X2492150D01*
Y4241900D01*
X2546680D01*
Y4375540D01*
X2492150D01*
Y4330550D01*
X2214450D01*
Y4397060D01*
X1010460D01*
G75*
G02*
X988310Y4388420I-22150J24070D01*
G01*
X907150D01*
Y4378000D01*
X754660D01*
Y4368700D01*
X907150D01*
Y4251000D01*
X754660D01*
G37*
X1028310Y4576150D02*
Y4433660D01*
G75*
G02*
X1028320I10J-40930D01*
G01*
G75*
G03*
X1028360Y4433650I40J90D01*
G01*
X2214450D01*
Y4558250D01*
X2492150D01*
Y4408250D01*
X2548220D01*
G75*
G02*
X2580930Y4375560I0J-32690D01*
G01*
X2581200Y4242020D01*
G75*
G02*
Y4241900I-33700J-60D01*
G01*
Y4239980D01*
X2585200D01*
G75*
G02*
X2614450Y4229320I0J-45460D01*
G01*
Y4258250D01*
X2892150D01*
Y4030550D01*
X2614450D01*
Y4057940D01*
G75*
G02*
X2585200Y4047280I-29250J34800D01*
G01*
X2581590D01*
Y4047190D01*
X2582190Y3750070D01*
G75*
G02*
Y3749970I-33120J-50D01*
G01*
X2583020Y3343720D01*
Y3341920D01*
X2585380Y2178720D01*
G75*
G03*
Y2178610I6302540J-50D01*
G01*
Y2173600D01*
G75*
G02*
X2585360Y2172550I-32690J100D01*
G01*
X2585810Y1963630D01*
X1285810D01*
Y98630D01*
X3403310D01*
Y639950D01*
X3203800D01*
Y677750D01*
X3079200D01*
X3044300Y642850D01*
Y487800D01*
X2788400D01*
Y692900D01*
X2943450D01*
X3019320Y768760D01*
G75*
G02*
X3057100Y784450I37790J-37660D01*
G01*
X3203800D01*
Y822250D01*
X3403310D01*
Y830450D01*
X3203800D01*
Y1012750D01*
X3237500D01*
Y1080060D01*
G75*
G02*
X3235200Y1080000I-2340J45400D01*
G01*
X3171420D01*
G75*
G02*
X3129660Y1107500I0J45460D01*
G01*
X3125200D01*
Y990000D01*
X2897500D01*
Y1107500D01*
X2786960D01*
G75*
G02*
X2745200Y1080000I-41760J17960D01*
G01*
X2681420D01*
G75*
G02*
X2639660Y1107500I0J45460D01*
G01*
X2495200D01*
Y1102500D01*
X2267500D01*
Y1107300D01*
X1841350D01*
G75*
G02*
X1802220Y1119500I0J68850D01*
G01*
X1745150D01*
Y1324600D01*
X1937550D01*
Y1245000D01*
X1987150D01*
Y1321850D01*
X2179550D01*
Y1245000D01*
X2267500D01*
Y1250200D01*
X2495200D01*
Y1245200D01*
X2639660D01*
G75*
G02*
X2681420Y1272700I41760J-17960D01*
G01*
X2745200D01*
G75*
G02*
X2786960Y1245200I0J-45460D01*
G01*
X2897500D01*
Y1362700D01*
X3125200D01*
Y1245200D01*
X3129660D01*
G75*
G02*
X3171420Y1272700I41760J-17960D01*
G01*
X3235200D01*
G75*
G02*
X3278840Y1239980I0J-45460D01*
G01*
X3306350D01*
G75*
G02*
X3375200Y1171130I0J-68850D01*
G01*
Y1012750D01*
X3403310D01*
Y5017160D01*
G75*
G02*
X3397910Y5038630I39990J21470D01*
G01*
G75*
G02*
Y5038650I16140J10D01*
G01*
G75*
G02*
Y5038710I16290J30D01*
G01*
Y5531370D01*
G75*
G02*
X3390960Y5550740I23510J19370D01*
G01*
Y5628630D01*
X2295810D01*
Y4916130D01*
X1028310D01*
Y4856850D01*
X1231850D01*
Y4775550D01*
X1278920Y4776000D01*
G75*
G02*
X1323920Y4814980I45000J-6480D01*
G01*
X1387700D01*
G75*
G02*
X1432690Y4776020I0J-45460D01*
G01*
X1484750Y4775530D01*
Y4856850D01*
X1689850D01*
Y4576150D01*
X1484750D01*
Y4659320D01*
X1432460Y4659810D01*
G75*
G02*
X1387700Y4622280I-44760J7930D01*
G01*
X1323920D01*
G75*
G02*
X1279160Y4659800I0J45460D01*
G01*
X1231850Y4659350D01*
Y4576150D01*
X1028310D01*
X2614450Y4558250D02*
X2892150D01*
Y4330550D01*
X2614450D01*
Y4558250D01*
X2842500Y5503250D02*
X3230200D01*
Y5090550D01*
X2842500D01*
Y5503250D01*
X3229530Y2307450D02*
X3389650D01*
Y2039750D01*
X3232500D01*
G75*
G02*
X3233160Y2032020I-44800J-7720D01*
G01*
Y1930240D01*
G75*
G02*
X3187700Y1884780I-45460J0D01*
G01*
X3123920D01*
G75*
G02*
X3078460Y1930240I0J45460D01*
G01*
Y2032020D01*
G75*
G02*
X3079120Y2039750I45460J10D01*
G01*
X2921950D01*
Y2307450D01*
X3082090D01*
G75*
G02*
X3078460Y2325240I41830J17800D01*
G01*
Y2427020D01*
G75*
G02*
X3123920Y2472480I45460J0D01*
G01*
X3187700D01*
G75*
G02*
X3233160Y2427020I0J-45460D01*
G01*
Y2325240D01*
G75*
G02*
X3229530Y2307450I-45460J10D01*
G01*
X3240120Y3475750D02*
X3397150D01*
Y3208050D01*
X3238020D01*
G75*
G02*
X3238160Y3204520I-45330J-3570D01*
G01*
Y3102740D01*
G75*
G02*
X3192700Y3057280I-45460J0D01*
G01*
X3128920D01*
G75*
G02*
X3083460Y3102740I0J45460D01*
G01*
Y3204520D01*
G75*
G02*
X3083600Y3208050I45470J-40D01*
G01*
X2929450D01*
Y3475750D01*
X3086500D01*
G75*
G02*
X3085960Y3482740I44920J6990D01*
G01*
Y3584520D01*
G75*
G02*
X3131420Y3629980I45460J0D01*
G01*
X3195200D01*
G75*
G02*
X3240660Y3584520I0J-45460D01*
G01*
Y3482740D01*
G75*
G02*
X3240120Y3475750I-45460J0D01*
G01*
X3113250Y4526950D02*
X3318350D01*
Y4321850D01*
X3113250D01*
Y4526950D01*
X1434200Y808480D02*
G75*
G02*
X1479660Y763020I0J-45460D01*
G01*
Y699240D01*
G75*
G02*
X1434200Y653780I-45460J0D01*
G01*
X1332420D01*
G75*
G02*
X1286960Y699240I0J45460D01*
G01*
Y763020D01*
G75*
G02*
X1332420Y808480I45460J0D01*
G01*
X1434200D01*
X1314650Y1284350D02*
X1507050D01*
Y1079250D01*
X1314650D01*
Y1284350D01*
X1593310Y443280D02*
G75*
G02*
X1685460Y351130I0J-92150D01*
G01*
G75*
G02*
X1593310Y258980I-92150J0D01*
G01*
G75*
G02*
X1501160Y351130I0J92150D01*
G01*
G75*
G02*
X1593310Y443280I92150J0D01*
G01*
X2267500Y1480200D02*
X2495200D01*
Y1332500D01*
X2267500D01*
Y1348250D01*
X2179550D01*
Y1345350D01*
X1987150D01*
Y1348250D01*
X1937550D01*
Y1348100D01*
X1745150D01*
Y1348250D01*
X1712550D01*
Y1310350D01*
X1520150D01*
Y1348250D01*
X1507050D01*
Y1307850D01*
X1314650D01*
Y1512950D01*
X1507050D01*
Y1464450D01*
X1520150D01*
Y1515450D01*
X1558250D01*
Y1535600D01*
G75*
G02*
X1539000Y1572740I26210J37140D01*
G01*
Y1674520D01*
G75*
G02*
X1584460Y1719980I45460J0D01*
G01*
X1648240D01*
G75*
G02*
X1693700Y1674520I0J-45460D01*
G01*
Y1572740D01*
G75*
G02*
X1674450Y1535600I-45460J0D01*
G01*
Y1515450D01*
X1712550D01*
Y1464450D01*
X1745150D01*
Y1553200D01*
X1771190D01*
G75*
G02*
X1764000Y1577740I38270J24540D01*
G01*
Y1679520D01*
G75*
G02*
X1809460Y1724980I45460J0D01*
G01*
X1873240D01*
G75*
G02*
X1918700Y1679520I0J-45460D01*
G01*
Y1577740D01*
G75*
G02*
X1911510Y1553200I-45460J0D01*
G01*
X1937550D01*
Y1464450D01*
X1987150D01*
Y1550450D01*
X2179550D01*
Y1464450D01*
X2267500D01*
Y1480200D01*
X1520150Y1286850D02*
X1712550D01*
Y1081750D01*
X1520150D01*
Y1286850D01*
X2749200Y1022980D02*
G75*
G02*
X2794660Y977520I0J-45460D01*
G01*
Y913740D01*
G75*
G02*
X2749200Y868280I-45460J0D01*
G01*
X2647420D01*
G75*
G02*
X2601960Y913740I0J45460D01*
G01*
Y977520D01*
G75*
G02*
X2647420Y1022980I45460J0D01*
G01*
X2749200D01*
X2788400Y438900D02*
X3044300D01*
Y233800D01*
X2788400D01*
Y438900D01*
X2267500Y1020200D02*
X2495200D01*
Y872500D01*
X2267500D01*
Y1020200D01*
X2289250Y692900D02*
X2444300D01*
Y487800D01*
X2188400D01*
Y642850D01*
X2126220Y705030D01*
X2045850D01*
Y667250D01*
X1840750D01*
Y849500D01*
X2045850D01*
Y811730D01*
X2148320D01*
G75*
G02*
X2186100Y796040I-10J-53350D01*
G01*
X2289250Y692900D01*
X2188400Y438900D02*
X2444300D01*
Y233800D01*
X2188400D01*
Y438900D01*
X1840750Y1040000D02*
X2045850D01*
Y857750D01*
X1840750D01*
Y1040000D01*
X1285810Y351130D02*
G36*
X1285810Y351130D02*
Y104980D01*
X3396960D01*
Y351130D01*
X3044300D01*
Y233800D01*
X2788400D01*
Y351130D01*
X2444300D01*
Y233800D01*
X2188400D01*
Y351130D01*
X1685460D01*
G75*
G02*
X1593310Y258980I-92150J0D01*
G01*
G75*
G02*
X1501160Y351130I0J92150D01*
G01*
X1285810D01*
G37*
Y731130D02*
G36*
X1285810Y731130D02*
Y351130D01*
X1501160D01*
G75*
G02*
X1593310Y443280I92150J0D01*
G01*
G75*
G02*
X1685460Y351130I0J-92150D01*
G01*
X2188400D01*
Y438900D01*
X2444300D01*
Y351130D01*
X2788400D01*
Y438900D01*
X3044300D01*
Y351130D01*
X3396960D01*
Y639950D01*
X3203800D01*
Y677750D01*
X3079200D01*
X3044300Y642850D01*
Y487800D01*
X2788400D01*
Y692900D01*
X2943450D01*
X2981690Y731130D01*
X2251020D01*
X2289250Y692900D01*
X2444300D01*
Y487800D01*
X2188400D01*
Y642850D01*
X2126220Y705030D01*
X2045850D01*
Y667250D01*
X1840750D01*
Y731130D01*
X1479660D01*
Y699240D01*
G75*
G02*
Y699220I-54570J-10D01*
G01*
G75*
G02*
X1434200Y653780I-45460J0D01*
G01*
X1332420D01*
G75*
G02*
X1286960Y699220I0J45440D01*
G01*
G75*
G02*
Y699240I54570J10D01*
G01*
Y731130D01*
X1285810D01*
G37*
Y945630D02*
G36*
X1285810Y945630D02*
Y731130D01*
X1286960D01*
Y763020D01*
G75*
G02*
Y763040I54570J10D01*
G01*
G75*
G02*
X1332420Y808480I45460J0D01*
G01*
X1434200D01*
G75*
G02*
X1479660Y763040I0J-45440D01*
G01*
G75*
G02*
Y763020I-54570J-10D01*
G01*
Y731130D01*
X1840750D01*
Y849500D01*
X2045850D01*
Y811730D01*
X2148320D01*
G75*
G02*
X2186100Y796040I-20J-53370D01*
G01*
X2251020Y731130D01*
X2981690D01*
X3019320Y768760D01*
G75*
G02*
X3057100Y784450I37800J-37680D01*
G01*
X3203800D01*
Y822250D01*
X3396960D01*
Y830450D01*
X3203800D01*
Y945630D01*
X2794660D01*
Y913740D01*
G75*
G02*
Y913720I-54570J-10D01*
G01*
G75*
G02*
X2749200Y868280I-45460J0D01*
G01*
X2647420D01*
G75*
G02*
X2601960Y913720I0J45440D01*
G01*
G75*
G02*
Y913740I54570J10D01*
G01*
Y945630D01*
X2495200D01*
Y872500D01*
X2267500D01*
Y945630D01*
X2045850D01*
Y857750D01*
X1840750D01*
Y945630D01*
X1285810D01*
G37*
Y1181800D02*
G36*
X1285810Y1181800D02*
Y945630D01*
X1840750D01*
Y1040000D01*
X2045850D01*
Y945630D01*
X2267500D01*
Y1020200D01*
X2495200D01*
Y945630D01*
X2601960D01*
Y977520D01*
G75*
G02*
Y977540I54570J10D01*
G01*
G75*
G02*
X2647420Y1022980I45460J0D01*
G01*
X2749200D01*
G75*
G02*
X2794660Y977540I0J-45440D01*
G01*
G75*
G02*
Y977520I-54570J-10D01*
G01*
Y945630D01*
X3203800D01*
Y1012750D01*
X3237500D01*
Y1080060D01*
G75*
G02*
X3235200Y1080000I-2880J66150D01*
G01*
X3171420D01*
G75*
G02*
X3129660Y1107500I-10J45450D01*
G01*
X3125200D01*
Y990000D01*
X2897500D01*
Y1107500D01*
X2786960D01*
G75*
G02*
X2745200Y1080000I-41750J17950D01*
G01*
X2681420D01*
G75*
G02*
X2639660Y1107500I-10J45450D01*
G01*
X2495200D01*
Y1102500D01*
X2267500D01*
Y1107300D01*
X1841350D01*
G75*
G02*
X1802220Y1119500I0J68860D01*
G01*
X1745150D01*
Y1181800D01*
X1712550D01*
Y1081750D01*
X1520150D01*
Y1181800D01*
X1507050D01*
Y1079250D01*
X1314650D01*
Y1181800D01*
X1285810D01*
G37*
X3375200Y1171130D02*
G36*
X3375200Y1171130D02*
Y1012750D01*
X3396960D01*
Y1181800D01*
X3374370D01*
G75*
G02*
X3375200Y1171130I-68040J-10660D01*
G01*
G37*
X1285810Y1516410D02*
G36*
X1285810Y1516410D02*
Y1181800D01*
X1314650D01*
Y1284350D01*
X1507050D01*
Y1181800D01*
X1520150D01*
Y1286850D01*
X1712550D01*
Y1181800D01*
X1745150D01*
Y1324600D01*
X1937550D01*
Y1245000D01*
X1987150D01*
Y1321850D01*
X2179550D01*
Y1245000D01*
X2267500D01*
Y1250200D01*
X2495200D01*
Y1245200D01*
X2639660D01*
G75*
G02*
X2681420Y1272700I41750J-17950D01*
G01*
X2745200D01*
G75*
G02*
X2786960Y1245200I10J-45450D01*
G01*
X2897500D01*
Y1362700D01*
X3125200D01*
Y1245200D01*
X3129660D01*
G75*
G02*
X3171420Y1272700I41750J-17950D01*
G01*
X3235200D01*
G75*
G02*
X3278840Y1239980I-10J-45470D01*
G01*
X3306350D01*
G75*
G02*
X3374370Y1181800I0J-68850D01*
G01*
X3396960D01*
Y1516410D01*
X2179550D01*
Y1464450D01*
X2267500D01*
Y1480200D01*
X2495200D01*
Y1332500D01*
X2267500D01*
Y1348250D01*
X2179550D01*
Y1345350D01*
X1987150D01*
Y1348250D01*
X1937550D01*
Y1348100D01*
X1745150D01*
Y1348250D01*
X1712550D01*
Y1310350D01*
X1520150D01*
Y1348250D01*
X1507050D01*
Y1307850D01*
X1314650D01*
Y1512950D01*
X1507050D01*
Y1464450D01*
X1520150D01*
Y1515450D01*
X1558250D01*
Y1516410D01*
X1285810D01*
G37*
X1674450D02*
G36*
X1674450Y1516410D02*
Y1515450D01*
X1712550D01*
Y1464450D01*
X1745150D01*
Y1516410D01*
X1674450D01*
G37*
X1937550D02*
G36*
X1937550Y1516410D02*
Y1464450D01*
X1987150D01*
Y1516410D01*
X1937550D01*
G37*
X1285810Y1963630D02*
G36*
X1285810Y1963630D02*
Y1516410D01*
X1558250D01*
Y1535600D01*
G75*
G02*
X1539000Y1572740I26200J37140D01*
G01*
Y1674520D01*
G75*
G02*
Y1674540I54570J10D01*
G01*
G75*
G02*
X1584460Y1719980I45460J0D01*
G01*
X1648240D01*
G75*
G02*
X1693700Y1674540I0J-45440D01*
G01*
G75*
G02*
Y1674520I-54570J-10D01*
G01*
Y1572740D01*
G75*
G02*
X1674450Y1535600I-45450J0D01*
G01*
Y1516410D01*
X1745150D01*
Y1553200D01*
X1771190D01*
G75*
G02*
X1764000Y1577700I38150J24500D01*
G01*
G75*
G02*
Y1577740I47750J20D01*
G01*
Y1679520D01*
G75*
G02*
Y1679540I54570J10D01*
G01*
G75*
G02*
X1809460Y1724980I45460J0D01*
G01*
X1873240D01*
G75*
G02*
X1918700Y1679540I0J-45440D01*
G01*
G75*
G02*
Y1679520I-54570J-10D01*
G01*
Y1577740D01*
G75*
G02*
Y1577700I-47750J-20D01*
G01*
G75*
G02*
X1911510Y1553200I-45340J0D01*
G01*
X1937550D01*
Y1516410D01*
X1987150D01*
Y1550450D01*
X2179550D01*
Y1516410D01*
X3396960D01*
Y2178630D01*
X3389650D01*
Y2039750D01*
X3232500D01*
G75*
G02*
X3233160Y2032140I-43520J-7610D01*
G01*
G75*
G02*
Y2032020I-43520J-60D01*
G01*
Y1930240D01*
G75*
G02*
Y1930220I-54570J-10D01*
G01*
G75*
G02*
X3187700Y1884780I-45460J0D01*
G01*
X3123920D01*
G75*
G02*
X3078460Y1930220I0J45440D01*
G01*
G75*
G02*
Y1930240I54570J10D01*
G01*
Y2032020D01*
G75*
G02*
Y2032140I43520J60D01*
G01*
G75*
G02*
X3079120Y2039750I44180J0D01*
G01*
X2921950D01*
Y2178630D01*
X2585380D01*
Y2178610D01*
Y2173600D01*
G75*
G03*
X2585360Y2172550I1467320J-28470D01*
G01*
X2585810Y1963630D01*
X1285810D01*
G37*
X2583020Y3343630D02*
G36*
X2583020Y3343630D02*
Y3341920D01*
X2585380Y2178720D01*
Y2178630D01*
X2921950D01*
Y2307450D01*
X3082090D01*
G75*
G02*
X3078460Y2325240I41920J17820D01*
G01*
Y2427020D01*
G75*
G02*
Y2427040I54570J10D01*
G01*
G75*
G02*
X3123920Y2472480I45460J0D01*
G01*
X3187700D01*
G75*
G02*
X3233160Y2427040I0J-45440D01*
G01*
G75*
G02*
Y2427020I-54570J-10D01*
G01*
Y2325240D01*
G75*
G02*
X3229530Y2307450I-45550J30D01*
G01*
X3389650D01*
Y2178630D01*
X3396960D01*
Y3208050D01*
X3238020D01*
G75*
G02*
X3238160Y3204520I-51580J-3810D01*
G01*
Y3102740D01*
G75*
G02*
Y3102720I-54570J-10D01*
G01*
G75*
G02*
X3192700Y3057280I-45460J0D01*
G01*
X3128920D01*
G75*
G02*
X3083460Y3102720I0J45440D01*
G01*
G75*
G02*
Y3102740I54570J10D01*
G01*
Y3204520D01*
G75*
G02*
X3083600Y3208050I51720J-280D01*
G01*
X2929450D01*
Y3343630D01*
X2583020D01*
G37*
X1034660Y4444400D02*
G36*
X1034660Y4444400D02*
Y4433650D01*
X2214450D01*
Y4444400D01*
X1034660D01*
G37*
X2492150D02*
G36*
X2492150Y4444400D02*
Y4408250D01*
X2548220D01*
G75*
G02*
X2580930Y4375560I-20J-32730D01*
G01*
X2581200Y4242020D01*
Y4241900D01*
Y4239980D01*
X2585200D01*
G75*
G02*
X2614450Y4229320I0J-45470D01*
G01*
Y4258250D01*
X2892150D01*
Y4030550D01*
X2614450D01*
Y4057940D01*
G75*
G02*
X2585200Y4047280I-29250J34810D01*
G01*
X2581590D01*
Y4047190D01*
X2582190Y3750070D01*
Y3749970D01*
X2583020Y3343720D01*
Y3343630D01*
X2929450D01*
Y3475750D01*
X3086500D01*
G75*
G02*
X3085960Y3482740I46510J7110D01*
G01*
Y3584520D01*
G75*
G02*
Y3584540I54570J10D01*
G01*
G75*
G02*
X3131420Y3629980I45460J0D01*
G01*
X3195200D01*
G75*
G02*
X3240660Y3584540I0J-45440D01*
G01*
G75*
G02*
Y3584520I-54570J-10D01*
G01*
Y3482740D01*
G75*
G02*
X3240120Y3475750I-47050J120D01*
G01*
X3396960D01*
Y4444400D01*
X3318350D01*
Y4321850D01*
X3113250D01*
Y4444400D01*
X2892150D01*
Y4330550D01*
X2614450D01*
Y4444400D01*
X2492150D01*
G37*
X1034660Y4576150D02*
G36*
X1034660Y4576150D02*
Y4444400D01*
X2214450D01*
Y4558250D01*
X2492150D01*
Y4444400D01*
X2614450D01*
Y4558250D01*
X2892150D01*
Y4444400D01*
X3113250D01*
Y4526950D01*
X3318350D01*
Y4444400D01*
X3396960D01*
Y5296900D01*
X3230200D01*
Y5090550D01*
X2842500D01*
Y5296900D01*
X2295810D01*
Y4916130D01*
X1034660D01*
Y4856850D01*
X1231850D01*
Y4775550D01*
X1278920Y4776000D01*
G75*
G02*
X1323920Y4814980I45000J-6480D01*
G01*
X1387700D01*
G75*
G02*
X1432690Y4776020I10J-45440D01*
G01*
X1484750Y4775530D01*
Y4856850D01*
X1689850D01*
Y4576150D01*
X1484750D01*
Y4659320D01*
X1432460Y4659810D01*
G75*
G02*
X1387700Y4622280I-44740J7910D01*
G01*
X1323920D01*
G75*
G02*
X1279160Y4659800I0J45460D01*
G01*
X1231850Y4659350D01*
Y4576150D01*
X1034660D01*
G37*
X2295810Y5622280D02*
G36*
X2295810Y5622280D02*
Y5296900D01*
X2842500D01*
Y5503250D01*
X3230200D01*
Y5296900D01*
X3396960D01*
Y5532580D01*
G75*
G02*
X3390960Y5550740I24470J18160D01*
G01*
Y5622280D01*
X2295810D01*
G37*
X4027150Y6020730D02*
Y5826530D01*
X4094450D01*
Y6020730D01*
X4027150D01*
G36*
X4027150Y6020730D02*
Y5826530D01*
X4094450D01*
Y6020730D01*
X4027150D01*
G37*
D02*
D17*
X3258310Y7280480D02*
X3271300Y7302980D01*
X3245320D01*
X3258310Y7280480D01*
G36*
X3258310Y7280480D02*
X3271300Y7302980D01*
X3245320D01*
X3258310Y7280480D01*
G37*
Y7333630D02*
Y6773630D01*
G75*
G03*
X3555810Y6476130I297500J0D01*
G01*
X4290810D01*
G75*
G02*
X4390810Y6376130I0J-100000D01*
G01*
Y6148630D01*
G75*
G03*
X4532550Y6006890I141740J0D01*
G01*
X5354840D01*
G75*
G02*
X5504840Y5856890I0J-150000D01*
G01*
Y5586890D01*
X3323310Y7017980D02*
X3336300Y7040480D01*
X3310320D01*
X3323310Y7017980D01*
G36*
X3323310Y7017980D02*
X3336300Y7040480D01*
X3310320D01*
X3323310Y7017980D01*
G37*
X4250810Y7775480D02*
X4263800Y7797980D01*
X4237820D01*
X4250810Y7775480D01*
G36*
X4250810Y7775480D02*
X4263800Y7797980D01*
X4237820D01*
X4250810Y7775480D01*
G37*
Y7828630D02*
Y7563630D01*
X4943310Y6871130D01*
X4315810Y8127010D02*
X4300990Y8260070D01*
G75*
G03*
X4423630Y8206380I76820J8560D01*
G01*
X4315810Y8127010D01*
G36*
X4315810Y8127010D02*
X4300990Y8260070D01*
G75*
G03*
X4423630Y8206380I76820J8560D01*
G01*
X4315810Y8127010D01*
G37*
X4520810Y6383630D02*
X5095810D01*
X5143310Y6431130D01*
Y8265130D01*
X5139810Y8268630D01*
X4549880Y2580200D02*
X4509210Y2582850D01*
X4534030Y2521030D01*
X4549880Y2580200D01*
G36*
X4549880Y2580200D02*
X4509210Y2582850D01*
X4534030Y2521030D01*
X4549880Y2580200D01*
G37*
X4587500Y6383630D02*
X4532960Y6415120D01*
Y6352140D01*
X4587500Y6383630D01*
G36*
X4587500Y6383630D02*
X4532960Y6415120D01*
Y6352140D01*
X4587500Y6383630D01*
G37*
X4590810Y2463630D02*
X4690310Y2563130D01*
X4853010D01*
X4595810Y6208630D02*
X5065810D01*
X5253310Y6396130D01*
Y7791130D01*
X5518310Y8056130D01*
X5520810D01*
Y8261130D01*
G75*
G03*
X5383310Y8398630I-137500J0D01*
G01*
X5260810D01*
X5137310Y8522130D01*
Y8522630D01*
X5139810D01*
X4619880Y2492700D02*
X4579210Y2495350D01*
X4604030Y2433530D01*
X4619880Y2492700D01*
G36*
X4619880Y2492700D02*
X4579210Y2495350D01*
X4604030Y2433530D01*
X4619880Y2492700D01*
G37*
X4660810Y2431780D02*
X4647820Y2409280D01*
X4673800D01*
X4660810Y2431780D01*
G36*
X4660810Y2431780D02*
X4647820Y2409280D01*
X4673800D01*
X4660810Y2431780D01*
G37*
Y6296130D02*
X5078310D01*
X5198310Y6416130D01*
Y7936130D01*
X5393810Y8131630D01*
Y8268630D01*
X4727500Y6296130D02*
X4672960Y6327620D01*
Y6264640D01*
X4727500Y6296130D01*
G36*
X4727500Y6296130D02*
X4672960Y6327620D01*
Y6264640D01*
X4727500Y6296130D01*
G37*
X4760810Y7396780D02*
X4747820Y7374280D01*
X4773800D01*
X4760810Y7396780D01*
G36*
X4760810Y7396780D02*
X4747820Y7374280D01*
X4773800D01*
X4760810Y7396780D01*
G37*
Y7675480D02*
X4773800Y7697980D01*
X4747820D01*
X4760810Y7675480D01*
G36*
X4760810Y7675480D02*
X4773800Y7697980D01*
X4747820D01*
X4760810Y7675480D01*
G37*
Y7728630D02*
Y7343630D01*
X4838250Y7106200D02*
X4844960Y7081110D01*
X4863330Y7099480D01*
X4838250Y7106200D01*
G36*
X4838250Y7106200D02*
X4844960Y7081110D01*
X4863330Y7099480D01*
X4838250Y7106200D01*
G37*
X4853010Y2498130D02*
X4697810D01*
X4660810Y2461130D01*
Y2378630D01*
X4853010Y2628130D02*
X4678810D01*
X4678310Y2628630D01*
X4598310D01*
X4520810Y2551130D01*
X4853010Y2823130D02*
X4985810D01*
X5025310Y2783630D01*
X5083310D01*
X4853010Y3083130D02*
X5140310D01*
X5140810Y3083630D01*
X5145810D01*
X5305810Y3243630D01*
Y3446130D01*
X4853010Y3213130D02*
X4940810D01*
Y3218630D01*
X5043310D01*
X4863310Y4050880D02*
Y3918630D01*
X4978310Y3803630D01*
X5258310D01*
X5608310Y3453630D01*
Y3383630D01*
X4875810Y7068630D02*
X4315810Y7628630D01*
Y8206630D01*
X4377810Y8268630D01*
X4905750Y6908700D02*
X4912460Y6883610D01*
X4930830Y6901980D01*
X4905750Y6908700D01*
G36*
X4905750Y6908700D02*
X4912460Y6883610D01*
X4930830Y6901980D01*
X4905750Y6908700D01*
G37*
X4925810Y7522980D02*
X4938800Y7545480D01*
X4912820D01*
X4925810Y7522980D01*
G36*
X4925810Y7522980D02*
X4938800Y7545480D01*
X4912820D01*
X4925810Y7522980D01*
G37*
X4990160Y3218630D02*
X5012660Y3205640D01*
Y3231620D01*
X4990160Y3218630D01*
G36*
X4990160Y3218630D02*
X5012660Y3205640D01*
Y3231620D01*
X4990160Y3218630D01*
G37*
X5030160Y2783630D02*
X5052660Y2770640D01*
Y2796620D01*
X5030160Y2783630D01*
G36*
X5030160Y2783630D02*
X5052660Y2770640D01*
Y2796620D01*
X5030160Y2783630D01*
G37*
X5048310Y6473630D02*
Y7321130D01*
X5043310D01*
X4925810Y7438630D01*
Y7576130D01*
X5048310Y6526780D02*
X5035320Y6504280D01*
X5061300D01*
X5048310Y6526780D01*
G36*
X5048310Y6526780D02*
X5035320Y6504280D01*
X5061300D01*
X5048310Y6526780D01*
G37*
X5085810Y2698630D02*
Y2496130D01*
X5090810Y4048380D02*
Y3918630D01*
X5140810Y3868630D01*
X5320810D01*
X5778310Y3411130D01*
X5138310Y8521130D02*
Y8531630D01*
X5139810Y8530130D01*
Y8522630D01*
X5143310Y8114070D02*
X5073760Y8228470D01*
G75*
G03*
X5207610Y8231510I66050J40160D01*
G01*
X5143310Y8114070D01*
G36*
X5143310Y8114070D02*
X5073760Y8228470D01*
G75*
G03*
X5207610Y8231510I66050J40160D01*
G01*
X5143310Y8114070D01*
G37*
X5171810Y343630D02*
Y1854630D01*
X5288310Y1971130D01*
Y2178630D01*
X5228310Y2238630D01*
Y2543630D01*
X5250810Y2566130D01*
X5525610D01*
X5528610Y2563130D01*
X5247620Y8411820D02*
X5118780Y8448250D01*
G75*
G03*
X5214740Y8541610I21030J74380D01*
G01*
X5247620Y8411820D01*
G36*
X5247620Y8411820D02*
X5118780Y8448250D01*
G75*
G03*
X5214740Y8541610I21030J74380D01*
G01*
X5247620Y8411820D01*
G37*
X5305810Y3392980D02*
X5318800Y3415480D01*
X5292820D01*
X5305810Y3392980D01*
G36*
X5305810Y3392980D02*
X5318800Y3415480D01*
X5292820D01*
X5305810Y3392980D01*
G37*
X5330810Y2628130D02*
X5528610D01*
X5335810Y2496130D02*
X5543110D01*
X5540110Y2498130D01*
X5528610D01*
X5338310Y2423630D02*
X5519110D01*
X5528610Y2433130D01*
X5380810Y6913630D02*
Y7311130D01*
X5418310Y7348630D01*
X5550810D01*
X5380810Y6966780D02*
X5367820Y6944280D01*
X5393800D01*
X5380810Y6966780D01*
G36*
X5380810Y6966780D02*
X5367820Y6944280D01*
X5393800D01*
X5380810Y6966780D01*
G37*
X5480810Y3355480D02*
X5493800Y3377980D01*
X5467820D01*
X5480810Y3355480D01*
G36*
X5480810Y3355480D02*
X5493800Y3377980D01*
X5467820D01*
X5480810Y3355480D01*
G37*
X5528610Y2563130D02*
X5383310D01*
Y2566130D01*
X5238310D01*
X5528610Y3083130D02*
X5658310D01*
Y3093630D01*
X5787810D01*
X5845810Y3151630D01*
Y3518630D01*
X5528610Y3083130D02*
Y3083630D01*
X5398310D01*
X5373310Y3108630D01*
Y3591130D01*
X5230810Y3733630D01*
X4785810D01*
X4638310Y3881130D01*
Y4058380D01*
X4635810D01*
X5528610Y3278130D02*
X5525810D01*
Y3278630D01*
X5480810D01*
Y3408630D01*
X5550810Y6908630D02*
X5735810D01*
X5608310Y3436780D02*
X5595320Y3414280D01*
X5621300D01*
X5608310Y3436780D01*
G36*
X5608310Y3436780D02*
X5595320Y3414280D01*
X5621300D01*
X5608310Y3436780D01*
G37*
X5631840Y5586890D02*
Y5905890D01*
G75*
G03*
X5483340Y6054390I-148500J0D01*
G01*
X4553310D01*
G75*
G02*
X4453310Y6154390I0J100000D01*
G01*
Y6381130D01*
G75*
G03*
X4310810Y6523630I-142500J0D01*
G01*
X3570810D01*
G75*
G02*
X3323310Y6771130I0J247500D01*
G01*
Y7071130D01*
X5645560Y6158630D02*
Y6291130D01*
X5743310Y6388880D01*
Y6771130D01*
X5715810Y6798630D01*
X5550810D01*
X5682660Y6908630D02*
X5705160Y6895640D01*
Y6921620D01*
X5682660Y6908630D01*
G36*
X5682660Y6908630D02*
X5705160Y6895640D01*
Y6921620D01*
X5682660Y6908630D01*
G37*
X5698310Y3216130D02*
X5628310D01*
Y3213130D01*
X5528610D01*
X5718250Y5943700D02*
X5724960Y5918610D01*
X5743330Y5936980D01*
X5718250Y5943700D01*
G36*
X5718250Y5943700D02*
X5724960Y5918610D01*
X5743330Y5936980D01*
X5718250Y5943700D01*
G37*
X5730740Y3458700D02*
X5765090Y3381030D01*
X5789910Y3442850D01*
X5730740Y3458700D01*
G36*
X5730740Y3458700D02*
X5765090Y3381030D01*
X5789910Y3442850D01*
X5730740Y3458700D01*
G37*
X5755810Y5906130D02*
X5645560Y6016380D01*
Y6158630D01*
X5778310Y3357980D02*
X5791300Y3380480D01*
X5765320D01*
X5778310Y3357980D01*
G36*
X5778310Y3357980D02*
X5791300Y3380480D01*
X5765320D01*
X5778310Y3357980D01*
G37*
Y3411130D02*
Y3188130D01*
X5738310Y3148130D01*
X5528610D01*
X5845810Y3465480D02*
X5858800Y3487980D01*
X5832820D01*
X5845810Y3465480D01*
G36*
X5845810Y3465480D02*
X5858800Y3487980D01*
X5832820D01*
X5845810Y3465480D01*
G37*
X5895810Y5646130D02*
Y5913630D01*
Y5699280D02*
X5882820Y5676780D01*
X5908800D01*
X5895810Y5699280D01*
G36*
X5895810Y5699280D02*
X5882820Y5676780D01*
X5908800D01*
X5895810Y5699280D01*
G37*
Y5860480D02*
X5908800Y5882980D01*
X5882820D01*
X5895810Y5860480D01*
G36*
X5895810Y5860480D02*
X5908800Y5882980D01*
X5882820D01*
X5895810Y5860480D01*
G37*
X5972500Y3216130D02*
X5917960Y3247620D01*
Y3184640D01*
X5972500Y3216130D01*
G36*
X5972500Y3216130D02*
X5917960Y3247620D01*
Y3184640D01*
X5972500Y3216130D01*
G37*
X6090560D02*
X5905810D01*
D02*
D136*
X318310Y8413630D02*
Y8343630D01*
X543310Y8638630D02*
X613310D01*
X653480Y4609180D02*
X590800Y4546500D01*
X653480Y4713520D02*
X590800Y4776200D01*
X757820Y4609180D02*
X820500Y4546500D01*
X757820Y4713520D02*
X820500Y4776200D01*
X789690Y4451670D02*
X727010Y4514350D01*
X819330Y4451670D02*
X882010Y4514350D01*
X855760Y4309850D02*
X925750D01*
X938850Y6821350D02*
X868850D01*
X938850Y7641350D02*
X868850D01*
X990350Y6769850D02*
Y6699850D01*
Y6872850D02*
Y6942850D01*
Y7589850D02*
Y7519850D01*
Y7692850D02*
Y7762850D01*
X1041850Y6821350D02*
X1111850D01*
X1041850Y7641350D02*
X1111850D01*
X1046310Y5430970D02*
X976350D01*
X1048460Y3752390D02*
X978460D01*
X1084310Y3716540D02*
Y3646540D01*
Y3788240D02*
Y3858240D01*
X1120160Y3752390D02*
X1190160D01*
X1358310Y5144470D02*
Y5074450D01*
X1383310Y705130D02*
Y635130D01*
Y757130D02*
Y827130D01*
X1410810Y1130630D02*
Y1060650D01*
X1428310Y731130D02*
X1498310D01*
X1518810Y4241890D02*
X1448850D01*
X1552510Y351130D02*
X1482510D01*
X1593310Y310330D02*
Y240330D01*
Y391930D02*
Y461930D01*
X1601310Y4151890D02*
Y4081850D01*
X1606350Y6446350D02*
X1536350D01*
X1606350Y8016350D02*
X1536350D01*
X1616350Y1133130D02*
Y1063150D01*
X1634110Y351130D02*
X1704110D01*
X1670310Y5430970D02*
X1740350D01*
X1701350Y6351350D02*
Y6281350D01*
Y6541350D02*
Y6611350D01*
Y7921350D02*
Y7851350D01*
Y8111350D02*
Y8181350D01*
X1778310Y4215130D02*
Y4145130D01*
Y4267130D02*
Y4337130D01*
X1796350Y6446350D02*
X1866350D01*
X1796350Y8016350D02*
X1866350D01*
X1863850Y5296890D02*
X1793850D01*
X1886140Y4193260D02*
X1823450Y4130570D01*
X1886140Y4297600D02*
X1823450Y4360290D01*
X1892110Y948880D02*
X1822150D01*
X1943310Y988650D02*
Y1058650D01*
X1987310Y3351130D02*
X1917310D01*
X1990480Y4193260D02*
X2053150Y4130590D01*
X1990480Y4297600D02*
X2053150Y4360270D01*
X1994510Y948880D02*
X2064550D01*
X2006350Y5141890D02*
Y5071850D01*
Y5451890D02*
Y5521850D01*
X2013310Y3306130D02*
Y3236130D01*
Y3396130D02*
Y3466130D01*
X2215990Y2083810D02*
X2153330Y2021150D01*
X2215990Y2263450D02*
X2153290Y2326150D01*
X2223490Y3252070D02*
X2160770Y3189350D01*
X2223490Y3431710D02*
X2160850Y3494350D01*
X2318850Y946350D02*
X2248850D01*
X2353340Y4506890D02*
Y4576850D01*
X2381350Y923850D02*
Y853850D01*
Y968850D02*
Y1038850D01*
X2395630Y2083810D02*
X2458290Y2021150D01*
X2395630Y2263450D02*
X2458330Y2326150D01*
X2403130Y3252070D02*
X2465850Y3189350D01*
X2403130Y3431710D02*
X2465770Y3494350D01*
X2440840Y4444390D02*
X2510850D01*
X2443850Y946350D02*
X2513850D01*
X2650810Y6448630D02*
X2580810D01*
X2653310Y945630D02*
X2583310D01*
X2665840Y4444390D02*
X2595850D01*
X2695810Y6422630D02*
Y6352630D01*
Y6474630D02*
Y6544630D01*
X2698310Y919630D02*
Y849630D01*
Y971630D02*
Y1041630D01*
X2743310Y945630D02*
X2813310D01*
X2753340Y4381890D02*
Y4311850D01*
Y4506890D02*
Y4576850D01*
X2811840Y6404460D02*
X2749130Y6341750D01*
X2811840Y6508800D02*
X2749190Y6571450D01*
X2840840Y4444390D02*
X2910850D01*
X2841840Y7682460D02*
X2779130Y7619750D01*
X2841840Y7786800D02*
X2779190Y7849450D01*
X2868010Y7908630D02*
X2798010D01*
X2893850Y5296890D02*
X2823850D01*
X2894010Y7953630D02*
Y8023630D01*
X2916180Y6404460D02*
X2978890Y6341750D01*
X2916180Y6508800D02*
X2978830Y6571450D01*
X2920010Y7908630D02*
X2990010D01*
X2946180Y7682460D02*
X3008890Y7619750D01*
X2946180Y7786800D02*
X3008830Y7849450D01*
X3036350Y5141890D02*
Y5071850D01*
Y5451890D02*
Y5521850D01*
X3164640Y4424390D02*
X3094650D01*
X3178850Y5296890D02*
X3248850D01*
X3215840Y4373190D02*
Y4303150D01*
Y4475590D02*
Y4545550D01*
X3267040Y4424390D02*
X3337050D01*
X3433290Y6306130D02*
X3363250D01*
X3440790Y6091130D02*
X3370750D01*
X3473060Y6357330D02*
Y6427350D01*
X3480560Y6039930D02*
Y5969950D01*
X3693310Y5918630D02*
X3623310D01*
X3823850Y8568590D02*
X3774350Y8618090D01*
X3915770Y8476670D02*
X3965270Y8427170D01*
X3915770Y8568590D02*
X3965270Y8618090D01*
X3975810Y5918630D02*
X4045850D01*
X4145810Y6318630D02*
X4075850D01*
X4180810Y6253630D02*
Y6183650D01*
X4295810Y6273630D02*
Y6203630D01*
X4331850Y8476670D02*
X4282350Y8427170D01*
X4331850Y8568590D02*
X4282350Y8618090D01*
X4423770Y8476670D02*
X4473270Y8427170D01*
X4423770Y8568590D02*
X4473270Y8618090D01*
X5347850Y8568590D02*
X5298350Y8618090D01*
X5439770Y8476670D02*
X5489270Y8427170D01*
X5439770Y8568590D02*
X5489270Y8618090D01*
X5513310Y6443630D02*
X5443350D01*
X5513310Y7578630D02*
X5443350D01*
X5563310Y6393630D02*
Y6323650D01*
Y6493630D02*
Y6563650D01*
Y7598630D02*
Y7668650D01*
X5613310Y6443630D02*
X5683350D01*
X5613310Y7578630D02*
X5683350D01*
X5615810Y7238630D02*
X5685850D01*
X6097310D02*
X6027310D01*
X6123310Y7193630D02*
Y7123630D01*
Y7283630D02*
Y7353630D01*
X6149310Y7238630D02*
X6219310D01*
X6233310Y8638630D02*
X6163310D01*
X6273310Y7603630D02*
X6203350D01*
X6283490Y6106310D02*
X6220830Y6043650D01*
X6283490Y6200950D02*
X6220790Y6263650D01*
X6288310Y6023630D02*
X6218310D01*
X6323310Y7588630D02*
Y7518650D01*
Y7618630D02*
Y7688650D01*
X6343310Y6408630D02*
X6273350D01*
X6361310Y5896130D02*
X6431350D01*
X6378130Y6200950D02*
X6440830Y6263650D01*
X6378310Y6023630D02*
X6448310D01*
X6388310Y6393630D02*
Y6323650D01*
Y6423630D02*
Y6493650D01*
X6433310Y6408630D02*
X6503350D01*
X6458310Y8413630D02*
Y8343630D01*
X6473310Y7523630D02*
Y7453650D01*
Y7618630D02*
Y7688650D01*
X6498310Y7571130D02*
X6568350D01*
X6578310Y6453630D02*
X6508350D01*
X6630810Y6428630D02*
Y6358650D01*
Y6478630D02*
Y6548650D01*
D02*
D137*
X418060Y3243630D02*
X415810D01*
Y3453630D01*
X420560D01*
X607340Y3684140D02*
X596430Y3657960D01*
X635420Y3657570D01*
X607340Y3684140D01*
G36*
X607340Y3684140D02*
X596430Y3657960D01*
X635420Y3657570D01*
X607340Y3684140D01*
G37*
X611060Y3453630D02*
X615810Y3618630D01*
X613760Y3547190D02*
X635320Y3579550D01*
X596350Y3579460D01*
X613760Y3547190D01*
G36*
X613760Y3547190D02*
X635320Y3579550D01*
X596350Y3579460D01*
X613760Y3547190D01*
G37*
X615810Y3618630D02*
X598560Y3752080D01*
X622610Y3776130D01*
Y3974330D01*
X530810Y4066130D01*
Y4243850D01*
X533310Y4246350D01*
X804510Y4182850D02*
X596810D01*
X533310Y4246350D01*
X804510Y4309850D02*
X1098310D01*
X804510Y4436850D02*
Y4661350D01*
X705650D01*
X1098310Y4309850D02*
Y3760890D01*
X1089810Y3752390D01*
X1084310D01*
X1098310Y4309850D02*
X1605810D01*
Y4241130D01*
X1778310D01*
X1103070Y3746130D02*
X1096810Y3752390D01*
X1084310D01*
X1355810Y4718630D02*
X1129310Y4716470D01*
X1383310Y731130D02*
Y1154330D01*
X1410810Y1181830D01*
X1508310D01*
Y1184330D01*
X1616350D01*
X1587310Y4716470D02*
X1355810Y4718630D01*
X1600310Y3076890D02*
Y3078630D01*
X698310D01*
G75*
G02*
X608560Y3168380I0J89750D01*
G01*
Y3243630D01*
X1601310Y3658630D02*
Y3517890D01*
X1600310Y3516890D01*
X1601310Y3811890D02*
Y3658630D01*
X1616350Y1412930D02*
Y1623630D01*
X1810810Y3671130D02*
G75*
G02*
X1808310Y3658630I-851830J163870D01*
G01*
X1601310D01*
X1841350Y1450650D02*
Y1628630D01*
X1938310Y4016830D02*
Y3788630D01*
G75*
G02*
X1810810Y3671130I-122500J5000D01*
G01*
X2305810Y2173630D02*
Y3334390D01*
X2313310Y3341890D01*
X2022550D01*
X2013310Y3351130D01*
X2353340Y4144390D02*
X2553310Y4143630D01*
X2381350Y1406350D02*
X1414890D01*
X1410810Y1410430D01*
X2553310Y4143630D02*
X2753340Y4144390D01*
X2864010Y6456630D02*
Y6453630D01*
X2695810D01*
Y6448630D01*
X2894010Y7734630D02*
Y7908630D01*
X3155810Y2173630D02*
Y1981130D01*
Y2173630D02*
Y2376130D01*
X3160810Y3153630D02*
Y3339390D01*
X3163310Y3341890D01*
Y3533630D01*
X3298310Y7733630D02*
X3123610D01*
X3122610Y7734630D01*
X3473060Y6306130D02*
Y6098630D01*
X3480560Y6091130D01*
Y5981380D01*
G75*
G03*
X3543310Y5918630I62750J0D01*
G01*
X3738310D01*
X3490810Y7733630D02*
X3298310D01*
X3665440Y5918630D02*
X3699190Y5899150D01*
X3699180Y5938110D01*
X3665440Y5918630D01*
G36*
X3665440Y5918630D02*
X3699190Y5899150D01*
X3699180Y5938110D01*
X3665440Y5918630D01*
G37*
X3735010Y3612630D02*
Y3441130D01*
X3736010Y3827630D02*
Y4131130D01*
Y3827630D02*
Y3613630D01*
X3735010Y3612630D01*
X3811170Y5918630D02*
X3777430Y5938110D01*
Y5899150D01*
X3811170Y5918630D01*
G36*
X3811170Y5918630D02*
X3777430Y5938110D01*
Y5899150D01*
X3811170Y5918630D01*
G37*
X3843310Y4368630D02*
X3733310D01*
Y4133830D01*
X3736010Y4131130D01*
X3890810Y2741350D02*
Y2938630D01*
X3885810Y2943630D01*
X3940810Y5918630D02*
X3738310D01*
X4018310Y1723630D02*
Y1956130D01*
Y1883270D02*
X4037790Y1917010D01*
X3998830D01*
X4018310Y1883270D01*
G36*
X4018310Y1883270D02*
X4037790Y1917010D01*
X3998830D01*
X4018310Y1883270D01*
G37*
X4079010Y2946350D02*
X3888530D01*
X3885810Y2943630D01*
X4180810Y6318630D02*
X4295810D01*
X4192610Y2256350D02*
X4338530D01*
X4348310Y2266130D01*
X4234840Y4651890D02*
Y4471130D01*
G75*
G02*
X4132340Y4368630I-102500J0D01*
G01*
X3843310D01*
X4290810Y2501350D02*
Y2323630D01*
X4348310Y2266130D01*
X4853010Y2338630D02*
Y2411130D01*
X4869840Y5586890D02*
X4935810D01*
X4996840D01*
X5002610Y1956130D02*
Y2061130D01*
X5155810D01*
X5005110Y2163630D02*
Y1744330D01*
X5020810Y1728630D01*
X5346530Y5283630D02*
X5413190Y5245150D01*
X5413180Y5322110D01*
X5346530Y5283630D01*
G36*
X5346530Y5283630D02*
X5413190Y5245150D01*
X5413180Y5322110D01*
X5346530Y5283630D01*
G37*
X5377840Y4651890D02*
X5383310D01*
Y4534100D01*
X5441280Y4476130D01*
X5765810Y4471130D01*
X5377840Y5586890D02*
Y5461600D01*
X5433310Y5406130D01*
Y5283630D01*
X5377840D01*
X5433310D02*
X5080810D01*
X4935810Y5428630D01*
Y5586890D01*
X5433310Y5356500D02*
X5413830Y5322760D01*
X5452790D01*
X5433310Y5356500D01*
G36*
X5433310Y5356500D02*
X5413830Y5322760D01*
X5452790D01*
X5433310Y5356500D01*
G37*
X5550810Y7238630D02*
X6123310D01*
X5640810Y1617930D02*
Y1791130D01*
Y1704360D02*
X5679290Y1771010D01*
X5602330D01*
X5640810Y1704360D01*
G36*
X5640810Y1704360D02*
X5679290Y1771010D01*
X5602330D01*
X5640810Y1704360D01*
G37*
X5693700Y4472240D02*
X5726710Y4451630D01*
X5726660Y4490600D01*
X5693700Y4472240D01*
G36*
X5693700Y4472240D02*
X5726710Y4451630D01*
X5726660Y4490600D01*
X5693700Y4472240D01*
G37*
X5765810Y4471130D02*
X5955560Y4476130D01*
X5958310Y4473380D01*
X6013310D01*
X5837380Y4473010D02*
X5804980Y4490590D01*
X5804900Y4451620D01*
X5837380Y4473010D01*
G36*
X5837380Y4473010D02*
X5804980Y4490590D01*
X5804900Y4451620D01*
X5837380Y4473010D01*
G37*
X6195810Y2664330D02*
X5979010D01*
X5978310Y2663630D01*
X6330810Y6153630D02*
Y6023630D01*
X6333310D01*
X6330810Y6153630D02*
Y5916830D01*
X6310110Y5896130D01*
D02*
D138*
X705650Y4661350D02*
Y5138470D01*
X998310Y5431130D01*
X1358150D01*
X1358310Y5430970D01*
X875450Y7895350D02*
X961630Y7945100D01*
G75*
G03*
Y7845600I28720J-49750D01*
G01*
X875450Y7895350D01*
G36*
X875450Y7895350D02*
X961630Y7945100D01*
G75*
G03*
Y7845600I28720J-49750D01*
G01*
X875450Y7895350D01*
G37*
X991310Y6452450D02*
X940840Y6538220D01*
G75*
G03*
X1040340Y6539050I49510J29140D01*
G01*
X991310Y6452450D01*
G36*
X991310Y6452450D02*
X940840Y6538220D01*
G75*
G03*
X1040340Y6539050I49510J29140D01*
G01*
X991310Y6452450D01*
G37*
X1006130Y7918630D02*
Y7895350D01*
X990350D01*
X1103060Y5941130D02*
X972310D01*
G75*
G02*
X788310Y6125130I0J184000D01*
G01*
Y7853630D01*
G75*
G02*
X830030Y7895350I41720J0D01*
G01*
X990350D01*
X1588060Y6093630D02*
X1180310D01*
G75*
G02*
X991310Y6282630I0J189000D01*
G01*
Y6567350D01*
X990350D01*
X2006350Y5296890D02*
X1492390D01*
X1358310Y5430970D01*
X2031350Y7421850D02*
Y7428630D01*
X2328310D01*
X2745810Y7011130D01*
X2758310D01*
X2133020Y7428630D02*
X2059700Y7379520D01*
G75*
G03*
X2053830Y7467570I-28350J42330D01*
G01*
X2133020Y7428630D01*
G36*
X2133020Y7428630D02*
X2059700Y7379520D01*
G75*
G03*
X2053830Y7467570I-28350J42330D01*
G01*
X2133020Y7428630D01*
G37*
X2189600Y7675850D02*
X2101350Y7726800D01*
Y7624900D01*
X2189600Y7675850D01*
G36*
X2189600Y7675850D02*
X2101350Y7726800D01*
Y7624900D01*
X2189600Y7675850D01*
G37*
X2285350Y7548850D02*
Y7563630D01*
X2387250Y7040850D02*
X2310820Y6996730D01*
G75*
G03*
Y7084970I-25470J44120D01*
G01*
X2387250Y7040850D01*
G36*
X2387250Y7040850D02*
X2310820Y6996730D01*
G75*
G03*
Y7084970I-25470J44120D01*
G01*
X2387250Y7040850D01*
G37*
Y7548850D02*
X2310820Y7504730D01*
G75*
G03*
Y7592970I-25470J44120D01*
G01*
X2387250Y7548850D01*
G36*
X2387250Y7548850D02*
X2310820Y7504730D01*
G75*
G03*
Y7592970I-25470J44120D01*
G01*
X2387250Y7548850D01*
G37*
X2675840Y7558330D02*
X2679700Y7543870D01*
X2690290Y7554460D01*
X2675840Y7558330D01*
G36*
X2675840Y7558330D02*
X2679700Y7543870D01*
X2690290Y7554460D01*
X2675840Y7558330D01*
G37*
X2683310Y7353630D02*
X2801310Y7235630D01*
X2913060Y7234630D01*
X2683310Y7353630D02*
Y7358850D01*
X2493310Y7548850D01*
X2285350D01*
X2703310Y4898630D02*
Y5273630D01*
Y4898630D02*
X2573310D01*
Y4903630D01*
X2703310Y5273630D02*
Y5323630D01*
X2573310D01*
X2704420Y7529740D02*
X2558310Y7675850D01*
X2031350D01*
X2706350Y4748630D02*
X2573310D01*
X2706350D02*
Y4491380D01*
X2753340Y4444390D01*
X2706350Y4748630D02*
Y5273630D01*
X2703310D01*
X2706350Y4748630D02*
X2708090Y4746890D01*
X3215840D01*
Y4424390D01*
X2706350Y5043630D02*
X2843310D01*
X2706350D02*
X2573310D01*
X2706350D02*
Y5183630D01*
X2573310D01*
X2706350Y5323630D02*
X2703310D01*
X2706350D02*
Y5183630D01*
X2711900Y7325050D02*
X2708030Y7339500D01*
X2697440Y7328910D01*
X2711900Y7325050D01*
G36*
X2711900Y7325050D02*
X2708030Y7339500D01*
X2697440Y7328910D01*
X2711900Y7325050D01*
G37*
X2733010Y7501160D02*
X2729140Y7515610D01*
X2718550Y7505020D01*
X2733010Y7501160D01*
G36*
X2733010Y7501160D02*
X2729140Y7515610D01*
X2718550Y7505020D01*
X2733010Y7501160D01*
G37*
X2743210Y6804730D02*
X2737720Y6774680D01*
X2791760Y6791720D01*
X2743210Y6804730D01*
G36*
X2743210Y6804730D02*
X2737720Y6774680D01*
X2791760Y6791720D01*
X2743210Y6804730D01*
G37*
X2758310Y7011130D02*
X2909310D01*
X2913060Y7008630D01*
X2763310Y6784630D02*
X2640340Y6907600D01*
Y6908820D01*
X2508310Y7040850D01*
X2285350D01*
X2798750Y7011130D02*
X2785780Y7018620D01*
Y7003640D01*
X2798750Y7011130D01*
G36*
X2798750Y7011130D02*
X2785780Y7018620D01*
Y7003640D01*
X2798750Y7011130D01*
G37*
X2803750Y6784630D02*
X2790780Y6792120D01*
Y6777140D01*
X2803750Y6784630D01*
G36*
X2803750Y6784630D02*
X2790780Y6792120D01*
Y6777140D01*
X2803750Y6784630D01*
G37*
X2838310Y4898630D02*
X2973310D01*
X2838310D02*
X2703310D01*
X2843310Y5043630D02*
X2973310D01*
Y5048630D01*
X2913060Y6783630D02*
Y6784630D01*
X2763310D01*
X2913060Y7458630D02*
X2774530Y7459630D01*
X2704420Y7529740D01*
X2973310Y4898630D02*
X3103310D01*
X2973310Y5048630D02*
X3278310D01*
Y5508630D01*
X3050810D01*
Y5296890D01*
X3036350D01*
X3011350Y1176350D02*
X2713310D01*
X3103310Y4898630D02*
X3223310D01*
X3103560Y6783630D02*
X3093310D01*
Y6622630D01*
X3092310D01*
Y6456630D01*
X3092610D01*
X3223310Y5048630D02*
X3103310D01*
X3488310Y7466890D02*
X3457830Y7414100D01*
X3518790D01*
X3488310Y7466890D01*
G36*
X3488310Y7466890D02*
X3457830Y7414100D01*
X3518790D01*
X3488310Y7466890D01*
G37*
X3490810Y7548630D02*
X3488310D01*
Y7368630D01*
X3615810Y8522630D02*
X3616810D01*
X3740810Y8398630D01*
Y7958630D01*
X4913310Y6786130D01*
Y6538630D01*
X3671060Y6091130D02*
Y6048630D01*
X3803310D01*
X3820810Y6066130D01*
X4180810D01*
Y5918630D01*
X3762860Y6301130D02*
X3775840Y6293640D01*
X3775830Y6308620D01*
X3762860Y6301130D01*
G36*
X3762860Y6301130D02*
X3775840Y6293640D01*
X3775830Y6308620D01*
X3762860Y6301130D01*
G37*
X3803310D02*
X3663560D01*
Y6306130D01*
X3843310Y4628630D02*
X4080600D01*
X4105340Y4603890D01*
X4107840D01*
Y4651890D01*
X3843750Y6301130D02*
X3830780Y6308620D01*
Y6293640D01*
X3843750Y6301130D01*
G36*
X3843750Y6301130D02*
X3830780Y6308620D01*
Y6293640D01*
X3843750Y6301130D01*
G37*
X3890810Y2501350D02*
X3885810D01*
Y2280650D01*
X3964010D01*
Y2256350D01*
X3940810Y6318630D02*
X3918310D01*
Y6301130D01*
X3803310D01*
X4107840Y5586890D02*
X4103310D01*
Y5396130D01*
X4143310Y5356130D01*
X4295810D01*
X4197550D02*
X4250330Y5325650D01*
X4250340Y5386610D01*
X4197550Y5356130D01*
G36*
X4197550Y5356130D02*
X4250330Y5325650D01*
X4250340Y5386610D01*
X4197550Y5356130D01*
G37*
X4225810Y3580880D02*
Y3261130D01*
X4293310Y3193630D01*
Y2838630D01*
X4290810D01*
Y2946350D01*
X4307610D01*
X4234840Y5586890D02*
Y5708630D01*
G75*
G03*
X4222340Y5721130I-12500J0D01*
G01*
X3035810D01*
G75*
G02*
X2985810Y5771130I0J50000D01*
G01*
Y5891130D01*
G75*
G03*
X2935810Y5941130I-50000J0D01*
G01*
X1293560D01*
X4290810Y2741350D02*
Y2838630D01*
Y2913450D01*
X4307610Y2930250D01*
Y2946350D01*
X4290810Y2838630D02*
X4410810D01*
X4491310Y2758130D01*
X4853010D01*
X4361840Y4651890D02*
X4360810D01*
Y4341130D01*
X4225810Y4206130D01*
Y3771380D01*
X4361840Y5586890D02*
Y5781130D01*
X3170810D01*
G75*
G02*
X3120810Y5831130I0J50000D01*
G01*
Y6046130D01*
G75*
G03*
X3070810Y6096130I-50000J0D01*
G01*
X1843560D01*
X1841060Y6093630D01*
X1778560D01*
X4394080Y5356130D02*
X4341290Y5386610D01*
Y5325650D01*
X4394080Y5356130D01*
G36*
X4394080Y5356130D02*
X4341290Y5386610D01*
Y5325650D01*
X4394080Y5356130D01*
G37*
X4409810Y343630D02*
Y702880D01*
X4410560Y703630D01*
X4453310Y2668630D02*
X4408310Y2623630D01*
X4120810D01*
X4003310Y2506130D01*
X3895590D01*
X3890810Y2501350D01*
X4453310Y3580880D02*
Y3188630D01*
Y3771380D02*
Y4306130D01*
X4493310Y4346130D01*
Y4632420D01*
X4488840Y4636890D01*
Y4651890D01*
Y5586890D02*
X4488310D01*
Y5393630D01*
X4450810Y5356130D01*
X4295810D01*
X4499800Y5791130D02*
X4454780Y5817120D01*
Y5765140D01*
X4499800Y5791130D01*
G36*
X4499800Y5791130D02*
X4454780Y5817120D01*
Y5765140D01*
X4499800Y5791130D01*
G37*
X4615840Y5586890D02*
Y5791130D01*
X4445810D01*
X4663810Y343630D02*
Y640880D01*
X4601060Y703630D01*
X4742840Y4651890D02*
Y4436130D01*
X4625810D01*
Y4258880D01*
X4635810Y4248880D01*
X4742840Y5586890D02*
Y5818630D01*
G75*
G03*
X4642840Y5918630I-100000J0D01*
G01*
X4180810D01*
X4853010Y2693130D02*
X4477810D01*
X4453310Y2668630D01*
X4853010Y2953130D02*
Y2951130D01*
X5053310D01*
X5065810Y2938630D01*
X5093310D01*
X4853010Y3018130D02*
X5010310D01*
X5010810Y3018630D01*
X5090810D01*
X4853010Y3278130D02*
Y3391130D01*
X4980810D01*
X4869840Y4651890D02*
Y4247910D01*
X4863310Y4241380D01*
X5002860Y3146130D02*
X5015840Y3138640D01*
X5015830Y3153620D01*
X5002860Y3146130D01*
G36*
X5002860Y3146130D02*
X5015840Y3138640D01*
X5015830Y3153620D01*
X5002860Y3146130D01*
G37*
X5043310D02*
X4855010D01*
X4853010Y3148130D01*
X5045360Y2858630D02*
X5058340Y2851140D01*
X5058330Y2866120D01*
X5045360Y2858630D01*
G36*
X5045360Y2858630D02*
X5058340Y2851140D01*
X5058330Y2866120D01*
X5045360Y2858630D01*
G37*
X5050360Y3018630D02*
X5063340Y3011140D01*
X5063330Y3026120D01*
X5050360Y3018630D01*
G36*
X5050360Y3018630D02*
X5063340Y3011140D01*
X5063330Y3026120D01*
X5050360Y3018630D01*
G37*
X5085810Y2858630D02*
X5033310D01*
X5018310Y2888130D01*
X4853010D01*
X5090810Y4238880D02*
Y4311130D01*
X4998310Y4403630D01*
Y4650420D01*
X4996840Y4651890D01*
X5123840Y5586890D02*
X5170810D01*
Y5738630D01*
X5208310Y5776130D01*
X5388310D01*
X5170810Y5586890D02*
X5250840D01*
X5232300Y2823130D02*
X5187280Y2849120D01*
Y2797140D01*
X5232300Y2823130D01*
G36*
X5232300Y2823130D02*
X5187280Y2849120D01*
Y2797140D01*
X5232300Y2823130D01*
G37*
X5243310Y2945690D02*
X5250800Y2958660D01*
X5235820D01*
X5243310Y2945690D01*
G36*
X5243310Y2945690D02*
X5250800Y2958660D01*
X5235820D01*
X5243310Y2945690D01*
G37*
X5250840Y4651890D02*
Y4553630D01*
X5448310Y4366920D01*
Y4366130D01*
X5538060Y4276380D01*
X5538310D01*
Y4233880D01*
X5545810D01*
X5318310Y4045880D02*
X5543310D01*
X5545810Y4043380D01*
X5318310Y4236380D02*
X5320810D01*
Y4373630D01*
X5123310Y4571130D01*
Y4651360D01*
X5123840Y4651890D01*
X5320810Y4317140D02*
X5346800Y4362160D01*
X5294820D01*
X5320810Y4317140D01*
G36*
X5320810Y4317140D02*
X5346800Y4362160D01*
X5294820D01*
X5320810Y4317140D01*
G37*
Y4371130D02*
Y4238880D01*
X5318310Y4236380D01*
X5334310Y5776130D02*
X5379340Y5750140D01*
X5379330Y5802120D01*
X5334310Y5776130D01*
G36*
X5334310Y5776130D02*
X5379340Y5750140D01*
X5379330Y5802120D01*
X5334310Y5776130D01*
G37*
X5504840Y4651890D02*
Y4823630D01*
X5439840Y4888630D01*
X3593310D01*
X3443310Y5038630D01*
Y5591130D01*
X5528610Y2823130D02*
X5178310D01*
X5528610Y2888130D02*
X5283810D01*
X5243310Y2928630D01*
Y2986130D01*
X5528610Y2953130D02*
X5691310D01*
X5705810Y2938630D01*
X5545810Y4043380D02*
X5540810D01*
Y3883630D01*
X5545810D01*
Y4233880D02*
X6008060D01*
X6080810Y4161130D01*
X5631840Y4651890D02*
Y4885100D01*
X5518310Y4998630D01*
X3663310D01*
X3548310Y5113630D01*
Y5616130D01*
X5643310Y866130D02*
X5755810D01*
X5768310Y878630D01*
X5983630D01*
X5986350Y881350D01*
X5715810Y3028630D02*
X5686310D01*
X5675810Y3018130D01*
X5528610D01*
X5725810Y7126130D02*
X5553310D01*
X5550810Y7128630D01*
X5758840Y4651890D02*
Y4653630D01*
X5823310D01*
X5833560Y4663880D01*
X6013310D01*
X5760810Y5748190D02*
X5768300Y5761160D01*
X5753320D01*
X5760810Y5748190D01*
G36*
X5760810Y5748190D02*
X5768300Y5761160D01*
X5753320D01*
X5760810Y5748190D01*
G37*
Y5788630D02*
Y5588860D01*
X5758840Y5586890D01*
X5836060Y6158630D02*
Y6945880D01*
X5763310Y7018630D01*
X5550810D01*
X5836060Y6158630D02*
X6065810D01*
X6070810Y6153630D01*
X5898310Y2293630D02*
X5730810D01*
Y2296130D01*
X5490810D01*
X5986350Y881350D02*
Y1531350D01*
X5997210Y2893630D02*
X5995810Y2892230D01*
X5978310D01*
X6070810Y6153630D02*
X6073310D01*
Y5643630D01*
X6195810Y2892930D02*
X5979010D01*
X5978310Y2892230D01*
X6258310Y5643630D02*
X6398310D01*
X6281060Y3216130D02*
X6305810D01*
X6318310Y3203630D01*
Y1881130D01*
X5985810Y1548630D01*
Y1531890D01*
X5986350Y1531350D01*
X6344310Y5643630D02*
X6389340Y5617640D01*
X6389330Y5669620D01*
X6344310Y5643630D01*
G36*
X6344310Y5643630D02*
X6389340Y5617640D01*
X6389330Y5669620D01*
X6344310Y5643630D01*
G37*
D02*
D139*
X5528610Y2693130D02*
X5745810D01*
X5775310Y2663630D01*
X5800810D01*
X5528610Y2758130D02*
Y2758630D01*
X5708810D01*
X5821310Y2871130D01*
X5962710D01*
X5978310Y2886730D01*
Y2892230D01*
X5911090Y2663630D02*
X5826810Y2712290D01*
Y2614970D01*
X5911090Y2663630D01*
G36*
X5911090Y2663630D02*
X5826810Y2712290D01*
Y2614970D01*
X5911090Y2663630D01*
G37*
X5978310D02*
X5800810D01*
D02*
D140*
X1593310Y850330D02*
Y351130D01*
X1601310Y4241890D02*
X1600810D01*
X1616350Y1184330D02*
X1593310D01*
Y850330D01*
X1841350Y1222050D02*
Y1176130D01*
X2335650D01*
X2335870Y1176350D01*
X2381350D01*
X1938310Y4245430D02*
Y4243630D01*
X1603310D01*
Y4241890D01*
X1601310D01*
X1943310Y948880D02*
X1593310D01*
Y850330D01*
X1943310Y948880D02*
Y945630D01*
X2326600D01*
X2327320Y946350D01*
X2381350D01*
X2353340Y4444390D02*
X2753340D01*
X2381350Y1176350D02*
X3011350D01*
X2698310Y945630D02*
X2486350D01*
Y946350D01*
X2381350D01*
X3011350Y1176350D02*
X3203310D01*
X3036350Y5296890D02*
X3049820D01*
Y5422630D01*
X3103560Y7008630D02*
Y6783630D01*
Y7458630D02*
Y7234630D01*
X3306350Y921600D02*
Y1171130D01*
X3208530D01*
X3203310Y1176350D01*
X3820810Y489390D02*
X3645810D01*
X3555810Y579390D01*
Y688630D01*
X3963610Y3612630D02*
Y3441130D01*
X3963310D01*
X3963610Y3612630D02*
Y3826630D01*
X3964610Y3827630D01*
Y3998630D01*
X3965810D01*
X4018310Y983630D02*
Y926130D01*
X3963310Y871130D01*
X3822550D01*
X3820810Y869390D01*
X4018310Y1223630D02*
Y983630D01*
X4774010Y1956130D02*
X4775810D01*
Y2066130D01*
X4625810D01*
X4776510Y2163630D02*
Y1744330D01*
X4760810Y1728630D01*
X5640810Y1389330D02*
Y1122630D01*
X5643310Y1120130D01*
D02*
D141*
X1383310Y731130D03*
X1778310Y4241130D03*
X2695810Y6448630D03*
X2698310Y945630D03*
X3738310Y5918630D03*
X4295810Y5356130D03*
X5640810Y1791130D03*
X5765810Y4471130D03*
X6333310Y6023630D03*
D02*
D142*
X615810Y3618630D03*
X1355810Y4718630D03*
X1383310Y3078630D03*
X1616350Y1623630D03*
X1810810Y3671130D03*
X1841350Y1628630D03*
X2013310Y3351130D03*
X2553310Y4143630D03*
X2713310Y1176350D03*
X2894010Y7908630D03*
X3155810Y1981130D03*
Y2376130D03*
X3160810Y3153630D03*
X3163310Y3533630D03*
X3203310Y1176350D03*
X3298310Y7733630D03*
X3488310Y7368630D03*
X3555810Y688630D03*
X3735010Y3441130D03*
X3736010Y4131130D03*
X3885810Y2943630D03*
X3963310Y3441130D03*
X3965810Y3998630D03*
X4018310Y983630D03*
Y1956130D03*
X4295810Y6318630D03*
X4348310Y2266130D03*
X4625810Y2066130D03*
X5155810Y2061130D03*
X5433310Y5283630D03*
X5800810Y2663630D03*
X5833310Y2868630D03*
X6123310Y7238630D03*
D02*
D143*
X483310Y4093630D03*
Y4173630D03*
Y4253630D03*
Y4333630D03*
Y4413630D03*
X573310Y4093630D03*
Y4173630D03*
Y4253630D03*
Y4333630D03*
Y4413630D03*
D02*
D144*
X2758310Y7011130D03*
X2763310Y6784630D03*
X3803310Y6301130D03*
X5043310Y3146130D03*
Y3218630D03*
X5083310Y2783630D03*
X5085810Y2496130D03*
Y2698630D03*
Y2858630D03*
X5090810Y3018630D03*
X5093310Y2938630D03*
X5238310Y2566130D03*
X5320810Y4371130D03*
X5330810Y2628130D03*
X5335810Y2496130D03*
X5338310Y2423630D03*
X5490810Y2296130D03*
X5698310Y3216130D03*
X5705810Y2938630D03*
X5715810Y3028630D03*
X5725810Y7126130D03*
X5735810Y6908630D03*
X5898310Y2293630D03*
D02*
D145*
X1183310Y5433630D03*
Y5608630D03*
X1358310Y5258630D03*
Y5433630D03*
Y5608630D03*
X1533310Y5433630D03*
Y5608630D03*
D02*
D146*
X262110Y4436850D02*
X308310D01*
Y4648630D01*
G75*
G02*
X326030Y4666350I17720J0D01*
G01*
X464850D01*
X477050Y4661350D01*
X418060Y3243630D02*
X415810D01*
Y3794390D01*
X262110Y3948090D01*
Y4055850D01*
X1943310Y758380D02*
X2148320D01*
X2316350Y590350D01*
X3122610Y7734630D02*
X3111810Y7709130D01*
X3108310Y7712630D01*
Y7218380D01*
G75*
G02*
X3103560Y7223130I0J4750D01*
G01*
Y7234630D01*
X3306350Y731100D02*
X3057100D01*
X2916350Y590350D01*
D02*
D147*
X2573310Y4748630D03*
Y4903630D03*
Y5043630D03*
Y5183630D03*
Y5323630D03*
X2703310Y4898630D03*
X2706350Y4748630D03*
Y5043630D03*
Y5183630D03*
Y5323630D03*
X2838310Y4748630D03*
Y4898630D03*
X2843310Y5043630D03*
X2973310Y4748630D03*
Y4898630D03*
Y5048630D03*
X3103310Y4748630D03*
Y4898630D03*
Y5048630D03*
X3223310Y4748630D03*
Y4898630D03*
Y5048630D03*
D02*
D148*
X3093310Y6613630D03*
X3258310Y7333630D03*
X3323310Y7071130D03*
X3443310Y5591130D03*
X3548310Y5616130D03*
X4250810Y7828630D03*
X4445810Y5791130D03*
X4453310Y2668630D03*
Y3188630D03*
X4520810Y2551130D03*
Y6383630D03*
X4590810Y2463630D03*
X4595810Y6208630D03*
X4660810Y2378630D03*
Y6296130D03*
X4760810Y7343630D03*
Y7728630D03*
X4853010Y2338630D03*
X4913310Y6538630D03*
X4925810Y7576130D03*
X4980810Y3391130D03*
X5048310Y6473630D03*
X5178310Y2823130D03*
X5243310Y2986130D03*
X5305810Y3446130D03*
X5380810Y6913630D03*
X5388310Y5776130D03*
X5480810Y3408630D03*
X5545810Y3883630D03*
X5608310Y3383630D03*
X5760810Y5788630D03*
X5778310Y3411130D03*
X5845810Y3518630D03*
X5895810Y5646130D03*
Y5913630D03*
X5905810Y3216130D03*
X6398310Y5643630D03*
D02*
D149*
X2683310Y7353630D03*
X2704420Y7529740D03*
X4875810Y7068630D03*
X4943310Y6871130D03*
X5755810Y5906130D03*
X6080810Y4161130D03*
D02*
D164*
X1088310Y351130D02*
Y373630D01*
X1085810Y376130D01*
Y748630D01*
G75*
G03*
X645810Y1188630I-440000J0D01*
G01*
X638310D01*
Y1184630D01*
D02*
D165*
X262110Y4055850D03*
Y4182850D03*
Y4309850D03*
Y4436850D03*
X804510Y4055850D03*
Y4182850D03*
Y4309850D03*
Y4436850D03*
D02*
D166*
X533310Y4246350D03*
D02*
D167*
X2305810Y2173630D03*
X2313310Y3341890D03*
X3155810Y2173630D03*
X3163310Y3341890D03*
D02*
D168*
X394010Y3776130D03*
X477050Y4661350D03*
X622610Y3776130D03*
X705650Y4661350D03*
X2864010Y6456630D03*
X2894010Y7734630D03*
X3092610Y6456630D03*
X3122610Y7734630D03*
X3735010Y3612630D03*
X3736010Y3827630D03*
X3963610Y3612630D03*
X3964010Y2256350D03*
X3964610Y3827630D03*
X4079010Y2946350D03*
X4192610Y2256350D03*
X4307610Y2946350D03*
X4774010Y1956130D03*
X4776510Y2163630D03*
X5002610Y1956130D03*
X5005110Y2163630D03*
X6081510Y5896130D03*
X6310110D03*
D02*
D169*
X1129310Y4716470D03*
X1587310D03*
D02*
D170*
X1358310Y5430970D03*
D02*
D171*
X418060Y3243630D03*
X420560Y3453630D03*
X608560Y3243630D03*
X611060Y3453630D03*
X1103060Y5941130D03*
X1293560D03*
X1588060Y6093630D03*
X1778560D03*
X2913060Y6783630D03*
Y7008630D03*
Y7234630D03*
Y7458630D03*
X3103560Y6783630D03*
Y7008630D03*
Y7234630D03*
Y7458630D03*
X3473060Y6306130D03*
X3480560Y6091130D03*
X3663560Y6306130D03*
X3671060Y6091130D03*
X4410560Y703630D03*
X4601060D03*
X5645560Y6158630D03*
X5836060D03*
X6090560Y3216130D03*
X6281060D03*
D02*
D172*
X2353340Y4144390D03*
Y4444390D03*
X2753340Y4144390D03*
Y4444390D03*
D02*
D173*
X638310Y2708630D03*
D02*
D174*
Y1184630D03*
Y1692630D03*
Y2200630D03*
X1701350Y6446350D03*
Y8016350D03*
D02*
D175*
X2381350Y946350D03*
Y1176350D03*
Y1406350D03*
D02*
D176*
X3011350Y1176350D03*
D02*
D177*
X1410810Y1181830D03*
Y1410430D03*
X1616350Y1184330D03*
Y1412930D03*
X1841350Y1222050D03*
Y1450650D03*
X1938310Y4016830D03*
Y4245430D03*
X2083310Y1219330D03*
Y1447930D03*
X5640810Y1389330D03*
Y1617930D03*
X5978310Y2663630D03*
Y2892230D03*
X6195810Y2664330D03*
Y2892930D03*
D02*
D178*
X1943310Y758380D03*
Y948880D03*
X3306350Y731100D03*
Y921600D03*
X4225810Y3580880D03*
Y3771380D03*
X4453310Y3580880D03*
Y3771380D03*
X4635810Y4058380D03*
Y4248880D03*
X4863310Y4050880D03*
Y4241380D03*
X5090810Y4048380D03*
Y4238880D03*
X5318310Y4045880D03*
Y4236380D03*
X5545810Y4043380D03*
Y4233880D03*
X6013310Y4473380D03*
Y4663880D03*
D02*
D179*
X4760810Y1728630D03*
X5020810D03*
X6070810Y6153630D03*
X6330810D03*
D02*
D180*
X3615810Y8268630D03*
Y8522630D03*
X3869810Y8268630D03*
Y8522630D03*
X4123810Y8268630D03*
Y8522630D03*
X4377810Y8268630D03*
Y8522630D03*
X4631810Y8268630D03*
Y8522630D03*
X4885810Y8268630D03*
Y8522630D03*
X5139810Y8268630D03*
Y8522630D03*
X5393810Y8268630D03*
Y8522630D03*
D02*
D181*
X5986350Y881350D03*
Y1531350D03*
X6436350Y881350D03*
Y1531350D03*
D02*
D182*
X4107840Y4651890D03*
Y5586890D03*
X4234840Y4651890D03*
Y5586890D03*
X4361840Y4651890D03*
Y5586890D03*
X4488840Y4651890D03*
Y5586890D03*
X4615840Y4651890D03*
Y5586890D03*
X4742840Y4651890D03*
Y5586890D03*
X4869840Y4651890D03*
Y5586890D03*
X4996840Y4651890D03*
Y5586890D03*
X5123840Y4651890D03*
Y5586890D03*
X5250840Y4651890D03*
Y5586890D03*
X5377840Y4651890D03*
Y5586890D03*
X5504840Y4651890D03*
Y5586890D03*
X5631840Y4651890D03*
Y5586890D03*
X5758840Y4651890D03*
Y5586890D03*
D02*
D183*
X4018310Y1223630D03*
Y1723630D03*
D02*
D184*
X3820810Y489390D03*
Y869390D03*
D02*
D185*
X2006350Y5296890D03*
X3036350D03*
D02*
D186*
X3843310Y4368630D03*
Y4628630D03*
D02*
D187*
X2031350Y7675850D03*
D02*
D188*
Y6913850D03*
Y7167850D03*
Y7421850D03*
X2285350Y6786850D03*
Y7040850D03*
Y7294850D03*
Y7548850D03*
D02*
D189*
X990350Y6567350D03*
Y6821350D03*
Y7641350D03*
Y7895350D03*
D02*
D190*
X3490810Y7548630D03*
Y7733630D03*
D02*
D191*
X3890810Y2501350D03*
Y2741350D03*
X4290810Y2501350D03*
Y2741350D03*
D02*
D192*
X1600310Y3076890D03*
Y3516890D03*
D02*
D193*
X3215840Y4424390D03*
X4151640Y340310D03*
X4409810Y343630D03*
X4663810D03*
X4917810D03*
X5171810D03*
X5425810D03*
X5643310Y866130D03*
Y1120130D03*
D02*
D194*
X1084310Y3244390D03*
Y3752390D03*
D02*
D195*
X2316350Y336350D03*
Y590350D03*
X2916350Y336350D03*
Y590350D03*
D02*
D196*
X3940810Y5918630D03*
Y6318630D03*
X4180810Y5918630D03*
Y6318630D03*
D02*
D197*
X1601310Y3811890D03*
Y4241890D03*
D02*
D198*
X318310Y318630D03*
Y8638630D03*
X6458310Y318630D03*
Y8638630D03*
D02*
D199*
X1088310Y351130D03*
X1593310D03*
D02*
D200*
X4853010Y2433130D03*
Y2498130D03*
Y2563130D03*
Y2628130D03*
Y2693130D03*
Y2758130D03*
Y2823130D03*
Y2888130D03*
Y2953130D03*
Y3018130D03*
Y3083130D03*
Y3148130D03*
Y3213130D03*
Y3278130D03*
X5528610Y2433130D03*
Y2498130D03*
Y2563130D03*
Y2628130D03*
Y2693130D03*
Y2758130D03*
Y2823130D03*
Y2888130D03*
Y2953130D03*
Y3018130D03*
Y3083130D03*
Y3148130D03*
Y3213130D03*
Y3278130D03*
D02*
D201*
X5550810Y6688630D03*
Y6798630D03*
Y6908630D03*
Y7018630D03*
Y7128630D03*
Y7238630D03*
Y7348630D03*
Y7458630D03*
D02*
D202*
X5563310Y6443630D03*
D02*
D203*
Y7578630D03*
D02*
D204*
X6388310Y6408630D03*
D02*
D205*
X6630810Y6453630D03*
D02*
D206*
X6473310Y7571130D03*
D02*
D207*
X6323310Y7603630D03*
D02*
D208*
X6073310Y5643630D03*
X6258310D03*
X0Y0D02*
M02*
