G05
M48
;#@! TF.GenerationSoftware,DesignSpark,DesignSpark PCB,11.0.5875
;#@! TF.CreationDate,2023-08-01T21:42:28+00:00*
;#@! TF.FileFunction,Plated,1,4,PTH
;FILE_FORMAT=3:5
;TYPE=PLATED
INCH,TZ
FMAT,2
T1C000.01220
T2C000.01614
T3C000.02008
T4C000.02795
T5C000.03000
T6C000.03189
T7C000.03500
T8C000.03543
T9C000.03937
T10C000.04016
T11C000.04724
T12C000.04921
T13C000.06299
T14C000.12795
%
T001
X1.05642Y2.89513
X1.06473Y2.96446
X1.08595Y2.76029
X1.08792Y2.67111
X1.21784Y2.60379
X1.28280Y2.88726
X1.30839Y2.78391
X1.35563Y2.20123
X1.39697Y2.21107
X1.49737Y2.48076
X1.67355Y3.08214
X1.75032Y2.27997
X1.75327Y1.05064
X1.75327Y1.25537
X1.77985Y1.00438
X1.77985Y2.51324
X1.80741Y0.96993
X1.80937Y2.44434
X1.83496Y0.93647
X1.83496Y2.47879
X1.87433Y2.89119
X1.87433Y3.04277
X1.91063Y0.92072
X1.91961Y2.78293
X1.93437Y2.57426
X1.93930Y2.98273
X1.94619Y2.70517
X1.96095Y1.33509
X1.98556Y1.23863
X1.98556Y1.26718
X1.98752Y2.54867
X2.00130Y1.09592
X2.00229Y0.98273
X2.00229Y1.06245
X2.00229Y1.12544
X2.00426Y1.18844
X2.00524Y1.15694
X2.03870Y1.11147
X2.06233Y1.01029
X2.06430Y1.17564
X2.08890Y1.35674
X2.09481Y1.72092
X2.09874Y1.03470
X2.10071Y0.98273
X2.10170Y0.95419
X2.11843Y2.72190
X2.12138Y2.27407
X2.15780Y1.34198
X2.16174Y0.90399
X2.18339Y1.52899
X2.20800Y1.33214
X2.24343Y1.26619
X2.24638Y1.15694
X2.25032Y1.19237
X2.25426Y2.80556
X2.25819Y2.71993
X2.26607Y2.32525
X2.26804Y2.27899
X2.27493Y1.34296
X2.30150Y1.38529
X2.32119Y2.22289
X2.32119Y2.32820
X2.32217Y0.90300
X2.32512Y1.26619
X2.39402Y1.63824
X2.51902Y2.22190
T002
X0.19028Y1.61167
X0.19028Y1.64316
X0.19028Y1.67466
X0.19028Y1.70615
X0.19028Y1.73765
X0.22571Y1.61167
X0.22571Y1.64316
X0.22571Y1.67466
X0.22571Y1.70615
X0.22571Y1.73765
T003
X1.01311Y1.86954
X1.01311Y1.93056
X1.01311Y1.98568
X1.01311Y2.04080
X1.01311Y2.09592
X1.06430Y1.92859
X1.06549Y1.86954
X1.06549Y1.98568
X1.06549Y2.04080
X1.06549Y2.09592
X1.11744Y1.86954
X1.11744Y1.92859
X1.11941Y1.98568
X1.17059Y1.86954
X1.17059Y1.92859
X1.17059Y1.98765
X1.22178Y1.86954
X1.22178Y1.92859
X1.22178Y1.98765
X1.26902Y1.86954
X1.26902Y1.92859
X1.26902Y1.98765
T004
X0.24244Y1.42466
X0.42689Y1.27732
X0.42689Y1.47732
X0.53378Y1.85773
X0.54461Y0.28785
X0.54461Y1.21206
X0.63636Y0.63922
X0.70012Y1.66974
X0.71292Y1.44533
X0.72494Y0.64119
X0.79264Y1.31934
X1.00524Y1.63135
X1.06134Y2.53883
X1.06233Y0.37230
X1.06823Y0.46313
X1.13937Y3.11363
X1.24244Y0.77997
X1.24244Y0.93548
X1.24441Y1.24159
X1.24540Y1.39119
X1.26115Y0.46313
X1.29855Y3.04474
X1.37335Y2.90104
X1.39993Y0.27111
X1.47048Y1.35478
X1.47087Y1.62643
X1.47178Y2.33017
X1.52985Y1.15891
X1.56036Y1.35478
X1.56134Y1.57426
X1.58201Y0.38726
X1.58201Y0.77013
X1.69126Y2.10871
X1.69126Y2.48765
X1.71193Y0.89218
X1.82119Y0.81344
X2.02985Y0.81147
X2.13910Y2.08017
X2.22079Y0.70517
X2.27000Y1.76029
X2.28378Y1.04867
X2.29658Y1.12938
X2.41075Y2.84985
X2.49343Y2.37151
T005
X0.91195Y0.13242
X0.91195Y0.23242
X1.14817Y0.13242
X1.14817Y0.23242
T006
X0.42847Y0.13824
X0.46587Y2.13922
X0.46587Y2.20812
X0.53477Y2.07033
X0.53477Y2.13922
X0.53477Y2.20812
X0.60367Y2.13922
X0.60367Y2.20812
X0.62729Y0.13824
T007
X1.26608Y1.74189
X1.63450Y0.13398
X1.73615Y0.13529
X1.83615Y0.13529
X1.93615Y0.13529
X2.03615Y0.13529
X2.13615Y0.13529
X2.22178Y0.34100
X2.22178Y0.44100
T008
X0.79974Y2.72199
X0.79974Y2.82199
X0.79974Y2.92199
X0.79974Y3.02199
X0.89974Y2.67199
X0.89974Y2.77199
X0.89974Y2.87199
X0.89974Y2.97199
T009
X2.35683Y0.34699
X2.35683Y0.60289
X2.53400Y0.34699
X2.53400Y0.60289
T010
X0.38990Y2.58557
X0.38990Y2.68557
X0.38990Y3.00841
X0.38990Y3.10841
T011
X1.42355Y3.25537
X1.42355Y3.35537
X1.52355Y3.25537
X1.52355Y3.35537
X1.62355Y3.25537
X1.62355Y3.35537
X1.72355Y3.25537
X1.72355Y3.35537
X1.82355Y3.25537
X1.82355Y3.35537
X1.92355Y3.25537
X1.92355Y3.35537
X2.02355Y3.25537
X2.02355Y3.35537
X2.12355Y3.25537
X2.12355Y3.35537
T012
X0.25130Y0.46639
X0.25130Y0.66639
X0.25130Y0.86639
X0.25130Y1.06639
T013
X0.66982Y2.53793
X0.66982Y3.15604
T014
X0.12532Y0.12544
X0.12532Y3.40104
X0.54974Y2.62199
X0.54974Y3.07199
X2.54264Y0.12544
X2.54264Y3.40104
M30
