G04 DesignSpark PCB Gerber Version 11.0 Build 5877*
G04 #@! TF.Part,Single*
G04 #@! TF.FileFunction,Copper,L4,Bot*
G04 #@! TF.FilePolarity,Positive*
%FSLAX35Y35*%
%MOMM*%
G04 #@! TA.AperFunction,ViaPad*
%AMT74*0 Rounded Rectangle Pad at angle 0*4,1,32,-0.11000,-0.44500,0.11000,-0.44500,0.14340,-0.44120,0.17510,-0.43010,0.20350,-0.41220,0.22720,-0.38850,0.24510,-0.36010,0.25620,-0.32840,0.26000,-0.29500,0.26000,0.29500,0.25620,0.32840,0.24510,0.36010,0.22720,0.38850,0.20350,0.41220,0.17510,0.43010,0.14340,0.44120,0.11000,0.44500,-0.11000,0.44500,-0.14340,0.44120,-0.17510,0.43010,-0.20350,0.41220,-0.22720,0.38850,-0.24510,0.36010,-0.25620,0.32840,-0.26000,0.29500,-0.26000,-0.29500,-0.25620,-0.32840,-0.24510,-0.36010,-0.22720,-0.38850,-0.20350,-0.41220,-0.17510,-0.43010,-0.14340,-0.44120,-0.11000,-0.44500,0*%
%ADD74T74*%
%AMT26*0 Rounded Rectangle Pad at angle 0*4,1,44,-0.21000,-0.70000,0.21000,-0.70000,0.25690,-0.69630,0.30270,-0.68530,0.34620,-0.66730,0.38630,-0.64270,0.42210,-0.61210,0.45270,-0.57630,0.47730,-0.53620,0.49530,-0.49270,0.50630,-0.44690,0.51000,-0.40000,0.51000,0.40000,0.50630,0.44690,0.49530,0.49270,0.47730,0.53620,0.45270,0.57630,0.42210,0.61210,0.38630,0.64270,0.34620,0.66730,0.30270,0.68530,0.25690,0.69630,0.21000,0.70000,-0.21000,0.70000,-0.25690,0.69630,-0.30270,0.68530,-0.34620,0.66730,-0.38630,0.64270,-0.42210,0.61210,-0.45270,0.57630,-0.47730,0.53620,-0.49530,0.49270,-0.50630,0.44690,-0.51000,0.40000,-0.51000,-0.40000,-0.50630,-0.44690,-0.49530,-0.49270,-0.47730,-0.53620,-0.45270,-0.57630,-0.42210,-0.61210,-0.38630,-0.64270,-0.34620,-0.66730,-0.30270,-0.68530,-0.25690,-0.69630,-0.21000,-0.70000,0*%
%ADD26T26*%
%AMT75*0 Rounded Rectangle Pad at angle 45*4,1,32,0.23690,-0.39240,0.39240,-0.23690,0.41330,-0.21060,0.42790,-0.18030,0.43540,-0.14760,0.43540,-0.11400,0.42790,-0.08120,0.41330,-0.05090,0.39240,-0.02470,-0.02470,0.39240,-0.05100,0.41330,-0.08130,0.42790,-0.11400,0.43540,-0.14760,0.43540,-0.18040,0.42790,-0.21070,0.41330,-0.23690,0.39240,-0.39240,0.23690,-0.41330,0.21060,-0.42790,0.18030,-0.43540,0.14760,-0.43540,0.11400,-0.42790,0.08120,-0.41330,0.05090,-0.39240,0.02470,0.02470,-0.39240,0.05100,-0.41330,0.08130,-0.42790,0.11400,-0.43540,0.14760,-0.43540,0.18040,-0.42790,0.21070,-0.41330,0.23690,-0.39240,0*%
%ADD75T75*%
%AMT28*0 Rounded Rectangle Pad at angle 90*4,1,32,0.44500,-0.11000,0.44500,0.11000,0.44120,0.14340,0.43010,0.17510,0.41220,0.20350,0.38850,0.22720,0.36010,0.24510,0.32840,0.25620,0.29500,0.26000,-0.29500,0.26000,-0.32840,0.25620,-0.36010,0.24510,-0.38850,0.22720,-0.41220,0.20350,-0.43010,0.17510,-0.44120,0.14340,-0.44500,0.11000,-0.44500,-0.11000,-0.44120,-0.14340,-0.43010,-0.17510,-0.41220,-0.20350,-0.38850,-0.22720,-0.36010,-0.24510,-0.32840,-0.25620,-0.29500,-0.26000,0.29500,-0.26000,0.32840,-0.25620,0.36010,-0.24510,0.38850,-0.22720,0.41220,-0.20350,0.43010,-0.17510,0.44120,-0.14340,0.44500,-0.11000,0*%
%ADD28T28*%
%AMT25*0 Rounded Rectangle Pad at angle 90*4,1,44,0.70000,-0.21000,0.70000,0.21000,0.69630,0.25690,0.68530,0.30270,0.66730,0.34620,0.64270,0.38630,0.61210,0.42210,0.57630,0.45270,0.53620,0.47730,0.49270,0.49530,0.44690,0.50630,0.40000,0.51000,-0.40000,0.51000,-0.44690,0.50630,-0.49270,0.49530,-0.53620,0.47730,-0.57630,0.45270,-0.61210,0.42210,-0.64270,0.38630,-0.66730,0.34620,-0.68530,0.30270,-0.69630,0.25690,-0.70000,0.21000,-0.70000,-0.21000,-0.69630,-0.25690,-0.68530,-0.30270,-0.66730,-0.34620,-0.64270,-0.38630,-0.61210,-0.42210,-0.57630,-0.45270,-0.53620,-0.47730,-0.49270,-0.49530,-0.44690,-0.50630,-0.40000,-0.51000,0.40000,-0.51000,0.44690,-0.50630,0.49270,-0.49530,0.53620,-0.47730,0.57630,-0.45270,0.61210,-0.42210,0.64270,-0.38630,0.66730,-0.34620,0.68530,-0.30270,0.69630,-0.25690,0.70000,-0.21000,0*%
%ADD25T25*%
G04 #@! TA.AperFunction,ComponentPad*
%AMT86*0 Rounded Rectangle Pad at angle 0*4,1,76,-1.50000,-2.50000,1.50000,-2.50000,1.58720,-2.49620,1.67370,-2.48480,1.75890,-2.46590,1.84210,-2.43970,1.92270,-2.40630,2.00010,-2.36600,2.07370,-2.31910,2.14290,-2.26600,2.20720,-2.20710,2.26610,-2.14280,2.31920,-2.07360,2.36610,-2.00000,2.40640,-1.92260,2.43980,-1.84200,2.46600,-1.75880,2.48490,-1.67360,2.49630,-1.58710,2.50000,-1.50000,2.50000,1.50000,2.49620,1.58720,2.48480,1.67370,2.46590,1.75890,2.43970,1.84210,2.40630,1.92270,2.36600,2.00010,2.31910,2.07370,2.26600,2.14290,2.20710,2.20720,2.14280,2.26610,2.07360,2.31920,2.00000,2.36610,1.92260,2.40640,1.84200,2.43980,1.75880,2.46600,1.67360,2.48490,1.58710,2.49630,1.50000,2.50000,-1.50000,2.50000,-1.58720,2.49620,-1.67370,2.48480,-1.75890,2.46590,-1.84210,2.43970,-1.92270,2.40630,-2.00010,2.36600,-2.07370,2.31910,-2.14290,2.26600,-2.20720,2.20710,-2.26610,2.14280,-2.31920,2.07360,-2.36610,2.00000,-2.40640,1.92260,-2.43980,1.84200,-2.46600,1.75880,-2.48490,1.67360,-2.49630,1.58710,-2.50000,1.50000,-2.50000,-1.50000,-2.49620,-1.58720,-2.48480,-1.67370,-2.46590,-1.75890,-2.43970,-1.84210,-2.40630,-1.92270,-2.36600,-2.00010,-2.31910,-2.07370,-2.26600,-2.14290,-2.20710,-2.20720,-2.14280,-2.26610,-2.07360,-2.31920,-2.00000,-2.36610,-1.92260,-2.40640,-1.84200,-2.43980,-1.75880,-2.46600,-1.67360,-2.48490,-1.58710,-2.49630,-1.50000,-2.50000,0*%
%ADD86T86*%
%ADD80R,1.40000X1.40000*%
%ADD83R,1.52400X1.52400*%
%ADD76R,2.40000X2.40000*%
G04 #@! TD.AperFunction*
%ADD21C,0.25400*%
%ADD22C,0.38100*%
%ADD23C,0.40000*%
%ADD24C,0.63500*%
G04 #@! TA.AperFunction,ViaPad*
%ADD27C,0.71000*%
G04 #@! TD.AperFunction*
%ADD72C,0.85000*%
G04 #@! TA.AperFunction,ViaPad*
%ADD73C,0.90000*%
G04 #@! TA.AperFunction,ComponentPad*
%ADD84C,1.21700*%
%ADD87C,1.31600*%
%ADD81C,1.40000*%
G04 #@! TA.AperFunction,ViaPad*
%ADD29C,1.42000*%
G04 #@! TA.AperFunction,ComponentPad*
%ADD79C,1.50000*%
%ADD82C,1.53000*%
%ADD78C,1.80000*%
%ADD77C,2.40000*%
%ADD85R,2.03200X1.52400*%
G04 #@! TD.AperFunction*
X0Y0D02*
D02*
D21*
X3865810Y8114080D02*
X3801890Y8231720D01*
G75*
G03*
X3935730Y8228260I67920J36910D01*
G01*
X3865810Y8114080D01*
G36*
X3865810Y8114080D02*
X3801890Y8231720D01*
G75*
G03*
X3935730Y8228260I67920J36910D01*
G01*
X3865810Y8114080D01*
G37*
X4123310Y8114030D02*
X4056750Y8230200D01*
G75*
G03*
X4190620Y8229760I67060J38420D01*
G01*
X4123310Y8114030D01*
G36*
X4123310Y8114030D02*
X4056750Y8230200D01*
G75*
G03*
X4190620Y8229760I67060J38420D01*
G01*
X4123310Y8114030D01*
G37*
X4123810Y8268630D02*
X4115810D01*
Y7438630D01*
X4833310Y6721130D01*
Y2783130D01*
X4985810Y2628630D01*
X5317810D01*
X5318310Y2628130D01*
X5330810D01*
X4235600Y8415840D02*
X4105520Y8447530D01*
G75*
G03*
X4198000Y8544340I18290J75100D01*
G01*
X4235600Y8415840D01*
G36*
X4235600Y8415840D02*
X4105520Y8447530D01*
G75*
G03*
X4198000Y8544340I18290J75100D01*
G01*
X4235600Y8415840D01*
G37*
X4250810Y7828630D02*
Y8400630D01*
X4128810Y8522630D01*
X4123810D01*
X4250810Y7881780D02*
X4237820Y7859280D01*
X4263800D01*
X4250810Y7881780D01*
G36*
X4250810Y7881780D02*
X4237820Y7859280D01*
X4263800D01*
X4250810Y7881780D01*
G37*
X4515250Y8421070D02*
X4558690Y8547710D01*
G75*
G03*
X4646640Y8446770I73110J-25080D01*
G01*
X4515250Y8421070D01*
G36*
X4515250Y8421070D02*
X4558690Y8547710D01*
G75*
G03*
X4646640Y8446770I73110J-25080D01*
G01*
X4515250Y8421070D01*
G37*
X4520810Y2551130D02*
Y6383630D01*
Y2604280D02*
X4507820Y2581780D01*
X4533800D01*
X4520810Y2604280D01*
G36*
X4520810Y2604280D02*
X4507820Y2581780D01*
X4533800D01*
X4520810Y2604280D01*
G37*
Y6330480D02*
X4533800Y6352980D01*
X4507820D01*
X4520810Y6330480D01*
G36*
X4520810Y6330480D02*
X4533800Y6352980D01*
X4507820D01*
X4520810Y6330480D01*
G37*
X4590810Y2463630D02*
Y4338630D01*
X4595810D01*
Y6208630D01*
X4590810Y2516780D02*
X4577820Y2494280D01*
X4603800D01*
X4590810Y2516780D01*
G36*
X4590810Y2516780D02*
X4577820Y2494280D01*
X4603800D01*
X4590810Y2516780D01*
G37*
X4595810Y6155480D02*
X4608800Y6177980D01*
X4582820D01*
X4595810Y6155480D01*
G36*
X4595810Y6155480D02*
X4608800Y6177980D01*
X4582820D01*
X4595810Y6155480D01*
G37*
X4631810Y8522630D02*
X4616810D01*
X4505810Y8411630D01*
Y7113630D01*
X4980810Y6638630D01*
Y3391130D01*
X4645810Y8114670D02*
X4568650Y8224080D01*
G75*
G03*
X4701980Y8236200I63170J44550D01*
G01*
X4645810Y8114670D01*
G36*
X4645810Y8114670D02*
X4568650Y8224080D01*
G75*
G03*
X4701980Y8236200I63170J44550D01*
G01*
X4645810Y8114670D01*
G37*
X4660810Y2378630D02*
Y6296130D01*
Y2431780D02*
X4647820Y2409280D01*
X4673800D01*
X4660810Y2431780D01*
G36*
X4660810Y2431780D02*
X4647820Y2409280D01*
X4673800D01*
X4660810Y2431780D01*
G37*
Y6242980D02*
X4673800Y6265480D01*
X4647820D01*
X4660810Y6242980D01*
G36*
X4660810Y6242980D02*
X4673800Y6265480D01*
X4647820D01*
X4660810Y6242980D01*
G37*
X4760810Y7290480D02*
X4773800Y7312980D01*
X4747820D01*
X4760810Y7290480D01*
G36*
X4760810Y7290480D02*
X4773800Y7312980D01*
X4747820D01*
X4760810Y7290480D01*
G37*
Y7343630D02*
Y6943630D01*
X5120810Y6583630D01*
Y3163630D01*
X5103310Y3146130D01*
X5043310D01*
X4760810Y7781780D02*
X4747820Y7759280D01*
X4773800D01*
X4760810Y7781780D01*
G36*
X4760810Y7781780D02*
X4747820Y7759280D01*
X4773800D01*
X4760810Y7781780D01*
G37*
X4779790Y8410110D02*
X4810580Y8540410D01*
G75*
G03*
X4908030Y8448590I75230J-17780D01*
G01*
X4779790Y8410110D01*
G36*
X4779790Y8410110D02*
X4810580Y8540410D01*
G75*
G03*
X4908030Y8448590I75230J-17780D01*
G01*
X4779790Y8410110D01*
G37*
X4885810Y8522630D02*
Y8516130D01*
X4760810Y8391130D01*
Y7728630D01*
X4913310Y6538630D02*
Y2821130D01*
X5038310Y2696130D01*
X5085810D01*
Y2698630D01*
X4913380Y7031070D02*
X4906660Y7056150D01*
X4888290Y7037780D01*
X4913380Y7031070D01*
G36*
X4913380Y7031070D02*
X4906660Y7056150D01*
X4888290Y7037780D01*
X4913380Y7031070D01*
G37*
X4925810Y7576130D02*
Y8213630D01*
X4885810Y8253630D01*
Y8268630D01*
X4925810Y7629280D02*
X4912820Y7606780D01*
X4938800D01*
X4925810Y7629280D01*
G36*
X4925810Y7629280D02*
X4912820Y7606780D01*
X4938800D01*
X4925810Y7629280D01*
G37*
Y8119290D02*
X4831150Y8213980D01*
G75*
G03*
X4960470Y8248620I54660J54650D01*
G01*
X4925810Y8119290D01*
G36*
X4925810Y8119290D02*
X4831150Y8213980D01*
G75*
G03*
X4960470Y8248620I54660J54650D01*
G01*
X4925810Y8119290D01*
G37*
X4980880Y6833570D02*
X4974160Y6858650D01*
X4955790Y6840280D01*
X4980880Y6833570D01*
G36*
X4980880Y6833570D02*
X4974160Y6858650D01*
X4955790Y6840280D01*
X4980880Y6833570D01*
G37*
X5043310Y3218630D02*
Y6473630D01*
X5048310D01*
X5043310Y3285320D02*
X5011820Y3230780D01*
X5074800D01*
X5043310Y3285320D01*
G36*
X5043310Y3285320D02*
X5011820Y3230780D01*
X5074800D01*
X5043310Y3285320D01*
G37*
X5048310Y6420480D02*
X5061300Y6442980D01*
X5035320D01*
X5048310Y6420480D01*
G36*
X5048310Y6420480D02*
X5061300Y6442980D01*
X5035320D01*
X5048310Y6420480D01*
G37*
X5085810Y2496130D02*
X5335810D01*
X5096460Y3146130D02*
X5073960Y3159120D01*
Y3133140D01*
X5096460Y3146130D01*
G36*
X5096460Y3146130D02*
X5073960Y3159120D01*
Y3133140D01*
X5096460Y3146130D01*
G37*
X5178310Y2823130D02*
Y6636130D01*
X4943310Y6871130D01*
X5178310Y2876280D02*
X5165320Y2853780D01*
X5191300D01*
X5178310Y2876280D01*
G36*
X5178310Y2876280D02*
X5165320Y2853780D01*
X5191300D01*
X5178310Y2876280D01*
G37*
X5238310Y2566130D02*
X4965810D01*
X4783310Y2748630D01*
Y6700130D01*
X3869810Y7613630D01*
Y8268630D01*
X5243310Y2986130D02*
Y6701130D01*
X4875810Y7068630D01*
X5243310Y3039280D02*
X5230320Y3016780D01*
X5256300D01*
X5243310Y3039280D01*
G36*
X5243310Y3039280D02*
X5230320Y3016780D01*
X5256300D01*
X5243310Y3039280D01*
G37*
X5305810Y3499280D02*
X5292820Y3476780D01*
X5318800D01*
X5305810Y3499280D01*
G36*
X5305810Y3499280D02*
X5292820Y3476780D01*
X5318800D01*
X5305810Y3499280D01*
G37*
X5320810Y4304440D02*
X5352300Y4358980D01*
X5289320D01*
X5320810Y4304440D01*
G36*
X5320810Y4304440D02*
X5352300Y4358980D01*
X5289320D01*
X5320810Y4304440D01*
G37*
Y4371130D02*
Y4261130D01*
X5305810Y4201130D01*
Y3446130D01*
X5338310Y2423630D02*
X4998310D01*
X4728310Y2693630D01*
Y6683630D01*
X3615810Y7796130D01*
Y8268630D01*
X5380810Y6860480D02*
X5393800Y6882980D01*
X5367820D01*
X5380810Y6860480D01*
G36*
X5380810Y6860480D02*
X5393800Y6882980D01*
X5367820D01*
X5380810Y6860480D01*
G37*
X5425810Y343630D02*
Y1976130D01*
X5718310Y2268630D01*
Y2583630D01*
X5668310Y2633630D01*
X5336310D01*
X5330810Y2628130D01*
X5480810Y3408630D02*
Y4406130D01*
X5478310D01*
X5305810Y4578630D01*
Y6738630D01*
X4880810Y7163630D01*
Y7398630D01*
X4645810Y7633630D01*
Y8254630D01*
X4631810Y8268630D01*
X5480810Y3461780D02*
X5467820Y3439280D01*
X5493800D01*
X5480810Y3461780D01*
G36*
X5480810Y3461780D02*
X5467820Y3439280D01*
X5493800D01*
X5480810Y3461780D01*
G37*
X5608310Y3330480D02*
X5621300Y3352980D01*
X5595320D01*
X5608310Y3330480D01*
G36*
X5608310Y3330480D02*
X5621300Y3352980D01*
X5595320D01*
X5608310Y3330480D01*
G37*
Y3383630D02*
Y4328630D01*
X5545810Y4391130D01*
Y6638630D01*
X5380810Y6803630D01*
Y6913630D01*
X5608310Y3383630D02*
Y3083630D01*
X5715810D01*
Y3028630D01*
X5608310Y3436780D02*
X5595320Y3414280D01*
X5621300D01*
X5608310Y3436780D01*
G36*
X5608310Y3436780D02*
X5595320Y3414280D01*
X5621300D01*
X5608310Y3436780D01*
G37*
X5672660Y7126130D02*
X5695160Y7113140D01*
Y7139120D01*
X5672660Y7126130D01*
G36*
X5672660Y7126130D02*
X5695160Y7113140D01*
Y7139120D01*
X5672660Y7126130D01*
G37*
X5725810D02*
X5670810D01*
X5638310Y7093630D01*
Y4398630D01*
X5778310Y4258630D01*
Y3411130D01*
X5735810Y6908630D02*
X5818310D01*
X5895810Y6831130D01*
Y5913630D01*
X5755810Y5906130D02*
X5965810Y5696130D01*
Y3133630D01*
X5838310Y3006130D01*
X5815810D01*
X5748310Y2938630D01*
X5705810D01*
X5778310Y3464280D02*
X5765320Y3441780D01*
X5791300D01*
X5778310Y3464280D01*
G36*
X5778310Y3464280D02*
X5765320Y3441780D01*
X5791300D01*
X5778310Y3464280D01*
G37*
X5788960Y6908630D02*
X5766460Y6921620D01*
Y6895640D01*
X5788960Y6908630D01*
G36*
X5788960Y6908630D02*
X5766460Y6921620D01*
Y6895640D01*
X5788960Y6908630D01*
G37*
X5793380Y5868570D02*
X5786660Y5893650D01*
X5768290Y5875280D01*
X5793380Y5868570D01*
G36*
X5793380Y5868570D02*
X5786660Y5893650D01*
X5768290Y5875280D01*
X5793380Y5868570D01*
G37*
X5839120Y3216130D02*
X5893660Y3184640D01*
Y3247620D01*
X5839120Y3216130D01*
G36*
X5839120Y3216130D02*
X5893660Y3184640D01*
Y3247620D01*
X5839120Y3216130D01*
G37*
X5845810Y3518630D02*
Y4351130D01*
X5895810Y4401130D01*
Y5646130D01*
X5845810Y3571780D02*
X5832820Y3549280D01*
X5858800D01*
X5845810Y3571780D01*
G36*
X5845810Y3571780D02*
X5832820Y3549280D01*
X5858800D01*
X5845810Y3571780D01*
G37*
X5895810Y5592980D02*
X5908800Y5615480D01*
X5882820D01*
X5895810Y5592980D01*
G36*
X5895810Y5592980D02*
X5908800Y5615480D01*
X5882820D01*
X5895810Y5592980D01*
G37*
Y5966780D02*
X5882820Y5944280D01*
X5908800D01*
X5895810Y5966780D01*
G36*
X5895810Y5966780D02*
X5882820Y5944280D01*
X5908800D01*
X5895810Y5966780D01*
G37*
X5905810Y3216130D02*
X5698310D01*
D02*
D22*
X2031350Y7167850D02*
X2032310D01*
Y7119630D01*
X2238310Y6913630D01*
X2423310D01*
X2723310Y6613630D01*
X3093310D01*
X2075790Y7076150D02*
X2002750Y7125690D01*
G75*
G03*
X2082160Y7164170I28600J42160D01*
G01*
X2075790Y7076150D01*
G36*
X2075790Y7076150D02*
X2002750Y7125690D01*
G75*
G03*
X2082160Y7164170I28600J42160D01*
G01*
X2075790Y7076150D01*
G37*
X2711900Y7325050D02*
X2708030Y7339500D01*
X2697440Y7328910D01*
X2711900Y7325050D01*
G36*
X2711900Y7325050D02*
X2708030Y7339500D01*
X2697440Y7328910D01*
X2711900Y7325050D01*
G37*
X2733010Y7501160D02*
X2729140Y7515610D01*
X2718550Y7505020D01*
X2733010Y7501160D01*
G36*
X2733010Y7501160D02*
X2729140Y7515610D01*
X2718550Y7505020D01*
X2733010Y7501160D01*
G37*
X2798750Y7011130D02*
X2785780Y7018620D01*
Y7003640D01*
X2798750Y7011130D01*
G36*
X2798750Y7011130D02*
X2785780Y7018620D01*
Y7003640D01*
X2798750Y7011130D01*
G37*
X2803750Y6784630D02*
X2790780Y6792120D01*
Y6777140D01*
X2803750Y6784630D01*
G36*
X2803750Y6784630D02*
X2790780Y6792120D01*
Y6777140D01*
X2803750Y6784630D01*
G37*
X3039310Y6613630D02*
X3084340Y6587640D01*
X3084330Y6639620D01*
X3039310Y6613630D01*
G36*
X3039310Y6613630D02*
X3084340Y6587640D01*
X3084330Y6639620D01*
X3039310Y6613630D01*
G37*
X3258310Y7333630D02*
Y7411130D01*
G75*
G03*
X3210810Y7458630I-47500J0D01*
G01*
X2775530D01*
X2704420Y7529740D01*
X3258310Y7374080D02*
X3250820Y7361110D01*
X3265800D01*
X3258310Y7374080D01*
G36*
X3258310Y7374080D02*
X3250820Y7361110D01*
X3265800D01*
X3258310Y7374080D01*
G37*
X3323310Y7071130D02*
Y7168630D01*
G75*
G03*
X3258310Y7233630I-65000J0D01*
G01*
X2803310D01*
X2683310Y7353630D01*
X3323310Y7111580D02*
X3315820Y7098610D01*
X3330800D01*
X3323310Y7111580D01*
G36*
X3323310Y7111580D02*
X3315820Y7098610D01*
X3330800D01*
X3323310Y7111580D01*
G37*
X3443310Y5591130D02*
X3440810D01*
Y6413630D01*
X3068310Y6786130D01*
X2814310D01*
X2812810Y6784630D01*
X2763310D01*
X3548310Y5616130D02*
X3555810D01*
Y6431130D01*
X2975810Y7011130D01*
X2758310D01*
X3803310Y6301130D02*
X3945810D01*
G75*
G02*
X4015810Y6231130I0J-70000D01*
G01*
Y5891130D01*
G75*
G03*
X4115810Y5791130I100000J0D01*
G01*
X4445810D01*
X3843750Y6301130D02*
X3830780Y6308620D01*
Y6293640D01*
X3843750Y6301130D01*
G36*
X3843750Y6301130D02*
X3830780Y6308620D01*
Y6293640D01*
X3843750Y6301130D01*
G37*
X4391810Y5791130D02*
X4436840Y5765140D01*
X4436830Y5817120D01*
X4391810Y5791130D01*
G36*
X4391810Y5791130D02*
X4436840Y5765140D01*
X4436830Y5817120D01*
X4391810Y5791130D01*
G37*
X4453310Y3188630D02*
Y2668630D01*
X5490810Y2296130D02*
X4853010D01*
Y2338630D01*
X5986350Y881350D02*
Y326670D01*
X5813310Y153630D01*
X4478310D01*
X4408310Y223630D01*
Y342130D01*
X4409810Y343630D01*
X5986350Y881350D02*
Y1531350D01*
X6080810Y4161130D02*
X6085810D01*
X6105810Y4141130D01*
Y2378630D01*
X6020810Y2293630D01*
X5898310D01*
D02*
D23*
X4853010Y2300080D02*
X4859680Y2311630D01*
X4846340D01*
X4853010Y2300080D01*
G36*
X4853010Y2300080D02*
X4859680Y2311630D01*
X4846340D01*
X4853010Y2300080D01*
G37*
Y2338630D02*
Y1268330D01*
X4153310Y568630D01*
Y338630D01*
D02*
D24*
X1084310Y3752390D02*
X1429550D01*
X1828310Y3353630D01*
X2013310D01*
Y3351130D01*
X1383310Y3005770D02*
X1402790Y3039510D01*
X1363830D01*
X1383310Y3005770D01*
G36*
X1383310Y3005770D02*
X1402790Y3039510D01*
X1363830D01*
X1383310Y3005770D01*
G37*
Y3078630D02*
Y731130D01*
X2285350Y7294850D02*
X2377030D01*
X2463310Y7381130D01*
Y7521130D01*
X2675810Y7733630D01*
X3298310D01*
X2361850Y7294850D02*
X2304470Y7261720D01*
G75*
G03*
Y7327980I-19130J33130D01*
G01*
X2361850Y7294850D01*
G36*
X2361850Y7294850D02*
X2304470Y7261720D01*
G75*
G03*
Y7327980I-19130J33130D01*
G01*
X2361850Y7294850D01*
G37*
D02*
D25*
X1383310Y731130D03*
X1778310Y4241130D03*
X2695810Y6448630D03*
X2698310Y945630D03*
X3738310Y5918630D03*
X4295810Y5356130D03*
X5640810Y1791130D03*
X5765810Y4471130D03*
X6333310Y6023630D03*
D02*
D26*
X615810Y3618630D03*
X1355810Y4718630D03*
X1383310Y3078630D03*
X1616350Y1623630D03*
X1810810Y3671130D03*
X1841350Y1628630D03*
X2013310Y3351130D03*
X2553310Y4143630D03*
X2713310Y1176350D03*
X2894010Y7908630D03*
X3155810Y1981130D03*
Y2376130D03*
X3160810Y3153630D03*
X3163310Y3533630D03*
X3203310Y1176350D03*
X3298310Y7733630D03*
X3488310Y7368630D03*
X3555810Y688630D03*
X3735010Y3441130D03*
X3736010Y4131130D03*
X3885810Y2943630D03*
X3963310Y3441130D03*
X3965810Y3998630D03*
X4018310Y983630D03*
Y1956130D03*
X4295810Y6318630D03*
X4348310Y2266130D03*
X4625810Y2066130D03*
X5155810Y2061130D03*
X5433310Y5283630D03*
X5800810Y2663630D03*
X5833310Y2868630D03*
X6123310Y7238630D03*
D02*
D27*
X483310Y4093630D03*
Y4173630D03*
Y4253630D03*
Y4333630D03*
Y4413630D03*
X573310Y4093630D03*
Y4173630D03*
Y4253630D03*
Y4333630D03*
Y4413630D03*
D02*
D28*
X2758310Y7011130D03*
X2763310Y6784630D03*
X3803310Y6301130D03*
X5043310Y3146130D03*
Y3218630D03*
X5083310Y2783630D03*
X5085810Y2496130D03*
Y2698630D03*
Y2858630D03*
X5090810Y3018630D03*
X5093310Y2938630D03*
X5238310Y2566130D03*
X5320810Y4371130D03*
X5330810Y2628130D03*
X5335810Y2496130D03*
X5338310Y2423630D03*
X5490810Y2296130D03*
X5698310Y3216130D03*
X5705810Y2938630D03*
X5715810Y3028630D03*
X5725810Y7126130D03*
X5735810Y6908630D03*
X5898310Y2293630D03*
D02*
D29*
X1183310Y5433630D03*
Y5608630D03*
X1358310Y5258630D03*
Y5433630D03*
Y5608630D03*
X1533310Y5433630D03*
Y5608630D03*
D02*
D72*
X1084310Y3244390D02*
Y2847130D01*
G75*
G02*
X950810Y2713630I-133500J0D01*
G01*
X638310D01*
Y2708630D01*
X3555810Y688630D02*
Y838630D01*
X3445810Y948630D01*
X2699570D01*
X2698310Y947370D01*
Y945630D01*
D02*
D73*
X2573310Y4748630D03*
Y4903630D03*
Y5043630D03*
Y5183630D03*
Y5323630D03*
X2703310Y4898630D03*
X2706350Y4748630D03*
Y5043630D03*
Y5183630D03*
Y5323630D03*
X2838310Y4748630D03*
Y4898630D03*
X2843310Y5043630D03*
X2973310Y4748630D03*
Y4898630D03*
Y5048630D03*
X3103310Y4748630D03*
Y4898630D03*
Y5048630D03*
X3223310Y4748630D03*
Y4898630D03*
Y5048630D03*
D02*
D74*
X3093310Y6613630D03*
X3258310Y7333630D03*
X3323310Y7071130D03*
X3443310Y5591130D03*
X3548310Y5616130D03*
X4250810Y7828630D03*
X4445810Y5791130D03*
X4453310Y2668630D03*
Y3188630D03*
X4520810Y2551130D03*
Y6383630D03*
X4590810Y2463630D03*
X4595810Y6208630D03*
X4660810Y2378630D03*
Y6296130D03*
X4760810Y7343630D03*
Y7728630D03*
X4853010Y2338630D03*
X4913310Y6538630D03*
X4925810Y7576130D03*
X4980810Y3391130D03*
X5048310Y6473630D03*
X5178310Y2823130D03*
X5243310Y2986130D03*
X5305810Y3446130D03*
X5380810Y6913630D03*
X5388310Y5776130D03*
X5480810Y3408630D03*
X5545810Y3883630D03*
X5608310Y3383630D03*
X5760810Y5788630D03*
X5778310Y3411130D03*
X5845810Y3518630D03*
X5895810Y5646130D03*
Y5913630D03*
X5905810Y3216130D03*
X6398310Y5643630D03*
D02*
D75*
X2683310Y7353630D03*
X2704420Y7529740D03*
X4875810Y7068630D03*
X4943310Y6871130D03*
X5755810Y5906130D03*
X6080810Y4161130D03*
D02*
D76*
X638310Y2708630D03*
D02*
D77*
Y1184630D03*
Y1692630D03*
Y2200630D03*
X1701350Y6446350D03*
Y8016350D03*
D02*
D78*
X3615810Y8268630D03*
Y8522630D03*
X3869810Y8268630D03*
Y8522630D03*
X4123810Y8268630D03*
Y8522630D03*
X4377810Y8268630D03*
Y8522630D03*
X4631810Y8268630D03*
Y8522630D03*
X4885810Y8268630D03*
Y8522630D03*
X5139810Y8268630D03*
Y8522630D03*
X5393810Y8268630D03*
Y8522630D03*
D02*
D79*
X5986350Y881350D03*
Y1531350D03*
X6436350Y881350D03*
Y1531350D03*
D02*
D80*
X2031350Y7675850D03*
D02*
D81*
Y6913850D03*
Y7167850D03*
Y7421850D03*
X2285350Y6786850D03*
Y7040850D03*
Y7294850D03*
Y7548850D03*
D02*
D82*
X990350Y6567350D03*
Y6821350D03*
Y7641350D03*
Y7895350D03*
D02*
D83*
X3215840Y4424390D03*
X4151640Y340310D03*
X4409810Y343630D03*
X4663810D03*
X4917810D03*
X5171810D03*
X5425810D03*
X5643310Y866130D03*
Y1120130D03*
D02*
D84*
X1084310Y3244390D03*
Y3752390D03*
D02*
D85*
X2316350Y336350D03*
Y590350D03*
X2916350Y336350D03*
Y590350D03*
D02*
D86*
X318310Y318630D03*
Y8638630D03*
X6458310Y318630D03*
Y8638630D03*
D02*
D87*
X1088310Y351130D03*
X1593310D03*
X0Y0D02*
M02*
